<?xml version="1.0" ?><!DOCTYPE svg  PUBLIC '-//W3C//DTD SVG 1.1//EN'  'http://www.w3.org/Graphics/SVG/1.1/DTD/svg11.dtd'><svg enable-background="new 0 0 128 128" id="Слой_1" version="1.1" viewBox="0 0 128 128" xml:space="preserve" xmlns="http://www.w3.org/2000/svg" xmlns:xlink="http://www.w3.org/1999/xlink"><g><path d="M64,2C47.483,2,32.475,8.458,21.363,18.987C9.438,30.287,5.364,87.056,11.196,96.508   C22.114,114.205,41.679,126,64,126c34.242,0,62-27.758,62-62C126,29.758,98.242,2,64,2z" fill="#E5E4DE"/><path d="M2.083,60.781c0.049-0.951,0.124-1.894,0.215-2.833C2.208,58.887,2.131,59.83,2.083,60.781z" fill="#34393B"/><path d="M2.073,66.885C2.029,65.929,2,64.968,2,64C2,64.968,2.03,65.928,2.073,66.885z" fill="#34393B"/><path d="M2.106,67.525c0.044,0.796,0.107,1.586,0.18,2.373c-0.004-0.037-0.005-0.074-0.008-0.111   C2.209,69.036,2.149,68.283,2.106,67.525z" fill="#34393B"/><path d="M5.593,84.817c0.13,0.364,0.264,0.726,0.401,1.087C5.857,85.543,5.722,85.181,5.593,84.817z" fill="#34393B"/><path d="M2.278,69.787c0.003,0.037,0.005,0.074,0.008,0.111c0.028,0.299,0.059,0.597,0.091,0.894   c0.007,0.068,0.018,0.134,0.026,0.201C2.358,70.592,2.315,70.19,2.278,69.787z" fill="#34393B"/><path d="M4.576,81.691c0.104,0.35,0.205,0.702,0.315,1.05C4.78,82.394,4.68,82.042,4.576,81.691z" fill="#34393B"/><path d="M2.617,72.677c0.073,0.523,0.153,1.044,0.24,1.563C2.771,73.721,2.69,73.2,2.617,72.677z" fill="#34393B"/><path d="M6.606,87.458c0.189,0.462,0.383,0.92,0.583,1.376C6.989,88.377,6.795,87.919,6.606,87.458z" fill="#34393B"/><path d="M9.316,93.226c0.174,0.326,0.356,0.646,0.536,0.968C9.672,93.873,9.49,93.552,9.316,93.226z" fill="#34393B"/><path d="M10.596,95.489c0.183,0.309,0.362,0.621,0.55,0.926h0C10.959,96.11,10.779,95.798,10.596,95.489z" fill="#34393B"/><path d="M3.867,79.128c0.092,0.368,0.193,0.733,0.292,1.098C4.061,79.86,3.959,79.496,3.867,79.128z" fill="#34393B"/><path d="M7.841,90.276c0.161,0.344,0.323,0.688,0.49,1.028C8.164,90.964,8.002,90.62,7.841,90.276z" fill="#34393B"/><path d="M3.139,75.817c0.075,0.388,0.15,0.775,0.233,1.161C3.289,76.593,3.213,76.205,3.139,75.817z" fill="#34393B"/><path d="M3.486,50.525c0.119-0.535,0.237-1.071,0.369-1.601C3.723,49.454,3.605,49.989,3.486,50.525z" fill="#34393B"/><path d="M3.139,75.817c-0.101-0.523-0.194-1.049-0.282-1.577C2.945,74.768,3.038,75.294,3.139,75.817z" fill="#34393B"/><path d="M2.106,67.525c0.043,0.758,0.102,1.511,0.172,2.262c-0.07-0.751-0.13-1.505-0.172-2.263   C2.106,67.524,2.106,67.524,2.106,67.525z" fill="#34393B"/><path d="M2.876,53.652c0.105-0.627,0.211-1.253,0.335-1.873C3.087,52.399,2.982,53.025,2.876,53.652z" fill="#34393B"/><path d="M2.321,57.653L2.321,57.653c0.101-0.994,0.229-1.98,0.376-2.96C2.55,55.673,2.422,56.659,2.321,57.653z" fill="#34393B"/><path d="M2.298,57.948c-0.091,0.939-0.167,1.882-0.215,2.833c0,0,0,0,0,0c0.049-0.957,0.125-1.906,0.217-2.851   C2.299,57.937,2.299,57.942,2.298,57.948z" fill="#34393B"/><path d="M2.617,72.677c-0.078-0.559-0.151-1.12-0.214-1.683C2.467,71.557,2.539,72.118,2.617,72.677z" fill="#34393B"/><path d="M7.841,90.276c-0.224-0.477-0.44-0.959-0.652-1.443C7.401,89.317,7.617,89.799,7.841,90.276z" fill="#34393B"/><path d="M9.316,93.226c-0.34-0.634-0.667-1.275-0.984-1.922C8.649,91.951,8.976,92.592,9.316,93.226z" fill="#34393B"/><path d="M10.596,95.489c-0.253-0.428-0.501-0.86-0.744-1.294C10.095,94.63,10.343,95.061,10.596,95.489z" fill="#34393B"/><path d="M4.576,81.691c-0.145-0.486-0.283-0.975-0.416-1.466C4.292,80.717,4.431,81.205,4.576,81.691z" fill="#34393B"/><path d="M6.606,87.458c-0.211-0.515-0.415-1.032-0.612-1.553C6.19,86.426,6.395,86.943,6.606,87.458z" fill="#34393B"/><path d="M3.867,79.128c-0.178-0.711-0.342-1.429-0.496-2.149C3.525,77.699,3.689,78.416,3.867,79.128z" fill="#34393B"/><path d="M5.593,84.817c-0.245-0.687-0.481-1.377-0.702-2.075C5.111,83.439,5.348,84.13,5.593,84.817z" fill="#34393B"/><path d="M7.179,39.187c0.136-0.311,0.278-0.619,0.419-0.927C7.457,38.568,7.316,38.876,7.179,39.187z" fill="#34393B"/><path d="M5.082,44.693c0.14-0.427,0.282-0.852,0.431-1.274C5.364,43.841,5.222,44.266,5.082,44.693z" fill="#34393B"/><path d="M9.753,33.978c0.034-0.061,0.07-0.12,0.104-0.18C9.823,33.858,9.787,33.917,9.753,33.978z" fill="#34393B"/><path d="M6.069,41.903c0.143-0.374,0.29-0.745,0.44-1.115C6.359,41.158,6.212,41.529,6.069,41.903z" fill="#34393B"/><path d="M8.408,36.545c0.11-0.222,0.226-0.44,0.338-0.661C8.634,36.105,8.518,36.323,8.408,36.545z" fill="#34393B"/><path d="M4.22,47.56c0.131-0.477,0.263-0.954,0.405-1.426C4.483,46.607,4.351,47.083,4.22,47.56z" fill="#34393B"/><path d="M15.944,96.503c0-0.042-0.006-0.083-0.006-0.126c0-0.299,0.027-0.591,0.044-0.885l28.442-2.914   c0.239,0.893,1.019,1.528,1.935,1.528h17.559c1.105,0,2-0.895,2-2V22.029c0-1.673-1.343-3.029-3-3.029H21.375   c-4.545,4.307-8.438,9.294-11.519,14.797c-0.034,0.061-0.07,0.12-0.104,0.18c-0.349,0.628-0.679,1.266-1.006,1.907   c-0.112,0.22-0.228,0.439-0.338,0.661c-0.28,0.566-0.546,1.139-0.81,1.715c-0.141,0.308-0.283,0.616-0.419,0.927   c-0.232,0.529-0.453,1.063-0.67,1.6c-0.15,0.37-0.297,0.742-0.44,1.115c-0.192,0.502-0.377,1.008-0.556,1.516   c-0.149,0.422-0.291,0.848-0.431,1.274c-0.157,0.478-0.311,0.958-0.457,1.442c-0.142,0.472-0.274,0.949-0.405,1.426   c-0.125,0.453-0.25,0.906-0.365,1.363c-0.132,0.53-0.251,1.065-0.369,1.601c-0.093,0.418-0.191,0.833-0.275,1.254   c-0.124,0.62-0.229,1.247-0.335,1.873c-0.058,0.347-0.126,0.692-0.179,1.041c-0.148,0.98-0.275,1.966-0.376,2.96   c-0.009,0.092-0.013,0.185-0.021,0.278c-0.092,0.945-0.168,1.894-0.217,2.851C2.029,61.848,2,62.92,2,64   c0,0.968,0.029,1.929,0.073,2.885c0.01,0.213,0.021,0.426,0.033,0.638c0.043,0.759,0.102,1.512,0.172,2.263   c0.037,0.404,0.08,0.805,0.125,1.207c0.063,0.564,0.136,1.124,0.214,1.683c0.073,0.523,0.154,1.044,0.24,1.563   c0.088,0.528,0.181,1.054,0.282,1.577c0.075,0.388,0.15,0.776,0.233,1.161c0.154,0.721,0.318,1.438,0.496,2.149   c0.092,0.368,0.194,0.733,0.292,1.098c0.133,0.491,0.272,0.98,0.416,1.466c0.104,0.35,0.205,0.702,0.315,1.05   c0.221,0.698,0.457,1.388,0.702,2.075c0.13,0.364,0.264,0.726,0.401,1.087c0.197,0.521,0.402,1.039,0.612,1.553   c0.189,0.462,0.383,0.92,0.583,1.376c0.212,0.484,0.428,0.965,0.652,1.443c0.161,0.344,0.323,0.688,0.49,1.028   c0.318,0.647,0.645,1.288,0.984,1.922c0.174,0.326,0.356,0.646,0.536,0.968c0.243,0.435,0.491,0.866,0.744,1.294   c0.183,0.309,0.362,0.621,0.55,0.926L15.944,96.503z" fill="#34393B"/><path d="M2.073,66.883C2.029,65.927,2,64.967,2,64C2,64.967,2.03,65.927,2.073,66.883z" fill="#42464A"/><path d="M2.396,70.936c-0.007-0.066-0.018-0.132-0.025-0.199c0.096,0.906,0.209,1.807,0.343,2.701   c-0.028-0.183-0.044-0.371-0.07-0.555C2.551,72.237,2.468,71.588,2.396,70.936z" fill="#42464A"/><path d="M2.104,67.496c0.044,0.805,0.109,1.605,0.183,2.402c-0.003-0.034-0.005-0.068-0.008-0.102   C2.208,69.032,2.147,68.267,2.104,67.496z" fill="#42464A"/><path d="M9.37,93.332c0.091,0.17,0.185,0.338,0.277,0.506C9.555,93.67,9.461,93.502,9.37,93.332z" fill="#42464A"/><polygon fill="#42464A" points="10.971,96.141 10.977,96.15 10.977,96.151  "/><path d="M2.279,69.795c0.003,0.034,0.005,0.068,0.008,0.102c0.026,0.281,0.054,0.56,0.084,0.84   c0.007,0.067,0.018,0.132,0.025,0.199C2.354,70.557,2.314,70.177,2.279,69.795z" fill="#42464A"/><path d="M7.966,90.551c0.077,0.162,0.151,0.325,0.229,0.486C8.117,90.877,8.042,90.713,7.966,90.551z" fill="#42464A"/><path d="M2.643,72.884c0.026,0.184,0.042,0.371,0.07,0.555c0.001,0.004,0.001,0.008,0.002,0.011   c0.035,0.23,0.085,0.455,0.122,0.684C2.77,73.718,2.703,73.302,2.643,72.884z" fill="#42464A"/><path d="M5.628,84.921c0.089,0.249,0.179,0.497,0.272,0.745C5.807,85.418,5.717,85.17,5.628,84.921z" fill="#42464A"/><path d="M6.817,87.992c0.067,0.161,0.139,0.318,0.208,0.478C6.956,88.311,6.884,88.153,6.817,87.992z" fill="#42464A"/><path d="M3.872,79.147c0.075,0.3,0.156,0.598,0.236,0.896C4.028,79.744,3.947,79.447,3.872,79.147z" fill="#42464A"/><path d="M3.148,75.871c0.065,0.334,0.128,0.668,0.198,0.999C3.276,76.539,3.213,76.205,3.148,75.871z" fill="#42464A"/><path d="M4.651,81.957c0.064,0.211,0.122,0.424,0.188,0.633C4.774,82.381,4.715,82.168,4.651,81.957z" fill="#42464A"/><path d="M8.974,35.442c0.071-0.136,0.138-0.274,0.209-0.409C9.111,35.168,9.044,35.306,8.974,35.442z" fill="#42464A"/><path d="M5.352,43.893c0.097-0.283,0.187-0.569,0.288-0.851C5.539,43.324,5.45,43.611,5.352,43.893z" fill="#42464A"/><path d="M11.997,30.258c0.042-0.065,0.083-0.13,0.125-0.195C12.08,30.127,12.039,30.193,11.997,30.258z" fill="#42464A"/><path d="M10.429,32.802c0.057-0.097,0.111-0.196,0.168-0.293C10.54,32.606,10.486,32.705,10.429,32.802z" fill="#42464A"/><path d="M7.639,38.171c0.082-0.18,0.16-0.362,0.244-0.54C7.799,37.81,7.721,37.992,7.639,38.171z" fill="#42464A"/><path d="M6.429,40.99c0.092-0.229,0.177-0.461,0.271-0.689C6.606,40.529,6.521,40.761,6.429,40.99z" fill="#42464A"/><path d="M2.97,53.126c0.086-0.488,0.164-0.979,0.261-1.463C3.134,52.146,3.057,52.638,2.97,53.126z" fill="#42464A"/><path d="M2.474,56.453c0.073-0.599,0.138-1.201,0.228-1.795C2.612,55.252,2.546,55.854,2.474,56.453z" fill="#42464A"/><path d="M17.326,23.214c0.004-0.004,0.007-0.009,0.011-0.013C17.333,23.205,17.329,23.21,17.326,23.214z" fill="#42464A"/><path d="M2.073,66.883c0,0,0,0.001,0,0.001C2.029,65.927,2,64.967,2,64C2,64.967,2.029,65.927,2.073,66.883z" fill="#42464A"/><path d="M2.081,60.805L2.081,60.805c0.053-1.039,0.132-2.071,0.235-3.095C2.213,58.734,2.134,59.766,2.081,60.805z" fill="#42464A"/><path d="M4.414,46.878c0.098-0.342,0.188-0.687,0.291-1.026C4.601,46.191,4.512,46.536,4.414,46.878z" fill="#42464A"/><path d="M3.618,49.954c0.095-0.409,0.18-0.821,0.283-1.227C3.798,49.133,3.713,49.545,3.618,49.954z" fill="#42464A"/><path d="M15.452,25.461c0.014-0.018,0.028-0.036,0.042-0.054C15.48,25.425,15.466,25.443,15.452,25.461z" fill="#42464A"/><path d="M13.673,27.81c0.028-0.038,0.054-0.077,0.082-0.115C13.728,27.733,13.701,27.772,13.673,27.81z" fill="#42464A"/><path d="M15.963,96.503c0-0.042-0.006-0.083-0.006-0.126c0-8.073,6.505-14.642,14.5-14.642   c6.726,0,12.382,4.654,14.011,10.937c0.217,0.839,0.959,1.433,1.825,1.433h17.645c1.105,0,2-0.895,2-2V22.029   c0-1.673-1.343-3.029-3-3.029H21.68c-0.117,0-0.231,0.014-0.344,0.038c-1.396,1.325-2.731,2.715-3.999,4.163   c-0.004,0.004-0.007,0.009-0.011,0.013c-0.627,0.717-1.238,1.448-1.832,2.193c-0.014,0.018-0.028,0.036-0.042,0.054   c-0.582,0.731-1.147,1.476-1.696,2.234c-0.028,0.038-0.054,0.077-0.082,0.115c-0.533,0.739-1.051,1.49-1.551,2.253   c-0.042,0.065-0.083,0.13-0.125,0.195c-0.482,0.74-0.949,1.49-1.4,2.252c-0.057,0.097-0.112,0.196-0.168,0.293   C10,33.537,9.582,34.28,9.183,35.033c-0.072,0.135-0.139,0.273-0.209,0.409c-0.376,0.722-0.742,1.451-1.091,2.189   c-0.084,0.179-0.162,0.361-0.244,0.54c-0.324,0.704-0.64,1.412-0.938,2.131c-0.094,0.228-0.18,0.46-0.271,0.689   c-0.272,0.68-0.54,1.361-0.789,2.053c-0.101,0.281-0.191,0.568-0.288,0.851c-0.223,0.65-0.445,1.3-0.647,1.959   c-0.104,0.339-0.193,0.684-0.291,1.026c-0.176,0.614-0.355,1.227-0.513,1.849c-0.103,0.406-0.188,0.818-0.283,1.227   c-0.132,0.568-0.27,1.134-0.386,1.709c-0.098,0.484-0.175,0.975-0.261,1.463c-0.091,0.511-0.191,1.018-0.269,1.533   c-0.09,0.594-0.155,1.195-0.228,1.795c-0.051,0.419-0.115,0.834-0.157,1.256c-0.103,1.025-0.183,2.057-0.235,3.095   C2.028,61.863,2,62.928,2,64c0,0.967,0.029,1.927,0.073,2.884c0.009,0.204,0.02,0.408,0.031,0.611   c0.589,10.6,3.842,20.487,9.099,29.009c0.333,0,0.64,0,0.777,0H15.963z" fill="#42464A"/><ellipse cx="30.457" cy="96.377" fill="#79AAB8" rx="12.5" ry="12.623"/><path d="M65.928,88.846h-5.98c-1.11,0-2.01,0.9-2.01,2.01v1.198c0,1.11,0.9,2.01,2.01,2.01h5.98   c1.11,0,2.01-0.9,2.01-2.01v-1.198C67.937,89.745,67.038,88.846,65.928,88.846z" fill="#34393B"/><ellipse cx="30.457" cy="96.377" fill="#42464A" rx="12.5" ry="12.623"/><path d="M38.772,86.971c1.974,2.232,3.185,5.168,3.185,8.397c0,6.971-5.596,12.623-12.5,12.623   c-3.197,0-6.105-1.222-8.315-3.216c2.289,2.588,5.609,4.226,9.315,4.226c6.904,0,12.5-5.651,12.5-12.623   C42.957,92.635,41.335,89.282,38.772,86.971z" fill="#020507" opacity="0.2"/><path d="M30.457,88.804c-4.136,0-7.5,3.397-7.5,7.573c0,4.176,3.364,7.574,7.5,7.574s7.5-3.397,7.5-7.574   C37.957,92.201,34.593,88.804,30.457,88.804z" fill="#34393B"/><path d="M30.457,83.755c-6.904,0-12.5,5.651-12.5,12.623c0,3.743,1.623,7.095,4.185,9.406   c-1.974-2.232-3.185-5.168-3.185-8.397c0-6.971,5.596-12.623,12.5-12.623c3.197,0,6.105,1.222,8.315,3.216   C37.483,85.393,34.164,83.755,30.457,83.755z" fill="#F5F7F9" opacity="0.1"/><path d="M30.457,88.299c-4.411,0-8,3.624-8,8.078c0,4.455,3.589,8.079,8,8.079s8-3.624,8-8.079   C38.457,91.923,34.868,88.299,30.457,88.299z M30.457,103.446c-3.859,0-7-3.171-7-7.069c0-3.898,3.141-7.069,7-7.069   s7,3.171,7,7.069C37.457,100.275,34.316,103.446,30.457,103.446z" fill="#585C60"/><ellipse cx="28.457" cy="94.358" fill="#242527" rx="0.75" ry="0.757"/><ellipse cx="28.457" cy="98.397" fill="#242527" rx="0.75" ry="0.757"/><ellipse cx="32.457" cy="98.397" fill="#242527" rx="0.75" ry="0.757"/><ellipse cx="32.457" cy="94.358" fill="#242527" rx="0.75" ry="0.757"/><path d="M30.457,32.968L12.891,42.49v21.039l17.566,10.592l17.567-10.592V42.49L30.457,32.968z M46.6,42.856   l-5.224,2.788L25.487,36.8l4.97-2.694L46.6,42.856z M21.384,39.024l3.062-1.659l16.317,9.083v3.26l-3.267,1.787v-3.501   L21.384,39.024z M30.459,51.47l-15.987-8.7l5.87-3.182l15.849,8.822L30.459,51.47z M13.891,43.592l16.066,8.743v20.317   l-16.066-9.687V43.592z M30.957,72.652V52.337l5.539-2.956v3.799l5.267-2.88v-3.73l5.261-2.808v19.202L30.957,72.652z" fill="#F5CA41"/><path d="M107.565,76.268c0.714-1.533,1.126-3.242,1.126-5.054c0-6.509-5.163-11.785-11.532-11.785   c-5.668,0-10.371,4.183-11.339,9.691c-0.965-0.33-1.997-0.517-3.075-0.517c-5.232,0-9.473,4.213-9.473,9.41   c0,2.649,1.105,5.037,2.88,6.744c1.631,1.569,2.377,3.938,1.754,6.114c-0.698,2.442-2.946,3.955-8.226,4.681v1.614l14.278,0.042   c1.662,1.73,3.955,2.221,6.525,2.221c3.509,0,6.553-2.005,8.087-4.944c1.837,1.327,4.127,2.124,6.62,2.124   c6.028,0,10.914-4.61,10.914-10.296C116.105,81.396,112.45,77.291,107.565,76.268z" fill="#42464A" opacity="0.2"/><path d="M67.68,97.252H52.176c-1.407,0-2.551-1.144-2.551-2.551v-0.639h1.75v0.639c0,0.441,0.359,0.801,0.801,0.801   H67.68V97.252z" fill="#34393B"/></g></svg>