<?xml version="1.0" ?><!DOCTYPE svg  PUBLIC '-//W3C//DTD SVG 1.1//EN'  'http://www.w3.org/Graphics/SVG/1.1/DTD/svg11.dtd'><svg enable-background="new 0 0 128 128" id="Слой_1" version="1.1" viewBox="0 0 128 128" xml:space="preserve" xmlns="http://www.w3.org/2000/svg" xmlns:xlink="http://www.w3.org/1999/xlink"><g><path d="M64,2C29.758,2,2,29.758,2,64c0,23.357,12.916,43.698,31.995,54.269c8.891,4.926,51.118,4.926,60.009,0   C113.084,107.698,126,87.357,126,64C126,29.758,98.242,2,64,2z" fill="#62C8CF"/><path d="M86.667,18H41.333C37.283,18,34,21.283,34,25.333v92.926c1.094,0.606,2.208,1.18,3.341,1.721   c8.076,3.855,45.246,3.854,53.324-0.003c1.131-0.54,2.243-1.113,3.335-1.718V25.333C94,21.283,90.717,18,86.667,18z" fill="#2C3335"/><path d="M37.333,33.345v86.637C45.412,123.837,54.453,126,64,126s18.588-2.163,26.667-6.018V33.345H37.333z" fill="#C45C45"/><circle cx="64" cy="77.333" fill="#F5CA41" r="22.5"/><path d="M64,57.333c-11.028,0-20,8.972-20,20s8.972,20,20,20s20-8.972,20-20S75.028,57.333,64,57.333   z" fill="#F5F8F8" opacity="0.3"/><path d="   M63.936,85.567" fill="none" stroke="#303536" stroke-linecap="round" stroke-linejoin="round" stroke-miterlimit="10" stroke-width="1.7143"/><path d="M67.364,77.13c-0.534-0.347-1.145-0.626-1.817-0.831c-0.529-0.161-1.071-0.316-1.627-0.47   c-0.479-0.131-0.951-0.288-1.402-0.466c-0.323-0.127-0.608-0.298-0.849-0.506c-0.19-0.164-0.351-0.391-0.482-0.674   C61.117,74.031,61,73.675,61,72.984c0-0.332,0.059-0.66,0.177-0.978c0.109-0.295,0.274-0.562,0.491-0.792   c0.218-0.231,0.511-0.424,0.871-0.575C62.92,70.48,63.39,70.4,63.936,70.4c0.543,0,1.002,0.082,1.365,0.245   c0.34,0.153,0.619,0.355,0.828,0.601c0.223,0.264,0.395,0.578,0.509,0.935c0.217,0.676,0.942,1.05,1.617,0.832   c0.676-0.216,1.049-0.94,0.832-1.617c-0.218-0.68-0.553-1.289-0.996-1.813c-0.46-0.542-1.045-0.974-1.738-1.285   c-0.348-0.156-0.726-0.273-1.13-0.352V67.69c0-0.71-0.576-1.286-1.286-1.286c-0.71,0-1.286,0.576-1.286,1.286v0.253   c-0.391,0.073-0.759,0.18-1.101,0.323c-0.696,0.291-1.286,0.689-1.753,1.185c-0.455,0.484-0.802,1.044-1.031,1.664   c-0.223,0.603-0.336,1.231-0.336,1.868c0,0.9,0.142,1.665,0.421,2.271c0.284,0.62,0.666,1.14,1.136,1.546   c0.46,0.399,0.995,0.719,1.588,0.954c0.537,0.212,1.097,0.399,1.664,0.554c0.533,0.147,1.053,0.298,1.561,0.451   c0.442,0.134,0.834,0.312,1.166,0.527c0.303,0.197,0.555,0.458,0.748,0.773C66.9,80.371,67,80.823,67,81.369   c0,0.412-0.06,0.807-0.179,1.174c-0.11,0.34-0.281,0.64-0.506,0.892c-0.211,0.236-0.493,0.427-0.837,0.569   c-0.662,0.271-1.732,0.298-2.561,0.035c-0.356-0.112-0.675-0.297-0.951-0.55c-0.286-0.261-0.528-0.617-0.719-1.055   c-0.283-0.652-1.04-0.95-1.692-0.667c-0.651,0.283-0.949,1.04-0.666,1.691c0.336,0.773,0.787,1.422,1.34,1.927   c0.552,0.507,1.196,0.879,1.912,1.105c0.166,0.053,0.337,0.098,0.509,0.137v0.348c0,0.71,0.576,1.286,1.286,1.286   c0.71,0,1.286-0.576,1.286-1.286v-0.264c0.441-0.068,0.856-0.175,1.234-0.33c0.706-0.291,1.304-0.706,1.776-1.233   c0.465-0.52,0.814-1.13,1.036-1.814c0.202-0.623,0.304-1.285,0.304-1.967c0-1.032-0.223-1.922-0.663-2.646   C68.513,78.074,67.993,77.539,67.364,77.13z" fill="#42464A"/><path d="M64,57.333c-11.028,0-20,8.972-20,20c0,5.704,2.405,10.855,6.248,14.502   c-3.404-3.587-5.498-8.428-5.498-13.752c0-11.028,8.972-20,20-20c5.324,0,10.164,2.095,13.752,5.498   C74.855,59.738,69.704,57.333,64,57.333z" fill="#020507" opacity="0.1"/><path d="M77.752,62.832c3.404,3.587,5.498,8.428,5.498,13.752c0,11.028-8.972,20-20,20   c-5.324,0-10.164-2.095-13.752-5.498c3.647,3.844,8.797,6.248,14.502,6.248c11.028,0,20-8.972,20-20   C84,71.629,81.596,66.479,77.752,62.832z" fill="#F5F8F8" opacity="0.3"/><circle cx="54.444" cy="26" fill="#484E51" r="1.333"/><path d="M69.333,25.333H58.667C58.299,25.333,58,25.632,58,26s0.299,0.667,0.667,0.667h10.667   C69.701,26.667,70,26.368,70,26S69.701,25.333,69.333,25.333z" fill="#484E51"/></g></svg>