<?xml version="1.0" ?><!DOCTYPE svg  PUBLIC '-//W3C//DTD SVG 1.1//EN'  'http://www.w3.org/Graphics/SVG/1.1/DTD/svg11.dtd'><svg enable-background="new 0 0 128 128" id="Слой_1" version="1.1" viewBox="0 0 128 128" xml:space="preserve" xmlns="http://www.w3.org/2000/svg" xmlns:xlink="http://www.w3.org/1999/xlink"><g><circle cx="64" cy="64" fill="#E5E4DE" r="62"/><polygon fill="#41B19C" points="104,42.583 104,31.75 24,31.75 24,42.583 21,45.25 21,47 107,47 107,45.25  "/><polygon fill="#020507" opacity="0.2" points="30,45.25 30,37.25 21,45.25  "/><path d="M21,45.25v50c0,0.552,0.448,1,1,1h84c0.552,0,1-0.448,1-1v-50H21z" fill="#7B4C4C"/><circle cx="46.857" cy="53.107" fill="#2C2E30" r="2.857"/><circle cx="81.143" cy="53.107" fill="#2C2E30" r="2.857"/><path d="M81.143,52.125c-0.553,0-1,0.447-1,1v3.982C80.143,66.239,72.6,74.25,64,74.25s-16.143-8.011-16.143-17.143   v-3.982c0-0.553-0.447-1-1-1s-1,0.447-1,1v3.982c0,10.376,8.309,19.143,18.143,19.143s18.143-8.767,18.143-19.143v-3.982   C82.143,52.572,81.695,52.125,81.143,52.125z" fill="#FEFFFF"/><polygon fill="#7B4C4C" points="24,42.583 30,37.25 24,31.75  "/><polygon fill="#7B4C4C" points="104,31.75 104,42.583 98,37.25  "/><polygon fill="#020507" opacity="0.2" points="107,45.25 98,37.25 98,45.25  "/></g></svg>