<?xml version="1.0" ?><!DOCTYPE svg  PUBLIC '-//W3C//DTD SVG 1.1//EN'  'http://www.w3.org/Graphics/SVG/1.1/DTD/svg11.dtd'><svg enable-background="new 0 0 128 128" id="Слой_1" version="1.1" viewBox="0 0 128 128" xml:space="preserve" xmlns="http://www.w3.org/2000/svg" xmlns:xlink="http://www.w3.org/1999/xlink"><g><circle cx="64" cy="64" fill="#41B19C" r="62"/><path d="M79.118,40.826c-0.487,0-0.882-0.394-0.882-0.882v-3.512c0-8.053-6.652-15.118-14.236-15.118   s-14.236,7.065-14.236,15.118v3.512c0,0.487-0.394,0.882-0.882,0.882c-0.487,0-0.882-0.394-0.882-0.882v-3.512   c0-9.151,7.327-16.882,16-16.882s16,7.731,16,16.882v3.512C80,40.431,79.606,40.826,79.118,40.826z" fill="#FEFFFF"/><polygon fill="#F5CA41" points="104,42.584 104,31.75 24,31.75 24,42.584 21,45.25 21,47 107,47 107,45.25  "/><polygon fill="#020507" opacity="0.2" points="30,45.25 30,37.25 21,45.25  "/><path d="M21,45.25v50c0,0.552,0.448,1,1,1h84c0.552,0,1-0.448,1-1v-50H21z" fill="#42464A"/><circle cx="46.857" cy="53.107" fill="#2C2E30" r="2.857"/><circle cx="81.143" cy="53.107" fill="#2C2E30" r="2.857"/><path d="M81.143,54.25c-0.553,0-1-0.447-1-1v-3.982c0-9.132-7.543-17.143-16.143-17.143   s-16.143,8.011-16.143,17.143v3.982c0,0.553-0.447,1-1,1s-1-0.447-1-1v-3.982c0-10.376,8.309-19.143,18.143-19.143   s18.143,8.767,18.143,19.143v3.982C82.143,53.803,81.695,54.25,81.143,54.25z" fill="#FEFFFF"/><polygon fill="#42464A" points="24,42.584 30,37.25 24,31.75  "/><polygon fill="#42464A" points="104,31.75 104,42.584 98,37.25  "/><polygon fill="#020507" opacity="0.2" points="107,45.25 98,37.25 98,45.25  "/></g></svg>