<?xml version="1.0" ?><!DOCTYPE svg  PUBLIC '-//W3C//DTD SVG 1.1//EN'  'http://www.w3.org/Graphics/SVG/1.1/DTD/svg11.dtd'><svg enable-background="new 0 0 128 128" id="Слой_1" version="1.1" viewBox="0 0 128 128" xml:space="preserve" xmlns="http://www.w3.org/2000/svg" xmlns:xlink="http://www.w3.org/1999/xlink"><g><path d="M64,2C29.758,2,2,29.758,2,64c0,34.242,27.758,62,62,62c22.455,0,42.122-11.937,53.001-29.812   c5.71-9.383,1.752-65.489-9.906-76.762C95.939,8.638,80.745,2,64,2z" fill="#E5E4DE"/><path d="M126,64c0,0.964-0.029,1.92-0.073,2.873C125.97,65.92,126,64.964,126,64z" fill="#34393B"/><path d="M125.895,67.504c-0.112,2.004-0.312,3.984-0.609,5.933C125.58,71.487,125.785,69.509,125.895,67.504z" fill="#34393B"/><path d="M125.286,73.437c0.298-1.949,0.497-3.929,0.609-5.933c0.012-0.21,0.022-0.421,0.032-0.631   C125.971,65.92,126,64.964,126,64c0-1.072-0.028-2.138-0.081-3.197c-0.824-16.22-7.892-30.783-18.835-41.365H74.315   c-1.689,0-3.046,1.395-2.999,3.083l0.039,1.417l-13.01,31.518c-0.194,0.47-0.56,0.849-1.024,1.059l-13.278,6.01   c-1.789,0.81-2.938,2.592-2.938,4.555l0.02,24.546L46.043,91c0,0,30.596,3.77,30.595,3.812l40.73,0.738   c3.951-6.668,6.698-14.133,7.917-22.104C125.285,73.443,125.286,73.44,125.286,73.437z M74.355,51.755c0,0.939-0.761,1.7-1.7,1.7   h-8.769c-1.211,0-2.033-1.23-1.571-2.349l8.769-21.244c0.71-1.721,3.271-1.213,3.271,0.649V51.755z" fill="#34393B"/><path d="M126,64c0,0.966-0.029,1.925-0.073,2.881C125.97,65.925,126,64.966,126,64z" fill="#42464A"/><path d="M125.927,66.881C125.971,65.925,126,64.966,126,64c0-1.072-0.028-2.138-0.081-3.197   c-0.824-16.22-7.892-30.783-18.835-41.365H74.334c-1.689,0-3.046,1.394-2.999,3.083l0.039,1.417l-13.01,31.518   c-0.194,0.47-0.56,0.849-1.024,1.059l-13.278,6.01c-1.789,0.81-2.938,2.592-2.938,4.555V92h3.593c0.765,0,1.459-0.469,1.72-1.189   c2.165-5.976,7.997-10.249,14.706-10.249c8.547,0,15.5,6.953,15.5,15.5c0,0.042-0.006,0.083-0.006,0.125H117   c5.138-8.441,8.309-18.208,8.895-28.666C125.906,67.308,125.917,67.095,125.927,66.881z M74.375,51.755c0,0.939-0.761,1.7-1.7,1.7   h-8.769c-1.211,0-2.033-1.23-1.571-2.349l8.769-21.244c0.71-1.721,3.271-1.213,3.271,0.649V51.755z" fill="#42464A"/><path d="M74.367,30.424c0.001,0.03,0.008,0.057,0.008,0.087v21.244c0,0.939-0.761,1.7-1.7,1.7h-7.308   c0.263,0.574,0.83,1,1.538,1h8.769c0.939,0,1.7-0.761,1.7-1.7V31.511C77.375,29.833,75.298,29.261,74.367,30.424z" fill="#42464A"/><circle cx="61.145" cy="96.062" fill="#42464A" r="12.5"/><path d="M61.145,83.562c-6.904,0-12.5,5.596-12.5,12.5c0,3.706,1.623,7.026,4.185,9.315   c-1.975-2.21-3.185-5.118-3.185-8.315c0-6.904,5.596-12.5,12.5-12.5c3.197,0,6.105,1.21,8.315,3.185   C68.171,85.185,64.851,83.562,61.145,83.562z" fill="#F6FBFB" opacity="0.1"/><path d="M69.46,86.748c1.975,2.21,3.185,5.118,3.185,8.315c0,6.904-5.596,12.5-12.5,12.5   c-3.197,0-6.105-1.21-8.315-3.185c2.289,2.562,5.609,4.185,9.315,4.185c6.904,0,12.5-5.596,12.5-12.5   C73.645,92.356,72.022,89.037,69.46,86.748z" fill="#020507" opacity="0.2"/><path d="M61.145,88.562c-4.136,0-7.5,3.364-7.5,7.5s3.364,7.5,7.5,7.5s7.5-3.364,7.5-7.5   S65.28,88.562,61.145,88.562z" fill="#34393B"/><path d="M61.145,83.562c-6.904,0-12.5,5.596-12.5,12.5c0,3.706,1.623,7.026,4.185,9.315   c-1.975-2.21-3.185-5.118-3.185-8.315c0-6.904,5.596-12.5,12.5-12.5c3.197,0,6.105,1.21,8.315,3.185   C68.171,85.185,64.851,83.562,61.145,83.562z" fill="#F5F7F9" opacity="0.1"/><path d="M61.145,88.062c-4.411,0-8,3.589-8,8s3.589,8,8,8s8-3.589,8-8S65.556,88.062,61.145,88.062z    M61.145,103.062c-3.859,0-7-3.14-7-7s3.141-7,7-7s7,3.14,7,7S65.004,103.062,61.145,103.062z" fill="#585C60"/><path d="M44.562,86.833h-6c-1.105,0-2,0.896-2,2V90c0,1.104,0.895,2,2,2h6c1.105,0,2-0.896,2-2v-1.167   C46.562,87.729,45.667,86.833,44.562,86.833z" fill="#34393B"/><path d="M114.583,92.253l-6.535-29.351c-0.032-0.143-0.048-0.288-0.048-0.435V30.562c0-1.105-0.895-2-2-2H81   c-1.105,0-2,0.895-2,2v31.905c0,0.146,0.016,0.292,0.048,0.435l6.729,30.22c0.204,0.915,1.015,1.565,1.952,1.565h24.902   C113.911,94.688,114.861,93.502,114.583,92.253z" fill="#34393B"/><circle cx="59.145" cy="94.062" fill="#242527" r="0.75"/><circle cx="59.145" cy="98.062" fill="#242527" r="0.75"/><circle cx="63.145" cy="98.062" fill="#242527" r="0.75"/><circle cx="63.145" cy="94.062" fill="#242527" r="0.75"/><path d="M40,72.937v7.625c0,0.345,0.28,0.625,0.625,0.625h0.5v-8.875h-0.5C40.28,72.312,40,72.592,40,72.937z" fill="#34393B"/><path d="M40,80.563v-7.625C38.718,75.39,38.948,77.948,40,80.563z" fill="#F5CA41"/><circle cx="48.875" cy="74.562" fill="#F5CA41" r="1.5"/></g></svg>