<?xml version="1.0" ?><!DOCTYPE svg  PUBLIC '-//W3C//DTD SVG 1.1//EN'  'http://www.w3.org/Graphics/SVG/1.1/DTD/svg11.dtd'><svg enable-background="new 0 0 128 128" id="Слой_1" version="1.1" viewBox="0 0 128 128" xml:space="preserve" xmlns="http://www.w3.org/2000/svg" xmlns:xlink="http://www.w3.org/1999/xlink"><g><path d="M64,2C29.758,2,2,29.758,2,64c0,23.357,12.916,43.698,31.995,54.269c8.891,4.926,51.118,4.926,60.009,0   C113.084,107.698,126,87.357,126,64C126,29.758,98.242,2,64,2z" fill="#62C8CF"/><path d="M86.667,18H41.333C37.283,18,34,21.283,34,25.333v92.926c1.094,0.606,2.208,1.18,3.341,1.721   c8.076,3.855,45.246,3.854,53.324-0.003c1.131-0.54,2.243-1.113,3.335-1.718V25.333C94,21.283,90.717,18,86.667,18z" fill="#2C3335"/><path d="M37.333,33.345v86.637C45.412,123.837,54.453,126,64,126s18.588-2.163,26.667-6.018V33.345H37.333z" fill="#F5CA41"/><path d="M55.737,74.853l-1.523-0.556c-0.612-0.223-0.927-0.9-0.704-1.512l6.013-16.481   c0.223-0.612,0.9-0.927,1.512-0.704l1.523,0.556c0.612,0.223,0.927,0.9,0.704,1.512l-6.013,16.481   C57.026,74.761,56.349,75.076,55.737,74.853z" fill="#42464A"/><path d="M73.788,74.299l-1.523,0.557c-0.612,0.224-1.289-0.091-1.513-0.702l-6.03-16.479   c-0.224-0.612,0.091-1.289,0.702-1.513l1.523-0.557c0.612-0.224,1.289,0.091,1.513,0.702l6.03,16.479   C74.715,73.397,74.4,74.075,73.788,74.299z" fill="#42464A"/><path d="M70.929,74.638c0.126,0.344,0.507,0.521,0.851,0.395l2.493-0.912   c0.344-0.126,0.521-0.507,0.395-0.851l-1.213-3.315h-4.239L70.929,74.638z" fill="#020507" opacity="0.2"/><path d="M53.333,73.27c-0.126,0.344,0.052,0.725,0.396,0.851l2.493,0.91   c0.344,0.126,0.725-0.052,0.851-0.396l1.707-4.679h-4.237L53.333,73.27z" fill="#020507" opacity="0.2"/><path d="M85.375,71.08h-42.75c-0.621,0-1.125,0.504-1.125,1.125v3.375c0,0.621,0.504,1.125,1.125,1.125h1.696   l2.496,19.969c0.176,1.407,1.372,2.464,2.791,2.464h28.784c1.418,0,2.615-1.056,2.791-2.464l2.496-19.969h1.696   c0.621,0,1.125-0.504,1.125-1.125v-3.375C86.5,71.584,85.996,71.08,85.375,71.08z M56.687,93.252c0,0.621-0.504,1.125-1.125,1.125   c-0.621,0-1.125-0.504-1.125-1.125V81.439c0-0.621,0.504-1.125,1.125-1.125c0.621,0,1.125,0.504,1.125,1.125V93.252z    M65.125,93.252c0,0.621-0.504,1.125-1.125,1.125c-0.621,0-1.125-0.504-1.125-1.125V81.439c0-0.621,0.504-1.125,1.125-1.125   c0.621,0,1.125,0.504,1.125,1.125V93.252z M73.562,93.252c0,0.621-0.504,1.125-1.125,1.125c-0.621,0-1.125-0.504-1.125-1.125   V81.439c0-0.621,0.504-1.125,1.125-1.125c0.621,0,1.125,0.504,1.125,1.125V93.252z" fill="#C45C45"/><path d="M46.001,76.74l-1.68-0.035l2.496,19.969c0.15,1.202,1.047,2.141,2.188,2.392   c-0.259-0.367-0.441-0.794-0.5-1.267L46.001,76.74z" fill="#F5F8F7" opacity="0.2"/><path d="M42.625,71.08c-0.621,0-1.125,0.504-1.125,1.125v3.375c0,0.621,0.504,1.125,1.125,1.125   h0.562v-4.5c0-0.621,0.504-1.125,1.125-1.125" fill="#F5F8F7" opacity="0.2"/><path d="M85.375,71.08h-0.563v4.5c0,0.621-0.504,1.125-1.125,1.125h1.688   c0.621,0,1.125-0.504,1.125-1.125v-3.375C86.5,71.584,85.996,71.08,85.375,71.08z" fill="#020507" opacity="0.1"/><path d="M83.687,76.638H44.312l0,0L81.7,78.905l-2.205,17.77c-0.176,1.407-1.372,2.464-2.791,2.464   h1.688c1.418,0,2.615-1.056,2.791-2.464l2.496-19.969l0,0L83.687,76.638z" fill="#020507" opacity="0.1"/><circle cx="54.444" cy="26" fill="#484E51" r="1.333"/><path d="M69.333,25.333H58.667C58.299,25.333,58,25.632,58,26s0.299,0.667,0.667,0.667h10.667   C69.701,26.667,70,26.368,70,26S69.701,25.333,69.333,25.333z" fill="#484E51"/></g></svg>