<?xml version="1.0" ?><!DOCTYPE svg  PUBLIC '-//W3C//DTD SVG 1.1//EN'  'http://www.w3.org/Graphics/SVG/1.1/DTD/svg11.dtd'><svg enable-background="new 0 0 128 128" id="Слой_1" version="1.1" viewBox="0 0 128 128" xml:space="preserve" xmlns="http://www.w3.org/2000/svg" xmlns:xlink="http://www.w3.org/1999/xlink"><g><circle cx="64" cy="64" fill="#E5E4DE" r="62"/><path d="M104,42.833V32H24v10.833L21,45.5v19.75h86V45.5L104,42.833z M74.267,45.733H53.733   C51.671,45.733,50,44.062,50,42c0-2.062,1.671-3.733,3.733-3.733h20.533C76.329,38.267,78,39.938,78,42   C78,44.062,76.329,45.733,74.267,45.733z" fill="#42464A"/><polygon fill="#020507" opacity="0.2" points="30,45.5 30,37.5 21,45.5  "/><path d="M21,45.5v50c0,0.552,0.448,1,1,1h84c0.552,0,1-0.448,1-1v-50H21z M75,59.5H53c-2.209,0-4-1.791-4-4   c0-2.209,1.791-4,4-4h22c2.209,0,4,1.791,4,4C79,57.709,77.209,59.5,75,59.5z" fill="#41B19C"/><polygon fill="#41B19C" points="24,42.833 30,37.5 24,32  "/><polygon fill="#41B19C" points="104,32 104,42.833 98,37.5  "/><polygon fill="#020507" opacity="0.2" points="107,45.5 98,37.5 98,45.5  "/></g></svg>