<?xml version="1.0" ?><!DOCTYPE svg  PUBLIC '-//W3C//DTD SVG 1.1//EN'  'http://www.w3.org/Graphics/SVG/1.1/DTD/svg11.dtd'><svg enable-background="new 0 0 128 128" id="Слой_1" version="1.1" viewBox="0 0 128 128" xml:space="preserve" xmlns="http://www.w3.org/2000/svg" xmlns:xlink="http://www.w3.org/1999/xlink"><g><circle cx="64" cy="64" fill="#E5E4DE" r="62"/><path d="M91,36.583V25.75H37v10.833l-3,2.667V55h60V39.25L91,36.583z M74.267,39.483H53.733   c-2.062,0-3.733-1.672-3.733-3.733c0-2.062,1.671-3.733,3.733-3.733h20.533c2.062,0,3.733,1.671,3.733,3.733   C78,37.812,76.329,39.483,74.267,39.483z" fill="#F5CA41"/><path d="M34,39.25v62c0,0.552,0.448,1,1,1h58c0.552,0,1-0.448,1-1v-62H34z M75,53.547H53c-2.209,0-4-1.791-4-4   c0-2.209,1.791-4,4-4h22c2.209,0,4,1.791,4,4C79,51.756,77.209,53.547,75,53.547z" fill="#C45C45"/><polygon fill="#C45C45" points="37,25.75 37,36.583 43,31.25  "/><polygon fill="#C45C45" points="91,25.75 91,36.583 85,31.25  "/><polygon fill="#020507" opacity="0.15" points="34,39.25 43,31.25 43,39.25  "/><polygon fill="#020507" opacity="0.15" points="94,39.25 85,31.25 85,39.25  "/></g></svg>