<?xml version="1.0" ?><!DOCTYPE svg  PUBLIC '-//W3C//DTD SVG 1.1//EN'  'http://www.w3.org/Graphics/SVG/1.1/DTD/svg11.dtd'><svg enable-background="new 0 0 128 128" id="Слой_1" version="1.1" viewBox="0 0 128 128" xml:space="preserve" xmlns="http://www.w3.org/2000/svg" xmlns:xlink="http://www.w3.org/1999/xlink"><g><circle cx="64" cy="64" fill="#E5E4DE" r="62"/><path d="M102,48L87.706,36H38.294L24,48v13h4v38c0,1.105,0.895,2,2,2h66c1.105,0,2-0.895,2-2V61h4V48z" fill="#41B19C"/><polygon enable-background="new    " fill="#030608" opacity="0.1" points="98,61 28,61 28,61.917 64,62.859 64,101 70,101    71.748,63.062 98,63.75  "/><polygon enable-background="new    " fill="#030608" opacity="0.1" points="102,48 24,48 38.294,36 87.706,36  "/><polygon fill="#F5CA41" points="97.235,44 28.765,44 35.912,38 90.088,38  "/><polygon enable-background="new    " fill="#030608" opacity="0.1" points="97.235,44 28.765,44 35.912,38 90.088,38  "/><polygon fill="#F5CA41" points="70,101 56,101 56,48 58.612,36 67.388,36 70,48  "/><polygon enable-background="new    " fill="#030608" opacity="0.1" points="56,48 70,48 67.388,36 58.612,36  "/><polygon enable-background="new    " fill="#030608" opacity="0.1" points="67.823,38 69.129,44 69.729,44 67.979,38  "/><polygon enable-background="new    " fill="#030608" opacity="0.1" points="58.177,38 56.871,44 56.354,44 58.021,38  "/><path d="M63,44c0,0,22.833-1.667,22.833-8H54L63,44z" enable-background="new    " fill="#030608" opacity="0.15"/><path d="M63,38.291V44c0,0,16.732-2.236,20.458-11.454c0,0,1.875-3.969-2.898-8.692   c-0.797-0.788-4.541-2.413-4.541-2.413s7.387,2.161,4.608,8.196C77.54,36.336,63,38.291,63,38.291z" fill="#F5CA41"/><path d="M63,38.291V44c0,0,16.732-2.236,20.458-11.454   c0,0,1.875-3.969-2.898-8.692c-0.797-0.788-4.541-2.413-4.541-2.413s7.387,2.161,4.608,8.196C77.54,36.336,63,38.291,63,38.291z" enable-background="new    " fill="#030608" opacity="0.2"/><path d="M63,44" fill="#499A79"/><path d="M63,44c0,0-0.084-5.551,0-5.709c3.792-7.176,4-13.044,6.904-15.29c0,0,3.799-3.621,8.419-0.886l1.911,1.412   l0.326,0.327c0,0-4.467-2.746-8.86,0.939C68.417,27.546,69.417,30.916,63,44z" fill="#F5CA41"/><path d="M63,38.291V44c0,0-16.84-2.236-20.566-11.454c0,0-1.929-3.969,2.844-8.692   c0.797-0.788,4.514-2.413,4.514-2.413s-7.293,2.161-4.513,8.196C48.365,36.336,63,38.291,63,38.291z" fill="#F5CA41"/><path d="M63,38.291V44c0,0-16.84-2.236-20.566-11.454   c0,0-1.903-3.946,2.844-8.692c0.862-0.862,4.568-2.413,4.568-2.413s-7.347,2.161-4.567,8.196C48.365,36.336,63,38.291,63,38.291z" enable-background="new    " fill="#030608" opacity="0.2"/><path d="M62.784,44" fill="#499A79"/><path d="M63,44c0,0,0.084-5.551,0-5.709c-3.792-7.176-4.216-13.044-7.12-15.29c0,0-3.799-3.621-8.419-0.886   l-1.898,1.427l-0.338,0.366c0,0,4.467-2.8,8.86,0.885C57.367,27.546,56.583,30.916,63,44z" fill="#F5CA41"/><path d="M63,44c0,0,0.084-5.551,0-5.709   c-3.792-7.176-4.216-13.044-7.12-15.29c0,0-3.799-3.621-8.419-0.886l-1.898,1.427l-0.338,0.366c0,0,4.467-2.8,8.86,0.885   C57.367,27.546,56.583,30.916,63,44z" enable-background="new    " fill="#030608" opacity="0.1"/></g></svg>