<?xml version="1.0" ?><!DOCTYPE svg  PUBLIC '-//W3C//DTD SVG 1.1//EN'  'http://www.w3.org/Graphics/SVG/1.1/DTD/svg11.dtd'><svg enable-background="new 0 0 128 128" id="Слой_1" version="1.1" viewBox="0 0 128 128" xml:space="preserve" xmlns="http://www.w3.org/2000/svg" xmlns:xlink="http://www.w3.org/1999/xlink"><g><circle cx="64" cy="64" fill="#41B19C" r="62"/><path d="M105.961,53.068h-5.126L88.363,22.058c-0.984-2.447-3.766-3.633-6.213-2.648L20.123,44.358   c-2.447,0.984-3.633,3.766-2.648,6.213l14.396,35.793c0.477,1.186,1.38,2.067,2.458,2.557v7.503c0,2.637,2.138,4.775,4.775,4.775   h66.856c2.637,0,4.775-2.138,4.775-4.775v-38.58C110.737,55.206,108.599,53.068,105.961,53.068z" fill="#030709" opacity="0.1"/><path d="M97.037,61.282l-61.611,24.78c-2.562,1.03-5.474-0.211-6.505-2.773L14.693,47.914   c-1.03-2.562,0.211-5.474,2.773-6.505l61.611-24.78c2.562-1.03,5.474,0.211,6.505,2.773L99.81,54.778   C100.841,57.34,99.599,60.252,97.037,61.282z" fill="#C45C45"/><rect fill="#3F4549" height="9.551" transform="matrix(-0.9278 0.3732 -0.3732 -0.9278 116.3401 57.2065)" width="76.407" x="14.43" y="35.088"/><rect fill="#FAFCFD" height="7.641" transform="matrix(0.9278 -0.3732 0.3732 0.9278 -15.3423 25.278)" width="62.909" x="26.169" y="48.448"/><path d="M29.554,54.978v29.498c1.25,1.759,3.574,2.511,5.664,1.67l62.027-24.948   c2.447-0.984,3.633-3.766,2.648-6.213l-2.692-6.694H36.24C32.553,48.293,29.554,51.292,29.554,54.978z" fill="#030709" opacity="0.1"/><path d="M102.872,98.333H36.464c-2.761,0-5-2.239-5-5V55.203c0-2.761,2.239-5,5-5h66.407c2.761,0,5,2.239,5,5   v38.131C107.872,96.095,105.633,98.333,102.872,98.333z" fill="#F2F4F5"/><path d="M89.351,62.05c0-3.868,3.136-7.003,7.004-7.003c3.868,0,7.003,3.135,7.003,7.003   c0,3.867-3.135,7.003-7.003,7.003C92.487,69.054,89.351,65.918,89.351,62.05L89.351,62.05z" fill="#F5CA41"/><path d="M91.664,56.837c0.003,0-0.367,0.32-0.614,0.634h1.246c0,0,0.426,0.46,0.583,0.808h-2.435   c0,0-0.236,0.371-0.393,0.684h3.221c0,0,0.295,0.551,0.359,0.842h-3.917c0,0-0.134,0.382-0.191,0.662l4.287-0.005   c0.118,0.538,0.404,2.104-0.185,3.833l-3.895,0.005c0.062,0.207,0.168,0.488,0.269,0.695h3.345   c-0.135,0.281-0.332,0.634-0.444,0.812l-2.452,0.002c0.129,0.196,0.337,0.505,0.471,0.646l1.51-0.001   c-0.283,0.391-0.763,0.797-0.763,0.797h-0.012l0.016,0.005c-1.24,1.117-2.883,1.797-4.684,1.797c-3.868,0-7.003-3.136-7.003-7.003   c0-3.868,3.135-7.003,7.003-7.003C88.784,55.047,90.424,55.724,91.664,56.837L91.664,56.837z" fill="#C45C45"/><path d="M88.344,60.955l-0.113,0.63l-0.614-0.016c0,0-0.307,0.08-0.307,0.21c0,0.129,0.226,0.291,0.566,0.436   c0.34,0.146,0.356,0.549,0.323,0.824c-0.032,0.275-0.081,0.845-1.067,0.873c-0.566,0.016-0.873-0.097-0.873-0.097l0.129-0.646   c0,0,0.727,0.194,0.889,0.081c0.162-0.113,0.355-0.307,0.048-0.436c-0.307-0.129-0.808-0.34-0.808-0.856   c0-0.517,0.21-0.808,0.534-0.954C87.374,60.858,87.94,60.874,88.344,60.955L88.344,60.955z" fill="#FEFFFF"/><polygon fill="#FEFFFF" points="83.489,63.838 82.775,63.838 83.19,61.383 82.307,63.823 81.814,63.823 81.695,61.285    81.263,63.838 80.587,63.838 81.224,60.09 82.044,60.09 82.331,62.248 83.284,60.09 84.126,60.09 83.489,63.838  "/><path d="M88.982,63.891c-0.232,0-0.399-0.052-0.498-0.15c-0.1-0.105-0.15-0.263-0.15-0.465   c0-0.053,0.006-0.105,0.011-0.151c0.006-0.052,0.016-0.112,0.022-0.18l0.43-2.398h0.67l-0.097,0.468h0.626l-0.105,0.593h-0.625   l-0.172,1.022c-0.011,0.067-0.022,0.134-0.033,0.209c-0.011,0.068-0.016,0.136-0.016,0.181c0,0.105,0.016,0.173,0.061,0.211   c0.039,0.037,0.105,0.06,0.194,0.06c0.033,0,0.078-0.008,0.133-0.023c0.056-0.022,0.106-0.037,0.139-0.06h0.055l-0.105,0.601   c-0.078,0.03-0.155,0.045-0.238,0.059C89.198,63.883,89.099,63.891,88.982,63.891L88.982,63.891z" fill="#FEFFFF"/><path d="M93.789,61.804c-0.146-0.113-0.472-0.09-0.54,0.142l-0.321,1.893h-0.669l0.482-2.824h0.669l-0.014,0.228   c0.128-0.128,0.269-0.236,0.628-0.225C94.046,61.018,93.806,61.437,93.789,61.804L93.789,61.804z" fill="#FEFFFF"/><path d="M95.054,63.914c-0.371,0-0.665-0.127-0.863-0.376c-0.205-0.247-0.305-0.608-0.305-1.074   c0-0.368,0.045-0.699,0.133-0.999c0.088-0.301,0.216-0.555,0.37-0.773c0.156-0.21,0.339-0.375,0.555-0.495   c0.209-0.121,0.437-0.181,0.674-0.181c0.188,0,0.366,0.03,0.532,0.083c0.08,0.028,0.235,0.101,0.235,0.101l-0.156,0.89   c-0.078-0.099-0.155-0.177-0.234-0.233c-0.117-0.075-0.255-0.121-0.41-0.121c-0.277,0-0.504,0.151-0.681,0.451   c-0.182,0.301-0.272,0.684-0.272,1.149c0,0.3,0.05,0.519,0.15,0.653c0.1,0.127,0.243,0.195,0.432,0.195   c0.171,0,0.331-0.046,0.482-0.135c0.071-0.047,0.14-0.096,0.208-0.152l-0.156,0.85c0,0-0.081,0.039-0.119,0.053   c-0.094,0.037-0.176,0.06-0.249,0.082C95.303,63.897,95.193,63.914,95.054,63.914L95.054,63.914z" fill="#FEFFFF"/><path d="M85.138,63.74c-0.028,0.023-0.055,0.038-0.078,0.053c-0.072,0.038-0.133,0.068-0.194,0.09   c-0.061,0.015-0.144,0.031-0.255,0.031c-0.172,0-0.316-0.068-0.421-0.195c-0.111-0.136-0.166-0.308-0.166-0.518   c0-0.225,0.039-0.413,0.117-0.571c0.078-0.151,0.193-0.279,0.349-0.369c0.144-0.09,0.316-0.15,0.509-0.188l0.138-0.023   c0.16-0.03,0.327-0.052,0.51-0.06c0-0.015,0-0.03,0.005-0.052c0.006-0.022,0.006-0.045,0.006-0.075c0-0.12-0.039-0.203-0.122-0.256   c-0.083-0.045-0.205-0.067-0.365-0.067h-0.033c-0.1,0.007-0.21,0.03-0.332,0.075c-0.133,0.053-0.233,0.09-0.299,0.128h-0.061   l0.1-0.668c0.078-0.03,0.199-0.06,0.36-0.09c0.077-0.023,0.155-0.03,0.232-0.038c0.083-0.015,0.172-0.015,0.255-0.015   c0.327,0,0.565,0.06,0.72,0.173c0.155,0.113,0.227,0.293,0.227,0.541c0,0.03,0,0.075-0.006,0.128   c-0.006,0.053-0.011,0.098-0.017,0.143l-0.326,1.922h-0.665l0.05-0.301c-0.039,0.038-0.094,0.083-0.15,0.136   C85.193,63.695,85.165,63.718,85.138,63.74L85.138,63.74z M85.138,62.569c-0.072,0.015-0.133,0.037-0.183,0.06   c-0.077,0.037-0.133,0.089-0.171,0.157c-0.044,0.068-0.061,0.158-0.061,0.27c0,0.098,0.028,0.165,0.077,0.203   c0.055,0.037,0.128,0.06,0.233,0.06c0.033,0,0.066-0.007,0.105-0.023c0.033-0.007,0.067-0.022,0.105-0.037   c0.072-0.045,0.144-0.098,0.21-0.158l0.1-0.601c-0.116,0.015-0.233,0.03-0.332,0.053C85.193,62.554,85.165,62.562,85.138,62.569   L85.138,62.569z" fill="#FEFFFF"/><path d="M90.928,61.502c-0.088,0.015-0.171,0.06-0.238,0.135c-0.094,0.106-0.166,0.241-0.216,0.421h0.454h0.449   c0-0.03,0.006-0.053,0.006-0.083c0-0.022,0.005-0.052,0.005-0.074c0-0.136-0.033-0.233-0.094-0.309   c-0.061-0.067-0.143-0.104-0.26-0.104C91,61.488,90.962,61.495,90.928,61.502L90.928,61.502z M90.928,63.275h0.1   c0.144,0,0.282-0.03,0.415-0.098c0.127-0.068,0.244-0.143,0.337-0.225h0.078l-0.127,0.728c-0.127,0.076-0.266,0.136-0.409,0.173   c-0.122,0.037-0.255,0.052-0.394,0.06h-0.061c-0.36,0-0.631-0.105-0.825-0.323c-0.193-0.211-0.288-0.503-0.288-0.879   c0-0.256,0.034-0.496,0.095-0.707c0.061-0.217,0.155-0.405,0.271-0.571c0.116-0.157,0.255-0.277,0.426-0.375   c0.122-0.06,0.25-0.105,0.382-0.128c0.061-0.007,0.122-0.007,0.183-0.007c0.31,0,0.543,0.082,0.703,0.255   c0.155,0.166,0.233,0.421,0.233,0.752c0,0.113-0.006,0.225-0.022,0.338c-0.017,0.104-0.039,0.217-0.066,0.322h-1.03h-0.52v0.03   v0.03c0,0.195,0.055,0.346,0.155,0.458C90.646,63.2,90.768,63.26,90.928,63.275L90.928,63.275z" fill="#FEFFFF"/><path d="M97.203,63.74c-0.027,0.023-0.055,0.038-0.083,0.053c-0.066,0.038-0.133,0.068-0.193,0.09   c-0.061,0.015-0.145,0.031-0.25,0.031c-0.178,0-0.316-0.068-0.426-0.195C96.14,63.582,96.09,63.41,96.09,63.2   c0-0.225,0.039-0.413,0.117-0.571c0.077-0.151,0.193-0.279,0.344-0.369c0.143-0.09,0.315-0.15,0.514-0.188   c0.045-0.008,0.089-0.015,0.138-0.023c0.156-0.03,0.327-0.052,0.505-0.06c0.005-0.015,0.005-0.03,0.01-0.052   c0-0.022,0.006-0.045,0.006-0.075c0-0.12-0.044-0.203-0.123-0.256c-0.083-0.045-0.204-0.067-0.365-0.067h-0.034   c-0.105,0.007-0.215,0.03-0.331,0.075c-0.133,0.053-0.233,0.09-0.299,0.128h-0.061l0.094-0.668c0.078-0.03,0.198-0.06,0.365-0.09   c0.078-0.023,0.154-0.03,0.232-0.038c0.084-0.015,0.166-0.015,0.255-0.015c0.327,0,0.564,0.06,0.72,0.173   c0.149,0.113,0.227,0.293,0.227,0.541c0,0.03,0,0.075-0.005,0.128c-0.006,0.053-0.011,0.098-0.018,0.143l-0.326,1.922h-0.665   l0.051-0.301c-0.045,0.038-0.094,0.083-0.155,0.136L97.203,63.74L97.203,63.74z M97.203,62.569   c-0.071,0.015-0.132,0.037-0.188,0.06c-0.072,0.037-0.133,0.089-0.171,0.157c-0.04,0.068-0.062,0.158-0.062,0.27   c0,0.098,0.028,0.165,0.084,0.203c0.049,0.037,0.127,0.06,0.227,0.06c0.032,0,0.072-0.007,0.11-0.023   c0.034-0.007,0.067-0.022,0.1-0.037c0.078-0.045,0.144-0.098,0.211-0.158l0.105-0.601c-0.122,0.015-0.233,0.03-0.338,0.053   C97.253,62.554,97.226,62.562,97.203,62.569L97.203,62.569z" fill="#FEFFFF"/><path d="M100.029,61.804c-0.146-0.113-0.472-0.09-0.54,0.142l-0.321,1.893h-0.67l0.482-2.824h0.669l-0.014,0.228   c0.127-0.128,0.269-0.236,0.629-0.225C100.286,61.018,100.046,61.437,100.029,61.804L100.029,61.804z" fill="#FEFFFF"/><path clip-rule="evenodd" d="M101.345,61.615c-0.033,0.015-0.066,0.038-0.094,0.06   c-0.089,0.06-0.161,0.151-0.221,0.256c-0.05,0.104-0.094,0.225-0.122,0.383c-0.034,0.15-0.05,0.301-0.05,0.443   c0,0.173,0.033,0.293,0.088,0.367c0.062,0.083,0.15,0.121,0.266,0.121c0.045,0,0.089-0.008,0.133-0.03   c0.022-0.008,0.039-0.015,0.061-0.03c0.066-0.038,0.127-0.076,0.188-0.128l0.238-1.389c-0.039-0.023-0.083-0.046-0.143-0.061   c-0.056-0.022-0.105-0.029-0.15-0.029C101.466,61.578,101.406,61.592,101.345,61.615L101.345,61.615z M101.345,63.688   c-0.05,0.045-0.106,0.09-0.166,0.127c-0.055,0.03-0.11,0.06-0.16,0.075c-0.056,0.015-0.123,0.023-0.194,0.023   c-0.205,0-0.366-0.091-0.488-0.263c-0.116-0.18-0.177-0.435-0.177-0.758c0-0.27,0.027-0.526,0.094-0.759   c0.061-0.232,0.149-0.443,0.26-0.622c0.111-0.181,0.238-0.316,0.387-0.421c0.145-0.098,0.289-0.15,0.444-0.158h0.022   c0.116,0,0.216,0.015,0.299,0.045c0.083,0.03,0.172,0.083,0.26,0.151l0.149-0.985h0.67l-0.614,3.696h-0.67l0.049-0.293   C101.45,63.597,101.394,63.643,101.345,63.688L101.345,63.688z" fill="#FEFFFF" fill-rule="evenodd"/><path d="M89.309,61.076c-0.024,0.221-0.035,0.445-0.038,0.671h4.797v-0.671h-0.069H89.309z" fill="#D6B657"/><path d="M89.301,62.563c0.022,0.227,0.057,0.451,0.1,0.671h4.666v-0.671h-0.069H89.301z" fill="#D6B657"/><rect fill="#C9BD77" height="10.506" width="4.378" x="44.557" y="66.15"/><path d="M53.75,67.025c0-0.484-0.392-0.876-0.875-0.876H49.81v4.815h3.94V67.025z" fill="#C9BD77"/><path d="M49.81,76.656h3.064c0.484,0,0.875-0.392,0.875-0.876v-3.94h-3.94V76.656z" fill="#C9BD77"/><path d="M39.742,75.78c0,0.483,0.392,0.876,0.875,0.876h3.064V71.84h-3.94V75.78z" fill="#C9BD77"/><path d="M43.681,66.15h-3.064c-0.484,0-0.875,0.392-0.875,0.876v3.94h3.94V66.15z" fill="#C9BD77"/><g opacity="0.2"><path d="M40.134,83.463v-0.52h-1.405c-0.177,0-0.31-0.04-0.399-0.12c-0.089-0.08-0.133-0.189-0.133-0.327    c0-0.035,0.007-0.071,0.02-0.108c0.013-0.036,0.033-0.075,0.059-0.115c0.026-0.04,0.053-0.079,0.081-0.116    s0.062-0.083,0.104-0.137l1.483-1.984c0.097-0.131,0.177-0.225,0.239-0.284c0.062-0.059,0.138-0.088,0.225-0.088    c0.284,0,0.425,0.162,0.425,0.487v2.166h0.12c0.144,0,0.259,0.02,0.346,0.059s0.13,0.125,0.13,0.257    c0,0.108-0.035,0.187-0.106,0.236c-0.071,0.049-0.177,0.074-0.319,0.074h-0.171v0.52c0,0.144-0.032,0.25-0.095,0.32    s-0.148,0.105-0.255,0.105c-0.104,0-0.189-0.036-0.253-0.108C40.166,83.709,40.134,83.603,40.134,83.463z M38.931,82.316h1.203    v-1.626L38.931,82.316z" fill="#020507"/><path d="M42.811,83.158h1.461c0.146,0,0.256,0.03,0.333,0.09c0.076,0.06,0.115,0.141,0.115,0.243    c0,0.091-0.03,0.169-0.091,0.232s-0.152,0.095-0.276,0.095h-2.059c-0.14,0-0.249-0.039-0.327-0.116s-0.118-0.168-0.118-0.273    c0-0.067,0.025-0.156,0.076-0.267c0.05-0.111,0.105-0.198,0.165-0.262c0.248-0.257,0.472-0.478,0.672-0.662    c0.2-0.184,0.342-0.305,0.428-0.362c0.153-0.108,0.28-0.217,0.382-0.326c0.102-0.109,0.179-0.221,0.232-0.336    c0.053-0.115,0.08-0.227,0.08-0.337c0-0.119-0.028-0.226-0.085-0.32c-0.057-0.094-0.134-0.167-0.232-0.22s-0.205-0.078-0.32-0.078    c-0.244,0-0.437,0.107-0.576,0.322c-0.019,0.028-0.05,0.104-0.094,0.229c-0.044,0.125-0.093,0.221-0.148,0.288    c-0.055,0.067-0.136,0.101-0.242,0.101c-0.093,0-0.171-0.031-0.232-0.092c-0.062-0.062-0.092-0.146-0.092-0.252    c0-0.129,0.029-0.263,0.087-0.403c0.058-0.14,0.144-0.267,0.259-0.381c0.115-0.114,0.26-0.206,0.437-0.276s0.383-0.105,0.62-0.105    c0.285,0,0.529,0.045,0.73,0.134c0.131,0.06,0.245,0.142,0.344,0.246c0.099,0.104,0.176,0.225,0.231,0.362    s0.083,0.279,0.083,0.427c0,0.231-0.057,0.442-0.172,0.631s-0.232,0.338-0.351,0.445c-0.119,0.107-0.319,0.276-0.6,0.505    c-0.281,0.229-0.473,0.408-0.578,0.534C42.904,83.027,42.858,83.088,42.811,83.158z" fill="#020507"/><path d="M45.831,79.756h1.864c0.179,0,0.309,0.028,0.389,0.084c0.08,0.056,0.12,0.148,0.12,0.277    c0,0.078-0.047,0.182-0.141,0.311c-0.094,0.129-0.201,0.271-0.322,0.427c-0.12,0.156-0.244,0.349-0.372,0.581    c-0.128,0.231-0.245,0.514-0.351,0.848c-0.045,0.147-0.076,0.27-0.095,0.367s-0.039,0.223-0.062,0.378    c-0.022,0.155-0.042,0.273-0.059,0.355c-0.039,0.19-0.095,0.322-0.166,0.396s-0.167,0.111-0.287,0.111    c-0.114,0-0.205-0.04-0.274-0.119c-0.069-0.079-0.104-0.196-0.104-0.351c0-0.119,0.025-0.282,0.076-0.487    c0.05-0.205,0.132-0.451,0.246-0.737c0.114-0.286,0.256-0.58,0.427-0.881c0.171-0.301,0.374-0.601,0.609-0.9h-1.497    c-0.157,0-0.274-0.028-0.351-0.085c-0.077-0.057-0.116-0.146-0.116-0.267c0-0.129,0.041-0.212,0.123-0.249    S45.683,79.756,45.831,79.756z" fill="#020507"/><path d="M50.996,80.408h-1.329l-0.159,0.907c0.265-0.142,0.509-0.213,0.733-0.213c0.179,0,0.347,0.034,0.502,0.101    c0.156,0.067,0.292,0.16,0.41,0.278c0.118,0.118,0.21,0.259,0.277,0.421c0.067,0.162,0.101,0.337,0.101,0.523    c0,0.27-0.061,0.517-0.182,0.739s-0.296,0.398-0.525,0.529c-0.229,0.131-0.492,0.196-0.79,0.196c-0.334,0-0.605-0.062-0.813-0.185    c-0.208-0.123-0.355-0.264-0.442-0.424s-0.13-0.299-0.13-0.418c0-0.073,0.03-0.142,0.091-0.207    c0.061-0.065,0.137-0.098,0.228-0.098c0.157,0,0.273,0.09,0.35,0.271c0.075,0.166,0.175,0.295,0.302,0.388    c0.127,0.092,0.269,0.139,0.425,0.139c0.144,0,0.27-0.037,0.378-0.112c0.108-0.075,0.192-0.177,0.25-0.308    c0.059-0.131,0.088-0.279,0.088-0.445c0-0.179-0.032-0.332-0.095-0.459c-0.063-0.127-0.148-0.222-0.255-0.284    c-0.106-0.062-0.225-0.094-0.355-0.094c-0.16,0-0.275,0.02-0.344,0.059c-0.069,0.039-0.168,0.108-0.298,0.206    c-0.13,0.098-0.236,0.147-0.32,0.147c-0.091,0-0.173-0.033-0.243-0.099c-0.071-0.066-0.106-0.141-0.106-0.225    c0-0.009,0.01-0.073,0.031-0.19l0.235-1.34c0.026-0.16,0.075-0.277,0.146-0.35c0.071-0.073,0.187-0.109,0.347-0.109h1.477    c0.291,0,0.437,0.111,0.437,0.333c0,0.097-0.035,0.175-0.106,0.235S51.134,80.408,50.996,80.408z" fill="#020507"/><path d="M56.184,81.342c0.172,0,0.319-0.05,0.444-0.151c0.124-0.101,0.186-0.245,0.186-0.434    c0-0.144-0.049-0.267-0.148-0.371c-0.099-0.104-0.232-0.155-0.4-0.155c-0.114,0-0.208,0.016-0.281,0.048    c-0.074,0.032-0.132,0.074-0.175,0.126s-0.083,0.119-0.122,0.201c-0.038,0.082-0.073,0.159-0.105,0.232    c-0.019,0.039-0.052,0.07-0.101,0.092c-0.049,0.022-0.104,0.034-0.168,0.034c-0.075,0-0.143-0.03-0.206-0.091    s-0.094-0.141-0.094-0.242c0-0.097,0.029-0.199,0.088-0.306s0.145-0.209,0.257-0.306s0.253-0.175,0.421-0.234    c0.168-0.059,0.355-0.088,0.562-0.088c0.181,0,0.346,0.025,0.495,0.074c0.149,0.049,0.279,0.121,0.389,0.214    s0.193,0.201,0.249,0.325c0.056,0.123,0.084,0.256,0.084,0.397c0,0.187-0.041,0.346-0.122,0.48s-0.197,0.263-0.348,0.39    c0.146,0.078,0.268,0.168,0.368,0.269c0.1,0.101,0.175,0.212,0.225,0.334c0.05,0.122,0.076,0.254,0.076,0.396    c0,0.17-0.034,0.334-0.102,0.492s-0.168,0.3-0.301,0.424c-0.132,0.124-0.29,0.221-0.471,0.291s-0.383,0.105-0.603,0.105    c-0.224,0-0.424-0.04-0.602-0.12s-0.323-0.18-0.438-0.301c-0.115-0.12-0.201-0.245-0.26-0.374s-0.088-0.235-0.088-0.319    c0-0.108,0.035-0.195,0.105-0.262c0.07-0.066,0.157-0.099,0.262-0.099c0.052,0,0.103,0.015,0.151,0.046s0.08,0.068,0.095,0.111    c0.097,0.259,0.201,0.452,0.312,0.578s0.267,0.189,0.469,0.189c0.116,0,0.227-0.028,0.334-0.085    c0.107-0.057,0.196-0.141,0.266-0.253c0.07-0.112,0.105-0.242,0.105-0.389c0-0.218-0.06-0.389-0.179-0.513    c-0.119-0.124-0.285-0.186-0.498-0.186c-0.037,0-0.095,0.004-0.173,0.011s-0.129,0.011-0.151,0.011    c-0.103,0-0.182-0.026-0.238-0.077s-0.084-0.123-0.084-0.214c0-0.09,0.034-0.162,0.101-0.217c0.067-0.055,0.167-0.083,0.299-0.083    H56.184z" fill="#020507"/><path d="M59.637,83.435v-2.546c-0.474,0.364-0.793,0.546-0.957,0.546c-0.078,0-0.148-0.031-0.208-0.094    c-0.061-0.062-0.091-0.135-0.091-0.217c0-0.095,0.03-0.165,0.09-0.21c0.06-0.045,0.165-0.103,0.316-0.173    c0.226-0.106,0.406-0.218,0.541-0.336c0.135-0.118,0.255-0.249,0.36-0.395c0.104-0.146,0.173-0.235,0.204-0.269    s0.091-0.05,0.179-0.05c0.099,0,0.178,0.038,0.238,0.115c0.06,0.076,0.09,0.182,0.09,0.316v3.204c0,0.375-0.128,0.562-0.383,0.562    c-0.114,0-0.205-0.038-0.274-0.115C59.671,83.698,59.637,83.585,59.637,83.435z" fill="#020507"/><path d="M64.077,80.408h-1.329l-0.159,0.907c0.265-0.142,0.509-0.213,0.733-0.213c0.179,0,0.347,0.034,0.502,0.101    c0.156,0.067,0.292,0.16,0.41,0.278s0.21,0.259,0.277,0.421c0.067,0.162,0.101,0.337,0.101,0.523c0,0.27-0.061,0.517-0.182,0.739    c-0.121,0.222-0.296,0.398-0.525,0.529c-0.229,0.131-0.492,0.196-0.79,0.196c-0.334,0-0.605-0.062-0.813-0.185    c-0.208-0.123-0.355-0.264-0.442-0.424s-0.13-0.299-0.13-0.418c0-0.073,0.03-0.142,0.091-0.207    c0.061-0.065,0.137-0.098,0.228-0.098c0.157,0,0.273,0.09,0.35,0.271c0.075,0.166,0.175,0.295,0.302,0.388    c0.127,0.092,0.269,0.139,0.425,0.139c0.144,0,0.27-0.037,0.378-0.112c0.108-0.075,0.192-0.177,0.25-0.308    c0.059-0.131,0.088-0.279,0.088-0.445c0-0.179-0.032-0.332-0.095-0.459s-0.148-0.222-0.255-0.284    c-0.106-0.062-0.225-0.094-0.355-0.094c-0.16,0-0.275,0.02-0.344,0.059s-0.168,0.108-0.298,0.206    c-0.13,0.098-0.236,0.147-0.32,0.147c-0.091,0-0.173-0.033-0.243-0.099c-0.071-0.066-0.106-0.141-0.106-0.225    c0-0.009,0.01-0.073,0.031-0.19l0.235-1.34c0.026-0.16,0.075-0.277,0.146-0.35c0.071-0.073,0.187-0.109,0.347-0.109h1.477    c0.291,0,0.437,0.111,0.437,0.333c0,0.097-0.035,0.175-0.106,0.235S64.215,80.408,64.077,80.408z" fill="#020507"/><path d="M65.868,81.6c0.127-0.151,0.265-0.263,0.414-0.336c0.149-0.073,0.316-0.109,0.501-0.109    c0.177,0,0.341,0.033,0.491,0.099c0.15,0.066,0.282,0.16,0.395,0.283c0.113,0.122,0.2,0.266,0.262,0.432    c0.062,0.166,0.092,0.34,0.092,0.52c0,0.263-0.06,0.502-0.18,0.716c-0.12,0.215-0.288,0.382-0.504,0.502    c-0.215,0.12-0.459,0.18-0.732,0.18c-0.313,0-0.584-0.076-0.811-0.229c-0.228-0.153-0.402-0.379-0.522-0.679    c-0.12-0.299-0.18-0.665-0.18-1.098c0-0.353,0.036-0.668,0.109-0.946s0.177-0.508,0.313-0.691    c0.136-0.183,0.301-0.321,0.495-0.414c0.194-0.093,0.415-0.14,0.663-0.14c0.239,0,0.449,0.047,0.631,0.14    c0.182,0.093,0.319,0.209,0.411,0.347s0.139,0.27,0.139,0.397c0,0.076-0.029,0.146-0.087,0.208    c-0.058,0.062-0.132,0.094-0.221,0.094c-0.078,0-0.151-0.025-0.218-0.074s-0.117-0.118-0.148-0.206    c-0.043-0.112-0.111-0.202-0.204-0.27c-0.093-0.068-0.201-0.102-0.325-0.102c-0.099,0-0.197,0.028-0.295,0.085    c-0.098,0.057-0.18,0.134-0.248,0.231C65.972,80.74,65.892,81.093,65.868,81.6z M66.623,83.338c0.188,0,0.344-0.077,0.467-0.231    c0.123-0.154,0.185-0.356,0.185-0.606c0-0.17-0.029-0.316-0.087-0.438c-0.058-0.122-0.137-0.215-0.238-0.28    c-0.101-0.064-0.212-0.097-0.333-0.097c-0.116,0-0.226,0.031-0.332,0.092c-0.105,0.062-0.19,0.151-0.255,0.267    c-0.064,0.117-0.097,0.253-0.097,0.41c0,0.252,0.065,0.462,0.196,0.63C66.262,83.254,66.426,83.338,66.623,83.338z" fill="#020507"/><path d="M74.234,81.807c0,0.306-0.019,0.569-0.056,0.789c-0.037,0.22-0.106,0.42-0.207,0.599    c-0.127,0.22-0.291,0.39-0.492,0.509c-0.201,0.119-0.425,0.179-0.672,0.179c-0.284,0-0.538-0.08-0.762-0.241    c-0.225-0.16-0.394-0.382-0.508-0.666c-0.058-0.155-0.1-0.326-0.127-0.513c-0.027-0.187-0.041-0.39-0.041-0.609    c0-0.282,0.015-0.535,0.045-0.761c0.03-0.226,0.076-0.42,0.14-0.582c0.11-0.269,0.27-0.473,0.48-0.614    c0.21-0.141,0.46-0.211,0.751-0.211c0.192,0,0.367,0.031,0.523,0.094c0.157,0.062,0.294,0.154,0.413,0.274    c0.118,0.12,0.219,0.269,0.301,0.446C74.163,80.808,74.234,81.244,74.234,81.807z M73.468,81.751c0-0.341-0.021-0.621-0.062-0.838    c-0.041-0.217-0.11-0.381-0.207-0.492c-0.097-0.111-0.231-0.166-0.403-0.166c-0.246,0-0.417,0.124-0.513,0.372    s-0.144,0.631-0.144,1.147c0,0.351,0.021,0.638,0.062,0.862c0.041,0.224,0.11,0.393,0.207,0.508    c0.097,0.115,0.229,0.172,0.395,0.172c0.172,0,0.306-0.06,0.403-0.179c0.097-0.119,0.165-0.29,0.204-0.512    C73.448,82.402,73.468,82.111,73.468,81.751z" fill="#020507"/><path d="M76.076,81.342c0.172,0,0.319-0.05,0.443-0.151c0.124-0.101,0.186-0.245,0.186-0.434    c0-0.144-0.049-0.267-0.148-0.371c-0.099-0.104-0.232-0.155-0.4-0.155c-0.114,0-0.208,0.016-0.281,0.048    c-0.074,0.032-0.132,0.074-0.175,0.126c-0.043,0.052-0.083,0.119-0.122,0.201c-0.038,0.082-0.073,0.159-0.105,0.232    c-0.019,0.039-0.052,0.07-0.101,0.092s-0.104,0.034-0.168,0.034c-0.075,0-0.143-0.03-0.206-0.091s-0.094-0.141-0.094-0.242    c0-0.097,0.029-0.199,0.088-0.306s0.145-0.209,0.257-0.306c0.113-0.097,0.253-0.175,0.421-0.234    c0.168-0.059,0.355-0.088,0.562-0.088c0.181,0,0.346,0.025,0.495,0.074c0.149,0.049,0.279,0.121,0.389,0.214    s0.193,0.201,0.249,0.325c0.056,0.123,0.084,0.256,0.084,0.397c0,0.187-0.041,0.346-0.122,0.48s-0.197,0.263-0.348,0.39    c0.146,0.078,0.268,0.168,0.368,0.269c0.1,0.101,0.175,0.212,0.225,0.334c0.05,0.122,0.076,0.254,0.076,0.396    c0,0.17-0.034,0.334-0.102,0.492s-0.168,0.3-0.301,0.424c-0.132,0.124-0.29,0.221-0.471,0.291s-0.383,0.105-0.603,0.105    c-0.224,0-0.424-0.04-0.602-0.12c-0.177-0.08-0.323-0.18-0.438-0.301c-0.115-0.12-0.201-0.245-0.26-0.374    s-0.088-0.235-0.088-0.319c0-0.108,0.035-0.195,0.105-0.262c0.07-0.066,0.157-0.099,0.262-0.099c0.052,0,0.103,0.015,0.151,0.046    s0.08,0.068,0.095,0.111c0.097,0.259,0.201,0.452,0.312,0.578s0.267,0.189,0.469,0.189c0.116,0,0.227-0.028,0.334-0.085    c0.107-0.057,0.196-0.141,0.266-0.253c0.07-0.112,0.105-0.242,0.105-0.389c0-0.218-0.06-0.389-0.179-0.513    c-0.119-0.124-0.285-0.186-0.498-0.186c-0.037,0-0.095,0.004-0.173,0.011s-0.129,0.011-0.151,0.011    c-0.103,0-0.182-0.026-0.238-0.077s-0.084-0.123-0.084-0.214c0-0.09,0.034-0.162,0.101-0.217c0.067-0.055,0.167-0.083,0.299-0.083    H76.076z" fill="#020507"/><path d="M78.804,79.756h1.864c0.179,0,0.309,0.028,0.389,0.084c0.08,0.056,0.12,0.148,0.12,0.277    c0,0.078-0.047,0.182-0.141,0.311c-0.094,0.129-0.201,0.271-0.322,0.427c-0.12,0.156-0.244,0.349-0.372,0.581    c-0.128,0.231-0.245,0.514-0.351,0.848c-0.045,0.147-0.076,0.27-0.095,0.367s-0.039,0.223-0.062,0.378s-0.042,0.273-0.059,0.355    c-0.039,0.19-0.095,0.322-0.166,0.396c-0.072,0.074-0.167,0.111-0.287,0.111c-0.114,0-0.205-0.04-0.274-0.119    c-0.069-0.079-0.104-0.196-0.104-0.351c0-0.119,0.025-0.282,0.076-0.487c0.05-0.205,0.132-0.451,0.246-0.737    c0.114-0.286,0.256-0.58,0.427-0.881c0.171-0.301,0.374-0.601,0.609-0.9h-1.497c-0.157,0-0.274-0.028-0.351-0.085    c-0.077-0.057-0.116-0.146-0.116-0.267c0-0.129,0.041-0.212,0.123-0.249S78.656,79.756,78.804,79.756z" fill="#020507"/><path d="M82.595,83.158h1.461c0.146,0,0.256,0.03,0.333,0.09c0.076,0.06,0.115,0.141,0.115,0.243    c0,0.091-0.03,0.169-0.091,0.232c-0.061,0.063-0.152,0.095-0.276,0.095h-2.059c-0.14,0-0.249-0.039-0.327-0.116    s-0.118-0.168-0.118-0.273c0-0.067,0.025-0.156,0.076-0.267c0.05-0.111,0.105-0.198,0.165-0.262    c0.248-0.257,0.472-0.478,0.672-0.662c0.2-0.184,0.342-0.305,0.428-0.362c0.153-0.108,0.28-0.217,0.382-0.326    c0.102-0.109,0.179-0.221,0.232-0.336c0.053-0.115,0.08-0.227,0.08-0.337c0-0.119-0.028-0.226-0.085-0.32    c-0.057-0.094-0.134-0.167-0.232-0.22c-0.098-0.052-0.205-0.078-0.32-0.078c-0.244,0-0.437,0.107-0.576,0.322    c-0.019,0.028-0.05,0.104-0.094,0.229s-0.093,0.221-0.148,0.288S82.075,81.2,81.968,81.2c-0.093,0-0.171-0.031-0.232-0.092    c-0.062-0.062-0.092-0.146-0.092-0.252c0-0.129,0.029-0.263,0.087-0.403c0.058-0.14,0.144-0.267,0.259-0.381    c0.115-0.114,0.26-0.206,0.437-0.276c0.176-0.07,0.383-0.105,0.62-0.105c0.285,0,0.529,0.045,0.73,0.134    c0.131,0.06,0.245,0.142,0.344,0.246c0.099,0.104,0.176,0.225,0.231,0.362s0.083,0.279,0.083,0.427    c0,0.231-0.057,0.442-0.172,0.631s-0.232,0.338-0.351,0.445s-0.319,0.276-0.6,0.505s-0.473,0.408-0.578,0.534    C82.688,83.027,82.642,83.088,82.595,83.158z" fill="#020507"/><path d="M90.24,80.408h-1.329l-0.159,0.907c0.265-0.142,0.509-0.213,0.733-0.213c0.179,0,0.347,0.034,0.502,0.101    c0.156,0.067,0.292,0.16,0.41,0.278c0.118,0.118,0.21,0.259,0.277,0.421c0.067,0.162,0.101,0.337,0.101,0.523    c0,0.27-0.061,0.517-0.182,0.739s-0.296,0.398-0.525,0.529c-0.229,0.131-0.492,0.196-0.79,0.196c-0.334,0-0.605-0.062-0.813-0.185    c-0.208-0.123-0.355-0.264-0.442-0.424c-0.087-0.159-0.13-0.299-0.13-0.418c0-0.073,0.03-0.142,0.091-0.207    c0.061-0.065,0.137-0.098,0.228-0.098c0.157,0,0.273,0.09,0.35,0.271c0.075,0.166,0.175,0.295,0.302,0.388    c0.127,0.092,0.269,0.139,0.425,0.139c0.144,0,0.27-0.037,0.378-0.112s0.192-0.177,0.25-0.308s0.088-0.279,0.088-0.445    c0-0.179-0.032-0.332-0.095-0.459s-0.148-0.222-0.255-0.284c-0.106-0.062-0.225-0.094-0.355-0.094c-0.16,0-0.275,0.02-0.344,0.059    c-0.069,0.039-0.168,0.108-0.298,0.206c-0.13,0.098-0.236,0.147-0.32,0.147c-0.091,0-0.173-0.033-0.243-0.099    c-0.071-0.066-0.106-0.141-0.106-0.225c0-0.009,0.01-0.073,0.031-0.19l0.235-1.34c0.026-0.16,0.075-0.277,0.146-0.35    c0.071-0.073,0.187-0.109,0.347-0.109h1.477c0.291,0,0.437,0.111,0.437,0.333c0,0.097-0.035,0.175-0.106,0.235    C90.482,80.378,90.378,80.408,90.24,80.408z" fill="#020507"/><path d="M92.999,83.463v-0.52h-1.405c-0.177,0-0.31-0.04-0.399-0.12c-0.089-0.08-0.133-0.189-0.133-0.327    c0-0.035,0.007-0.071,0.02-0.108c0.013-0.036,0.033-0.075,0.059-0.115c0.026-0.04,0.053-0.079,0.081-0.116    s0.062-0.083,0.104-0.137l1.483-1.984c0.097-0.131,0.177-0.225,0.239-0.284s0.138-0.088,0.225-0.088    c0.284,0,0.425,0.162,0.425,0.487v2.166h0.12c0.144,0,0.259,0.02,0.346,0.059s0.13,0.125,0.13,0.257    c0,0.108-0.035,0.187-0.106,0.236c-0.071,0.049-0.177,0.074-0.319,0.074h-0.171v0.52c0,0.144-0.032,0.25-0.095,0.32    c-0.063,0.07-0.148,0.105-0.255,0.105c-0.104,0-0.189-0.036-0.253-0.108C93.031,83.709,92.999,83.603,92.999,83.463z     M91.795,82.316h1.203v-1.626L91.795,82.316z" fill="#020507"/><path d="M96.731,81.98c-0.123,0.146-0.261,0.255-0.413,0.329s-0.32,0.111-0.505,0.111    c-0.175,0-0.339-0.034-0.491-0.102c-0.152-0.068-0.284-0.163-0.395-0.285c-0.111-0.122-0.196-0.265-0.256-0.428    s-0.09-0.334-0.09-0.513c0-0.192,0.034-0.374,0.101-0.547c0.067-0.173,0.163-0.322,0.288-0.449    c0.125-0.127,0.274-0.226,0.446-0.297c0.173-0.071,0.363-0.106,0.572-0.106c0.241,0,0.455,0.044,0.644,0.132    c0.188,0.088,0.347,0.215,0.476,0.382c0.129,0.167,0.228,0.377,0.297,0.631c0.069,0.254,0.104,0.541,0.104,0.862    c0,0.358-0.036,0.674-0.109,0.947c-0.073,0.273-0.179,0.503-0.318,0.688c-0.139,0.186-0.305,0.324-0.499,0.414    c-0.194,0.09-0.414,0.136-0.66,0.136c-0.243,0-0.453-0.046-0.632-0.139s-0.315-0.207-0.409-0.344s-0.14-0.269-0.14-0.396    c0-0.078,0.029-0.148,0.087-0.21c0.058-0.062,0.132-0.092,0.221-0.092c0.082,0,0.156,0.023,0.221,0.069    c0.065,0.046,0.115,0.114,0.148,0.206c0.041,0.112,0.109,0.202,0.204,0.27c0.095,0.068,0.202,0.102,0.322,0.102    c0.106,0,0.207-0.027,0.302-0.081c0.095-0.054,0.176-0.131,0.243-0.229C96.625,82.839,96.705,82.486,96.731,81.98z M96.667,81.124    c0-0.127-0.017-0.244-0.052-0.351c-0.035-0.107-0.083-0.2-0.146-0.278c-0.062-0.078-0.137-0.14-0.224-0.185    c-0.087-0.045-0.181-0.067-0.284-0.067c-0.177,0-0.327,0.076-0.45,0.228c-0.123,0.152-0.185,0.353-0.185,0.603    c0,0.248,0.062,0.446,0.185,0.593c0.123,0.147,0.279,0.221,0.467,0.221c0.116,0,0.226-0.03,0.332-0.091    c0.105-0.061,0.191-0.149,0.257-0.264C96.634,81.417,96.667,81.281,96.667,81.124z" fill="#020507"/><path d="M99.373,81.342c0.172,0,0.319-0.05,0.443-0.151c0.124-0.101,0.186-0.245,0.186-0.434    c0-0.144-0.049-0.267-0.148-0.371c-0.099-0.104-0.232-0.155-0.4-0.155c-0.114,0-0.208,0.016-0.281,0.048    c-0.074,0.032-0.132,0.074-0.175,0.126c-0.043,0.052-0.083,0.119-0.122,0.201c-0.038,0.082-0.073,0.159-0.105,0.232    c-0.019,0.039-0.052,0.07-0.101,0.092s-0.104,0.034-0.168,0.034c-0.075,0-0.143-0.03-0.206-0.091s-0.094-0.141-0.094-0.242    c0-0.097,0.029-0.199,0.088-0.306s0.145-0.209,0.257-0.306c0.113-0.097,0.253-0.175,0.421-0.234s0.355-0.088,0.562-0.088    c0.181,0,0.346,0.025,0.495,0.074c0.149,0.049,0.279,0.121,0.389,0.214c0.11,0.093,0.193,0.201,0.249,0.325    c0.056,0.123,0.084,0.256,0.084,0.397c0,0.187-0.041,0.346-0.122,0.48s-0.197,0.263-0.348,0.39    c0.146,0.078,0.268,0.168,0.368,0.269s0.175,0.212,0.225,0.334c0.05,0.122,0.076,0.254,0.076,0.396    c0,0.17-0.034,0.334-0.102,0.492c-0.068,0.159-0.168,0.3-0.301,0.424c-0.132,0.124-0.29,0.221-0.471,0.291    s-0.383,0.105-0.603,0.105c-0.224,0-0.424-0.04-0.602-0.12s-0.323-0.18-0.438-0.301c-0.115-0.12-0.201-0.245-0.26-0.374    s-0.088-0.235-0.088-0.319c0-0.108,0.035-0.195,0.105-0.262c0.07-0.066,0.157-0.099,0.262-0.099c0.052,0,0.103,0.015,0.151,0.046    s0.08,0.068,0.095,0.111c0.097,0.259,0.201,0.452,0.312,0.578s0.267,0.189,0.469,0.189c0.116,0,0.227-0.028,0.334-0.085    c0.107-0.057,0.196-0.141,0.266-0.253c0.07-0.112,0.105-0.242,0.105-0.389c0-0.218-0.06-0.389-0.179-0.513    c-0.119-0.124-0.285-0.186-0.498-0.186c-0.037,0-0.095,0.004-0.173,0.011s-0.129,0.011-0.151,0.011    c-0.103,0-0.182-0.026-0.238-0.077s-0.084-0.123-0.084-0.214c0-0.09,0.034-0.162,0.101-0.217c0.067-0.055,0.167-0.083,0.299-0.083    H99.373z" fill="#020507"/><path d="M65.4,88.124v-1.273c-0.237,0.182-0.396,0.273-0.478,0.273c-0.039,0-0.074-0.015-0.104-0.047    s-0.045-0.068-0.045-0.109c0-0.048,0.015-0.083,0.045-0.105s0.083-0.051,0.158-0.087c0.113-0.053,0.203-0.109,0.27-0.168    c0.068-0.059,0.128-0.125,0.18-0.197c0.052-0.073,0.086-0.118,0.102-0.134c0.016-0.017,0.046-0.025,0.09-0.025    c0.049,0,0.089,0.019,0.119,0.057s0.045,0.091,0.045,0.158v1.602c0,0.187-0.064,0.281-0.192,0.281    c-0.057,0-0.103-0.019-0.137-0.057C65.417,88.255,65.4,88.199,65.4,88.124z" fill="#020507"/><path d="M67.102,88.124v-1.273c-0.237,0.182-0.396,0.273-0.478,0.273c-0.039,0-0.074-0.015-0.104-0.047    c-0.03-0.031-0.045-0.068-0.045-0.109c0-0.048,0.015-0.083,0.045-0.105c0.03-0.022,0.083-0.051,0.158-0.087    c0.113-0.053,0.203-0.109,0.27-0.168c0.068-0.059,0.128-0.125,0.18-0.197c0.052-0.073,0.086-0.118,0.102-0.134    c0.016-0.017,0.046-0.025,0.09-0.025c0.049,0,0.089,0.019,0.119,0.057s0.045,0.091,0.045,0.158v1.602    c0,0.187-0.064,0.281-0.192,0.281c-0.057,0-0.103-0.019-0.137-0.057C67.12,88.255,67.102,88.199,67.102,88.124z" fill="#020507"/><path d="M68.735,86.514l-0.392,1.613c-0.013,0.053-0.024,0.095-0.035,0.126c-0.009,0.031-0.025,0.055-0.045,0.072    c-0.02,0.017-0.049,0.026-0.087,0.026c-0.095,0-0.143-0.041-0.143-0.123c0-0.021,0.009-0.075,0.028-0.161l0.39-1.613    c0.021-0.086,0.04-0.145,0.059-0.176c0.019-0.032,0.055-0.048,0.109-0.048c0.047,0,0.082,0.011,0.107,0.034    c0.024,0.022,0.037,0.053,0.037,0.092C68.765,86.385,68.755,86.437,68.735,86.514z" fill="#020507"/><path d="M69.44,87.986h0.73c0.073,0,0.128,0.015,0.166,0.045s0.057,0.07,0.057,0.122    c0,0.046-0.015,0.084-0.045,0.116c-0.031,0.032-0.076,0.048-0.138,0.048h-1.03c-0.07,0-0.125-0.019-0.164-0.058    c-0.039-0.039-0.059-0.084-0.059-0.137c0-0.034,0.013-0.078,0.038-0.134c0.025-0.055,0.053-0.099,0.083-0.131    c0.124-0.129,0.236-0.239,0.336-0.331c0.1-0.091,0.171-0.152,0.214-0.181c0.076-0.054,0.14-0.108,0.191-0.163    c0.05-0.054,0.09-0.11,0.116-0.168c0.027-0.057,0.04-0.113,0.04-0.168c0-0.06-0.014-0.113-0.043-0.16    c-0.028-0.047-0.067-0.084-0.116-0.11c-0.049-0.026-0.103-0.039-0.16-0.039c-0.122,0-0.218,0.054-0.288,0.161    c-0.009,0.014-0.025,0.052-0.047,0.115c-0.022,0.062-0.047,0.111-0.075,0.144c-0.028,0.034-0.068,0.05-0.121,0.05    c-0.047,0-0.085-0.015-0.116-0.046c-0.031-0.031-0.046-0.073-0.046-0.126c0-0.064,0.014-0.132,0.043-0.201s0.072-0.133,0.13-0.19    c0.057-0.057,0.13-0.103,0.218-0.138c0.088-0.035,0.191-0.053,0.31-0.053c0.143,0,0.264,0.022,0.365,0.067    c0.065,0.03,0.123,0.071,0.172,0.123c0.049,0.052,0.088,0.112,0.116,0.181c0.027,0.068,0.041,0.139,0.041,0.213    c0,0.116-0.029,0.221-0.086,0.316c-0.058,0.095-0.116,0.169-0.176,0.222c-0.06,0.054-0.16,0.138-0.3,0.253    c-0.141,0.115-0.237,0.204-0.289,0.267C69.486,87.92,69.464,87.95,69.44,87.986z" fill="#020507"/><path d="M72.071,87.31c0,0.153-0.009,0.284-0.028,0.395c-0.019,0.11-0.053,0.21-0.104,0.299    c-0.063,0.11-0.146,0.195-0.246,0.255s-0.213,0.09-0.336,0.09c-0.142,0-0.269-0.04-0.381-0.12    c-0.112-0.08-0.197-0.191-0.254-0.333c-0.029-0.077-0.05-0.163-0.063-0.257c-0.014-0.093-0.021-0.195-0.021-0.304    c0-0.141,0.007-0.268,0.022-0.381c0.015-0.113,0.038-0.21,0.07-0.291c0.055-0.134,0.135-0.236,0.24-0.307    c0.105-0.07,0.23-0.106,0.376-0.106c0.096,0,0.183,0.016,0.262,0.047c0.078,0.031,0.147,0.076,0.207,0.137    c0.059,0.06,0.109,0.134,0.15,0.223C72.035,86.81,72.071,87.028,72.071,87.31z M71.687,87.282c0-0.171-0.01-0.31-0.031-0.419    c-0.021-0.108-0.055-0.19-0.104-0.246c-0.049-0.055-0.116-0.083-0.201-0.083c-0.123,0-0.209,0.062-0.257,0.186    c-0.049,0.124-0.072,0.315-0.072,0.574c0,0.175,0.01,0.319,0.031,0.431c0.021,0.112,0.055,0.196,0.104,0.254    c0.049,0.057,0.114,0.086,0.197,0.086c0.086,0,0.153-0.03,0.201-0.09s0.083-0.145,0.102-0.256    C71.677,87.607,71.687,87.462,71.687,87.282z" fill="#020507"/><path d="M40.06,91.301h-1.091v0.7h0.912c0.084,0,0.148,0.019,0.189,0.057c0.042,0.038,0.062,0.089,0.062,0.152    s-0.021,0.114-0.063,0.151s-0.105,0.056-0.188,0.056h-0.912v0.901c0,0.114-0.026,0.199-0.077,0.255s-0.118,0.083-0.199,0.083    c-0.082,0-0.149-0.028-0.201-0.084c-0.052-0.056-0.077-0.14-0.077-0.254v-2.104c0-0.08,0.012-0.145,0.035-0.195    c0.024-0.05,0.061-0.087,0.111-0.11s0.115-0.035,0.193-0.035h1.306c0.088,0,0.154,0.02,0.197,0.059    c0.043,0.039,0.064,0.09,0.064,0.154c0,0.065-0.021,0.117-0.064,0.156C40.214,91.281,40.148,91.301,40.06,91.301z" fill="#020507"/><path d="M40.756,93.318v-2.155c0-0.112,0.026-0.196,0.076-0.252s0.117-0.084,0.198-0.084    c0.083,0,0.151,0.028,0.202,0.083s0.077,0.139,0.077,0.253v2.155c0,0.113-0.026,0.198-0.077,0.254    c-0.052,0.056-0.119,0.084-0.202,0.084c-0.08,0-0.145-0.028-0.197-0.085C40.781,93.514,40.756,93.429,40.756,93.318z" fill="#020507"/><path d="M42.673,92.439h-0.194v0.879c0,0.116-0.026,0.201-0.076,0.256c-0.051,0.055-0.118,0.082-0.2,0.082    c-0.088,0-0.157-0.028-0.205-0.086s-0.073-0.141-0.073-0.252v-2.104c0-0.119,0.027-0.206,0.08-0.259    c0.054-0.054,0.14-0.08,0.259-0.08h0.901c0.125,0,0.231,0.005,0.319,0.016c0.088,0.011,0.168,0.032,0.239,0.064    c0.086,0.036,0.162,0.088,0.228,0.155c0.066,0.067,0.116,0.145,0.15,0.234c0.034,0.089,0.051,0.183,0.051,0.283    c0,0.204-0.057,0.367-0.173,0.489s-0.29,0.208-0.523,0.259c0.098,0.052,0.192,0.129,0.282,0.231c0.09,0.102,0.169,0.21,0.24,0.326    c0.07,0.115,0.125,0.219,0.164,0.312c0.039,0.093,0.059,0.156,0.059,0.191c0,0.036-0.012,0.072-0.035,0.107    c-0.023,0.035-0.055,0.063-0.094,0.084c-0.04,0.021-0.086,0.031-0.138,0.031c-0.062,0-0.114-0.014-0.157-0.044    s-0.079-0.066-0.109-0.111s-0.072-0.111-0.124-0.198l-0.222-0.369c-0.08-0.136-0.151-0.239-0.214-0.31s-0.126-0.119-0.191-0.146    C42.853,92.452,42.772,92.439,42.673,92.439z M42.991,91.29h-0.511v0.752h0.496c0.133,0,0.245-0.012,0.336-0.035    c0.091-0.023,0.16-0.062,0.208-0.118s0.072-0.132,0.072-0.229c0-0.076-0.019-0.143-0.058-0.201    c-0.039-0.058-0.092-0.101-0.16-0.13C43.308,91.303,43.181,91.29,42.991,91.29z" fill="#020507"/><path d="M46.755,92.788c0,0.166-0.042,0.314-0.128,0.446c-0.085,0.132-0.21,0.235-0.374,0.31    c-0.164,0.075-0.359,0.112-0.584,0.112c-0.27,0-0.492-0.051-0.668-0.153c-0.125-0.073-0.225-0.171-0.303-0.294    c-0.078-0.123-0.117-0.242-0.117-0.357c0-0.067,0.023-0.125,0.07-0.173c0.047-0.048,0.106-0.072,0.178-0.072    c0.058,0,0.108,0.019,0.148,0.056s0.075,0.093,0.104,0.166c0.035,0.087,0.072,0.16,0.113,0.218    c0.041,0.058,0.097,0.107,0.171,0.145c0.073,0.038,0.17,0.057,0.289,0.057c0.164,0,0.298-0.038,0.4-0.115    c0.103-0.076,0.154-0.172,0.154-0.286c0-0.091-0.028-0.165-0.083-0.221c-0.055-0.056-0.127-0.1-0.215-0.13    c-0.088-0.03-0.205-0.062-0.352-0.095c-0.196-0.046-0.361-0.1-0.493-0.161c-0.132-0.062-0.237-0.146-0.315-0.252    c-0.078-0.106-0.117-0.238-0.117-0.396c0-0.151,0.041-0.284,0.123-0.401c0.082-0.117,0.201-0.207,0.356-0.27    s0.338-0.094,0.548-0.094c0.168,0,0.313,0.021,0.436,0.062s0.224,0.097,0.305,0.166c0.081,0.069,0.14,0.141,0.177,0.217    c0.037,0.076,0.056,0.15,0.056,0.222c0,0.066-0.023,0.125-0.07,0.178c-0.047,0.053-0.105,0.079-0.174,0.079    c-0.063,0-0.111-0.016-0.145-0.048c-0.033-0.032-0.069-0.083-0.107-0.156c-0.05-0.103-0.11-0.184-0.179-0.242    c-0.069-0.058-0.181-0.087-0.336-0.087c-0.143,0-0.258,0.031-0.346,0.094c-0.088,0.063-0.132,0.139-0.132,0.227    c0,0.055,0.015,0.102,0.045,0.142s0.071,0.074,0.123,0.103c0.052,0.028,0.105,0.051,0.159,0.067    c0.054,0.016,0.142,0.04,0.265,0.071c0.154,0.036,0.294,0.076,0.419,0.119s0.231,0.097,0.319,0.159s0.156,0.141,0.205,0.236    C46.73,92.533,46.755,92.65,46.755,92.788z" fill="#020507"/><path d="M49.001,91.331h-0.604v1.987c0,0.114-0.026,0.199-0.076,0.255c-0.051,0.055-0.117,0.083-0.198,0.083    c-0.082,0-0.149-0.028-0.201-0.084c-0.052-0.056-0.077-0.14-0.077-0.254v-1.987H47.24c-0.095,0-0.165-0.021-0.211-0.062    s-0.069-0.097-0.069-0.165c0-0.071,0.024-0.127,0.072-0.168s0.117-0.062,0.208-0.062h1.761c0.096,0,0.167,0.021,0.214,0.063    c0.047,0.042,0.07,0.097,0.07,0.166c0,0.069-0.024,0.124-0.071,0.165C49.166,91.31,49.096,91.331,49.001,91.331z" fill="#020507"/><path d="M50.335,91.159l1.065,1.612v-1.627c0-0.106,0.023-0.185,0.068-0.238c0.045-0.053,0.107-0.079,0.184-0.079    c0.08,0,0.142,0.027,0.188,0.079c0.046,0.053,0.069,0.132,0.069,0.238v2.151c0,0.24-0.099,0.36-0.298,0.36    c-0.05,0-0.095-0.007-0.134-0.021s-0.077-0.037-0.112-0.068c-0.035-0.031-0.067-0.068-0.097-0.109    c-0.03-0.042-0.06-0.084-0.09-0.128l-1.039-1.593v1.602c0,0.104-0.024,0.183-0.073,0.237c-0.049,0.054-0.111,0.08-0.187,0.08    c-0.078,0-0.141-0.027-0.188-0.081c-0.047-0.054-0.071-0.133-0.071-0.236v-2.11c0-0.09,0.01-0.16,0.03-0.211    c0.024-0.056,0.063-0.102,0.118-0.137c0.055-0.035,0.114-0.053,0.177-0.053c0.05,0,0.092,0.008,0.128,0.024    c0.035,0.016,0.067,0.038,0.093,0.065c0.027,0.028,0.054,0.063,0.082,0.106S50.305,91.112,50.335,91.159z" fill="#020507"/><path d="M54.215,93.299l-0.131-0.343h-1.112l-0.131,0.351c-0.051,0.137-0.095,0.229-0.131,0.277    c-0.036,0.048-0.095,0.072-0.177,0.072c-0.069,0-0.131-0.026-0.185-0.076c-0.054-0.051-0.08-0.109-0.08-0.173    c0-0.037,0.006-0.076,0.019-0.116c0.013-0.04,0.033-0.095,0.062-0.166l0.7-1.776c0.02-0.051,0.044-0.112,0.072-0.184    c0.028-0.071,0.058-0.131,0.09-0.178c0.032-0.047,0.073-0.085,0.125-0.115s0.115-0.044,0.191-0.044    c0.077,0,0.141,0.014,0.193,0.044s0.093,0.067,0.125,0.113c0.032,0.046,0.058,0.096,0.08,0.148    c0.022,0.053,0.049,0.124,0.083,0.212l0.714,1.765c0.056,0.134,0.084,0.232,0.084,0.293c0,0.063-0.027,0.122-0.079,0.174    c-0.053,0.053-0.117,0.079-0.191,0.079c-0.043,0-0.081-0.008-0.112-0.023s-0.057-0.037-0.078-0.063    c-0.021-0.027-0.044-0.068-0.068-0.123C54.253,93.39,54.232,93.341,54.215,93.299z M53.118,92.54h0.817l-0.412-1.129L53.118,92.54    z" fill="#020507"/><path d="M56.136,93.196l-0.438-1.742v1.888c0,0.104-0.023,0.183-0.07,0.235s-0.109,0.078-0.186,0.078    c-0.075,0-0.136-0.026-0.183-0.077c-0.047-0.052-0.071-0.13-0.071-0.236v-2.164c0-0.119,0.031-0.2,0.093-0.242    c0.062-0.042,0.146-0.062,0.252-0.062h0.172c0.103,0,0.178,0.009,0.225,0.028s0.081,0.052,0.104,0.101s0.048,0.127,0.076,0.237    l0.397,1.498l0.397-1.498c0.028-0.11,0.054-0.188,0.076-0.237s0.057-0.082,0.104-0.101s0.122-0.028,0.225-0.028h0.172    c0.106,0,0.19,0.021,0.252,0.062c0.062,0.042,0.093,0.122,0.093,0.242v2.164c0,0.104-0.023,0.183-0.07,0.235    c-0.047,0.052-0.109,0.078-0.187,0.078c-0.073,0-0.134-0.026-0.181-0.078c-0.047-0.052-0.071-0.131-0.071-0.235v-1.888    l-0.438,1.742c-0.028,0.113-0.052,0.196-0.07,0.249c-0.018,0.053-0.051,0.101-0.1,0.145c-0.049,0.043-0.116,0.065-0.201,0.065    c-0.065,0-0.119-0.014-0.164-0.042c-0.045-0.028-0.08-0.064-0.104-0.107c-0.025-0.043-0.044-0.092-0.059-0.145    C56.166,93.309,56.151,93.254,56.136,93.196z" fill="#020507"/><path d="M60.197,91.301h-1.248v0.672h1.149c0.084,0,0.148,0.019,0.189,0.057c0.042,0.038,0.062,0.088,0.062,0.15    s-0.021,0.113-0.062,0.152s-0.104,0.059-0.19,0.059h-1.149v0.778h1.291c0.087,0,0.152,0.02,0.197,0.061s0.066,0.094,0.066,0.161    c0,0.065-0.022,0.117-0.066,0.158s-0.11,0.061-0.197,0.061h-1.505c-0.121,0-0.208-0.027-0.26-0.08    c-0.053-0.054-0.079-0.14-0.079-0.259v-2.056c0-0.08,0.012-0.145,0.035-0.195c0.024-0.05,0.061-0.087,0.111-0.11    c0.05-0.023,0.115-0.035,0.193-0.035h1.462c0.088,0,0.154,0.02,0.197,0.059c0.043,0.039,0.064,0.09,0.064,0.154    c0,0.065-0.021,0.117-0.064,0.156S60.285,91.301,60.197,91.301z" fill="#020507"/><path d="M66.262,91.163v1.99h1.123c0.09,0,0.158,0.022,0.206,0.065c0.048,0.043,0.072,0.098,0.072,0.164    c0,0.067-0.024,0.122-0.071,0.163c-0.047,0.042-0.116,0.062-0.207,0.062h-1.338c-0.121,0-0.208-0.027-0.26-0.08    c-0.053-0.054-0.079-0.14-0.079-0.259v-2.106c0-0.112,0.025-0.196,0.076-0.252s0.117-0.084,0.199-0.084    c0.083,0,0.151,0.028,0.202,0.083S66.262,91.05,66.262,91.163z" fill="#020507"/><path d="M69.726,93.299l-0.131-0.343h-1.112l-0.131,0.351c-0.051,0.137-0.095,0.229-0.131,0.277    s-0.095,0.072-0.177,0.072c-0.069,0-0.131-0.026-0.185-0.076c-0.054-0.051-0.08-0.109-0.08-0.173c0-0.037,0.006-0.076,0.019-0.116    c0.013-0.04,0.033-0.095,0.062-0.166l0.7-1.776c0.02-0.051,0.044-0.112,0.072-0.184c0.028-0.071,0.058-0.131,0.09-0.178    c0.032-0.047,0.073-0.085,0.125-0.115s0.115-0.044,0.191-0.044c0.077,0,0.141,0.014,0.193,0.044s0.093,0.067,0.125,0.113    c0.032,0.046,0.058,0.096,0.08,0.148s0.049,0.124,0.083,0.212l0.714,1.765c0.056,0.134,0.084,0.232,0.084,0.293    c0,0.063-0.027,0.122-0.079,0.174s-0.117,0.079-0.191,0.079c-0.043,0-0.081-0.008-0.112-0.023    c-0.031-0.015-0.057-0.037-0.078-0.063s-0.044-0.068-0.068-0.123C69.764,93.39,69.743,93.341,69.726,93.299z M68.629,92.54h0.817    l-0.412-1.129L68.629,92.54z" fill="#020507"/><path d="M72.802,92.788c0,0.166-0.042,0.314-0.128,0.446c-0.085,0.132-0.21,0.235-0.374,0.31    c-0.164,0.075-0.359,0.112-0.584,0.112c-0.27,0-0.492-0.051-0.668-0.153c-0.125-0.073-0.225-0.171-0.303-0.294    c-0.078-0.123-0.117-0.242-0.117-0.357c0-0.067,0.023-0.125,0.07-0.173c0.047-0.048,0.106-0.072,0.178-0.072    c0.058,0,0.108,0.019,0.148,0.056c0.041,0.037,0.075,0.093,0.104,0.166c0.035,0.087,0.072,0.16,0.113,0.218    s0.097,0.107,0.171,0.145s0.17,0.057,0.289,0.057c0.164,0,0.298-0.038,0.4-0.115c0.103-0.076,0.154-0.172,0.154-0.286    c0-0.091-0.028-0.165-0.083-0.221c-0.055-0.056-0.127-0.1-0.215-0.13c-0.088-0.03-0.205-0.062-0.352-0.095    c-0.196-0.046-0.361-0.1-0.493-0.161c-0.132-0.062-0.237-0.146-0.315-0.252c-0.078-0.106-0.117-0.238-0.117-0.396    c0-0.151,0.041-0.284,0.123-0.401c0.082-0.117,0.201-0.207,0.356-0.27s0.338-0.094,0.548-0.094c0.168,0,0.313,0.021,0.436,0.062    c0.123,0.042,0.224,0.097,0.305,0.166c0.081,0.069,0.14,0.141,0.177,0.217c0.037,0.076,0.056,0.15,0.056,0.222    c0,0.066-0.023,0.125-0.07,0.178s-0.105,0.079-0.174,0.079c-0.063,0-0.111-0.016-0.145-0.048    c-0.033-0.032-0.069-0.083-0.107-0.156c-0.05-0.103-0.11-0.184-0.179-0.242c-0.069-0.058-0.181-0.087-0.336-0.087    c-0.143,0-0.258,0.031-0.346,0.094c-0.088,0.063-0.132,0.139-0.132,0.227c0,0.055,0.015,0.102,0.045,0.142    s0.071,0.074,0.123,0.103c0.052,0.028,0.105,0.051,0.159,0.067c0.054,0.016,0.142,0.04,0.265,0.071    c0.154,0.036,0.294,0.076,0.419,0.119c0.125,0.043,0.231,0.097,0.319,0.159c0.088,0.062,0.156,0.141,0.205,0.236    C72.777,92.533,72.802,92.65,72.802,92.788z" fill="#020507"/><path d="M75.048,91.331h-0.604v1.987c0,0.114-0.026,0.199-0.076,0.255c-0.051,0.055-0.117,0.083-0.198,0.083    c-0.082,0-0.149-0.028-0.201-0.084c-0.052-0.056-0.077-0.14-0.077-0.254v-1.987h-0.604c-0.095,0-0.165-0.021-0.211-0.062    s-0.069-0.097-0.069-0.165c0-0.071,0.024-0.127,0.072-0.168s0.117-0.062,0.208-0.062h1.761c0.096,0,0.167,0.021,0.214,0.063    c0.047,0.042,0.07,0.097,0.07,0.166c0,0.069-0.024,0.124-0.071,0.165C75.213,91.31,75.142,91.331,75.048,91.331z" fill="#020507"/><path d="M76.381,91.159l1.065,1.612v-1.627c0-0.106,0.023-0.185,0.068-0.238c0.045-0.053,0.107-0.079,0.184-0.079    c0.08,0,0.142,0.027,0.188,0.079c0.046,0.053,0.069,0.132,0.069,0.238v2.151c0,0.24-0.099,0.36-0.298,0.36    c-0.05,0-0.095-0.007-0.134-0.021s-0.077-0.037-0.112-0.068s-0.067-0.068-0.097-0.109c-0.03-0.042-0.06-0.084-0.09-0.128    l-1.039-1.593v1.602c0,0.104-0.024,0.183-0.073,0.237c-0.049,0.054-0.111,0.08-0.187,0.08c-0.078,0-0.141-0.027-0.188-0.081    c-0.047-0.054-0.071-0.133-0.071-0.236v-2.11c0-0.09,0.01-0.16,0.03-0.211c0.024-0.056,0.063-0.102,0.118-0.137    c0.055-0.035,0.114-0.053,0.177-0.053c0.05,0,0.092,0.008,0.128,0.024c0.035,0.016,0.067,0.038,0.093,0.065    c0.027,0.028,0.054,0.063,0.082,0.106C76.323,91.066,76.352,91.112,76.381,91.159z" fill="#020507"/><path d="M80.262,93.299l-0.131-0.343h-1.112l-0.131,0.351c-0.051,0.137-0.095,0.229-0.131,0.277    c-0.036,0.048-0.095,0.072-0.177,0.072c-0.069,0-0.131-0.026-0.185-0.076c-0.054-0.051-0.08-0.109-0.08-0.173    c0-0.037,0.006-0.076,0.019-0.116c0.013-0.04,0.033-0.095,0.062-0.166l0.7-1.776c0.02-0.051,0.044-0.112,0.072-0.184    c0.028-0.071,0.058-0.131,0.09-0.178c0.032-0.047,0.073-0.085,0.125-0.115s0.115-0.044,0.191-0.044    c0.077,0,0.141,0.014,0.193,0.044c0.052,0.029,0.093,0.067,0.125,0.113c0.032,0.046,0.058,0.096,0.08,0.148    s0.049,0.124,0.083,0.212l0.714,1.765c0.056,0.134,0.084,0.232,0.084,0.293c0,0.063-0.027,0.122-0.079,0.174    c-0.053,0.053-0.117,0.079-0.191,0.079c-0.043,0-0.081-0.008-0.112-0.023c-0.031-0.015-0.057-0.037-0.078-0.063    c-0.021-0.027-0.044-0.068-0.068-0.123C80.3,93.39,80.279,93.341,80.262,93.299z M79.165,92.54h0.817l-0.412-1.129L79.165,92.54z" fill="#020507"/><path d="M82.183,93.196l-0.438-1.742v1.888c0,0.104-0.023,0.183-0.07,0.235c-0.047,0.052-0.109,0.078-0.186,0.078    c-0.075,0-0.136-0.026-0.183-0.077s-0.071-0.13-0.071-0.236v-2.164c0-0.119,0.031-0.2,0.093-0.242    c0.062-0.042,0.146-0.062,0.252-0.062h0.172c0.103,0,0.178,0.009,0.225,0.028s0.081,0.052,0.104,0.101s0.048,0.127,0.076,0.237    l0.397,1.498l0.397-1.498c0.028-0.11,0.054-0.188,0.076-0.237s0.057-0.082,0.104-0.101c0.047-0.019,0.122-0.028,0.225-0.028h0.172    c0.106,0,0.19,0.021,0.252,0.062c0.062,0.042,0.093,0.122,0.093,0.242v2.164c0,0.104-0.023,0.183-0.07,0.235    c-0.047,0.052-0.109,0.078-0.187,0.078c-0.073,0-0.134-0.026-0.181-0.078c-0.047-0.052-0.071-0.131-0.071-0.235v-1.888    l-0.438,1.742c-0.028,0.113-0.052,0.196-0.07,0.249c-0.018,0.053-0.051,0.101-0.1,0.145c-0.049,0.043-0.116,0.065-0.201,0.065    c-0.065,0-0.119-0.014-0.164-0.042c-0.045-0.028-0.08-0.064-0.104-0.107c-0.025-0.043-0.044-0.092-0.059-0.145    C82.212,93.309,82.198,93.254,82.183,93.196z" fill="#020507"/><path d="M86.244,91.301h-1.248v0.672h1.149c0.084,0,0.148,0.019,0.189,0.057c0.042,0.038,0.062,0.088,0.062,0.15    s-0.021,0.113-0.062,0.152s-0.104,0.059-0.19,0.059h-1.149v0.778h1.291c0.087,0,0.152,0.02,0.197,0.061s0.066,0.094,0.066,0.161    c0,0.065-0.022,0.117-0.066,0.158s-0.11,0.061-0.197,0.061h-1.505c-0.121,0-0.208-0.027-0.26-0.08    c-0.053-0.054-0.079-0.14-0.079-0.259v-2.056c0-0.08,0.012-0.145,0.035-0.195c0.024-0.05,0.061-0.087,0.111-0.11    c0.05-0.023,0.115-0.035,0.193-0.035h1.462c0.088,0,0.154,0.02,0.197,0.059c0.043,0.039,0.064,0.09,0.064,0.154    c0,0.065-0.021,0.117-0.064,0.156C86.398,91.281,86.332,91.301,86.244,91.301z" fill="#020507"/></g></g></svg>