<?xml version="1.0" ?><!DOCTYPE svg  PUBLIC '-//W3C//DTD SVG 1.1//EN'  'http://www.w3.org/Graphics/SVG/1.1/DTD/svg11.dtd'><svg enable-background="new 0 0 128 128" id="Слой_1" version="1.1" viewBox="0 0 128 128" xml:space="preserve" xmlns="http://www.w3.org/2000/svg" xmlns:xlink="http://www.w3.org/1999/xlink"><g><path d="M64,2C31.148,2,4.263,27.552,2.136,59.866C2.133,59.902,14,64.648,14,66   c0,14.559-6.982,25.945,1.418,36.525C26.776,116.828,44.317,126,64,126c34.242,0,62-27.758,62-62C126,29.758,98.242,2,64,2z" fill="#7B4C4C"/><path d="M34.039,75.438l-4.206,14.817c-0.905,3.188,0.946,6.505,4.134,7.41c3.188,0.905,6.505-0.946,7.41-4.134   l1.297-4.569l0-0.001l4.471-15.753l-4.471,15.753c-0.904,3.188,0.946,6.505,4.134,7.41c3.188,0.905,6.505-0.946,7.41-4.134   l2.271-8.002l0,0l2.2-7.75l-2.2,7.751c-0.904,3.188,0.946,6.505,4.134,7.41c3.188,0.905,6.505-0.946,7.41-4.134L74.5,60.731   c1.5-4.625-5.25-7-5.25-7S43.5,41.856,38.5,39.856s-9.375,1.75-9.375,1.75L2.152,59.867c-0.002,0.037-0.006,0.073-0.008,0.11   c-0.033,0.516-0.059,1.034-0.082,1.552C2.03,62.349,2,63.171,2,64c0,0.98,0.029,1.953,0.074,2.922   c0.011,0.249,0.029,0.497,0.043,0.746c0.046,0.782,0.103,1.561,0.178,2.336c0.018,0.186,0.035,0.373,0.054,0.558   C3.47,81.222,7.3,91.069,13.127,99.422l11.248-4.691L34.039,75.438z" fill="#EABF9B"/><path d="M63.843,80.36l-6.644,1.38l-14.749,8.921c0,0,0,0,0,0.001c0.003,0.304,0.032,0.604,0.08,0.9   c0.004,0.026,0.009,0.051,0.013,0.077c0.105,0.593,0.297,1.164,0.569,1.695c0.005,0.009,0.009,0.018,0.014,0.027   c0.14,0.27,0.3,0.529,0.479,0.775l0,0l12.488-8.5l0.397-1.398c-0.12,0.425-0.189,0.851-0.215,1.274L63.843,80.36z" fill="#05090C" opacity="0.1"/><path d="M47.146,58.125l-3.377-1.564c-3.602,0-8.102,2.605-9.769,9.605   c-0.194,0.813-0.333,2.245-0.4,3.713c-0.098,2.136,1.924,3.743,3.983,3.163l21.457-6.048   C62.061,65.988,47.146,58.125,47.146,58.125z" fill="#05090C" opacity="0.1"/><path d="M108.712,86.5H46.624c-2.582,0-4.675-2.093-4.675-4.675v-35.65c0-2.582,2.093-4.675,4.675-4.675h62.088   c2.582,0,4.675,2.093,4.675,4.675v35.65C113.387,84.407,111.294,86.5,108.712,86.5z" fill="#F2F4F5"/><rect fill="#C3BC7B" height="9.823" width="4.093" x="54.19" y="56.41"/><path d="M62.785,57.228c0-0.452-0.366-0.819-0.819-0.819h-2.865v4.502h3.683V57.228z" fill="#C3BC7B"/><path d="M59.102,66.232h2.865c0.452,0,0.819-0.367,0.819-0.819V61.73h-3.683V66.232z" fill="#C3BC7B"/><path d="M49.688,65.414c0,0.452,0.366,0.819,0.819,0.819h2.865V61.73h-3.683V65.414z" fill="#C3BC7B"/><path d="M53.372,56.41h-2.865c-0.452,0-0.819,0.366-0.819,0.819v3.683h3.683V56.41z" fill="#C3BC7B"/><g opacity="0.2"><path d="M50.055,72.597v-0.487h-1.313c-0.166,0-0.29-0.037-0.373-0.112c-0.083-0.075-0.124-0.177-0.124-0.306    c0-0.033,0.006-0.067,0.018-0.101c0.012-0.034,0.031-0.07,0.055-0.107s0.05-0.074,0.076-0.109s0.058-0.078,0.097-0.128    l1.387-1.855c0.091-0.122,0.165-0.211,0.224-0.266c0.058-0.055,0.129-0.082,0.211-0.082c0.265,0,0.398,0.152,0.398,0.455v2.025    h0.112c0.134,0,0.242,0.018,0.323,0.055c0.081,0.037,0.122,0.117,0.122,0.241c0,0.101-0.033,0.175-0.099,0.221    c-0.066,0.046-0.166,0.069-0.298,0.069h-0.16v0.487c0,0.134-0.03,0.234-0.089,0.3c-0.059,0.065-0.139,0.098-0.238,0.098    c-0.098,0-0.177-0.034-0.237-0.101C50.085,72.827,50.055,72.728,50.055,72.597z M48.93,71.525h1.125v-1.52L48.93,71.525z" fill="#020507"/><path d="M52.558,72.312h1.366c0.136,0,0.24,0.028,0.311,0.084c0.072,0.056,0.107,0.132,0.107,0.228    c0,0.085-0.028,0.158-0.085,0.217C54.201,72.9,54.115,72.93,54,72.93h-1.925c-0.131,0-0.233-0.036-0.306-0.109    s-0.11-0.157-0.11-0.255c0-0.063,0.024-0.146,0.071-0.25s0.099-0.185,0.154-0.245c0.232-0.241,0.441-0.447,0.628-0.619    c0.187-0.172,0.32-0.285,0.4-0.339c0.143-0.101,0.262-0.203,0.357-0.305c0.095-0.102,0.167-0.207,0.217-0.314    c0.05-0.107,0.075-0.212,0.075-0.315c0-0.112-0.027-0.211-0.08-0.3c-0.053-0.088-0.126-0.157-0.217-0.205    c-0.092-0.049-0.191-0.073-0.3-0.073c-0.228,0-0.408,0.1-0.539,0.301c-0.017,0.026-0.047,0.098-0.088,0.215    c-0.041,0.117-0.087,0.207-0.139,0.269c-0.051,0.063-0.127,0.094-0.226,0.094c-0.087,0-0.16-0.029-0.217-0.086    s-0.086-0.136-0.086-0.235c0-0.12,0.027-0.246,0.081-0.377c0.054-0.131,0.135-0.249,0.242-0.356s0.243-0.192,0.408-0.258    c0.165-0.065,0.358-0.098,0.579-0.098c0.267,0,0.494,0.042,0.683,0.126c0.122,0.056,0.229,0.133,0.322,0.23    c0.092,0.098,0.164,0.211,0.216,0.339c0.051,0.128,0.077,0.261,0.077,0.399c0,0.216-0.054,0.413-0.161,0.59    c-0.107,0.177-0.217,0.316-0.328,0.416c-0.112,0.1-0.299,0.258-0.561,0.472c-0.262,0.215-0.443,0.381-0.54,0.5    C52.645,72.189,52.602,72.246,52.558,72.312z" fill="#020507"/><path d="M55.381,69.131h1.742c0.167,0,0.289,0.026,0.364,0.078c0.075,0.052,0.112,0.139,0.112,0.259    c0,0.073-0.044,0.17-0.132,0.29c-0.088,0.12-0.188,0.253-0.301,0.399c-0.112,0.146-0.228,0.327-0.348,0.543    c-0.119,0.216-0.229,0.48-0.328,0.793c-0.042,0.138-0.072,0.252-0.089,0.343s-0.037,0.208-0.058,0.353    c-0.021,0.145-0.039,0.256-0.055,0.332c-0.037,0.178-0.089,0.301-0.156,0.37c-0.067,0.069-0.157,0.103-0.268,0.103    c-0.106,0-0.192-0.037-0.256-0.111c-0.065-0.074-0.097-0.184-0.097-0.328c0-0.112,0.024-0.263,0.071-0.455    c0.047-0.192,0.124-0.422,0.23-0.689c0.106-0.268,0.239-0.542,0.399-0.824c0.16-0.282,0.349-0.562,0.569-0.841h-1.4    c-0.147,0-0.256-0.027-0.328-0.08c-0.072-0.053-0.109-0.136-0.109-0.25c0-0.12,0.038-0.198,0.115-0.233    C55.136,69.149,55.243,69.131,55.381,69.131z" fill="#020507"/><path d="M60.21,69.741h-1.243l-0.149,0.848c0.248-0.133,0.476-0.199,0.685-0.199c0.167,0,0.324,0.031,0.47,0.094    c0.146,0.063,0.273,0.15,0.383,0.26c0.11,0.111,0.196,0.242,0.259,0.394c0.063,0.152,0.094,0.315,0.094,0.489    c0,0.253-0.057,0.483-0.17,0.691c-0.113,0.208-0.277,0.372-0.491,0.494c-0.214,0.122-0.46,0.183-0.739,0.183    c-0.312,0-0.566-0.058-0.76-0.173c-0.194-0.115-0.332-0.247-0.413-0.396c-0.081-0.149-0.122-0.279-0.122-0.391    c0-0.068,0.028-0.133,0.085-0.194s0.128-0.092,0.213-0.092c0.146,0,0.256,0.085,0.327,0.254c0.07,0.155,0.164,0.276,0.283,0.362    s0.251,0.13,0.398,0.13c0.134,0,0.252-0.035,0.353-0.105c0.101-0.07,0.179-0.166,0.234-0.288s0.082-0.261,0.082-0.416    c0-0.167-0.03-0.31-0.089-0.429s-0.139-0.207-0.238-0.266c-0.099-0.058-0.21-0.088-0.332-0.088c-0.15,0-0.257,0.018-0.322,0.055    c-0.065,0.037-0.157,0.101-0.279,0.192c-0.121,0.092-0.221,0.137-0.3,0.137c-0.085,0-0.161-0.031-0.228-0.093    c-0.066-0.062-0.099-0.132-0.099-0.211c0-0.009,0.01-0.068,0.029-0.178l0.22-1.253c0.024-0.15,0.07-0.259,0.136-0.327    c0.066-0.068,0.174-0.102,0.324-0.102h1.381c0.272,0,0.408,0.104,0.408,0.311c0,0.091-0.033,0.164-0.099,0.22    C60.437,69.713,60.34,69.741,60.21,69.741z" fill="#020507"/><path d="M65.061,70.614c0.16,0,0.299-0.047,0.415-0.141c0.116-0.094,0.174-0.229,0.174-0.406    c0-0.134-0.046-0.25-0.139-0.347s-0.217-0.145-0.374-0.145c-0.106,0-0.194,0.015-0.263,0.044c-0.069,0.03-0.123,0.069-0.164,0.118    s-0.078,0.112-0.114,0.188c-0.036,0.077-0.068,0.149-0.098,0.217c-0.017,0.037-0.049,0.065-0.094,0.086    c-0.045,0.021-0.098,0.031-0.157,0.031c-0.07,0-0.134-0.028-0.192-0.085c-0.058-0.057-0.088-0.132-0.088-0.226    c0-0.091,0.027-0.186,0.082-0.286c0.055-0.1,0.135-0.196,0.241-0.286c0.106-0.091,0.237-0.164,0.394-0.218    s0.332-0.082,0.526-0.082c0.169,0,0.324,0.023,0.463,0.069s0.261,0.113,0.364,0.2c0.103,0.087,0.181,0.188,0.233,0.303    c0.052,0.115,0.078,0.239,0.078,0.371c0,0.174-0.038,0.324-0.114,0.449c-0.076,0.125-0.184,0.246-0.326,0.365    c0.136,0.073,0.251,0.157,0.344,0.251c0.093,0.094,0.164,0.198,0.211,0.313s0.071,0.238,0.071,0.37    c0,0.159-0.032,0.312-0.095,0.46s-0.157,0.28-0.281,0.396c-0.124,0.116-0.271,0.207-0.441,0.272    c-0.17,0.065-0.358,0.098-0.564,0.098c-0.209,0-0.397-0.037-0.562-0.112s-0.302-0.169-0.409-0.281    c-0.107-0.112-0.188-0.229-0.243-0.349s-0.082-0.22-0.082-0.298c0-0.101,0.033-0.183,0.098-0.245s0.147-0.093,0.245-0.093    c0.049,0,0.096,0.014,0.141,0.043s0.075,0.063,0.089,0.103c0.091,0.242,0.188,0.423,0.292,0.54    c0.104,0.118,0.25,0.177,0.438,0.177c0.108,0,0.212-0.027,0.313-0.08c0.1-0.053,0.183-0.132,0.249-0.237    c0.065-0.105,0.098-0.226,0.098-0.364c0-0.204-0.056-0.364-0.167-0.48s-0.267-0.174-0.466-0.174c-0.035,0-0.089,0.003-0.162,0.01    c-0.073,0.007-0.12,0.01-0.141,0.01c-0.096,0-0.17-0.024-0.222-0.072c-0.052-0.048-0.078-0.115-0.078-0.2    c0-0.084,0.031-0.151,0.094-0.203c0.063-0.051,0.156-0.077,0.28-0.077H65.061z" fill="#020507"/><path d="M68.289,72.571v-2.381c-0.443,0.34-0.741,0.51-0.895,0.51c-0.073,0-0.138-0.029-0.195-0.088    c-0.057-0.058-0.085-0.126-0.085-0.203c0-0.089,0.028-0.154,0.084-0.196c0.056-0.042,0.154-0.096,0.296-0.162    c0.211-0.099,0.38-0.204,0.506-0.314c0.126-0.11,0.239-0.233,0.336-0.369c0.098-0.136,0.161-0.22,0.191-0.251    s0.085-0.047,0.167-0.047c0.092,0,0.167,0.036,0.222,0.107c0.056,0.072,0.084,0.17,0.084,0.296v2.995    c0,0.351-0.119,0.526-0.358,0.526c-0.106,0-0.192-0.036-0.256-0.107C68.321,72.816,68.289,72.711,68.289,72.571z" fill="#020507"/><path d="M72.441,69.741h-1.243l-0.149,0.848c0.248-0.133,0.476-0.199,0.685-0.199c0.167,0,0.324,0.031,0.47,0.094    c0.146,0.063,0.273,0.15,0.383,0.26s0.196,0.242,0.259,0.394c0.063,0.152,0.094,0.315,0.094,0.489c0,0.253-0.057,0.483-0.17,0.691    c-0.113,0.208-0.277,0.372-0.491,0.494c-0.214,0.122-0.46,0.183-0.739,0.183c-0.312,0-0.566-0.058-0.76-0.173    c-0.194-0.115-0.332-0.247-0.413-0.396c-0.081-0.149-0.122-0.279-0.122-0.391c0-0.068,0.028-0.133,0.085-0.194    c0.057-0.061,0.128-0.092,0.213-0.092c0.146,0,0.256,0.085,0.327,0.254c0.07,0.155,0.164,0.276,0.283,0.362    c0.119,0.086,0.251,0.13,0.398,0.13c0.134,0,0.252-0.035,0.353-0.105s0.179-0.166,0.234-0.288s0.082-0.261,0.082-0.416    c0-0.167-0.03-0.31-0.089-0.429c-0.059-0.119-0.139-0.207-0.238-0.266c-0.099-0.058-0.21-0.088-0.332-0.088    c-0.15,0-0.257,0.018-0.322,0.055c-0.065,0.037-0.157,0.101-0.279,0.192c-0.121,0.092-0.221,0.137-0.3,0.137    c-0.085,0-0.161-0.031-0.228-0.093c-0.066-0.062-0.099-0.132-0.099-0.211c0-0.009,0.01-0.068,0.029-0.178l0.22-1.253    c0.024-0.15,0.07-0.259,0.136-0.327c0.066-0.068,0.174-0.102,0.324-0.102h1.381c0.272,0,0.408,0.104,0.408,0.311    c0,0.091-0.033,0.164-0.099,0.22S72.57,69.741,72.441,69.741z" fill="#020507"/><path d="M74.115,70.855c0.119-0.141,0.248-0.246,0.387-0.314c0.14-0.068,0.296-0.102,0.468-0.102    c0.166,0,0.319,0.031,0.459,0.093c0.14,0.062,0.263,0.15,0.369,0.264c0.106,0.114,0.187,0.249,0.245,0.404    c0.058,0.155,0.086,0.317,0.086,0.487c0,0.246-0.056,0.469-0.169,0.67c-0.112,0.201-0.269,0.357-0.471,0.47    c-0.201,0.112-0.429,0.169-0.684,0.169c-0.293,0-0.546-0.072-0.759-0.215s-0.375-0.354-0.488-0.634    c-0.112-0.28-0.169-0.622-0.169-1.027c0-0.33,0.034-0.624,0.102-0.884c0.068-0.26,0.166-0.475,0.293-0.646s0.282-0.3,0.463-0.387    c0.181-0.087,0.388-0.131,0.62-0.131c0.223,0,0.42,0.044,0.59,0.131c0.17,0.087,0.298,0.195,0.385,0.324    c0.086,0.129,0.129,0.253,0.129,0.371c0,0.072-0.027,0.136-0.081,0.195c-0.054,0.058-0.123,0.088-0.207,0.088    c-0.073,0-0.141-0.023-0.204-0.069c-0.063-0.046-0.109-0.11-0.139-0.192c-0.04-0.105-0.104-0.189-0.191-0.252    s-0.188-0.095-0.303-0.095c-0.092,0-0.184,0.027-0.276,0.08c-0.092,0.053-0.169,0.125-0.232,0.216    C74.213,70.051,74.138,70.381,74.115,70.855z M74.822,72.48c0.176,0,0.322-0.072,0.437-0.216c0.115-0.144,0.173-0.333,0.173-0.566    c0-0.159-0.027-0.295-0.081-0.409c-0.054-0.114-0.128-0.201-0.222-0.262c-0.094-0.06-0.198-0.09-0.311-0.09    c-0.108,0-0.211,0.029-0.31,0.086s-0.178,0.141-0.238,0.25c-0.06,0.109-0.09,0.237-0.09,0.383c0,0.235,0.061,0.432,0.183,0.589    S74.637,72.48,74.822,72.48z" fill="#020507"/><path d="M81.937,71.049c0,0.286-0.017,0.532-0.052,0.738s-0.099,0.392-0.194,0.56    c-0.119,0.206-0.272,0.365-0.46,0.476c-0.188,0.112-0.398,0.167-0.628,0.167c-0.265,0-0.503-0.075-0.713-0.225    c-0.21-0.15-0.368-0.358-0.475-0.623c-0.054-0.145-0.094-0.305-0.119-0.48c-0.025-0.175-0.038-0.365-0.038-0.569    c0-0.263,0.014-0.501,0.042-0.712c0.028-0.211,0.072-0.392,0.131-0.544c0.103-0.251,0.252-0.443,0.449-0.574    c0.196-0.132,0.43-0.198,0.702-0.198c0.18,0,0.343,0.029,0.489,0.088c0.147,0.058,0.275,0.144,0.386,0.256    s0.204,0.252,0.281,0.417C81.871,70.115,81.937,70.522,81.937,71.049z M81.221,70.996c0-0.319-0.019-0.58-0.058-0.784    s-0.103-0.357-0.194-0.46c-0.091-0.104-0.216-0.156-0.377-0.156c-0.23,0-0.39,0.116-0.48,0.348    c-0.09,0.232-0.135,0.59-0.135,1.073c0,0.328,0.019,0.596,0.058,0.806s0.103,0.368,0.194,0.475    c0.091,0.107,0.214,0.161,0.369,0.161c0.16,0,0.286-0.056,0.377-0.167c0.091-0.112,0.154-0.271,0.191-0.479    C81.202,71.605,81.221,71.333,81.221,70.996z" fill="#020507"/><path d="M83.659,70.614c0.16,0,0.299-0.047,0.415-0.141c0.116-0.094,0.174-0.229,0.174-0.406    c0-0.134-0.046-0.25-0.139-0.347c-0.092-0.097-0.217-0.145-0.374-0.145c-0.106,0-0.194,0.015-0.263,0.044    c-0.069,0.03-0.123,0.069-0.164,0.118s-0.078,0.112-0.114,0.188c-0.036,0.077-0.068,0.149-0.098,0.217    c-0.017,0.037-0.049,0.065-0.094,0.086c-0.045,0.021-0.098,0.031-0.157,0.031c-0.07,0-0.134-0.028-0.192-0.085    c-0.058-0.057-0.088-0.132-0.088-0.226c0-0.091,0.027-0.186,0.082-0.286c0.055-0.1,0.135-0.196,0.241-0.286    c0.106-0.091,0.237-0.164,0.394-0.218s0.332-0.082,0.526-0.082c0.169,0,0.324,0.023,0.463,0.069s0.261,0.113,0.364,0.2    c0.103,0.087,0.181,0.188,0.233,0.303c0.052,0.115,0.078,0.239,0.078,0.371c0,0.174-0.038,0.324-0.114,0.449    c-0.076,0.125-0.184,0.246-0.326,0.365c0.136,0.073,0.251,0.157,0.344,0.251c0.093,0.094,0.164,0.198,0.211,0.313    s0.071,0.238,0.071,0.37c0,0.159-0.032,0.312-0.095,0.46s-0.157,0.28-0.281,0.396c-0.124,0.116-0.271,0.207-0.441,0.272    c-0.17,0.065-0.358,0.098-0.564,0.098c-0.209,0-0.397-0.037-0.562-0.112s-0.302-0.169-0.409-0.281s-0.188-0.229-0.243-0.349    s-0.082-0.22-0.082-0.298c0-0.101,0.033-0.183,0.098-0.245c0.065-0.062,0.147-0.093,0.245-0.093c0.049,0,0.096,0.014,0.141,0.043    c0.045,0.029,0.075,0.063,0.089,0.103c0.091,0.242,0.188,0.423,0.292,0.54c0.104,0.118,0.25,0.177,0.438,0.177    c0.108,0,0.212-0.027,0.313-0.08c0.1-0.053,0.183-0.132,0.249-0.237c0.065-0.105,0.098-0.226,0.098-0.364    c0-0.204-0.056-0.364-0.167-0.48s-0.267-0.174-0.466-0.174c-0.035,0-0.089,0.003-0.162,0.01c-0.073,0.007-0.12,0.01-0.141,0.01    c-0.096,0-0.17-0.024-0.222-0.072c-0.052-0.048-0.078-0.115-0.078-0.2c0-0.084,0.031-0.151,0.094-0.203    c0.063-0.051,0.156-0.077,0.28-0.077H83.659z" fill="#020507"/><path d="M86.209,69.131h1.742c0.167,0,0.289,0.026,0.364,0.078c0.075,0.052,0.112,0.139,0.112,0.259    c0,0.073-0.044,0.17-0.132,0.29c-0.088,0.12-0.188,0.253-0.301,0.399c-0.112,0.146-0.228,0.327-0.348,0.543    c-0.119,0.216-0.229,0.48-0.328,0.793c-0.042,0.138-0.072,0.252-0.089,0.343s-0.037,0.208-0.058,0.353    c-0.021,0.145-0.039,0.256-0.055,0.332c-0.037,0.178-0.089,0.301-0.156,0.37s-0.157,0.103-0.268,0.103    c-0.106,0-0.192-0.037-0.256-0.111c-0.065-0.074-0.097-0.184-0.097-0.328c0-0.112,0.024-0.263,0.071-0.455    c0.047-0.192,0.124-0.422,0.23-0.689c0.106-0.268,0.239-0.542,0.399-0.824s0.349-0.562,0.569-0.841h-1.4    c-0.146,0-0.256-0.027-0.328-0.08c-0.072-0.053-0.109-0.136-0.109-0.25c0-0.12,0.038-0.198,0.115-0.233    C85.964,69.149,86.072,69.131,86.209,69.131z" fill="#020507"/><path d="M89.754,72.312h1.366c0.136,0,0.24,0.028,0.311,0.084c0.072,0.056,0.107,0.132,0.107,0.228    c0,0.085-0.028,0.158-0.085,0.217c-0.057,0.059-0.143,0.089-0.258,0.089H89.27c-0.131,0-0.233-0.036-0.306-0.109    s-0.11-0.157-0.11-0.255c0-0.063,0.024-0.146,0.071-0.25s0.099-0.185,0.154-0.245c0.232-0.241,0.441-0.447,0.628-0.619    c0.187-0.172,0.32-0.285,0.4-0.339c0.143-0.101,0.262-0.203,0.357-0.305c0.095-0.102,0.167-0.207,0.217-0.314    c0.05-0.107,0.075-0.212,0.075-0.315c0-0.112-0.027-0.211-0.08-0.3c-0.053-0.088-0.126-0.157-0.217-0.205    c-0.092-0.049-0.191-0.073-0.3-0.073c-0.228,0-0.408,0.1-0.539,0.301c-0.017,0.026-0.047,0.098-0.088,0.215    c-0.041,0.117-0.087,0.207-0.139,0.269c-0.051,0.063-0.127,0.094-0.226,0.094c-0.087,0-0.16-0.029-0.217-0.086    s-0.086-0.136-0.086-0.235c0-0.12,0.027-0.246,0.081-0.377c0.054-0.131,0.135-0.249,0.242-0.356s0.243-0.192,0.408-0.258    c0.165-0.065,0.358-0.098,0.579-0.098c0.267,0,0.494,0.042,0.683,0.126c0.122,0.056,0.229,0.133,0.322,0.23    c0.092,0.098,0.164,0.211,0.216,0.339c0.051,0.128,0.077,0.261,0.077,0.399c0,0.216-0.054,0.413-0.161,0.59    c-0.107,0.177-0.217,0.316-0.328,0.416c-0.112,0.1-0.299,0.258-0.561,0.472c-0.262,0.215-0.443,0.381-0.54,0.5    C89.841,72.189,89.798,72.246,89.754,72.312z" fill="#020507"/><path d="M96.902,69.741h-1.243l-0.149,0.848c0.248-0.133,0.476-0.199,0.685-0.199c0.167,0,0.324,0.031,0.47,0.094    c0.146,0.063,0.273,0.15,0.383,0.26s0.196,0.242,0.259,0.394c0.063,0.152,0.094,0.315,0.094,0.489c0,0.253-0.057,0.483-0.17,0.691    c-0.113,0.208-0.277,0.372-0.491,0.494c-0.214,0.122-0.46,0.183-0.739,0.183c-0.312,0-0.566-0.058-0.76-0.173    c-0.194-0.115-0.332-0.247-0.413-0.396c-0.081-0.149-0.122-0.279-0.122-0.391c0-0.068,0.028-0.133,0.085-0.194    c0.057-0.061,0.128-0.092,0.213-0.092c0.146,0,0.256,0.085,0.327,0.254c0.07,0.155,0.164,0.276,0.283,0.362    c0.119,0.086,0.251,0.13,0.398,0.13c0.134,0,0.252-0.035,0.353-0.105s0.179-0.166,0.234-0.288s0.082-0.261,0.082-0.416    c0-0.167-0.03-0.31-0.089-0.429c-0.059-0.119-0.139-0.207-0.238-0.266c-0.099-0.058-0.21-0.088-0.332-0.088    c-0.15,0-0.257,0.018-0.322,0.055c-0.065,0.037-0.157,0.101-0.279,0.192c-0.121,0.092-0.221,0.137-0.3,0.137    c-0.085,0-0.161-0.031-0.228-0.093c-0.066-0.062-0.099-0.132-0.099-0.211c0-0.009,0.01-0.068,0.029-0.178l0.22-1.253    c0.024-0.15,0.07-0.259,0.136-0.327c0.066-0.068,0.174-0.102,0.324-0.102h1.381c0.272,0,0.408,0.104,0.408,0.311    c0,0.091-0.033,0.164-0.099,0.22S97.031,69.741,96.902,69.741z" fill="#020507"/><path d="M99.481,72.597v-0.487h-1.313c-0.166,0-0.29-0.037-0.373-0.112c-0.083-0.075-0.124-0.177-0.124-0.306    c0-0.033,0.006-0.067,0.018-0.101c0.012-0.034,0.031-0.07,0.055-0.107c0.024-0.037,0.05-0.074,0.076-0.109    s0.058-0.078,0.097-0.128l1.387-1.855c0.091-0.122,0.165-0.211,0.224-0.266c0.058-0.055,0.129-0.082,0.211-0.082    c0.265,0,0.398,0.152,0.398,0.455v2.025h0.112c0.134,0,0.242,0.018,0.323,0.055c0.081,0.037,0.122,0.117,0.122,0.241    c0,0.101-0.033,0.175-0.099,0.221c-0.066,0.046-0.166,0.069-0.298,0.069h-0.16v0.487c0,0.134-0.03,0.234-0.089,0.3    c-0.059,0.065-0.139,0.098-0.238,0.098c-0.098,0-0.177-0.034-0.237-0.101C99.511,72.827,99.481,72.728,99.481,72.597z     M98.356,71.525h1.125v-1.52L98.356,71.525z" fill="#020507"/><path d="M102.971,71.211c-0.115,0.136-0.244,0.239-0.386,0.307c-0.142,0.069-0.3,0.103-0.472,0.103    c-0.164,0-0.317-0.032-0.459-0.095s-0.265-0.153-0.369-0.267c-0.104-0.114-0.184-0.248-0.239-0.4    c-0.056-0.153-0.084-0.313-0.084-0.48c0-0.18,0.031-0.35,0.094-0.511c0.063-0.161,0.153-0.301,0.269-0.42s0.256-0.211,0.417-0.277    c0.161-0.066,0.34-0.099,0.535-0.099c0.225,0,0.426,0.041,0.602,0.123c0.176,0.082,0.324,0.201,0.445,0.357    c0.12,0.156,0.213,0.353,0.277,0.59c0.065,0.237,0.097,0.506,0.097,0.806c0,0.335-0.034,0.63-0.102,0.886    c-0.068,0.256-0.167,0.47-0.297,0.644c-0.13,0.174-0.286,0.303-0.467,0.387c-0.181,0.085-0.387,0.127-0.617,0.127    c-0.227,0-0.424-0.043-0.591-0.13c-0.167-0.086-0.295-0.194-0.382-0.322c-0.087-0.128-0.131-0.252-0.131-0.37    c0-0.073,0.027-0.139,0.081-0.196c0.054-0.058,0.123-0.086,0.207-0.086c0.077,0,0.146,0.021,0.207,0.064s0.107,0.107,0.139,0.192    c0.038,0.105,0.102,0.189,0.191,0.252s0.189,0.095,0.301,0.095c0.099,0,0.194-0.025,0.283-0.076    c0.089-0.051,0.165-0.122,0.228-0.215C102.872,72.013,102.947,71.684,102.971,71.211z M102.911,70.41    c0-0.119-0.016-0.228-0.048-0.328c-0.032-0.1-0.078-0.187-0.136-0.26s-0.128-0.131-0.209-0.173    c-0.081-0.042-0.17-0.063-0.266-0.063c-0.166,0-0.306,0.071-0.421,0.213s-0.173,0.33-0.173,0.564c0,0.232,0.058,0.417,0.173,0.555    c0.115,0.138,0.261,0.207,0.437,0.207c0.108,0,0.211-0.028,0.31-0.085c0.099-0.057,0.179-0.139,0.241-0.247    C102.88,70.684,102.911,70.557,102.911,70.41z" fill="#020507"/><path d="M105.441,70.614c0.16,0,0.299-0.047,0.415-0.141c0.116-0.094,0.174-0.229,0.174-0.406    c0-0.134-0.046-0.25-0.139-0.347s-0.217-0.145-0.374-0.145c-0.106,0-0.194,0.015-0.263,0.044c-0.069,0.03-0.123,0.069-0.164,0.118    c-0.04,0.049-0.078,0.112-0.114,0.188c-0.036,0.077-0.068,0.149-0.098,0.217c-0.017,0.037-0.049,0.065-0.094,0.086    s-0.098,0.031-0.157,0.031c-0.07,0-0.134-0.028-0.192-0.085c-0.058-0.057-0.088-0.132-0.088-0.226    c0-0.091,0.027-0.186,0.082-0.286c0.055-0.1,0.135-0.196,0.241-0.286s0.237-0.164,0.394-0.218s0.332-0.082,0.526-0.082    c0.169,0,0.324,0.023,0.463,0.069s0.261,0.113,0.364,0.2c0.103,0.087,0.181,0.188,0.233,0.303    c0.052,0.115,0.078,0.239,0.078,0.371c0,0.174-0.038,0.324-0.114,0.449c-0.076,0.125-0.184,0.246-0.326,0.365    c0.136,0.073,0.251,0.157,0.344,0.251c0.093,0.094,0.164,0.198,0.211,0.313c0.047,0.114,0.071,0.238,0.071,0.37    c0,0.159-0.032,0.312-0.095,0.46s-0.157,0.28-0.281,0.396s-0.271,0.207-0.441,0.272c-0.17,0.065-0.358,0.098-0.564,0.098    c-0.209,0-0.397-0.037-0.562-0.112s-0.302-0.169-0.409-0.281s-0.188-0.229-0.243-0.349s-0.082-0.22-0.082-0.298    c0-0.101,0.033-0.183,0.098-0.245c0.065-0.062,0.147-0.093,0.245-0.093c0.049,0,0.096,0.014,0.141,0.043    c0.045,0.029,0.075,0.063,0.089,0.103c0.091,0.242,0.188,0.423,0.292,0.54c0.104,0.118,0.25,0.177,0.438,0.177    c0.108,0,0.212-0.027,0.313-0.08c0.1-0.053,0.183-0.132,0.249-0.237c0.065-0.105,0.098-0.226,0.098-0.364    c0-0.204-0.056-0.364-0.167-0.48c-0.112-0.116-0.267-0.174-0.466-0.174c-0.035,0-0.089,0.003-0.162,0.01    c-0.073,0.007-0.12,0.01-0.141,0.01c-0.096,0-0.17-0.024-0.222-0.072c-0.052-0.048-0.078-0.115-0.078-0.2    c0-0.084,0.031-0.151,0.094-0.203c0.063-0.051,0.156-0.077,0.28-0.077H105.441z" fill="#020507"/><path d="M73.677,76.955v-1.19c-0.221,0.17-0.371,0.255-0.447,0.255c-0.037,0-0.069-0.014-0.098-0.044    s-0.042-0.063-0.042-0.102c0-0.044,0.014-0.077,0.042-0.098c0.028-0.021,0.077-0.048,0.148-0.081    c0.106-0.05,0.19-0.102,0.253-0.157c0.063-0.055,0.119-0.116,0.168-0.184s0.081-0.11,0.095-0.126    c0.015-0.016,0.043-0.024,0.084-0.024c0.046,0,0.083,0.018,0.111,0.054c0.028,0.036,0.042,0.085,0.042,0.148v1.498    c0,0.175-0.06,0.263-0.179,0.263c-0.053,0-0.096-0.018-0.128-0.054C73.694,77.078,73.677,77.025,73.677,76.955z" fill="#020507"/><path d="M75.269,76.955v-1.19c-0.221,0.17-0.371,0.255-0.447,0.255c-0.037,0-0.069-0.014-0.098-0.044    s-0.042-0.063-0.042-0.102c0-0.044,0.014-0.077,0.042-0.098c0.028-0.021,0.077-0.048,0.148-0.081    c0.106-0.05,0.19-0.102,0.253-0.157c0.063-0.055,0.119-0.116,0.168-0.184c0.049-0.068,0.081-0.11,0.095-0.126    c0.015-0.016,0.043-0.024,0.084-0.024c0.046,0,0.083,0.018,0.111,0.054c0.028,0.036,0.042,0.085,0.042,0.148v1.498    c0,0.175-0.06,0.263-0.179,0.263c-0.053,0-0.096-0.018-0.128-0.054C75.285,77.078,75.269,77.025,75.269,76.955z" fill="#020507"/><path d="M76.796,75.449l-0.366,1.508c-0.012,0.05-0.023,0.089-0.032,0.118c-0.009,0.029-0.023,0.051-0.042,0.068    c-0.019,0.016-0.046,0.024-0.082,0.024c-0.089,0-0.133-0.038-0.133-0.115c0-0.02,0.009-0.07,0.026-0.15l0.365-1.508    c0.019-0.08,0.037-0.135,0.055-0.165s0.051-0.044,0.102-0.044c0.044,0,0.077,0.01,0.1,0.031c0.023,0.021,0.034,0.05,0.034,0.086    C76.823,75.329,76.814,75.378,76.796,75.449z" fill="#020507"/><path d="M77.455,76.826h0.683c0.068,0,0.12,0.014,0.156,0.042c0.036,0.028,0.054,0.066,0.054,0.114    c0,0.043-0.014,0.079-0.042,0.109c-0.029,0.03-0.072,0.044-0.129,0.044h-0.963c-0.065,0-0.116-0.018-0.153-0.054    c-0.037-0.036-0.055-0.079-0.055-0.128c0-0.031,0.012-0.073,0.035-0.125c0.024-0.051,0.049-0.092,0.077-0.122    c0.116-0.12,0.221-0.223,0.314-0.31c0.093-0.085,0.16-0.142,0.2-0.169c0.072-0.051,0.131-0.101,0.179-0.153    c0.047-0.051,0.084-0.103,0.108-0.157c0.025-0.053,0.037-0.106,0.037-0.157c0-0.056-0.014-0.106-0.04-0.15    s-0.063-0.078-0.108-0.103c-0.046-0.024-0.096-0.037-0.15-0.037c-0.114,0-0.204,0.05-0.269,0.15    c-0.009,0.013-0.024,0.049-0.044,0.107c-0.021,0.058-0.044,0.103-0.07,0.135c-0.026,0.031-0.063,0.047-0.113,0.047    c-0.044,0-0.08-0.014-0.109-0.043s-0.043-0.068-0.043-0.118c0-0.06,0.014-0.123,0.041-0.188c0.027-0.065,0.067-0.125,0.121-0.178    c0.053-0.053,0.121-0.096,0.204-0.129c0.082-0.033,0.179-0.049,0.29-0.049c0.133,0,0.247,0.021,0.341,0.063    c0.061,0.028,0.115,0.066,0.161,0.115c0.046,0.049,0.082,0.105,0.108,0.17c0.025,0.064,0.038,0.13,0.038,0.199    c0,0.108-0.027,0.207-0.08,0.295c-0.054,0.089-0.109,0.158-0.164,0.208c-0.056,0.051-0.15,0.129-0.28,0.236    c-0.132,0.107-0.221,0.191-0.27,0.25C77.498,76.764,77.477,76.792,77.455,76.826z" fill="#020507"/><path d="M79.914,76.194c0,0.143-0.009,0.266-0.026,0.369c-0.017,0.103-0.05,0.196-0.097,0.28    c-0.059,0.103-0.136,0.182-0.23,0.238c-0.094,0.056-0.199,0.084-0.314,0.084c-0.133,0-0.252-0.037-0.357-0.112    s-0.184-0.179-0.237-0.311c-0.027-0.072-0.047-0.152-0.059-0.24c-0.013-0.087-0.019-0.182-0.019-0.284    c0-0.132,0.007-0.25,0.021-0.356s0.036-0.196,0.065-0.272c0.051-0.126,0.126-0.221,0.224-0.287    c0.099-0.066,0.215-0.099,0.351-0.099c0.09,0,0.171,0.015,0.245,0.044c0.073,0.029,0.137,0.072,0.193,0.128    c0.055,0.056,0.102,0.126,0.14,0.208C79.881,75.727,79.914,75.93,79.914,76.194z M79.556,76.168c0-0.16-0.01-0.29-0.029-0.392    c-0.019-0.101-0.051-0.178-0.097-0.23c-0.045-0.051-0.108-0.078-0.188-0.078c-0.115,0-0.195,0.058-0.24,0.174    c-0.045,0.116-0.068,0.295-0.068,0.536c0,0.164,0.01,0.298,0.029,0.403c0.019,0.105,0.051,0.184,0.097,0.238    c0.045,0.053,0.107,0.08,0.184,0.08c0.08,0,0.143-0.028,0.188-0.084c0.045-0.056,0.077-0.136,0.095-0.239    C79.547,76.472,79.556,76.336,79.556,76.168z" fill="#020507"/><path d="M49.986,79.925h-1.02v0.654h0.853c0.079,0,0.138,0.018,0.177,0.053c0.039,0.035,0.058,0.083,0.058,0.142    c0,0.059-0.02,0.106-0.059,0.141c-0.04,0.035-0.098,0.052-0.176,0.052h-0.853v0.842c0,0.107-0.024,0.186-0.072,0.238    s-0.11,0.078-0.186,0.078c-0.077,0-0.139-0.026-0.187-0.078s-0.072-0.131-0.072-0.237v-1.967c0-0.075,0.011-0.135,0.033-0.182    c0.022-0.047,0.057-0.082,0.104-0.103c0.047-0.021,0.107-0.032,0.181-0.032h1.221c0.082,0,0.144,0.018,0.184,0.055    c0.04,0.037,0.06,0.085,0.06,0.144c0,0.061-0.02,0.109-0.06,0.146C50.13,79.907,50.068,79.925,49.986,79.925z" fill="#020507"/><path d="M50.636,81.811v-2.014c0-0.105,0.024-0.183,0.072-0.235c0.048-0.052,0.109-0.078,0.185-0.078    c0.078,0,0.141,0.026,0.189,0.078s0.072,0.13,0.072,0.236v2.014c0,0.106-0.024,0.185-0.072,0.237s-0.111,0.078-0.189,0.078    c-0.075,0-0.136-0.027-0.184-0.079C50.66,81.994,50.636,81.915,50.636,81.811z" fill="#020507"/><path d="M52.429,80.989h-0.181v0.821c0,0.108-0.024,0.188-0.072,0.239c-0.048,0.051-0.11,0.077-0.187,0.077    c-0.082,0-0.146-0.027-0.192-0.08c-0.045-0.054-0.068-0.132-0.068-0.235v-1.967c0-0.112,0.025-0.192,0.075-0.242    c0.05-0.05,0.131-0.075,0.242-0.075h0.842c0.116,0,0.216,0.005,0.298,0.015c0.082,0.01,0.157,0.03,0.223,0.06    c0.08,0.034,0.151,0.082,0.213,0.145c0.061,0.063,0.109,0.136,0.14,0.219c0.032,0.083,0.048,0.171,0.048,0.264    c0,0.191-0.054,0.343-0.161,0.457c-0.108,0.114-0.271,0.195-0.489,0.242c0.092,0.049,0.18,0.121,0.263,0.216    s0.158,0.197,0.224,0.304c0.066,0.108,0.117,0.204,0.153,0.291s0.055,0.146,0.055,0.179c0,0.034-0.011,0.067-0.032,0.1    c-0.021,0.033-0.051,0.059-0.088,0.078c-0.037,0.019-0.08,0.029-0.129,0.029c-0.058,0-0.107-0.014-0.147-0.041    c-0.04-0.027-0.074-0.062-0.102-0.104c-0.028-0.042-0.067-0.103-0.116-0.185l-0.208-0.345c-0.075-0.127-0.141-0.223-0.2-0.29    c-0.059-0.066-0.118-0.112-0.179-0.136C52.597,81.001,52.521,80.989,52.429,80.989z M52.726,79.915h-0.478v0.703h0.464    c0.124,0,0.229-0.011,0.314-0.032c0.085-0.021,0.15-0.058,0.194-0.11s0.067-0.123,0.067-0.214c0-0.071-0.018-0.133-0.054-0.187    c-0.036-0.054-0.086-0.095-0.15-0.121C53.023,79.927,52.904,79.915,52.726,79.915z" fill="#020507"/><path d="M56.245,81.315c0,0.155-0.04,0.293-0.119,0.417c-0.08,0.123-0.196,0.22-0.35,0.29    c-0.153,0.07-0.335,0.105-0.546,0.105c-0.252,0-0.46-0.048-0.624-0.143c-0.116-0.068-0.211-0.16-0.283-0.275    c-0.073-0.115-0.109-0.226-0.109-0.334c0-0.063,0.022-0.116,0.065-0.161c0.044-0.045,0.099-0.067,0.167-0.067    c0.055,0,0.101,0.017,0.139,0.052c0.038,0.035,0.07,0.087,0.097,0.155c0.033,0.082,0.068,0.15,0.106,0.204s0.091,0.1,0.16,0.135    c0.068,0.035,0.159,0.053,0.27,0.053c0.153,0,0.278-0.036,0.374-0.107s0.144-0.161,0.144-0.268c0-0.085-0.026-0.154-0.078-0.207    c-0.052-0.053-0.119-0.093-0.201-0.121c-0.082-0.028-0.191-0.058-0.329-0.089c-0.184-0.043-0.337-0.093-0.461-0.151    c-0.124-0.058-0.222-0.136-0.295-0.235c-0.073-0.099-0.109-0.223-0.109-0.371c0-0.141,0.038-0.266,0.115-0.375    c0.077-0.109,0.188-0.193,0.333-0.252c0.145-0.059,0.316-0.088,0.513-0.088c0.157,0,0.293,0.02,0.407,0.058    c0.115,0.039,0.21,0.091,0.285,0.155s0.131,0.132,0.166,0.203c0.035,0.071,0.052,0.14,0.052,0.208    c0,0.061-0.022,0.117-0.065,0.167s-0.098,0.074-0.163,0.074c-0.059,0-0.104-0.015-0.135-0.044c-0.031-0.03-0.064-0.078-0.1-0.146    c-0.047-0.096-0.102-0.172-0.167-0.226c-0.065-0.054-0.17-0.081-0.314-0.081c-0.134,0-0.242,0.029-0.324,0.088    c-0.082,0.059-0.123,0.13-0.123,0.212c0,0.051,0.014,0.095,0.042,0.133c0.028,0.037,0.066,0.069,0.115,0.096    c0.049,0.027,0.098,0.048,0.148,0.063c0.05,0.015,0.133,0.037,0.248,0.066c0.144,0.034,0.275,0.071,0.392,0.112    c0.117,0.041,0.216,0.09,0.298,0.148s0.146,0.132,0.192,0.221C56.222,81.077,56.245,81.186,56.245,81.315z" fill="#020507"/><path d="M58.345,79.953H57.78v1.857c0,0.107-0.024,0.186-0.072,0.238c-0.048,0.052-0.109,0.078-0.185,0.078    c-0.077,0-0.139-0.026-0.187-0.078s-0.072-0.131-0.072-0.237v-1.857h-0.565c-0.089,0-0.154-0.02-0.197-0.058    s-0.065-0.09-0.065-0.154c0-0.066,0.022-0.119,0.067-0.157s0.109-0.058,0.194-0.058h1.646c0.089,0,0.156,0.02,0.2,0.059    c0.044,0.04,0.065,0.091,0.065,0.155s-0.022,0.116-0.066,0.154S58.434,79.953,58.345,79.953z" fill="#020507"/><path d="M59.592,79.793l0.996,1.507v-1.521c0-0.099,0.021-0.173,0.064-0.222s0.1-0.074,0.172-0.074    c0.075,0,0.133,0.025,0.176,0.074c0.043,0.049,0.065,0.123,0.065,0.222v2.011c0,0.225-0.093,0.337-0.279,0.337    c-0.047,0-0.089-0.007-0.126-0.02c-0.037-0.014-0.072-0.034-0.105-0.064c-0.033-0.029-0.063-0.063-0.091-0.102    s-0.056-0.079-0.084-0.119l-0.971-1.489v1.498c0,0.098-0.023,0.171-0.068,0.221c-0.045,0.05-0.103,0.075-0.174,0.075    c-0.073,0-0.132-0.025-0.176-0.076c-0.044-0.051-0.066-0.124-0.066-0.221v-1.973c0-0.084,0.009-0.15,0.028-0.197    c0.022-0.052,0.059-0.095,0.11-0.128c0.051-0.033,0.106-0.05,0.166-0.05c0.047,0,0.086,0.007,0.119,0.023    c0.033,0.015,0.062,0.035,0.087,0.061s0.051,0.059,0.077,0.099S59.564,79.749,59.592,79.793z" fill="#020507"/><path d="M63.22,81.793l-0.122-0.321h-1.039L61.936,81.8c-0.048,0.128-0.089,0.214-0.122,0.259    c-0.034,0.045-0.089,0.067-0.166,0.067c-0.065,0-0.123-0.024-0.173-0.072c-0.05-0.048-0.075-0.102-0.075-0.162    c0-0.035,0.006-0.071,0.017-0.108s0.031-0.089,0.058-0.155l0.654-1.66c0.019-0.048,0.041-0.105,0.067-0.172    c0.026-0.067,0.054-0.123,0.084-0.167s0.068-0.08,0.117-0.107c0.048-0.027,0.108-0.041,0.179-0.041    c0.072,0,0.132,0.014,0.181,0.041c0.048,0.027,0.087,0.062,0.117,0.106c0.03,0.043,0.055,0.089,0.075,0.139    s0.046,0.116,0.078,0.198l0.668,1.65c0.052,0.126,0.078,0.217,0.078,0.274c0,0.059-0.025,0.114-0.074,0.163    s-0.109,0.074-0.179,0.074c-0.041,0-0.075-0.007-0.105-0.022s-0.054-0.034-0.073-0.059c-0.02-0.025-0.041-0.063-0.064-0.115    C63.256,81.878,63.236,81.833,63.22,81.793z M62.194,81.083h0.764l-0.385-1.055L62.194,81.083z" fill="#020507"/><path d="M65.016,81.697l-0.41-1.629v1.765c0,0.098-0.022,0.171-0.065,0.22c-0.044,0.049-0.102,0.073-0.174,0.073    c-0.07,0-0.127-0.024-0.171-0.072s-0.066-0.122-0.066-0.221V79.81c0-0.112,0.029-0.187,0.087-0.226    c0.058-0.039,0.136-0.058,0.235-0.058h0.16c0.096,0,0.167,0.009,0.21,0.026s0.076,0.049,0.097,0.094    c0.021,0.045,0.045,0.119,0.072,0.221l0.371,1.4l0.371-1.4c0.027-0.102,0.051-0.176,0.072-0.221    c0.021-0.045,0.053-0.077,0.097-0.094s0.114-0.026,0.21-0.026h0.16c0.099,0,0.177,0.02,0.235,0.058    c0.058,0.039,0.087,0.114,0.087,0.226v2.023c0,0.098-0.022,0.171-0.065,0.22c-0.044,0.049-0.102,0.073-0.175,0.073    c-0.068,0-0.125-0.024-0.169-0.073c-0.044-0.049-0.066-0.122-0.066-0.22v-1.765l-0.41,1.629c-0.027,0.106-0.048,0.184-0.065,0.233    c-0.017,0.049-0.048,0.095-0.093,0.135c-0.045,0.041-0.108,0.061-0.188,0.061c-0.061,0-0.112-0.013-0.153-0.039    c-0.042-0.026-0.075-0.06-0.098-0.1s-0.041-0.086-0.055-0.135C65.044,81.802,65.03,81.751,65.016,81.697z" fill="#020507"/><path d="M68.813,79.925h-1.167v0.628h1.074c0.079,0,0.138,0.018,0.177,0.053c0.039,0.035,0.058,0.082,0.058,0.14    s-0.019,0.106-0.058,0.142s-0.098,0.055-0.178,0.055h-1.074v0.727h1.207c0.082,0,0.143,0.019,0.184,0.057    c0.041,0.038,0.062,0.088,0.062,0.151c0,0.061-0.02,0.109-0.062,0.147c-0.041,0.038-0.102,0.057-0.184,0.057h-1.407    c-0.113,0-0.194-0.025-0.243-0.075s-0.074-0.131-0.074-0.242v-1.922c0-0.075,0.011-0.135,0.033-0.182    c0.022-0.047,0.057-0.082,0.104-0.103c0.047-0.021,0.107-0.032,0.181-0.032h1.367c0.082,0,0.144,0.018,0.184,0.055    c0.04,0.037,0.06,0.085,0.06,0.144c0,0.061-0.02,0.109-0.06,0.146C68.957,79.907,68.896,79.925,68.813,79.925z" fill="#020507"/><path d="M74.483,79.796v1.861h1.05c0.084,0,0.148,0.02,0.193,0.061c0.045,0.041,0.067,0.092,0.067,0.153    c0,0.063-0.022,0.114-0.066,0.153c-0.044,0.039-0.109,0.058-0.194,0.058h-1.251c-0.113,0-0.194-0.025-0.243-0.075    s-0.074-0.131-0.074-0.242v-1.969c0-0.105,0.024-0.183,0.071-0.235s0.109-0.078,0.186-0.078c0.078,0,0.141,0.026,0.189,0.078    S74.483,79.69,74.483,79.796z" fill="#020507"/><path d="M77.722,81.793L77.6,81.472H76.56L76.438,81.8c-0.048,0.128-0.089,0.214-0.122,0.259    c-0.034,0.045-0.089,0.067-0.166,0.067c-0.065,0-0.123-0.024-0.173-0.072c-0.05-0.048-0.075-0.102-0.075-0.162    c0-0.035,0.006-0.071,0.017-0.108s0.031-0.089,0.058-0.155l0.654-1.66c0.019-0.048,0.041-0.105,0.067-0.172    c0.026-0.067,0.054-0.123,0.084-0.167s0.068-0.08,0.117-0.107c0.048-0.027,0.108-0.041,0.179-0.041    c0.072,0,0.132,0.014,0.181,0.041c0.048,0.027,0.087,0.062,0.117,0.106c0.03,0.043,0.055,0.089,0.075,0.139    s0.046,0.116,0.078,0.198l0.668,1.65c0.052,0.126,0.078,0.217,0.078,0.274c0,0.059-0.025,0.114-0.074,0.163    s-0.109,0.074-0.179,0.074c-0.041,0-0.075-0.007-0.105-0.022s-0.054-0.034-0.073-0.059c-0.02-0.025-0.041-0.063-0.064-0.115    S77.738,81.833,77.722,81.793z M76.696,81.083h0.764l-0.385-1.055L76.696,81.083z" fill="#020507"/><path d="M80.598,81.315c0,0.155-0.04,0.293-0.119,0.417c-0.08,0.123-0.196,0.22-0.35,0.29    s-0.335,0.105-0.546,0.105c-0.252,0-0.46-0.048-0.624-0.143c-0.116-0.068-0.211-0.16-0.283-0.275    c-0.073-0.115-0.109-0.226-0.109-0.334c0-0.063,0.022-0.116,0.065-0.161c0.044-0.045,0.099-0.067,0.167-0.067    c0.055,0,0.101,0.017,0.139,0.052s0.07,0.087,0.097,0.155c0.033,0.082,0.068,0.15,0.106,0.204s0.091,0.1,0.16,0.135    c0.068,0.035,0.159,0.053,0.27,0.053c0.153,0,0.278-0.036,0.374-0.107s0.144-0.161,0.144-0.268c0-0.085-0.026-0.154-0.078-0.207    s-0.119-0.093-0.201-0.121c-0.082-0.028-0.191-0.058-0.329-0.089c-0.184-0.043-0.337-0.093-0.461-0.151    c-0.124-0.058-0.222-0.136-0.295-0.235c-0.073-0.099-0.109-0.223-0.109-0.371c0-0.141,0.038-0.266,0.115-0.375    c0.077-0.109,0.188-0.193,0.333-0.252c0.145-0.059,0.316-0.088,0.513-0.088c0.157,0,0.293,0.02,0.407,0.058    c0.115,0.039,0.21,0.091,0.285,0.155s0.131,0.132,0.166,0.203c0.035,0.071,0.052,0.14,0.052,0.208    c0,0.061-0.022,0.117-0.065,0.167s-0.098,0.074-0.163,0.074c-0.059,0-0.104-0.015-0.135-0.044c-0.031-0.03-0.064-0.078-0.1-0.146    c-0.047-0.096-0.102-0.172-0.167-0.226c-0.065-0.054-0.17-0.081-0.314-0.081c-0.134,0-0.242,0.029-0.324,0.088    c-0.082,0.059-0.123,0.13-0.123,0.212c0,0.051,0.014,0.095,0.042,0.133c0.028,0.037,0.066,0.069,0.115,0.096    c0.049,0.027,0.098,0.048,0.148,0.063c0.05,0.015,0.133,0.037,0.248,0.066c0.144,0.034,0.275,0.071,0.392,0.112    s0.216,0.09,0.298,0.148s0.146,0.132,0.192,0.221C80.575,81.077,80.598,81.186,80.598,81.315z" fill="#020507"/><path d="M82.698,79.953h-0.565v1.857c0,0.107-0.024,0.186-0.072,0.238s-0.109,0.078-0.185,0.078    c-0.077,0-0.139-0.026-0.187-0.078c-0.048-0.052-0.072-0.131-0.072-0.237v-1.857h-0.565c-0.089,0-0.154-0.02-0.197-0.058    s-0.065-0.09-0.065-0.154c0-0.066,0.022-0.119,0.067-0.157c0.045-0.038,0.109-0.058,0.194-0.058h1.646    c0.089,0,0.156,0.02,0.2,0.059c0.044,0.04,0.065,0.091,0.065,0.155s-0.022,0.116-0.066,0.154S82.786,79.953,82.698,79.953z" fill="#020507"/><path d="M83.945,79.793l0.996,1.507v-1.521c0-0.099,0.021-0.173,0.064-0.222c0.042-0.049,0.1-0.074,0.172-0.074    c0.075,0,0.133,0.025,0.176,0.074s0.065,0.123,0.065,0.222v2.011c0,0.225-0.093,0.337-0.279,0.337    c-0.047,0-0.089-0.007-0.126-0.02s-0.072-0.034-0.105-0.064s-0.063-0.063-0.091-0.102s-0.056-0.079-0.084-0.119l-0.971-1.489    v1.498c0,0.098-0.023,0.171-0.068,0.221c-0.045,0.05-0.103,0.075-0.174,0.075c-0.073,0-0.132-0.025-0.176-0.076    c-0.044-0.051-0.066-0.124-0.066-0.221v-1.973c0-0.084,0.009-0.15,0.028-0.197c0.022-0.052,0.059-0.095,0.11-0.128    c0.051-0.033,0.106-0.05,0.166-0.05c0.047,0,0.086,0.007,0.119,0.023c0.033,0.015,0.062,0.035,0.087,0.061    c0.025,0.026,0.051,0.059,0.077,0.099S83.917,79.749,83.945,79.793z" fill="#020507"/><path d="M87.572,81.793l-0.122-0.321h-1.039L86.289,81.8c-0.048,0.128-0.089,0.214-0.122,0.259    c-0.034,0.045-0.089,0.067-0.166,0.067c-0.065,0-0.123-0.024-0.173-0.072c-0.05-0.048-0.075-0.102-0.075-0.162    c0-0.035,0.006-0.071,0.017-0.108s0.031-0.089,0.058-0.155l0.654-1.66c0.019-0.048,0.041-0.105,0.067-0.172    c0.026-0.067,0.054-0.123,0.084-0.167s0.068-0.08,0.117-0.107c0.048-0.027,0.108-0.041,0.179-0.041    c0.072,0,0.132,0.014,0.181,0.041c0.048,0.027,0.087,0.062,0.117,0.106c0.03,0.043,0.055,0.089,0.075,0.139    s0.046,0.116,0.078,0.198l0.668,1.65c0.052,0.126,0.078,0.217,0.078,0.274c0,0.059-0.025,0.114-0.074,0.163    s-0.109,0.074-0.179,0.074c-0.041,0-0.075-0.007-0.105-0.022s-0.054-0.034-0.073-0.059c-0.02-0.025-0.041-0.063-0.064-0.115    S87.589,81.833,87.572,81.793z M86.547,81.083h0.764l-0.385-1.055L86.547,81.083z" fill="#020507"/><path d="M89.369,81.697l-0.41-1.629v1.765c0,0.098-0.022,0.171-0.065,0.22c-0.044,0.049-0.102,0.073-0.174,0.073    c-0.07,0-0.127-0.024-0.171-0.072s-0.066-0.122-0.066-0.221V79.81c0-0.112,0.029-0.187,0.087-0.226    c0.058-0.039,0.136-0.058,0.235-0.058h0.16c0.096,0,0.167,0.009,0.21,0.026s0.076,0.049,0.097,0.094    c0.021,0.045,0.045,0.119,0.072,0.221l0.371,1.4l0.371-1.4c0.027-0.102,0.051-0.176,0.072-0.221    c0.021-0.045,0.053-0.077,0.097-0.094s0.114-0.026,0.21-0.026h0.16c0.099,0,0.177,0.02,0.235,0.058    c0.058,0.039,0.087,0.114,0.087,0.226v2.023c0,0.098-0.022,0.171-0.065,0.22c-0.044,0.049-0.102,0.073-0.175,0.073    c-0.068,0-0.125-0.024-0.169-0.073c-0.044-0.049-0.066-0.122-0.066-0.22v-1.765l-0.41,1.629c-0.027,0.106-0.048,0.184-0.065,0.233    s-0.048,0.095-0.093,0.135c-0.045,0.041-0.108,0.061-0.188,0.061c-0.061,0-0.112-0.013-0.153-0.039    c-0.042-0.026-0.075-0.06-0.098-0.1s-0.041-0.086-0.055-0.135S89.383,81.751,89.369,81.697z" fill="#020507"/><path d="M93.166,79.925h-1.167v0.628h1.074c0.079,0,0.138,0.018,0.177,0.053c0.039,0.035,0.058,0.082,0.058,0.14    s-0.019,0.106-0.058,0.142c-0.038,0.037-0.098,0.055-0.178,0.055h-1.074v0.727h1.207c0.082,0,0.143,0.019,0.184,0.057    s0.062,0.088,0.062,0.151c0,0.061-0.021,0.109-0.062,0.147s-0.102,0.057-0.184,0.057h-1.407c-0.113,0-0.194-0.025-0.243-0.075    s-0.074-0.131-0.074-0.242v-1.922c0-0.075,0.011-0.135,0.033-0.182c0.022-0.047,0.057-0.082,0.104-0.103    c0.047-0.021,0.107-0.032,0.181-0.032h1.367c0.082,0,0.144,0.018,0.184,0.055c0.04,0.037,0.06,0.085,0.06,0.144    c0,0.061-0.02,0.109-0.06,0.146C93.31,79.907,93.248,79.925,93.166,79.925z" fill="#020507"/></g><path d="M95.351,52.05c0-3.868,3.136-7.003,7.004-7.003c3.868,0,7.003,3.135,7.003,7.003   c0,3.867-3.135,7.003-7.003,7.003C98.487,59.054,95.351,55.918,95.351,52.05L95.351,52.05z" fill="#F5CA41"/><path d="M97.664,46.837c0.003,0-0.367,0.32-0.614,0.634h1.246c0,0,0.426,0.46,0.583,0.808h-2.435   c0,0-0.236,0.371-0.393,0.684h3.221c0,0,0.295,0.551,0.359,0.842h-3.917c0,0-0.134,0.382-0.191,0.662l4.287-0.005   c0.118,0.538,0.404,2.104-0.185,3.833l-3.895,0.005c0.062,0.207,0.168,0.488,0.269,0.695h3.345   c-0.135,0.281-0.332,0.634-0.444,0.812l-2.452,0.002c0.129,0.196,0.337,0.505,0.471,0.646l1.51-0.001   c-0.283,0.391-0.763,0.797-0.763,0.797h-0.012l0.016,0.005c-1.24,1.117-2.883,1.797-4.684,1.797c-3.868,0-7.003-3.136-7.003-7.003   c0-3.868,3.135-7.003,7.003-7.003C94.784,45.047,96.424,45.724,97.664,46.837L97.664,46.837z" fill="#C45C45"/><path d="M94.344,50.955l-0.113,0.63l-0.614-0.016c0,0-0.307,0.08-0.307,0.21c0,0.129,0.226,0.291,0.566,0.436   c0.34,0.146,0.356,0.549,0.323,0.824c-0.032,0.275-0.081,0.845-1.067,0.873c-0.566,0.016-0.873-0.097-0.873-0.097l0.129-0.646   c0,0,0.727,0.194,0.889,0.081c0.162-0.113,0.355-0.307,0.048-0.436c-0.307-0.129-0.808-0.34-0.808-0.856   c0-0.517,0.21-0.808,0.534-0.954C93.374,50.858,93.94,50.874,94.344,50.955L94.344,50.955z" fill="#FEFFFF"/><polygon fill="#FEFFFF" points="89.489,53.838 88.775,53.838 89.19,51.383 88.307,53.823 87.814,53.823 87.695,51.285    87.263,53.838 86.587,53.838 87.224,50.09 88.044,50.09 88.331,52.248 89.284,50.09 90.126,50.09 89.489,53.838  "/><path d="M94.982,53.891c-0.232,0-0.399-0.052-0.498-0.15c-0.1-0.105-0.15-0.263-0.15-0.465   c0-0.053,0.006-0.105,0.011-0.151c0.006-0.052,0.016-0.112,0.022-0.18l0.43-2.398h0.67l-0.097,0.468h0.626l-0.105,0.593h-0.625   l-0.172,1.022c-0.011,0.067-0.022,0.134-0.033,0.209c-0.011,0.068-0.016,0.136-0.016,0.181c0,0.105,0.016,0.173,0.061,0.211   c0.039,0.037,0.105,0.06,0.194,0.06c0.033,0,0.078-0.008,0.133-0.023c0.056-0.022,0.106-0.037,0.139-0.06h0.055l-0.105,0.601   c-0.078,0.03-0.155,0.045-0.238,0.059C95.198,53.883,95.099,53.891,94.982,53.891L94.982,53.891z" fill="#FEFFFF"/><path d="M99.789,51.804c-0.146-0.113-0.472-0.09-0.54,0.142l-0.321,1.893h-0.669l0.482-2.824h0.669l-0.014,0.228   c0.128-0.128,0.269-0.236,0.628-0.225C100.046,51.018,99.806,51.437,99.789,51.804L99.789,51.804z" fill="#FEFFFF"/><path d="M101.054,53.914c-0.371,0-0.665-0.127-0.863-0.376c-0.205-0.247-0.305-0.608-0.305-1.074   c0-0.368,0.045-0.699,0.133-0.999c0.088-0.301,0.216-0.555,0.37-0.773c0.156-0.21,0.339-0.375,0.555-0.495   c0.209-0.121,0.437-0.181,0.674-0.181c0.188,0,0.366,0.03,0.532,0.083c0.08,0.028,0.235,0.101,0.235,0.101l-0.156,0.89   c-0.078-0.099-0.155-0.177-0.234-0.233c-0.117-0.075-0.255-0.121-0.41-0.121c-0.277,0-0.504,0.151-0.681,0.451   c-0.182,0.301-0.272,0.684-0.272,1.149c0,0.3,0.05,0.519,0.15,0.653c0.1,0.127,0.243,0.195,0.432,0.195   c0.171,0,0.331-0.046,0.482-0.135c0.071-0.047,0.14-0.096,0.208-0.152l-0.156,0.85c0,0-0.081,0.039-0.119,0.053   c-0.094,0.037-0.176,0.06-0.249,0.082C101.303,53.897,101.193,53.914,101.054,53.914L101.054,53.914z" fill="#FEFFFF"/><path d="M91.138,53.74c-0.028,0.023-0.055,0.038-0.078,0.053c-0.072,0.038-0.133,0.068-0.194,0.09   c-0.061,0.015-0.144,0.031-0.255,0.031c-0.172,0-0.316-0.068-0.421-0.195c-0.111-0.136-0.166-0.308-0.166-0.518   c0-0.225,0.039-0.413,0.117-0.571c0.078-0.151,0.193-0.279,0.349-0.369c0.144-0.09,0.316-0.15,0.509-0.188l0.138-0.023   c0.16-0.03,0.327-0.052,0.51-0.06c0-0.015,0-0.03,0.005-0.052c0.006-0.022,0.006-0.045,0.006-0.075c0-0.12-0.039-0.203-0.122-0.256   c-0.083-0.045-0.205-0.067-0.365-0.067h-0.033c-0.1,0.007-0.21,0.03-0.332,0.075c-0.133,0.053-0.233,0.09-0.299,0.128h-0.061   l0.1-0.668c0.078-0.03,0.199-0.06,0.36-0.09c0.077-0.023,0.155-0.03,0.232-0.038c0.083-0.015,0.172-0.015,0.255-0.015   c0.327,0,0.565,0.06,0.72,0.173c0.155,0.113,0.227,0.293,0.227,0.541c0,0.03,0,0.075-0.006,0.128   c-0.006,0.053-0.011,0.098-0.017,0.143l-0.326,1.922h-0.665l0.05-0.301c-0.039,0.038-0.094,0.083-0.15,0.136   C91.193,53.695,91.165,53.718,91.138,53.74L91.138,53.74z M91.138,52.569c-0.072,0.015-0.133,0.037-0.183,0.06   c-0.077,0.037-0.133,0.089-0.171,0.157c-0.044,0.068-0.061,0.158-0.061,0.27c0,0.098,0.028,0.165,0.077,0.203   c0.055,0.037,0.128,0.06,0.233,0.06c0.033,0,0.066-0.007,0.105-0.023c0.033-0.007,0.067-0.022,0.105-0.037   c0.072-0.045,0.144-0.098,0.21-0.158l0.1-0.601c-0.116,0.015-0.233,0.03-0.332,0.053C91.193,52.554,91.165,52.562,91.138,52.569   L91.138,52.569z" fill="#FEFFFF"/><path d="M96.928,51.502c-0.088,0.015-0.171,0.06-0.238,0.135c-0.094,0.106-0.166,0.241-0.216,0.421h0.454h0.449   c0-0.03,0.006-0.053,0.006-0.083c0-0.022,0.005-0.052,0.005-0.074c0-0.136-0.033-0.233-0.094-0.309   c-0.061-0.067-0.143-0.104-0.26-0.104C97,51.488,96.962,51.495,96.928,51.502L96.928,51.502z M96.928,53.275h0.1   c0.144,0,0.282-0.03,0.415-0.098c0.127-0.068,0.244-0.143,0.337-0.225h0.078l-0.127,0.728c-0.127,0.076-0.266,0.136-0.409,0.173   c-0.122,0.037-0.255,0.052-0.394,0.06h-0.061c-0.36,0-0.631-0.105-0.825-0.323c-0.193-0.211-0.288-0.503-0.288-0.879   c0-0.256,0.034-0.496,0.095-0.707c0.061-0.217,0.155-0.405,0.271-0.571c0.116-0.157,0.255-0.277,0.426-0.375   c0.122-0.06,0.25-0.105,0.382-0.128c0.061-0.007,0.122-0.007,0.183-0.007c0.31,0,0.543,0.082,0.703,0.255   c0.155,0.166,0.233,0.421,0.233,0.752c0,0.113-0.006,0.225-0.022,0.338c-0.017,0.104-0.039,0.217-0.066,0.322h-1.03h-0.52v0.03   v0.03c0,0.195,0.055,0.346,0.155,0.458C96.646,53.2,96.768,53.26,96.928,53.275L96.928,53.275z" fill="#FEFFFF"/><path d="M103.203,53.74c-0.027,0.023-0.055,0.038-0.083,0.053c-0.066,0.038-0.133,0.068-0.193,0.09   c-0.061,0.015-0.145,0.031-0.25,0.031c-0.178,0-0.316-0.068-0.426-0.195c-0.111-0.136-0.161-0.308-0.161-0.518   c0-0.225,0.039-0.413,0.117-0.571c0.077-0.151,0.193-0.279,0.344-0.369c0.143-0.09,0.315-0.15,0.514-0.188   c0.045-0.008,0.089-0.015,0.138-0.023c0.156-0.03,0.327-0.052,0.505-0.06c0.005-0.015,0.005-0.03,0.01-0.052   c0-0.022,0.006-0.045,0.006-0.075c0-0.12-0.044-0.203-0.123-0.256c-0.083-0.045-0.204-0.067-0.365-0.067h-0.034   c-0.105,0.007-0.215,0.03-0.331,0.075c-0.133,0.053-0.233,0.09-0.299,0.128h-0.061l0.094-0.668c0.078-0.03,0.198-0.06,0.365-0.09   c0.078-0.023,0.154-0.03,0.232-0.038c0.084-0.015,0.166-0.015,0.255-0.015c0.327,0,0.564,0.06,0.72,0.173   c0.149,0.113,0.227,0.293,0.227,0.541c0,0.03,0,0.075-0.005,0.128c-0.006,0.053-0.011,0.098-0.018,0.143l-0.326,1.922h-0.665   l0.051-0.301c-0.045,0.038-0.094,0.083-0.155,0.136L103.203,53.74L103.203,53.74z M103.203,52.569   c-0.071,0.015-0.132,0.037-0.188,0.06c-0.072,0.037-0.133,0.089-0.171,0.157c-0.04,0.068-0.062,0.158-0.062,0.27   c0,0.098,0.028,0.165,0.084,0.203c0.049,0.037,0.127,0.06,0.227,0.06c0.032,0,0.072-0.007,0.11-0.023   c0.034-0.007,0.067-0.022,0.1-0.037c0.078-0.045,0.144-0.098,0.211-0.158l0.105-0.601c-0.122,0.015-0.233,0.03-0.338,0.053   C103.253,52.554,103.226,52.562,103.203,52.569L103.203,52.569z" fill="#FEFFFF"/><path d="M106.029,51.804c-0.146-0.113-0.472-0.09-0.54,0.142l-0.321,1.893h-0.67l0.482-2.824h0.669l-0.014,0.228   c0.127-0.128,0.269-0.236,0.629-0.225C106.286,51.018,106.046,51.437,106.029,51.804L106.029,51.804z" fill="#FEFFFF"/><path clip-rule="evenodd" d="M107.345,51.615c-0.033,0.015-0.066,0.038-0.094,0.06   c-0.089,0.06-0.161,0.151-0.221,0.256c-0.05,0.104-0.094,0.225-0.122,0.383c-0.034,0.15-0.05,0.301-0.05,0.443   c0,0.173,0.033,0.293,0.088,0.367c0.062,0.083,0.15,0.121,0.266,0.121c0.045,0,0.089-0.008,0.133-0.03   c0.022-0.008,0.039-0.015,0.061-0.03c0.066-0.038,0.127-0.076,0.188-0.128l0.238-1.389c-0.039-0.023-0.083-0.046-0.143-0.061   c-0.056-0.022-0.105-0.029-0.15-0.029C107.466,51.578,107.406,51.592,107.345,51.615L107.345,51.615z M107.345,53.688   c-0.05,0.045-0.106,0.09-0.166,0.127c-0.055,0.03-0.11,0.06-0.16,0.075c-0.056,0.015-0.123,0.023-0.194,0.023   c-0.205,0-0.366-0.091-0.488-0.263c-0.116-0.18-0.177-0.435-0.177-0.758c0-0.27,0.027-0.526,0.094-0.759   c0.061-0.232,0.149-0.443,0.26-0.622c0.111-0.181,0.238-0.316,0.387-0.421c0.145-0.098,0.289-0.15,0.444-0.158h0.022   c0.116,0,0.216,0.015,0.299,0.045c0.083,0.03,0.172,0.083,0.26,0.151l0.149-0.985h0.67l-0.614,3.696h-0.67l0.049-0.293   C107.45,53.597,107.394,53.643,107.345,53.688L107.345,53.688z" fill="#FEFFFF" fill-rule="evenodd"/><path d="   M85.942,71.471" fill="none" stroke="#303536" stroke-linecap="round" stroke-linejoin="round" stroke-miterlimit="10" stroke-width="2"/><path d="M33.967,97.665c3.188,0.905,6.505-0.946,7.41-4.134l0.391-1.379l-8.614,5.21   C33.416,97.479,33.684,97.585,33.967,97.665z" fill="#05090C" opacity="0.1"/><path d="M60.555,65.691c-0.849,0-1.689,0.137-2.499,0.406L40.649,71.9v13.6c0,0.552,0.448,1,1,1   h13.145l8.241-5.797c4.426-3.203,5.931-7.592,3.864-11.325C65.506,66.864,63.428,65.691,60.555,65.691z" fill="#05090C" opacity="0.1"/><path d="M32.517,97.837L64.48,78.504c3.175-1.92,4.265-6.007,2.467-9.253c-1.611-2.91-5.068-4.257-8.224-3.205   l-19.712,6.571l-7.344,2.448L10.132,94.681c1.57,2.75,3.342,5.367,5.3,7.833l9.164-1.691   C27.397,100.322,30.082,99.31,32.517,97.837z" fill="#EABF9B"/><path d="M58.828,67.327c-1.542,0.876-2.968,1.67-3.942,2.209c-0.893,0.494-1.47,1.422-1.487,2.443   c-0.029,1.787,0.393,4.597,2.915,6.639c0.75,0.608,1.754,0.805,2.676,0.521c1.106-0.34,2.775-0.867,4.439-1.448   c2.579-0.899,3.783-4.383,2.367-7.573C64.523,67.25,61.163,66.001,58.828,67.327z" fill="#F5F6F5" opacity="0.5"/></g></svg>