<?xml version="1.0" ?><!DOCTYPE svg  PUBLIC '-//W3C//DTD SVG 1.1//EN'  'http://www.w3.org/Graphics/SVG/1.1/DTD/svg11.dtd'><svg enable-background="new 0 0 128 128" id="Слой_1" version="1.1" viewBox="0 0 128 128" xml:space="preserve" xmlns="http://www.w3.org/2000/svg" xmlns:xlink="http://www.w3.org/1999/xlink"><g><path d="M6.949,39.687C3.763,47.152,2,55.37,2,64c0,34.242,27.758,62,62,62s62-27.758,62-62   c0-30.406-21.887-55.699-50.766-60.985C71.591,2.348,16.403,17.53,6.949,39.687z" fill="#41B19C"/><path d="M69.65,54.64c9.346-3.577,18.035-10.397,15.022-25.254l-6.803-18.814c0.576,1.506-0.433-1.367-2.638-7.538   C71.587,2.367,67.837,2,64,2C51.07,2,39.068,5.962,29.133,12.732l10.996,28.729C44.642,53.252,57.859,59.153,69.65,54.64z" fill="#EABF9B"/><path d="M69.65,54.64c9.346-3.577,18.035-10.397,15.022-25.254l-6.803-18.814   c0.576,1.506-0.433-1.367-2.638-7.538C71.587,2.367,67.837,2,64,2C51.07,2,39.068,5.962,29.133,12.732l10.996,28.729   C44.642,53.252,57.859,59.153,69.65,54.64z" fill="#020507" opacity="0.1"/><circle cx="77" cy="70" fill="#F5CA41" r="35"/><path d="M77,38.889c-17.155,0-31.111,13.956-31.111,31.111S59.845,101.111,77,101.111   S108.111,87.155,108.111,70S94.155,38.889,77,38.889z" fill="#F5F8F8" opacity="0.3"/><path d="M77,38.889c-17.155,0-31.111,13.956-31.111,31.111c0,8.874,3.74,16.885,9.72,22.558   c-5.294-5.58-8.553-13.11-8.553-21.391c0-17.155,13.956-31.111,31.111-31.111c8.281,0,15.811,3.259,21.391,8.553   C93.885,42.629,85.874,38.889,77,38.889z" fill="#020507" opacity="0.1"/><path d="M98.391,47.442c5.294,5.58,8.553,13.11,8.553,21.391c0,17.155-13.956,31.111-31.111,31.111   c-8.281,0-15.811-3.259-21.391-8.553c5.673,5.979,13.685,9.72,22.558,9.72c17.155,0,31.111-13.956,31.111-31.111   C108.111,61.126,104.371,53.115,98.391,47.442z" fill="#F5F8F8" opacity="0.3"/><path d="M83.324,70.296c-1.015-0.657-2.176-1.188-3.452-1.575c-1.06-0.321-2.145-0.635-3.258-0.942   c-0.987-0.27-1.966-0.596-2.913-0.97c-0.741-0.292-1.399-0.684-1.956-1.167c-0.473-0.409-0.872-0.962-1.184-1.642   c-0.207-0.451-0.453-1.297-0.453-2.771c0-0.768,0.137-1.53,0.408-2.263c0.259-0.702,0.652-1.335,1.168-1.883   c0.519-0.551,1.207-1.009,2.045-1.358c0.873-0.364,1.93-0.549,3.141-0.549c1.213,0,2.254,0.191,3.093,0.567   c0.804,0.361,1.467,0.845,1.97,1.437c0.522,0.618,0.922,1.348,1.186,2.173c0.294,0.921,1.283,1.428,2.2,1.132   c0.921-0.295,1.428-1.28,1.132-2.2c-0.405-1.265-1.027-2.397-1.849-3.368c-0.844-0.995-1.924-1.792-3.208-2.368   c-0.831-0.372-1.766-0.613-2.775-0.747v-1.246c0-0.967-0.783-1.75-1.75-1.75c-0.967,0-1.75,0.783-1.75,1.75v1.242   c-0.987,0.127-1.909,0.351-2.739,0.697c-1.295,0.541-2.388,1.278-3.245,2.189c-0.841,0.892-1.482,1.925-1.904,3.071   c-0.415,1.123-0.625,2.292-0.625,3.476c0,1.691,0.26,3.114,0.772,4.23c0.523,1.14,1.222,2.092,2.075,2.829   c0.855,0.741,1.851,1.339,2.962,1.776c1.063,0.42,2.164,0.787,3.27,1.09c1.081,0.298,2.137,0.603,3.168,0.915   c0.962,0.292,1.825,0.684,2.563,1.163c0.718,0.466,1.314,1.082,1.77,1.83c0.467,0.767,0.703,1.801,0.703,3.075   c0,0.919-0.136,1.804-0.402,2.627c-0.259,0.799-0.661,1.506-1.193,2.101c-0.51,0.57-1.183,1.029-1.996,1.364   c-0.817,0.336-1.812,0.506-2.957,0.506c-0.988,0-1.924-0.138-2.783-0.41c-0.835-0.264-1.585-0.698-2.231-1.289   c-0.665-0.608-1.221-1.421-1.654-2.415c-0.385-0.886-1.413-1.293-2.303-0.907c-0.886,0.386-1.293,1.416-0.907,2.303   c0.63,1.449,1.471,2.66,2.5,3.601c1.024,0.938,2.214,1.625,3.538,2.044c0.522,0.165,1.064,0.289,1.617,0.383v1.399   c0,0.967,0.783,1.75,1.75,1.75c0.967,0,1.75-0.783,1.75-1.75v-1.271c1.098-0.103,2.108-0.336,3.011-0.707   c1.307-0.538,2.408-1.301,3.273-2.268c0.859-0.96,1.503-2.089,1.914-3.355c0.38-1.174,0.573-2.42,0.573-3.706   c0-1.925-0.408-3.572-1.214-4.896C85.446,72.042,84.486,71.051,83.324,70.296z" fill="#42464A"/><path d="M42,70c0,0.661,0.022,1.317,0.058,1.969c8.318,2.616,17.765,0.438,24.058-6.406   c6.835-7.432,11.624-17.482,2.404-29.523C53.289,39.832,42,53.595,42,70z" fill="#020507" opacity="0.1"/><path d="   M76.901,82.807" fill="none" stroke="#303536" stroke-linecap="round" stroke-linejoin="round" stroke-miterlimit="10" stroke-width="4"/><path d="M66.116,62.563c6.878-7.479,11.692-17.609,2.233-29.752L53.655,18.785   c1.687,1.551-3.335-3.295-12.747-12.324C25.653,12.59,13.393,24.595,6.953,39.689l26.366,24.247   C42.755,72.614,57.439,71.999,66.116,62.563z" fill="#EABF9B"/><path d="M64.144,33.541c-4.606-3.583-9.283-7.006-12.391-9.243c-2.594-1.868-5.949-2.312-8.946-1.201   c-10.072,3.732-14.374,12.1-16.174,17.734c-1.029,3.219-0.201,6.741,2.076,9.237c2.485,2.724,6.115,6.724,10.024,11.104   c5.918,6.63,17.78,6.275,24.812-1.372C71.366,51.296,71.28,39.092,64.144,33.541z" fill="#F5F6F5" opacity="0.5"/></g></svg>