<?xml version="1.0" ?><!DOCTYPE svg  PUBLIC '-//W3C//DTD SVG 1.1//EN'  'http://www.w3.org/Graphics/SVG/1.1/DTD/svg11.dtd'><svg enable-background="new 0 0 128 128" id="Слой_1" version="1.1" viewBox="0 0 128 128" xml:space="preserve" xmlns="http://www.w3.org/2000/svg" xmlns:xlink="http://www.w3.org/1999/xlink"><g><circle cx="64" cy="64" fill="#E5E4DE" r="62"/><path d="M111,89.5H23c-0.552,0-1-0.448-1-1v-43c0-0.552,0.448-1,1-1h88c0.552,0,1,0.448,1,1v43   C112,89.052,111.552,89.5,111,89.5z" fill="#05090C" opacity="0.1"/><path d="M108,86.5H20c-0.552,0-1-0.448-1-1v-43c0-0.552,0.448-1,1-1h88c0.552,0,1,0.448,1,1v43   C109,86.052,108.552,86.5,108,86.5z" fill="#41B19C"/><path d="M105.85,83.35h-83.7v-38.7h83.7V83.35z M23.05,82.45h81.9v-36.9h-81.9V82.45z" fill="#F5F8F8" opacity="0.2"/><circle cx="64" cy="64" fill="#F5F8F8" opacity="0.2" r="15.75"/><path d="   M69.101,70.969c-1.429,1.096-3.216,1.747-5.155,1.747c-4.683,0-8.479-3.796-8.479-8.479s3.796-8.479,8.479-8.479   c1.915,0,3.682,0.635,5.101,1.706" fill="none" stroke="#42464A" stroke-linecap="round" stroke-linejoin="round" stroke-miterlimit="10" stroke-width="2"/><line fill="none" stroke="#42464A" stroke-linecap="round" stroke-linejoin="round" stroke-miterlimit="10" stroke-width="2" x1="54.101" x2="62.726" y1="66.252" y2="66.252"/><line fill="none" stroke="#42464A" stroke-linecap="round" stroke-linejoin="round" stroke-miterlimit="10" stroke-width="2" x1="54.101" x2="62.726" y1="62.005" y2="62.005"/><path d="   M63.636,77.143" fill="none" stroke="#303536" stroke-linecap="round" stroke-linejoin="round" stroke-miterlimit="10" stroke-width="2"/></g></svg>