<?xml version="1.0" ?><!DOCTYPE svg  PUBLIC '-//W3C//DTD SVG 1.1//EN'  'http://www.w3.org/Graphics/SVG/1.1/DTD/svg11.dtd'><svg enable-background="new 0 0 128 128" id="Слой_1" version="1.1" viewBox="0 0 128 128" xml:space="preserve" xmlns="http://www.w3.org/2000/svg" xmlns:xlink="http://www.w3.org/1999/xlink"><g><circle cx="64" cy="64" fill="#E5E4DE" r="62"/><path d="M86.667,18H41.333C37.283,18,34,21.283,34,25.333v92.927c1.092,0.605,2.204,1.178,3.335,1.718   c8.078,3.857,45.253,3.857,53.33,0c1.131-0.54,2.243-1.113,3.335-1.718V25.333C94,21.283,90.717,18,86.667,18z" fill="#2C3335"/><path d="M37.333,33.345v86.637C45.412,123.837,54.453,126,64,126s18.588-2.163,26.667-6.018V33.345H37.333z" fill="#F5CA41"/><path d="   M63.921,99.488" fill="none" stroke="#303536" stroke-linecap="round" stroke-linejoin="round" stroke-miterlimit="10" stroke-width="2.3786"/><circle cx="54.444" cy="26" fill="#484E51" r="1.333"/><path d="M69.333,25.333H58.667C58.299,25.333,58,25.632,58,26c0,0.368,0.299,0.667,0.667,0.667h10.667   C69.701,26.667,70,26.368,70,26C70,25.632,69.701,25.333,69.333,25.333z" fill="#484E51"/><path d="M113.306,50.012H37.339v50.645h75.967c0.736,0,1.333-0.597,1.333-1.333V51.345   C114.639,50.609,114.043,50.012,113.306,50.012z" fill="#41B19C"/><polygon fill="#F5F8F8" opacity="0.2" points="37.339,53.557 37.339,54.57 110.081,54.57 110.081,96.099 37.339,96.099    37.339,97.112 111.094,97.112 111.094,53.557  "/><circle cx="63.994" cy="75.334" fill="#F5F8F8" opacity="0.2" r="17.726"/><path d="M67.266,75.379c-0.522-0.339-1.121-0.613-1.78-0.814c-0.538-0.163-1.089-0.322-1.653-0.477   c-0.499-0.137-0.991-0.301-1.463-0.487c-0.362-0.143-0.682-0.334-0.954-0.569c-0.227-0.195-0.417-0.461-0.568-0.79   c-0.1-0.217-0.219-0.627-0.219-1.35c0-0.374,0.067-0.744,0.2-1.103c0.125-0.338,0.315-0.644,0.565-0.91   c0.25-0.267,0.585-0.488,0.992-0.658c0.853-0.356,2.24-0.358,3.057,0.008c0.389,0.175,0.709,0.408,0.953,0.695   c0.254,0.3,0.448,0.655,0.577,1.055c0.169,0.532,0.739,0.826,1.272,0.657c0.533-0.17,0.828-0.74,0.657-1.273   c-0.209-0.656-0.532-1.245-0.961-1.749c-0.44-0.519-1.001-0.934-1.669-1.233c-1.328-0.595-3.301-0.598-4.667-0.029   c-0.673,0.281-1.24,0.664-1.688,1.139c-0.438,0.465-0.772,1.003-0.989,1.597c-0.216,0.583-0.325,1.19-0.325,1.805   c0,0.874,0.136,1.613,0.403,2.195c0.273,0.594,0.638,1.09,1.083,1.475c0.444,0.385,0.961,0.695,1.536,0.922   c0.539,0.213,1.101,0.4,1.67,0.556c0.547,0.15,1.08,0.304,1.6,0.462c0.478,0.145,0.904,0.338,1.267,0.574   c0.348,0.226,0.636,0.524,0.857,0.886c0.225,0.368,0.338,0.87,0.338,1.492c0,0.453-0.066,0.887-0.198,1.29   c-0.127,0.389-0.32,0.732-0.577,1.018c-0.247,0.276-0.573,0.498-0.966,0.66c-0.743,0.305-1.907,0.334-2.82,0.044   c-0.406-0.128-0.77-0.338-1.083-0.625c-0.323-0.296-0.595-0.693-0.807-1.181c-0.224-0.512-0.818-0.749-1.333-0.525   c-0.512,0.223-0.748,0.82-0.524,1.333c0.326,0.75,0.763,1.378,1.297,1.867c0.532,0.487,1.151,0.845,1.84,1.062   c0.621,0.197,1.288,0.297,1.982,0.297c0.828,0,1.575-0.134,2.22-0.399c0.679-0.279,1.251-0.677,1.704-1.182   c0.446-0.498,0.78-1.085,0.995-1.744c0.197-0.607,0.297-1.251,0.297-1.916c0-0.999-0.213-1.855-0.634-2.546   C68.37,76.286,67.871,75.771,67.266,75.379z" fill="#42464A"/><path d="   M63.929,83.742" fill="none" stroke="#303536" stroke-linecap="round" stroke-linejoin="round" stroke-miterlimit="10" stroke-width="2"/><path d="M63.929,82.675c-0.56,0-1.013,0.454-1.013,1.013v1.494c0,0.559,0.453,1.013,1.013,1.013   s1.013-0.453,1.013-1.013v-1.494C64.942,83.129,64.489,82.675,63.929,82.675z" fill="#42464A"/><path d="M63.929,64.474c-0.56,0-1.013,0.454-1.013,1.013v1.447c0,0.559,0.453,1.013,1.013,1.013   s1.013-0.454,1.013-1.013v-1.447C64.942,64.928,64.489,64.474,63.929,64.474z" fill="#42464A"/><polygon fill="#020507" opacity="0.1" points="94,105.988 94,100.657 37.579,100.657  "/></g></svg>