<?xml version="1.0" ?><!DOCTYPE svg  PUBLIC '-//W3C//DTD SVG 1.1//EN'  'http://www.w3.org/Graphics/SVG/1.1/DTD/svg11.dtd'><svg enable-background="new 0 0 128 128" id="Слой_1" version="1.1" viewBox="0 0 128 128" xml:space="preserve" xmlns="http://www.w3.org/2000/svg" xmlns:xlink="http://www.w3.org/1999/xlink"><g><circle cx="64" cy="64" fill="#F5CA41" r="62"/><path d="M97.408,66.946c-0.372,0.235-0.766,0.436-1.178,0.607   c-0.554,0.224-1.079,0.341-1.565,0.341c-0.746,0-1.319-0.105-1.707-0.331c-0.388-0.214-0.591-0.586-0.585-1.118   c0-0.615,0.142-1.092,0.436-1.466c0.296-0.36,0.735-0.65,1.28-0.866c0.542-0.184,1.209-0.335,1.978-0.444   c0.684-0.086,2.037-0.242,2.21-0.243c0.173-0.002,0.288-0.097,0.211,0.364c-0.034,0.2-0.425,1.804-0.604,2.533   C97.832,66.542,97.541,66.861,97.408,66.946z M102.718,55.674c-1.14-0.636-2.922-0.957-5.361-0.957   c-1.206,0-2.418,0.097-3.635,0.286c-0.893,0.137-0.985,0.159-1.539,0.28c-1.141,0.248-1.317,1.391-1.317,1.391L90.5,58.18   c-0.208,0.964,0.341,0.924,0.586,0.849c0.498-0.15,0.768-0.3,1.785-0.53c0.971-0.221,1.998-0.386,2.817-0.379   c1.201,0,2.115,0.132,2.722,0.385c0.608,0.265,0.908,0.716,0.908,1.362c0.002,0.153,0.006,0.298-0.049,0.425   c-0.05,0.118-0.146,0.232-0.433,0.271c-1.714,0.102-2.945,0.258-4.426,0.474c-1.462,0.206-2.741,0.559-3.811,1.047   c-1.14,0.506-1.993,1.182-2.581,2.04c-0.572,0.861-0.86,1.905-0.861,3.133c0,1.161,0.417,2.108,1.225,2.844   c0.817,0.726,1.88,1.085,3.166,1.085c0.803-0.006,1.432-0.064,1.883-0.176c0.446-0.113,0.933-0.273,1.446-0.495   c0.384-0.16,0.798-0.393,1.236-0.684c0.438-0.292,0.741-0.5,1.13-0.754l0.014,0.024l-0.11,0.483   c-0.001,0.005-0.007,0.007-0.007,0.012l0.004,0.009c-0.125,0.582,0.225,1.066,0.801,1.123l0.007,0.01h0.051l0.002,0.003   c0.383,0,1.696-0.001,2.309-0.003h0.428c0.028,0,0.031-0.009,0.042-0.015c0.588-0.072,1.153-0.552,1.285-1.127l2.192-9.46   c0.05-0.223,0.09-0.479,0.114-0.775c0.027-0.299,0.06-0.545,0.05-0.722C104.43,57.3,103.855,56.31,102.718,55.674" fill="#5ABABB" id="path2997_1_"/><path d="M65.013,54.926c-0.643,0-1.486,0.52-1.885,1.149c0,0-4.301,7.373-4.723,8.11   c-0.23,0.396-0.462,0.144-0.501-0.003c-0.031-0.179-1.333-8.059-1.333-8.059c-0.146-0.634-0.809-1.179-1.638-1.176l-2.682,0.004   c-0.646,0-1.05,0.518-0.906,1.144c0,0,2.05,11.619,2.45,14.352c0.199,1.511-0.021,1.779-0.021,1.779l-2.658,4.634   c-0.389,0.628-0.176,1.143,0.467,1.143l3.108-0.003c0.643,0,1.496-0.512,1.879-1.142l11.956-20.22c0,0,1.144-1.727,0.089-1.713   C67.895,54.936,65.013,54.926,65.013,54.926" fill="#315067" id="path3009_1_"/><path d="M33.751,53.035c-0.373-0.728-0.932-1.319-1.646-1.765   c-0.74-0.457-1.601-0.772-2.605-0.961c-1.01-0.181-2.189-0.27-3.542-0.282l-6.265,0.005c-0.651,0.008-1.289,0.518-1.439,1.144   l-4.225,18.365c-0.145,0.628,0.261,1.148,0.91,1.148h3.001c0.649,0,1.292-0.506,1.438-1.148l1.034-4.457   c0.138-0.623,0.78-1.139,1.43-1.139H22.7c3.67-0.004,6.517-0.754,8.563-2.257c2.043-1.5,3.065-3.488,3.06-5.947   C34.328,54.661,34.141,53.757,33.751,53.035 M27.271,59.036c-0.905,0.662-2.159,0.993-3.787,0.993h-0.736   c-0.648,0-1.058-0.514-0.915-1.146l0.903-3.893c0.138-0.627,0.785-1.148,1.433-1.142l0.982-0.006c1.147,0,2.019,0.196,2.608,0.587   c0.58,0.38,0.875,0.98,0.864,1.787C28.641,57.432,28.18,58.372,27.271,59.036" fill="#315067" id="path3013_1_"/><path d="M88.24,53.103c-0.374-0.728-0.939-1.314-1.653-1.77c-0.732-0.455-1.602-0.773-2.61-0.958   c-0.996-0.175-2.181-0.275-3.53-0.278L74.169,50.1c-0.646,0.011-1.281,0.519-1.43,1.144l-4.222,18.371   c-0.154,0.624,0.266,1.145,0.901,1.141l3.013-0.006c0.639,0.006,1.29-0.511,1.441-1.135l1.018-4.458   c0.143-0.625,0.792-1.148,1.442-1.139h0.856c3.675,0,6.524-0.755,8.565-2.258c2.035-1.51,3.06-3.492,3.06-5.956   C88.806,54.728,88.623,53.822,88.24,53.103 M81.762,59.111c-0.899,0.654-2.161,0.982-3.785,0.982H77.23   c-0.646,0.008-1.063-0.515-0.91-1.141l0.9-3.899c0.134-0.617,0.79-1.142,1.427-1.137l0.987-0.005   c1.152,0.005,2.013,0.198,2.608,0.581c0.585,0.388,0.869,0.989,0.873,1.79C83.118,57.503,82.666,58.442,81.762,59.111" fill="#5ABABB" id="path3017_1_"/><path d="M42.907,66.932c-0.372,0.235-0.766,0.435-1.178,0.606   c-0.554,0.223-1.082,0.341-1.566,0.341c-0.744,0-1.319-0.106-1.707-0.331c-0.388-0.214-0.592-0.586-0.585-1.119   c0-0.613,0.143-1.092,0.437-1.465c0.296-0.36,0.734-0.651,1.279-0.866c0.544-0.185,1.212-0.334,1.979-0.443   c0.684-0.086,2.039-0.242,2.211-0.244c0.172-0.001,0.287-0.097,0.21,0.364c-0.033,0.2-0.424,1.805-0.604,2.534   C43.329,66.529,43.038,66.847,42.907,66.932z M48.217,55.659c-1.14-0.636-2.922-0.957-5.361-0.957   c-1.207,0-2.418,0.096-3.635,0.285c-0.894,0.136-0.984,0.159-1.539,0.28c-1.142,0.249-1.317,1.391-1.317,1.391l-0.366,1.508   c-0.207,0.963,0.342,0.924,0.586,0.849c0.497-0.15,0.769-0.299,1.785-0.53c0.97-0.22,1.998-0.384,2.816-0.378   c1.202,0,2.115,0.131,2.722,0.385c0.608,0.265,0.907,0.717,0.907,1.362c0.004,0.153,0.007,0.299-0.047,0.424   c-0.051,0.119-0.148,0.233-0.435,0.271c-1.712,0.103-2.942,0.259-4.426,0.475c-1.462,0.206-2.741,0.559-3.811,1.047   c-1.14,0.506-1.992,1.183-2.579,2.04c-0.574,0.861-0.861,1.904-0.862,3.133c0,1.161,0.418,2.108,1.224,2.843   c0.818,0.726,1.879,1.086,3.165,1.086c0.804-0.006,1.432-0.065,1.884-0.176c0.446-0.114,0.933-0.273,1.444-0.495   c0.386-0.16,0.799-0.394,1.237-0.684c0.437-0.292,0.742-0.499,1.132-0.754l0.012,0.024l-0.11,0.482   c-0.001,0.005-0.007,0.008-0.007,0.013l0.005,0.008c-0.125,0.583,0.224,1.067,0.8,1.123l0.007,0.011h0.05l0.002,0.004   c0.384,0,1.697-0.002,2.309-0.004h0.429c0.029,0,0.033-0.01,0.042-0.016c0.59-0.074,1.152-0.553,1.286-1.126l2.192-9.461   c0.049-0.222,0.09-0.479,0.112-0.774c0.029-0.3,0.061-0.545,0.052-0.722C49.93,57.285,49.353,56.296,48.217,55.659" fill="#315067" id="path3021_1_"/><path d="M113.066,50.248h-2.685c-0.002,0-0.003,0.001-0.004,0.001l-0.002-0.001   c-0.615,0-1.238,0.471-1.413,1.07c-0.007,0.024-0.019,0.047-0.025,0.073c0,0-0.064,0.292-0.175,0.797l-3.689,16.72   c-0.085,0.378-0.142,0.624-0.159,0.688l0.007,0.009c-0.128,0.584,0.224,1.068,0.8,1.122l0.008,0.011h2.787   c0.611,0,1.23-0.466,1.41-1.058c0.009-0.029,0.022-0.056,0.029-0.084l4.024-18.206l-0.006-0.002   C114.11,50.765,113.709,50.248,113.066,50.248" fill="#5ABABB" id="path3025_1_"/></g></svg>