<?xml version="1.0" ?><!DOCTYPE svg  PUBLIC '-//W3C//DTD SVG 1.1//EN'  'http://www.w3.org/Graphics/SVG/1.1/DTD/svg11.dtd'><svg enable-background="new 0 0 128 128" id="Слой_1" version="1.1" viewBox="0 0 128 128" xml:space="preserve" xmlns="http://www.w3.org/2000/svg" xmlns:xlink="http://www.w3.org/1999/xlink"><g><circle cx="64" cy="64" fill="#41B19C" r="62"/><path d="M81,110.5H47c-3.038,0-5.5-2.462-5.5-5.5V23c0-3.038,2.462-5.5,5.5-5.5h34c3.038,0,5.5,2.462,5.5,5.5v82   C86.5,108.038,84.038,110.5,81,110.5z" fill="#2C3335"/><rect fill="#F5CA41" height="70" width="40" x="44" y="29.009"/><path d="M58.815,70.167l-1.662-0.606c-0.229-0.084-0.348-0.338-0.264-0.567l4.244-11.634   c0.084-0.229,0.338-0.348,0.567-0.264l1.662,0.606c0.229,0.084,0.348,0.338,0.264,0.567l-4.244,11.634   C59.298,70.133,59.044,70.251,58.815,70.167z" fill="#42464A"/><path d="M70.849,69.561l-1.662,0.608c-0.229,0.084-0.483-0.034-0.567-0.263l-4.256-11.632   c-0.084-0.229,0.034-0.483,0.263-0.567l1.662-0.608c0.229-0.084,0.483,0.034,0.567,0.263l4.256,11.632   C71.196,69.223,71.078,69.478,70.849,69.561z" fill="#42464A"/><path d="M78.25,67.534h-28.5c-0.414,0-0.75,0.336-0.75,0.75v2.25c0,0.414,0.336,0.75,0.75,0.75h1.131l1.664,13.313   c0.117,0.938,0.915,1.642,1.861,1.642h19.19c0.946,0,1.743-0.704,1.861-1.642l1.664-13.313h1.131c0.414,0,0.75-0.336,0.75-0.75   v-2.25C79,67.87,78.664,67.534,78.25,67.534z M59.125,82.315c0,0.414-0.336,0.75-0.75,0.75s-0.75-0.336-0.75-0.75V74.44   c0-0.414,0.336-0.75,0.75-0.75s0.75,0.336,0.75,0.75V82.315z M64.75,82.315c0,0.414-0.336,0.75-0.75,0.75s-0.75-0.336-0.75-0.75   V74.44c0-0.414,0.336-0.75,0.75-0.75s0.75,0.336,0.75,0.75V82.315z M70.375,82.315c0,0.414-0.336,0.75-0.75,0.75   s-0.75-0.336-0.75-0.75V74.44c0-0.414,0.336-0.75,0.75-0.75s0.75,0.336,0.75,0.75V82.315z" fill="#C45C45"/><path d="M52,71.307l-1.12-0.024l1.664,13.313c0.1,0.801,0.698,1.427,1.458,1.595   c-0.173-0.245-0.294-0.529-0.333-0.845L52,71.307z" fill="#F5F8F7" opacity="0.1"/><path d="M49.75,67.534c-0.414,0-0.75,0.336-0.75,0.75v2.25c0,0.414,0.336,0.75,0.75,0.75h0.375v-3   c0-0.414,0.336-0.75,0.75-0.75" fill="#F5F8F7" opacity="0.1"/><path d="M78.25,67.534h-0.375v3c0,0.414-0.336,0.75-0.75,0.75h1.125c0.414,0,0.75-0.336,0.75-0.75   v-2.25C79,67.87,78.664,67.534,78.25,67.534z" fill="#020507" opacity="0.1"/><path d="M77.125,71.239h-26.25l0,0L75.8,72.75l-1.47,11.846c-0.117,0.938-0.915,1.642-1.861,1.642   h1.125c0.946,0,1.743-0.704,1.861-1.642l1.664-13.313l0,0L77.125,71.239z" fill="#020507" opacity="0.1"/><circle cx="57.982" cy="69.637" fill="#42464A" r="0.938"/><path d="M70.923,69.404c0.168,0.698-0.445,1.311-1.143,1.143c-0.328-0.079-0.597-0.348-0.676-0.676   c-0.168-0.698,0.445-1.311,1.143-1.143C70.574,68.807,70.843,69.076,70.923,69.404z" fill="#42464A"/><path d="   M63.941,78.616" fill="none" stroke="#303536" stroke-linecap="round" stroke-linejoin="round" stroke-miterlimit="10" stroke-width="2.3786"/><path d="M68.163,29.009h-8.022l-1.989,14.986c0,3.314,2.686,6,6,6c3.314,0,6-2.686,6-6L68.163,29.009z" fill="#C45C45"/><path d="M52.119,29.009l-5.967,14.986c0,3.314,2.686,6,6,6s6-2.686,6-6l1.989-14.986H52.119z" fill="#FEFFFF"/><path d="M44.097,29.009l-9.944,14.986c0,3.314,2.686,6,6,6s6-2.686,6-6l5.967-14.986H44.097z" fill="#C45C45"/><path d="M76.186,29.009h-8.022l1.989,14.986c0,3.314,2.686,6,6,6s6-2.686,6-6L76.186,29.009z" fill="#FEFFFF"/><path d="M84.208,29.009h-8.022l5.967,14.986c0,3.314,2.686,6,6,6s6-2.686,6-6L84.208,29.009z" fill="#C45C45"/><polygon fill="#020507" opacity="0.1" points="44,29.009 84.208,29.009 88.152,34.953  "/><path d="M70.152,43.995c0,3.314-2.686,6-6,6c-3.314,0-6-2.686-6-6H70.152z" fill="#020507" opacity="0.1"/><path d="M58.152,43.995c0,3.314-2.686,6-6,6s-6-2.686-6-6H58.152z" fill="#020507" opacity="0.1"/><path d="M46.152,43.995c0,3.314-2.686,6-6,6s-6-2.686-6-6H46.152z" fill="#020507" opacity="0.1"/><path d="M82.152,43.995c0,3.314-2.686,6-6,6c-3.314,0-6-2.686-6-6H82.152z" fill="#020507" opacity="0.1"/><path d="M94.152,43.995c0,3.314-2.686,6-6,6c-3.314,0-6-2.686-6-6H94.152z" fill="#020507" opacity="0.1"/><circle cx="64" cy="104.467" fill="#484E51" r="3.5"/><circle cx="56.833" cy="23.5" fill="#484E51" r="1"/><path d="M68,24h-8c-0.276,0-0.5-0.224-0.5-0.5S59.724,23,60,23h8c0.276,0,0.5,0.224,0.5,0.5S68.276,24,68,24z" fill="#484E51"/></g></svg>