<?xml version="1.0" ?><!DOCTYPE svg  PUBLIC '-//W3C//DTD SVG 1.1//EN'  'http://www.w3.org/Graphics/SVG/1.1/DTD/svg11.dtd'><svg enable-background="new 0 0 128 128" id="Слой_1" version="1.1" viewBox="0 0 128 128" xml:space="preserve" xmlns="http://www.w3.org/2000/svg" xmlns:xlink="http://www.w3.org/1999/xlink"><g><path d="M7.548,38.328C3.985,46.15,2,54.843,2,64c0,34.242,27.758,62,62,62s62-27.758,62-62   c0-9.072-1.949-17.69-5.45-25.456C110.836,16.998,17.309,16.898,7.548,38.328z" fill="#62C8CF"/><path d="M64.152,41.972c6.627,0,12-5.373,12-12L72.519,2.597C69.732,2.214,66.892,2,64,2   c-2.785,0-5.522,0.202-8.209,0.558l-3.638,27.415C52.152,36.6,57.525,41.972,64.152,41.972z" fill="#C45C45"/><path d="M40.152,41.972c6.627,0,12-5.373,12-12l3.638-27.415C49.055,3.449,42.66,5.411,36.787,8.285l-8.635,21.688   C28.152,36.6,33.525,41.972,40.152,41.972z" fill="#FEFFFF"/><path d="M28.152,29.972l8.635-21.688c-12.892,6.309-23.26,16.962-29.222,30.05c2.18,2.238,5.217,3.637,8.587,3.637   C22.78,41.972,28.152,36.6,28.152,29.972z" fill="#C45C45"/><path d="M88.152,41.972c6.627,0,12-5.373,12-12L91.595,8.48c-5.889-2.933-12.307-4.953-19.076-5.883l3.633,27.375   C76.152,36.6,81.525,41.972,88.152,41.972z" fill="#FEFFFF"/><path d="M112.152,41.972c3.263,0,6.218-1.307,8.381-3.42C114.646,25.495,104.38,14.847,91.595,8.48l8.557,21.492   C100.152,36.6,105.525,41.972,112.152,41.972z" fill="#C45C45"/><path d="M64.152,41.972c6.627,0,12-5.373,12-12h-24C52.152,36.6,57.525,41.972,64.152,41.972z" fill="#020507" opacity="0.1"/><path d="M40.152,41.972c6.627,0,12-5.373,12-12h-24C28.152,36.6,33.525,41.972,40.152,41.972z" fill="#020507" opacity="0.1"/><path d="M12.006,29.972c-1.702,2.637-3.208,5.41-4.506,8.301c0.021,0.022,0.044,0.04,0.065,0.062   c1.328-2.915,2.87-5.71,4.615-8.363H12.006z" fill="#020507" opacity="0.1"/><path d="M28.152,29.972H12.18c-1.745,2.652-3.287,5.448-4.615,8.363   c2.18,2.238,5.217,3.637,8.587,3.637C22.78,41.972,28.152,36.6,28.152,29.972z" fill="#020507" opacity="0.1"/><path d="M88.152,41.972c6.627,0,12-5.373,12-12h-24C76.152,36.6,81.525,41.972,88.152,41.972z" fill="#020507" opacity="0.1"/><path d="M120.599,38.493c-1.319-2.97-2.86-5.817-4.604-8.52h-0.174   c1.788,2.718,3.364,5.586,4.713,8.58C120.554,38.531,120.578,38.513,120.599,38.493z" fill="#020507" opacity="0.1"/><path d="M112.152,41.972c3.263,0,6.218-1.307,8.381-3.42c-1.35-2.993-2.925-5.862-4.713-8.58h-15.668   C100.152,36.6,105.525,41.972,112.152,41.972z" fill="#020507" opacity="0.1"/><circle cx="64" cy="75" fill="#F5CA41" r="30"/><path d="M64,48.333c-14.704,0-26.667,11.963-26.667,26.667S49.296,101.667,64,101.667   S90.667,89.704,90.667,75S78.704,48.333,64,48.333z" fill="#F5F8F8" opacity="0.3"/><path d="M73.632,87.042c-2.664,2.044-5.853,3.124-9.221,3.124c-6.877,0-12.69-4.604-14.543-10.889h12.145   c0.829,0,1.5-0.671,1.5-1.5s-0.671-1.5-1.5-1.5H49.309c-0.035-0.422-0.065-0.846-0.065-1.278s0.029-0.856,0.065-1.278h12.705   c0.829,0,1.5-0.671,1.5-1.5s-0.671-1.5-1.5-1.5H49.869c1.852-6.285,7.666-10.889,14.543-10.889c3.324,0,6.479,1.055,9.124,3.05   c0.661,0.499,1.602,0.367,2.101-0.294c0.499-0.661,0.367-1.602-0.294-2.101c-3.17-2.392-6.95-3.655-10.931-3.655   c-8.541,0-15.706,5.933-17.637,13.889H45.06c-0.829,0-1.5,0.671-1.5,1.5s0.671,1.5,1.5,1.5h1.25   c-0.03,0.424-0.065,0.846-0.065,1.278s0.035,0.854,0.065,1.278h-1.25c-0.829,0-1.5,0.671-1.5,1.5s0.671,1.5,1.5,1.5h1.715   c1.931,7.956,9.096,13.889,17.637,13.889c4.034,0,7.854-1.294,11.047-3.743c0.657-0.504,0.781-1.446,0.277-2.104   C75.231,86.662,74.289,86.54,73.632,87.042z" fill="#42464A"/><path d="M82.336,55.664c4.538,4.783,7.331,11.237,7.331,18.336c0,14.704-11.963,26.667-26.667,26.667   c-7.098,0-13.552-2.793-18.336-7.331c4.863,5.125,11.73,8.331,19.336,8.331c14.704,0,26.667-11.963,26.667-26.667   C90.667,67.394,87.461,60.527,82.336,55.664z" fill="#F5F8F8" opacity="0.3"/><path d="M64,48.333c-14.704,0-26.667,11.963-26.667,26.667c0,7.606,3.206,14.473,8.331,19.335   C41.126,89.552,38.333,83.098,38.333,76c0-14.704,11.963-26.667,26.667-26.667c7.098,0,13.552,2.793,18.336,7.331   C78.473,51.539,71.606,48.333,64,48.333z" fill="#020507" opacity="0.1"/></g></svg>