<?xml version="1.0" ?><!DOCTYPE svg  PUBLIC '-//W3C//DTD SVG 1.1//EN'  'http://www.w3.org/Graphics/SVG/1.1/DTD/svg11.dtd'><svg enable-background="new 0 0 128 128" id="Слой_1" version="1.1" viewBox="0 0 128 128" xml:space="preserve" xmlns="http://www.w3.org/2000/svg" xmlns:xlink="http://www.w3.org/1999/xlink"><g><circle cx="64" cy="63" fill="#C45C45" r="62"/><path d="M97,102H37c-2.761,0-5-2.239-5-5V37c0-2.761,2.239-5,5-5h60c2.761,0,5,2.239,5,5v60   C102,99.761,99.761,102,97,102z" fill="#020507" opacity="0.1"/><path d="M94,99H34c-2.761,0-5-2.239-5-5V34c0-2.761,2.239-5,5-5h60c2.761,0,5,2.239,5,5v60   C99,96.761,96.761,99,94,99z" fill="#FEFFFF"/><path d="M48.833,34h-15v15h15V34z M46.59,46.736H36.076V36.264H46.59V46.736z" fill="#42464A"/><rect fill="#42464A" height="6.429" width="6.429" x="38.118" y="38.286"/><path d="M94.167,34h-15v15h15V34z M91.924,46.736H81.41V36.264h10.514V46.736z" fill="#42464A"/><rect fill="#42464A" height="6.429" width="6.429" x="83.453" y="38.286"/><polygon fill="#42464A" points="34.167,57.571 34.167,59.714 34.167,61.857 36.31,61.857 38.453,61.857 40.596,61.857 40.596,64    42.739,64 42.739,61.857 42.739,59.714 40.596,59.714 38.453,59.714 36.31,59.714 36.31,57.571  "/><polygon fill="#42464A" points="55.596,42.571 55.596,40.429 53.453,40.429 53.453,38.286 53.453,36.143 55.596,36.143    55.596,38.286 57.739,38.286 59.882,38.286 59.882,40.429 62.025,40.429 62.025,38.286 64.167,38.286 64.167,36.143 66.31,36.143    68.453,36.143 68.453,34 66.31,34 64.167,34 62.025,34 62.025,36.143 59.882,36.143 57.739,36.143 57.739,34 55.596,34 53.453,34    51.31,34 51.31,36.143 51.31,38.286 51.31,40.429 51.31,42.571 53.453,42.571  "/><polygon fill="#42464A" points="36.31,70.429 34.167,70.429 34.167,72.571 34.167,74.714 34.167,76.857 36.31,76.857 36.31,74.714    36.31,72.571 38.453,72.571 38.453,70.429 40.596,70.429 40.596,68.286 38.453,68.286 38.453,66.143 38.453,64 36.31,64 34.167,64    34.167,66.143 36.31,66.143 36.31,68.286  "/><rect fill="#42464A" height="2.143" width="2.143" x="42.739" y="64"/><polygon fill="#42464A" points="51.31,79 51.31,81.143 53.453,81.143 53.453,83.286 53.453,85.429 53.453,87.571 55.596,87.571    55.596,85.429 57.739,85.429 57.739,83.286 55.596,83.286 55.596,81.143 55.596,79 53.453,79 53.453,76.857 51.31,76.857  "/><polygon fill="#42464A" points="53.453,57.571 51.31,57.571 51.31,55.429 51.31,53.286 51.31,51.143 49.167,51.143 47.025,51.143    44.882,51.143 44.882,53.286 42.739,53.286 40.596,53.286 40.596,51.143 38.453,51.143 36.31,51.143 34.167,51.143 34.167,53.286    36.31,53.286 38.453,53.286 38.453,55.429 40.596,55.429 40.596,57.571 42.739,57.571 42.739,55.429 44.882,55.429 47.025,55.429    47.025,53.286 49.167,53.286 49.167,55.429 49.167,57.571 47.025,57.571 47.025,59.714 49.167,59.714 51.31,59.714 51.31,61.857    53.453,61.857 53.453,59.714  "/><polygon fill="#42464A" points="53.453,53.286 53.453,55.429 53.453,57.571 55.596,57.571 55.596,55.429 57.739,55.429    57.739,53.286 55.596,53.286 55.596,51.143 55.596,49 53.453,49 53.453,46.857 55.596,46.857 57.739,46.857 57.739,49 59.882,49    59.882,46.857 59.882,44.714 57.739,44.714 55.596,44.714 53.453,44.714 51.31,44.714 51.31,46.857 51.31,49 51.31,51.143    53.453,51.143  "/><polygon fill="#42464A" points="77.025,61.857 77.025,59.714 77.025,57.571 77.025,55.429 74.882,55.429 74.882,57.571    74.882,59.714 72.739,59.714 72.739,61.857 74.882,61.857  "/><polygon fill="#42464A" points="66.31,57.571 64.167,57.571 64.167,59.714 62.025,59.714 62.025,57.571 64.167,57.571    64.167,55.429 64.167,53.286 62.025,53.286 62.025,55.429 59.882,55.429 59.882,57.571 59.882,59.714 59.882,61.857 62.025,61.857    62.025,64 64.167,64 64.167,61.857 66.31,61.857 68.453,61.857 68.453,59.714 66.31,59.714  "/><polygon fill="#42464A" points="51.31,65.071 51.31,62.929 49.167,62.929 47.025,62.929 47.025,65.071 49.167,65.071  "/><polygon fill="#42464A" points="55.596,64 55.596,61.857 53.453,61.857 53.453,64 53.453,66.143 53.453,68.286 55.596,68.286    57.739,68.286 57.739,66.143 55.596,66.143  "/><polygon fill="#42464A" points="66.31,51.143 66.31,49 64.167,49 64.167,51.143 64.167,53.286 66.31,53.286  "/><polygon fill="#42464A" points="64.167,42.571 66.31,42.571 66.31,40.429 66.31,38.286 64.167,38.286 64.167,40.429  "/><rect fill="#42464A" height="2.143" width="2.143" x="62.025" y="44.714"/><polygon fill="#42464A" points="92.025,51.143 89.882,51.143 87.739,51.143 87.739,53.286 85.596,53.286 83.453,53.286    83.453,51.143 81.31,51.143 79.167,51.143 77.025,51.143 77.025,49 77.025,46.857 74.882,46.857 74.882,44.714 74.882,42.571    77.025,42.571 77.025,40.429 77.025,38.286 77.025,36.143 74.882,36.143 74.882,38.286 74.882,40.429 72.739,40.429 72.739,42.571    70.596,42.571 70.596,40.429 68.453,40.429 68.453,42.571 68.453,44.714 70.596,44.714 72.739,44.714 72.739,46.857 72.739,49    74.882,49 74.882,51.143 72.739,51.143 70.596,51.143 70.596,49 68.453,49 68.453,51.143 68.453,53.286 68.453,55.429    68.453,57.571 68.453,59.714 70.596,59.714 70.596,57.571 70.596,55.429 70.596,53.286 72.739,53.286 74.882,53.286 77.025,53.286    79.167,53.286 81.31,53.286 81.31,55.429 83.453,55.429 83.453,57.571 83.453,59.714 85.596,59.714 85.596,57.571 85.596,55.429    87.739,55.429 89.882,55.429 89.882,53.286 92.025,53.286 92.025,55.429 92.025,57.571 89.882,57.571 89.882,59.714 92.025,59.714    94.167,59.714 94.167,57.571 94.167,55.429 94.167,53.286 94.167,51.143  "/><polygon fill="#42464A" points="92.025,79 94.167,79 94.167,76.857 94.167,74.714 92.025,74.714 92.025,76.857  "/><polygon fill="#42464A" points="89.882,74.714 92.025,74.714 92.025,72.571 92.025,70.429 92.025,68.286 89.882,68.286    89.882,70.429 87.739,70.429 87.739,72.571 89.882,72.571  "/><polygon fill="#42464A" points="94.167,66.143 94.167,64 94.167,61.857 92.025,61.857 89.882,61.857 87.739,61.857 85.596,61.857    85.596,64 85.596,66.143 87.739,66.143 87.739,64 89.882,64 92.025,64 92.025,66.143 92.025,68.286 94.167,68.286  "/><polygon fill="#42464A" points="89.882,81.143 89.882,83.286 87.739,83.286 87.739,81.143 85.596,81.143 85.596,83.286    83.453,83.286 81.31,83.286 81.31,81.143 79.167,81.143 79.167,83.286 79.167,85.429 81.31,85.429 83.453,85.429 83.453,87.571    83.453,89.714 85.596,89.714 85.596,87.571 85.596,85.429 87.739,85.429 87.739,87.571 89.882,87.571 89.882,85.429 92.025,85.429    92.025,83.286 92.025,81.143 92.025,79 89.882,79  "/><rect fill="#42464A" height="2.143" width="2.143" x="81.31" y="70.429"/><polygon fill="#42464A" points="72.739,70.429 72.739,72.571 74.882,72.571 74.882,70.429 74.882,68.286 72.739,68.286    70.596,68.286 70.596,70.429  "/><rect fill="#42464A" height="2.143" width="2.143" x="74.882" y="66.143"/><polygon fill="#42464A" points="79.167,65.071 79.167,62.929 77.025,62.929 74.882,62.929 74.882,65.071 77.025,65.071  "/><rect fill="#42464A" height="2.143" width="2.143" x="81.31" y="61.857"/><polygon fill="#42464A" points="79.167,57.571 79.167,59.714 81.31,59.714 81.31,57.571 81.31,55.429 79.167,55.429  "/><polygon fill="#42464A" points="66.31,64 66.31,66.143 68.453,66.143 68.453,68.286 70.596,68.286 70.596,66.143 70.596,64    70.596,61.857 68.453,61.857 68.453,64  "/><polygon fill="#42464A" points="59.882,70.429 59.882,72.571 59.882,74.714 57.739,74.714 55.596,74.714 55.596,72.571    53.453,72.571 53.453,70.429 51.31,70.429 51.31,72.571 49.167,72.571 47.025,72.571 47.025,74.714 44.882,74.714 44.882,72.571    44.882,70.429 47.025,70.429 47.025,68.286 44.882,68.286 42.739,68.286 42.739,70.429 42.739,72.571 42.739,74.714 42.739,76.857    44.882,76.857 47.025,76.857 49.167,76.857 49.167,74.714 51.31,74.714 53.453,74.714 53.453,76.857 55.596,76.857 57.739,76.857    59.882,76.857 62.025,76.857 62.025,74.714 62.025,72.571 62.025,70.429 64.167,70.429 64.167,68.286 62.025,68.286 59.882,68.286    57.739,68.286 57.739,70.429  "/><polygon fill="#42464A" points="57.739,64 57.739,66.143 59.882,66.143 62.025,66.143 62.025,64 59.882,64  "/><polygon fill="#42464A" points="62.025,79 59.882,79 59.882,81.143 59.882,83.286 62.025,83.286 62.025,81.143  "/><polygon fill="#42464A" points="64.167,85.429 66.31,85.429 66.31,83.286 64.167,83.286 62.025,83.286 62.025,85.429  "/><rect fill="#42464A" height="2.143" width="2.143" x="55.596" y="87.571"/><polygon fill="#42464A" points="66.31,91.857 64.167,91.857 64.167,89.714 64.167,87.571 62.025,87.571 62.025,89.714    62.025,91.857 59.882,91.857 59.882,94 62.025,94 64.167,94 66.31,94 68.453,94 68.453,91.857 68.453,89.714 66.31,89.714  "/><polygon fill="#42464A" points="51.31,89.714 51.31,91.857 51.31,94 53.453,94 55.596,94 57.739,94 57.739,91.857 55.596,91.857    53.453,91.857 53.453,89.714 53.453,87.571 51.31,87.571  "/><polygon fill="#42464A" points="81.31,87.571 79.167,87.571 79.167,89.714 77.025,89.714 74.882,89.714 74.882,91.857    72.739,91.857 72.739,89.714 72.739,87.571 74.882,87.571 74.882,85.429 72.739,85.429 70.596,85.429 70.596,87.571 70.596,89.714    70.596,91.857 70.596,94 72.739,94 74.882,94 77.025,94 77.025,91.857 79.167,91.857 81.31,91.857 81.31,94 83.453,94 85.596,94    87.739,94 87.739,91.857 85.596,91.857 83.453,91.857 83.453,89.714 81.31,89.714  "/><rect fill="#42464A" height="2.143" width="2.143" x="85.596" y="68.286"/><polygon fill="#42464A" points="81.31,74.714 79.167,74.714 79.167,76.857 79.167,79 81.31,79 81.31,76.857 83.453,76.857    83.453,79 83.453,81.143 85.596,81.143 85.596,79 85.596,76.857 85.596,74.714 87.739,74.714 87.739,72.571 85.596,72.571    83.453,72.571 83.453,74.714  "/><polygon fill="#42464A" points="92.025,91.857 92.025,94 94.167,94 94.167,91.857 94.167,89.714 94.167,87.571 92.025,87.571    92.025,89.714 89.882,89.714 87.739,89.714 87.739,91.857 89.882,91.857  "/><polygon fill="#42464A" points="77.025,72.571 77.025,74.714 79.167,74.714 79.167,72.571 79.167,70.429 81.31,70.429    81.31,68.286 81.31,66.143 79.167,66.143 79.167,68.286 77.025,68.286 77.025,70.429  "/><polygon fill="#42464A" points="77.025,76.857 77.025,74.714 74.882,74.714 72.739,74.714 72.739,76.857 70.596,76.857    70.596,74.714 70.596,72.571 70.596,70.429 68.453,70.429 68.453,68.286 66.31,68.286 66.31,70.429 66.31,72.571 68.453,72.571    68.453,74.714 66.31,74.714 66.31,76.857 68.453,76.857 68.453,79 70.596,79 72.739,79 74.882,79 74.882,76.857  "/><polygon fill="#42464A" points="77.025,79 74.882,79 74.882,81.143 77.025,81.143 79.167,81.143 79.167,79  "/><rect fill="#42464A" height="2.143" width="2.143" x="70.596" y="81.143"/><polygon fill="#42464A" points="64.167,79 64.167,81.143 66.31,81.143 68.453,81.143 68.453,79 66.31,79  "/><path d="M33.833,94h15V79h-15V94z M36.076,81.264H46.59v10.472H36.076V81.264z" fill="#42464A"/><rect fill="#42464A" height="6.429" width="6.429" x="38.118" y="83.286"/></g></svg>