<?xml version="1.0" ?><!DOCTYPE svg  PUBLIC '-//W3C//DTD SVG 1.1//EN'  'http://www.w3.org/Graphics/SVG/1.1/DTD/svg11.dtd'><svg enable-background="new 0 0 128 128" id="Слой_1" version="1.1" viewBox="0 0 128 128" xml:space="preserve" xmlns="http://www.w3.org/2000/svg" xmlns:xlink="http://www.w3.org/1999/xlink"><g><circle cx="64" cy="64" fill="#41B19C" r="62"/><path d="M81,110.5H47c-3.038,0-5.5-2.462-5.5-5.5V23c0-3.038,2.462-5.5,5.5-5.5h34c3.038,0,5.5,2.462,5.5,5.5v82   C86.5,108.038,84.038,110.5,81,110.5z" fill="#2C3335"/><rect fill="#F5CA41" height="70" width="40" x="44" y="29.009"/><path d="M95.156,54H44.18c-0.062,0-0.119,0.016-0.18,0.018v37.964C44.061,91.984,44.118,92,44.18,92h50.975   c2.582,0,4.675-2.093,4.675-4.675v-28.65C99.83,56.093,97.737,54,95.156,54z" fill="#F2F4F5"/><rect fill="#C3BC7B" height="8.295" width="3.456" x="49.842" y="66.59"/><path d="M57.1,67.282c0-0.382-0.309-0.691-0.691-0.691H53.99v3.802H57.1V67.282z" fill="#C3BC7B"/><path d="M53.99,74.885h2.419c0.382,0,0.691-0.309,0.691-0.691v-3.111H53.99V74.885z" fill="#C3BC7B"/><path d="M46.041,74.194c0,0.382,0.309,0.691,0.691,0.691h2.419v-3.802h-3.111V74.194z" fill="#C3BC7B"/><path d="M49.151,66.59h-2.419c-0.382,0-0.691,0.309-0.691,0.691v3.111h3.111V66.59z" fill="#C3BC7B"/><g opacity="0.2"><path d="M46.35,80.26v-0.411h-1.109c-0.14,0-0.245-0.032-0.315-0.095c-0.07-0.063-0.105-0.149-0.105-0.258    c0-0.028,0.005-0.056,0.015-0.085c0.01-0.029,0.026-0.059,0.046-0.091s0.042-0.062,0.064-0.092s0.049-0.066,0.082-0.108    l1.171-1.566c0.077-0.103,0.14-0.178,0.189-0.224c0.049-0.046,0.109-0.07,0.178-0.07c0.224,0,0.336,0.128,0.336,0.384v1.71h0.095    c0.113,0,0.204,0.015,0.273,0.046s0.103,0.099,0.103,0.203c0,0.085-0.028,0.148-0.084,0.187c-0.056,0.039-0.14,0.059-0.252,0.059    h-0.135v0.411c0,0.113-0.025,0.198-0.075,0.253c-0.05,0.055-0.117,0.083-0.201,0.083c-0.082,0-0.149-0.028-0.2-0.085    S46.35,80.371,46.35,80.26z M45.4,79.354h0.95v-1.284L45.4,79.354z" fill="#020507"/><path d="M48.464,80.019h1.153c0.115,0,0.203,0.024,0.263,0.071c0.06,0.047,0.091,0.111,0.091,0.192    c0,0.072-0.024,0.133-0.072,0.183c-0.048,0.05-0.12,0.075-0.218,0.075h-1.626c-0.11,0-0.197-0.031-0.258-0.092    s-0.093-0.133-0.093-0.215c0-0.053,0.02-0.123,0.06-0.211s0.083-0.156,0.13-0.207c0.196-0.203,0.373-0.377,0.53-0.522    c0.158-0.145,0.27-0.24,0.338-0.286c0.121-0.085,0.221-0.171,0.302-0.257c0.08-0.086,0.141-0.175,0.183-0.265    c0.042-0.091,0.063-0.179,0.063-0.266c0-0.094-0.022-0.179-0.067-0.253c-0.045-0.074-0.106-0.132-0.183-0.173    s-0.162-0.062-0.253-0.062c-0.193,0-0.345,0.085-0.455,0.254c-0.015,0.022-0.039,0.082-0.074,0.181    c-0.035,0.099-0.074,0.175-0.117,0.228c-0.043,0.053-0.107,0.08-0.191,0.08c-0.074,0-0.135-0.024-0.183-0.073    c-0.049-0.049-0.073-0.115-0.073-0.199c0-0.102,0.023-0.208,0.068-0.318c0.046-0.11,0.114-0.211,0.204-0.3    s0.205-0.162,0.345-0.218c0.139-0.055,0.302-0.083,0.489-0.083c0.225,0,0.418,0.035,0.577,0.106    c0.103,0.047,0.194,0.112,0.272,0.194c0.078,0.082,0.139,0.178,0.182,0.286s0.065,0.221,0.065,0.337    c0,0.183-0.045,0.349-0.136,0.498c-0.091,0.149-0.183,0.267-0.277,0.351s-0.252,0.218-0.474,0.399    c-0.222,0.181-0.374,0.322-0.456,0.422C48.537,79.915,48.501,79.963,48.464,80.019z" fill="#020507"/><path d="M50.848,77.333h1.471c0.141,0,0.244,0.022,0.307,0.066c0.063,0.044,0.095,0.117,0.095,0.219    c0,0.062-0.037,0.144-0.112,0.245s-0.159,0.214-0.254,0.337s-0.193,0.276-0.294,0.458c-0.101,0.183-0.193,0.406-0.277,0.669    c-0.035,0.116-0.06,0.213-0.075,0.289c-0.015,0.077-0.031,0.176-0.049,0.298c-0.018,0.122-0.033,0.216-0.046,0.281    c-0.031,0.15-0.075,0.254-0.131,0.313s-0.132,0.087-0.226,0.087c-0.09,0-0.162-0.031-0.216-0.094    c-0.054-0.063-0.082-0.155-0.082-0.277c0-0.094,0.02-0.222,0.06-0.384c0.04-0.162,0.105-0.356,0.194-0.582    c0.09-0.226,0.202-0.458,0.337-0.696c0.135-0.238,0.295-0.475,0.48-0.71h-1.182c-0.124,0-0.216-0.022-0.277-0.067    c-0.061-0.045-0.092-0.115-0.092-0.211c0-0.102,0.032-0.167,0.097-0.197C50.641,77.348,50.732,77.333,50.848,77.333z" fill="#020507"/><path d="M54.926,77.848h-1.049l-0.126,0.716c0.209-0.112,0.402-0.168,0.579-0.168c0.141,0,0.274,0.027,0.397,0.08    c0.123,0.053,0.231,0.126,0.324,0.22s0.166,0.204,0.219,0.332c0.053,0.128,0.08,0.266,0.08,0.413c0,0.214-0.048,0.408-0.144,0.583    c-0.096,0.175-0.234,0.314-0.414,0.418c-0.18,0.103-0.388,0.155-0.624,0.155c-0.264,0-0.478-0.049-0.642-0.146    c-0.164-0.097-0.281-0.209-0.349-0.335c-0.068-0.126-0.103-0.236-0.103-0.33c0-0.057,0.024-0.112,0.072-0.163    c0.048-0.052,0.108-0.077,0.18-0.077c0.124,0,0.216,0.071,0.276,0.214c0.059,0.131,0.138,0.233,0.239,0.306    c0.1,0.073,0.212,0.109,0.336,0.109c0.113,0,0.213-0.029,0.298-0.088c0.085-0.059,0.151-0.14,0.198-0.243    c0.046-0.103,0.07-0.22,0.07-0.351c0-0.141-0.025-0.262-0.075-0.362s-0.117-0.175-0.201-0.224    c-0.084-0.049-0.177-0.074-0.281-0.074c-0.127,0-0.217,0.015-0.272,0.046s-0.133,0.085-0.235,0.162    c-0.102,0.077-0.187,0.116-0.253,0.116c-0.072,0-0.136-0.026-0.192-0.078s-0.084-0.112-0.084-0.178    c0-0.007,0.008-0.057,0.024-0.15l0.186-1.058c0.021-0.127,0.059-0.219,0.115-0.276c0.056-0.057,0.147-0.086,0.274-0.086h1.166    c0.23,0,0.345,0.088,0.345,0.263c0,0.077-0.028,0.138-0.084,0.186C55.118,77.824,55.035,77.848,54.926,77.848z" fill="#020507"/><path d="M59.022,78.586c0.135,0,0.252-0.04,0.35-0.119c0.098-0.08,0.147-0.194,0.147-0.342    c0-0.113-0.039-0.211-0.117-0.293c-0.078-0.082-0.183-0.123-0.316-0.123c-0.09,0-0.164,0.013-0.222,0.038    c-0.058,0.025-0.104,0.058-0.138,0.099c-0.034,0.041-0.066,0.094-0.096,0.159s-0.058,0.126-0.083,0.183    c-0.015,0.031-0.041,0.055-0.08,0.073c-0.038,0.018-0.082,0.027-0.133,0.027c-0.059,0-0.113-0.024-0.162-0.072    s-0.074-0.112-0.074-0.191c0-0.077,0.023-0.157,0.07-0.242c0.046-0.085,0.114-0.165,0.203-0.242s0.2-0.138,0.332-0.184    c0.133-0.046,0.281-0.07,0.444-0.07c0.143,0,0.273,0.02,0.391,0.059c0.118,0.039,0.22,0.095,0.307,0.169    c0.087,0.074,0.152,0.159,0.197,0.256c0.044,0.097,0.066,0.202,0.066,0.314c0,0.147-0.032,0.274-0.096,0.379    c-0.064,0.105-0.156,0.208-0.275,0.308c0.115,0.062,0.212,0.133,0.291,0.212s0.138,0.168,0.178,0.264    c0.04,0.096,0.06,0.201,0.06,0.313c0,0.134-0.027,0.264-0.081,0.389c-0.054,0.125-0.133,0.237-0.237,0.335    s-0.229,0.175-0.372,0.23c-0.144,0.055-0.302,0.083-0.476,0.083c-0.177,0-0.335-0.032-0.475-0.095    c-0.14-0.063-0.255-0.142-0.346-0.237s-0.159-0.193-0.205-0.295c-0.046-0.102-0.07-0.186-0.07-0.252    c0-0.085,0.028-0.154,0.083-0.207s0.124-0.078,0.207-0.078c0.041,0,0.081,0.012,0.119,0.036c0.038,0.024,0.063,0.053,0.075,0.087    c0.077,0.205,0.159,0.357,0.246,0.456c0.088,0.099,0.211,0.149,0.37,0.149c0.091,0,0.179-0.022,0.264-0.067s0.155-0.112,0.21-0.2    c0.055-0.088,0.083-0.191,0.083-0.307c0-0.172-0.047-0.307-0.141-0.405c-0.094-0.098-0.225-0.147-0.393-0.147    c-0.029,0-0.075,0.003-0.137,0.009s-0.102,0.009-0.119,0.009c-0.081,0-0.144-0.02-0.188-0.061    c-0.044-0.04-0.066-0.097-0.066-0.169c0-0.071,0.027-0.128,0.08-0.171c0.053-0.043,0.132-0.065,0.236-0.065H59.022z" fill="#020507"/><path d="M61.748,80.238v-2.01c-0.374,0.287-0.626,0.431-0.756,0.431c-0.062,0-0.117-0.025-0.165-0.074    c-0.048-0.049-0.072-0.106-0.072-0.171c0-0.075,0.024-0.13,0.071-0.166c0.047-0.035,0.13-0.081,0.25-0.137    c0.178-0.084,0.321-0.172,0.427-0.265c0.107-0.093,0.201-0.197,0.284-0.311c0.082-0.115,0.136-0.186,0.161-0.212    c0.025-0.027,0.072-0.04,0.141-0.04c0.078,0,0.141,0.03,0.188,0.091c0.047,0.06,0.071,0.144,0.071,0.25v2.529    c0,0.296-0.101,0.444-0.303,0.444c-0.09,0-0.162-0.03-0.216-0.091C61.775,80.445,61.748,80.356,61.748,80.238z" fill="#020507"/><path d="M65.254,77.848h-1.049l-0.126,0.716c0.209-0.112,0.402-0.168,0.579-0.168c0.141,0,0.274,0.027,0.397,0.08    c0.123,0.053,0.231,0.126,0.324,0.22c0.093,0.094,0.166,0.204,0.219,0.332c0.053,0.128,0.08,0.266,0.08,0.413    c0,0.214-0.048,0.408-0.144,0.583c-0.096,0.175-0.234,0.314-0.414,0.418c-0.18,0.103-0.388,0.155-0.624,0.155    c-0.264,0-0.478-0.049-0.642-0.146c-0.164-0.097-0.281-0.209-0.349-0.335c-0.068-0.126-0.103-0.236-0.103-0.33    c0-0.057,0.024-0.112,0.072-0.163c0.048-0.052,0.108-0.077,0.18-0.077c0.124,0,0.216,0.071,0.276,0.214    c0.059,0.131,0.138,0.233,0.239,0.306c0.1,0.073,0.212,0.109,0.336,0.109c0.113,0,0.213-0.029,0.298-0.088    c0.085-0.059,0.151-0.14,0.198-0.243s0.07-0.22,0.07-0.351c0-0.141-0.025-0.262-0.075-0.362s-0.117-0.175-0.201-0.224    c-0.084-0.049-0.177-0.074-0.281-0.074c-0.127,0-0.217,0.015-0.272,0.046c-0.054,0.031-0.133,0.085-0.235,0.162    c-0.102,0.077-0.187,0.116-0.253,0.116c-0.072,0-0.136-0.026-0.192-0.078s-0.084-0.112-0.084-0.178    c0-0.007,0.008-0.057,0.024-0.15l0.186-1.058c0.021-0.127,0.059-0.219,0.115-0.276c0.056-0.057,0.147-0.086,0.274-0.086h1.166    c0.23,0,0.345,0.088,0.345,0.263c0,0.077-0.028,0.138-0.084,0.186C65.445,77.824,65.363,77.848,65.254,77.848z" fill="#020507"/><path d="M66.668,78.789c0.1-0.119,0.209-0.208,0.327-0.265c0.118-0.057,0.25-0.086,0.395-0.086    c0.14,0,0.269,0.026,0.388,0.078c0.119,0.052,0.222,0.127,0.311,0.223c0.089,0.096,0.158,0.21,0.207,0.341    c0.049,0.131,0.073,0.268,0.073,0.411c0,0.208-0.048,0.396-0.142,0.566c-0.095,0.169-0.228,0.302-0.398,0.397    s-0.363,0.142-0.578,0.142c-0.247,0-0.461-0.06-0.641-0.181s-0.317-0.299-0.412-0.536c-0.095-0.236-0.142-0.525-0.142-0.867    c0-0.278,0.029-0.527,0.086-0.747c0.057-0.219,0.14-0.401,0.247-0.546s0.238-0.253,0.391-0.327s0.328-0.11,0.524-0.11    c0.189,0,0.355,0.037,0.498,0.11c0.144,0.074,0.252,0.165,0.325,0.274c0.073,0.109,0.109,0.214,0.109,0.314    c0,0.06-0.023,0.115-0.068,0.165s-0.104,0.074-0.175,0.074c-0.062,0-0.119-0.02-0.172-0.059c-0.053-0.039-0.092-0.093-0.117-0.162    c-0.034-0.088-0.088-0.159-0.161-0.213s-0.159-0.081-0.256-0.081c-0.078,0-0.156,0.022-0.233,0.067    c-0.077,0.045-0.142,0.106-0.196,0.182C66.75,78.11,66.687,78.388,66.668,78.789z M67.264,80.161c0.149,0,0.272-0.061,0.369-0.182    c0.097-0.122,0.146-0.281,0.146-0.478c0-0.134-0.023-0.249-0.068-0.346s-0.108-0.17-0.188-0.221s-0.167-0.076-0.263-0.076    c-0.091,0-0.179,0.024-0.262,0.073c-0.083,0.049-0.15,0.119-0.201,0.211s-0.076,0.2-0.076,0.324c0,0.199,0.052,0.365,0.155,0.497    S67.108,80.161,67.264,80.161z" fill="#020507"/><path d="M73.273,78.952c0,0.242-0.015,0.449-0.044,0.623s-0.084,0.331-0.163,0.473    c-0.1,0.174-0.23,0.308-0.389,0.402c-0.159,0.094-0.336,0.141-0.53,0.141c-0.224,0-0.425-0.063-0.602-0.19    c-0.177-0.127-0.311-0.302-0.401-0.526c-0.046-0.122-0.079-0.257-0.101-0.405s-0.032-0.308-0.032-0.48    c0-0.222,0.012-0.423,0.035-0.601c0.024-0.178,0.06-0.331,0.11-0.46c0.087-0.212,0.213-0.374,0.379-0.485    c0.166-0.111,0.363-0.167,0.593-0.167c0.152,0,0.289,0.025,0.413,0.074c0.124,0.049,0.232,0.122,0.326,0.216    s0.173,0.212,0.237,0.352C73.217,78.164,73.273,78.507,73.273,78.952z M72.668,78.908c0-0.27-0.016-0.49-0.049-0.662    s-0.087-0.301-0.163-0.389s-0.183-0.131-0.318-0.131c-0.194,0-0.33,0.098-0.405,0.294c-0.076,0.196-0.114,0.498-0.114,0.906    c0,0.277,0.016,0.504,0.049,0.68s0.087,0.31,0.163,0.401s0.18,0.136,0.311,0.136c0.135,0,0.242-0.047,0.318-0.141    c0.077-0.094,0.13-0.229,0.161-0.404C72.652,79.422,72.668,79.192,72.668,78.908z" fill="#020507"/><path d="M74.727,78.586c0.135,0,0.252-0.04,0.35-0.119s0.147-0.194,0.147-0.342c0-0.113-0.039-0.211-0.117-0.293    c-0.078-0.082-0.183-0.123-0.316-0.123c-0.09,0-0.164,0.013-0.222,0.038c-0.058,0.025-0.104,0.058-0.138,0.099    c-0.034,0.041-0.066,0.094-0.096,0.159c-0.03,0.065-0.058,0.126-0.083,0.183c-0.015,0.031-0.041,0.055-0.08,0.073    c-0.038,0.018-0.082,0.027-0.133,0.027c-0.059,0-0.113-0.024-0.162-0.072c-0.049-0.048-0.074-0.112-0.074-0.191    c0-0.077,0.023-0.157,0.07-0.242c0.046-0.085,0.114-0.165,0.203-0.242s0.2-0.138,0.332-0.184c0.133-0.046,0.281-0.07,0.444-0.07    c0.143,0,0.273,0.02,0.391,0.059c0.118,0.039,0.22,0.095,0.307,0.169c0.087,0.074,0.152,0.159,0.197,0.256    c0.044,0.097,0.066,0.202,0.066,0.314c0,0.147-0.032,0.274-0.096,0.379c-0.064,0.105-0.156,0.208-0.275,0.308    c0.115,0.062,0.212,0.133,0.291,0.212s0.138,0.168,0.178,0.264c0.04,0.096,0.06,0.201,0.06,0.313c0,0.134-0.027,0.264-0.081,0.389    c-0.054,0.125-0.133,0.237-0.237,0.335s-0.229,0.175-0.372,0.23c-0.144,0.055-0.302,0.083-0.476,0.083    c-0.177,0-0.335-0.032-0.475-0.095c-0.14-0.063-0.255-0.142-0.346-0.237c-0.091-0.095-0.159-0.193-0.205-0.295    c-0.046-0.102-0.07-0.186-0.07-0.252c0-0.085,0.028-0.154,0.083-0.207s0.124-0.078,0.207-0.078c0.041,0,0.081,0.012,0.119,0.036    c0.038,0.024,0.063,0.053,0.075,0.087c0.077,0.205,0.159,0.357,0.246,0.456s0.211,0.149,0.37,0.149    c0.091,0,0.179-0.022,0.264-0.067c0.085-0.045,0.155-0.112,0.21-0.2c0.055-0.088,0.083-0.191,0.083-0.307    c0-0.172-0.047-0.307-0.141-0.405c-0.094-0.098-0.225-0.147-0.393-0.147c-0.029,0-0.075,0.003-0.137,0.009    s-0.102,0.009-0.119,0.009c-0.081,0-0.144-0.02-0.188-0.061c-0.044-0.04-0.066-0.097-0.066-0.169c0-0.071,0.027-0.128,0.08-0.171    c0.053-0.043,0.132-0.065,0.236-0.065H74.727z" fill="#020507"/><path d="M76.881,77.333h1.471c0.141,0,0.244,0.022,0.307,0.066c0.063,0.044,0.095,0.117,0.095,0.219    c0,0.062-0.037,0.144-0.112,0.245c-0.074,0.102-0.159,0.214-0.254,0.337s-0.193,0.276-0.294,0.458    c-0.101,0.183-0.193,0.406-0.277,0.669c-0.035,0.116-0.06,0.213-0.075,0.289c-0.015,0.077-0.031,0.176-0.049,0.298    c-0.018,0.122-0.033,0.216-0.046,0.281c-0.031,0.15-0.075,0.254-0.131,0.313s-0.132,0.087-0.226,0.087    c-0.09,0-0.162-0.031-0.216-0.094c-0.054-0.063-0.082-0.155-0.082-0.277c0-0.094,0.02-0.222,0.06-0.384    c0.04-0.162,0.105-0.356,0.194-0.582c0.09-0.226,0.202-0.458,0.337-0.696s0.295-0.475,0.48-0.71h-1.182    c-0.124,0-0.216-0.022-0.277-0.067c-0.061-0.045-0.092-0.115-0.092-0.211c0-0.102,0.032-0.167,0.097-0.197    C76.674,77.348,76.764,77.333,76.881,77.333z" fill="#020507"/><path d="M79.874,80.019h1.153c0.115,0,0.203,0.024,0.263,0.071c0.06,0.047,0.091,0.111,0.091,0.192    c0,0.072-0.024,0.133-0.072,0.183c-0.048,0.05-0.12,0.075-0.218,0.075h-1.626c-0.11,0-0.197-0.031-0.258-0.092    s-0.093-0.133-0.093-0.215c0-0.053,0.02-0.123,0.06-0.211s0.083-0.156,0.13-0.207c0.196-0.203,0.373-0.377,0.53-0.522    c0.158-0.145,0.27-0.24,0.338-0.286c0.121-0.085,0.221-0.171,0.302-0.257c0.08-0.086,0.141-0.175,0.183-0.265    c0.042-0.091,0.063-0.179,0.063-0.266c0-0.094-0.022-0.179-0.067-0.253c-0.045-0.074-0.106-0.132-0.183-0.173    c-0.077-0.041-0.162-0.062-0.253-0.062c-0.193,0-0.345,0.085-0.455,0.254c-0.015,0.022-0.039,0.082-0.074,0.181    c-0.035,0.099-0.074,0.175-0.117,0.228c-0.043,0.053-0.107,0.08-0.191,0.08c-0.074,0-0.135-0.024-0.183-0.073    c-0.049-0.049-0.073-0.115-0.073-0.199c0-0.102,0.023-0.208,0.068-0.318s0.114-0.211,0.204-0.3    c0.091-0.09,0.205-0.162,0.345-0.218s0.302-0.083,0.489-0.083c0.225,0,0.418,0.035,0.577,0.106    C80.91,77.435,81,77.5,81.078,77.583c0.078,0.082,0.139,0.178,0.182,0.286s0.065,0.221,0.065,0.337    c0,0.183-0.045,0.349-0.136,0.498c-0.091,0.149-0.183,0.267-0.277,0.351c-0.094,0.085-0.252,0.218-0.474,0.399    c-0.222,0.181-0.374,0.322-0.456,0.422C79.947,79.915,79.911,79.963,79.874,80.019z" fill="#020507"/><path d="M85.91,77.848H84.86l-0.126,0.716c0.209-0.112,0.402-0.168,0.579-0.168c0.141,0,0.274,0.027,0.397,0.08    c0.123,0.053,0.231,0.126,0.324,0.22c0.093,0.094,0.166,0.204,0.219,0.332c0.053,0.128,0.08,0.266,0.08,0.413    c0,0.214-0.048,0.408-0.144,0.583c-0.096,0.175-0.234,0.314-0.414,0.418c-0.18,0.103-0.388,0.155-0.624,0.155    c-0.264,0-0.478-0.049-0.642-0.146c-0.164-0.097-0.281-0.209-0.349-0.335c-0.068-0.126-0.103-0.236-0.103-0.33    c0-0.057,0.024-0.112,0.072-0.163c0.048-0.052,0.108-0.077,0.18-0.077c0.124,0,0.216,0.071,0.276,0.214    c0.059,0.131,0.138,0.233,0.239,0.306c0.1,0.073,0.212,0.109,0.336,0.109c0.113,0,0.213-0.029,0.298-0.088    c0.085-0.059,0.151-0.14,0.198-0.243s0.07-0.22,0.07-0.351c0-0.141-0.025-0.262-0.075-0.362s-0.117-0.175-0.201-0.224    c-0.084-0.049-0.177-0.074-0.281-0.074c-0.127,0-0.217,0.015-0.272,0.046c-0.054,0.031-0.133,0.085-0.235,0.162    c-0.102,0.077-0.187,0.116-0.253,0.116c-0.072,0-0.136-0.026-0.192-0.078c-0.056-0.052-0.084-0.112-0.084-0.178    c0-0.007,0.008-0.057,0.024-0.15l0.186-1.058c0.021-0.127,0.059-0.219,0.115-0.276c0.056-0.057,0.147-0.086,0.274-0.086h1.166    c0.23,0,0.345,0.088,0.345,0.263c0,0.077-0.028,0.138-0.084,0.186C86.101,77.824,86.019,77.848,85.91,77.848z" fill="#020507"/><path d="M88.088,80.26v-0.411h-1.109c-0.14,0-0.245-0.032-0.315-0.095c-0.07-0.063-0.105-0.149-0.105-0.258    c0-0.028,0.005-0.056,0.015-0.085c0.01-0.029,0.026-0.059,0.046-0.091c0.021-0.032,0.042-0.062,0.064-0.092    c0.022-0.029,0.049-0.066,0.082-0.108l1.171-1.566c0.077-0.103,0.14-0.178,0.189-0.224c0.049-0.046,0.109-0.07,0.178-0.07    c0.224,0,0.336,0.128,0.336,0.384v1.71h0.095c0.113,0,0.204,0.015,0.273,0.046s0.103,0.099,0.103,0.203    c0,0.085-0.028,0.148-0.084,0.187c-0.056,0.039-0.14,0.059-0.252,0.059H88.64v0.411c0,0.113-0.025,0.198-0.075,0.253    c-0.05,0.055-0.117,0.083-0.201,0.083c-0.082,0-0.149-0.028-0.2-0.085S88.088,80.371,88.088,80.26z M87.138,79.354h0.95v-1.284    L87.138,79.354z" fill="#020507"/><path d="M91.035,79.089c-0.097,0.115-0.206,0.201-0.326,0.26c-0.12,0.058-0.253,0.087-0.399,0.087    c-0.138,0-0.268-0.027-0.388-0.081s-0.224-0.129-0.311-0.225s-0.155-0.209-0.202-0.338s-0.071-0.264-0.071-0.405    c0-0.152,0.027-0.296,0.08-0.432c0.053-0.136,0.129-0.254,0.228-0.355c0.099-0.1,0.216-0.178,0.352-0.234    c0.136-0.056,0.287-0.084,0.452-0.084c0.19,0,0.359,0.035,0.508,0.104s0.274,0.17,0.376,0.302s0.18,0.298,0.234,0.498    c0.054,0.2,0.082,0.427,0.082,0.68c0,0.283-0.029,0.532-0.086,0.748c-0.057,0.216-0.141,0.397-0.251,0.543    c-0.11,0.147-0.241,0.256-0.394,0.327s-0.327,0.107-0.521,0.107c-0.191,0-0.358-0.036-0.499-0.109    c-0.141-0.073-0.249-0.163-0.323-0.272c-0.074-0.108-0.11-0.212-0.11-0.313c0-0.062,0.023-0.117,0.068-0.166    c0.046-0.049,0.104-0.073,0.175-0.073c0.065,0,0.123,0.018,0.175,0.054c0.052,0.036,0.091,0.09,0.117,0.162    c0.032,0.088,0.086,0.159,0.161,0.213s0.16,0.081,0.254,0.081c0.084,0,0.163-0.021,0.239-0.064    c0.075-0.043,0.139-0.103,0.192-0.181C90.951,79.767,91.014,79.488,91.035,79.089z M90.984,78.413c0-0.1-0.014-0.193-0.041-0.277    c-0.027-0.085-0.066-0.158-0.115-0.22c-0.049-0.062-0.108-0.11-0.177-0.146c-0.068-0.035-0.143-0.053-0.224-0.053    c-0.14,0-0.258,0.06-0.356,0.18c-0.097,0.12-0.146,0.279-0.146,0.476c0,0.196,0.049,0.352,0.146,0.468    c0.097,0.116,0.22,0.175,0.369,0.175c0.091,0,0.179-0.024,0.262-0.072c0.083-0.048,0.151-0.117,0.203-0.209    C90.958,78.644,90.984,78.537,90.984,78.413z" fill="#020507"/><path d="M93.12,78.586c0.135,0,0.252-0.04,0.35-0.119s0.147-0.194,0.147-0.342c0-0.113-0.039-0.211-0.117-0.293    c-0.078-0.082-0.183-0.123-0.316-0.123c-0.09,0-0.164,0.013-0.222,0.038c-0.058,0.025-0.104,0.058-0.138,0.099    c-0.034,0.041-0.066,0.094-0.096,0.159s-0.058,0.126-0.083,0.183c-0.015,0.031-0.041,0.055-0.08,0.073    c-0.038,0.018-0.082,0.027-0.133,0.027c-0.059,0-0.113-0.024-0.162-0.072s-0.074-0.112-0.074-0.191    c0-0.077,0.023-0.157,0.07-0.242s0.114-0.165,0.203-0.242s0.2-0.138,0.332-0.184c0.133-0.046,0.281-0.07,0.444-0.07    c0.143,0,0.273,0.02,0.391,0.059c0.118,0.039,0.22,0.095,0.307,0.169s0.152,0.159,0.197,0.256    c0.044,0.097,0.066,0.202,0.066,0.314c0,0.147-0.032,0.274-0.096,0.379c-0.064,0.105-0.156,0.208-0.275,0.308    c0.115,0.062,0.212,0.133,0.291,0.212c0.079,0.08,0.138,0.168,0.178,0.264c0.04,0.096,0.06,0.201,0.06,0.313    c0,0.134-0.027,0.264-0.081,0.389c-0.054,0.125-0.133,0.237-0.237,0.335c-0.105,0.098-0.229,0.175-0.372,0.23    c-0.144,0.055-0.302,0.083-0.476,0.083c-0.177,0-0.335-0.032-0.475-0.095c-0.14-0.063-0.255-0.142-0.346-0.237    s-0.159-0.193-0.205-0.295s-0.07-0.186-0.07-0.252c0-0.085,0.028-0.154,0.083-0.207s0.124-0.078,0.207-0.078    c0.041,0,0.081,0.012,0.119,0.036c0.038,0.024,0.063,0.053,0.075,0.087c0.077,0.205,0.159,0.357,0.246,0.456    c0.088,0.099,0.211,0.149,0.37,0.149c0.091,0,0.179-0.022,0.264-0.067s0.155-0.112,0.21-0.2c0.055-0.088,0.083-0.191,0.083-0.307    c0-0.172-0.047-0.307-0.141-0.405c-0.094-0.098-0.225-0.147-0.393-0.147c-0.029,0-0.075,0.003-0.137,0.009    c-0.062,0.006-0.102,0.009-0.119,0.009c-0.081,0-0.144-0.02-0.188-0.061c-0.044-0.04-0.066-0.097-0.066-0.169    c0-0.071,0.027-0.128,0.08-0.171c0.053-0.043,0.132-0.065,0.236-0.065H93.12z" fill="#020507"/><path d="M66.298,83.94v-1.005c-0.187,0.144-0.313,0.215-0.378,0.215c-0.031,0-0.059-0.012-0.082-0.037    c-0.024-0.025-0.036-0.053-0.036-0.086c0-0.038,0.012-0.065,0.035-0.083c0.024-0.018,0.065-0.04,0.125-0.068    c0.089-0.042,0.16-0.086,0.214-0.133c0.053-0.046,0.101-0.098,0.142-0.156c0.041-0.057,0.068-0.093,0.081-0.106    c0.013-0.013,0.036-0.02,0.071-0.02c0.039,0,0.07,0.015,0.094,0.045c0.024,0.03,0.035,0.072,0.035,0.125v1.265    c0,0.148-0.05,0.222-0.151,0.222c-0.045,0-0.081-0.015-0.108-0.045C66.312,84.043,66.298,83.999,66.298,83.94z" fill="#020507"/><path d="M67.642,83.94v-1.005c-0.187,0.144-0.313,0.215-0.378,0.215c-0.031,0-0.059-0.012-0.082-0.037    c-0.024-0.025-0.036-0.053-0.036-0.086c0-0.038,0.012-0.065,0.035-0.083c0.024-0.018,0.065-0.04,0.125-0.068    c0.089-0.042,0.16-0.086,0.214-0.133c0.053-0.046,0.101-0.098,0.142-0.156c0.041-0.057,0.068-0.093,0.081-0.106    c0.013-0.013,0.036-0.02,0.071-0.02c0.039,0,0.07,0.015,0.094,0.045c0.024,0.03,0.035,0.072,0.035,0.125v1.265    c0,0.148-0.05,0.222-0.151,0.222c-0.045,0-0.081-0.015-0.108-0.045C67.656,84.043,67.642,83.999,67.642,83.94z" fill="#020507"/><path d="M68.931,82.668l-0.309,1.274c-0.01,0.042-0.019,0.075-0.027,0.099c-0.007,0.024-0.02,0.043-0.035,0.057    c-0.016,0.013-0.039,0.02-0.069,0.02c-0.075,0-0.113-0.032-0.113-0.097c0-0.017,0.007-0.059,0.022-0.127l0.308-1.274    c0.016-0.068,0.032-0.114,0.046-0.139c0.015-0.025,0.043-0.038,0.086-0.038c0.037,0,0.065,0.009,0.085,0.027    c0.019,0.018,0.029,0.042,0.029,0.073C68.955,82.566,68.947,82.608,68.931,82.668z" fill="#020507"/><path d="M69.488,83.83h0.577c0.057,0,0.101,0.012,0.131,0.035s0.045,0.056,0.045,0.096    c0,0.036-0.012,0.067-0.036,0.092c-0.024,0.025-0.06,0.038-0.109,0.038h-0.813c-0.055,0-0.098-0.015-0.129-0.046    c-0.031-0.031-0.046-0.067-0.046-0.108c0-0.027,0.01-0.061,0.03-0.106c0.02-0.043,0.042-0.078,0.065-0.103    c0.098-0.102,0.186-0.189,0.265-0.261c0.079-0.072,0.135-0.12,0.169-0.143c0.06-0.043,0.11-0.085,0.151-0.129    c0.04-0.043,0.071-0.087,0.091-0.133c0.021-0.045,0.032-0.089,0.032-0.133c0-0.047-0.011-0.089-0.034-0.126    s-0.053-0.066-0.091-0.087c-0.039-0.021-0.081-0.031-0.127-0.031c-0.096,0-0.172,0.042-0.228,0.127    c-0.007,0.011-0.02,0.041-0.037,0.091c-0.018,0.049-0.037,0.087-0.059,0.114c-0.022,0.027-0.053,0.04-0.095,0.04    c-0.037,0-0.067-0.012-0.092-0.036s-0.036-0.057-0.036-0.099c0-0.051,0.011-0.104,0.034-0.159s0.057-0.105,0.102-0.15    c0.045-0.045,0.102-0.081,0.172-0.109c0.069-0.028,0.151-0.042,0.244-0.042c0.113,0,0.209,0.018,0.288,0.053    c0.052,0.024,0.097,0.056,0.136,0.097c0.039,0.041,0.069,0.089,0.091,0.143c0.021,0.054,0.032,0.11,0.032,0.168    c0,0.091-0.023,0.175-0.068,0.249c-0.046,0.075-0.092,0.133-0.139,0.175c-0.047,0.043-0.126,0.109-0.237,0.2    c-0.111,0.091-0.187,0.161-0.228,0.211C69.525,83.779,69.507,83.802,69.488,83.83z" fill="#020507"/><path d="M71.565,83.297c0,0.121-0.007,0.225-0.022,0.311s-0.042,0.166-0.082,0.236    c-0.05,0.087-0.115,0.154-0.194,0.201s-0.168,0.071-0.265,0.071c-0.112,0-0.212-0.032-0.301-0.095s-0.155-0.151-0.2-0.263    c-0.023-0.061-0.04-0.129-0.05-0.203c-0.011-0.074-0.016-0.154-0.016-0.24c0-0.111,0.006-0.211,0.018-0.3    c0.012-0.089,0.03-0.166,0.055-0.23c0.043-0.106,0.107-0.187,0.189-0.242c0.083-0.056,0.182-0.084,0.297-0.084    c0.076,0,0.145,0.013,0.207,0.037c0.062,0.025,0.116,0.06,0.163,0.108c0.046,0.047,0.086,0.106,0.119,0.176    C71.537,82.903,71.565,83.075,71.565,83.297z M71.262,83.275c0-0.135-0.008-0.245-0.024-0.331    c-0.016-0.085-0.043-0.15-0.082-0.194c-0.038-0.043-0.091-0.066-0.159-0.066c-0.097,0-0.165,0.049-0.203,0.147    c-0.038,0.098-0.057,0.249-0.057,0.453c0,0.138,0.008,0.252,0.024,0.34c0.016,0.088,0.043,0.155,0.082,0.201    c0.038,0.045,0.09,0.068,0.156,0.068c0.068,0,0.121-0.024,0.159-0.071c0.038-0.047,0.065-0.115,0.081-0.202    C71.254,83.532,71.262,83.417,71.262,83.275z" fill="#020507"/><path d="M46.292,86.448H45.43V87h0.72c0.067,0,0.117,0.015,0.149,0.045c0.033,0.03,0.049,0.07,0.049,0.12    c0,0.05-0.017,0.09-0.05,0.119c-0.034,0.029-0.083,0.044-0.149,0.044h-0.72v0.711c0,0.09-0.02,0.157-0.061,0.201    c-0.041,0.044-0.093,0.066-0.157,0.066c-0.065,0-0.117-0.022-0.158-0.066s-0.061-0.111-0.061-0.2v-1.661    c0-0.063,0.009-0.114,0.028-0.154c0.019-0.04,0.048-0.069,0.088-0.087c0.04-0.018,0.091-0.027,0.152-0.027h1.031    c0.07,0,0.122,0.015,0.155,0.046s0.051,0.071,0.051,0.122c0,0.051-0.017,0.092-0.051,0.123    C46.413,86.432,46.362,86.448,46.292,86.448z" fill="#020507"/><path d="M46.841,88.04v-1.701c0-0.088,0.02-0.155,0.06-0.199c0.04-0.044,0.092-0.066,0.156-0.066    c0.066,0,0.119,0.022,0.16,0.066c0.041,0.044,0.061,0.11,0.061,0.2v1.701c0,0.089-0.02,0.156-0.061,0.2    c-0.041,0.044-0.094,0.066-0.16,0.066c-0.063,0-0.115-0.022-0.155-0.067C46.862,88.195,46.841,88.128,46.841,88.04z" fill="#020507"/><path d="M48.355,87.346h-0.153v0.694c0,0.091-0.02,0.159-0.06,0.202c-0.04,0.043-0.093,0.065-0.158,0.065    c-0.07,0-0.124-0.022-0.162-0.068c-0.038-0.045-0.057-0.112-0.057-0.199v-1.661c0-0.094,0.021-0.162,0.063-0.205    s0.11-0.063,0.205-0.063h0.711c0.098,0,0.182,0.004,0.252,0.013s0.133,0.025,0.189,0.051c0.068,0.028,0.128,0.069,0.18,0.122    c0.052,0.053,0.092,0.115,0.119,0.185c0.027,0.07,0.041,0.145,0.041,0.223c0,0.161-0.045,0.29-0.136,0.386    c-0.091,0.096-0.229,0.165-0.413,0.205c0.078,0.041,0.152,0.102,0.222,0.183s0.134,0.166,0.189,0.257    c0.056,0.091,0.099,0.173,0.13,0.246c0.031,0.073,0.046,0.123,0.046,0.151c0,0.028-0.009,0.057-0.027,0.085    c-0.018,0.028-0.043,0.05-0.074,0.066c-0.031,0.016-0.068,0.024-0.109,0.024c-0.049,0-0.09-0.011-0.124-0.035    c-0.034-0.023-0.062-0.052-0.086-0.088s-0.057-0.087-0.098-0.156l-0.175-0.292c-0.063-0.107-0.119-0.189-0.169-0.244    c-0.05-0.056-0.1-0.094-0.151-0.115C48.497,87.357,48.433,87.346,48.355,87.346z M48.606,86.439h-0.404v0.594h0.392    c0.105,0,0.193-0.009,0.265-0.027c0.072-0.018,0.126-0.049,0.164-0.093c0.038-0.044,0.057-0.104,0.057-0.18    c0-0.06-0.015-0.113-0.046-0.158s-0.073-0.08-0.127-0.102C48.856,86.45,48.756,86.439,48.606,86.439z" fill="#020507"/><path d="M51.578,87.622c0,0.131-0.034,0.248-0.101,0.352c-0.067,0.104-0.166,0.186-0.295,0.244    c-0.13,0.059-0.283,0.088-0.461,0.088c-0.213,0-0.389-0.04-0.527-0.121c-0.098-0.058-0.178-0.135-0.239-0.232    c-0.061-0.097-0.092-0.191-0.092-0.282c0-0.053,0.018-0.098,0.055-0.136c0.037-0.038,0.084-0.057,0.141-0.057    c0.046,0,0.085,0.015,0.117,0.044c0.032,0.029,0.059,0.073,0.082,0.131c0.028,0.069,0.057,0.126,0.089,0.172    c0.032,0.046,0.077,0.084,0.135,0.114c0.058,0.03,0.134,0.045,0.228,0.045c0.13,0,0.235-0.03,0.316-0.091    c0.081-0.06,0.122-0.136,0.122-0.226c0-0.072-0.022-0.13-0.066-0.175c-0.044-0.045-0.1-0.079-0.169-0.102    s-0.162-0.049-0.278-0.075c-0.155-0.036-0.285-0.079-0.39-0.127s-0.187-0.115-0.249-0.199c-0.061-0.084-0.092-0.188-0.092-0.313    c0-0.119,0.032-0.224,0.097-0.317c0.065-0.092,0.159-0.163,0.281-0.213s0.267-0.074,0.433-0.074c0.133,0,0.247,0.017,0.344,0.049    s0.177,0.077,0.241,0.131c0.064,0.054,0.11,0.112,0.14,0.172c0.029,0.06,0.044,0.118,0.044,0.175c0,0.052-0.018,0.099-0.055,0.141    c-0.037,0.042-0.083,0.063-0.138,0.063c-0.05,0-0.088-0.013-0.114-0.038c-0.026-0.025-0.054-0.066-0.085-0.123    c-0.039-0.081-0.087-0.145-0.141-0.191c-0.055-0.046-0.143-0.068-0.265-0.068c-0.113,0-0.204,0.025-0.273,0.074    s-0.104,0.109-0.104,0.179c0,0.043,0.012,0.081,0.035,0.112c0.024,0.031,0.056,0.059,0.097,0.081    c0.041,0.022,0.083,0.04,0.125,0.053c0.042,0.013,0.112,0.031,0.209,0.056c0.122,0.028,0.232,0.06,0.331,0.094    c0.099,0.034,0.183,0.076,0.252,0.125c0.069,0.049,0.123,0.111,0.162,0.186C51.558,87.421,51.578,87.513,51.578,87.622z" fill="#020507"/><path d="M53.351,86.472h-0.477v1.569c0,0.09-0.02,0.157-0.06,0.201c-0.04,0.044-0.092,0.066-0.156,0.066    c-0.065,0-0.117-0.022-0.158-0.066c-0.041-0.044-0.061-0.111-0.061-0.2v-1.569h-0.477c-0.075,0-0.13-0.017-0.166-0.049    c-0.036-0.033-0.054-0.076-0.054-0.13c0-0.056,0.019-0.1,0.057-0.133c0.038-0.032,0.092-0.049,0.164-0.049h1.39    c0.075,0,0.132,0.017,0.169,0.05c0.037,0.034,0.055,0.077,0.055,0.131s-0.019,0.098-0.056,0.13    C53.482,86.455,53.426,86.472,53.351,86.472z" fill="#020507"/><path d="M54.404,86.336l0.841,1.272v-1.284c0-0.084,0.018-0.146,0.054-0.188c0.036-0.042,0.084-0.063,0.145-0.063    c0.063,0,0.112,0.021,0.149,0.063c0.036,0.042,0.054,0.104,0.054,0.188v1.698c0,0.19-0.078,0.284-0.236,0.284    c-0.039,0-0.075-0.006-0.106-0.017s-0.061-0.029-0.088-0.054c-0.028-0.025-0.053-0.053-0.077-0.086s-0.047-0.067-0.071-0.101    l-0.82-1.258v1.265c0,0.082-0.019,0.145-0.057,0.187c-0.038,0.042-0.087,0.063-0.147,0.063c-0.062,0-0.112-0.021-0.149-0.064    c-0.037-0.043-0.056-0.105-0.056-0.186v-1.666c0-0.071,0.008-0.126,0.024-0.166c0.019-0.044,0.05-0.08,0.093-0.108    c0.043-0.028,0.09-0.042,0.14-0.042c0.039,0,0.073,0.006,0.101,0.019c0.028,0.013,0.053,0.03,0.074,0.052    c0.021,0.022,0.043,0.05,0.065,0.084S54.38,86.299,54.404,86.336z" fill="#020507"/><path d="M57.467,88.025l-0.103-0.271h-0.878l-0.103,0.277c-0.04,0.108-0.075,0.181-0.103,0.219    c-0.028,0.038-0.075,0.057-0.14,0.057c-0.055,0-0.103-0.02-0.146-0.06c-0.042-0.04-0.063-0.086-0.063-0.137    c0-0.029,0.005-0.06,0.015-0.091s0.026-0.075,0.049-0.131l0.552-1.402c0.016-0.04,0.035-0.089,0.057-0.145    c0.022-0.056,0.046-0.103,0.071-0.141c0.025-0.037,0.058-0.067,0.099-0.091c0.041-0.023,0.091-0.035,0.151-0.035    c0.061,0,0.112,0.011,0.152,0.035c0.041,0.023,0.074,0.053,0.099,0.089c0.025,0.036,0.046,0.075,0.063,0.117    c0.017,0.042,0.039,0.098,0.066,0.167l0.564,1.393c0.044,0.106,0.066,0.183,0.066,0.231c0,0.05-0.021,0.096-0.063,0.138    c-0.042,0.042-0.092,0.063-0.151,0.063c-0.034,0-0.064-0.006-0.088-0.018c-0.025-0.012-0.045-0.029-0.062-0.05    c-0.017-0.021-0.035-0.053-0.054-0.097S57.481,88.059,57.467,88.025z M56.601,87.426h0.645l-0.325-0.891L56.601,87.426z" fill="#020507"/><path d="M58.984,87.944l-0.346-1.376v1.49c0,0.082-0.018,0.144-0.055,0.186s-0.086,0.062-0.147,0.062    c-0.059,0-0.107-0.02-0.144-0.061c-0.037-0.041-0.056-0.103-0.056-0.186v-1.708c0-0.094,0.025-0.158,0.074-0.191    s0.115-0.049,0.199-0.049h0.135c0.081,0,0.141,0.007,0.177,0.022c0.037,0.015,0.064,0.041,0.082,0.08s0.038,0.101,0.06,0.187    l0.314,1.183l0.314-1.183c0.022-0.087,0.043-0.149,0.06-0.187s0.045-0.065,0.082-0.08c0.037-0.015,0.096-0.022,0.177-0.022h0.135    c0.084,0,0.15,0.017,0.199,0.049s0.074,0.096,0.074,0.191v1.708c0,0.082-0.018,0.144-0.055,0.186s-0.086,0.062-0.148,0.062    c-0.058,0-0.106-0.021-0.143-0.062c-0.037-0.041-0.056-0.103-0.056-0.186v-1.49l-0.346,1.376    c-0.022,0.089-0.041,0.155-0.055,0.197c-0.014,0.042-0.041,0.08-0.079,0.114s-0.091,0.052-0.159,0.052    c-0.051,0-0.094-0.011-0.13-0.033c-0.035-0.022-0.063-0.05-0.082-0.085c-0.02-0.034-0.035-0.073-0.046-0.114    S58.996,87.99,58.984,87.944z" fill="#020507"/><path d="M62.191,86.448h-0.985v0.53h0.907c0.067,0,0.117,0.015,0.149,0.045s0.049,0.07,0.049,0.119    c0,0.049-0.016,0.089-0.049,0.12s-0.082,0.046-0.15,0.046h-0.907v0.614h1.019c0.069,0,0.12,0.016,0.155,0.048    c0.035,0.032,0.052,0.074,0.052,0.127c0,0.051-0.017,0.092-0.052,0.124c-0.035,0.032-0.087,0.048-0.155,0.048h-1.189    c-0.095,0-0.164-0.021-0.205-0.063s-0.063-0.11-0.063-0.205v-1.623c0-0.063,0.009-0.114,0.028-0.154    c0.019-0.04,0.048-0.069,0.088-0.087c0.04-0.018,0.091-0.027,0.152-0.027h1.155c0.07,0,0.122,0.015,0.155,0.046    c0.034,0.031,0.051,0.071,0.051,0.122c0,0.051-0.017,0.092-0.051,0.123C62.312,86.432,62.26,86.448,62.191,86.448z" fill="#020507"/><path d="M66.979,86.339v1.571h0.887c0.071,0,0.125,0.017,0.163,0.052c0.038,0.034,0.057,0.078,0.057,0.13    c0,0.053-0.019,0.096-0.056,0.129c-0.037,0.033-0.092,0.049-0.163,0.049h-1.056c-0.095,0-0.164-0.021-0.205-0.063    c-0.042-0.042-0.063-0.11-0.063-0.205v-1.663c0-0.088,0.02-0.155,0.06-0.199s0.092-0.066,0.157-0.066    c0.066,0,0.119,0.022,0.16,0.066S66.979,86.249,66.979,86.339z" fill="#020507"/><path d="M69.714,88.025l-0.103-0.271h-0.878l-0.103,0.277c-0.04,0.108-0.075,0.181-0.103,0.219    c-0.028,0.038-0.075,0.057-0.14,0.057c-0.055,0-0.103-0.02-0.146-0.06s-0.063-0.086-0.063-0.137c0-0.029,0.005-0.06,0.015-0.091    s0.026-0.075,0.049-0.131l0.552-1.402c0.016-0.04,0.035-0.089,0.057-0.145c0.022-0.056,0.046-0.103,0.071-0.141    c0.025-0.037,0.058-0.067,0.099-0.091c0.041-0.023,0.091-0.035,0.151-0.035c0.061,0,0.112,0.011,0.152,0.035    c0.041,0.023,0.074,0.053,0.099,0.089c0.025,0.036,0.046,0.075,0.063,0.117c0.017,0.042,0.039,0.098,0.066,0.167l0.564,1.393    c0.044,0.106,0.066,0.183,0.066,0.231c0,0.05-0.021,0.096-0.063,0.138c-0.042,0.042-0.092,0.063-0.151,0.063    c-0.034,0-0.064-0.006-0.088-0.018c-0.025-0.012-0.045-0.029-0.062-0.05c-0.017-0.021-0.035-0.053-0.054-0.097    C69.744,88.097,69.727,88.059,69.714,88.025z M68.848,87.426h0.645l-0.325-0.891L68.848,87.426z" fill="#020507"/><path d="M72.142,87.622c0,0.131-0.034,0.248-0.101,0.352c-0.067,0.104-0.166,0.186-0.295,0.244    c-0.13,0.059-0.283,0.088-0.461,0.088c-0.213,0-0.389-0.04-0.527-0.121c-0.098-0.058-0.178-0.135-0.239-0.232    c-0.061-0.097-0.092-0.191-0.092-0.282c0-0.053,0.018-0.098,0.055-0.136c0.037-0.038,0.084-0.057,0.141-0.057    c0.046,0,0.085,0.015,0.117,0.044c0.032,0.029,0.059,0.073,0.082,0.131c0.028,0.069,0.057,0.126,0.089,0.172    c0.032,0.046,0.077,0.084,0.135,0.114c0.058,0.03,0.134,0.045,0.228,0.045c0.13,0,0.235-0.03,0.316-0.091s0.122-0.136,0.122-0.226    c0-0.072-0.022-0.13-0.066-0.175c-0.044-0.045-0.1-0.079-0.169-0.102s-0.162-0.049-0.278-0.075    c-0.155-0.036-0.285-0.079-0.39-0.127c-0.105-0.049-0.187-0.115-0.249-0.199c-0.061-0.084-0.092-0.188-0.092-0.313    c0-0.119,0.032-0.224,0.097-0.317c0.065-0.092,0.159-0.163,0.281-0.213s0.267-0.074,0.433-0.074c0.133,0,0.247,0.017,0.344,0.049    c0.097,0.033,0.177,0.077,0.241,0.131c0.064,0.054,0.11,0.112,0.14,0.172c0.029,0.06,0.044,0.118,0.044,0.175    c0,0.052-0.018,0.099-0.055,0.141c-0.037,0.042-0.083,0.063-0.138,0.063c-0.05,0-0.088-0.013-0.114-0.038    c-0.026-0.025-0.054-0.066-0.085-0.123c-0.039-0.081-0.087-0.145-0.141-0.191s-0.143-0.068-0.265-0.068    c-0.113,0-0.204,0.025-0.273,0.074s-0.104,0.109-0.104,0.179c0,0.043,0.012,0.081,0.035,0.112    c0.024,0.031,0.056,0.059,0.097,0.081c0.041,0.022,0.083,0.04,0.125,0.053s0.112,0.031,0.209,0.056    c0.122,0.028,0.232,0.06,0.331,0.094s0.183,0.076,0.252,0.125c0.069,0.049,0.123,0.111,0.162,0.186S72.142,87.513,72.142,87.622z" fill="#020507"/><path d="M73.915,86.472h-0.477v1.569c0,0.09-0.02,0.157-0.06,0.201c-0.04,0.044-0.092,0.066-0.156,0.066    c-0.065,0-0.117-0.022-0.158-0.066s-0.061-0.111-0.061-0.2v-1.569h-0.477c-0.075,0-0.13-0.017-0.166-0.049    s-0.054-0.076-0.054-0.13c0-0.056,0.019-0.1,0.057-0.133c0.038-0.032,0.092-0.049,0.164-0.049h1.39    c0.075,0,0.132,0.017,0.169,0.05c0.037,0.034,0.055,0.077,0.055,0.131s-0.019,0.098-0.056,0.13S73.99,86.472,73.915,86.472z" fill="#020507"/><path d="M74.968,86.336l0.841,1.272v-1.284c0-0.084,0.018-0.146,0.054-0.188c0.036-0.042,0.084-0.063,0.145-0.063    c0.063,0,0.112,0.021,0.149,0.063c0.036,0.042,0.054,0.104,0.054,0.188v1.698c0,0.19-0.078,0.284-0.236,0.284    c-0.039,0-0.075-0.006-0.106-0.017c-0.031-0.011-0.061-0.029-0.088-0.054c-0.028-0.025-0.053-0.053-0.077-0.086    s-0.047-0.067-0.071-0.101l-0.82-1.258v1.265c0,0.082-0.019,0.145-0.057,0.187s-0.087,0.063-0.147,0.063    c-0.062,0-0.112-0.021-0.149-0.064c-0.037-0.043-0.056-0.105-0.056-0.186v-1.666c0-0.071,0.008-0.126,0.024-0.166    c0.019-0.044,0.05-0.08,0.093-0.108c0.043-0.028,0.09-0.042,0.14-0.042c0.039,0,0.073,0.006,0.101,0.019    c0.028,0.013,0.053,0.03,0.074,0.052s0.043,0.05,0.065,0.084C74.922,86.263,74.945,86.299,74.968,86.336z" fill="#020507"/><path d="M78.032,88.025l-0.103-0.271h-0.878l-0.103,0.277c-0.04,0.108-0.075,0.181-0.103,0.219    c-0.028,0.038-0.075,0.057-0.14,0.057c-0.055,0-0.103-0.02-0.146-0.06s-0.063-0.086-0.063-0.137c0-0.029,0.005-0.06,0.015-0.091    s0.026-0.075,0.049-0.131l0.552-1.402c0.016-0.04,0.035-0.089,0.057-0.145c0.022-0.056,0.046-0.103,0.071-0.141    c0.025-0.037,0.058-0.067,0.099-0.091c0.041-0.023,0.091-0.035,0.151-0.035c0.061,0,0.112,0.011,0.152,0.035    c0.041,0.023,0.074,0.053,0.099,0.089c0.025,0.036,0.046,0.075,0.063,0.117c0.017,0.042,0.039,0.098,0.066,0.167l0.564,1.393    c0.044,0.106,0.066,0.183,0.066,0.231c0,0.05-0.021,0.096-0.063,0.138c-0.042,0.042-0.092,0.063-0.151,0.063    c-0.034,0-0.064-0.006-0.088-0.018c-0.025-0.012-0.045-0.029-0.062-0.05c-0.017-0.021-0.035-0.053-0.054-0.097    C78.062,88.097,78.045,88.059,78.032,88.025z M77.166,87.426h0.645l-0.325-0.891L77.166,87.426z" fill="#020507"/><path d="M79.549,87.944l-0.346-1.376v1.49c0,0.082-0.018,0.144-0.055,0.186s-0.086,0.062-0.147,0.062    c-0.059,0-0.107-0.02-0.144-0.061c-0.037-0.041-0.056-0.103-0.056-0.186v-1.708c0-0.094,0.025-0.158,0.074-0.191    c0.049-0.033,0.115-0.049,0.199-0.049h0.135c0.081,0,0.141,0.007,0.177,0.022c0.037,0.015,0.064,0.041,0.082,0.08    c0.018,0.038,0.038,0.101,0.06,0.187l0.314,1.183l0.314-1.183c0.022-0.087,0.043-0.149,0.06-0.187    c0.018-0.038,0.045-0.065,0.082-0.08c0.037-0.015,0.096-0.022,0.177-0.022h0.135c0.084,0,0.15,0.017,0.199,0.049    c0.049,0.033,0.074,0.096,0.074,0.191v1.708c0,0.082-0.018,0.144-0.055,0.186s-0.086,0.062-0.148,0.062    c-0.058,0-0.106-0.021-0.143-0.062c-0.037-0.041-0.056-0.103-0.056-0.186v-1.49l-0.346,1.376    c-0.022,0.089-0.041,0.155-0.055,0.197c-0.014,0.042-0.04,0.08-0.079,0.114s-0.091,0.052-0.159,0.052    c-0.051,0-0.094-0.011-0.13-0.033c-0.035-0.022-0.063-0.05-0.082-0.085c-0.02-0.034-0.035-0.073-0.046-0.114    S79.561,87.99,79.549,87.944z" fill="#020507"/><path d="M82.755,86.448H81.77v0.53h0.907c0.067,0,0.117,0.015,0.149,0.045s0.049,0.07,0.049,0.119    c0,0.049-0.016,0.089-0.049,0.12c-0.032,0.031-0.082,0.046-0.15,0.046H81.77v0.614h1.019c0.069,0,0.12,0.016,0.155,0.048    s0.052,0.074,0.052,0.127c0,0.051-0.017,0.092-0.052,0.124s-0.087,0.048-0.155,0.048H81.6c-0.095,0-0.164-0.021-0.205-0.063    s-0.063-0.11-0.063-0.205v-1.623c0-0.063,0.009-0.114,0.028-0.154c0.019-0.04,0.048-0.069,0.088-0.087    c0.04-0.018,0.091-0.027,0.152-0.027h1.155c0.07,0,0.122,0.015,0.155,0.046s0.051,0.071,0.051,0.122    c0,0.051-0.017,0.092-0.051,0.123C82.876,86.432,82.825,86.448,82.755,86.448z" fill="#020507"/></g><path d="M84.6,62.909c0-3.266,2.648-5.914,5.914-5.914c3.267,0,5.914,2.648,5.914,5.914   c0,3.266-2.647,5.914-5.914,5.914C87.248,68.823,84.6,66.175,84.6,62.909L84.6,62.909z" fill="#F5CA41"/><path d="M86.553,58.507c0.003,0-0.31,0.27-0.519,0.535h1.052c0,0,0.36,0.389,0.493,0.682h-2.057   c0,0-0.199,0.313-0.332,0.578h2.72c0,0,0.249,0.465,0.303,0.711h-3.307c0,0-0.114,0.322-0.161,0.559l3.621-0.005   c0.099,0.455,0.341,1.777-0.157,3.237l-3.289,0.004c0.052,0.175,0.142,0.412,0.228,0.587h2.825   c-0.114,0.237-0.28,0.536-0.375,0.686l-2.071,0.001c0.109,0.166,0.284,0.426,0.398,0.545l1.275-0.001   c-0.239,0.33-0.645,0.673-0.645,0.673h-0.01l0.013,0.004c-1.047,0.943-2.435,1.517-3.955,1.517c-3.266,0-5.914-2.648-5.914-5.914   c0-3.266,2.647-5.914,5.914-5.914C84.122,56.995,85.506,57.567,86.553,58.507L86.553,58.507z" fill="#C45C45"/><path d="M83.75,61.984l-0.095,0.532l-0.519-0.013c0,0-0.259,0.068-0.259,0.177c0,0.109,0.191,0.246,0.478,0.368   c0.287,0.123,0.3,0.464,0.273,0.696c-0.027,0.232-0.068,0.713-0.901,0.737C82.249,64.495,81.99,64.4,81.99,64.4l0.109-0.546   c0,0,0.614,0.164,0.751,0.068c0.136-0.095,0.3-0.259,0.041-0.368c-0.259-0.109-0.682-0.287-0.682-0.723   c0-0.437,0.177-0.682,0.451-0.806C82.931,61.903,83.409,61.916,83.75,61.984L83.75,61.984z" fill="#FEFFFF"/><polygon fill="#FEFFFF" points="79.65,64.419 79.047,64.419 79.398,62.345 78.652,64.406 78.236,64.406 78.135,62.263    77.771,64.419 77.2,64.419 77.738,61.254 78.43,61.254 78.672,63.076 79.477,61.254 80.188,61.254 79.65,64.419  "/><path d="M84.289,64.463c-0.196,0-0.337-0.044-0.421-0.127c-0.085-0.089-0.127-0.222-0.127-0.393   c0-0.045,0.005-0.089,0.01-0.127c0.005-0.044,0.014-0.094,0.019-0.152l0.363-2.025h0.566l-0.082,0.395h0.528l-0.089,0.501h-0.528   l-0.145,0.863c-0.009,0.056-0.019,0.113-0.028,0.177c-0.009,0.057-0.014,0.115-0.014,0.153c0,0.089,0.014,0.146,0.051,0.178   c0.033,0.031,0.089,0.051,0.164,0.051c0.028,0,0.065-0.007,0.112-0.019c0.047-0.019,0.089-0.031,0.117-0.051h0.047l-0.089,0.508   c-0.065,0.025-0.131,0.038-0.201,0.05C84.471,64.457,84.387,64.463,84.289,64.463L84.289,64.463z" fill="#FEFFFF"/><path d="M88.348,62.701c-0.124-0.095-0.399-0.076-0.456,0.12l-0.271,1.598h-0.565l0.407-2.385h0.565l-0.012,0.192   c0.108-0.108,0.227-0.199,0.53-0.19C88.565,62.038,88.363,62.391,88.348,62.701L88.348,62.701z" fill="#FEFFFF"/><path d="M89.416,64.483c-0.314,0-0.562-0.108-0.729-0.318c-0.173-0.209-0.258-0.513-0.258-0.907   c0-0.311,0.038-0.59,0.112-0.844c0.075-0.254,0.183-0.469,0.313-0.653c0.131-0.177,0.286-0.317,0.469-0.418   c0.176-0.102,0.369-0.153,0.57-0.153c0.159,0,0.309,0.025,0.449,0.07c0.068,0.023,0.198,0.085,0.198,0.085l-0.131,0.752   c-0.065-0.083-0.131-0.149-0.198-0.196c-0.098-0.063-0.215-0.102-0.346-0.102c-0.234,0-0.425,0.127-0.575,0.381   c-0.154,0.254-0.229,0.578-0.229,0.97c0,0.254,0.042,0.438,0.127,0.552c0.084,0.108,0.206,0.165,0.365,0.165   c0.144,0,0.28-0.039,0.407-0.114c0.06-0.04,0.118-0.081,0.176-0.128l-0.132,0.718c0,0-0.068,0.033-0.101,0.045   c-0.079,0.031-0.149,0.05-0.21,0.069C89.627,64.469,89.534,64.483,89.416,64.483L89.416,64.483z" fill="#FEFFFF"/><path d="M81.042,64.336c-0.023,0.019-0.047,0.032-0.065,0.045c-0.061,0.032-0.112,0.057-0.164,0.076   c-0.051,0.012-0.122,0.026-0.215,0.026c-0.145,0-0.267-0.057-0.355-0.165c-0.094-0.115-0.14-0.26-0.14-0.437   c0-0.19,0.033-0.349,0.098-0.482c0.065-0.128,0.163-0.236,0.294-0.311c0.121-0.076,0.267-0.127,0.43-0.158l0.117-0.019   c0.136-0.025,0.276-0.044,0.43-0.051c0-0.012,0-0.025,0.005-0.044c0.005-0.019,0.005-0.038,0.005-0.063   c0-0.101-0.033-0.171-0.103-0.216c-0.07-0.038-0.173-0.057-0.309-0.057h-0.028c-0.084,0.006-0.178,0.025-0.28,0.063   c-0.112,0.045-0.197,0.076-0.253,0.108h-0.051l0.084-0.564c0.065-0.025,0.168-0.051,0.304-0.076   c0.065-0.019,0.131-0.025,0.196-0.032c0.07-0.013,0.145-0.013,0.215-0.013c0.276,0,0.477,0.051,0.608,0.146   c0.131,0.095,0.192,0.248,0.192,0.457c0,0.026,0,0.063-0.005,0.108c-0.005,0.045-0.01,0.083-0.014,0.12l-0.275,1.623h-0.562   l0.042-0.254c-0.033,0.032-0.08,0.07-0.126,0.115C81.089,64.298,81.066,64.318,81.042,64.336L81.042,64.336z M81.042,63.347   c-0.061,0.013-0.112,0.031-0.154,0.051c-0.065,0.031-0.112,0.075-0.145,0.133c-0.037,0.057-0.052,0.133-0.052,0.228   c0,0.083,0.023,0.139,0.065,0.171c0.047,0.031,0.108,0.051,0.196,0.051c0.028,0,0.056-0.006,0.089-0.019   c0.028-0.006,0.056-0.019,0.089-0.031c0.061-0.038,0.121-0.083,0.177-0.133l0.084-0.507c-0.098,0.013-0.196,0.026-0.28,0.045   C81.089,63.335,81.066,63.341,81.042,63.347L81.042,63.347z" fill="#FEFFFF"/><path d="M85.932,62.446c-0.075,0.013-0.145,0.051-0.201,0.114c-0.08,0.089-0.14,0.203-0.182,0.356h0.383h0.379   c0-0.025,0.005-0.045,0.005-0.07c0-0.019,0.005-0.044,0.005-0.063c0-0.115-0.028-0.197-0.08-0.261   c-0.051-0.056-0.121-0.088-0.22-0.088C85.993,62.434,85.961,62.44,85.932,62.446L85.932,62.446z M85.932,63.943h0.084   c0.122,0,0.239-0.025,0.351-0.083c0.107-0.057,0.206-0.12,0.285-0.19h0.065l-0.107,0.615c-0.107,0.064-0.224,0.115-0.346,0.146   c-0.103,0.031-0.215,0.044-0.332,0.051h-0.051c-0.304,0-0.533-0.089-0.697-0.273c-0.163-0.178-0.243-0.425-0.243-0.742   c0-0.216,0.028-0.418,0.08-0.597c0.051-0.184,0.131-0.342,0.229-0.482c0.098-0.133,0.215-0.234,0.36-0.317   c0.103-0.051,0.211-0.089,0.323-0.108c0.051-0.006,0.103-0.006,0.154-0.006c0.262,0,0.458,0.069,0.594,0.215   c0.131,0.14,0.197,0.355,0.197,0.635c0,0.095-0.005,0.19-0.019,0.286c-0.014,0.088-0.033,0.184-0.056,0.272h-0.87h-0.439v0.025   v0.025c0,0.165,0.047,0.292,0.131,0.387C85.694,63.88,85.797,63.931,85.932,63.943L85.932,63.943z" fill="#FEFFFF"/><path d="M91.231,64.336c-0.023,0.019-0.047,0.032-0.07,0.045c-0.056,0.032-0.112,0.057-0.163,0.076   c-0.052,0.012-0.122,0.026-0.211,0.026c-0.15,0-0.267-0.057-0.36-0.165c-0.094-0.115-0.136-0.26-0.136-0.437   c0-0.19,0.033-0.349,0.099-0.482c0.065-0.128,0.163-0.236,0.29-0.311c0.121-0.076,0.266-0.127,0.434-0.158   c0.038-0.007,0.075-0.013,0.117-0.019c0.131-0.025,0.277-0.044,0.426-0.051c0.004-0.012,0.004-0.025,0.009-0.044   c0-0.019,0.005-0.038,0.005-0.063c0-0.101-0.037-0.171-0.104-0.216c-0.07-0.038-0.173-0.057-0.308-0.057h-0.029   c-0.089,0.006-0.182,0.025-0.28,0.063c-0.113,0.045-0.197,0.076-0.253,0.108h-0.051l0.08-0.564   c0.065-0.025,0.168-0.051,0.308-0.076c0.066-0.019,0.13-0.025,0.196-0.032c0.071-0.013,0.14-0.013,0.215-0.013   c0.276,0,0.477,0.051,0.608,0.146c0.126,0.095,0.191,0.248,0.191,0.457c0,0.026,0,0.063-0.004,0.108   c-0.005,0.045-0.01,0.083-0.015,0.12l-0.275,1.623H91.39l0.043-0.254c-0.038,0.032-0.08,0.07-0.131,0.115L91.231,64.336   L91.231,64.336z M91.231,63.347c-0.06,0.013-0.112,0.031-0.158,0.051c-0.06,0.031-0.113,0.075-0.145,0.133   c-0.034,0.057-0.052,0.133-0.052,0.228c0,0.083,0.024,0.139,0.071,0.171c0.042,0.031,0.108,0.051,0.192,0.051   c0.027,0,0.061-0.006,0.093-0.019c0.029-0.006,0.057-0.019,0.084-0.031c0.065-0.038,0.121-0.083,0.178-0.133l0.089-0.507   c-0.103,0.013-0.196,0.026-0.285,0.045C91.273,63.335,91.25,63.341,91.231,63.347L91.231,63.347z" fill="#FEFFFF"/><path d="M93.617,62.701c-0.124-0.095-0.399-0.076-0.456,0.12l-0.271,1.598h-0.566l0.407-2.385h0.565l-0.012,0.192   c0.107-0.108,0.227-0.199,0.531-0.19C93.835,62.038,93.632,62.391,93.617,62.701L93.617,62.701z" fill="#FEFFFF"/><path clip-rule="evenodd" d="M94.728,62.542c-0.028,0.013-0.056,0.032-0.079,0.051   c-0.075,0.05-0.136,0.127-0.187,0.216c-0.042,0.088-0.08,0.19-0.103,0.323c-0.029,0.127-0.042,0.254-0.042,0.374   c0,0.146,0.028,0.247,0.074,0.31c0.052,0.07,0.127,0.102,0.225,0.102c0.038,0,0.075-0.007,0.112-0.026   c0.019-0.007,0.033-0.012,0.052-0.025c0.056-0.032,0.107-0.064,0.159-0.108l0.201-1.173c-0.033-0.019-0.07-0.039-0.121-0.051   c-0.047-0.019-0.089-0.025-0.127-0.025C94.831,62.51,94.78,62.522,94.728,62.542L94.728,62.542z M94.728,64.292   c-0.042,0.038-0.089,0.076-0.14,0.108c-0.046,0.025-0.093,0.05-0.135,0.063c-0.048,0.013-0.104,0.019-0.164,0.019   c-0.173,0-0.309-0.076-0.412-0.222c-0.098-0.152-0.15-0.368-0.15-0.64c0-0.228,0.023-0.444,0.08-0.641   c0.051-0.196,0.126-0.374,0.22-0.526c0.094-0.153,0.201-0.267,0.327-0.356c0.122-0.083,0.244-0.127,0.375-0.133h0.019   c0.098,0,0.183,0.013,0.253,0.038c0.07,0.025,0.145,0.07,0.22,0.127l0.126-0.831h0.566l-0.518,3.121h-0.566l0.042-0.247   C94.817,64.216,94.77,64.254,94.728,64.292L94.728,64.292z" fill="#FEFFFF" fill-rule="evenodd"/><path d="   M63.941,78.616" fill="none" stroke="#303536" stroke-linecap="round" stroke-linejoin="round" stroke-miterlimit="10" stroke-width="2.3786"/><path d="M68.163,29.009h-8.022l-1.989,14.986c0,3.314,2.686,6,6,6c3.314,0,6-2.686,6-6L68.163,29.009z" fill="#C45C45"/><path d="M52.119,29.009l-5.967,14.986c0,3.314,2.686,6,6,6s6-2.686,6-6l1.989-14.986H52.119z" fill="#FEFFFF"/><path d="M44.097,29.009l-9.944,14.986c0,3.314,2.686,6,6,6s6-2.686,6-6l5.967-14.986H44.097z" fill="#C45C45"/><path d="M76.186,29.009h-8.022l1.989,14.986c0,3.314,2.686,6,6,6s6-2.686,6-6L76.186,29.009z" fill="#FEFFFF"/><path d="M84.208,29.009h-8.022l5.967,14.986c0,3.314,2.686,6,6,6s6-2.686,6-6L84.208,29.009z" fill="#C45C45"/><polygon fill="#020507" opacity="0.1" points="44,29.009 84.208,29.009 88.152,34.953  "/><path d="M70.152,43.995c0,3.314-2.686,6-6,6c-3.314,0-6-2.686-6-6H70.152z" fill="#020507" opacity="0.1"/><path d="M58.152,43.995c0,3.314-2.686,6-6,6s-6-2.686-6-6H58.152z" fill="#020507" opacity="0.1"/><path d="M46.152,43.995c0,3.314-2.686,6-6,6s-6-2.686-6-6H46.152z" fill="#020507" opacity="0.1"/><path d="M82.152,43.995c0,3.314-2.686,6-6,6c-3.314,0-6-2.686-6-6H82.152z" fill="#020507" opacity="0.1"/><path d="M94.152,43.995c0,3.314-2.686,6-6,6c-3.314,0-6-2.686-6-6H94.152z" fill="#020507" opacity="0.1"/><circle cx="64" cy="104.467" fill="#484E51" r="3.5"/><circle cx="56.833" cy="23.5" fill="#484E51" r="1"/><path d="M68,24h-8c-0.276,0-0.5-0.224-0.5-0.5S59.724,23,60,23h8c0.276,0,0.5,0.224,0.5,0.5S68.276,24,68,24z" fill="#484E51"/><polygon fill="#020507" opacity="0.1" points="44.18,92 86.5,92 86.5,96  "/></g></svg>