<?xml version="1.0" ?><!DOCTYPE svg  PUBLIC '-//W3C//DTD SVG 1.1//EN'  'http://www.w3.org/Graphics/SVG/1.1/DTD/svg11.dtd'><svg enable-background="new 0 0 128 128" id="Слой_1" version="1.1" viewBox="0 0 128 128" xml:space="preserve" xmlns="http://www.w3.org/2000/svg" xmlns:xlink="http://www.w3.org/1999/xlink"><g><circle cx="64" cy="64" fill="#E5E4DE" r="62"/><path d="M111,89.5H23c-0.552,0-1-0.448-1-1v-43c0-0.552,0.448-1,1-1h88c0.552,0,1,0.448,1,1v43   C112,89.052,111.552,89.5,111,89.5z" fill="#05090C" opacity="0.1"/><path d="M108,86.5H20c-0.552,0-1-0.448-1-1v-43c0-0.552,0.448-1,1-1h88c0.552,0,1,0.448,1,1v43   C109,86.052,108.552,86.5,108,86.5z" fill="#41B19C"/><path d="M105.85,83.35h-83.7v-38.7h83.7V83.35z M23.05,82.45h81.9v-36.9h-81.9V82.45z" fill="#F5F8F8" opacity="0.2"/><circle cx="64" cy="64" fill="#F5F8F8" opacity="0.2" r="15.75"/><path d="M64.155,72.319c-0.617,0-1.209-0.089-1.761-0.264c-0.612-0.193-1.162-0.511-1.635-0.944   c-0.475-0.434-0.862-0.992-1.152-1.658c-0.199-0.456,0.011-0.986,0.466-1.184c0.458-0.199,0.986,0.011,1.185,0.466   c0.188,0.433,0.43,0.786,0.717,1.049c0.279,0.255,0.602,0.442,0.962,0.555c0.811,0.258,1.846,0.231,2.506-0.04   c0.35-0.144,0.639-0.341,0.859-0.586c0.228-0.254,0.4-0.559,0.512-0.905c0.117-0.359,0.176-0.744,0.176-1.147   c0-0.552-0.101-0.998-0.301-1.325c-0.196-0.322-0.452-0.587-0.761-0.787c-0.323-0.21-0.701-0.381-1.126-0.51   c-0.462-0.14-0.936-0.277-1.422-0.41c-0.505-0.139-1.005-0.305-1.484-0.494c-0.512-0.202-0.97-0.477-1.365-0.819   c-0.396-0.342-0.72-0.784-0.962-1.311c-0.237-0.518-0.358-1.174-0.358-1.951c0-0.546,0.098-1.085,0.289-1.604   c0.193-0.527,0.49-1.005,0.879-1.419c0.397-0.422,0.902-0.762,1.499-1.012c1.214-0.505,2.966-0.503,4.147,0.026   c0.593,0.266,1.092,0.635,1.483,1.096c0.381,0.448,0.668,0.971,0.853,1.554c0.152,0.473-0.11,0.98-0.584,1.131   c-0.474,0.15-0.98-0.111-1.13-0.584c-0.114-0.356-0.287-0.671-0.512-0.938c-0.216-0.255-0.501-0.462-0.846-0.617   c-0.726-0.325-1.959-0.323-2.717-0.007c-0.362,0.151-0.659,0.348-0.882,0.584c-0.222,0.236-0.391,0.508-0.502,0.808   c-0.118,0.319-0.178,0.648-0.178,0.98c0,0.642,0.105,1.007,0.194,1.199c0.134,0.292,0.303,0.528,0.504,0.702   c0.241,0.209,0.526,0.378,0.847,0.505c0.419,0.166,0.857,0.311,1.3,0.433c0.501,0.138,0.991,0.279,1.469,0.424   c0.586,0.178,1.118,0.421,1.582,0.723c0.537,0.348,0.981,0.806,1.318,1.361c0.374,0.614,0.563,1.375,0.563,2.262   c0,0.591-0.089,1.164-0.264,1.703c-0.191,0.586-0.488,1.107-0.884,1.55c-0.403,0.449-0.911,0.802-1.514,1.05   C65.554,72.2,64.89,72.319,64.155,72.319z" fill="#42464A"/><path d="   M63.942,71.471" fill="none" stroke="#303536" stroke-linecap="round" stroke-linejoin="round" stroke-miterlimit="10" stroke-width="2"/><path d="M63.942,73.65c-0.497,0-0.9-0.403-0.9-0.9v-1.327c0-0.497,0.403-0.9,0.9-0.9c0.497,0,0.9,0.403,0.9,0.9   v1.327C64.842,73.247,64.439,73.65,63.942,73.65z" fill="#42464A"/><path d="M63.942,57.436c-0.497,0-0.9-0.403-0.9-0.9V55.25c0-0.497,0.403-0.9,0.9-0.9c0.497,0,0.9,0.403,0.9,0.9   v1.286C64.842,57.033,64.439,57.436,63.942,57.436z" fill="#42464A"/></g></svg>