<?xml version="1.0" ?><!DOCTYPE svg  PUBLIC '-//W3C//DTD SVG 1.1//EN'  'http://www.w3.org/Graphics/SVG/1.1/DTD/svg11.dtd'><svg enable-background="new 0 0 128 128" id="Слой_1" version="1.1" viewBox="0 0 128 128" xml:space="preserve" xmlns="http://www.w3.org/2000/svg" xmlns:xlink="http://www.w3.org/1999/xlink"><g><circle cx="64" cy="64" fill="#C45C45" r="62"/><path d="M86.667,18H41.333C37.283,18,34,21.283,34,25.333v92.927c1.092,0.605,2.204,1.178,3.335,1.718   c8.078,3.857,45.253,3.857,53.33,0c1.131-0.54,2.243-1.113,3.335-1.718V25.333C94,21.283,90.717,18,86.667,18z" fill="#2C3335"/><path d="M37.333,33.345v86.637C45.412,123.837,54.453,126,64,126s18.588-2.163,26.667-6.018V33.345H37.333z" fill="#62C8CF"/><path d="M105.504,47.387H37.665c-0.082,0-0.158,0.021-0.24,0.024v50.523c0.081,0.003,0.158,0.024,0.24,0.024h67.839   c3.436,0,6.221-2.785,6.221-6.221V53.609C111.725,50.173,108.94,47.387,105.504,47.387z" fill="#F2F4F5"/><rect fill="#C3BC7B" height="11.039" width="4.599" x="45.2" y="64.143"/><path d="M53.939,64.143h-3.22v5.059h4.14v-4.14C54.859,64.555,54.447,64.143,53.939,64.143z" fill="#C3BC7B"/><path d="M50.719,75.182h3.22c0.508,0,0.92-0.412,0.92-0.92v-4.14h-4.14V75.182z" fill="#C3BC7B"/><path d="M40.141,74.262c0,0.508,0.412,0.92,0.92,0.92h3.22v-5.059h-4.139V74.262z" fill="#C3BC7B"/><path d="M40.141,65.063v4.14h4.139v-5.059h-3.22C40.552,64.143,40.141,64.555,40.141,65.063z" fill="#C3BC7B"/><circle cx="99.327" cy="59.244" fill="#F5CA41" r="7.87"/><path d="M91.65,57.466c0.063-0.315,0.214-0.744,0.214-0.744h4.402c-0.072-0.327-0.403-0.946-0.403-0.946h-3.62   c0.176-0.352,0.441-0.769,0.441-0.769h2.737c-0.177-0.391-0.656-0.908-0.656-0.908h-1.4c0.278-0.352,0.694-0.712,0.69-0.712   c-1.393-1.251-3.236-2.012-5.256-2.012c-4.347,0-7.87,3.523-7.87,7.87c0,4.346,3.523,7.87,7.87,7.87   c2.024,0,3.87-0.764,5.264-2.019l-0.017-0.006h0.013c0,0,0.539-0.456,0.858-0.895l-1.697,0.001   c-0.151-0.158-0.384-0.505-0.53-0.726l2.756-0.002c0.126-0.2,0.347-0.597,0.499-0.913h-3.759c-0.114-0.233-0.233-0.549-0.303-0.781   l4.377-0.006c0.662-1.943,0.341-3.702,0.208-4.308L91.65,57.466z" fill="#C45C45"/><path d="M88.872,58.067c-0.363,0.164-0.6,0.491-0.6,1.072c0,0.58,0.563,0.817,0.908,0.962   c0.345,0.145,0.127,0.363-0.054,0.49c-0.182,0.128-0.999-0.091-0.999-0.091l-0.145,0.726c0,0,0.345,0.127,0.981,0.109   c1.108-0.032,1.163-0.672,1.199-0.981c0.037-0.309,0.018-0.762-0.363-0.926c-0.381-0.163-0.636-0.345-0.636-0.49   c0-0.146,0.345-0.236,0.345-0.236l0.691,0.018l0.127-0.708C89.871,57.922,89.235,57.904,88.872,58.067z" fill="#FEFFFF"/><polygon fill="#FEFFFF" points="83.567,59.466 83.245,57.041 82.323,57.041 81.608,61.253 82.367,61.253 82.853,58.383    82.987,61.236 83.54,61.236 84.533,58.493 84.066,61.253 84.869,61.253 85.584,57.041 84.638,57.041  "/><path d="M91.587,57.553h-0.753l-0.483,2.695c-0.006,0.076-0.018,0.144-0.025,0.202   c-0.006,0.052-0.013,0.11-0.013,0.169c0,0.227,0.056,0.405,0.168,0.523c0.112,0.11,0.298,0.169,0.56,0.169   c0.131,0,0.243-0.009,0.336-0.026c0.093-0.016,0.18-0.033,0.267-0.067l0.118-0.676h-0.062c-0.037,0.026-0.093,0.043-0.156,0.068   c-0.062,0.017-0.112,0.026-0.149,0.026c-0.099,0-0.174-0.026-0.218-0.068c-0.05-0.042-0.068-0.119-0.068-0.237   c0-0.05,0.006-0.127,0.018-0.203c0.013-0.084,0.025-0.16,0.037-0.235l0.193-1.149h0.703l0.118-0.666h-0.703L91.587,57.553z" fill="#FEFFFF"/><path d="M96.017,58.08h-0.752l-0.541,3.173h0.752l0.361-2.127c0.076-0.26,0.442-0.286,0.607-0.159   c0.019-0.412,0.289-0.883,0.263-0.884c-0.403-0.012-0.562,0.109-0.705,0.253L96.017,58.08z" fill="#FEFFFF"/><path d="M98.5,56.957c-0.267,0-0.523,0.067-0.758,0.203c-0.243,0.135-0.449,0.321-0.624,0.557   c-0.173,0.245-0.317,0.531-0.416,0.869c-0.099,0.337-0.149,0.709-0.149,1.123c0,0.524,0.112,0.929,0.343,1.207   c0.223,0.279,0.553,0.423,0.97,0.423c0.156,0,0.28-0.018,0.367-0.035c0.081-0.025,0.174-0.05,0.279-0.092   c0.043-0.015,0.134-0.059,0.134-0.059l0.175-0.955c-0.076,0.063-0.154,0.118-0.234,0.17c-0.169,0.1-0.349,0.152-0.541,0.152   c-0.212,0-0.374-0.076-0.486-0.22c-0.112-0.151-0.168-0.397-0.168-0.734c0-0.523,0.1-0.954,0.305-1.292   c0.199-0.337,0.454-0.507,0.765-0.507c0.174,0,0.33,0.051,0.461,0.136c0.089,0.063,0.176,0.151,0.263,0.261l0.175-1.001   c0,0-0.174-0.082-0.264-0.113C98.911,56.991,98.711,56.957,98.5,56.957z" fill="#FEFFFF"/><path d="M87.008,57.986c-0.094,0-0.193,0-0.286,0.017c-0.087,0.009-0.174,0.017-0.261,0.043   c-0.181,0.034-0.317,0.067-0.405,0.101l-0.112,0.751h0.068c0.075-0.042,0.187-0.084,0.336-0.144   c0.137-0.051,0.261-0.076,0.373-0.084h0.038c0.18,0,0.317,0.025,0.411,0.075c0.093,0.059,0.137,0.152,0.137,0.287   c0,0.034,0,0.059-0.006,0.084c-0.006,0.025-0.006,0.042-0.006,0.059c-0.205,0.009-0.392,0.034-0.573,0.068l-0.155,0.026   c-0.218,0.042-0.411,0.11-0.573,0.211c-0.175,0.101-0.305,0.244-0.392,0.414c-0.088,0.177-0.131,0.388-0.131,0.641   c0,0.236,0.062,0.429,0.187,0.582c0.118,0.143,0.28,0.22,0.473,0.22c0.124,0,0.218-0.018,0.286-0.035   c0.068-0.025,0.137-0.058,0.218-0.101c0.025-0.017,0.056-0.034,0.087-0.059c0.031-0.025,0.062-0.051,0.1-0.075   c0.062-0.059,0.124-0.11,0.168-0.152l-0.056,0.338h0.747l0.367-2.161c0.006-0.05,0.013-0.101,0.019-0.16   c0.006-0.06,0.006-0.11,0.006-0.144c0-0.278-0.081-0.481-0.255-0.608C87.642,58.054,87.375,57.986,87.008,57.986z M87.076,60.426   c-0.075,0.067-0.155,0.127-0.236,0.177c-0.044,0.017-0.081,0.034-0.119,0.042c-0.044,0.018-0.081,0.026-0.118,0.026   c-0.118,0-0.199-0.026-0.261-0.068c-0.056-0.042-0.087-0.118-0.087-0.228c0-0.127,0.019-0.227,0.069-0.304   c0.043-0.076,0.106-0.135,0.193-0.177c0.056-0.026,0.124-0.051,0.205-0.068c0.031-0.009,0.062-0.017,0.094-0.017   c0.111-0.025,0.242-0.042,0.373-0.059L87.076,60.426z" fill="#FEFFFF"/><path d="M93.434,57.979c-0.069,0-0.137,0-0.205,0.008c-0.149,0.026-0.292,0.076-0.429,0.144   c-0.193,0.11-0.348,0.245-0.479,0.422c-0.13,0.186-0.236,0.397-0.305,0.641c-0.069,0.237-0.106,0.507-0.106,0.794   c0,0.422,0.106,0.751,0.324,0.987c0.218,0.245,0.523,0.363,0.927,0.363h0.068c0.156-0.009,0.305-0.026,0.442-0.068   c0.161-0.042,0.317-0.109,0.46-0.195l0.143-0.818h-0.087c-0.105,0.093-0.236,0.177-0.379,0.253c-0.149,0.076-0.305,0.11-0.467,0.11   h-0.112c-0.18-0.017-0.317-0.084-0.41-0.186c-0.112-0.126-0.174-0.295-0.174-0.515v-0.034v-0.034h0.585h1.158   c0.031-0.118,0.056-0.245,0.075-0.362c0.018-0.127,0.025-0.254,0.025-0.38c0-0.372-0.088-0.659-0.262-0.845   C94.044,58.071,93.783,57.979,93.434,57.979z M93.74,59.16c0,0.034-0.006,0.059-0.006,0.093h-0.504h-0.51   c0.056-0.203,0.137-0.354,0.243-0.473c0.075-0.084,0.168-0.134,0.267-0.151c0.038-0.009,0.081-0.017,0.118-0.017   c0.131,0,0.224,0.042,0.292,0.117c0.069,0.085,0.106,0.194,0.106,0.347C93.746,59.101,93.74,59.135,93.74,59.16z" fill="#FEFFFF"/><path d="M100.567,57.986c-0.1,0-0.192,0-0.287,0.017c-0.087,0.009-0.173,0.017-0.26,0.043   c-0.187,0.034-0.323,0.067-0.41,0.101l-0.106,0.751h0.068c0.074-0.042,0.186-0.084,0.336-0.144c0.13-0.051,0.255-0.076,0.372-0.084   h0.038c0.18,0,0.317,0.025,0.41,0.075c0.089,0.059,0.138,0.152,0.138,0.287c0,0.034-0.007,0.059-0.007,0.084   c-0.006,0.025-0.006,0.042-0.012,0.059c-0.199,0.009-0.392,0.034-0.567,0.068c-0.055,0.009-0.105,0.017-0.155,0.026   c-0.224,0.042-0.417,0.11-0.578,0.211c-0.169,0.101-0.299,0.244-0.386,0.414c-0.088,0.177-0.131,0.388-0.131,0.641   c0,0.236,0.057,0.429,0.181,0.582c0.124,0.143,0.279,0.22,0.479,0.22c0.118,0,0.212-0.018,0.28-0.035   c0.068-0.025,0.143-0.058,0.217-0.101c0.031-0.017,0.062-0.034,0.093-0.059l0.094-0.075c0.068-0.059,0.124-0.11,0.174-0.152   l-0.057,0.338h0.747l0.367-2.161c0.007-0.05,0.013-0.101,0.02-0.16c0.006-0.06,0.006-0.11,0.006-0.144   c0-0.278-0.087-0.481-0.255-0.608C101.202,58.054,100.935,57.986,100.567,57.986z M100.63,60.426   c-0.076,0.067-0.15,0.127-0.237,0.177c-0.036,0.017-0.074,0.034-0.112,0.042c-0.042,0.018-0.087,0.026-0.124,0.026   c-0.112,0-0.2-0.026-0.255-0.068c-0.062-0.042-0.094-0.118-0.094-0.228c0-0.127,0.025-0.227,0.07-0.304   c0.042-0.076,0.112-0.135,0.192-0.177c0.062-0.026,0.13-0.051,0.211-0.068c0.026-0.009,0.056-0.017,0.087-0.017   c0.118-0.025,0.243-0.042,0.38-0.059L100.63,60.426z" fill="#FEFFFF"/><path d="M103.03,58.08h-0.752l-0.541,3.173h0.753l0.361-2.127c0.076-0.26,0.442-0.286,0.607-0.159   c0.02-0.412,0.289-0.883,0.264-0.884c-0.404-0.012-0.564,0.109-0.706,0.253L103.03,58.08z" fill="#FEFFFF"/><path clip-rule="evenodd" d="M105.588,58.206c-0.099-0.076-0.199-0.136-0.292-0.169   c-0.093-0.034-0.206-0.051-0.336-0.051h-0.025c-0.174,0.009-0.336,0.067-0.498,0.177c-0.167,0.118-0.31,0.27-0.435,0.473   c-0.125,0.202-0.224,0.439-0.293,0.7c-0.075,0.261-0.106,0.549-0.106,0.852c0,0.363,0.069,0.65,0.199,0.852   c0.137,0.194,0.317,0.296,0.548,0.296c0.08,0,0.155-0.009,0.218-0.026c0.055-0.017,0.118-0.051,0.18-0.084   c0.068-0.042,0.13-0.093,0.187-0.143c0.056-0.051,0.118-0.102,0.186-0.161l-0.055,0.329h0.753l0.69-4.153h-0.753L105.588,58.206z    M105.215,60.375c-0.069,0.058-0.137,0.101-0.211,0.144c-0.025,0.017-0.044,0.025-0.069,0.034   c-0.049,0.025-0.099,0.034-0.149,0.034c-0.131,0-0.23-0.043-0.299-0.136c-0.061-0.084-0.099-0.219-0.099-0.413   c0-0.16,0.018-0.33,0.057-0.498c0.031-0.177,0.08-0.313,0.137-0.43c0.068-0.118,0.148-0.22,0.249-0.287   c0.032-0.025,0.068-0.051,0.106-0.068c0.069-0.026,0.137-0.042,0.217-0.042c0.051,0,0.106,0.008,0.169,0.033   c0.068,0.017,0.118,0.042,0.161,0.068L105.215,60.375z" fill="#FEFFFF" fill-rule="evenodd"/><g><path d="M41.777,81.191c-0.091-0.041-0.212-0.062-0.363-0.062h-0.126v-2.276    c0-0.341-0.149-0.512-0.447-0.512c-0.092,0-0.171,0.031-0.237,0.093c-0.066,0.062-0.149,0.161-0.251,0.298l-1.558,2.084    c-0.043,0.057-0.079,0.105-0.109,0.144s-0.058,0.08-0.085,0.122c-0.027,0.042-0.048,0.082-0.062,0.121    c-0.014,0.038-0.021,0.076-0.021,0.113c0,0.145,0.047,0.26,0.14,0.344c0.093,0.084,0.233,0.126,0.419,0.126h1.476v0.547    c0,0.147,0.034,0.258,0.101,0.334c0.068,0.075,0.156,0.113,0.266,0.113c0.112,0,0.201-0.037,0.268-0.11    c0.067-0.073,0.1-0.186,0.1-0.337v-0.547h0.179c0.149,0,0.261-0.026,0.335-0.078s0.112-0.135,0.112-0.248    C41.914,81.322,41.868,81.232,41.777,81.191z M40.552,81.129h-1.264l1.264-1.708V81.129z" fill="#020507" opacity="0.2"/><path d="M44.901,82.014h-1.535c0.049-0.074,0.097-0.138,0.144-0.191    c0.11-0.133,0.312-0.32,0.607-0.562s0.505-0.418,0.631-0.531c0.125-0.113,0.248-0.268,0.369-0.467    c0.121-0.199,0.181-0.42,0.181-0.663c0-0.155-0.029-0.304-0.087-0.448c-0.058-0.144-0.139-0.271-0.243-0.381    s-0.224-0.196-0.362-0.259c-0.212-0.094-0.467-0.141-0.767-0.141c-0.249,0-0.466,0.037-0.651,0.11    c-0.185,0.074-0.338,0.17-0.459,0.29s-0.211,0.253-0.272,0.4c-0.061,0.147-0.091,0.288-0.091,0.423c0,0.112,0.032,0.2,0.097,0.265    c0.065,0.065,0.146,0.097,0.244,0.097c0.112,0,0.196-0.035,0.254-0.106c0.058-0.071,0.11-0.172,0.156-0.303    c0.046-0.131,0.079-0.212,0.098-0.241c0.147-0.225,0.349-0.338,0.606-0.338c0.122,0,0.234,0.027,0.337,0.082    s0.184,0.132,0.244,0.231c0.06,0.099,0.09,0.211,0.09,0.337c0,0.116-0.028,0.234-0.084,0.354    c-0.056,0.121-0.137,0.238-0.244,0.353c-0.107,0.115-0.241,0.229-0.401,0.343c-0.09,0.061-0.24,0.188-0.45,0.381    s-0.445,0.425-0.706,0.695c-0.063,0.067-0.121,0.158-0.173,0.275c-0.053,0.117-0.079,0.21-0.079,0.281    c0,0.11,0.041,0.205,0.123,0.287c0.082,0.081,0.197,0.122,0.344,0.122h2.164c0.129,0,0.226-0.033,0.29-0.1    c0.064-0.067,0.096-0.148,0.096-0.244c0-0.108-0.04-0.193-0.121-0.256C45.17,82.046,45.054,82.014,44.901,82.014z" fill="#020507" opacity="0.2"/><path d="M48.496,78.439h-1.958c-0.155,0-0.275,0.02-0.362,0.059s-0.129,0.126-0.129,0.262    c0,0.127,0.041,0.221,0.122,0.281c0.081,0.06,0.204,0.09,0.369,0.09h1.573c-0.247,0.314-0.46,0.629-0.639,0.945    c-0.179,0.317-0.329,0.625-0.448,0.926s-0.206,0.559-0.259,0.775c-0.053,0.216-0.079,0.386-0.079,0.512    c0,0.163,0.036,0.286,0.109,0.369s0.169,0.125,0.288,0.125c0.125,0,0.226-0.039,0.301-0.116c0.075-0.077,0.134-0.216,0.175-0.416    c0.018-0.086,0.038-0.211,0.062-0.373c0.024-0.163,0.045-0.295,0.065-0.397c0.02-0.102,0.053-0.23,0.1-0.385    c0.112-0.351,0.235-0.648,0.369-0.891s0.265-0.446,0.391-0.61c0.126-0.164,0.239-0.313,0.338-0.448    c0.099-0.135,0.148-0.244,0.148-0.326c0-0.135-0.042-0.232-0.126-0.291S48.684,78.439,48.496,78.439z" fill="#020507" opacity="0.2"/><path d="M52.13,80.252c-0.123-0.124-0.267-0.222-0.431-0.293c-0.164-0.071-0.34-0.106-0.528-0.106    c-0.235,0-0.492,0.074-0.77,0.223l0.168-0.953h1.396c0.145,0,0.255-0.031,0.329-0.094c0.074-0.063,0.112-0.145,0.112-0.247    c0-0.233-0.153-0.35-0.459-0.35h-1.552c-0.169,0-0.29,0.038-0.365,0.115c-0.075,0.076-0.125,0.199-0.153,0.367l-0.247,1.408    c-0.022,0.123-0.032,0.19-0.032,0.2c0,0.088,0.037,0.167,0.112,0.237c0.075,0.07,0.16,0.104,0.256,0.104    c0.088,0,0.2-0.051,0.337-0.154s0.241-0.175,0.313-0.216s0.193-0.062,0.362-0.062c0.137,0,0.262,0.033,0.373,0.099    c0.112,0.066,0.201,0.165,0.268,0.298s0.1,0.294,0.1,0.482c0,0.174-0.031,0.33-0.093,0.467c-0.062,0.137-0.149,0.245-0.263,0.323    c-0.114,0.078-0.246,0.118-0.397,0.118c-0.165,0-0.314-0.049-0.447-0.146c-0.133-0.097-0.239-0.233-0.318-0.407    c-0.08-0.19-0.203-0.285-0.367-0.285c-0.096,0-0.176,0.034-0.24,0.103c-0.064,0.069-0.096,0.141-0.096,0.218    c0,0.125,0.046,0.272,0.137,0.44c0.091,0.168,0.246,0.316,0.465,0.445c0.219,0.129,0.503,0.194,0.854,0.194    c0.314,0,0.59-0.069,0.831-0.206c0.24-0.137,0.424-0.322,0.551-0.556c0.127-0.233,0.191-0.492,0.191-0.776    c0-0.196-0.035-0.379-0.106-0.55C52.351,80.524,52.254,80.376,52.13,80.252z" fill="#020507" opacity="0.2"/><path d="M58.755,80.635c-0.105-0.106-0.234-0.2-0.387-0.282c0.159-0.133,0.281-0.27,0.366-0.41    s0.128-0.308,0.128-0.504c0-0.149-0.029-0.288-0.088-0.417c-0.059-0.129-0.146-0.243-0.262-0.341    c-0.116-0.098-0.252-0.173-0.409-0.225c-0.157-0.052-0.33-0.078-0.52-0.078c-0.218,0-0.415,0.031-0.591,0.093    c-0.176,0.062-0.324,0.144-0.443,0.245s-0.209,0.209-0.27,0.322c-0.062,0.113-0.093,0.22-0.093,0.322    c0,0.106,0.033,0.191,0.099,0.254c0.066,0.064,0.138,0.096,0.216,0.096c0.067,0,0.125-0.012,0.176-0.035    c0.051-0.024,0.086-0.056,0.106-0.097c0.033-0.076,0.07-0.158,0.11-0.244s0.083-0.157,0.128-0.212    c0.045-0.055,0.106-0.099,0.184-0.132c0.077-0.033,0.176-0.05,0.295-0.05c0.176,0,0.317,0.054,0.42,0.163s0.156,0.239,0.156,0.39    c0,0.198-0.065,0.35-0.195,0.456c-0.13,0.106-0.286,0.159-0.466,0.159h-0.121c-0.139,0-0.244,0.029-0.315,0.087    c-0.071,0.058-0.106,0.134-0.106,0.228c0,0.096,0.029,0.171,0.088,0.225s0.142,0.081,0.25,0.081c0.024,0,0.076-0.004,0.159-0.012    c0.082-0.008,0.143-0.012,0.182-0.012c0.223,0,0.398,0.065,0.523,0.195c0.125,0.13,0.188,0.31,0.188,0.539    c0,0.155-0.037,0.291-0.11,0.409c-0.073,0.118-0.167,0.206-0.279,0.266c-0.113,0.06-0.23,0.09-0.351,0.09    c-0.212,0-0.376-0.066-0.492-0.198c-0.117-0.132-0.226-0.335-0.328-0.607c-0.016-0.045-0.049-0.084-0.1-0.116    s-0.104-0.049-0.159-0.049c-0.11,0-0.201,0.035-0.275,0.104c-0.073,0.07-0.11,0.161-0.11,0.275c0,0.088,0.031,0.2,0.093,0.335    c0.062,0.135,0.153,0.266,0.273,0.393s0.274,0.232,0.46,0.316c0.186,0.084,0.397,0.126,0.632,0.126    c0.231,0,0.442-0.037,0.634-0.11s0.356-0.175,0.495-0.306c0.139-0.13,0.245-0.279,0.316-0.445    c0.072-0.167,0.107-0.339,0.107-0.517c0-0.149-0.026-0.288-0.079-0.416C58.939,80.858,58.86,80.741,58.755,80.635z" fill="#020507" opacity="0.2"/><path d="M61.5,78.372c-0.092,0-0.155,0.018-0.188,0.053s-0.105,0.129-0.215,0.282    c-0.11,0.153-0.236,0.291-0.378,0.415s-0.332,0.241-0.569,0.353c-0.159,0.075-0.269,0.135-0.332,0.182    c-0.063,0.047-0.094,0.121-0.094,0.22c0,0.086,0.032,0.162,0.096,0.228c0.064,0.066,0.137,0.098,0.219,0.098    c0.172,0,0.508-0.191,1.005-0.573v2.675c0,0.157,0.036,0.275,0.109,0.356c0.073,0.08,0.169,0.121,0.288,0.121    c0.269,0,0.403-0.197,0.403-0.591v-3.366c0-0.141-0.031-0.252-0.094-0.332C61.687,78.412,61.604,78.372,61.5,78.372z" fill="#020507" opacity="0.2"/><path d="M65.875,80.252c-0.123-0.124-0.267-0.222-0.431-0.293c-0.164-0.071-0.34-0.106-0.528-0.106    c-0.235,0-0.492,0.074-0.77,0.223l0.168-0.953h1.396c0.145,0,0.255-0.031,0.329-0.094c0.075-0.063,0.112-0.145,0.112-0.247    c0-0.233-0.153-0.35-0.459-0.35H64.14c-0.169,0-0.29,0.038-0.365,0.115c-0.074,0.076-0.125,0.199-0.153,0.367l-0.247,1.408    c-0.022,0.123-0.032,0.19-0.032,0.2c0,0.088,0.037,0.167,0.112,0.237s0.16,0.104,0.256,0.104c0.088,0,0.2-0.051,0.337-0.154    s0.241-0.175,0.313-0.216s0.193-0.062,0.362-0.062c0.137,0,0.262,0.033,0.373,0.099c0.112,0.066,0.201,0.165,0.268,0.298    c0.067,0.133,0.1,0.294,0.1,0.482c0,0.174-0.031,0.33-0.093,0.467s-0.149,0.245-0.263,0.323c-0.114,0.078-0.246,0.118-0.397,0.118    c-0.165,0-0.314-0.049-0.447-0.146c-0.133-0.097-0.239-0.233-0.318-0.407c-0.08-0.19-0.203-0.285-0.367-0.285    c-0.096,0-0.176,0.034-0.24,0.103c-0.064,0.069-0.096,0.141-0.096,0.218c0,0.125,0.046,0.272,0.137,0.44    c0.091,0.168,0.246,0.316,0.464,0.445c0.219,0.129,0.503,0.194,0.854,0.194c0.314,0,0.59-0.069,0.831-0.206    c0.24-0.137,0.424-0.322,0.551-0.556c0.127-0.233,0.191-0.492,0.191-0.776c0-0.196-0.035-0.379-0.106-0.55    C66.095,80.524,65.998,80.376,65.875,80.252z" fill="#020507" opacity="0.2"/><path d="M69.483,80.31c-0.119-0.128-0.257-0.227-0.415-0.297c-0.158-0.07-0.33-0.104-0.516-0.104    c-0.194,0-0.369,0.038-0.526,0.115c-0.157,0.076-0.302,0.194-0.435,0.353c0.025-0.533,0.11-0.904,0.253-1.111    c0.071-0.102,0.157-0.183,0.26-0.243c0.103-0.06,0.206-0.09,0.31-0.09c0.129,0,0.243,0.036,0.341,0.107    c0.098,0.072,0.17,0.166,0.215,0.284c0.033,0.092,0.085,0.164,0.156,0.216s0.147,0.078,0.229,0.078    c0.094,0,0.172-0.033,0.232-0.099c0.061-0.066,0.091-0.139,0.091-0.219c0-0.133-0.048-0.272-0.146-0.417    c-0.097-0.145-0.241-0.267-0.432-0.365c-0.191-0.098-0.412-0.147-0.663-0.147c-0.261,0-0.493,0.049-0.697,0.147    c-0.204,0.098-0.377,0.243-0.52,0.435c-0.143,0.192-0.253,0.434-0.329,0.726c-0.076,0.292-0.115,0.623-0.115,0.994    c0,0.455,0.063,0.839,0.19,1.154c0.126,0.315,0.309,0.552,0.548,0.713c0.239,0.161,0.523,0.241,0.853,0.241    c0.286,0,0.542-0.063,0.769-0.19c0.226-0.126,0.403-0.302,0.529-0.528c0.126-0.225,0.19-0.476,0.19-0.753    c0-0.19-0.032-0.372-0.097-0.547S69.602,80.439,69.483,80.31z M68.876,81.96c-0.129,0.162-0.293,0.243-0.491,0.243    c-0.208,0-0.38-0.088-0.517-0.265c-0.137-0.176-0.206-0.397-0.206-0.661c0-0.165,0.034-0.308,0.101-0.431    c0.068-0.122,0.157-0.216,0.268-0.281c0.111-0.065,0.227-0.097,0.348-0.097c0.127,0,0.244,0.034,0.35,0.101    s0.189,0.166,0.25,0.294c0.061,0.128,0.091,0.282,0.091,0.46C69.07,81.586,69.006,81.798,68.876,81.96z" fill="#020507" opacity="0.2"/><path d="M75.843,78.752c-0.125-0.126-0.269-0.222-0.434-0.288c-0.165-0.066-0.348-0.098-0.55-0.098    c-0.306,0-0.569,0.074-0.789,0.222c-0.221,0.148-0.389,0.363-0.504,0.645c-0.067,0.171-0.116,0.374-0.147,0.612    c-0.031,0.237-0.047,0.504-0.047,0.8c0,0.229,0.014,0.442,0.043,0.639c0.028,0.197,0.073,0.377,0.134,0.539    c0.12,0.298,0.297,0.531,0.534,0.7c0.236,0.169,0.503,0.253,0.801,0.253c0.259,0,0.494-0.063,0.706-0.188s0.384-0.304,0.517-0.535    c0.106-0.188,0.178-0.398,0.218-0.629c0.039-0.231,0.059-0.508,0.059-0.829c0-0.592-0.075-1.05-0.223-1.373    C76.073,79.035,75.967,78.879,75.843,78.752z M75.515,81.453c-0.041,0.233-0.113,0.413-0.215,0.538    c-0.102,0.125-0.243,0.188-0.423,0.188c-0.174,0-0.313-0.06-0.415-0.181s-0.174-0.298-0.218-0.534    c-0.043-0.235-0.065-0.537-0.065-0.906c0-0.543,0.05-0.945,0.151-1.205s0.281-0.391,0.539-0.391c0.18,0,0.321,0.058,0.423,0.175    s0.174,0.289,0.218,0.517c0.043,0.228,0.065,0.522,0.065,0.88C75.577,80.914,75.556,81.219,75.515,81.453z" fill="#020507" opacity="0.2"/><path d="M79.656,80.635c-0.105-0.106-0.234-0.2-0.387-0.282c0.159-0.133,0.281-0.27,0.366-0.41    c0.085-0.14,0.128-0.308,0.128-0.504c0-0.149-0.029-0.288-0.088-0.417c-0.059-0.129-0.146-0.243-0.262-0.341    c-0.116-0.098-0.252-0.173-0.409-0.225s-0.33-0.078-0.52-0.078c-0.218,0-0.414,0.031-0.591,0.093    c-0.176,0.062-0.324,0.144-0.442,0.245s-0.209,0.209-0.271,0.322c-0.062,0.113-0.093,0.22-0.093,0.322    c0,0.106,0.033,0.191,0.099,0.254c0.066,0.064,0.138,0.096,0.216,0.096c0.067,0,0.125-0.012,0.176-0.035    c0.051-0.024,0.086-0.056,0.106-0.097c0.033-0.076,0.07-0.158,0.11-0.244c0.04-0.086,0.083-0.157,0.128-0.212    c0.045-0.055,0.106-0.099,0.184-0.132c0.077-0.033,0.176-0.05,0.295-0.05c0.176,0,0.317,0.054,0.42,0.163s0.156,0.239,0.156,0.39    c0,0.198-0.065,0.35-0.195,0.456c-0.13,0.106-0.286,0.159-0.466,0.159h-0.121c-0.139,0-0.244,0.029-0.315,0.087    c-0.071,0.058-0.106,0.134-0.106,0.228c0,0.096,0.029,0.171,0.088,0.225c0.059,0.054,0.142,0.081,0.25,0.081    c0.023,0,0.076-0.004,0.159-0.012c0.082-0.008,0.143-0.012,0.182-0.012c0.223,0,0.398,0.065,0.523,0.195    c0.125,0.13,0.188,0.31,0.188,0.539c0,0.155-0.037,0.291-0.11,0.409c-0.073,0.118-0.167,0.206-0.279,0.266    c-0.113,0.06-0.23,0.09-0.351,0.09c-0.212,0-0.376-0.066-0.492-0.198c-0.117-0.132-0.226-0.335-0.328-0.607    c-0.016-0.045-0.049-0.084-0.1-0.116s-0.104-0.049-0.159-0.049c-0.11,0-0.201,0.035-0.275,0.104s-0.11,0.161-0.11,0.275    c0,0.088,0.031,0.2,0.093,0.335c0.062,0.135,0.153,0.266,0.273,0.393s0.274,0.232,0.46,0.316c0.186,0.084,0.397,0.126,0.632,0.126    c0.231,0,0.442-0.037,0.634-0.11s0.356-0.175,0.495-0.306c0.139-0.13,0.245-0.279,0.316-0.445    c0.072-0.167,0.107-0.339,0.107-0.517c0-0.149-0.026-0.288-0.079-0.416C79.84,80.858,79.761,80.741,79.656,80.635z" fill="#020507" opacity="0.2"/><path d="M83.141,78.439h-1.958c-0.155,0-0.275,0.02-0.362,0.059s-0.129,0.126-0.129,0.262    c0,0.127,0.041,0.221,0.122,0.281c0.081,0.06,0.204,0.09,0.369,0.09h1.573c-0.247,0.314-0.46,0.629-0.639,0.945    s-0.329,0.625-0.448,0.926s-0.206,0.559-0.259,0.775c-0.053,0.216-0.079,0.386-0.079,0.512c0,0.163,0.036,0.286,0.109,0.369    s0.169,0.125,0.288,0.125c0.125,0,0.226-0.039,0.301-0.116c0.075-0.077,0.134-0.216,0.175-0.416    c0.018-0.086,0.038-0.211,0.062-0.373c0.023-0.163,0.045-0.295,0.065-0.397c0.02-0.102,0.053-0.23,0.1-0.385    c0.112-0.351,0.235-0.648,0.369-0.891c0.134-0.243,0.265-0.446,0.391-0.61c0.126-0.164,0.239-0.313,0.338-0.448    c0.099-0.135,0.148-0.244,0.148-0.326c0-0.135-0.042-0.232-0.126-0.291C83.466,78.469,83.329,78.439,83.141,78.439z" fill="#020507" opacity="0.2"/><path d="M86.702,82.014h-1.535c0.049-0.074,0.097-0.138,0.144-0.191    c0.11-0.133,0.312-0.32,0.607-0.562s0.505-0.418,0.631-0.531c0.125-0.113,0.248-0.268,0.369-0.467    c0.121-0.199,0.181-0.42,0.181-0.663c0-0.155-0.029-0.304-0.087-0.448c-0.058-0.144-0.139-0.271-0.243-0.381    s-0.224-0.196-0.362-0.259c-0.212-0.094-0.467-0.141-0.767-0.141c-0.249,0-0.466,0.037-0.651,0.11    c-0.185,0.074-0.338,0.17-0.459,0.29s-0.211,0.253-0.272,0.4c-0.061,0.147-0.091,0.288-0.091,0.423c0,0.112,0.032,0.2,0.097,0.265    c0.065,0.065,0.146,0.097,0.244,0.097c0.112,0,0.197-0.035,0.254-0.106s0.11-0.172,0.156-0.303    c0.046-0.131,0.079-0.212,0.099-0.241c0.147-0.225,0.349-0.338,0.606-0.338c0.122,0,0.234,0.027,0.337,0.082    s0.184,0.132,0.244,0.231c0.06,0.099,0.09,0.211,0.09,0.337c0,0.116-0.028,0.234-0.084,0.354s-0.137,0.238-0.244,0.353    c-0.107,0.115-0.241,0.229-0.401,0.343c-0.09,0.061-0.24,0.188-0.45,0.381s-0.445,0.425-0.706,0.695    c-0.063,0.067-0.121,0.158-0.173,0.275c-0.053,0.117-0.079,0.21-0.079,0.281c0,0.11,0.041,0.205,0.123,0.287    c0.082,0.081,0.197,0.122,0.344,0.122h2.164c0.129,0,0.226-0.033,0.29-0.1c0.064-0.067,0.096-0.148,0.096-0.244    c0-0.108-0.04-0.193-0.12-0.256C86.971,82.046,86.854,82.014,86.702,82.014z" fill="#020507" opacity="0.2"/><path d="M93.364,80.252c-0.123-0.124-0.267-0.222-0.431-0.293c-0.164-0.071-0.34-0.106-0.528-0.106    c-0.235,0-0.492,0.074-0.77,0.223l0.168-0.953h1.396c0.145,0,0.255-0.031,0.329-0.094c0.074-0.063,0.112-0.145,0.112-0.247    c0-0.233-0.153-0.35-0.459-0.35h-1.552c-0.169,0-0.29,0.038-0.365,0.115c-0.075,0.076-0.125,0.199-0.153,0.367l-0.247,1.408    c-0.022,0.123-0.032,0.19-0.032,0.2c0,0.088,0.037,0.167,0.112,0.237s0.16,0.104,0.256,0.104c0.088,0,0.2-0.051,0.337-0.154    s0.241-0.175,0.313-0.216s0.193-0.062,0.362-0.062c0.137,0,0.262,0.033,0.373,0.099c0.112,0.066,0.201,0.165,0.268,0.298    s0.1,0.294,0.1,0.482c0,0.174-0.031,0.33-0.093,0.467c-0.062,0.137-0.149,0.245-0.263,0.323c-0.114,0.078-0.246,0.118-0.397,0.118    c-0.165,0-0.314-0.049-0.447-0.146c-0.133-0.097-0.239-0.233-0.318-0.407c-0.08-0.19-0.203-0.285-0.367-0.285    c-0.096,0-0.176,0.034-0.24,0.103c-0.064,0.069-0.096,0.141-0.096,0.218c0,0.125,0.046,0.272,0.137,0.44    c0.091,0.168,0.246,0.316,0.465,0.445c0.219,0.129,0.503,0.194,0.854,0.194c0.314,0,0.59-0.069,0.831-0.206    c0.24-0.137,0.424-0.322,0.551-0.556c0.127-0.233,0.191-0.492,0.191-0.776c0-0.196-0.035-0.379-0.106-0.55    C93.584,80.524,93.487,80.376,93.364,80.252z" fill="#020507" opacity="0.2"/><path d="M97.322,81.191c-0.091-0.041-0.212-0.062-0.363-0.062h-0.126v-2.276    c0-0.341-0.149-0.512-0.447-0.512c-0.092,0-0.171,0.031-0.237,0.093c-0.066,0.062-0.149,0.161-0.251,0.298l-1.558,2.084    c-0.043,0.057-0.079,0.105-0.109,0.144s-0.058,0.08-0.085,0.122c-0.027,0.042-0.048,0.082-0.062,0.121    c-0.014,0.038-0.021,0.076-0.021,0.113c0,0.145,0.047,0.26,0.14,0.344c0.093,0.084,0.233,0.126,0.419,0.126h1.476v0.547    c0,0.147,0.034,0.258,0.101,0.334c0.068,0.075,0.156,0.113,0.266,0.113c0.112,0,0.201-0.037,0.268-0.11s0.1-0.186,0.1-0.337    v-0.547h0.179c0.149,0,0.261-0.026,0.335-0.078s0.112-0.135,0.112-0.248C97.459,81.322,97.413,81.232,97.322,81.191z     M96.098,81.129h-1.264l1.264-1.708V81.129z" fill="#020507" opacity="0.2"/><path d="M100.417,78.911c-0.135-0.175-0.302-0.309-0.5-0.401c-0.198-0.092-0.423-0.138-0.676-0.138    c-0.22,0-0.42,0.037-0.601,0.112c-0.181,0.075-0.338,0.178-0.469,0.312c-0.131,0.133-0.232,0.291-0.303,0.472    c-0.071,0.181-0.106,0.373-0.106,0.575c0,0.188,0.031,0.368,0.094,0.539c0.063,0.172,0.152,0.321,0.269,0.45    c0.117,0.128,0.255,0.228,0.415,0.3c0.16,0.072,0.332,0.107,0.516,0.107c0.194,0,0.371-0.039,0.531-0.116s0.304-0.193,0.434-0.345    c-0.027,0.531-0.112,0.902-0.253,1.111c-0.071,0.104-0.156,0.184-0.256,0.241c-0.1,0.057-0.206,0.085-0.318,0.085    c-0.125,0-0.238-0.036-0.338-0.107c-0.1-0.072-0.172-0.166-0.215-0.284c-0.035-0.096-0.087-0.168-0.156-0.216    s-0.146-0.072-0.232-0.072c-0.094,0-0.172,0.032-0.232,0.097c-0.061,0.065-0.091,0.138-0.091,0.221    c0,0.133,0.049,0.272,0.147,0.416s0.241,0.265,0.429,0.362c0.188,0.097,0.41,0.146,0.664,0.146c0.259,0,0.49-0.048,0.694-0.143    c0.204-0.095,0.379-0.24,0.525-0.435c0.146-0.195,0.257-0.436,0.334-0.723c0.076-0.287,0.115-0.619,0.115-0.995    c0-0.337-0.036-0.639-0.109-0.906S100.552,79.086,100.417,78.911z M99.848,80.306c-0.07,0.122-0.16,0.214-0.271,0.278    c-0.111,0.064-0.227,0.096-0.348,0.096c-0.198,0-0.362-0.077-0.491-0.232s-0.194-0.363-0.194-0.623    c0-0.263,0.065-0.474,0.194-0.634s0.287-0.24,0.473-0.24c0.108,0,0.207,0.024,0.298,0.071c0.091,0.047,0.17,0.112,0.235,0.194    c0.066,0.082,0.117,0.18,0.153,0.293c0.036,0.113,0.054,0.236,0.054,0.369C99.952,80.041,99.917,80.185,99.848,80.306z" fill="#020507" opacity="0.2"/><path d="M104.134,80.635c-0.105-0.106-0.234-0.2-0.387-0.282c0.159-0.133,0.281-0.27,0.366-0.41    s0.128-0.308,0.128-0.504c0-0.149-0.029-0.288-0.088-0.417c-0.059-0.129-0.146-0.243-0.262-0.341    c-0.116-0.098-0.252-0.173-0.409-0.225s-0.33-0.078-0.52-0.078c-0.218,0-0.415,0.031-0.591,0.093    c-0.176,0.062-0.324,0.144-0.443,0.245s-0.209,0.209-0.27,0.322c-0.062,0.113-0.093,0.22-0.093,0.322    c0,0.106,0.033,0.191,0.099,0.254c0.066,0.064,0.138,0.096,0.216,0.096c0.067,0,0.125-0.012,0.176-0.035    c0.051-0.024,0.086-0.056,0.106-0.097c0.033-0.076,0.07-0.158,0.11-0.244s0.083-0.157,0.128-0.212    c0.045-0.055,0.106-0.099,0.184-0.132c0.077-0.033,0.176-0.05,0.295-0.05c0.176,0,0.317,0.054,0.42,0.163s0.156,0.239,0.156,0.39    c0,0.198-0.065,0.35-0.195,0.456c-0.13,0.106-0.286,0.159-0.466,0.159h-0.121c-0.139,0-0.244,0.029-0.315,0.087    c-0.071,0.058-0.106,0.134-0.106,0.228c0,0.096,0.029,0.171,0.088,0.225s0.142,0.081,0.25,0.081c0.024,0,0.076-0.004,0.159-0.012    c0.082-0.008,0.143-0.012,0.182-0.012c0.223,0,0.398,0.065,0.523,0.195c0.125,0.13,0.188,0.31,0.188,0.539    c0,0.155-0.037,0.291-0.11,0.409c-0.074,0.118-0.167,0.206-0.279,0.266c-0.113,0.06-0.23,0.09-0.351,0.09    c-0.212,0-0.376-0.066-0.492-0.198c-0.117-0.132-0.226-0.335-0.328-0.607c-0.016-0.045-0.049-0.084-0.1-0.116    c-0.051-0.032-0.104-0.049-0.159-0.049c-0.11,0-0.201,0.035-0.275,0.104c-0.074,0.07-0.11,0.161-0.11,0.275    c0,0.088,0.031,0.2,0.093,0.335c0.062,0.135,0.153,0.266,0.273,0.393s0.274,0.232,0.46,0.316c0.186,0.084,0.397,0.126,0.632,0.126    c0.231,0,0.442-0.037,0.634-0.11s0.356-0.175,0.495-0.306c0.139-0.13,0.245-0.279,0.316-0.445    c0.072-0.167,0.107-0.339,0.107-0.517c0-0.149-0.026-0.288-0.079-0.416C104.318,80.858,104.239,80.741,104.134,80.635z" fill="#020507" opacity="0.2"/><path d="M67.327,85.265c-0.046,0-0.077,0.009-0.094,0.026c-0.017,0.018-0.052,0.065-0.107,0.141    c-0.055,0.076-0.118,0.146-0.189,0.207c-0.071,0.062-0.166,0.12-0.284,0.176c-0.079,0.037-0.135,0.068-0.166,0.091    s-0.047,0.06-0.047,0.11c0,0.043,0.016,0.081,0.048,0.114s0.069,0.049,0.11,0.049c0.086,0,0.254-0.096,0.503-0.287v1.338    c0,0.078,0.018,0.138,0.054,0.178c0.036,0.04,0.084,0.06,0.144,0.06c0.134,0,0.201-0.099,0.201-0.295v-1.683    c0-0.071-0.016-0.126-0.047-0.166C67.421,85.285,67.379,85.265,67.327,85.265z" fill="#020507" opacity="0.2"/><path d="M69.116,85.265c-0.046,0-0.077,0.009-0.094,0.026c-0.017,0.018-0.052,0.065-0.107,0.141    c-0.055,0.076-0.118,0.146-0.189,0.207c-0.071,0.062-0.166,0.12-0.284,0.176c-0.079,0.037-0.135,0.068-0.166,0.091    s-0.047,0.06-0.047,0.11c0,0.043,0.016,0.081,0.048,0.114s0.069,0.049,0.11,0.049c0.086,0,0.254-0.096,0.503-0.287v1.338    c0,0.078,0.018,0.138,0.054,0.178c0.036,0.04,0.084,0.06,0.144,0.06c0.134,0,0.201-0.099,0.201-0.295v-1.683    c0-0.071-0.016-0.126-0.047-0.166C69.21,85.285,69.168,85.265,69.116,85.265z" fill="#020507" opacity="0.2"/><path d="M70.484,85.241c-0.057,0-0.095,0.017-0.115,0.05c-0.02,0.033-0.04,0.095-0.062,0.185    l-0.41,1.695c-0.02,0.09-0.029,0.146-0.029,0.169c0,0.086,0.05,0.129,0.15,0.129c0.04,0,0.071-0.009,0.092-0.027    c0.021-0.018,0.037-0.044,0.047-0.076c0.011-0.032,0.023-0.076,0.036-0.132l0.412-1.695c0.021-0.08,0.031-0.136,0.031-0.166    c0-0.041-0.013-0.073-0.039-0.097C70.57,85.253,70.533,85.241,70.484,85.241z" fill="#020507" opacity="0.2"/><path d="M72.112,87.086h-0.767c0.025-0.037,0.049-0.069,0.072-0.096    c0.055-0.067,0.156-0.16,0.304-0.281c0.147-0.121,0.252-0.209,0.315-0.266c0.063-0.056,0.124-0.134,0.185-0.233    c0.06-0.099,0.09-0.21,0.09-0.332c0-0.077-0.015-0.152-0.043-0.224c-0.029-0.073-0.07-0.136-0.122-0.191    c-0.052-0.055-0.112-0.098-0.181-0.129c-0.106-0.047-0.234-0.071-0.384-0.071c-0.124,0-0.233,0.018-0.325,0.055    c-0.093,0.036-0.17,0.085-0.229,0.145c-0.061,0.06-0.106,0.126-0.136,0.2s-0.046,0.144-0.046,0.212c0,0.056,0.016,0.1,0.049,0.132    s0.073,0.048,0.122,0.048c0.056,0,0.098-0.018,0.127-0.053c0.029-0.035,0.055-0.086,0.078-0.151    c0.023-0.066,0.039-0.106,0.049-0.121c0.073-0.113,0.174-0.169,0.303-0.169c0.061,0,0.117,0.014,0.169,0.041    c0.051,0.027,0.092,0.066,0.122,0.116s0.045,0.105,0.045,0.168c0,0.058-0.014,0.117-0.042,0.177    c-0.027,0.061-0.069,0.12-0.122,0.176c-0.054,0.058-0.121,0.115-0.201,0.172c-0.045,0.03-0.12,0.094-0.225,0.19    c-0.105,0.097-0.222,0.213-0.353,0.348c-0.031,0.033-0.06,0.079-0.087,0.137c-0.026,0.059-0.04,0.105-0.04,0.141    c0,0.055,0.021,0.103,0.062,0.144c0.041,0.041,0.098,0.061,0.172,0.061h1.082c0.065,0,0.113-0.017,0.145-0.05    c0.031-0.033,0.048-0.074,0.048-0.122c0-0.054-0.02-0.097-0.06-0.128C72.247,87.102,72.189,87.086,72.112,87.086z" fill="#020507" opacity="0.2"/><path d="M73.839,85.455c-0.063-0.064-0.135-0.111-0.217-0.144s-0.174-0.049-0.275-0.049    c-0.153,0-0.284,0.037-0.395,0.111c-0.11,0.074-0.194,0.181-0.252,0.322c-0.033,0.085-0.058,0.187-0.073,0.306    s-0.024,0.252-0.024,0.4c0,0.115,0.007,0.221,0.022,0.32c0.014,0.099,0.036,0.189,0.067,0.27c0.06,0.149,0.148,0.266,0.267,0.35    s0.252,0.126,0.401,0.126c0.129,0,0.247-0.031,0.353-0.094s0.192-0.152,0.259-0.268c0.053-0.094,0.089-0.199,0.109-0.315    c0.02-0.116,0.029-0.254,0.029-0.415c0-0.296-0.037-0.525-0.112-0.687C73.954,85.597,73.901,85.518,73.839,85.455z M73.675,86.805    c-0.021,0.117-0.056,0.206-0.107,0.269s-0.122,0.094-0.212,0.094c-0.087,0-0.156-0.03-0.207-0.09    c-0.051-0.061-0.087-0.149-0.109-0.267c-0.022-0.118-0.032-0.269-0.032-0.453c0-0.271,0.025-0.472,0.076-0.603    c0.05-0.13,0.14-0.195,0.27-0.195c0.09,0,0.161,0.029,0.212,0.087c0.051,0.059,0.087,0.145,0.109,0.259    c0.022,0.115,0.032,0.261,0.032,0.44C73.706,86.536,73.695,86.689,73.675,86.805z" fill="#020507" opacity="0.2"/><path d="M40.475,90.121h-1.372c-0.082,0-0.15,0.012-0.203,0.036s-0.092,0.063-0.117,0.116    c-0.025,0.053-0.037,0.121-0.037,0.205v2.211c0,0.119,0.027,0.208,0.081,0.267c0.054,0.059,0.124,0.088,0.211,0.088    c0.085,0,0.154-0.029,0.209-0.087c0.054-0.058,0.081-0.148,0.081-0.268v-0.947h0.958c0.088,0,0.153-0.02,0.198-0.059    c0.045-0.039,0.067-0.092,0.067-0.159c0-0.067-0.022-0.12-0.066-0.16c-0.044-0.04-0.11-0.06-0.199-0.06h-0.958V90.57h1.147    c0.093,0,0.162-0.021,0.207-0.062c0.045-0.041,0.068-0.096,0.068-0.164c0-0.067-0.023-0.121-0.068-0.162    C40.637,90.141,40.568,90.121,40.475,90.121z" fill="#020507" opacity="0.2"/><path d="M41.494,90.072c-0.085,0-0.154,0.029-0.208,0.088c-0.053,0.059-0.08,0.147-0.08,0.265v2.264    c0,0.118,0.027,0.206,0.081,0.266c0.054,0.059,0.123,0.089,0.207,0.089c0.088,0,0.158-0.029,0.213-0.088    c0.054-0.059,0.081-0.148,0.081-0.267v-2.264c0-0.119-0.027-0.207-0.081-0.266C41.652,90.101,41.582,90.072,41.494,90.072z" fill="#020507" opacity="0.2"/><path d="M44.592,92.282c-0.074-0.121-0.158-0.235-0.252-0.342c-0.094-0.107-0.193-0.188-0.296-0.243    c0.245-0.053,0.429-0.145,0.55-0.272c0.121-0.128,0.181-0.299,0.181-0.514c0-0.104-0.018-0.203-0.054-0.297    c-0.036-0.094-0.089-0.175-0.158-0.246s-0.149-0.125-0.239-0.163c-0.074-0.034-0.158-0.056-0.251-0.068    c-0.093-0.011-0.204-0.017-0.335-0.017h-0.947c-0.125,0-0.216,0.028-0.272,0.084s-0.084,0.147-0.084,0.272v2.211    c0,0.116,0.026,0.204,0.076,0.265c0.051,0.06,0.123,0.09,0.216,0.09c0.086,0,0.156-0.029,0.21-0.086s0.08-0.147,0.08-0.269v-0.923    h0.204c0.103,0,0.189,0.014,0.257,0.041c0.068,0.027,0.135,0.078,0.201,0.153c0.066,0.074,0.141,0.183,0.224,0.325l0.233,0.388    c0.055,0.092,0.099,0.161,0.13,0.208c0.032,0.047,0.07,0.086,0.115,0.117c0.045,0.031,0.099,0.046,0.165,0.046    c0.055,0,0.103-0.011,0.145-0.032s0.075-0.051,0.099-0.088c0.024-0.037,0.036-0.075,0.036-0.113c0-0.037-0.021-0.103-0.062-0.201    S44.666,92.403,44.592,92.282z M43.891,91.311c-0.096,0.024-0.213,0.036-0.353,0.036h-0.521v-0.79h0.537    c0.2,0,0.334,0.014,0.402,0.043c0.072,0.03,0.128,0.075,0.169,0.136c0.041,0.061,0.061,0.131,0.061,0.211    c0,0.102-0.025,0.182-0.075,0.24C44.059,91.246,43.987,91.287,43.891,91.311z" fill="#020507" opacity="0.2"/><path d="M47.216,91.516c-0.092-0.065-0.204-0.121-0.335-0.167c-0.131-0.046-0.278-0.088-0.44-0.125    c-0.129-0.033-0.222-0.057-0.278-0.074c-0.056-0.017-0.112-0.041-0.167-0.071s-0.098-0.066-0.129-0.108    c-0.031-0.042-0.047-0.092-0.047-0.149c0-0.093,0.046-0.172,0.138-0.238c0.092-0.066,0.213-0.099,0.364-0.099    c0.162,0,0.28,0.03,0.353,0.091c0.073,0.061,0.136,0.146,0.188,0.254c0.041,0.076,0.078,0.13,0.113,0.164s0.085,0.05,0.152,0.05    c0.073,0,0.134-0.028,0.183-0.083c0.049-0.055,0.074-0.118,0.074-0.187c0-0.076-0.02-0.153-0.059-0.233s-0.101-0.156-0.186-0.228    c-0.085-0.073-0.192-0.131-0.32-0.174c-0.129-0.044-0.281-0.066-0.458-0.066c-0.221,0-0.413,0.033-0.576,0.099    c-0.163,0.066-0.288,0.16-0.374,0.283s-0.129,0.263-0.129,0.421c0,0.166,0.041,0.305,0.122,0.417    c0.082,0.112,0.192,0.2,0.331,0.265c0.139,0.065,0.312,0.121,0.518,0.17c0.154,0.035,0.277,0.069,0.369,0.1    s0.167,0.077,0.225,0.136c0.058,0.059,0.087,0.137,0.087,0.232c0,0.12-0.054,0.221-0.162,0.301    c-0.108,0.08-0.248,0.121-0.42,0.121c-0.125,0-0.227-0.02-0.304-0.06s-0.137-0.091-0.179-0.152    c-0.043-0.061-0.082-0.138-0.119-0.229c-0.03-0.077-0.066-0.135-0.109-0.174c-0.043-0.039-0.095-0.059-0.156-0.059    c-0.076,0-0.138,0.025-0.187,0.075s-0.073,0.111-0.073,0.181c0,0.122,0.041,0.246,0.122,0.375    c0.082,0.129,0.188,0.232,0.318,0.309c0.184,0.107,0.418,0.161,0.702,0.161c0.237,0,0.441-0.039,0.614-0.118    c0.172-0.078,0.303-0.187,0.393-0.325s0.134-0.294,0.134-0.468c0-0.145-0.026-0.268-0.077-0.367    C47.381,91.664,47.309,91.581,47.216,91.516z" fill="#020507" opacity="0.2"/><path d="M49.869,90.121h-1.85c-0.096,0-0.168,0.022-0.219,0.065    c-0.05,0.043-0.076,0.102-0.076,0.176c0,0.072,0.024,0.13,0.073,0.173c0.049,0.044,0.122,0.066,0.221,0.066h0.635v2.087    c0,0.119,0.027,0.208,0.081,0.267c0.054,0.059,0.124,0.088,0.211,0.088c0.085,0,0.154-0.029,0.208-0.087    c0.053-0.058,0.08-0.148,0.08-0.268v-2.087h0.635c0.099,0,0.174-0.022,0.223-0.066c0.049-0.044,0.075-0.101,0.075-0.173    s-0.025-0.13-0.074-0.174C50.045,90.143,49.97,90.121,49.869,90.121z" fill="#020507" opacity="0.2"/><path d="M52.654,90.072c-0.081,0-0.146,0.028-0.193,0.083c-0.047,0.055-0.072,0.139-0.072,0.25    v1.709l-1.119-1.693c-0.031-0.049-0.062-0.097-0.091-0.143c-0.029-0.046-0.058-0.083-0.086-0.112    c-0.028-0.029-0.061-0.051-0.098-0.069s-0.082-0.026-0.134-0.026c-0.067,0-0.129,0.019-0.186,0.056    c-0.057,0.037-0.099,0.085-0.123,0.144c-0.021,0.053-0.031,0.127-0.031,0.221v2.217c0,0.108,0.025,0.191,0.074,0.248    s0.116,0.085,0.198,0.085c0.08,0,0.145-0.028,0.196-0.084c0.051-0.056,0.076-0.139,0.076-0.249v-1.684l1.092,1.674    c0.031,0.046,0.063,0.091,0.094,0.134c0.031,0.044,0.065,0.082,0.102,0.115c0.037,0.033,0.076,0.056,0.118,0.072    c0.042,0.015,0.089,0.023,0.141,0.023c0.209,0,0.314-0.126,0.314-0.378v-2.26c0-0.111-0.024-0.195-0.073-0.25    S52.738,90.072,52.654,90.072z" fill="#020507" opacity="0.2"/><path d="M55.13,90.615c-0.035-0.093-0.064-0.167-0.087-0.222c-0.023-0.055-0.051-0.107-0.084-0.156    c-0.033-0.049-0.077-0.088-0.131-0.119s-0.122-0.046-0.203-0.046c-0.08,0-0.147,0.015-0.201,0.046s-0.098,0.071-0.131,0.121    c-0.033,0.049-0.065,0.112-0.094,0.187c-0.029,0.075-0.054,0.14-0.075,0.193l-0.735,1.866c-0.03,0.074-0.051,0.133-0.065,0.174    c-0.013,0.042-0.02,0.082-0.02,0.122c0,0.068,0.028,0.129,0.084,0.182c0.056,0.053,0.121,0.08,0.194,0.08    c0.086,0,0.148-0.025,0.186-0.075c0.038-0.05,0.084-0.148,0.137-0.291l0.137-0.368h1.168l0.137,0.361    c0.018,0.045,0.04,0.096,0.066,0.154c0.025,0.058,0.049,0.101,0.072,0.129c0.022,0.028,0.049,0.05,0.082,0.067    c0.033,0.016,0.072,0.025,0.118,0.025c0.078,0,0.146-0.028,0.201-0.083s0.083-0.117,0.083-0.183c0-0.064-0.029-0.167-0.088-0.308    L55.13,90.615z M54.195,91.871l0.425-1.186l0.433,1.186H54.195z" fill="#020507" opacity="0.2"/><path d="M58.779,90.121h-0.18c-0.108,0-0.187,0.01-0.236,0.029c-0.049,0.02-0.085,0.055-0.109,0.106    s-0.05,0.134-0.08,0.249l-0.417,1.574l-0.417-1.574c-0.03-0.115-0.057-0.198-0.08-0.249s-0.06-0.086-0.109-0.106    c-0.049-0.02-0.128-0.029-0.236-0.029h-0.18c-0.111,0-0.199,0.022-0.265,0.066c-0.065,0.044-0.098,0.128-0.098,0.254v2.274    c0,0.111,0.025,0.194,0.074,0.248s0.114,0.081,0.192,0.081c0.081,0,0.146-0.027,0.195-0.082c0.049-0.055,0.074-0.137,0.074-0.247    V90.73l0.461,1.831c0.016,0.06,0.031,0.118,0.046,0.173s0.036,0.106,0.062,0.152c0.026,0.046,0.063,0.083,0.11,0.113    c0.047,0.029,0.104,0.044,0.172,0.044c0.09,0,0.161-0.023,0.212-0.069s0.086-0.097,0.105-0.152s0.044-0.143,0.073-0.262    l0.461-1.831v1.984c0,0.11,0.025,0.192,0.075,0.247s0.113,0.082,0.19,0.082c0.082,0,0.148-0.027,0.197-0.082    s0.073-0.137,0.073-0.247V90.44c0-0.125-0.033-0.21-0.098-0.254C58.979,90.143,58.891,90.121,58.779,90.121z" fill="#020507" opacity="0.2"/><path d="M61.678,92.531h-1.356v-0.817h1.207c0.09,0,0.157-0.021,0.2-0.062    c0.043-0.041,0.065-0.095,0.065-0.16s-0.022-0.118-0.066-0.158c-0.044-0.04-0.11-0.06-0.199-0.06h-1.207V90.57h1.311    c0.093,0,0.162-0.021,0.207-0.062c0.045-0.041,0.068-0.096,0.068-0.164c0-0.067-0.023-0.121-0.068-0.162    c-0.045-0.041-0.114-0.062-0.207-0.062h-1.537c-0.082,0-0.15,0.012-0.203,0.036s-0.092,0.063-0.117,0.116    c-0.025,0.053-0.037,0.121-0.037,0.205v2.16c0,0.125,0.028,0.216,0.083,0.272s0.147,0.084,0.273,0.084h1.582    c0.092,0,0.16-0.021,0.207-0.064c0.047-0.043,0.07-0.097,0.07-0.166c0-0.071-0.023-0.127-0.07-0.17    C61.839,92.553,61.77,92.531,61.678,92.531z" fill="#020507" opacity="0.2"/><path d="M69.185,92.516h-1.18v-2.091c0-0.119-0.027-0.207-0.081-0.266    c-0.054-0.058-0.125-0.087-0.213-0.087c-0.086,0-0.156,0.029-0.209,0.088c-0.053,0.059-0.079,0.147-0.079,0.265v2.213    c0,0.125,0.028,0.216,0.083,0.272c0.055,0.056,0.146,0.084,0.273,0.084h1.405c0.096,0,0.168-0.022,0.218-0.066    c0.049-0.044,0.074-0.101,0.074-0.172c0-0.069-0.025-0.127-0.075-0.172C69.351,92.539,69.279,92.516,69.185,92.516z" fill="#020507" opacity="0.2"/><path d="M71.427,90.615c-0.035-0.093-0.064-0.167-0.087-0.222c-0.023-0.055-0.051-0.107-0.084-0.156    c-0.033-0.049-0.077-0.088-0.131-0.119c-0.054-0.031-0.122-0.046-0.203-0.046c-0.08,0-0.147,0.015-0.201,0.046    s-0.098,0.071-0.131,0.121s-0.065,0.112-0.094,0.187c-0.029,0.075-0.054,0.14-0.075,0.193l-0.735,1.866    c-0.03,0.074-0.051,0.133-0.065,0.174c-0.013,0.042-0.02,0.082-0.02,0.122c0,0.068,0.028,0.129,0.084,0.182s0.121,0.08,0.194,0.08    c0.086,0,0.148-0.025,0.186-0.075c0.038-0.05,0.084-0.148,0.137-0.291l0.137-0.368h1.168l0.137,0.361    c0.018,0.045,0.04,0.096,0.066,0.154c0.026,0.058,0.049,0.101,0.072,0.129c0.022,0.028,0.049,0.05,0.082,0.067    c0.033,0.016,0.072,0.025,0.118,0.025c0.078,0,0.146-0.028,0.201-0.083c0.055-0.055,0.083-0.117,0.083-0.183    c0-0.064-0.029-0.167-0.088-0.308L71.427,90.615z M70.492,91.871l0.425-1.186l0.433,1.186H70.492z" fill="#020507" opacity="0.2"/><path d="M74.584,91.516c-0.092-0.065-0.204-0.121-0.335-0.167c-0.131-0.046-0.278-0.088-0.44-0.125    c-0.129-0.033-0.222-0.057-0.278-0.074s-0.112-0.041-0.167-0.071s-0.098-0.066-0.129-0.108c-0.031-0.042-0.047-0.092-0.047-0.149    c0-0.093,0.046-0.172,0.138-0.238c0.092-0.066,0.213-0.099,0.364-0.099c0.162,0,0.28,0.03,0.353,0.091    c0.073,0.061,0.136,0.146,0.188,0.254c0.041,0.076,0.078,0.13,0.113,0.164s0.085,0.05,0.152,0.05c0.073,0,0.134-0.028,0.183-0.083    s0.073-0.118,0.073-0.187c0-0.076-0.02-0.153-0.059-0.233c-0.039-0.08-0.101-0.156-0.186-0.228s-0.192-0.131-0.32-0.174    c-0.129-0.044-0.281-0.066-0.458-0.066c-0.221,0-0.413,0.033-0.576,0.099s-0.288,0.16-0.374,0.283    c-0.086,0.123-0.129,0.263-0.129,0.421c0,0.166,0.041,0.305,0.122,0.417c0.082,0.112,0.192,0.2,0.331,0.265    c0.139,0.065,0.312,0.121,0.518,0.17c0.154,0.035,0.277,0.069,0.369,0.1s0.167,0.077,0.225,0.136    c0.058,0.059,0.087,0.137,0.087,0.232c0,0.12-0.054,0.221-0.162,0.301c-0.108,0.08-0.248,0.121-0.42,0.121    c-0.125,0-0.227-0.02-0.304-0.06c-0.077-0.04-0.137-0.091-0.179-0.152c-0.043-0.061-0.082-0.138-0.119-0.229    c-0.03-0.077-0.066-0.135-0.109-0.174c-0.043-0.039-0.095-0.059-0.156-0.059c-0.076,0-0.138,0.025-0.187,0.075    s-0.073,0.111-0.073,0.181c0,0.122,0.041,0.246,0.122,0.375c0.082,0.129,0.188,0.232,0.318,0.309    c0.184,0.107,0.418,0.161,0.702,0.161c0.237,0,0.441-0.039,0.613-0.118c0.172-0.078,0.303-0.187,0.393-0.325    c0.09-0.139,0.134-0.294,0.134-0.468c0-0.145-0.026-0.268-0.077-0.367C74.748,91.664,74.676,91.581,74.584,91.516z" fill="#020507" opacity="0.2"/><path d="M77.237,90.121h-1.85c-0.096,0-0.168,0.022-0.219,0.065    c-0.05,0.043-0.075,0.102-0.075,0.176c0,0.072,0.024,0.13,0.073,0.173c0.048,0.044,0.122,0.066,0.221,0.066h0.635v2.087    c0,0.119,0.027,0.208,0.081,0.267c0.054,0.059,0.124,0.088,0.211,0.088c0.085,0,0.154-0.029,0.208-0.087    c0.053-0.058,0.08-0.148,0.08-0.268v-2.087h0.635c0.099,0,0.174-0.022,0.223-0.066c0.049-0.044,0.074-0.101,0.074-0.173    s-0.025-0.13-0.073-0.174C77.412,90.143,77.337,90.121,77.237,90.121z" fill="#020507" opacity="0.2"/><path d="M80.022,90.072c-0.081,0-0.146,0.028-0.193,0.083c-0.048,0.055-0.072,0.139-0.072,0.25    v1.709l-1.119-1.693c-0.031-0.049-0.062-0.097-0.091-0.143s-0.058-0.083-0.086-0.112c-0.028-0.029-0.061-0.051-0.098-0.069    c-0.037-0.017-0.082-0.026-0.134-0.026c-0.067,0-0.129,0.019-0.186,0.056s-0.099,0.085-0.123,0.144    c-0.021,0.053-0.031,0.127-0.031,0.221v2.217c0,0.108,0.025,0.191,0.074,0.248c0.049,0.057,0.116,0.085,0.198,0.085    c0.08,0,0.145-0.028,0.196-0.084s0.076-0.139,0.076-0.249v-1.684l1.092,1.674c0.031,0.046,0.063,0.091,0.094,0.134    c0.031,0.044,0.065,0.082,0.102,0.115c0.037,0.033,0.076,0.056,0.118,0.072c0.042,0.015,0.089,0.023,0.141,0.023    c0.209,0,0.314-0.126,0.314-0.378v-2.26c0-0.111-0.024-0.195-0.073-0.25S80.106,90.072,80.022,90.072z" fill="#020507" opacity="0.2"/><path d="M82.497,90.615c-0.035-0.093-0.064-0.167-0.087-0.222c-0.023-0.055-0.051-0.107-0.084-0.156    c-0.033-0.049-0.077-0.088-0.131-0.119c-0.054-0.031-0.122-0.046-0.203-0.046c-0.08,0-0.147,0.015-0.201,0.046    s-0.098,0.071-0.131,0.121s-0.065,0.112-0.094,0.187c-0.029,0.075-0.054,0.14-0.075,0.193l-0.735,1.866    c-0.03,0.074-0.051,0.133-0.065,0.174c-0.013,0.042-0.02,0.082-0.02,0.122c0,0.068,0.028,0.129,0.084,0.182s0.121,0.08,0.194,0.08    c0.086,0,0.148-0.025,0.186-0.075c0.038-0.05,0.084-0.148,0.137-0.291l0.137-0.368h1.168l0.137,0.361    c0.018,0.045,0.04,0.096,0.066,0.154c0.026,0.058,0.049,0.101,0.072,0.129c0.022,0.028,0.049,0.05,0.082,0.067    c0.033,0.016,0.072,0.025,0.118,0.025c0.078,0,0.146-0.028,0.201-0.083c0.055-0.055,0.083-0.117,0.083-0.183    c0-0.064-0.029-0.167-0.088-0.308L82.497,90.615z M81.562,91.871l0.425-1.186l0.433,1.186H81.562z" fill="#020507" opacity="0.2"/><path d="M86.147,90.121h-0.18c-0.108,0-0.187,0.01-0.236,0.029c-0.049,0.02-0.085,0.055-0.109,0.106    c-0.023,0.051-0.05,0.134-0.08,0.249l-0.417,1.574l-0.417-1.574c-0.03-0.115-0.057-0.198-0.08-0.249    c-0.023-0.051-0.06-0.086-0.109-0.106s-0.128-0.029-0.236-0.029h-0.18c-0.111,0-0.199,0.022-0.265,0.066    c-0.065,0.044-0.098,0.128-0.098,0.254v2.274c0,0.111,0.025,0.194,0.074,0.248c0.05,0.054,0.114,0.081,0.192,0.081    c0.081,0,0.146-0.027,0.195-0.082s0.073-0.137,0.073-0.247V90.73l0.461,1.831c0.016,0.06,0.031,0.118,0.046,0.173    s0.036,0.106,0.062,0.152c0.026,0.046,0.063,0.083,0.11,0.113c0.047,0.029,0.104,0.044,0.172,0.044    c0.09,0,0.161-0.023,0.212-0.069s0.086-0.097,0.105-0.152s0.044-0.143,0.073-0.262l0.461-1.831v1.984    c0,0.11,0.025,0.192,0.074,0.247s0.113,0.082,0.19,0.082c0.082,0,0.148-0.027,0.197-0.082s0.073-0.137,0.073-0.247V90.44    c0-0.125-0.033-0.21-0.098-0.254C86.346,90.143,86.258,90.121,86.147,90.121z" fill="#020507" opacity="0.2"/><path d="M89.046,92.531h-1.356v-0.817h1.207c0.09,0,0.157-0.021,0.2-0.062    c0.043-0.041,0.065-0.095,0.065-0.16s-0.022-0.118-0.066-0.158c-0.044-0.04-0.11-0.06-0.199-0.06h-1.207V90.57h1.311    c0.093,0,0.162-0.021,0.207-0.062c0.045-0.041,0.068-0.096,0.068-0.164c0-0.067-0.023-0.121-0.068-0.162    c-0.045-0.041-0.114-0.062-0.207-0.062h-1.537c-0.082,0-0.15,0.012-0.203,0.036s-0.092,0.063-0.117,0.116    c-0.025,0.053-0.037,0.121-0.037,0.205v2.16c0,0.125,0.028,0.216,0.083,0.272c0.055,0.056,0.146,0.084,0.273,0.084h1.582    c0.092,0,0.16-0.021,0.207-0.064c0.047-0.043,0.07-0.097,0.07-0.166c0-0.071-0.023-0.127-0.07-0.17    C89.206,92.553,89.137,92.531,89.046,92.531z" fill="#020507" opacity="0.2"/><polygon fill="#020507" opacity="0.1" points="93.985,103.282 93.985,97.958 37.665,97.958   "/></g><path d="   M63.921,99.488" fill="none" stroke="#303536" stroke-linecap="round" stroke-linejoin="round" stroke-miterlimit="10" stroke-width="2.3786"/><circle cx="54.444" cy="26" fill="#484E51" r="1.333"/><path d="M69.333,25.333H58.667C58.299,25.333,58,25.632,58,26c0,0.368,0.299,0.667,0.667,0.667h10.667   C69.701,26.667,70,26.368,70,26C70,25.632,69.701,25.333,69.333,25.333z" fill="#484E51"/></g></svg>