<?xml version="1.0" ?><!DOCTYPE svg  PUBLIC '-//W3C//DTD SVG 1.1//EN'  'http://www.w3.org/Graphics/SVG/1.1/DTD/svg11.dtd'><svg enable-background="new 0 0 128 128" id="Слой_1" version="1.1" viewBox="0 0 128 128" xml:space="preserve" xmlns="http://www.w3.org/2000/svg" xmlns:xlink="http://www.w3.org/1999/xlink"><g><circle cx="64" cy="64" fill="#E5E4DE" r="62"/><path d="M113,88.117h-11.163c-1.013,0-1.837-0.824-1.837-1.837v-0.46h1.26v0.46c0,0.318,0.259,0.577,0.577,0.577   H113V88.117z" fill="#34393B"/><path d="M40.363,31.384c-1.225,0-2.208,1.021-2.174,2.257l0.029,1.037l-9.43,23.068   c-0.141,0.344-0.406,0.621-0.742,0.775l-9.624,4.399c-1.297,0.593-2.13,1.897-2.13,3.334l0.014,17.965l3.565-0.457   c0,0,22.176,2.76,22.175,2.79L71.964,87.1V31.384H40.363z M40.392,55.038c0,0.687-0.552,1.244-1.232,1.244h-6.356   c-0.878,0-1.474-0.9-1.139-1.719l6.356-15.549c0.515-1.259,2.371-0.888,2.371,0.475V55.038z" fill="#34393B"/><path d="M109.362,31.384H71.951v56.113l3.364,0.062c0-0.031-0.005-0.061-0.005-0.091   c0-0.217,0.019-0.428,0.032-0.642l20.615-2.112c0.173,0.647,0.738,1.107,1.402,1.107h14.177V33.58   C111.536,32.367,110.563,31.384,109.362,31.384z" fill="#34393B"/><path d="M109.376,31.384H71.964h-0.014H40.377c-1.225,0-2.208,1.021-2.174,2.257l0.029,1.037L28.801,57.75   c-0.14,0.342-0.405,0.618-0.741,0.771l-9.624,4.399c-1.297,0.593-2.13,1.897-2.13,3.334v18.24h2.645   c0.523,0,1.01-0.314,1.183-0.807c1.551-4.407,5.795-7.564,10.681-7.564c6.195,0,11.234,5.089,11.234,11.345   c0,0.031-0.004,0.061-0.005,0.091h29.904h0.014h3.365c0-0.031-0.005-0.061-0.005-0.091c0-5.852,4.715-10.613,10.51-10.613   c4.861,0,8.951,3.354,10.145,7.888c0.167,0.635,0.738,1.078,1.395,1.078h14.177V33.58C111.55,32.367,110.577,31.384,109.376,31.384   z M40.407,55.038c0,0.687-0.552,1.244-1.232,1.244h-6.356c-0.878,0-1.474-0.9-1.139-1.719l6.356-15.549   c0.515-1.259,2.371-0.888,2.371,0.475V55.038z" fill="#42464A"/><path d="M85.834,40.11l-13.175,7.142v15.779l13.175,7.944l13.175-7.944V47.252L85.834,40.11z M97.941,47.526   l-3.919,2.091l-11.915-6.633l3.727-2.02L97.941,47.526z M79.029,44.652l2.296-1.245l12.238,6.812v2.445l-2.45,1.34v-2.625   L79.029,44.652z M85.836,53.986l-11.99-6.525l4.402-2.386l11.886,6.616L85.836,53.986z M73.409,48.079l12.05,6.557v15.237   l-12.05-7.266V48.079z M86.209,69.873V54.638l4.154-2.217v2.849l3.95-2.16v-2.797l3.945-2.105v14.401L86.209,69.873z" fill="#F5CA41"/><ellipse cx="85.834" cy="87.467" fill="#79AAB8" rx="9.06" ry="9.149"/><path d="M107.219,85.82h4.317c0.805,0,1.464-0.62,1.464-1.425v-0.868c0-0.805-0.652-1.457-1.457-1.457h-4.335   c-0.805,0-1.457,0.652-1.457,1.457v0.868C105.752,85.2,106.414,85.82,107.219,85.82z" fill="#34393B"/><ellipse cx="30.817" cy="87.467" fill="#42464A" rx="9.06" ry="9.149"/><path d="M31.542,79.05c2.317,0,4.425,0.886,6.027,2.331c-1.659-1.876-4.065-3.063-6.752-3.063   c-5.004,0-9.06,4.096-9.06,9.149c0,2.713,1.176,5.142,3.033,6.818c-1.431-1.618-2.309-3.746-2.309-6.086   C22.482,83.146,26.538,79.05,31.542,79.05z" fill="#F6FBFB" opacity="0.1"/><path d="M36.844,80.649c1.431,1.618,2.308,3.746,2.308,6.086c0,5.053-4.056,9.149-9.06,9.149   c-2.317,0-4.425-0.886-6.027-2.331c1.659,1.876,4.065,3.063,6.751,3.063c5.004,0,9.06-4.096,9.06-9.149   C39.877,84.754,38.701,82.325,36.844,80.649z" fill="#020507" opacity="0.2"/><path d="M30.817,92.956c-2.998,0-5.436-2.462-5.436-5.489s2.438-5.489,5.436-5.489s5.436,2.462,5.436,5.489   S33.815,92.956,30.817,92.956z" fill="#34393B"/><path d="M31.542,79.05c2.317,0,4.425,0.886,6.027,2.331c-1.659-1.876-4.065-3.063-6.752-3.063   c-5.004,0-9.06,4.096-9.06,9.149c0,2.713,1.176,5.142,3.033,6.818c-1.431-1.618-2.309-3.746-2.309-6.086   C22.482,83.146,26.538,79.05,31.542,79.05z" fill="#F5F7F9" opacity="0.1"/><path d="M30.817,93.322c-3.197,0-5.798-2.627-5.798-5.855s2.601-5.855,5.798-5.855s5.798,2.627,5.798,5.855   S34.014,93.322,30.817,93.322z M30.817,82.344c-2.797,0-5.074,2.298-5.074,5.123s2.276,5.123,5.074,5.123s5.074-2.298,5.074-5.123   S33.614,82.344,30.817,82.344z" fill="#585C60"/><path d="M14.457,84.494h4.335c0.805,0,1.457-0.652,1.457-1.457v-0.868c0-0.805-0.652-1.457-1.457-1.457h-4.335   c-0.805,0-1.457,0.652-1.457,1.457v0.868C13,83.842,13.652,84.494,14.457,84.494z" fill="#34393B"/><path d="M48.62,85.088L43.8,63.226c-0.027-0.124-0.041-0.25-0.041-0.377V39.813c0-0.966,0.784-1.75,1.75-1.75   h17.519c0.966,0,1.75,0.784,1.75,1.75v23.036c0,0.127,0.014,0.253,0.041,0.377l4.654,21.108c0.241,1.092-0.591,2.127-1.709,2.127   H50.329C49.508,86.461,48.797,85.89,48.62,85.088z" fill="#34393B"/><ellipse cx="29.368" cy="86.003" fill="#242527" rx="0.544" ry="0.549"/><ellipse cx="29.368" cy="88.931" fill="#242527" rx="0.544" ry="0.549"/><ellipse cx="32.267" cy="88.931" fill="#242527" rx="0.544" ry="0.549"/><ellipse cx="32.267" cy="86.003" fill="#242527" rx="0.544" ry="0.549"/><ellipse cx="85.834" cy="87.467" fill="#42464A" rx="9.06" ry="9.149"/><path d="M91.861,80.649c1.431,1.618,2.308,3.746,2.308,6.086c0,5.053-4.056,9.149-9.06,9.149   c-2.317,0-4.425-0.886-6.027-2.331c1.659,1.876,4.065,3.063,6.751,3.063c5.004,0,9.06-4.096,9.06-9.149   C94.894,84.754,93.718,82.325,91.861,80.649z" fill="#020507" opacity="0.2"/><path d="M85.834,92.956c-2.998,0-5.436-2.462-5.436-5.489s2.438-5.489,5.436-5.489c2.998,0,5.436,2.462,5.436,5.489   S88.832,92.956,85.834,92.956z" fill="#34393B"/><path d="M86.559,79.05c2.317,0,4.425,0.886,6.027,2.331c-1.659-1.876-4.065-3.063-6.752-3.063   c-5.004,0-9.06,4.096-9.06,9.149c0,2.713,1.176,5.142,3.033,6.818c-1.431-1.618-2.309-3.746-2.309-6.086   C77.499,83.146,81.555,79.05,86.559,79.05z" fill="#F5F7F9" opacity="0.1"/><path d="M85.834,93.322c-3.197,0-5.798-2.627-5.798-5.855s2.601-5.855,5.798-5.855s5.798,2.627,5.798,5.855   S89.031,93.322,85.834,93.322z M85.834,82.344c-2.797,0-5.074,2.298-5.074,5.123s2.276,5.123,5.074,5.123   c2.797,0,5.074-2.298,5.074-5.123S88.631,82.344,85.834,82.344z" fill="#585C60"/><ellipse cx="84.385" cy="86.003" fill="#242527" rx="0.544" ry="0.549"/><ellipse cx="84.385" cy="88.931" fill="#242527" rx="0.544" ry="0.549"/><ellipse cx="87.284" cy="88.931" fill="#242527" rx="0.544" ry="0.549"/><ellipse cx="87.284" cy="86.003" fill="#242527" rx="0.544" ry="0.549"/><path d="M15.947,76.58h0.346v-6.496h-0.346c-0.251,0-0.455,0.204-0.455,0.455v5.586   C15.492,76.376,15.695,76.58,15.947,76.58z" fill="#34393B"/><path d="M15.492,76.122c-0.762-1.914-0.929-3.786,0-5.581V76.122z" fill="#F5CA41"/><ellipse cx="21.924" cy="71.731" fill="#F5CA41" rx="1.087" ry="1.098"/></g></svg>