<?xml version="1.0" ?><!DOCTYPE svg  PUBLIC '-//W3C//DTD SVG 1.1//EN'  'http://www.w3.org/Graphics/SVG/1.1/DTD/svg11.dtd'><svg enable-background="new 0 0 128 128" id="Слой_1" version="1.1" viewBox="0 0 128 128" xml:space="preserve" xmlns="http://www.w3.org/2000/svg" xmlns:xlink="http://www.w3.org/1999/xlink"><g><circle cx="64" cy="64" fill="#E5E4DE" r="62"/><path d="M26.147,58.333l-2.354-0.859c-0.612-0.223-0.927-0.9-0.704-1.512l7.529-20.636   c0.223-0.612,0.9-0.927,1.512-0.704l2.354,0.859c0.612,0.223,0.927,0.9,0.704,1.512L27.66,57.629   C27.436,58.241,26.759,58.556,26.147,58.333z" fill="#42464A"/><path d="M48.21,57.475l-2.354,0.861c-0.612,0.224-1.289-0.091-1.513-0.702l-7.55-20.633   c-0.224-0.612,0.091-1.289,0.702-1.513l2.354-0.861c0.612-0.224,1.289,0.091,1.513,0.702l7.55,20.633   C49.136,56.574,48.822,57.251,48.21,57.475z" fill="#42464A"/><path d="M44.469,57.98c0.154,0.421,0.62,0.637,1.04,0.483l3.046-1.115   c0.421-0.154,0.637-0.62,0.483-1.04l-1.483-4.052h-5.182L44.469,57.98z" fill="#020507" opacity="0.2"/><path d="M22.963,56.308c-0.153,0.421,0.063,0.886,0.484,1.04l3.047,1.112   c0.421,0.153,0.886-0.063,1.04-0.484l2.086-5.719h-5.179L22.963,56.308z" fill="#020507" opacity="0.2"/><path d="M62.125,53.631H9.875c-0.759,0-1.375,0.616-1.375,1.375v4.125c0,0.759,0.616,1.375,1.375,1.375h2.073   l3.051,24.407c0.215,1.72,1.677,3.011,3.411,3.011H53.59c1.734,0,3.196-1.291,3.411-3.011l3.051-24.407h2.073   c0.759,0,1.375-0.616,1.375-1.375v-4.125C63.5,54.247,62.884,53.631,62.125,53.631z M27.062,80.73c0,0.759-0.616,1.375-1.375,1.375   c-0.759,0-1.375-0.616-1.375-1.375V66.293c0-0.759,0.616-1.375,1.375-1.375c0.759,0,1.375,0.616,1.375,1.375V80.73z M37.375,80.73   c0,0.759-0.616,1.375-1.375,1.375s-1.375-0.616-1.375-1.375V66.293c0-0.759,0.616-1.375,1.375-1.375s1.375,0.616,1.375,1.375V80.73   z M47.687,80.73c0,0.759-0.616,1.375-1.375,1.375c-0.759,0-1.375-0.616-1.375-1.375V66.293c0-0.759,0.616-1.375,1.375-1.375   c0.759,0,1.375,0.616,1.375,1.375V80.73z" fill="#ECC649"/><path d="M62.125,53.631H9.875c-0.759,0-1.375,0.616-1.375,1.375v4.125c0,0.759,0.616,1.375,1.375,1.375h2.073   l3.051,24.407c0.215,1.72,1.677,3.011,3.411,3.011H53.59c1.734,0,3.196-1.291,3.411-3.011l3.051-24.407h2.073   c0.759,0,1.375-0.616,1.375-1.375v-4.125C63.5,54.247,62.884,53.631,62.125,53.631z M27.062,80.73c0,0.759-0.616,1.375-1.375,1.375   c-0.759,0-1.375-0.616-1.375-1.375V66.293c0-0.759,0.616-1.375,1.375-1.375c0.759,0,1.375,0.616,1.375,1.375V80.73z M37.375,80.73   c0,0.759-0.616,1.375-1.375,1.375s-1.375-0.616-1.375-1.375V66.293c0-0.759,0.616-1.375,1.375-1.375s1.375,0.616,1.375,1.375V80.73   z M47.687,80.73c0,0.759-0.616,1.375-1.375,1.375c-0.759,0-1.375-0.616-1.375-1.375V66.293c0-0.759,0.616-1.375,1.375-1.375   c0.759,0,1.375,0.616,1.375,1.375V80.73z" fill="#F5CA41"/><path d="M14.001,60.549l-2.053-0.043l3.051,24.407c0.184,1.469,1.279,2.617,2.674,2.924   c-0.317-0.448-0.539-0.971-0.611-1.549L14.001,60.549z" fill="#F5F8F7" opacity="0.2"/><path d="M9.875,53.631c-0.759,0-1.375,0.616-1.375,1.375v4.125c0,0.759,0.616,1.375,1.375,1.375   h0.687v-5.5c0-0.759,0.616-1.375,1.375-1.375" fill="#F5F8F7" opacity="0.2"/><path d="M62.125,53.631h-0.688v5.5c0,0.759-0.616,1.375-1.375,1.375h2.063   c0.759,0,1.375-0.616,1.375-1.375v-4.125C63.5,54.247,62.884,53.631,62.125,53.631z" fill="#020507" opacity="0.1"/><path d="M60.062,60.424H11.937l0,0l45.696,2.77l-2.695,21.718c-0.215,1.72-1.677,3.011-3.411,3.011   h2.062c1.734,0,3.196-1.291,3.411-3.011l3.051-24.407l0,0L60.062,60.424z" fill="#020507" opacity="0.1"/><circle cx="24.967" cy="57.487" fill="#42464A" r="1.719"/><path d="M48.691,57.06c0.308,1.28-0.815,2.403-2.095,2.095c-0.601-0.145-1.095-0.638-1.24-1.24   c-0.308-1.28,0.815-2.403,2.095-2.095C48.053,55.965,48.546,56.458,48.691,57.06z" fill="#42464A"/><path d="M82.147,58.333l-2.354-0.859c-0.612-0.223-0.927-0.9-0.704-1.512l7.529-20.636   c0.223-0.612,0.9-0.927,1.512-0.704l2.354,0.859c0.612,0.223,0.927,0.9,0.704,1.512L83.66,57.629   C83.436,58.241,82.759,58.556,82.147,58.333z" fill="#42464A"/><path d="M104.21,57.475l-2.354,0.861c-0.612,0.224-1.289-0.091-1.513-0.702l-7.55-20.633   c-0.224-0.612,0.091-1.289,0.702-1.513l2.354-0.861c0.612-0.224,1.289,0.091,1.513,0.702l7.55,20.633   C105.136,56.574,104.822,57.251,104.21,57.475z" fill="#42464A"/><path d="M100.469,57.98c0.154,0.421,0.62,0.637,1.04,0.483l3.046-1.115   c0.421-0.154,0.637-0.62,0.483-1.04l-1.483-4.052h-5.182L100.469,57.98z" fill="#020507" opacity="0.2"/><path d="M78.963,56.308c-0.153,0.421,0.063,0.886,0.484,1.04l3.047,1.112   c0.421,0.153,0.886-0.063,1.04-0.484l2.086-5.719h-5.179L78.963,56.308z" fill="#020507" opacity="0.2"/><path d="M118.125,53.631h-52.25c-0.759,0-1.375,0.616-1.375,1.375v4.125c0,0.759,0.616,1.375,1.375,1.375h2.073   l3.051,24.407c0.215,1.72,1.677,3.011,3.411,3.011h35.181c1.734,0,3.196-1.291,3.411-3.011l3.051-24.407h2.073   c0.759,0,1.375-0.616,1.375-1.375v-4.125C119.5,54.247,118.884,53.631,118.125,53.631z M83.062,80.73   c0,0.759-0.616,1.375-1.375,1.375c-0.759,0-1.375-0.616-1.375-1.375V66.293c0-0.759,0.616-1.375,1.375-1.375   c0.759,0,1.375,0.616,1.375,1.375V80.73z M93.375,80.73c0,0.759-0.616,1.375-1.375,1.375s-1.375-0.616-1.375-1.375V66.293   c0-0.759,0.616-1.375,1.375-1.375s1.375,0.616,1.375,1.375V80.73z M103.687,80.73c0,0.759-0.616,1.375-1.375,1.375   c-0.759,0-1.375-0.616-1.375-1.375V66.293c0-0.759,0.616-1.375,1.375-1.375c0.759,0,1.375,0.616,1.375,1.375V80.73z" fill="#41B19C"/><path d="M70.001,60.549l-2.053-0.043l3.051,24.407c0.184,1.469,1.279,2.617,2.674,2.924   c-0.317-0.448-0.539-0.971-0.611-1.549L70.001,60.549z" fill="#F5F8F7" opacity="0.2"/><path d="M65.875,53.631c-0.759,0-1.375,0.616-1.375,1.375v4.125c0,0.759,0.616,1.375,1.375,1.375   h0.687v-5.5c0-0.759,0.616-1.375,1.375-1.375" fill="#F5F8F7" opacity="0.2"/><path d="M118.125,53.631h-0.688v5.5c0,0.759-0.616,1.375-1.375,1.375h2.063   c0.759,0,1.375-0.616,1.375-1.375v-4.125C119.5,54.247,118.884,53.631,118.125,53.631z" fill="#020507" opacity="0.1"/><path d="M116.062,60.424H67.937l0,0l45.696,2.77l-2.695,21.718c-0.215,1.72-1.677,3.011-3.411,3.011   h2.062c1.734,0,3.196-1.291,3.411-3.011l3.051-24.407l0,0L116.062,60.424z" fill="#020507" opacity="0.1"/><circle cx="80.967" cy="57.487" fill="#42464A" r="1.719"/><path d="M104.691,57.06c0.308,1.28-0.815,2.403-2.095,2.095c-0.601-0.145-1.095-0.638-1.24-1.24   c-0.308-1.28,0.815-2.403,2.095-2.095C104.053,55.965,104.546,56.458,104.691,57.06z" fill="#42464A"/><path d="M64.5,55.006v4.125c0,0.759,0.616,1.375,1.375,1.375h2.073l3.051,24.407   c0.215,1.72,1.677,3.011,3.411,3.011h19.625l3.226-25.809c2.614-0.006,4.739-2.135,4.739-4.75v-3.734H65.875   C65.116,53.631,64.5,54.247,64.5,55.006z M90.625,66.293c0-0.759,0.616-1.375,1.375-1.375s1.375,0.616,1.375,1.375V80.73   c0,0.759-0.616,1.375-1.375,1.375s-1.375-0.616-1.375-1.375V66.293z M80.312,66.293c0-0.759,0.616-1.375,1.375-1.375   c0.759,0,1.375,0.616,1.375,1.375V80.73c0,0.759-0.616,1.375-1.375,1.375c-0.759,0-1.375-0.616-1.375-1.375V66.293z" fill="#020507" opacity="0.1"/><path d="M57.001,84.913l3.051-24.407h2.073c0.759,0,1.375-0.616,1.375-1.375v-4.125   c0-0.759-0.616-1.375-1.375-1.375H26v3.734c0,2.615,2.125,4.744,4.739,4.75l3.226,25.809H53.59   C55.324,87.924,56.786,86.633,57.001,84.913z M37.375,80.73c0,0.759-0.616,1.375-1.375,1.375s-1.375-0.616-1.375-1.375V66.293   c0-0.759,0.616-1.375,1.375-1.375s1.375,0.616,1.375,1.375V80.73z M47.687,80.73c0,0.759-0.616,1.375-1.375,1.375   c-0.759,0-1.375-0.616-1.375-1.375V66.293c0-0.759,0.616-1.375,1.375-1.375c0.759,0,1.375,0.616,1.375,1.375V80.73z" fill="#020507" opacity="0.1"/><path d="M51.762,56.459l-3.601-1.314c-0.612-0.223-0.927-0.9-0.704-1.512l9.803-26.869   c0.223-0.612,0.9-0.927,1.512-0.704l3.601,1.314c0.612,0.223,0.927,0.9,0.704,1.512l-9.803,26.869   C53.051,56.367,52.374,56.682,51.762,56.459z" fill="#42464A"/><path d="M79.842,55.147l-3.6,1.317c-0.612,0.224-1.289-0.091-1.513-0.702l-9.83-26.864   c-0.224-0.612,0.091-1.289,0.702-1.513l3.6-1.317c0.612-0.224,1.289,0.091,1.513,0.702l9.83,26.864   C80.768,54.246,80.454,54.923,79.842,55.147z" fill="#42464A"/><path d="M74.779,55.901c0.196,0.535,0.789,0.811,1.324,0.615l3.877-1.419   c0.535-0.196,0.811-0.789,0.615-1.324l-1.887-5.157h-6.595L74.779,55.901z" fill="#020507" opacity="0.2"/><path d="M47.407,53.772c-0.195,0.535,0.08,1.128,0.616,1.323l3.878,1.415   c0.535,0.195,1.128-0.08,1.323-0.616l2.655-7.279h-6.591L47.407,53.772z" fill="#020507" opacity="0.2"/><path d="M97.25,50.365h-66.5c-0.966,0-1.75,0.784-1.75,1.75v5.25c0,0.967,0.784,1.75,1.75,1.75h2.638l3.883,31.063   c0.274,2.189,2.135,3.832,4.341,3.832h44.776c2.206,0,4.068-1.643,4.341-3.832l3.883-31.063h2.638c0.966,0,1.75-0.783,1.75-1.75   v-5.25C99,51.149,98.216,50.365,97.25,50.365z M52.625,84.855c0,0.966-0.784,1.75-1.75,1.75s-1.75-0.784-1.75-1.75V66.48   c0-0.967,0.784-1.75,1.75-1.75s1.75,0.783,1.75,1.75V84.855z M65.75,84.855c0,0.966-0.784,1.75-1.75,1.75s-1.75-0.784-1.75-1.75   V66.48c0-0.967,0.784-1.75,1.75-1.75s1.75,0.783,1.75,1.75V84.855z M78.875,84.855c0,0.966-0.784,1.75-1.75,1.75   s-1.75-0.784-1.75-1.75V66.48c0-0.967,0.784-1.75,1.75-1.75s1.75,0.783,1.75,1.75V84.855z" fill="#C45C45"/><path d="M36.001,59.17l-2.613-0.055l3.883,31.063c0.234,1.869,1.628,3.331,3.403,3.721   c-0.403-0.571-0.686-1.235-0.778-1.971L36.001,59.17z" fill="#F5F8F7" opacity="0.2"/><path d="M30.75,50.365c-0.966,0-1.75,0.784-1.75,1.75v5.25c0,0.967,0.784,1.75,1.75,1.75h0.875v-7   c0-0.966,0.784-1.75,1.75-1.75" fill="#F5F8F7" opacity="0.2"/><path d="M97.25,50.365h-0.875v7c0,0.967-0.784,1.75-1.75,1.75h2.625c0.966,0,1.75-0.783,1.75-1.75   v-5.25C99,51.149,98.216,50.365,97.25,50.365z" fill="#020507" opacity="0.1"/><path d="M94.625,59.011h-61.25l0,0l58.159,3.526l-3.43,27.642c-0.274,2.189-2.135,3.832-4.341,3.832   h2.625c2.206,0,4.068-1.643,4.341-3.832l3.883-31.063l0,0L94.625,59.011z" fill="#020507" opacity="0.1"/><circle cx="49.958" cy="55.273" fill="#42464A" r="2.188"/><path d="M80.152,54.729c0.393,1.629-1.037,3.059-2.666,2.666c-0.765-0.185-1.393-0.812-1.578-1.578   c-0.393-1.629,1.037-3.059,2.666-2.666C79.34,53.336,79.968,53.963,80.152,54.729z" fill="#42464A"/></g></svg>