<?xml version="1.0" ?><!DOCTYPE svg  PUBLIC '-//W3C//DTD SVG 1.1//EN'  'http://www.w3.org/Graphics/SVG/1.1/DTD/svg11.dtd'><svg enable-background="new 0 0 128 128" id="Слой_1" version="1.1" viewBox="0 0 128 128" xml:space="preserve" xmlns="http://www.w3.org/2000/svg" xmlns:xlink="http://www.w3.org/1999/xlink"><g><circle cx="64" cy="64" fill="#E5E4DE" r="62"/><path d="M91,36.583V25.75H37v10.833l-3,2.667V41h60v-1.75L91,36.583z" fill="#F5CA41"/><path d="M94,39.25H34v62c0,0.552,0.448,1,1,1h58c0.552,0,1-0.448,1-1V39.25z" fill="#41B19C"/><polygon fill="#48AA97" points="37,25.75 37,36.583 43,31.25  "/><polygon fill="#41B19C" points="91,25.75 91,36.583 85,31.25  "/><polygon fill="#020507" opacity="0.15" points="34,39.25 43,31.25 43,39.25  "/><polygon fill="#41B19C" points="37,25.75 37,36.583 43,31.25  "/><polygon fill="#020507" opacity="0.15" points="94,39.25 85,31.25 85,39.25  "/><circle cx="46.857" cy="47.107" fill="#42464A" r="2.857"/><circle cx="81.143" cy="47.107" fill="#42464A" r="2.857"/><path d="M81.143,46.125c-0.553,0-1,0.447-1,1v3.982C80.143,60.239,72.6,68.25,64,68.25s-16.143-8.011-16.143-17.143   v-3.982c0-0.553-0.447-1-1-1s-1,0.447-1,1v3.982c0,10.376,8.309,19.143,18.143,19.143s18.143-8.767,18.143-19.143v-3.982   C82.143,46.572,81.695,46.125,81.143,46.125z" fill="#FEFFFF"/></g></svg>