<?xml version="1.0" ?><!DOCTYPE svg  PUBLIC '-//W3C//DTD SVG 1.1//EN'  'http://www.w3.org/Graphics/SVG/1.1/DTD/svg11.dtd'><svg enable-background="new 0 0 128 128" id="Слой_1" version="1.1" viewBox="0 0 128 128" xml:space="preserve" xmlns="http://www.w3.org/2000/svg" xmlns:xlink="http://www.w3.org/1999/xlink"><g><path d="M7.548,38.328C3.985,46.15,2,54.843,2,64c0,34.242,27.758,62,62,62s62-27.758,62-62   c0-9.072-1.949-17.69-5.45-25.456C110.836,16.998,17.309,16.898,7.548,38.328z" fill="#62C8CF"/><circle cx="64" cy="75" fill="#F5CA41" r="30"/><path d="M64,48.333c-14.704,0-26.667,11.963-26.667,26.667S49.296,101.667,64,101.667   S90.667,89.704,90.667,75S78.704,48.333,64,48.333z" fill="#F5F8F8" opacity="0.3"/><path d="M64,48.333c-14.704,0-26.667,11.963-26.667,26.667c0,7.606,3.206,14.473,8.331,19.335   C41.126,89.552,38.333,83.098,38.333,76c0-14.704,11.963-26.667,26.667-26.667c7.098,0,13.552,2.793,18.336,7.331   C78.473,51.539,71.606,48.333,64,48.333z" fill="#020507" opacity="0.1"/><path d="M82.336,55.664c4.538,4.783,7.331,11.237,7.331,18.336c0,14.704-11.963,26.667-26.667,26.667   c-7.098,0-13.552-2.793-18.336-7.331c4.863,5.125,11.73,8.331,19.336,8.331c14.704,0,26.667-11.963,26.667-26.667   C90.667,67.394,87.461,60.527,82.336,55.664z" fill="#F5F8F8" opacity="0.3"/><path d="M64.152,41.972c6.627,0,12-5.373,12-12L72.519,2.597C69.732,2.214,66.892,2,64,2   c-2.785,0-5.522,0.202-8.209,0.558l-3.638,27.415C52.152,36.6,57.525,41.972,64.152,41.972z" fill="#C45C45"/><path d="M40.152,41.972c6.627,0,12-5.373,12-12l3.638-27.415C49.055,3.449,42.66,5.411,36.787,8.285l-8.635,21.688   C28.152,36.6,33.525,41.972,40.152,41.972z" fill="#FEFFFF"/><path d="M28.152,29.972l8.635-21.688c-12.892,6.309-23.26,16.962-29.222,30.05c2.18,2.238,5.217,3.637,8.587,3.637   C22.78,41.972,28.152,36.6,28.152,29.972z" fill="#C45C45"/><path d="M88.152,41.972c6.627,0,12-5.373,12-12L91.595,8.48c-5.889-2.933-12.307-4.953-19.076-5.883l3.633,27.375   C76.152,36.6,81.525,41.972,88.152,41.972z" fill="#FEFFFF"/><path d="M112.152,41.972c3.263,0,6.218-1.307,8.381-3.42C114.646,25.495,104.38,14.847,91.595,8.48l8.557,21.492   C100.152,36.6,105.525,41.972,112.152,41.972z" fill="#C45C45"/><path d="M64.152,41.972c6.627,0,12-5.373,12-12h-24C52.152,36.6,57.525,41.972,64.152,41.972z" fill="#020507" opacity="0.1"/><path d="M40.152,41.972c6.627,0,12-5.373,12-12h-24C28.152,36.6,33.525,41.972,40.152,41.972z" fill="#020507" opacity="0.1"/><path d="M12.006,29.972c-1.702,2.637-3.208,5.41-4.506,8.301c0.021,0.022,0.044,0.04,0.065,0.062   c1.328-2.915,2.87-5.71,4.615-8.363H12.006z" fill="#020507" opacity="0.1"/><path d="M28.152,29.972H12.18c-1.745,2.652-3.287,5.448-4.615,8.363   c2.18,2.238,5.217,3.637,8.587,3.637C22.78,41.972,28.152,36.6,28.152,29.972z" fill="#020507" opacity="0.1"/><path d="M88.152,41.972c6.627,0,12-5.373,12-12h-24C76.152,36.6,81.525,41.972,88.152,41.972z" fill="#020507" opacity="0.1"/><path d="M120.599,38.493c-1.319-2.97-2.86-5.817-4.604-8.52h-0.174   c1.788,2.718,3.364,5.586,4.713,8.58C120.554,38.531,120.578,38.513,120.599,38.493z" fill="#020507" opacity="0.1"/><path d="M112.152,41.972c3.263,0,6.218-1.307,8.381-3.42c-1.35-2.993-2.925-5.862-4.713-8.58h-15.668   C100.152,36.6,105.525,41.972,112.152,41.972z" fill="#020507" opacity="0.1"/><path d="M69.42,75.254c-0.87-0.563-1.865-1.018-2.958-1.35c-0.909-0.275-1.838-0.544-2.793-0.807   c-0.846-0.231-1.685-0.511-2.497-0.832c-0.635-0.25-1.199-0.586-1.676-1c-0.406-0.351-0.748-0.824-1.015-1.407   c-0.177-0.386-0.388-1.111-0.388-2.375c0-0.658,0.118-1.311,0.35-1.94c0.222-0.602,0.559-1.144,1.001-1.614   c0.445-0.473,1.035-0.865,1.753-1.164c0.749-0.312,1.654-0.47,2.692-0.47c1.04,0,1.932,0.164,2.651,0.486   c0.689,0.309,1.257,0.724,1.689,1.232c0.448,0.529,0.79,1.156,1.017,1.862c0.252,0.789,1.1,1.224,1.886,0.971   c0.789-0.252,1.224-1.097,0.971-1.886c-0.347-1.084-0.88-2.055-1.585-2.887c-0.724-0.853-1.649-1.536-2.75-2.03   c-0.712-0.319-1.514-0.526-2.378-0.641v-1.068c0-0.829-0.671-1.5-1.5-1.5s-1.5,0.671-1.5,1.5v1.064   c-0.846,0.109-1.636,0.301-2.348,0.597c-1.11,0.464-2.047,1.095-2.781,1.876c-0.721,0.765-1.27,1.65-1.632,2.632   c-0.355,0.962-0.536,1.964-0.536,2.979c0,1.449,0.223,2.669,0.662,3.626c0.448,0.977,1.047,1.793,1.779,2.425   c0.733,0.635,1.587,1.147,2.539,1.522c0.911,0.36,1.854,0.674,2.803,0.934c0.927,0.255,1.832,0.517,2.716,0.785   c0.825,0.25,1.564,0.586,2.197,0.997c0.616,0.399,1.126,0.927,1.517,1.568c0.4,0.657,0.603,1.544,0.603,2.636   c0,0.788-0.116,1.546-0.345,2.252c-0.222,0.685-0.566,1.291-1.022,1.801c-0.438,0.489-1.014,0.882-1.711,1.169   c-0.7,0.288-1.553,0.434-2.535,0.434c-0.847,0-1.649-0.118-2.385-0.352c-0.716-0.227-1.359-0.598-1.913-1.105   c-0.57-0.521-1.046-1.218-1.417-2.07c-0.33-0.759-1.211-1.108-1.974-0.777c-0.76,0.331-1.108,1.214-0.777,1.974   c0.54,1.242,1.261,2.28,2.143,3.087c0.877,0.804,1.898,1.393,3.032,1.752c0.447,0.142,0.912,0.247,1.386,0.328v1.199   c0,0.829,0.671,1.5,1.5,1.5s1.5-0.671,1.5-1.5v-1.089c0.941-0.088,1.807-0.288,2.581-0.606c1.12-0.461,2.064-1.115,2.806-1.944   c0.736-0.823,1.288-1.791,1.641-2.876c0.326-1.006,0.491-2.075,0.491-3.177c0-1.65-0.35-3.062-1.041-4.196   C71.24,76.75,70.417,75.901,69.42,75.254z" fill="#42464A"/></g></svg>