<?xml version="1.0" ?><!DOCTYPE svg  PUBLIC '-//W3C//DTD SVG 1.1//EN'  'http://www.w3.org/Graphics/SVG/1.1/DTD/svg11.dtd'><svg enable-background="new 0 0 128 128" id="Слой_1" version="1.1" viewBox="0 0 128 128" xml:space="preserve" xmlns="http://www.w3.org/2000/svg" xmlns:xlink="http://www.w3.org/1999/xlink"><g><path d="M7.548,38.327C3.985,46.15,2,54.843,2,64c0,34.242,27.758,62,62,62s62-27.758,62-62   c0-9.07-1.948-17.686-5.448-25.451C110.839,17,17.31,16.897,7.548,38.327z" fill="#62C8CF"/><path d="M66.348,44.572c-0.062-0.066-0.133-0.122-0.212-0.167c-1.344-0.764-3.003-0.646-4.227,0.3   c-0.057,0.043-0.108,0.094-0.153,0.149L31.582,82.388c-0.315,0.392-0.252,0.965,0.139,1.281c0.168,0.135,0.37,0.201,0.57,0.201   c0.266,0,0.53-0.116,0.71-0.34l30.101-37.441c0.597-0.417,1.369-0.478,2.024-0.157l27.947,29.61   c0.346,0.367,0.922,0.382,1.287,0.037c0.366-0.345,0.382-0.921,0.037-1.287L66.348,44.572z" fill="#42464A"/><path d="M98.848,72.448c-0.257-1.995-2.084-3.404-4.079-3.147l-65.034,8.389c-1.995,0.257-3.404,2.084-3.147,4.079   l2.563,19.871c0.257,1.995,2.084,3.404,4.079,3.147l65.034-8.389c1.995-0.257,3.404-2.084,3.147-4.079L98.848,72.448z" fill="#F5CA41"/><rect fill="#F8F9F9" height="65.573" opacity="0.5" transform="matrix(-0.1279 -0.9918 0.9918 -0.1279 -14.1407 161.6536)" width="20.036" x="53.982" y="54.257"/><g><path d="M42.064,82.749c1.476-0.19,2.779-0.055,3.914,0.407c1.136,0.462,2.046,1.209,2.731,2.242    c0.685,1.032,1.124,2.293,1.315,3.781c0.143,1.1,0.122,2.119-0.06,3.056c-0.181,0.938-0.527,1.774-1.037,2.511    s-1.176,1.335-1.998,1.795c-0.821,0.462-1.792,0.765-2.911,0.909c-1.112,0.144-2.131,0.092-3.058-0.153    c-0.926-0.245-1.726-0.656-2.398-1.233c-0.673-0.578-1.219-1.305-1.638-2.187c-0.419-0.879-0.698-1.852-0.836-2.919    c-0.142-1.094-0.113-2.117,0.083-3.069s0.55-1.788,1.062-2.504c0.513-0.717,1.174-1.301,1.983-1.751    C40.029,83.183,40.978,82.889,42.064,82.749z M47.103,89.537c-0.135-1.043-0.419-1.922-0.854-2.642    c-0.435-0.72-0.989-1.235-1.665-1.547c-0.674-0.31-1.416-0.414-2.225-0.31c-0.575,0.074-1.094,0.251-1.554,0.531    c-0.461,0.281-0.841,0.649-1.14,1.109c-0.299,0.459-0.509,1.023-0.63,1.694c-0.12,0.67-0.129,1.406-0.025,2.208    c0.104,0.809,0.301,1.526,0.589,2.153c0.287,0.626,0.645,1.132,1.073,1.514c0.427,0.383,0.896,0.649,1.404,0.801    c0.51,0.15,1.052,0.189,1.628,0.114c0.737-0.095,1.392-0.366,1.962-0.815c0.569-0.449,0.988-1.081,1.254-1.898    C47.188,91.633,47.248,90.662,47.103,89.537z" fill="#42464A"/><path d="M58.216,89.741l-2.639,0.34l0.519,4.026c0.075,0.576-0.005,1.03-0.237,1.363    c-0.233,0.332-0.558,0.524-0.972,0.578c-0.434,0.056-0.802-0.047-1.104-0.305c-0.304-0.261-0.491-0.676-0.564-1.245l-1.415-10.964    c-0.081-0.635,0.006-1.105,0.262-1.416c0.256-0.309,0.701-0.503,1.335-0.585l3.696-0.477c1.094-0.141,1.945-0.167,2.556-0.074    c0.604,0.087,1.141,0.291,1.612,0.612c0.473,0.319,0.854,0.738,1.144,1.252s0.479,1.112,0.566,1.791    c0.187,1.45-0.118,2.605-0.914,3.468C61.264,88.967,59.982,89.513,58.216,89.741z M56.677,83.31l-1.941,0.25l0.562,4.347    l1.94-0.25c0.68-0.087,1.237-0.232,1.675-0.433c0.438-0.202,0.756-0.479,0.954-0.833c0.197-0.354,0.262-0.793,0.194-1.317    c-0.081-0.628-0.331-1.115-0.751-1.462C58.842,83.245,57.964,83.144,56.677,83.31z" fill="#42464A"/><path d="M74.489,81.072l-6.491,0.837l0.45,3.492l5.978-0.771c0.439-0.057,0.78,0,1.022,0.17    c0.242,0.169,0.384,0.415,0.426,0.738s-0.031,0.601-0.218,0.833c-0.187,0.231-0.504,0.375-0.95,0.433l-5.978,0.771l0.522,4.046    l6.714-0.866c0.453-0.059,0.808,0.002,1.064,0.184c0.257,0.18,0.408,0.445,0.453,0.795c0.043,0.336-0.037,0.623-0.239,0.864    c-0.202,0.24-0.53,0.389-0.983,0.447l-7.83,1.01c-0.627,0.081-1.096,0-1.407-0.244c-0.311-0.242-0.506-0.673-0.586-1.294    l-1.379-10.692c-0.054-0.414-0.036-0.761,0.053-1.039c0.09-0.278,0.258-0.493,0.504-0.646c0.247-0.154,0.574-0.256,0.981-0.308    l7.607-0.981c0.459-0.059,0.813-0.001,1.062,0.173c0.249,0.175,0.396,0.427,0.438,0.757c0.043,0.336-0.034,0.621-0.23,0.853    C75.276,80.868,74.948,81.013,74.489,81.072z" fill="#42464A"/><path d="M82.03,79.349l6.621,7.669l-1.092-8.461c-0.07-0.55-0.006-0.977,0.195-1.283    c0.2-0.305,0.502-0.484,0.902-0.536c0.414-0.053,0.759,0.042,1.033,0.286c0.274,0.245,0.447,0.641,0.519,1.191l1.443,11.188    c0.161,1.248-0.276,1.939-1.312,2.073c-0.259,0.033-0.496,0.026-0.712-0.021c-0.218-0.048-0.427-0.141-0.628-0.278    c-0.202-0.139-0.396-0.307-0.578-0.502c-0.184-0.198-0.367-0.399-0.552-0.606l-6.473-7.588l1.075,8.334    c0.069,0.543-0.004,0.971-0.22,1.281c-0.217,0.311-0.522,0.491-0.917,0.542c-0.408,0.053-0.752-0.046-1.034-0.295    s-0.458-0.643-0.527-1.18L78.36,80.188c-0.061-0.466-0.056-0.838,0.014-1.117c0.085-0.307,0.258-0.57,0.52-0.792    c0.261-0.221,0.556-0.353,0.886-0.395c0.259-0.034,0.486-0.02,0.681,0.04c0.195,0.06,0.372,0.152,0.529,0.277    c0.157,0.125,0.323,0.29,0.498,0.498C81.663,78.907,81.843,79.124,82.03,79.349z" fill="#42464A"/></g><path d="M64.152,41.972c6.627,0,12-5.373,12-12L72.519,2.597C69.732,2.214,66.892,2,64,2   c-2.785,0-5.522,0.202-8.209,0.558l-3.638,27.415C52.152,36.6,57.525,41.972,64.152,41.972z" fill="#C45C45"/><path d="M40.152,41.972c6.627,0,12-5.373,12-12l3.638-27.415C49.055,3.449,42.66,5.411,36.787,8.285l-8.635,21.688   C28.152,36.6,33.525,41.972,40.152,41.972z" fill="#FEFFFF"/><path d="M28.152,29.972l8.635-21.688c-12.892,6.309-23.26,16.962-29.222,30.05c2.18,2.238,5.217,3.637,8.587,3.637   C22.78,41.972,28.152,36.6,28.152,29.972z" fill="#C45C45"/><path d="M88.152,41.972c6.627,0,12-5.373,12-12L91.595,8.48c-5.889-2.933-12.307-4.953-19.076-5.883l3.633,27.375   C76.152,36.6,81.525,41.972,88.152,41.972z" fill="#FEFFFF"/><path d="M112.152,41.972c3.263,0,6.218-1.307,8.381-3.42C114.646,25.495,104.38,14.847,91.595,8.48l8.557,21.492   C100.152,36.6,105.525,41.972,112.152,41.972z" fill="#C45C45"/><path d="M64.152,41.972c6.627,0,12-5.373,12-12h-24C52.152,36.6,57.525,41.972,64.152,41.972z" fill="#020507" opacity="0.1"/><path d="M40.152,41.972c6.627,0,12-5.373,12-12h-24C28.152,36.6,33.525,41.972,40.152,41.972z" fill="#020507" opacity="0.1"/><path d="M12.006,29.972c-1.702,2.637-3.208,5.41-4.506,8.301c0.021,0.022,0.044,0.04,0.065,0.062   c1.328-2.915,2.87-5.71,4.615-8.363H12.006z" fill="#020507" opacity="0.1"/><path d="M28.152,29.972H12.18c-1.745,2.652-3.287,5.448-4.615,8.363   c2.18,2.238,5.217,3.637,8.587,3.637C22.78,41.972,28.152,36.6,28.152,29.972z" fill="#020507" opacity="0.1"/><path d="M88.152,41.972c6.627,0,12-5.373,12-12h-24C76.152,36.6,81.525,41.972,88.152,41.972z" fill="#020507" opacity="0.1"/><path d="M120.599,38.493c-1.319-2.97-2.86-5.817-4.604-8.52h-0.174   c1.788,2.718,3.364,5.586,4.713,8.58C120.554,38.531,120.578,38.513,120.599,38.493z" fill="#020507" opacity="0.1"/><path d="M112.152,41.972c3.263,0,6.218-1.307,8.381-3.42c-1.35-2.993-2.925-5.862-4.713-8.58h-15.668   C100.152,36.6,105.525,41.972,112.152,41.972z" fill="#020507" opacity="0.1"/><path d="M66.136,44.405c-1.344-0.764-3.003-0.646-4.227,0.3c-0.057,0.043-0.108,0.094-0.153,0.149   l-1.57,1.953c0.192,0.641,0.524,1.221,0.985,1.683l1.931-2.402c0.597-0.417,1.369-0.478,2.024-0.157l2.036,2.157   c0.403-0.525,0.675-1.146,0.778-1.829l-1.592-1.687C66.286,44.506,66.215,44.45,66.136,44.405z" fill="#020507" opacity="0.2"/><circle cx="64" cy="45.667" fill="#42464A" r="3"/><circle cx="32.292" cy="82.958" fill="#42464A" r="1.5"/><circle cx="93.735" cy="74.917" fill="#42464A" r="1.5"/></g></svg>