<?xml version="1.0" ?><!DOCTYPE svg  PUBLIC '-//W3C//DTD SVG 1.1//EN'  'http://www.w3.org/Graphics/SVG/1.1/DTD/svg11.dtd'><svg enable-background="new 0 0 128 128" id="Слой_1" version="1.1" viewBox="0 0 128 128" xml:space="preserve" xmlns="http://www.w3.org/2000/svg" xmlns:xlink="http://www.w3.org/1999/xlink"><g><circle cx="64" cy="64" fill="#F5CA41" r="62"/><path d="M81,110.5H47c-3.038,0-5.5-2.462-5.5-5.5V23c0-3.038,2.462-5.5,5.5-5.5h34c3.038,0,5.5,2.462,5.5,5.5v82   C86.5,108.038,84.038,110.5,81,110.5z" fill="#2C3335"/><rect fill="#62C8CF" height="70" width="40" x="44" y="29.009"/><circle cx="64" cy="71" fill="#F5CA41" r="15"/><path d="M64,57.667c-7.352,0-13.333,5.981-13.333,13.333S56.648,84.333,64,84.333   S77.333,78.352,77.333,71S71.352,57.667,64,57.667z" fill="#F5F8F8" opacity="0.3"/><path d="   M63.957,76.489" fill="none" stroke="#303536" stroke-linecap="round" stroke-linejoin="round" stroke-miterlimit="10" stroke-width="1.7143"/><path d="M66.242,70.864c-0.356-0.231-0.764-0.417-1.212-0.554c-0.353-0.107-0.714-0.211-1.085-0.313   c-0.32-0.087-0.634-0.192-0.935-0.311c-0.215-0.085-0.406-0.198-0.566-0.337c-0.126-0.109-0.234-0.26-0.321-0.45   C62.078,68.799,62,68.561,62,68.1c0-0.221,0.04-0.44,0.118-0.652c0.073-0.197,0.183-0.375,0.327-0.528   c0.145-0.154,0.341-0.283,0.581-0.383c0.254-0.106,0.567-0.159,0.931-0.159c0.362,0,0.668,0.055,0.91,0.163   c0.227,0.102,0.413,0.236,0.552,0.401c0.149,0.176,0.263,0.385,0.339,0.623c0.145,0.451,0.628,0.7,1.078,0.555   c0.451-0.144,0.699-0.627,0.555-1.078c-0.145-0.453-0.369-0.86-0.664-1.209c-0.307-0.361-0.697-0.65-1.159-0.857   c-0.232-0.104-0.484-0.182-0.754-0.235v-0.171c0-0.473-0.384-0.857-0.857-0.857c-0.473,0-0.857,0.384-0.857,0.857v0.169   c-0.261,0.049-0.506,0.12-0.734,0.215c-0.464,0.194-0.857,0.46-1.169,0.79c-0.303,0.323-0.535,0.696-0.687,1.11   c-0.149,0.402-0.224,0.821-0.224,1.246c0,0.6,0.095,1.11,0.28,1.514c0.189,0.413,0.444,0.76,0.757,1.03   c0.307,0.266,0.663,0.48,1.059,0.636c0.358,0.141,0.731,0.266,1.109,0.369c0.355,0.098,0.702,0.198,1.041,0.301   c0.294,0.09,0.556,0.208,0.777,0.352c0.202,0.131,0.37,0.305,0.499,0.516C65.934,73.025,66,73.326,66,73.69   c0,0.275-0.04,0.538-0.119,0.783c-0.074,0.227-0.187,0.427-0.337,0.595c-0.141,0.157-0.329,0.285-0.558,0.38   c-0.441,0.181-1.155,0.199-1.708,0.023c-0.237-0.075-0.45-0.198-0.634-0.367c-0.191-0.174-0.352-0.411-0.479-0.704   c-0.189-0.434-0.694-0.634-1.128-0.444c-0.434,0.189-0.633,0.693-0.444,1.128c0.224,0.516,0.525,0.948,0.893,1.285   c0.368,0.338,0.797,0.586,1.275,0.737c0.111,0.035,0.224,0.065,0.339,0.091v0.232c0,0.473,0.384,0.857,0.857,0.857   c0.473,0,0.857-0.384,0.857-0.857v-0.176c0.294-0.045,0.57-0.116,0.823-0.22c0.471-0.194,0.869-0.47,1.184-0.822   c0.31-0.347,0.542-0.753,0.69-1.209c0.135-0.416,0.203-0.857,0.203-1.311c0-0.688-0.149-1.281-0.442-1.764   C67.008,71.494,66.662,71.137,66.242,70.864z" fill="#42464A"/><path d="M64,57.667c-7.352,0-13.333,5.981-13.333,13.333c0,3.803,1.603,7.236,4.166,9.668   c-2.269-2.392-3.666-5.619-3.666-9.168c0-7.352,5.981-13.333,13.333-13.333c3.549,0,6.776,1.397,9.168,3.666   C71.236,59.27,67.803,57.667,64,57.667z" fill="#020507" opacity="0.1"/><path d="M73.168,61.332c2.269,2.392,3.666,5.619,3.666,9.168c0,7.352-5.981,13.333-13.333,13.333   c-3.549,0-6.776-1.397-9.168-3.666c2.431,2.563,5.865,4.166,9.668,4.166c7.352,0,13.333-5.981,13.333-13.333   C77.333,67.197,75.73,63.764,73.168,61.332z" fill="#F5F8F8" opacity="0.3"/><path d="M68.163,29.009h-8.022l-1.989,14.986c0,3.314,2.686,6,6,6c3.314,0,6-2.686,6-6L68.163,29.009z" fill="#C45C45"/><path d="M52.119,29.009l-5.967,14.986c0,3.314,2.686,6,6,6s6-2.686,6-6l1.989-14.986H52.119z" fill="#FEFFFF"/><path d="M44.097,29.009l-9.944,14.986c0,3.314,2.686,6,6,6s6-2.686,6-6l5.967-14.986H44.097z" fill="#C45C45"/><path d="M76.186,29.009h-8.022l1.989,14.986c0,3.314,2.686,6,6,6s6-2.686,6-6L76.186,29.009z" fill="#FEFFFF"/><path d="M84.208,29.009h-8.022l5.967,14.986c0,3.314,2.686,6,6,6s6-2.686,6-6L84.208,29.009z" fill="#C45C45"/><polygon fill="#020507" opacity="0.1" points="44,29.009 84.208,29.009 88.152,34.953  "/><path d="M70.152,43.995c0,3.314-2.686,6-6,6c-3.314,0-6-2.686-6-6H70.152z" fill="#020507" opacity="0.1"/><path d="M58.152,43.995c0,3.314-2.686,6-6,6s-6-2.686-6-6H58.152z" fill="#020507" opacity="0.1"/><path d="M46.152,43.995c0,3.314-2.686,6-6,6s-6-2.686-6-6H46.152z" fill="#020507" opacity="0.1"/><path d="M82.152,43.995c0,3.314-2.686,6-6,6c-3.314,0-6-2.686-6-6H82.152z" fill="#020507" opacity="0.1"/><path d="M94.152,43.995c0,3.314-2.686,6-6,6c-3.314,0-6-2.686-6-6H94.152z" fill="#020507" opacity="0.1"/><circle cx="64" cy="104.467" fill="#484E51" r="3.5"/><circle cx="56.833" cy="23.5" fill="#484E51" r="1"/><path d="M68,24h-8c-0.276,0-0.5-0.224-0.5-0.5S59.724,23,60,23h8c0.276,0,0.5,0.224,0.5,0.5S68.276,24,68,24z" fill="#484E51"/></g></svg>