<?xml version="1.0" ?><!DOCTYPE svg  PUBLIC '-//W3C//DTD SVG 1.1//EN'  'http://www.w3.org/Graphics/SVG/1.1/DTD/svg11.dtd'><svg enable-background="new 0 0 128 128" id="Слой_1" version="1.1" viewBox="0 0 128 128" xml:space="preserve" xmlns="http://www.w3.org/2000/svg" xmlns:xlink="http://www.w3.org/1999/xlink"><g><circle cx="64" cy="64" fill="#E5E4DE" r="62"/><polygon fill="#41B19C" points="71.907,52.058 71.907,44.5 16.093,44.5 16.093,52.058 14,53.919 14,55.14 74,55.14 74,53.919  "/><polygon fill="#020507" opacity="0.2" points="20.279,53.919 20.279,48.337 14,53.919  "/><path d="M14,53.919v34.884c0,0.385,0.312,0.698,0.698,0.698h58.605c0.385,0,0.698-0.312,0.698-0.698V53.919H14z" fill="#7B4C4C"/><circle cx="32.04" cy="59.4" fill="#2C2E30" r="1.993"/><circle cx="55.96" cy="59.4" fill="#2C2E30" r="1.993"/><path d="M55.96,58.715c-0.386,0-0.698,0.312-0.698,0.698v2.778c0,6.371-5.263,11.96-11.262,11.96   s-11.262-5.589-11.262-11.96v-2.778c0-0.386-0.312-0.698-0.698-0.698s-0.698,0.312-0.698,0.698v2.778   c0,7.239,5.797,13.355,12.658,13.355s12.658-6.116,12.658-13.355v-2.778C56.658,59.027,56.346,58.715,55.96,58.715z" fill="#FEFFFF"/><polygon fill="#7B4C4C" points="16.093,52.058 20.279,48.337 16.093,44.5  "/><polygon fill="#6D4A4A" points="71.907,44.5 71.907,52.058 67.721,48.337  "/><polygon fill="#020507" opacity="0.2" points="74,53.919 67.721,48.337 67.721,53.919  "/><path d="M86.5,42.236v-9.028h-45v9.028L39,44.458v1.458v50.208c0,0.46,0.373,0.833,0.833,0.833h48.333   c0.46,0,0.833-0.373,0.833-0.833V45.917v-1.458L86.5,42.236z" fill="#ECC649"/><polygon fill="#48AA97" points="52,38.5 52,45.722 48,42.167  "/><polygon fill="#020507" opacity="0.15" points="54,47.5 48,42.167 48,47.5  "/><circle cx="45.429" cy="52.738" fill="#42464A" r="1.905"/><path d="M21.905,55.405" fill="#FEFFFF"/><path d="M54,88.833V48.667V47.5l-2-1.778V44.5H36v45h17.333C53.702,89.5,54,89.202,54,88.833z" fill="#020507" opacity="0.1"/><path d="M112,45.722V38.5H76v7.222L74,47.5V58h40V47.5L112,45.722z M100.844,47.656H87.156   c-1.375,0-2.489-1.114-2.489-2.489c0-1.375,1.114-2.489,2.489-2.489h13.689c1.375,0,2.489,1.114,2.489,2.489   C103.333,46.541,102.219,47.656,100.844,47.656z" fill="#42464A"/><path d="M74,47.5v41.333c0,0.368,0.298,0.667,0.667,0.667h38.667c0.368,0,0.667-0.299,0.667-0.667V47.5H74z    M101.333,57.032H86.667c-1.473,0-2.667-1.194-2.667-2.667c0-1.473,1.194-2.667,2.667-2.667h14.667   c1.473,0,2.667,1.194,2.667,2.667C104,55.838,102.806,57.032,101.333,57.032z" fill="#41B19C"/><path d="M92,47.5h-5.684c-0.959-0.346-1.649-1.255-1.649-2.333c0-1.375,1.114-2.489,2.489-2.489   h4.356L89.5,40.89V38.5H76v7.222L74,47.5V58v30.833c0,0.368,0.298,0.667,0.667,0.667H92V47.5z" fill="#020507" opacity="0.1"/><polygon fill="#BC5D46" points="76,38.5 76,45.722 80,42.167  "/><polygon fill="#41B19C" points="112,38.5 112,45.722 108,42.167  "/><polygon fill="#020507" opacity="0.15" points="74,47.5 80,42.167 80,47.5  "/><polygon fill="#020507" opacity="0.15" points="114,47.5 108,42.167 108,47.5  "/><path d="M76.598,40.771c-0.406,0-0.735-0.329-0.735-0.735V37.11c0-6.711-5.543-12.598-11.863-12.598   S52.137,30.399,52.137,37.11v2.927c0,0.406-0.329,0.735-0.735,0.735c-0.406,0-0.735-0.329-0.735-0.735V37.11   c0-7.626,6.106-14.068,13.333-14.068s13.333,6.443,13.333,14.068v2.927C77.333,40.443,77.005,40.771,76.598,40.771z" fill="#FEFFFF"/><path d="M86.5,42.236v-9.028h-45v9.028L39,44.459v1.458h50v-1.458L86.5,42.236z" fill="#BC5D46"/><path d="M89,44.459H39v51.667c0,0.46,0.373,0.833,0.833,0.833h48.333c0.46,0,0.833-0.373,0.833-0.833V44.459z" fill="#ECC649"/><path d="M86.5,42.236v-9.028h-45v9.028L39,44.459v1.458h50v-1.458L86.5,42.236z" fill="#C45C45"/><path d="M89,44.459H39v51.667c0,0.46,0.373,0.833,0.833,0.833h48.333c0.46,0,0.833-0.373,0.833-0.833V44.459z" fill="#F5CA41"/><polygon fill="#F5CA41" points="41.5,33.209 41.5,42.236 46.5,37.792  "/><polygon fill="#F5CA41" points="86.5,33.209 86.5,42.236 81.5,37.792  "/><polygon fill="#020507" opacity="0.15" points="39,44.459 46.5,37.792 46.5,44.459  "/><polygon fill="#020507" opacity="0.15" points="89,44.459 81.5,37.792 81.5,44.459  "/><circle cx="49.714" cy="51.006" fill="#42464A" r="2.381"/><circle cx="78.286" cy="51.006" fill="#42464A" r="2.381"/><path d="M78.285,51.959c-0.461,0-0.833-0.373-0.833-0.833v-3.319c0-7.61-6.286-14.285-13.452-14.285   s-13.452,6.676-13.452,14.285v3.319c0,0.461-0.373,0.833-0.833,0.833c-0.461,0-0.833-0.373-0.833-0.833v-3.319   c0-8.647,6.924-15.952,15.119-15.952s15.119,7.306,15.119,15.952v3.319C79.119,51.586,78.746,51.959,78.285,51.959z" fill="#FEFFFF"/></g></svg>