<?xml version="1.0" ?><!DOCTYPE svg  PUBLIC '-//W3C//DTD SVG 1.1//EN'  'http://www.w3.org/Graphics/SVG/1.1/DTD/svg11.dtd'><svg enable-background="new 0 0 128 128" id="Слой_1" version="1.1" viewBox="0 0 128 128" xml:space="preserve" xmlns="http://www.w3.org/2000/svg" xmlns:xlink="http://www.w3.org/1999/xlink"><g><circle cx="64" cy="64" fill="#E5E4DE" r="62"/><path d="M31.5,95.264h11.375c4,0,8.625-3.75,8.625-8.625v-56h-11c-5.125,0-9,3.25-9,8.875V95.264z" fill="#62C8CF"/><path d="M54,95.264h11.375c4,0,8.625-3.75,8.625-8.625v-56H63c-5.125,0-9,3.25-9,8.875V95.264z" fill="#C45C45"/><path d="M76.5,95.264h11.375c4,0,8.625-3.75,8.625-8.625v-56h-11c-5.125,0-9,3.25-9,8.875V95.264z" fill="#41B19C"/><path d="M34.625,64.514H31.5c0.875,3.5,5,6.25,9.625,6.25c4.25,0,10-2.375,10-6.875v-8.125H44v8.125   c0,2.375-1.875,4.25-4.5,4.25C37.125,68.139,35,66.639,34.625,64.514z" fill="#FEFFFF"/><path d="M96.5,66.139c0,1.875-1.625,3.375-3.75,3.375H77v-13.75h15.75c1.875,0,3.5,1.625,3.5,3.5   s-1.625,3.5-3.5,3.5C94.875,62.764,96.5,64.264,96.5,66.139z M83,62.014h4.875c1.25,0,2.375-1.125,2.375-2.375   s-1.125-2.375-2.375-2.375H83V62.014z M88,68.014c1.25,0,2.375-1.125,2.375-2.375S89.25,63.264,88,63.264h-5v4.75H88z" fill="#FEFFFF"/><path d="M73.5,67.139v2.375h-12c-3.75,0-6.875-3.125-6.875-6.875c0-3.75,3.125-6.875,6.875-6.875h12v2.5   c-2.875-0.625-5.625-1-7-1c-3,0-5.375,2.375-5.375,5.375c0,3,2.375,5.375,5.375,5.375C67.875,68.014,70.625,67.764,73.5,67.139z" fill="#FEFFFF"/></g></svg>