<?xml version="1.0" ?><!DOCTYPE svg  PUBLIC '-//W3C//DTD SVG 1.1//EN'  'http://www.w3.org/Graphics/SVG/1.1/DTD/svg11.dtd'><svg enable-background="new 0 0 128 128" id="Слой_1" version="1.1" viewBox="0 0 128 128" xml:space="preserve" xmlns="http://www.w3.org/2000/svg" xmlns:xlink="http://www.w3.org/1999/xlink"><g><circle cx="64" cy="64" fill="#41B19C" r="62"/><path d="M79.118,34.826c-0.487,0-0.882-0.394-0.882-0.882v-3.512c0-8.053-6.652-15.118-14.236-15.118   s-14.236,7.065-14.236,15.118v3.512c0,0.487-0.394,0.882-0.882,0.882c-0.487,0-0.882-0.394-0.882-0.882v-3.512   c0-9.151,7.327-16.882,16-16.882s16,7.731,16,16.882v3.512C80,34.431,79.606,34.826,79.118,34.826z" fill="#FEFFFF"/><path d="M91,36.584V25.75H37v10.833l-3,2.667V41h60v-1.75L91,36.584z" fill="#C45C45"/><path d="M94,39.25H34v62c0,0.552,0.448,1,1,1h58c0.552,0,1-0.448,1-1V39.25z" fill="#F5CA41"/><polygon fill="#F5CA41" points="37,25.75 37,36.584 43,31.25  "/><polygon fill="#F5CA41" points="91,25.75 91,36.584 85,31.25  "/><polygon fill="#020507" opacity="0.15" points="34,39.25 43,31.25 43,39.25  "/><polygon fill="#020507" opacity="0.15" points="94,39.25 85,31.25 85,39.25  "/><circle cx="46.857" cy="47.107" fill="#42464A" r="2.857"/><circle cx="81.143" cy="47.107" fill="#42464A" r="2.857"/><path d="M81.143,48.25c-0.553,0-1-0.447-1-1v-3.982c0-9.132-7.543-17.143-16.143-17.143   s-16.143,8.011-16.143,17.143v3.982c0,0.553-0.447,1-1,1s-1-0.447-1-1v-3.982c0-10.376,8.309-19.143,18.143-19.143   s18.143,8.767,18.143,19.143v3.982C82.143,47.803,81.695,48.25,81.143,48.25z" fill="#FEFFFF"/></g></svg>