<?xml version="1.0" ?><!DOCTYPE svg  PUBLIC '-//W3C//DTD SVG 1.1//EN'  'http://www.w3.org/Graphics/SVG/1.1/DTD/svg11.dtd'><svg enable-background="new 0 0 128 128" id="Слой_1" version="1.1" viewBox="0 0 128 128" xml:space="preserve" xmlns="http://www.w3.org/2000/svg" xmlns:xlink="http://www.w3.org/1999/xlink"><g><g><circle cx="64" cy="64" fill="#62C8CF" r="62"/></g><g><polygon fill="#FEFFFF" points="75.86,58.584 75.86,61.962 85.543,61.962 85.543,65.724 75.86,65.724 75.86,69.416 86.727,69.416     91.778,63.983 86.936,58.584   "/><polygon fill="#FEFFFF" points="28.072,65.271 34.132,65.271 31.102,57.887   "/><path d="M114,51.095H98.361l-3.657,3.936l-3.413-3.936H57.643l-2.891,6.653l-2.961-6.653h-13.48v3.03l-1.498-3.03    l-11.529,0L14,76.87h13.514l1.672-4.11h3.831l1.672,4.11h14.873v-3.135l1.324,3.135h7.698l1.324-3.204v3.204h30.93l3.762-4.006    l3.518,4.006L114,76.905l-11.32-12.853L114,51.095z M67.466,73.248h-4.389l0-14.49l-6.374,14.49h-3.901l-6.409-14.49v14.49h-8.986    L35.7,69.103h-9.195l-1.707,4.145h-4.807l7.907-18.495h6.583l7.489,17.485V54.752h7.21l5.782,12.539l5.329-12.539h7.175V73.248z     M105.71,73.248h-5.677l-5.434-6.13l-5.643,6.13H71.471V54.752h17.764l5.434,6.061l5.608-6.061h5.434l-8.255,9.3L105.71,73.248z" fill="#FEFFFF"/></g></g></svg>