<?xml version="1.0" ?><!DOCTYPE svg  PUBLIC '-//W3C//DTD SVG 1.1//EN'  'http://www.w3.org/Graphics/SVG/1.1/DTD/svg11.dtd'><svg enable-background="new 0 0 128 128" id="Слой_1" version="1.1" viewBox="0 0 128 128" xml:space="preserve" xmlns="http://www.w3.org/2000/svg" xmlns:xlink="http://www.w3.org/1999/xlink"><g><circle cx="64" cy="64" fill="#E5E4DE" r="62"/><path d="M81,110.5H47c-3.038,0-5.5-2.462-5.5-5.5V23c0-3.038,2.462-5.5,5.5-5.5h34c3.038,0,5.5,2.462,5.5,5.5v82   C86.5,108.038,84.038,110.5,81,110.5z" fill="#2C3335"/><rect fill="#F5CA41" height="70" width="40" x="44" y="29.009"/><path d="   M63.941,78.616" fill="none" stroke="#303536" stroke-linecap="round" stroke-linejoin="round" stroke-miterlimit="10" stroke-width="2.3786"/><path d="M68.163,29.009h-8.022l-1.989,14.986c0,3.314,2.686,6,6,6c3.314,0,6-2.686,6-6L68.163,29.009z" fill="#C45C45"/><path d="M52.119,29.009l-5.967,14.986c0,3.314,2.686,6,6,6s6-2.686,6-6l1.989-14.986H52.119z" fill="#FEFFFF"/><path d="M44.097,29.009l-9.944,14.986c0,3.314,2.686,6,6,6s6-2.686,6-6l5.967-14.986H44.097z" fill="#C45C45"/><path d="M76.186,29.009h-8.022l1.989,14.986c0,3.314,2.686,6,6,6s6-2.686,6-6L76.186,29.009z" fill="#FEFFFF"/><path d="M84.208,29.009h-8.022l5.967,14.986c0,3.314,2.686,6,6,6s6-2.686,6-6L84.208,29.009z" fill="#C45C45"/><polygon fill="#020507" opacity="0.1" points="44,29.009 84.208,29.009 88.152,34.953  "/><path d="M70.152,43.995c0,3.314-2.686,6-6,6c-3.314,0-6-2.686-6-6H70.152z" fill="#020507" opacity="0.1"/><path d="M58.152,43.995c0,3.314-2.686,6-6,6s-6-2.686-6-6H58.152z" fill="#020507" opacity="0.1"/><path d="M46.152,43.995c0,3.314-2.686,6-6,6s-6-2.686-6-6H46.152z" fill="#020507" opacity="0.1"/><path d="M82.152,43.995c0,3.314-2.686,6-6,6c-3.314,0-6-2.686-6-6H82.152z" fill="#020507" opacity="0.1"/><path d="M94.152,43.995c0,3.314-2.686,6-6,6c-3.314,0-6-2.686-6-6H94.152z" fill="#020507" opacity="0.1"/><circle cx="64" cy="104.467" fill="#484E51" r="3.5"/><circle cx="56.833" cy="23.5" fill="#484E51" r="1"/><path d="M68,24h-8c-0.276,0-0.5-0.224-0.5-0.5S59.724,23,60,23h8c0.276,0,0.5,0.224,0.5,0.5S68.276,24,68,24z" fill="#484E51"/><polygon fill="#020507" opacity="0.1" points="44.18,92 86.5,92 86.5,96  "/><path d="M101,54H44v38h57c0.552,0,1-0.448,1-1V55C102,54.448,101.552,54,101,54z" fill="#41B19C"/><polygon fill="#F5F8F8" opacity="0.2" points="44,57.42 98.58,57.42 98.58,88.58 44,88.58 44,89.34 99.34,89.34 99.34,56.66    44,56.66  "/><circle cx="64" cy="73" fill="#F5F8F8" opacity="0.2" r="13.3"/><path d="M64.131,80.025c-0.521,0-1.021-0.075-1.487-0.223c-0.517-0.163-0.981-0.432-1.38-0.797   c-0.401-0.367-0.728-0.838-0.973-1.401c-0.168-0.385,0.009-0.833,0.393-1c0.387-0.168,0.833,0.009,1,0.394   c0.159,0.366,0.363,0.664,0.606,0.886c0.235,0.215,0.508,0.373,0.813,0.469c0.685,0.217,1.559,0.195,2.116-0.033   c0.295-0.122,0.54-0.288,0.725-0.495c0.192-0.214,0.338-0.472,0.433-0.764c0.099-0.303,0.148-0.629,0.148-0.968   c0-0.466-0.085-0.843-0.254-1.119c-0.166-0.272-0.381-0.496-0.643-0.665c-0.272-0.177-0.592-0.322-0.951-0.431   c-0.39-0.118-0.79-0.234-1.201-0.347c-0.427-0.117-0.848-0.258-1.253-0.417c-0.432-0.17-0.819-0.403-1.153-0.692   c-0.334-0.289-0.608-0.662-0.813-1.107c-0.2-0.437-0.302-0.991-0.302-1.647c0-0.461,0.082-0.917,0.244-1.354   c0.163-0.445,0.413-0.849,0.742-1.198c0.335-0.356,0.761-0.644,1.266-0.855c1.025-0.427,2.505-0.425,3.502,0.022   c0.501,0.225,0.922,0.536,1.252,0.926c0.321,0.378,0.564,0.82,0.721,1.313c0.128,0.4-0.093,0.828-0.493,0.955   c-0.4,0.127-0.828-0.094-0.954-0.493c-0.096-0.301-0.242-0.567-0.433-0.792c-0.183-0.215-0.423-0.39-0.715-0.521   c-0.613-0.275-1.654-0.273-2.294-0.006c-0.306,0.128-0.557,0.294-0.744,0.494c-0.188,0.199-0.33,0.429-0.424,0.682   c-0.099,0.269-0.15,0.547-0.15,0.828c0,0.543,0.089,0.85,0.164,1.013c0.113,0.246,0.256,0.446,0.426,0.593   c0.203,0.176,0.444,0.32,0.715,0.427c0.354,0.14,0.724,0.263,1.098,0.366c0.423,0.117,0.836,0.236,1.24,0.358   c0.495,0.151,0.944,0.356,1.336,0.61c0.453,0.294,0.828,0.681,1.113,1.149c0.316,0.518,0.476,1.161,0.476,1.91   c0,0.499-0.075,0.983-0.223,1.438c-0.161,0.495-0.412,0.935-0.747,1.308c-0.34,0.379-0.77,0.677-1.279,0.887   C65.312,79.924,64.752,80.025,64.131,80.025z" fill="#42464A"/><path d="   M63.951,79.309" fill="none" stroke="#303536" stroke-linecap="round" stroke-linejoin="round" stroke-miterlimit="10" stroke-width="2"/><path d="M63.951,81.149c-0.42,0-0.76-0.34-0.76-0.76v-1.121c0-0.42,0.34-0.76,0.76-0.76s0.76,0.34,0.76,0.76v1.121   C64.711,80.809,64.371,81.149,63.951,81.149z" fill="#42464A"/><path d="M63.951,67.457c-0.42,0-0.76-0.34-0.76-0.76v-1.086c0-0.42,0.34-0.76,0.76-0.76s0.76,0.34,0.76,0.76v1.086   C64.711,67.117,64.371,67.457,63.951,67.457z" fill="#42464A"/></g></svg>