<?xml version="1.0" ?><!DOCTYPE svg  PUBLIC '-//W3C//DTD SVG 1.1//EN'  'http://www.w3.org/Graphics/SVG/1.1/DTD/svg11.dtd'><svg enable-background="new 0 0 128 128" id="Слой_1" version="1.1" viewBox="0 0 128 128" xml:space="preserve" xmlns="http://www.w3.org/2000/svg" xmlns:xlink="http://www.w3.org/1999/xlink"><g><path d="M64,2C29.758,2,2,29.758,2,64c0,13.714,4.453,26.388,11.991,36.656   c11.284,15.368,88.733,15.368,100.017,0.001C121.547,90.389,126,77.714,126,64C126,29.758,98.242,2,64,2z" fill="#E5E4DE"/><path d="M110.253,105.273V64.016c0-3.408-2.762-6.17-6.17-6.17H20.17c-3.408,0-6.17,2.762-6.17,6.17   c0,2.529,1.525,4.696,3.702,5.649v35.555c7.749,8.698,17.911,15.188,29.436,18.439h33.723   C92.364,120.415,102.509,113.944,110.253,105.273z" fill="#C3BC7B"/><path d="M110.253,105.273V64.016c0-3.408-2.762-6.17-6.17-6.17H20.17c-3.408,0-6.17,2.762-6.17,6.17   c0,2.529,1.525,4.696,3.702,5.649v35.555C25.451,113.918,102.509,113.944,110.253,105.273z" fill="#F5CA41"/><path d="M104.083,57.846H20.17c-3.408,0-6.17,2.762-6.17,6.17c0,0.661,0.109,1.294,0.302,1.891   c0.778-2.518,3.096-4.359,5.868-4.359h83.913c3.408,0,6.17,2.762,6.17,6.17v-3.702C110.253,60.608,107.49,57.846,104.083,57.846z" fill="#05090C" opacity="0.1"/><path d="M110.514,67.561L87.542,33.479c-0.295-0.438-0.889-0.553-1.327-0.258l-69.75,47.012   c-0.438,0.295-0.553,0.889-0.258,1.327l22.972,34.082c0.295,0.438,0.889,0.553,1.327,0.258l69.75-47.012   C110.693,68.593,110.809,67.998,110.514,67.561z" fill="#48AA97"/><path d="M110.514,67.561L87.542,33.479c-0.295-0.438-0.889-0.553-1.327-0.258l-69.75,47.012   c-0.438,0.295-0.553,0.889-0.258,1.327l22.972,34.082c0.295,0.438,0.889,0.553,1.327,0.258l69.75-47.012   C110.693,68.593,110.809,67.998,110.514,67.561z" fill="#020507" opacity="0.3"/><path d="M19.852,81.58l20.675,30.674l66.341-44.715L86.194,36.865L19.852,81.58z M40.76,111.06   L21.047,81.813L85.961,38.06l19.713,29.247L40.76,111.06z" fill="#F5F8F8" opacity="0.2"/><circle cx="63.36" cy="74.56" fill="#F5F8F8" r="15.054"/><path d="M69.113,74.904c-0.474-0.703-1.03-1.205-1.655-1.492c-0.564-0.259-1.16-0.385-1.772-0.374   c-0.529,0.009-1.08,0.1-1.64,0.272c-0.456,0.14-0.92,0.29-1.391,0.448c-0.416,0.14-0.841,0.259-1.262,0.351   c-0.323,0.071-0.639,0.089-0.942,0.052c-0.252-0.03-0.513-0.127-0.775-0.287c-0.173-0.105-0.451-0.338-0.795-0.847   c-0.177-0.263-0.306-0.556-0.383-0.872c-0.073-0.297-0.084-0.603-0.034-0.909c0.05-0.307,0.18-0.621,0.386-0.934   c0.431-0.656,1.408-1.316,2.157-1.446c0.357-0.062,0.693-0.049,1.001,0.037c0.321,0.09,0.626,0.248,0.907,0.47   c0.372,0.294,0.912,0.231,1.208-0.141c0.295-0.373,0.232-0.914-0.142-1.208c-0.459-0.363-0.966-0.624-1.507-0.776   c-0.556-0.157-1.148-0.182-1.761-0.077c-1.218,0.212-2.609,1.146-3.301,2.195c-0.34,0.517-0.558,1.057-0.648,1.603   c-0.088,0.536-0.067,1.073,0.061,1.594c0.125,0.513,0.336,0.993,0.627,1.425c0.415,0.616,0.861,1.072,1.326,1.355   c0.474,0.288,0.967,0.465,1.463,0.525c0.495,0.06,1.006,0.033,1.519-0.08c0.481-0.106,0.965-0.241,1.44-0.401   c0.457-0.154,0.905-0.299,1.346-0.434c0.406-0.124,0.797-0.191,1.165-0.197c0.352-0.006,0.697,0.067,1.024,0.218   c0.333,0.153,0.651,0.452,0.946,0.89c0.215,0.319,0.374,0.656,0.473,1.003c0.096,0.334,0.122,0.668,0.077,0.991   c-0.043,0.311-0.167,0.622-0.367,0.923c-0.379,0.567-1.184,1.141-1.965,1.37c-0.346,0.102-0.703,0.127-1.06,0.074   c-0.368-0.055-0.748-0.206-1.129-0.448c-0.401-0.255-0.932-0.139-1.188,0.263c-0.255,0.4-0.137,0.932,0.263,1.188   c0.586,0.373,1.191,0.608,1.799,0.699c0.606,0.091,1.212,0.048,1.8-0.125c0.531-0.156,1.048-0.402,1.537-0.732   c0.583-0.393,1.045-0.842,1.374-1.335c0.345-0.519,0.56-1.07,0.639-1.641c0.078-0.562,0.035-1.134-0.127-1.701   C69.664,75.874,69.428,75.372,69.113,74.904z" fill="#42464A"/><path d="   M67.306,80.512" fill="none" stroke="#303536" stroke-linecap="round" stroke-linejoin="round" stroke-miterlimit="10" stroke-width="1.9117"/><path d="M67.993,79.993c-0.266-0.394-0.8-0.498-1.194-0.233c-0.394,0.266-0.498,0.8-0.233,1.194l0.709,1.052   c0.266,0.394,0.8,0.498,1.194,0.233c0.394-0.266,0.498-0.8,0.233-1.194L67.993,79.993z" fill="#42464A"/><path d="M59.353,67.175c-0.266-0.394-0.8-0.498-1.194-0.233c-0.394,0.266-0.498,0.8-0.233,1.194l0.687,1.019   c0.266,0.394,0.8,0.498,1.194,0.233s0.498-0.8,0.233-1.194L59.353,67.175z" fill="#42464A"/><path d="M78.364,21.868c-0.366-0.38-0.971-0.391-1.352-0.025L16.465,80.232c-0.38,0.366-0.391,0.972-0.025,1.352   l28.531,29.586c0.366,0.38,0.972,0.391,1.352,0.025l60.547-58.388c0.38-0.366,0.391-0.972,0.025-1.352L78.364,21.868z" fill="#48AA97"/><path d="M78.364,21.868c-0.366-0.38-0.971-0.391-1.352-0.025L16.465,80.232   c-0.38,0.366-0.391,0.972-0.025,1.352l28.531,29.586c0.366,0.38,0.972,0.391,1.352,0.025l60.547-58.388   c0.38-0.366,0.391-0.972,0.025-1.352L78.364,21.868z" fill="#020507" opacity="0.15"/><path d="M20.035,80.973L45.712,107.6l57.589-55.535L77.623,25.438L20.035,80.973z M45.734,106.383   L21.251,80.995l56.35-54.341l24.483,25.388L45.734,106.383z" fill="#F5F8F8" opacity="0.2"/><circle cx="61.668" cy="66.519" fill="#F5F8F8" r="15.055"/><path d="M67.393,65.861c-0.589-0.61-1.223-1.008-1.888-1.182c-0.6-0.158-1.209-0.178-1.81-0.061   c-0.519,0.101-1.046,0.286-1.568,0.552c-0.425,0.217-0.856,0.445-1.292,0.683c-0.386,0.21-0.783,0.401-1.182,0.565   c-0.306,0.126-0.614,0.198-0.918,0.214c-0.254,0.014-0.527-0.036-0.813-0.148c-0.189-0.074-0.503-0.254-0.929-0.696   c-0.22-0.229-0.398-0.495-0.528-0.792c-0.123-0.28-0.187-0.579-0.191-0.889c-0.004-0.311,0.07-0.643,0.219-0.987   c0.311-0.72,1.159-1.54,1.874-1.798c0.341-0.122,0.674-0.169,0.992-0.137c0.332,0.033,0.66,0.136,0.975,0.305   c0.417,0.226,0.939,0.069,1.165-0.348c0.226-0.418,0.07-0.941-0.349-1.166c-0.515-0.278-1.06-0.448-1.618-0.503   c-0.575-0.058-1.162,0.019-1.747,0.23c-1.163,0.419-2.37,1.58-2.87,2.734c-0.246,0.568-0.367,1.137-0.36,1.691   c0.006,0.543,0.12,1.068,0.337,1.559c0.212,0.484,0.503,0.919,0.865,1.295c0.516,0.535,1.034,0.906,1.54,1.105   c0.517,0.202,1.033,0.29,1.532,0.263c0.498-0.027,0.997-0.141,1.483-0.342c0.455-0.188,0.909-0.404,1.349-0.644   c0.423-0.231,0.84-0.451,1.251-0.661c0.378-0.193,0.752-0.326,1.113-0.396c0.346-0.067,0.698-0.055,1.046,0.037   c0.354,0.093,0.72,0.333,1.086,0.712c0.267,0.277,0.482,0.581,0.64,0.906c0.152,0.313,0.236,0.637,0.248,0.963   c0.011,0.314-0.057,0.642-0.202,0.973c-0.275,0.624-0.969,1.329-1.698,1.69c-0.323,0.161-0.67,0.247-1.031,0.256   c-0.372,0.01-0.773-0.073-1.189-0.246c-0.439-0.181-0.942,0.024-1.125,0.465c-0.182,0.438,0.026,0.942,0.465,1.124   c0.642,0.266,1.279,0.393,1.893,0.377c0.613-0.016,1.202-0.162,1.751-0.435c0.496-0.246,0.962-0.578,1.387-0.987   c0.506-0.488,0.884-1.01,1.122-1.553c0.25-0.571,0.366-1.151,0.345-1.727c-0.021-0.567-0.162-1.123-0.42-1.653   C68.104,66.72,67.785,66.267,67.393,65.861z" fill="#42464A"/><path d="   M66.585,71.698" fill="none" stroke="#303536" stroke-linecap="round" stroke-linejoin="round" stroke-miterlimit="10" stroke-width="1.9117"/><path d="M67.172,71.067c-0.33-0.342-0.874-0.352-1.216-0.022s-0.352,0.874-0.022,1.216l0.881,0.913   c0.33,0.342,0.874,0.352,1.216,0.022s0.352-0.874,0.022-1.216L67.172,71.067z" fill="#42464A"/><path d="M56.442,59.94c-0.33-0.342-0.874-0.352-1.216-0.022c-0.342,0.33-0.352,0.874-0.022,1.216l0.853,0.885   c0.33,0.342,0.874,0.352,1.216,0.022c0.342-0.33,0.352-0.874,0.022-1.216L56.442,59.94z" fill="#42464A"/><path d="M67.225,11.959c-0.427-0.31-1.025-0.215-1.335,0.212L16.465,80.232c-0.31,0.427-0.215,1.025,0.212,1.335   l33.257,24.151c0.427,0.31,1.025,0.215,1.335-0.212l49.425-68.062c0.31-0.427,0.215-1.025-0.212-1.335L67.225,11.959z" fill="#41B19C"/><path d="M106.551,67.186H25.939l-9.474,13.046c-0.438,0.295-0.553,0.889-0.258,1.327l22.972,34.082   c0.295,0.438,0.889,0.553,1.327,0.258l69.75-47.012c0.105-0.071,0.189-0.161,0.256-0.26   C109.44,67.729,108.059,67.186,106.551,67.186z" fill="#05090C" opacity="0.1"/><path d="M20.109,80.338l29.932,21.736L97.05,37.338L67.119,15.603L20.109,80.338z M95.849,37.529   L49.85,100.872L21.311,80.148l45.999-63.344L95.849,37.529z" fill="#F5F8F8" opacity="0.2"/><circle cx="58.58" cy="58.838" fill="#F5F8F8" opacity="0.2" r="15.054"/><path d="M65.82,63.101l-0.379-0.275c0.219-0.386,0.399-0.774,0.493-1.16c0.147-0.606,0.159-1.198,0.039-1.761   c-0.12-0.555-0.356-1.078-0.702-1.554c-0.319-0.438-0.712-0.828-1.169-1.16c-0.686-0.498-1.381-0.779-2.066-0.835   c-0.618-0.05-1.222,0.036-1.793,0.255c-0.494,0.19-0.98,0.464-1.448,0.818c-0.381,0.288-0.765,0.588-1.153,0.898   c-0.343,0.274-0.701,0.531-1.065,0.762c-0.279,0.177-0.57,0.302-0.867,0.371c-0.247,0.058-0.525,0.057-0.826-0.004   c-0.199-0.039-0.54-0.162-1.037-0.523c-0.257-0.187-0.478-0.418-0.659-0.688c-0.17-0.254-0.286-0.537-0.343-0.842   c-0.058-0.305-0.043-0.645,0.043-1.01c0.181-0.764,0.872-1.718,1.531-2.097c0.314-0.18,0.634-0.284,0.953-0.308   c0.333-0.025,0.674,0.019,1.013,0.13c0.45,0.149,0.936-0.096,1.086-0.546c0.149-0.451-0.096-0.938-0.547-1.087   c-0.555-0.184-1.121-0.256-1.681-0.213c-0.577,0.043-1.141,0.222-1.68,0.531c-0.32,0.184-0.629,0.439-0.918,0.731l-0.361-0.262   c-0.384-0.279-0.922-0.194-1.202,0.191s-0.194,0.922,0.191,1.202l0.358,0.26c-0.186,0.355-0.333,0.718-0.417,1.072   c-0.143,0.602-0.163,1.184-0.059,1.728c0.101,0.533,0.305,1.031,0.604,1.477c0.293,0.439,0.655,0.818,1.078,1.124   c0.601,0.436,1.176,0.712,1.71,0.819c0.544,0.109,1.068,0.106,1.554-0.008c0.486-0.113,0.957-0.313,1.4-0.596   c0.415-0.264,0.824-0.557,1.216-0.87c0.376-0.301,0.748-0.591,1.116-0.869c0.338-0.256,0.684-0.453,1.027-0.584   c0.329-0.127,0.677-0.176,1.037-0.146c0.365,0.03,0.767,0.202,1.194,0.512c0.311,0.226,0.576,0.488,0.788,0.78   c0.204,0.281,0.343,0.586,0.412,0.905c0.066,0.307,0.056,0.642-0.029,0.993c-0.161,0.663-0.722,1.477-1.377,1.96   c-0.29,0.215-0.617,0.36-0.97,0.432c-0.365,0.074-0.774,0.063-1.214-0.034c-0.464-0.102-0.923,0.188-1.026,0.654   c-0.102,0.463,0.19,0.923,0.654,1.025c0.678,0.15,1.328,0.164,1.93,0.04c0.6-0.123,1.155-0.37,1.648-0.734   c0.169-0.125,0.324-0.271,0.48-0.418l0.422,0.306c0.384,0.279,0.922,0.194,1.202-0.191C66.29,63.918,66.205,63.381,65.82,63.101z" fill="#42464A"/><path d="M64,126c19.772,0,37.368-9.266,48.721-23.68V76.356c0-3.408-2.762-6.17-6.17-6.17H20.17   c-0.132,0-0.386-0.039-0.386-0.039C16.56,69.944,14,67.292,14,64.016v12.34v24.293C25.284,116.018,43.473,126,64,126z" fill="#42464A"/><path d="M64,126c19.772,0,37.368-9.266,48.721-23.68V76.356c0-3.408-2.762-6.17-6.17-6.17H20.17   c-0.132,0-0.386-0.039-0.386-0.039C16.56,69.944,14,67.292,14,64.016v12.34v24.293C25.284,116.018,43.473,126,64,126z" fill="#42464A"/><rect fill="#C3BC7B" height="1" width="5" x="24.519" y="73.186"/><rect fill="#C3BC7B" height="1" width="5" x="34.519" y="73.186"/><rect fill="#C3BC7B" height="1" width="5" x="44.519" y="73.186"/><rect fill="#C3BC7B" height="5" width="1" x="109.221" y="81.129"/><rect fill="#C3BC7B" height="1" width="5" x="54.519" y="73.186"/><rect fill="#C3BC7B" height="5" width="1" x="109.221" y="91.129"/><path d="M15.67,70.951l-0.791,0.611c1.109,1.437,2.782,2.371,4.59,2.561l0.105-0.994   C18.036,72.966,16.613,72.173,15.67,70.951z" fill="#C3BC7B"/><rect fill="#C3BC7B" height="1" width="5" x="94.519" y="73.186"/><rect fill="#C3BC7B" height="1" width="5" x="64.519" y="73.186"/><path d="M110.221,101.129h-1v5h0.252c0.251-0.271,0.502-0.543,0.748-0.819V101.129z" fill="#C3BC7B"/><path d="M104.591,73.267l-0.154,0.988c1.521,0.238,2.9,1.106,3.782,2.382l0.822-0.568   C108.005,74.569,106.383,73.548,104.591,73.267z" fill="#C3BC7B"/><rect fill="#C3BC7B" height="1" width="5" x="84.519" y="73.186"/><rect fill="#C3BC7B" height="1" width="5" x="74.519" y="73.186"/><path d="M17.702,69.63C15.528,68.682,14,66.541,14,64.016v12.34v24.293   c1.162,1.583,2.398,3.107,3.702,4.571V81.292V69.63z" fill="#F8FAFB" opacity="0.1"/><path d="M112.721,76.356c0-2.559-1.559-4.754-3.778-5.688c0.031,0.249,0.076,0.494,0.076,0.752   v35.185c1.298-1.371,2.533-2.8,3.702-4.285V76.356z" fill="#05090C" opacity="0.2"/><path d="M114,100.65v-9.897H92.405c-5.111,0-9.255,4.144-9.255,9.255s4.144,9.255,9.255,9.255h13.944   C109.155,106.636,111.72,103.755,114,100.65z" fill="#F5CA41"/><path d="M84.705,105.142c1.285,3.567,4.69,6.122,8.699,6.122h10.701c0.764-0.649,1.511-1.316,2.242-2   H92.405C89.193,109.263,86.365,107.626,84.705,105.142z" fill="#05090C" opacity="0.2"/><path d="M114,90.753h-3v13.657c1.046-1.215,2.05-2.466,3-3.76V90.753z" fill="#05090C" opacity="0.1"/><circle cx="92.589" cy="100.008" fill="#42464A" r="4.707"/></g></svg>