<?xml version="1.0" ?><!DOCTYPE svg  PUBLIC '-//W3C//DTD SVG 1.1//EN'  'http://www.w3.org/Graphics/SVG/1.1/DTD/svg11.dtd'><svg enable-background="new 0 0 128 128" id="Слой_1" version="1.1" viewBox="0 0 128 128" xml:space="preserve" xmlns="http://www.w3.org/2000/svg" xmlns:xlink="http://www.w3.org/1999/xlink"><g><path d="M64,2C29.758,2,2,29.758,2,64c0,31.725,23.829,57.885,54.565,61.559   c2.438,0.291,38.112-5.658,49.123-15.665C118.166,98.552,126,82.191,126,64C126,29.758,98.242,2,64,2z" fill="#7B4C4C"/><path d="M108.156,34.812h-82.5c-0.518,0-0.938,0.42-0.938,0.938v40.312   c0,0.518,0.42,0.938,0.938,0.938h82.5c0.518,0,0.938-0.42,0.938-0.938V35.75C109.094,35.232,108.674,34.812,108.156,34.812z" fill="#05090C" opacity="0.15"/><path d="M105.344,32h-82.5c-0.518,0-0.938,0.42-0.938,0.938V73.25c0,0.518,0.42,0.938,0.938,0.938h82.5   c0.518,0,0.938-0.42,0.938-0.938V32.938C106.281,32.42,105.862,32,105.344,32z" fill="#41B19C"/><path d="M24.859,71.234h78.469V34.953H24.859V71.234z M25.703,35.797h76.781v34.594H25.703V35.797z" fill="#F5F8F8" opacity="0.2"/><circle cx="64.094" cy="53.094" fill="#F5F8F8" opacity="0.2" r="14.766"/><path d="M66.819,53.131c-0.435-0.283-0.934-0.51-1.483-0.678c-0.448-0.136-0.907-0.268-1.377-0.398   c-0.415-0.114-0.826-0.25-1.219-0.406c-0.302-0.119-0.569-0.278-0.794-0.474c-0.189-0.163-0.348-0.384-0.473-0.658   c-0.083-0.18-0.182-0.522-0.182-1.124c0-0.311,0.056-0.62,0.166-0.919c0.104-0.281,0.262-0.536,0.47-0.758   c0.208-0.222,0.487-0.406,0.826-0.548c0.71-0.297,1.866-0.298,2.547,0.007c0.324,0.145,0.591,0.34,0.794,0.579   c0.212,0.25,0.373,0.545,0.48,0.879c0.141,0.443,0.616,0.688,1.06,0.547c0.444-0.142,0.69-0.617,0.547-1.06   c-0.174-0.547-0.443-1.037-0.8-1.457c-0.367-0.433-0.834-0.778-1.39-1.027c-1.107-0.496-2.75-0.498-3.888-0.024   c-0.56,0.234-1.033,0.553-1.406,0.949c-0.365,0.388-0.643,0.836-0.824,1.33c-0.18,0.486-0.271,0.991-0.271,1.503   c0,0.728,0.113,1.344,0.335,1.829c0.227,0.494,0.531,0.908,0.902,1.229c0.37,0.32,0.8,0.579,1.28,0.768   c0.449,0.177,0.917,0.333,1.391,0.463c0.456,0.125,0.9,0.253,1.333,0.385c0.398,0.121,0.753,0.282,1.055,0.478   c0.29,0.188,0.53,0.436,0.714,0.738c0.187,0.307,0.282,0.725,0.282,1.243c0,0.377-0.055,0.739-0.165,1.075   c-0.106,0.324-0.267,0.61-0.48,0.848c-0.206,0.229-0.477,0.414-0.805,0.55c-0.619,0.254-1.589,0.279-2.349,0.037   c-0.338-0.107-0.641-0.282-0.902-0.521c-0.269-0.247-0.496-0.578-0.672-0.983c-0.186-0.427-0.681-0.624-1.111-0.437   c-0.427,0.186-0.623,0.683-0.437,1.11c0.272,0.625,0.635,1.148,1.08,1.555c0.443,0.406,0.959,0.704,1.533,0.885   c0.517,0.164,1.073,0.247,1.651,0.247c0.69,0,1.312-0.112,1.849-0.332c0.565-0.233,1.042-0.564,1.42-0.984   c0.372-0.415,0.65-0.903,0.829-1.453c0.164-0.505,0.247-1.042,0.247-1.596c0-0.832-0.177-1.545-0.528-2.121   C67.739,53.886,67.323,53.457,66.819,53.131z" fill="#42464A"/><path d="M96.25,72.495c-1.5-3.161-4.971-4.841-7.875-3.985c-1.197,0.353-2.186,1.065-2.895,1.979   c-0.633-2.466-2.283-4.609-4.639-5.594c-1.38-0.577-2.988-0.805-4.886-0.349c-1.962,0.472-3.418,1.918-4.025,3.689   c-1.535-3.054-4.605-5.164-8.081-5.164c-0.655,0-1.272,0.075-1.817,0.235c-1.754,0.517-3.068,1.801-3.695,3.375   c-0.178,0.406-0.303,0.833-0.379,1.275l-7.882-21.863c-1.027-2.849-4.096-4.404-7-3.547c-3.066,0.904-4.797,4.146-3.842,7.197   l7.653,24.446h50.208L96.25,72.495z" fill="#05090C" opacity="0.1"/><path d="   M64.039,60.098" fill="none" stroke="#303536" stroke-linecap="round" stroke-linejoin="round" stroke-miterlimit="10" stroke-width="1.875"/><path d="M64.039,59.209c-0.466,0-0.844,0.378-0.844,0.844v1.244c0,0.466,0.377,0.844,0.844,0.844   s0.844-0.378,0.844-0.844v-1.244C64.883,59.587,64.506,59.209,64.039,59.209z" fill="#42464A"/><path d="M64.039,44.047c-0.466,0-0.844,0.378-0.844,0.844v1.205c0,0.466,0.377,0.844,0.844,0.844   s0.844-0.378,0.844-0.844v-1.205C64.883,44.425,64.506,44.047,64.039,44.047z" fill="#42464A"/><path d="M91.427,120.054c-0.429,0.214-0.862,0.42-1.297,0.624C90.565,120.474,90.998,120.268,91.427,120.054z" fill="#DFC7A4"/><path d="M98.96,115.614c-0.406,0.28-0.82,0.547-1.232,0.817C98.14,116.161,98.555,115.894,98.96,115.614z" fill="#DFC7A4"/><path d="M94.014,118.69c-0.422,0.236-0.849,0.463-1.277,0.689C93.164,119.152,93.592,118.925,94.014,118.69z" fill="#DFC7A4"/><path d="M101.312,113.912c-0.396,0.301-0.802,0.589-1.205,0.88C100.51,114.501,100.916,114.213,101.312,113.912z" fill="#DFC7A4"/><path d="M96.526,117.208c-0.414,0.258-0.834,0.504-1.254,0.752C95.692,117.712,96.112,117.466,96.526,117.208z" fill="#DFC7A4"/><path d="M103.579,112.105c-0.387,0.324-0.786,0.632-1.181,0.947C102.793,112.737,103.192,112.428,103.579,112.105z" fill="#DFC7A4"/><path d="M68.127,126.347c-0.344,0.023-0.685,0.057-1.03,0.074C67.442,126.404,67.783,126.37,68.127,126.347z" fill="#DFC7A4"/><path d="M71.372,126.045c-0.406,0.048-0.808,0.106-1.216,0.146C70.564,126.151,70.966,126.093,71.372,126.045z" fill="#DFC7A4"/><path d="M64,126.5c-1.123,0-2.238-0.032-3.345-0.093C61.763,126.466,62.877,126.5,64,126.5z" fill="#DFC7A4"/><path d="M104.594,111.219c0.389-0.34,0.783-0.673,1.163-1.022v0C105.377,110.546,104.982,110.879,104.594,111.219z" fill="#DFC7A4"/><path d="M57.345,126.137c1.076,0.116,2.159,0.206,3.25,0.265C59.505,126.341,58.421,126.253,57.345,126.137z" fill="#DFC7A4"/><path d="M80.386,124.277c-0.444,0.122-0.888,0.246-1.337,0.359C79.497,124.523,79.941,124.4,80.386,124.277z" fill="#DFC7A4"/><path d="M83.244,123.415c-0.443,0.146-0.887,0.29-1.335,0.426C82.357,123.705,82.801,123.561,83.244,123.415z" fill="#DFC7A4"/><path d="M86.039,122.421c-0.44,0.169-0.882,0.334-1.326,0.493C85.158,122.755,85.599,122.589,86.039,122.421z" fill="#DFC7A4"/><path d="M77.459,125.006c-0.441,0.098-0.881,0.2-1.325,0.289C76.579,125.206,77.018,125.104,77.459,125.006z" fill="#DFC7A4"/><path d="M88.767,121.299c-0.435,0.191-0.873,0.377-1.314,0.559C87.894,121.677,88.332,121.491,88.767,121.299z" fill="#DFC7A4"/><path d="M74.461,125.596c-0.43,0.074-0.859,0.154-1.292,0.218C73.602,125.75,74.03,125.67,74.461,125.596z" fill="#DFC7A4"/><path d="M58.554,75.16l-2.597-7.205C55.492,70.663,56.829,73.845,58.554,75.16z" fill="#DFC7A4"/><path d="M84.713,122.914c-0.487,0.174-0.977,0.339-1.469,0.501C83.736,123.253,84.227,123.088,84.713,122.914z" fill="#DFC7A4"/><path d="M81.91,123.841c-0.505,0.153-1.014,0.296-1.524,0.436C80.896,124.137,81.405,123.994,81.91,123.841z" fill="#DFC7A4"/><path d="M79.049,124.636c-0.526,0.132-1.058,0.251-1.59,0.37C77.991,124.887,78.522,124.768,79.049,124.636z" fill="#DFC7A4"/><path d="M97.728,116.431c-0.399,0.261-0.797,0.524-1.202,0.777C96.931,116.956,97.329,116.693,97.728,116.431z" fill="#DFC7A4"/><path d="M100.106,114.793c-0.381,0.276-0.759,0.555-1.146,0.822C99.347,115.347,99.725,115.068,100.106,114.793z" fill="#DFC7A4"/><path d="M87.454,121.858c-0.469,0.193-0.94,0.38-1.415,0.562C86.514,122.239,86.985,122.052,87.454,121.858z" fill="#DFC7A4"/><path d="M76.134,125.295c-0.554,0.111-1.114,0.205-1.673,0.301C75.02,125.5,75.58,125.406,76.134,125.295z" fill="#DFC7A4"/><path d="M92.736,119.378c-0.434,0.229-0.869,0.457-1.31,0.676C91.867,119.835,92.302,119.608,92.736,119.378z" fill="#DFC7A4"/><path d="M95.272,117.96c-0.417,0.246-0.835,0.492-1.258,0.729C94.437,118.453,94.854,118.207,95.272,117.96z" fill="#DFC7A4"/><path d="M90.13,120.678c-0.452,0.212-0.905,0.42-1.363,0.621C89.225,121.098,89.678,120.89,90.13,120.678z" fill="#DFC7A4"/><path d="M102.398,113.051c-0.361,0.288-0.719,0.581-1.087,0.861C101.68,113.632,102.037,113.339,102.398,113.051z" fill="#DFC7A4"/><path d="M104.594,111.219c-0.338,0.296-0.67,0.598-1.015,0.886C103.923,111.816,104.256,111.514,104.594,111.219z" fill="#DFC7A4"/><path d="M60.655,126.407c-0.02-0.001-0.039-0.004-0.059-0.005C60.615,126.403,60.635,126.406,60.655,126.407z" fill="#DFC7A4"/><path d="M67.097,126.421c-1.026,0.051-2.058,0.079-3.097,0.079C65.039,126.5,66.071,126.472,67.097,126.421z" fill="#DFC7A4"/><path d="M70.156,126.191c-0.672,0.067-1.351,0.111-2.029,0.156C68.805,126.302,69.484,126.258,70.156,126.191z" fill="#DFC7A4"/><polygon fill="#DFC7A4" points="57.345,126.137 57.345,126.137 57.345,126.137  "/><path d="M73.169,125.815c-0.595,0.089-1.196,0.158-1.796,0.23C71.973,125.973,72.574,125.904,73.169,125.815z" fill="#DFC7A4"/><path d="M103.78,92.543c-0.887-2.896-4.136-9.408-6.652-14.271l-2.878-5.777c-1.5-3.161-4.971-4.841-7.875-3.985   c-1.197,0.353-2.186,1.065-2.895,1.979c-0.633-2.466-2.283-4.609-4.639-5.594c-1.38-0.577-2.988-0.805-4.886-0.349   c-1.962,0.472-3.418,1.918-4.025,3.689c-1.535-3.054-4.605-5.164-8.081-5.164c-0.655,0-1.272,0.075-1.817,0.235   c-1.754,0.517-3.068,1.801-3.695,3.375c-0.178,0.406-0.303,0.833-0.379,1.275l-7.882-21.863c-1.027-2.849-4.096-4.404-7-3.547   c-3.066,0.904-4.797,4.146-3.842,7.197l11.985,38.284c1.222,3.669,1.929,6.55,2.405,8.483l-1.253,0.176L38.035,82.307   c-1.719-2.004-4.65-2.44-6.878-1.023c-2.477,1.575-3.205,4.862-1.626,7.336l11.329,17.75c4.555,8.735,10.085,14.814,15.707,19.17   C59.006,125.833,61.483,126,64,126c16.118,0,30.796-6.153,41.822-16.235C106.722,104.747,105.703,98.822,103.78,92.543z" fill="#EABF9B"/><path d="M56,68.076l0.019,0.054C56.02,68.13,56.018,68.125,56,68.076z" fill="#DFC7A4"/><path d="M56.022,68.137l0.06,0.166C56.039,68.185,56.027,68.149,56.022,68.137z" fill="#DFC7A4"/><path d="M35.965,82.279c-0.469-1.058-1.426-1.669-2.507-1.776c-0.797,0.082-1.586,0.326-2.301,0.781   l0,0c-2.477,1.575-3.205,4.862-1.626,7.336l1.179,1.848c0.126,0.172,0.249,0.341,0.356,0.485c0.441,0.598,1.127,0.873,1.826,0.739   c2.351-0.452,3.748-2.354,4.457-3.689c0.405-0.763,0.434-1.692,0.096-2.433C37.077,84.762,36.54,83.575,35.965,82.279z" fill="#F5F6F5" opacity="0.5"/><path d="M48.075,46.092c-0.849-2.354-3.094-3.8-5.486-3.757c-0.122,0.02-0.25,0.02-0.369,0.05   c-2.823,0.708-4.887,3.559-4.091,5.704c0.514,1.384,1.065,2.745,1.436,3.641c0.31,0.748,0.974,1.303,1.768,1.482   c2.671,0.602,3.844-0.066,5.763-0.883c0.775-0.33,2.373-1.893,2.175-2.92l-0.179-0.496L48.075,46.092z" fill="#F5F6F5" opacity="0.5"/></g></svg>