<?xml version="1.0" ?><!DOCTYPE svg  PUBLIC '-//W3C//DTD SVG 1.1//EN'  'http://www.w3.org/Graphics/SVG/1.1/DTD/svg11.dtd'><svg enable-background="new 0 0 128 128" id="Слой_1" version="1.1" viewBox="0 0 128 128" xml:space="preserve" xmlns="http://www.w3.org/2000/svg" xmlns:xlink="http://www.w3.org/1999/xlink"><g><circle cx="64" cy="64" fill="#62C8CF" r="62"/><path d="M23.014,54.691l-1.924-4.688l-1.913,4.688 M65.395,52.824c-0.386,0.234-0.843,0.242-1.39,0.242H60.59   v-2.612h3.461c0.49,0,1.001,0.022,1.333,0.212c0.365,0.171,0.59,0.536,0.59,1.04C65.974,52.22,65.759,52.634,65.395,52.824z    M89.753,54.691l-1.945-4.688l-1.934,4.688H89.753z M44.347,59.765h-2.881l-0.011-9.21l-4.076,9.21h-2.468l-4.086-9.218v9.218   h-5.717l-1.08-2.623h-5.852l-1.091,2.623h-3.053l5.033-11.759h4.176l4.78,11.133V48.006h4.587l3.678,7.977l3.379-7.977h4.68   L44.347,59.765L44.347,59.765z M55.831,59.765h-9.389V48.006h9.389v2.449h-6.579v2.12h6.421v2.41h-6.421v2.348h6.579V59.765z    M69.07,51.173c0,1.875-1.251,2.843-1.981,3.134c0.615,0.234,1.14,0.648,1.39,0.99c0.397,0.585,0.465,1.107,0.465,2.158v2.31H66.11   L66.1,58.282c0-0.708,0.068-1.725-0.444-2.291c-0.411-0.414-1.037-0.503-2.049-0.503H60.59v4.277h-2.81V48.006h6.465   c1.436,0,2.495,0.038,3.403,0.563C68.537,49.095,69.07,49.861,69.07,51.173z M73.568,59.765H70.7V48.006h2.868V59.765z    M106.84,59.765h-3.983l-5.328-8.826v8.826h-5.724l-1.094-2.623h-5.839l-1.061,2.623h-3.289c-1.366,0-3.096-0.302-4.076-1.301   c-0.988-0.998-1.502-2.351-1.502-4.489c0-1.744,0.307-3.338,1.515-4.598c0.909-0.938,2.332-1.371,4.269-1.371h2.721v2.52h-2.664   c-1.026,0-1.605,0.153-2.163,0.697c-0.479,0.495-0.808,1.431-0.808,2.664c0,1.26,0.25,2.168,0.773,2.762   c0.433,0.465,1.219,0.607,1.959,0.607h1.262l3.961-9.248h4.211l4.759,11.122V48.007h4.28l4.941,8.19v-8.19h2.879L106.84,59.765   L106.84,59.765z M14,62.075h4.802l1.083-2.612h2.424l1.08,2.612h9.449v-1.997l0.843,2.005h4.905l0.843-2.035v2.027h23.483   l-0.011-4.287h0.454c0.318,0.011,0.411,0.04,0.411,0.566v3.722h12.145v-0.998c0.98,0.525,2.503,0.998,4.508,0.998h5.109   l1.093-2.612h2.424l1.069,2.612h9.846v-2.481l1.491,2.481h7.89v-16.4h-7.809v1.937l-1.093-1.937h-8.013v1.937l-1.004-1.937H80.604   c-1.812,0-3.404,0.253-4.691,0.958v-0.958h-7.469v0.958c-0.819-0.726-1.934-0.958-3.174-0.958H37.983l-1.831,4.236l-1.88-4.236   h-8.595v1.937l-0.944-1.937h-7.33L14,53.472L14,62.075z" fill="#FEFFFF"/><path d="M114,70.748h-5.123c-0.511,0-0.851,0.019-1.137,0.212c-0.297,0.19-0.411,0.473-0.411,0.846   c0,0.444,0.25,0.746,0.615,0.876c0.297,0.103,0.615,0.133,1.083,0.133l1.523,0.041c1.537,0.038,2.563,0.302,3.189,0.947   c0.114,0.09,0.182,0.19,0.261,0.291 M114,78.503c-0.683,0.998-2.013,1.505-3.814,1.505h-5.428v-2.522h5.406   c0.536,0,0.912-0.071,1.137-0.291c0.196-0.182,0.332-0.446,0.332-0.767c0-0.343-0.137-0.615-0.343-0.778   c-0.204-0.179-0.501-0.261-0.99-0.261c-2.639-0.09-5.932,0.082-5.932-3.64c0-1.706,1.083-3.502,4.033-3.502H114v-2.34h-5.202   c-1.57,0-2.71,0.376-3.518,0.96v-0.96h-7.694c-1.23,0-2.675,0.305-3.358,0.96v-0.96h-13.74v0.96c-1.093-0.789-2.939-0.96-3.79-0.96   h-9.063v0.96c-0.865-0.838-2.789-0.96-3.961-0.96H53.532l-2.321,2.512l-2.174-2.512H33.886v16.412h14.866l2.392-2.552l2.253,2.552   l9.163,0.008v-3.861h0.901c1.216,0.019,2.65-0.03,3.915-0.577v4.429h7.558V78.04h0.365c0.465,0,0.511,0.019,0.511,0.484v3.793   h22.96c1.458,0,2.981-0.373,3.825-1.05v1.05h7.283c1.516,0,2.996-0.212,4.122-0.757L114,78.503L114,78.503z M102.788,73.804   c0.547,0.566,0.841,1.281,0.841,2.492c0,2.53-1.581,3.711-4.415,3.711h-5.474v-2.522h5.452c0.533,0,0.911-0.071,1.148-0.291   c0.193-0.182,0.332-0.446,0.332-0.767c0-0.343-0.15-0.615-0.343-0.778c-0.215-0.179-0.511-0.261-1.001-0.261   c-2.629-0.09-5.92,0.082-5.92-3.64c0-1.706,1.072-3.502,4.019-3.502h5.635v2.503h-5.156c-0.511,0-0.843,0.019-1.126,0.212   c-0.308,0.19-0.422,0.473-0.422,0.846c0,0.444,0.261,0.746,0.615,0.876c0.297,0.103,0.615,0.133,1.094,0.133l1.513,0.041   C101.104,72.895,102.152,73.159,102.788,73.804z M77.426,73.078c-0.376,0.223-0.841,0.242-1.388,0.242h-3.414v-2.642h3.461   c0.5,0,1.001,0.011,1.341,0.212c0.364,0.19,0.582,0.555,0.582,1.058S77.79,72.857,77.426,73.078z M79.123,74.541   c0.626,0.231,1.137,0.645,1.377,0.987c0.397,0.574,0.454,1.11,0.466,2.147v2.332h-2.822v-1.472c0-0.708,0.068-1.755-0.454-2.302   c-0.411-0.421-1.037-0.522-2.062-0.522h-3.004v4.296H69.8V68.245h6.489c1.423,0,2.459,0.063,3.382,0.555   c0.887,0.536,1.445,1.27,1.445,2.612C81.115,73.29,79.863,74.248,79.123,74.541z M82.674,68.245h9.381v2.432h-6.582v2.138h6.421   v2.4h-6.421v2.34l6.582,0.011v2.441h-9.381V68.245z M63.711,73.673h-3.632v-2.995h3.665c1.015,0,1.719,0.414,1.719,1.442   C65.462,73.138,64.791,73.673,63.711,73.673z M57.279,78.938l-4.315-4.791l4.315-4.639V78.938z M46.135,77.556h-6.911v-2.34h6.171   v-2.4h-6.171v-2.138h7.047l3.074,3.428L46.135,77.556z M68.48,72.12c0,3.267-2.438,3.942-4.895,3.942h-3.507v3.945h-5.463   l-3.461-3.894l-3.597,3.894H36.424V68.245h11.305l3.458,3.855l3.575-3.855h8.981C65.974,68.245,68.48,68.863,68.48,72.12z" fill="#FEFFFF"/></g></svg>