<?xml version="1.0" ?><!DOCTYPE svg  PUBLIC '-//W3C//DTD SVG 1.1//EN'  'http://www.w3.org/Graphics/SVG/1.1/DTD/svg11.dtd'><svg enable-background="new 0 0 128 128" id="Слой_1" version="1.1" viewBox="0 0 128 128" xml:space="preserve" xmlns="http://www.w3.org/2000/svg" xmlns:xlink="http://www.w3.org/1999/xlink"><g><path d="M64,2C29.758,2,2,29.758,2,64c0,13.714,4.453,26.388,11.991,36.656   c11.284,15.368,88.733,15.368,100.017,0.001C121.547,90.389,126,77.714,126,64C126,29.758,98.242,2,64,2z" fill="#F5CA41"/><path d="M110.253,105.273V64.016c0-3.408-2.762-6.17-6.17-6.17H20.17c-3.408,0-6.17,2.762-6.17,6.17   c0,2.529,1.525,4.696,3.702,5.649v35.555c7.749,8.698,17.911,15.188,29.436,18.439h33.723   C92.364,120.415,102.509,113.944,110.253,105.273z" fill="#C3BC7B"/><path d="M110.253,105.273V64.016c0-3.408-2.762-6.17-6.17-6.17H20.17c-3.408,0-6.17,2.762-6.17,6.17   c0,2.529,1.525,4.696,3.702,5.649v35.555C25.451,113.918,102.509,113.944,110.253,105.273z" fill="#41B19C"/><path d="M104.083,57.846H20.17c-3.408,0-6.17,2.762-6.17,6.17c0,0.661,0.109,1.294,0.302,1.891   c0.778-2.518,3.096-4.359,5.868-4.359h83.913c3.408,0,6.17,2.762,6.17,6.17v-3.702C110.253,60.608,107.49,57.846,104.083,57.846z" fill="#05090C" opacity="0.1"/><path d="M94.598,57.45L34.54,81.606c-2.497,1.004-5.336-0.206-6.341-2.703l-9.701-24.12l-0.695-4.215l-2.777-4.417   l-0.697-1.734c-1.004-2.497,0.206-5.336,2.703-6.341L77.09,13.921c2.497-1.004,5.336,0.206,6.341,2.703l0.697,1.734l0.67,4.152   l2.802,4.48l9.701,24.12C98.306,53.607,97.096,56.445,94.598,57.45z" fill="#D8D8D0"/><rect fill="#42464A" height="9.31" transform="matrix(-0.9278 0.3732 -0.3732 -0.9278 112.5658 51.3511)" width="74.483" x="14.072" y="31.915"/><rect fill="#F8FAFB" height="7.448" transform="matrix(0.9278 -0.3732 0.3732 0.9278 -14.1013 24.4779)" width="61.324" x="25.515" y="44.939"/><path d="M28.815,51.304V80.06c1.218,1.715,3.484,2.447,5.522,1.628l60.465-24.32   c2.385-0.959,3.541-3.671,2.582-6.056l-2.624-6.525H35.332C31.738,44.787,28.815,47.711,28.815,51.304z" fill="#05090C" opacity="0.1"/><path d="M100.286,93.567H35.551c-2.692,0-4.874-2.182-4.874-4.874v-37.17c0-2.692,2.182-4.874,4.874-4.874h64.735   c2.692,0,4.874,2.182,4.874,4.874v37.17C105.16,91.385,102.977,93.567,100.286,93.567z" fill="#EBEBEB"/><path d="M87.351,58.05c0-3.868,3.136-7.003,7.004-7.003c3.868,0,7.003,3.135,7.003,7.003   c0,3.867-3.135,7.003-7.003,7.003C90.487,65.054,87.351,61.918,87.351,58.05L87.351,58.05z" fill="#ECC649"/><path d="M89.664,52.837c0.003,0-0.367,0.32-0.614,0.634h1.246c0,0,0.426,0.46,0.583,0.808h-2.435   c0,0-0.236,0.371-0.393,0.684h3.221c0,0,0.295,0.551,0.359,0.842h-3.917c0,0-0.134,0.382-0.191,0.662l4.287-0.005   c0.118,0.538,0.404,2.104-0.185,3.833l-3.895,0.005c0.062,0.207,0.168,0.488,0.269,0.695h3.345   c-0.135,0.281-0.332,0.634-0.444,0.812l-2.452,0.002c0.129,0.196,0.337,0.505,0.471,0.646l1.51-0.001   c-0.283,0.391-0.763,0.797-0.763,0.797h-0.012l0.016,0.005c-1.24,1.117-2.883,1.797-4.684,1.797c-3.868,0-7.003-3.136-7.003-7.003   c0-3.868,3.135-7.003,7.003-7.003C86.784,51.047,88.424,51.724,89.664,52.837L89.664,52.837z" fill="#C45C45"/><path d="M86.344,56.955l-0.113,0.63l-0.614-0.016c0,0-0.307,0.08-0.307,0.21c0,0.129,0.226,0.291,0.566,0.436   c0.34,0.146,0.356,0.549,0.323,0.824c-0.032,0.275-0.081,0.845-1.067,0.873c-0.566,0.016-0.873-0.097-0.873-0.097l0.129-0.646   c0,0,0.727,0.194,0.889,0.081c0.162-0.113,0.355-0.307,0.048-0.436c-0.307-0.129-0.808-0.34-0.808-0.856   c0-0.517,0.21-0.808,0.534-0.954C85.374,56.858,85.94,56.874,86.344,56.955L86.344,56.955z" fill="#FEFFFF"/><polygon fill="#FEFFFF" points="81.489,59.838 80.775,59.838 81.19,57.383 80.307,59.823 79.814,59.823 79.695,57.285    79.263,59.838 78.587,59.838 79.224,56.09 80.044,56.09 80.331,58.248 81.284,56.09 82.126,56.09 81.489,59.838  "/><path d="M86.982,59.891c-0.232,0-0.399-0.052-0.498-0.15c-0.1-0.105-0.15-0.263-0.15-0.465   c0-0.053,0.006-0.105,0.011-0.151c0.006-0.052,0.016-0.112,0.022-0.18l0.43-2.398h0.67l-0.097,0.468h0.626l-0.105,0.593h-0.625   l-0.172,1.022c-0.011,0.067-0.022,0.134-0.033,0.209c-0.011,0.068-0.016,0.136-0.016,0.181c0,0.105,0.016,0.173,0.061,0.211   c0.039,0.037,0.105,0.06,0.194,0.06c0.033,0,0.078-0.008,0.133-0.023c0.056-0.022,0.106-0.037,0.139-0.06h0.055l-0.105,0.601   c-0.078,0.03-0.155,0.045-0.238,0.059C87.198,59.883,87.099,59.891,86.982,59.891L86.982,59.891z" fill="#FEFFFF"/><path d="M91.789,57.804c-0.146-0.113-0.472-0.09-0.54,0.142l-0.321,1.893h-0.669l0.482-2.824h0.669l-0.014,0.228   c0.128-0.128,0.269-0.236,0.628-0.225C92.046,57.018,91.806,57.437,91.789,57.804L91.789,57.804z" fill="#FEFFFF"/><path d="M93.054,59.914c-0.371,0-0.665-0.127-0.863-0.376c-0.205-0.247-0.305-0.608-0.305-1.074   c0-0.368,0.045-0.699,0.133-0.999c0.088-0.301,0.216-0.555,0.37-0.773c0.156-0.21,0.339-0.375,0.555-0.495   c0.209-0.121,0.437-0.181,0.674-0.181c0.188,0,0.366,0.03,0.532,0.083c0.08,0.028,0.235,0.101,0.235,0.101l-0.156,0.89   c-0.078-0.099-0.155-0.177-0.234-0.233c-0.117-0.075-0.255-0.121-0.41-0.121c-0.277,0-0.504,0.151-0.681,0.451   c-0.182,0.301-0.272,0.684-0.272,1.149c0,0.3,0.05,0.519,0.15,0.653c0.1,0.127,0.243,0.195,0.432,0.195   c0.171,0,0.331-0.046,0.482-0.135c0.071-0.047,0.14-0.096,0.208-0.152l-0.156,0.85c0,0-0.081,0.039-0.119,0.053   c-0.094,0.037-0.176,0.06-0.249,0.082C93.303,59.897,93.193,59.914,93.054,59.914L93.054,59.914z" fill="#FEFFFF"/><path d="M83.138,59.74c-0.028,0.023-0.055,0.038-0.078,0.053c-0.072,0.038-0.133,0.068-0.194,0.09   c-0.061,0.015-0.144,0.031-0.255,0.031c-0.172,0-0.316-0.068-0.421-0.195c-0.111-0.136-0.166-0.308-0.166-0.518   c0-0.225,0.039-0.413,0.117-0.571c0.078-0.151,0.193-0.279,0.349-0.369c0.144-0.09,0.316-0.15,0.509-0.188l0.138-0.023   c0.16-0.03,0.327-0.052,0.51-0.06c0-0.015,0-0.03,0.005-0.052c0.006-0.022,0.006-0.045,0.006-0.075c0-0.12-0.039-0.203-0.122-0.256   c-0.083-0.045-0.205-0.067-0.365-0.067h-0.033c-0.1,0.007-0.21,0.03-0.332,0.075c-0.133,0.053-0.233,0.09-0.299,0.128h-0.061   l0.1-0.668c0.078-0.03,0.199-0.06,0.36-0.09c0.077-0.023,0.155-0.03,0.232-0.038c0.083-0.015,0.172-0.015,0.255-0.015   c0.327,0,0.565,0.06,0.72,0.173c0.155,0.113,0.227,0.293,0.227,0.541c0,0.03,0,0.075-0.006,0.128   c-0.006,0.053-0.011,0.098-0.017,0.143l-0.326,1.922h-0.665l0.05-0.301c-0.039,0.038-0.094,0.083-0.15,0.136   C83.193,59.695,83.165,59.718,83.138,59.74L83.138,59.74z M83.138,58.569c-0.072,0.015-0.133,0.037-0.183,0.06   c-0.077,0.037-0.133,0.089-0.171,0.157c-0.044,0.068-0.061,0.158-0.061,0.27c0,0.098,0.028,0.165,0.077,0.203   c0.055,0.037,0.128,0.06,0.233,0.06c0.033,0,0.066-0.007,0.105-0.023c0.033-0.007,0.067-0.022,0.105-0.037   c0.072-0.045,0.144-0.098,0.21-0.158l0.1-0.601c-0.116,0.015-0.233,0.03-0.332,0.053C83.193,58.554,83.165,58.562,83.138,58.569   L83.138,58.569z" fill="#FEFFFF"/><path d="M88.928,57.502c-0.088,0.015-0.171,0.06-0.238,0.135c-0.094,0.106-0.166,0.241-0.216,0.421h0.454h0.449   c0-0.03,0.006-0.053,0.006-0.083c0-0.022,0.005-0.052,0.005-0.074c0-0.136-0.033-0.233-0.094-0.309   c-0.061-0.067-0.143-0.104-0.26-0.104C89,57.488,88.962,57.495,88.928,57.502L88.928,57.502z M88.928,59.275h0.1   c0.144,0,0.282-0.03,0.415-0.098c0.127-0.068,0.244-0.143,0.337-0.225h0.078l-0.127,0.728c-0.127,0.076-0.266,0.136-0.409,0.173   c-0.122,0.037-0.255,0.052-0.394,0.06h-0.061c-0.36,0-0.631-0.105-0.825-0.323c-0.193-0.211-0.288-0.503-0.288-0.879   c0-0.256,0.034-0.496,0.095-0.707c0.061-0.217,0.155-0.405,0.271-0.571c0.116-0.157,0.255-0.277,0.426-0.375   c0.122-0.06,0.25-0.105,0.382-0.128c0.061-0.007,0.122-0.007,0.183-0.007c0.31,0,0.543,0.082,0.703,0.255   c0.155,0.166,0.233,0.421,0.233,0.752c0,0.113-0.006,0.225-0.022,0.338c-0.017,0.104-0.039,0.217-0.066,0.322h-1.03h-0.52v0.03   v0.03c0,0.195,0.055,0.346,0.155,0.458C88.646,59.2,88.768,59.26,88.928,59.275L88.928,59.275z" fill="#FEFFFF"/><path d="M95.203,59.74c-0.027,0.023-0.055,0.038-0.083,0.053c-0.066,0.038-0.133,0.068-0.193,0.09   c-0.061,0.015-0.145,0.031-0.25,0.031c-0.178,0-0.316-0.068-0.426-0.195C94.14,59.582,94.09,59.41,94.09,59.2   c0-0.225,0.039-0.413,0.117-0.571c0.077-0.151,0.193-0.279,0.344-0.369c0.143-0.09,0.315-0.15,0.514-0.188   c0.045-0.008,0.089-0.015,0.138-0.023c0.156-0.03,0.327-0.052,0.505-0.06c0.005-0.015,0.005-0.03,0.01-0.052   c0-0.022,0.006-0.045,0.006-0.075c0-0.12-0.044-0.203-0.123-0.256c-0.083-0.045-0.204-0.067-0.365-0.067h-0.034   c-0.105,0.007-0.215,0.03-0.331,0.075c-0.133,0.053-0.233,0.09-0.299,0.128h-0.061l0.094-0.668c0.078-0.03,0.198-0.06,0.365-0.09   c0.078-0.023,0.154-0.03,0.232-0.038c0.084-0.015,0.166-0.015,0.255-0.015c0.327,0,0.564,0.06,0.72,0.173   c0.149,0.113,0.227,0.293,0.227,0.541c0,0.03,0,0.075-0.005,0.128c-0.006,0.053-0.011,0.098-0.018,0.143l-0.326,1.922h-0.665   l0.051-0.301c-0.045,0.038-0.094,0.083-0.155,0.136L95.203,59.74L95.203,59.74z M95.203,58.569   c-0.071,0.015-0.132,0.037-0.188,0.06c-0.072,0.037-0.133,0.089-0.171,0.157c-0.04,0.068-0.062,0.158-0.062,0.27   c0,0.098,0.028,0.165,0.084,0.203c0.049,0.037,0.127,0.06,0.227,0.06c0.032,0,0.072-0.007,0.11-0.023   c0.034-0.007,0.067-0.022,0.1-0.037c0.078-0.045,0.144-0.098,0.211-0.158l0.105-0.601c-0.122,0.015-0.233,0.03-0.338,0.053   C95.253,58.554,95.226,58.562,95.203,58.569L95.203,58.569z" fill="#FEFFFF"/><path d="M98.029,57.804c-0.146-0.113-0.472-0.09-0.54,0.142l-0.321,1.893h-0.67l0.482-2.824h0.669l-0.014,0.228   c0.127-0.128,0.269-0.236,0.629-0.225C98.286,57.018,98.046,57.437,98.029,57.804L98.029,57.804z" fill="#FEFFFF"/><path clip-rule="evenodd" d="M99.345,57.615c-0.033,0.015-0.066,0.038-0.094,0.06   c-0.089,0.06-0.161,0.151-0.221,0.256c-0.05,0.104-0.094,0.225-0.122,0.383c-0.034,0.15-0.05,0.301-0.05,0.443   c0,0.173,0.033,0.293,0.088,0.367c0.062,0.083,0.15,0.121,0.266,0.121c0.045,0,0.089-0.008,0.133-0.03   c0.022-0.008,0.039-0.015,0.061-0.03c0.066-0.038,0.127-0.076,0.188-0.128l0.238-1.389c-0.039-0.023-0.083-0.046-0.143-0.061   c-0.056-0.022-0.105-0.029-0.15-0.029C99.466,57.578,99.406,57.592,99.345,57.615L99.345,57.615z M99.345,59.688   c-0.05,0.045-0.106,0.09-0.166,0.127c-0.055,0.03-0.11,0.06-0.16,0.075c-0.056,0.015-0.123,0.023-0.194,0.023   c-0.205,0-0.366-0.091-0.488-0.263c-0.116-0.18-0.177-0.435-0.177-0.758c0-0.27,0.027-0.526,0.094-0.759   c0.061-0.232,0.149-0.443,0.26-0.622c0.111-0.181,0.238-0.316,0.387-0.421c0.145-0.098,0.289-0.15,0.444-0.158h0.022   c0.116,0,0.216,0.015,0.299,0.045c0.083,0.03,0.172,0.083,0.26,0.151l0.149-0.985h0.67l-0.614,3.696h-0.67l0.049-0.293   C99.45,59.597,99.394,59.643,99.345,59.688L99.345,59.688z" fill="#FEFFFF" fill-rule="evenodd"/><rect fill="#C3BC7B" height="10.241" width="4.267" x="43.44" y="62.194"/><path d="M52.401,63.048c0-0.471-0.382-0.853-0.853-0.853h-2.987v4.694h3.841V63.048z" fill="#C3BC7B"/><path d="M48.561,72.436h2.987c0.471,0,0.853-0.382,0.853-0.853v-3.841h-3.841V72.436z" fill="#C3BC7B"/><path d="M38.746,71.582c0,0.471,0.382,0.853,0.853,0.853h2.987v-4.694h-3.841V71.582z" fill="#C3BC7B"/><path d="M42.586,62.194h-2.987c-0.471,0-0.853,0.382-0.853,0.853v3.841h3.841V62.194z" fill="#C3BC7B"/><path d="M39.128,79.072v-0.507h-1.369c-0.173,0-0.302-0.039-0.389-0.117s-0.13-0.185-0.13-0.319   c0-0.035,0.006-0.07,0.019-0.105c0.013-0.035,0.032-0.073,0.057-0.112c0.025-0.039,0.052-0.077,0.079-0.113   c0.027-0.036,0.061-0.081,0.101-0.134l1.446-1.934c0.095-0.127,0.172-0.22,0.233-0.277c0.061-0.057,0.134-0.086,0.22-0.086   c0.276,0,0.415,0.158,0.415,0.475v2.111h0.117c0.14,0,0.252,0.019,0.337,0.057c0.085,0.038,0.127,0.122,0.127,0.251   c0,0.105-0.035,0.182-0.104,0.23c-0.069,0.048-0.173,0.072-0.311,0.072H39.81v0.507c0,0.14-0.031,0.244-0.093,0.312   c-0.062,0.068-0.145,0.102-0.248,0.102c-0.102,0-0.184-0.035-0.247-0.105C39.159,79.312,39.128,79.209,39.128,79.072z    M37.955,77.954h1.173v-1.585L37.955,77.954z" fill="#020507"/><path d="M41.738,78.775h1.424c0.142,0,0.25,0.029,0.325,0.087c0.075,0.058,0.112,0.137,0.112,0.237   c0,0.089-0.03,0.165-0.089,0.226c-0.059,0.062-0.149,0.093-0.269,0.093h-2.008c-0.136,0-0.243-0.038-0.319-0.113   S40.8,79.141,40.8,79.039c0-0.065,0.025-0.152,0.074-0.26c0.049-0.108,0.103-0.193,0.161-0.255c0.242-0.251,0.46-0.466,0.655-0.645   c0.195-0.179,0.334-0.297,0.417-0.353c0.149-0.105,0.273-0.211,0.372-0.318c0.099-0.106,0.175-0.215,0.226-0.327   c0.052-0.112,0.078-0.221,0.078-0.329c0-0.116-0.028-0.22-0.083-0.312c-0.055-0.092-0.131-0.163-0.226-0.214   c-0.095-0.051-0.2-0.076-0.312-0.076c-0.238,0-0.426,0.105-0.562,0.314c-0.018,0.027-0.049,0.102-0.091,0.224   s-0.091,0.215-0.145,0.281c-0.054,0.065-0.132,0.098-0.236,0.098c-0.091,0-0.166-0.03-0.226-0.09c-0.06-0.06-0.09-0.142-0.09-0.245   c0-0.125,0.028-0.256,0.085-0.393c0.056-0.136,0.14-0.26,0.252-0.371c0.112-0.111,0.254-0.2,0.426-0.269s0.373-0.102,0.604-0.102   c0.278,0,0.516,0.044,0.712,0.131c0.127,0.058,0.239,0.138,0.336,0.24c0.096,0.102,0.171,0.22,0.225,0.353   c0.054,0.134,0.08,0.272,0.08,0.416c0,0.225-0.056,0.431-0.168,0.615c-0.112,0.185-0.226,0.329-0.342,0.434   s-0.311,0.269-0.585,0.492c-0.274,0.224-0.461,0.397-0.563,0.521C41.828,78.647,41.784,78.706,41.738,78.775z" fill="#020507"/><path d="M44.682,75.458h1.817c0.175,0,0.301,0.027,0.379,0.082c0.078,0.055,0.117,0.145,0.117,0.27   c0,0.076-0.046,0.177-0.138,0.303c-0.092,0.125-0.196,0.264-0.314,0.416c-0.117,0.152-0.238,0.34-0.363,0.566   c-0.125,0.225-0.239,0.501-0.342,0.826c-0.044,0.144-0.075,0.263-0.093,0.357c-0.018,0.095-0.038,0.217-0.06,0.368   c-0.022,0.151-0.041,0.266-0.057,0.346c-0.038,0.185-0.092,0.314-0.162,0.386c-0.07,0.072-0.163,0.108-0.28,0.108   c-0.111,0-0.2-0.039-0.267-0.116c-0.067-0.077-0.101-0.191-0.101-0.342c0-0.116,0.025-0.275,0.074-0.475s0.129-0.44,0.24-0.719   s0.25-0.566,0.416-0.859s0.364-0.586,0.593-0.877h-1.459c-0.153,0-0.267-0.028-0.342-0.083c-0.075-0.055-0.113-0.142-0.113-0.26   c0-0.125,0.04-0.206,0.12-0.243C44.426,75.476,44.538,75.458,44.682,75.458z" fill="#020507"/><path d="M49.717,76.094h-1.296l-0.155,0.884c0.258-0.138,0.496-0.207,0.715-0.207c0.175,0,0.338,0.033,0.49,0.098   c0.152,0.065,0.285,0.156,0.4,0.271c0.115,0.115,0.205,0.252,0.27,0.411c0.065,0.158,0.098,0.328,0.098,0.51   c0,0.264-0.059,0.504-0.177,0.72c-0.118,0.216-0.289,0.388-0.511,0.516c-0.223,0.127-0.48,0.191-0.771,0.191   c-0.326,0-0.59-0.06-0.792-0.18c-0.203-0.12-0.346-0.258-0.431-0.413c-0.085-0.155-0.127-0.291-0.127-0.408   c0-0.071,0.03-0.138,0.089-0.202c0.059-0.064,0.133-0.095,0.222-0.095c0.153,0,0.266,0.088,0.341,0.265   c0.073,0.162,0.171,0.288,0.295,0.378s0.262,0.135,0.415,0.135c0.14,0,0.263-0.036,0.368-0.109c0.105-0.073,0.187-0.173,0.244-0.3   s0.086-0.272,0.086-0.434c0-0.175-0.031-0.324-0.093-0.447c-0.062-0.124-0.145-0.216-0.248-0.277   c-0.104-0.061-0.219-0.091-0.346-0.091c-0.156,0-0.268,0.019-0.335,0.057c-0.067,0.038-0.164,0.105-0.29,0.2   c-0.126,0.095-0.23,0.143-0.312,0.143c-0.089,0-0.168-0.032-0.237-0.097c-0.069-0.065-0.104-0.138-0.104-0.22   c0-0.009,0.01-0.071,0.03-0.185L47.78,75.9c0.025-0.156,0.073-0.27,0.142-0.341c0.069-0.071,0.182-0.106,0.338-0.106h1.44   c0.284,0,0.426,0.108,0.426,0.325c0,0.095-0.035,0.171-0.104,0.229S49.851,76.094,49.717,76.094z" fill="#020507"/><path d="M54.774,77.005c0.167,0,0.311-0.049,0.432-0.147c0.121-0.098,0.181-0.239,0.181-0.423   c0-0.14-0.048-0.26-0.145-0.361c-0.096-0.101-0.226-0.151-0.39-0.151c-0.111,0-0.202,0.015-0.274,0.046   c-0.072,0.031-0.129,0.072-0.17,0.123c-0.042,0.051-0.081,0.116-0.119,0.196s-0.071,0.155-0.102,0.226   c-0.018,0.038-0.051,0.068-0.098,0.09s-0.102,0.033-0.164,0.033c-0.073,0-0.14-0.03-0.2-0.089s-0.091-0.138-0.091-0.236   c0-0.095,0.029-0.194,0.086-0.299c0.057-0.105,0.141-0.204,0.251-0.299s0.247-0.17,0.411-0.228s0.346-0.086,0.548-0.086   c0.176,0,0.337,0.024,0.483,0.072c0.145,0.048,0.272,0.118,0.379,0.209s0.188,0.196,0.243,0.316s0.082,0.249,0.082,0.387   c0,0.182-0.04,0.338-0.119,0.468c-0.079,0.13-0.192,0.257-0.34,0.381c0.142,0.076,0.261,0.164,0.359,0.262   c0.097,0.098,0.17,0.207,0.22,0.326c0.049,0.119,0.074,0.248,0.074,0.386c0,0.165-0.033,0.325-0.1,0.48   c-0.066,0.155-0.164,0.292-0.293,0.413c-0.129,0.121-0.282,0.215-0.46,0.284c-0.177,0.068-0.373,0.102-0.588,0.102   c-0.218,0-0.414-0.039-0.586-0.117c-0.173-0.078-0.315-0.176-0.427-0.293c-0.112-0.117-0.196-0.239-0.254-0.364   c-0.057-0.125-0.086-0.229-0.086-0.311c0-0.105,0.034-0.19,0.102-0.255c0.068-0.065,0.153-0.097,0.255-0.097   c0.051,0,0.1,0.015,0.147,0.045c0.047,0.03,0.078,0.066,0.093,0.108c0.095,0.253,0.196,0.441,0.304,0.563s0.26,0.184,0.457,0.184   c0.113,0,0.221-0.028,0.326-0.083c0.105-0.055,0.191-0.138,0.259-0.247c0.068-0.109,0.102-0.235,0.102-0.379   c0-0.213-0.058-0.38-0.175-0.501c-0.116-0.121-0.278-0.181-0.486-0.181c-0.036,0-0.093,0.004-0.169,0.011   c-0.076,0.007-0.125,0.011-0.147,0.011c-0.1,0-0.177-0.025-0.232-0.075c-0.055-0.05-0.082-0.12-0.082-0.209   c0-0.087,0.033-0.158,0.098-0.211c0.065-0.054,0.163-0.08,0.292-0.08H54.774z" fill="#020507"/><path d="M58.14,79.045v-2.482c-0.462,0.355-0.773,0.532-0.933,0.532c-0.076,0-0.144-0.03-0.203-0.091   c-0.059-0.061-0.089-0.131-0.089-0.211c0-0.093,0.029-0.161,0.087-0.205c0.058-0.044,0.161-0.1,0.308-0.169   c0.22-0.104,0.396-0.213,0.528-0.327c0.132-0.115,0.249-0.243,0.351-0.385c0.102-0.142,0.168-0.229,0.199-0.262   s0.089-0.049,0.175-0.049c0.096,0,0.174,0.037,0.232,0.112s0.087,0.177,0.087,0.308v3.123c0,0.366-0.125,0.548-0.374,0.548   c-0.111,0-0.2-0.037-0.267-0.112C58.173,79.3,58.14,79.19,58.14,79.045z" fill="#020507"/><path d="M62.468,76.094h-1.296l-0.155,0.884c0.258-0.138,0.496-0.207,0.715-0.207c0.175,0,0.338,0.033,0.49,0.098   c0.152,0.065,0.285,0.156,0.4,0.271s0.205,0.252,0.27,0.411c0.065,0.158,0.098,0.328,0.098,0.51c0,0.264-0.059,0.504-0.177,0.72   c-0.118,0.216-0.289,0.388-0.511,0.516c-0.223,0.127-0.48,0.191-0.771,0.191c-0.326,0-0.59-0.06-0.792-0.18   c-0.203-0.12-0.346-0.258-0.431-0.413c-0.085-0.155-0.127-0.291-0.127-0.408c0-0.071,0.03-0.138,0.089-0.202   c0.059-0.064,0.133-0.095,0.222-0.095c0.153,0,0.266,0.088,0.341,0.265c0.073,0.162,0.171,0.288,0.295,0.378   s0.262,0.135,0.415,0.135c0.14,0,0.263-0.036,0.368-0.109c0.105-0.073,0.187-0.173,0.244-0.3s0.086-0.272,0.086-0.434   c0-0.175-0.031-0.324-0.093-0.447c-0.062-0.124-0.145-0.216-0.248-0.277s-0.219-0.091-0.346-0.091   c-0.156,0-0.268,0.019-0.335,0.057c-0.067,0.038-0.164,0.105-0.29,0.2c-0.126,0.095-0.23,0.143-0.312,0.143   c-0.089,0-0.168-0.032-0.237-0.097c-0.069-0.065-0.104-0.138-0.104-0.22c0-0.009,0.01-0.071,0.03-0.185l0.229-1.307   c0.025-0.156,0.073-0.27,0.142-0.341c0.069-0.071,0.182-0.106,0.338-0.106h1.44c0.284,0,0.426,0.108,0.426,0.325   c0,0.095-0.035,0.171-0.104,0.229S62.603,76.094,62.468,76.094z" fill="#020507"/><path d="M64.214,77.256c0.124-0.147,0.258-0.256,0.404-0.327c0.145-0.071,0.308-0.106,0.488-0.106   c0.173,0,0.332,0.032,0.479,0.097s0.275,0.156,0.385,0.275c0.11,0.119,0.195,0.26,0.255,0.421c0.06,0.162,0.09,0.331,0.09,0.507   c0,0.256-0.059,0.489-0.176,0.698s-0.281,0.372-0.491,0.49s-0.448,0.176-0.713,0.176c-0.305,0-0.569-0.075-0.791-0.224   c-0.222-0.149-0.391-0.37-0.509-0.661s-0.176-0.649-0.176-1.071c0-0.344,0.035-0.651,0.106-0.922s0.173-0.496,0.305-0.674   c0.133-0.178,0.294-0.313,0.483-0.404s0.405-0.136,0.646-0.136c0.233,0,0.438,0.045,0.615,0.136   c0.177,0.091,0.311,0.204,0.401,0.338c0.09,0.135,0.135,0.264,0.135,0.387c0,0.075-0.028,0.142-0.085,0.203   c-0.056,0.061-0.128,0.091-0.215,0.091c-0.076,0-0.147-0.024-0.213-0.072c-0.065-0.048-0.114-0.115-0.145-0.2   c-0.042-0.109-0.108-0.197-0.199-0.263c-0.091-0.066-0.196-0.1-0.316-0.1c-0.096,0-0.192,0.028-0.288,0.083   c-0.095,0.055-0.176,0.13-0.241,0.225C64.316,76.417,64.238,76.761,64.214,77.256z M64.951,78.949c0.184,0,0.336-0.075,0.456-0.225   c0.12-0.15,0.18-0.347,0.18-0.591c0-0.165-0.028-0.308-0.085-0.427c-0.056-0.119-0.134-0.21-0.232-0.273   c-0.098-0.063-0.206-0.094-0.325-0.094c-0.113,0-0.22,0.03-0.323,0.09c-0.103,0.06-0.185,0.147-0.248,0.26   c-0.063,0.114-0.094,0.247-0.094,0.4c0,0.245,0.064,0.45,0.191,0.614C64.598,78.868,64.758,78.949,64.951,78.949z" fill="#020507"/><path d="M72.37,77.457c0,0.298-0.018,0.555-0.055,0.769c-0.036,0.215-0.104,0.409-0.202,0.584   c-0.124,0.215-0.284,0.38-0.48,0.496c-0.196,0.116-0.415,0.175-0.655,0.175c-0.276,0-0.524-0.078-0.743-0.235   c-0.219-0.156-0.384-0.373-0.495-0.649c-0.056-0.151-0.098-0.318-0.124-0.501c-0.026-0.183-0.04-0.381-0.04-0.593   c0-0.275,0.015-0.522,0.044-0.742c0.029-0.22,0.075-0.409,0.136-0.567c0.107-0.262,0.263-0.461,0.468-0.599   s0.449-0.206,0.732-0.206c0.187,0,0.357,0.03,0.51,0.091c0.153,0.061,0.287,0.15,0.402,0.267c0.115,0.117,0.213,0.262,0.293,0.435   C72.301,76.484,72.37,76.908,72.37,77.457z M71.622,77.403c0-0.333-0.02-0.605-0.06-0.817s-0.107-0.372-0.202-0.48   c-0.095-0.108-0.225-0.162-0.393-0.162c-0.24,0-0.407,0.121-0.501,0.363c-0.094,0.242-0.14,0.615-0.14,1.118   c0,0.342,0.02,0.622,0.06,0.84c0.04,0.218,0.107,0.383,0.202,0.495c0.095,0.112,0.223,0.168,0.385,0.168   c0.167,0,0.298-0.058,0.393-0.175s0.161-0.283,0.199-0.499C71.603,78.037,71.622,77.754,71.622,77.403z" fill="#020507"/><path d="M74.165,77.005c0.167,0,0.311-0.049,0.432-0.147c0.121-0.098,0.181-0.239,0.181-0.423   c0-0.14-0.048-0.26-0.145-0.361s-0.226-0.151-0.39-0.151c-0.111,0-0.202,0.015-0.274,0.046c-0.072,0.031-0.129,0.072-0.17,0.123   c-0.042,0.051-0.081,0.116-0.119,0.196s-0.071,0.155-0.102,0.226c-0.018,0.038-0.051,0.068-0.098,0.09s-0.102,0.033-0.164,0.033   c-0.073,0-0.14-0.03-0.2-0.089c-0.061-0.059-0.091-0.138-0.091-0.236c0-0.095,0.029-0.194,0.086-0.299   c0.057-0.105,0.141-0.204,0.251-0.299s0.247-0.17,0.411-0.228s0.346-0.086,0.548-0.086c0.176,0,0.337,0.024,0.483,0.072   c0.145,0.048,0.272,0.118,0.379,0.209c0.107,0.091,0.188,0.196,0.243,0.316c0.055,0.12,0.082,0.249,0.082,0.387   c0,0.182-0.04,0.338-0.119,0.468c-0.079,0.13-0.192,0.257-0.34,0.381c0.142,0.076,0.261,0.164,0.359,0.262   c0.097,0.098,0.17,0.207,0.22,0.326s0.074,0.248,0.074,0.386c0,0.165-0.033,0.325-0.1,0.48c-0.066,0.155-0.164,0.292-0.293,0.413   c-0.129,0.121-0.282,0.215-0.46,0.284s-0.373,0.102-0.588,0.102c-0.218,0-0.414-0.039-0.586-0.117s-0.315-0.176-0.427-0.293   c-0.112-0.117-0.196-0.239-0.254-0.364c-0.057-0.125-0.086-0.229-0.086-0.311c0-0.105,0.034-0.19,0.102-0.255   c0.068-0.065,0.153-0.097,0.255-0.097c0.051,0,0.1,0.015,0.147,0.045c0.047,0.03,0.078,0.066,0.093,0.108   c0.095,0.253,0.196,0.441,0.304,0.563c0.108,0.123,0.26,0.184,0.457,0.184c0.113,0,0.221-0.028,0.326-0.083   c0.105-0.055,0.191-0.138,0.259-0.247c0.068-0.109,0.102-0.235,0.102-0.379c0-0.213-0.058-0.38-0.175-0.501   c-0.116-0.121-0.278-0.181-0.486-0.181c-0.036,0-0.093,0.004-0.169,0.011c-0.076,0.007-0.125,0.011-0.147,0.011   c-0.1,0-0.177-0.025-0.232-0.075c-0.055-0.05-0.082-0.12-0.082-0.209c0-0.087,0.033-0.158,0.098-0.211   c0.065-0.054,0.163-0.08,0.292-0.08H74.165z" fill="#020507"/><path d="M76.824,75.458h1.817c0.175,0,0.301,0.027,0.379,0.082c0.078,0.055,0.117,0.145,0.117,0.27   c0,0.076-0.046,0.177-0.138,0.303c-0.092,0.125-0.196,0.264-0.314,0.416s-0.238,0.34-0.363,0.566   c-0.125,0.225-0.239,0.501-0.342,0.826c-0.044,0.144-0.075,0.263-0.093,0.357c-0.018,0.095-0.038,0.217-0.06,0.368   c-0.022,0.151-0.041,0.266-0.057,0.346c-0.038,0.185-0.092,0.314-0.162,0.386c-0.07,0.072-0.163,0.108-0.28,0.108   c-0.111,0-0.2-0.039-0.267-0.116c-0.067-0.077-0.101-0.191-0.101-0.342c0-0.116,0.025-0.275,0.074-0.475   c0.049-0.2,0.129-0.44,0.24-0.719s0.25-0.566,0.416-0.859c0.166-0.294,0.364-0.586,0.593-0.877h-1.459   c-0.153,0-0.267-0.028-0.342-0.083c-0.075-0.055-0.113-0.142-0.113-0.26c0-0.125,0.04-0.206,0.12-0.243S76.68,75.458,76.824,75.458   z" fill="#020507"/><path d="M80.52,78.775h1.424c0.142,0,0.25,0.029,0.325,0.087s0.112,0.137,0.112,0.237   c0,0.089-0.03,0.165-0.089,0.226c-0.059,0.062-0.149,0.093-0.269,0.093h-2.008c-0.136,0-0.243-0.038-0.319-0.113   s-0.115-0.164-0.115-0.266c0-0.065,0.025-0.152,0.074-0.26c0.049-0.108,0.103-0.193,0.161-0.255   c0.242-0.251,0.46-0.466,0.655-0.645s0.334-0.297,0.417-0.353c0.149-0.105,0.273-0.211,0.372-0.318s0.175-0.215,0.226-0.327   s0.078-0.221,0.078-0.329c0-0.116-0.028-0.22-0.083-0.312c-0.055-0.092-0.131-0.163-0.226-0.214   c-0.095-0.051-0.2-0.076-0.312-0.076c-0.238,0-0.426,0.105-0.562,0.314c-0.018,0.027-0.049,0.102-0.091,0.224   s-0.091,0.215-0.145,0.281c-0.054,0.065-0.132,0.098-0.236,0.098c-0.091,0-0.166-0.03-0.226-0.09c-0.06-0.06-0.09-0.142-0.09-0.245   c0-0.125,0.028-0.256,0.085-0.393c0.056-0.136,0.14-0.26,0.252-0.371s0.254-0.2,0.426-0.269c0.172-0.068,0.373-0.102,0.604-0.102   c0.278,0,0.516,0.044,0.712,0.131c0.127,0.058,0.239,0.138,0.336,0.24c0.096,0.102,0.171,0.22,0.225,0.353   c0.054,0.134,0.08,0.272,0.08,0.416c0,0.225-0.056,0.431-0.168,0.615c-0.112,0.185-0.226,0.329-0.342,0.434   s-0.311,0.269-0.585,0.492c-0.274,0.224-0.461,0.397-0.563,0.521C80.61,78.647,80.565,78.706,80.52,78.775z" fill="#020507"/><path d="M87.972,76.094h-1.296l-0.155,0.884c0.258-0.138,0.496-0.207,0.715-0.207c0.175,0,0.338,0.033,0.49,0.098   c0.152,0.065,0.285,0.156,0.4,0.271s0.205,0.252,0.27,0.411s0.098,0.328,0.098,0.51c0,0.264-0.059,0.504-0.177,0.72   s-0.289,0.388-0.511,0.516c-0.223,0.127-0.48,0.191-0.771,0.191c-0.326,0-0.59-0.06-0.792-0.18   c-0.203-0.12-0.346-0.258-0.431-0.413c-0.085-0.155-0.127-0.291-0.127-0.408c0-0.071,0.03-0.138,0.089-0.202   c0.059-0.064,0.133-0.095,0.222-0.095c0.153,0,0.266,0.088,0.341,0.265c0.073,0.162,0.171,0.288,0.295,0.378   c0.124,0.09,0.262,0.135,0.415,0.135c0.14,0,0.263-0.036,0.368-0.109c0.105-0.073,0.187-0.173,0.244-0.3s0.086-0.272,0.086-0.434   c0-0.175-0.031-0.324-0.093-0.447c-0.062-0.124-0.145-0.216-0.248-0.277s-0.219-0.091-0.346-0.091   c-0.156,0-0.268,0.019-0.335,0.057c-0.067,0.038-0.164,0.105-0.29,0.2c-0.126,0.095-0.23,0.143-0.312,0.143   c-0.089,0-0.168-0.032-0.237-0.097c-0.069-0.065-0.104-0.138-0.104-0.22c0-0.009,0.01-0.071,0.03-0.185l0.229-1.307   c0.025-0.156,0.073-0.27,0.142-0.341c0.069-0.071,0.182-0.106,0.338-0.106h1.44c0.284,0,0.426,0.108,0.426,0.325   c0,0.095-0.035,0.171-0.104,0.229S88.106,76.094,87.972,76.094z" fill="#020507"/><path d="M90.661,79.072v-0.507h-1.369c-0.173,0-0.302-0.039-0.389-0.117s-0.13-0.185-0.13-0.319   c0-0.035,0.006-0.07,0.019-0.105c0.013-0.035,0.032-0.073,0.057-0.112c0.025-0.039,0.052-0.077,0.079-0.113   s0.061-0.081,0.101-0.134l1.446-1.934c0.095-0.127,0.172-0.22,0.233-0.277c0.061-0.057,0.134-0.086,0.22-0.086   c0.276,0,0.415,0.158,0.415,0.475v2.111h0.117c0.14,0,0.252,0.019,0.337,0.057c0.085,0.038,0.127,0.122,0.127,0.251   c0,0.105-0.035,0.182-0.104,0.23s-0.173,0.072-0.311,0.072h-0.166v0.507c0,0.14-0.031,0.244-0.093,0.312s-0.145,0.102-0.248,0.102   c-0.102,0-0.184-0.035-0.247-0.105C90.693,79.312,90.661,79.209,90.661,79.072z M89.488,77.954h1.173v-1.585L89.488,77.954z" fill="#020507"/><path d="M94.3,77.627c-0.12,0.142-0.254,0.249-0.402,0.32c-0.148,0.072-0.312,0.108-0.492,0.108   c-0.171,0-0.33-0.033-0.479-0.1c-0.148-0.066-0.276-0.159-0.385-0.278c-0.108-0.119-0.191-0.258-0.25-0.417   c-0.058-0.159-0.087-0.326-0.087-0.501c0-0.187,0.033-0.365,0.098-0.533c0.065-0.168,0.159-0.314,0.281-0.438   c0.122-0.124,0.267-0.22,0.435-0.289c0.168-0.069,0.354-0.104,0.558-0.104c0.235,0,0.444,0.043,0.627,0.128s0.338,0.21,0.464,0.372   c0.125,0.163,0.222,0.368,0.289,0.615c0.067,0.247,0.101,0.527,0.101,0.84c0,0.349-0.035,0.657-0.106,0.923   c-0.071,0.266-0.174,0.49-0.31,0.671c-0.135,0.181-0.298,0.315-0.487,0.404c-0.189,0.088-0.404,0.132-0.644,0.132   c-0.236,0-0.442-0.045-0.616-0.135s-0.307-0.202-0.398-0.336c-0.091-0.134-0.136-0.262-0.136-0.386   c0-0.076,0.028-0.145,0.085-0.205c0.056-0.06,0.128-0.09,0.215-0.09c0.08,0,0.152,0.022,0.215,0.067   c0.064,0.045,0.112,0.111,0.145,0.2c0.04,0.109,0.106,0.197,0.199,0.263c0.093,0.066,0.197,0.1,0.314,0.1   c0.104,0,0.202-0.026,0.295-0.079c0.093-0.053,0.172-0.127,0.237-0.224C94.196,78.463,94.275,78.119,94.3,77.627z M94.237,76.792   c0-0.124-0.017-0.238-0.05-0.342s-0.081-0.195-0.142-0.271c-0.061-0.076-0.134-0.136-0.218-0.18s-0.177-0.065-0.277-0.065   c-0.173,0-0.319,0.074-0.439,0.222c-0.12,0.148-0.18,0.344-0.18,0.588c0,0.242,0.06,0.435,0.18,0.578   c0.12,0.144,0.272,0.215,0.456,0.215c0.113,0,0.22-0.03,0.323-0.089c0.103-0.059,0.186-0.145,0.251-0.258   S94.237,76.945,94.237,76.792z" fill="#020507"/><path d="M96.875,77.005c0.167,0,0.311-0.049,0.432-0.147c0.121-0.098,0.181-0.239,0.181-0.423   c0-0.14-0.048-0.26-0.145-0.361c-0.096-0.101-0.226-0.151-0.39-0.151c-0.111,0-0.202,0.015-0.274,0.046   c-0.072,0.031-0.129,0.072-0.17,0.123c-0.042,0.051-0.081,0.116-0.119,0.196s-0.071,0.155-0.102,0.226   c-0.018,0.038-0.051,0.068-0.098,0.09s-0.102,0.033-0.164,0.033c-0.073,0-0.14-0.03-0.2-0.089   c-0.061-0.059-0.091-0.138-0.091-0.236c0-0.095,0.029-0.194,0.086-0.299c0.057-0.105,0.141-0.204,0.251-0.299   s0.247-0.17,0.411-0.228s0.346-0.086,0.548-0.086c0.176,0,0.337,0.024,0.483,0.072c0.145,0.048,0.272,0.118,0.379,0.209   c0.107,0.091,0.188,0.196,0.243,0.316c0.055,0.12,0.082,0.249,0.082,0.387c0,0.182-0.04,0.338-0.119,0.468   c-0.079,0.13-0.192,0.257-0.34,0.381c0.142,0.076,0.261,0.164,0.359,0.262c0.097,0.098,0.17,0.207,0.22,0.326   c0.049,0.119,0.074,0.248,0.074,0.386c0,0.165-0.033,0.325-0.1,0.48c-0.066,0.155-0.164,0.292-0.293,0.413   c-0.129,0.121-0.282,0.215-0.46,0.284c-0.177,0.068-0.373,0.102-0.588,0.102c-0.218,0-0.414-0.039-0.586-0.117   c-0.173-0.078-0.315-0.176-0.427-0.293s-0.196-0.239-0.254-0.364c-0.057-0.125-0.086-0.229-0.086-0.311   c0-0.105,0.034-0.19,0.102-0.255c0.068-0.065,0.153-0.097,0.255-0.097c0.051,0,0.1,0.015,0.147,0.045   c0.047,0.03,0.078,0.066,0.093,0.108c0.095,0.253,0.196,0.441,0.304,0.563c0.108,0.123,0.26,0.184,0.457,0.184   c0.113,0,0.221-0.028,0.326-0.083c0.105-0.055,0.191-0.138,0.259-0.247c0.068-0.109,0.102-0.235,0.102-0.379   c0-0.213-0.058-0.38-0.175-0.501c-0.116-0.121-0.278-0.181-0.486-0.181c-0.036,0-0.093,0.004-0.169,0.011   c-0.076,0.007-0.125,0.011-0.147,0.011c-0.1,0-0.177-0.025-0.232-0.075c-0.055-0.05-0.082-0.12-0.082-0.209   c0-0.087,0.033-0.158,0.098-0.211c0.065-0.054,0.163-0.08,0.292-0.08H96.875z" fill="#020507"/><path d="M63.758,83.616v-1.241c-0.231,0.177-0.386,0.266-0.466,0.266c-0.038,0-0.072-0.015-0.102-0.045   c-0.03-0.03-0.044-0.066-0.044-0.106c0-0.046,0.015-0.08,0.044-0.102s0.08-0.05,0.154-0.085c0.11-0.052,0.198-0.106,0.264-0.164   c0.066-0.057,0.125-0.121,0.175-0.192s0.084-0.115,0.1-0.131s0.045-0.025,0.087-0.025c0.048,0,0.087,0.019,0.116,0.056   c0.029,0.037,0.044,0.089,0.044,0.154v1.562c0,0.183-0.062,0.274-0.187,0.274c-0.055,0-0.1-0.019-0.134-0.056   S63.758,83.688,63.758,83.616z" fill="#020507"/><path d="M65.418,83.616v-1.241c-0.231,0.177-0.386,0.266-0.466,0.266c-0.038,0-0.072-0.015-0.102-0.045   c-0.03-0.03-0.044-0.066-0.044-0.106c0-0.046,0.015-0.08,0.044-0.102c0.029-0.022,0.08-0.05,0.154-0.085   c0.11-0.052,0.198-0.106,0.264-0.164s0.125-0.121,0.175-0.192s0.084-0.115,0.1-0.131s0.045-0.025,0.087-0.025   c0.048,0,0.087,0.019,0.116,0.056c0.029,0.037,0.044,0.089,0.044,0.154v1.562c0,0.183-0.062,0.274-0.187,0.274   c-0.055,0-0.1-0.019-0.134-0.056C65.434,83.743,65.418,83.688,65.418,83.616z" fill="#020507"/><path d="M67.009,82.046l-0.382,1.572c-0.013,0.052-0.024,0.093-0.034,0.123c-0.009,0.03-0.024,0.054-0.044,0.07   c-0.02,0.016-0.048,0.025-0.085,0.025c-0.093,0-0.139-0.04-0.139-0.12c0-0.021,0.009-0.073,0.027-0.157l0.381-1.572   c0.02-0.084,0.039-0.141,0.057-0.172s0.054-0.046,0.106-0.046c0.045,0,0.08,0.011,0.105,0.033c0.024,0.022,0.036,0.052,0.036,0.09   C67.038,81.92,67.028,81.971,67.009,82.046z" fill="#020507"/><path d="M67.696,83.48h0.712c0.071,0,0.125,0.015,0.162,0.044c0.037,0.029,0.056,0.069,0.056,0.119   c0,0.045-0.015,0.082-0.044,0.113c-0.03,0.031-0.075,0.046-0.135,0.046h-1.004c-0.068,0-0.121-0.019-0.16-0.056   c-0.038-0.038-0.057-0.082-0.057-0.133c0-0.033,0.012-0.076,0.037-0.13c0.025-0.054,0.051-0.096,0.08-0.127   c0.121-0.125,0.23-0.233,0.327-0.323c0.097-0.089,0.167-0.148,0.209-0.176c0.075-0.053,0.136-0.105,0.186-0.159   c0.049-0.053,0.087-0.107,0.113-0.164c0.026-0.055,0.039-0.11,0.039-0.164c0-0.058-0.014-0.11-0.042-0.156   s-0.065-0.082-0.113-0.107c-0.048-0.025-0.1-0.038-0.156-0.038c-0.119,0-0.213,0.052-0.281,0.157   c-0.009,0.014-0.025,0.051-0.045,0.112c-0.022,0.061-0.046,0.108-0.073,0.14c-0.027,0.033-0.066,0.049-0.118,0.049   c-0.045,0-0.083-0.015-0.113-0.045c-0.03-0.03-0.045-0.071-0.045-0.123c0-0.063,0.014-0.128,0.042-0.196   c0.028-0.068,0.07-0.13,0.126-0.185c0.055-0.055,0.126-0.1,0.213-0.134c0.085-0.035,0.186-0.051,0.302-0.051   c0.139,0,0.258,0.022,0.356,0.065c0.064,0.029,0.12,0.069,0.168,0.12c0.048,0.051,0.085,0.11,0.113,0.177   c0.026,0.066,0.04,0.136,0.04,0.208c0,0.113-0.028,0.215-0.084,0.308c-0.056,0.092-0.113,0.165-0.171,0.216   c-0.058,0.053-0.156,0.135-0.292,0.246c-0.137,0.112-0.231,0.199-0.282,0.26C67.741,83.416,67.719,83.446,67.696,83.48z" fill="#020507"/><path d="M70.26,82.822c0,0.149-0.009,0.277-0.027,0.385c-0.018,0.107-0.052,0.205-0.101,0.292   c-0.062,0.107-0.142,0.19-0.24,0.248c-0.098,0.058-0.207,0.087-0.327,0.087c-0.138,0-0.262-0.039-0.372-0.117   c-0.11-0.078-0.192-0.186-0.247-0.325c-0.028-0.075-0.049-0.159-0.062-0.25c-0.014-0.091-0.02-0.19-0.02-0.296   c0-0.137,0.007-0.261,0.022-0.371c0.015-0.11,0.037-0.205,0.068-0.284c0.054-0.131,0.132-0.23,0.234-0.299   c0.103-0.069,0.225-0.103,0.366-0.103c0.094,0,0.179,0.015,0.255,0.046c0.076,0.03,0.143,0.075,0.201,0.134   c0.057,0.058,0.106,0.131,0.146,0.217C70.226,82.335,70.26,82.547,70.26,82.822z M69.887,82.795c0-0.166-0.01-0.302-0.03-0.409   c-0.02-0.105-0.054-0.185-0.101-0.24c-0.047-0.054-0.113-0.081-0.196-0.081c-0.12,0-0.204,0.06-0.25,0.181   c-0.047,0.121-0.07,0.307-0.07,0.559c0,0.171,0.01,0.311,0.03,0.42c0.02,0.109,0.054,0.191,0.101,0.248   c0.047,0.055,0.111,0.084,0.192,0.084c0.084,0,0.149-0.029,0.196-0.087s0.08-0.141,0.1-0.25   C69.877,83.112,69.887,82.97,69.887,82.795z" fill="#020507"/><path d="M39.056,86.712h-1.064v0.682h0.889c0.082,0,0.144,0.019,0.185,0.055c0.04,0.037,0.061,0.086,0.061,0.148   c0,0.062-0.02,0.111-0.062,0.147c-0.041,0.036-0.102,0.055-0.184,0.055h-0.889v0.878c0,0.111-0.025,0.194-0.075,0.248   c-0.05,0.054-0.115,0.081-0.194,0.081c-0.08,0-0.145-0.027-0.195-0.082c-0.05-0.055-0.075-0.137-0.075-0.247v-2.051   c0-0.078,0.011-0.141,0.035-0.19c0.023-0.049,0.059-0.085,0.108-0.107c0.049-0.022,0.112-0.034,0.188-0.034h1.273   c0.086,0,0.15,0.019,0.192,0.057c0.042,0.038,0.063,0.088,0.063,0.15c0,0.063-0.021,0.114-0.063,0.152   C39.206,86.693,39.142,86.712,39.056,86.712z" fill="#020507"/><path d="M39.735,88.678v-2.1c0-0.109,0.025-0.191,0.075-0.245s0.114-0.082,0.193-0.082   c0.081,0,0.147,0.027,0.197,0.081s0.075,0.136,0.075,0.246v2.1c0,0.11-0.025,0.193-0.075,0.247   c-0.05,0.055-0.116,0.082-0.197,0.082c-0.078,0-0.141-0.028-0.192-0.083C39.76,88.869,39.735,88.787,39.735,88.678z" fill="#020507"/><path d="M41.604,87.822h-0.189v0.856c0,0.113-0.025,0.196-0.075,0.249c-0.05,0.053-0.115,0.08-0.195,0.08   c-0.086,0-0.153-0.028-0.2-0.084s-0.071-0.138-0.071-0.245v-2.051c0-0.116,0.026-0.2,0.078-0.253   c0.052-0.052,0.136-0.078,0.253-0.078h0.878c0.121,0,0.225,0.005,0.311,0.015s0.164,0.031,0.233,0.063   c0.084,0.035,0.158,0.085,0.222,0.151c0.064,0.065,0.113,0.141,0.146,0.228c0.033,0.087,0.05,0.179,0.05,0.275   c0,0.199-0.056,0.358-0.168,0.476c-0.112,0.119-0.282,0.203-0.51,0.253c0.096,0.051,0.187,0.126,0.275,0.225   c0.087,0.1,0.165,0.205,0.234,0.317s0.122,0.213,0.16,0.304c0.038,0.09,0.057,0.152,0.057,0.186c0,0.035-0.011,0.07-0.034,0.105   c-0.022,0.035-0.053,0.062-0.092,0.082s-0.084,0.03-0.135,0.03c-0.06,0-0.111-0.014-0.153-0.043s-0.077-0.065-0.106-0.108   s-0.07-0.108-0.121-0.193l-0.216-0.36c-0.078-0.132-0.147-0.233-0.208-0.302s-0.123-0.116-0.186-0.142   C41.779,87.834,41.7,87.822,41.604,87.822z M41.913,86.701h-0.498v0.733h0.484c0.13,0,0.239-0.011,0.327-0.034   c0.089-0.022,0.156-0.06,0.203-0.115c0.047-0.054,0.07-0.128,0.07-0.223c0-0.074-0.019-0.139-0.056-0.195   c-0.038-0.056-0.09-0.099-0.156-0.126C42.223,86.715,42.099,86.701,41.913,86.701z" fill="#020507"/><path d="M45.583,88.162c0,0.161-0.041,0.306-0.125,0.435c-0.083,0.129-0.205,0.229-0.365,0.302   c-0.16,0.073-0.35,0.109-0.569,0.109c-0.263,0-0.48-0.05-0.651-0.149c-0.121-0.071-0.22-0.167-0.295-0.286   s-0.114-0.235-0.114-0.348c0-0.065,0.023-0.121,0.068-0.168c0.045-0.047,0.103-0.07,0.174-0.07c0.057,0,0.105,0.018,0.145,0.055   c0.04,0.036,0.073,0.09,0.101,0.162c0.034,0.085,0.07,0.156,0.11,0.213c0.04,0.057,0.095,0.104,0.166,0.141   c0.071,0.037,0.165,0.055,0.282,0.055c0.16,0,0.29-0.037,0.39-0.112c0.1-0.075,0.15-0.168,0.15-0.279   c0-0.089-0.027-0.16-0.081-0.215c-0.054-0.055-0.124-0.097-0.209-0.126c-0.085-0.029-0.2-0.06-0.343-0.093   c-0.191-0.045-0.352-0.097-0.481-0.157c-0.129-0.06-0.231-0.142-0.307-0.245c-0.076-0.104-0.114-0.232-0.114-0.386   c0-0.147,0.04-0.277,0.12-0.391s0.196-0.201,0.347-0.263c0.151-0.061,0.33-0.092,0.535-0.092c0.164,0,0.305,0.02,0.425,0.061   s0.219,0.095,0.297,0.162c0.079,0.067,0.136,0.138,0.173,0.212c0.036,0.074,0.055,0.146,0.055,0.216   c0,0.064-0.023,0.122-0.068,0.174c-0.045,0.051-0.102,0.077-0.17,0.077c-0.062,0-0.109-0.015-0.141-0.046   c-0.032-0.031-0.067-0.081-0.105-0.152c-0.049-0.1-0.107-0.179-0.175-0.235c-0.068-0.056-0.177-0.085-0.327-0.085   c-0.14,0-0.252,0.03-0.337,0.092c-0.085,0.061-0.128,0.135-0.128,0.221c0,0.053,0.015,0.1,0.044,0.138   c0.029,0.039,0.069,0.072,0.12,0.1c0.051,0.028,0.102,0.05,0.155,0.065c0.052,0.016,0.138,0.039,0.258,0.069   c0.15,0.035,0.286,0.074,0.408,0.116c0.122,0.042,0.225,0.094,0.311,0.155c0.085,0.06,0.152,0.137,0.2,0.23   S45.583,88.027,45.583,88.162z" fill="#020507"/><path d="M47.772,86.741h-0.589v1.937c0,0.111-0.025,0.194-0.075,0.248c-0.05,0.054-0.114,0.081-0.193,0.081   c-0.08,0-0.145-0.027-0.195-0.082c-0.05-0.055-0.075-0.137-0.075-0.247v-1.937h-0.589c-0.092,0-0.16-0.02-0.205-0.061   s-0.067-0.094-0.067-0.161c0-0.069,0.023-0.124,0.07-0.164c0.047-0.04,0.114-0.06,0.203-0.06h1.717c0.093,0,0.163,0.02,0.208,0.062   c0.045,0.041,0.068,0.095,0.068,0.162c0,0.067-0.023,0.12-0.069,0.161S47.864,86.741,47.772,86.741z" fill="#020507"/><path d="M49.072,86.574l1.038,1.571V86.56c0-0.103,0.022-0.18,0.066-0.232c0.044-0.051,0.104-0.077,0.179-0.077   c0.078,0,0.139,0.026,0.184,0.077s0.067,0.129,0.067,0.232v2.097c0,0.234-0.097,0.351-0.291,0.351   c-0.049,0-0.092-0.007-0.131-0.021c-0.039-0.014-0.075-0.036-0.109-0.066c-0.034-0.03-0.065-0.066-0.095-0.106   s-0.058-0.082-0.087-0.125l-1.013-1.553v1.562c0,0.102-0.024,0.179-0.071,0.231s-0.108,0.078-0.182,0.078   c-0.076,0-0.138-0.026-0.184-0.079c-0.046-0.053-0.069-0.13-0.069-0.23v-2.057c0-0.087,0.01-0.156,0.029-0.205   c0.023-0.055,0.061-0.099,0.115-0.134c0.053-0.035,0.111-0.052,0.173-0.052c0.049,0,0.09,0.008,0.125,0.024   c0.035,0.016,0.065,0.037,0.091,0.064s0.053,0.061,0.08,0.104C49.015,86.484,49.043,86.528,49.072,86.574z" fill="#020507"/><path d="M52.854,88.66l-0.127-0.335h-1.084l-0.127,0.342c-0.05,0.133-0.092,0.223-0.127,0.27   c-0.035,0.047-0.093,0.07-0.173,0.07c-0.068,0-0.128-0.025-0.18-0.075s-0.078-0.106-0.078-0.169c0-0.036,0.006-0.074,0.018-0.113   c0.012-0.039,0.032-0.093,0.06-0.162l0.682-1.731c0.02-0.05,0.043-0.11,0.07-0.179c0.027-0.07,0.056-0.128,0.087-0.174   c0.031-0.046,0.071-0.083,0.122-0.112c0.05-0.029,0.112-0.043,0.186-0.043c0.075,0,0.138,0.014,0.188,0.043   c0.05,0.029,0.091,0.065,0.122,0.11c0.031,0.045,0.057,0.093,0.078,0.145s0.048,0.12,0.081,0.206l0.696,1.72   c0.055,0.131,0.082,0.226,0.082,0.285c0,0.062-0.026,0.119-0.077,0.17c-0.051,0.051-0.114,0.077-0.186,0.077   c-0.042,0-0.079-0.008-0.109-0.023c-0.03-0.015-0.056-0.036-0.076-0.062c-0.02-0.026-0.043-0.066-0.066-0.12   S52.871,88.701,52.854,88.66z M51.785,87.92h0.796l-0.402-1.1L51.785,87.92z" fill="#020507"/><path d="M54.727,88.56L54.3,86.861v1.84c0,0.102-0.023,0.178-0.068,0.229c-0.045,0.051-0.106,0.076-0.181,0.076   c-0.073,0-0.132-0.025-0.178-0.075c-0.046-0.05-0.069-0.127-0.069-0.23v-2.109c0-0.116,0.03-0.195,0.091-0.235   c0.06-0.04,0.142-0.061,0.245-0.061h0.167c0.1,0,0.174,0.009,0.219,0.027c0.045,0.018,0.079,0.051,0.101,0.098   s0.047,0.124,0.075,0.231l0.387,1.46l0.387-1.46c0.028-0.107,0.053-0.184,0.075-0.231s0.055-0.08,0.101-0.098   c0.045-0.018,0.119-0.027,0.219-0.027h0.167c0.103,0,0.185,0.02,0.245,0.061c0.06,0.04,0.091,0.119,0.091,0.235v2.109   c0,0.102-0.023,0.178-0.068,0.229c-0.045,0.051-0.106,0.076-0.183,0.076c-0.071,0-0.13-0.025-0.176-0.076   c-0.046-0.051-0.069-0.127-0.069-0.229v-1.84l-0.427,1.698c-0.028,0.11-0.05,0.191-0.068,0.243   c-0.018,0.051-0.05,0.099-0.097,0.141c-0.047,0.042-0.113,0.064-0.196,0.064c-0.063,0-0.116-0.014-0.16-0.041   c-0.044-0.027-0.078-0.062-0.102-0.105c-0.024-0.042-0.043-0.09-0.057-0.141C54.756,88.669,54.742,88.616,54.727,88.56z" fill="#020507"/><path d="M58.686,86.712H57.47v0.655h1.12c0.082,0,0.144,0.019,0.185,0.055c0.04,0.037,0.061,0.086,0.061,0.146   s-0.02,0.11-0.06,0.148c-0.04,0.038-0.102,0.057-0.185,0.057h-1.12v0.758h1.258c0.085,0,0.149,0.02,0.192,0.059   c0.043,0.04,0.065,0.092,0.065,0.157c0,0.063-0.021,0.114-0.065,0.154c-0.043,0.04-0.107,0.059-0.192,0.059h-1.467   c-0.118,0-0.202-0.026-0.254-0.078c-0.051-0.052-0.077-0.136-0.077-0.253v-2.004c0-0.078,0.011-0.141,0.035-0.19   c0.023-0.049,0.059-0.085,0.108-0.107c0.049-0.022,0.112-0.034,0.188-0.034h1.426c0.086,0,0.15,0.019,0.192,0.057   s0.063,0.088,0.063,0.15c0,0.063-0.021,0.114-0.063,0.152S58.772,86.712,58.686,86.712z" fill="#020507"/><path d="M64.598,86.578v1.94h1.095c0.087,0,0.154,0.021,0.201,0.064c0.047,0.042,0.07,0.096,0.07,0.16   c0,0.065-0.023,0.119-0.069,0.159c-0.046,0.04-0.113,0.061-0.202,0.061h-1.304c-0.118,0-0.202-0.026-0.254-0.078   c-0.051-0.052-0.077-0.136-0.077-0.253v-2.053c0-0.109,0.025-0.191,0.074-0.245s0.114-0.082,0.194-0.082   c0.081,0,0.147,0.027,0.197,0.081S64.598,86.467,64.598,86.578z" fill="#020507"/><path d="M67.975,88.66l-0.127-0.335h-1.084l-0.127,0.342c-0.05,0.133-0.092,0.223-0.127,0.27   c-0.035,0.047-0.093,0.07-0.173,0.07c-0.068,0-0.128-0.025-0.18-0.075c-0.052-0.05-0.078-0.106-0.078-0.169   c0-0.036,0.006-0.074,0.018-0.113c0.012-0.039,0.032-0.093,0.06-0.162l0.682-1.731c0.02-0.05,0.043-0.11,0.07-0.179   c0.027-0.07,0.056-0.128,0.087-0.174s0.071-0.083,0.122-0.112c0.05-0.029,0.112-0.043,0.186-0.043c0.075,0,0.138,0.014,0.188,0.043   c0.05,0.029,0.091,0.065,0.122,0.11s0.057,0.093,0.078,0.145c0.021,0.051,0.048,0.12,0.081,0.206l0.696,1.72   c0.055,0.131,0.082,0.226,0.082,0.285c0,0.062-0.026,0.119-0.077,0.17s-0.114,0.077-0.186,0.077c-0.042,0-0.079-0.008-0.109-0.023   c-0.03-0.015-0.056-0.036-0.076-0.062c-0.02-0.026-0.043-0.066-0.066-0.12C68.012,88.748,67.992,88.701,67.975,88.66z    M66.905,87.92h0.796l-0.402-1.1L66.905,87.92z" fill="#020507"/><path d="M70.973,88.162c0,0.161-0.041,0.306-0.125,0.435s-0.205,0.229-0.365,0.302   c-0.16,0.073-0.35,0.109-0.569,0.109c-0.263,0-0.48-0.05-0.651-0.149c-0.121-0.071-0.22-0.167-0.295-0.286   c-0.076-0.12-0.114-0.235-0.114-0.348c0-0.065,0.023-0.121,0.068-0.168c0.045-0.047,0.103-0.07,0.174-0.07   c0.057,0,0.105,0.018,0.145,0.055c0.04,0.036,0.073,0.09,0.101,0.162c0.034,0.085,0.07,0.156,0.11,0.213   c0.04,0.057,0.095,0.104,0.166,0.141c0.071,0.037,0.165,0.055,0.282,0.055c0.16,0,0.29-0.037,0.39-0.112   c0.1-0.075,0.15-0.168,0.15-0.279c0-0.089-0.027-0.16-0.081-0.215s-0.124-0.097-0.209-0.126c-0.085-0.029-0.2-0.06-0.343-0.093   c-0.191-0.045-0.352-0.097-0.481-0.157c-0.129-0.06-0.231-0.142-0.307-0.245s-0.114-0.232-0.114-0.386   c0-0.147,0.04-0.277,0.12-0.391c0.08-0.114,0.196-0.201,0.347-0.263s0.33-0.092,0.535-0.092c0.164,0,0.305,0.02,0.425,0.061   s0.219,0.095,0.297,0.162c0.079,0.067,0.136,0.138,0.173,0.212c0.036,0.074,0.055,0.146,0.055,0.216   c0,0.064-0.023,0.122-0.068,0.174c-0.045,0.051-0.102,0.077-0.17,0.077c-0.062,0-0.109-0.015-0.141-0.046   c-0.032-0.031-0.067-0.081-0.105-0.152c-0.049-0.1-0.107-0.179-0.175-0.235c-0.068-0.056-0.177-0.085-0.327-0.085   c-0.14,0-0.252,0.03-0.337,0.092c-0.085,0.061-0.128,0.135-0.128,0.221c0,0.053,0.015,0.1,0.044,0.138   c0.029,0.039,0.069,0.072,0.12,0.1c0.051,0.028,0.102,0.05,0.155,0.065c0.052,0.016,0.138,0.039,0.258,0.069   c0.15,0.035,0.286,0.074,0.408,0.116c0.122,0.042,0.225,0.094,0.311,0.155s0.152,0.137,0.2,0.23   C70.949,87.913,70.973,88.027,70.973,88.162z" fill="#020507"/><path d="M73.163,86.741h-0.589v1.937c0,0.111-0.025,0.194-0.075,0.248c-0.05,0.054-0.114,0.081-0.193,0.081   c-0.08,0-0.145-0.027-0.195-0.082c-0.05-0.055-0.075-0.137-0.075-0.247v-1.937h-0.589c-0.092,0-0.16-0.02-0.205-0.061   s-0.067-0.094-0.067-0.161c0-0.069,0.023-0.124,0.07-0.164c0.047-0.04,0.114-0.06,0.203-0.06h1.717c0.093,0,0.163,0.02,0.208,0.062   c0.045,0.041,0.068,0.095,0.068,0.162c0,0.067-0.023,0.12-0.069,0.161C73.324,86.721,73.255,86.741,73.163,86.741z" fill="#020507"/><path d="M74.463,86.574l1.038,1.571V86.56c0-0.103,0.022-0.18,0.066-0.232s0.104-0.077,0.179-0.077   c0.078,0,0.139,0.026,0.184,0.077s0.067,0.129,0.067,0.232v2.097c0,0.234-0.097,0.351-0.291,0.351   c-0.049,0-0.092-0.007-0.131-0.021c-0.039-0.014-0.075-0.036-0.109-0.066s-0.065-0.066-0.095-0.106   c-0.029-0.04-0.058-0.082-0.087-0.125l-1.013-1.553v1.562c0,0.102-0.024,0.179-0.071,0.231s-0.108,0.078-0.182,0.078   c-0.076,0-0.138-0.026-0.184-0.079c-0.046-0.053-0.069-0.13-0.069-0.23v-2.057c0-0.087,0.01-0.156,0.029-0.205   c0.023-0.055,0.061-0.099,0.115-0.134c0.053-0.035,0.111-0.052,0.173-0.052c0.049,0,0.09,0.008,0.125,0.024   c0.035,0.016,0.065,0.037,0.091,0.064c0.026,0.027,0.053,0.061,0.08,0.104C74.406,86.484,74.434,86.528,74.463,86.574z" fill="#020507"/><path d="M78.245,88.66l-0.127-0.335h-1.084l-0.127,0.342c-0.05,0.133-0.092,0.223-0.127,0.27   c-0.035,0.047-0.093,0.07-0.173,0.07c-0.068,0-0.128-0.025-0.18-0.075c-0.052-0.05-0.078-0.106-0.078-0.169   c0-0.036,0.006-0.074,0.018-0.113s0.032-0.093,0.06-0.162l0.682-1.731c0.02-0.05,0.043-0.11,0.07-0.179   c0.027-0.07,0.056-0.128,0.087-0.174c0.031-0.046,0.071-0.083,0.122-0.112c0.05-0.029,0.112-0.043,0.186-0.043   c0.075,0,0.138,0.014,0.188,0.043c0.05,0.029,0.091,0.065,0.122,0.11s0.057,0.093,0.078,0.145c0.021,0.051,0.048,0.12,0.081,0.206   l0.696,1.72c0.055,0.131,0.082,0.226,0.082,0.285c0,0.062-0.026,0.119-0.077,0.17c-0.051,0.051-0.114,0.077-0.186,0.077   c-0.042,0-0.079-0.008-0.109-0.023c-0.03-0.015-0.056-0.036-0.076-0.062c-0.02-0.026-0.043-0.066-0.066-0.12   C78.282,88.748,78.262,88.701,78.245,88.66z M77.176,87.92h0.796l-0.402-1.1L77.176,87.92z" fill="#020507"/><path d="M80.118,88.56l-0.427-1.698v1.84c0,0.102-0.023,0.178-0.068,0.229c-0.045,0.051-0.106,0.076-0.181,0.076   c-0.073,0-0.132-0.025-0.178-0.075c-0.046-0.05-0.069-0.127-0.069-0.23v-2.109c0-0.116,0.03-0.195,0.091-0.235   c0.06-0.04,0.142-0.061,0.245-0.061h0.167c0.1,0,0.174,0.009,0.219,0.027c0.045,0.018,0.079,0.051,0.101,0.098   s0.047,0.124,0.075,0.231l0.387,1.46l0.387-1.46c0.028-0.107,0.053-0.184,0.075-0.231s0.055-0.08,0.101-0.098   c0.045-0.018,0.119-0.027,0.219-0.027h0.167c0.103,0,0.185,0.02,0.245,0.061c0.06,0.04,0.091,0.119,0.091,0.235v2.109   c0,0.102-0.023,0.178-0.068,0.229c-0.045,0.051-0.106,0.076-0.183,0.076c-0.071,0-0.13-0.025-0.176-0.076   c-0.046-0.051-0.069-0.127-0.069-0.229v-1.84l-0.427,1.698c-0.028,0.11-0.05,0.191-0.068,0.243s-0.05,0.099-0.097,0.141   c-0.047,0.042-0.113,0.064-0.196,0.064c-0.063,0-0.116-0.014-0.16-0.041s-0.078-0.062-0.102-0.105   c-0.024-0.042-0.043-0.09-0.057-0.141C80.147,88.669,80.133,88.616,80.118,88.56z" fill="#020507"/><path d="M84.077,86.712H82.86v0.655h1.12c0.082,0,0.144,0.019,0.185,0.055c0.04,0.037,0.061,0.086,0.061,0.146   s-0.02,0.11-0.06,0.148c-0.04,0.038-0.102,0.057-0.185,0.057h-1.12v0.758h1.258c0.085,0,0.149,0.02,0.192,0.059   c0.043,0.04,0.065,0.092,0.065,0.157c0,0.063-0.021,0.114-0.065,0.154c-0.043,0.04-0.107,0.059-0.192,0.059h-1.467   c-0.118,0-0.202-0.026-0.254-0.078c-0.051-0.052-0.077-0.136-0.077-0.253v-2.004c0-0.078,0.011-0.141,0.035-0.19   c0.023-0.049,0.059-0.085,0.108-0.107c0.049-0.022,0.112-0.034,0.188-0.034h1.426c0.086,0,0.15,0.019,0.192,0.057   s0.063,0.088,0.063,0.15c0,0.063-0.021,0.114-0.063,0.152S84.163,86.712,84.077,86.712z" fill="#020507"/><path d="M64,126c19.772,0,37.368-9.266,48.721-23.68V76.356c0-3.408-2.762-6.17-6.17-6.17H20.17   c-0.132,0-0.386-0.039-0.386-0.039C16.56,69.944,14,67.292,14,64.016v12.34v24.293C25.284,116.018,43.473,126,64,126z" fill="#42464A"/><path d="M64,126c19.772,0,37.368-9.266,48.721-23.68V76.356c0-3.408-2.762-6.17-6.17-6.17H20.17   c-0.132,0-0.386-0.039-0.386-0.039C16.56,69.944,14,67.292,14,64.016v12.34v24.293C25.284,116.018,43.473,126,64,126z" fill="#42464A"/><rect fill="#C3BC7B" height="1" width="5" x="24.519" y="73.186"/><rect fill="#C3BC7B" height="1" width="5" x="34.519" y="73.186"/><rect fill="#C3BC7B" height="1" width="5" x="44.519" y="73.186"/><rect fill="#C3BC7B" height="5" width="1" x="109.221" y="81.129"/><rect fill="#C3BC7B" height="1" width="5" x="54.519" y="73.186"/><rect fill="#C3BC7B" height="5" width="1" x="109.221" y="91.129"/><path d="M15.67,70.951l-0.791,0.611c1.109,1.437,2.782,2.371,4.59,2.561l0.105-0.994   C18.036,72.966,16.613,72.173,15.67,70.951z" fill="#C3BC7B"/><rect fill="#C3BC7B" height="1" width="5" x="94.519" y="73.186"/><rect fill="#C3BC7B" height="1" width="5" x="64.519" y="73.186"/><path d="M110.221,101.129h-1v5h0.252c0.251-0.271,0.502-0.543,0.748-0.819V101.129z" fill="#C3BC7B"/><path d="M104.591,73.267l-0.154,0.988c1.521,0.238,2.9,1.106,3.782,2.382l0.822-0.568   C108.005,74.569,106.383,73.548,104.591,73.267z" fill="#C3BC7B"/><rect fill="#C3BC7B" height="1" width="5" x="84.519" y="73.186"/><rect fill="#C3BC7B" height="1" width="5" x="74.519" y="73.186"/><path d="M17.702,69.63C15.528,68.682,14,66.541,14,64.016v12.34v24.293   c1.162,1.583,2.398,3.107,3.702,4.571V81.292V69.63z" fill="#F8FAFB" opacity="0.1"/><path d="M112.721,76.356c0-2.559-1.559-4.754-3.778-5.688c0.031,0.249,0.076,0.494,0.076,0.752   v35.185c1.298-1.371,2.533-2.8,3.702-4.285V76.356z" fill="#05090C" opacity="0.2"/><path d="M114,100.65v-9.897H92.405c-5.111,0-9.255,4.144-9.255,9.255s4.144,9.255,9.255,9.255h13.944   C109.155,106.636,111.72,103.755,114,100.65z" fill="#41B19C"/><path d="M84.705,105.142c1.285,3.567,4.69,6.122,8.699,6.122h10.701c0.764-0.649,1.511-1.316,2.242-2   H92.405C89.193,109.263,86.365,107.626,84.705,105.142z" fill="#05090C" opacity="0.2"/><path d="M114,90.753h-3v13.657c1.046-1.215,2.05-2.466,3-3.76V90.753z" fill="#05090C" opacity="0.1"/><circle cx="92.589" cy="100.008" fill="#42464A" r="4.707"/></g></svg>