<?xml version="1.0" ?><!DOCTYPE svg  PUBLIC '-//W3C//DTD SVG 1.1//EN'  'http://www.w3.org/Graphics/SVG/1.1/DTD/svg11.dtd'><svg enable-background="new 0 0 128 128" id="Слой_1" version="1.1" viewBox="0 0 128 128" xml:space="preserve" xmlns="http://www.w3.org/2000/svg" xmlns:xlink="http://www.w3.org/1999/xlink"><g><circle cx="64" cy="64" fill="#315067" r="62"/><path d="M19.839,64.391h-5.276L12,52.397h4.238l1.097,7.39l1.114-7.39h4.958l1.114,7.584l1.122-7.584h4.062   l-2.521,11.994h-5.201l-1.08-7.763L19.839,64.391z" fill="#F5CA41"/><path d="M32.545,64.394V52.397h9.109v3.082h-4.513v1.301h4.192v3.083h-4.192v1.415h4.67v3.115H32.545z" fill="#F5CA41"/><path d="M72.42,64.394V52.397h9.109v3.082h-4.513v1.301h4.192v3.083h-4.192v1.415h4.67v3.115H72.42z" fill="#F5CA41"/><path d="M44.711,60.894h4.491v0.1c0,0.415,0.097,0.723,0.292,0.925c0.195,0.202,0.496,0.303,0.902,0.303   c0.356,0,0.634-0.079,0.835-0.236c0.201-0.158,0.301-0.375,0.301-0.651c0-0.205-0.038-0.379-0.114-0.523   c-0.076-0.144-0.188-0.252-0.335-0.324c-0.243-0.116-0.737-0.268-1.483-0.456c-0.746-0.188-1.336-0.349-1.771-0.481   c-1.051-0.326-1.816-0.755-2.296-1.286c-0.48-0.531-0.72-1.206-0.72-2.025c0-1.217,0.498-2.161,1.496-2.834   c0.997-0.672,2.397-1.008,4.199-1.008c1.644,0,2.899,0.289,3.766,0.867c0.867,0.578,1.301,1.409,1.301,2.493v0.257H51.43   c-0.034-0.37-0.14-0.644-0.318-0.821c-0.178-0.177-0.439-0.265-0.784-0.265c-0.299,0-0.539,0.075-0.72,0.224   c-0.181,0.149-0.271,0.346-0.271,0.589c0,0.448,0.505,0.791,1.517,1.029c0.367,0.083,0.661,0.155,0.881,0.216   c1.689,0.443,2.832,0.939,3.428,1.489c0.596,0.55,0.894,1.313,0.894,2.286c0,1.311-0.516,2.35-1.546,3.116   c-1.031,0.766-2.436,1.149-4.216,1.149c-1.802,0-3.186-0.319-4.152-0.959c-0.966-0.639-1.449-1.55-1.449-2.734   c0-0.116,0.001-0.206,0.004-0.27C44.701,61.001,44.705,60.944,44.711,60.894z" fill="#F5CA41"/><path d="M69.292,52.397V55.6h-2.958v8.788h-4.728V55.6h-2.967v-3.203H69.292z" fill="#F5CA41"/><path d="M85.077,64.337V52.397h6.232c1.829,0,3.108,0.231,3.835,0.692c0.727,0.461,1.091,1.242,1.091,2.343   c0,0.718-0.201,1.31-0.603,1.777c-0.402,0.467-1.003,0.803-1.802,1.008c0.744,0.119,1.274,0.361,1.591,0.729   c0.317,0.367,0.539,1.031,0.665,1.991l0.165,1.295c0.022,0.216,0.063,0.482,0.124,0.797c0.061,0.316,0.154,0.752,0.281,1.307   h-4.653c-0.105-0.399-0.183-0.723-0.235-0.971c-0.053-0.248-0.092-0.477-0.12-0.688l-0.116-0.874   c-0.116-0.788-0.27-1.287-0.463-1.498c-0.193-0.21-0.518-0.316-0.975-0.316c-0.11,0-0.196,0.001-0.256,0.004   c-0.061,0.003-0.119,0.009-0.174,0.02v4.322H85.077z M89.673,57.327c0.038,0.006,0.081,0.009,0.128,0.012   c0.047,0.003,0.114,0.004,0.203,0.004c0.54,0,0.955-0.107,1.244-0.32c0.289-0.213,0.434-0.517,0.434-0.911   c0-0.367-0.119-0.635-0.356-0.805c-0.237-0.17-0.615-0.255-1.132-0.255c-0.132,0-0.234,0.001-0.306,0.004   c-0.072,0.003-0.143,0.007-0.215,0.012V57.327z" fill="#F5CA41"/><path d="M103.719,56.986v7.327h-3.827V52.397h5.664l2.617,7.133v-7.133H112v11.916h-5.663L103.719,56.986z" fill="#F5CA41"/><path d="M103.719,71.709v7.385h-3.827V67.085h5.664l2.617,7.189v-7.189H112v12.009h-5.663L103.719,71.709z" fill="#F5CA41"/><path d="M63.595,71.706v7.38h-3.828V67.085h5.663l2.617,7.185v-7.185h3.828v12.002h-5.663L63.595,71.706z" fill="#F5CA41"/><path d="M44.545,67.088h4.598v7.5c0,0.515,0.093,0.907,0.279,1.176c0.186,0.269,0.456,0.403,0.81,0.403   c0.344,0,0.611-0.14,0.802-0.419c0.191-0.28,0.287-0.666,0.287-1.159v-7.5h4.614v7.31c0,1.71-0.463,2.973-1.389,3.787   c-0.926,0.814-2.364,1.221-4.315,1.221c-1.125,0-2.055-0.118-2.789-0.354c-0.734-0.236-1.343-0.608-1.825-1.118   c-0.382-0.406-0.657-0.856-0.823-1.353c-0.166-0.496-0.249-1.224-0.249-2.183V67.088z" fill="#F5CA41"/><path d="M80.535,67.091v11.987h-4.734V67.091H80.535z" fill="#F5CA41"/><path d="M90.077,79.414c-1.938,0-3.436-0.549-4.496-1.648c-1.06-1.099-1.59-2.647-1.59-4.646   c0-2.026,0.541-3.59,1.623-4.692c1.082-1.101,2.62-1.652,4.612-1.652c1.982,0,3.51,0.549,4.584,1.648   c1.074,1.099,1.611,2.658,1.611,4.679c0,2.048-0.541,3.612-1.623,4.692C93.715,78.874,92.141,79.414,90.077,79.414z M90.21,69.956   c-0.493,0-0.84,0.226-1.042,0.677c-0.202,0.451-0.303,1.291-0.303,2.52c0,1.152,0.101,1.956,0.303,2.412   c0.202,0.457,0.544,0.685,1.026,0.685c0.493,0,0.84-0.241,1.042-0.722c0.202-0.481,0.303-1.348,0.303-2.599   c0-1.129-0.1-1.907-0.299-2.333C91.04,70.17,90.697,69.956,90.21,69.956z" fill="#F5CA41"/><g><rect fill="#F5CA41" height="26.68" width="1" x="117" y="52.397"/></g></g></svg>