<?xml version="1.0" ?><!DOCTYPE svg  PUBLIC '-//W3C//DTD SVG 1.1//EN'  'http://www.w3.org/Graphics/SVG/1.1/DTD/svg11.dtd'><svg enable-background="new 0 0 128 128" id="Слой_1" version="1.1" viewBox="0 0 128 128" xml:space="preserve" xmlns="http://www.w3.org/2000/svg" xmlns:xlink="http://www.w3.org/1999/xlink"><g><path d="M6.949,39.687C3.763,47.152,2,55.37,2,64c0,34.242,27.758,62,62,62s62-27.758,62-62   c0-30.406-21.887-55.699-50.766-60.985C71.591,2.348,16.403,17.53,6.949,39.687z" fill="#7B4C4C"/><path d="M69.65,54.64c9.346-3.577,18.035-10.397,15.022-25.254l-6.803-18.814c0.576,1.506-0.433-1.367-2.638-7.538   C71.587,2.367,67.837,2,64,2C51.07,2,39.068,5.962,29.133,12.732l10.996,28.729C44.642,53.252,57.859,59.153,69.65,54.64z" fill="#EABF9B"/><path d="M69.65,54.64c9.346-3.577,18.035-10.397,15.022-25.254l-6.803-18.814   c0.576,1.506-0.433-1.367-2.638-7.538C71.587,2.367,67.837,2,64,2C51.07,2,39.068,5.962,29.133,12.732l10.996,28.729   C44.642,53.252,57.859,59.153,69.65,54.64z" fill="#020507" opacity="0.1"/><circle cx="77" cy="70" fill="#F5CA41" r="35"/><path d="M77,38.889c-17.155,0-31.111,13.956-31.111,31.111S59.845,101.111,77,101.111   S108.111,87.155,108.111,70S94.155,38.889,77,38.889z" fill="#F5F8F8" opacity="0.3"/><path d="M88.238,84.05c-3.108,2.385-6.829,3.645-10.757,3.645c-8.023,0-14.805-5.371-16.966-12.703h14.169   c0.967,0,1.75-0.783,1.75-1.75c0-0.967-0.783-1.75-1.75-1.75H59.861c-0.041-0.493-0.075-0.988-0.075-1.491s0.034-0.998,0.075-1.491   h14.822c0.967,0,1.75-0.783,1.75-1.75c0-0.967-0.783-1.75-1.75-1.75H60.514c2.161-7.332,8.943-12.703,16.966-12.703   c3.878,0,7.559,1.23,10.645,3.558c0.771,0.582,1.869,0.428,2.451-0.343c0.582-0.771,0.428-1.869-0.343-2.451   c-3.698-2.79-8.108-4.264-12.752-4.264c-9.965,0-18.324,6.922-20.577,16.203h-2.001c-0.967,0-1.75,0.783-1.75,1.75   c0,0.967,0.783,1.75,1.75,1.75h1.458c-0.035,0.495-0.076,0.988-0.076,1.491s0.041,0.996,0.076,1.491h-1.458   c-0.967,0-1.75,0.783-1.75,1.75c0,0.967,0.783,1.75,1.75,1.75h2.001c2.253,9.282,10.612,16.203,20.577,16.203   c4.706,0,9.163-1.51,12.888-4.367c0.767-0.588,0.911-1.687,0.324-2.454C90.103,83.606,89.004,83.463,88.238,84.05z" fill="#42464A"/><path d="M98.391,47.442c5.294,5.58,8.553,13.11,8.553,21.391c0,17.155-13.956,31.111-31.111,31.111   c-8.281,0-15.811-3.259-21.391-8.553c5.673,5.979,13.685,9.72,22.558,9.72c17.155,0,31.111-13.956,31.111-31.111   C108.111,61.126,104.371,53.115,98.391,47.442z" fill="#F5F8F8" opacity="0.3"/><path d="M77,38.889c-17.155,0-31.111,13.956-31.111,31.111c0,8.874,3.74,16.885,9.72,22.558   c-5.294-5.58-8.553-13.11-8.553-21.391c0-17.155,13.956-31.111,31.111-31.111c8.281,0,15.811,3.259,21.391,8.553   C93.885,42.629,85.874,38.889,77,38.889z" fill="#020507" opacity="0.1"/><path d="M42,70c0,0.661,0.022,1.317,0.058,1.969c8.318,2.616,17.765,0.438,24.058-6.406   c6.835-7.432,11.624-17.482,2.404-29.523C53.289,39.832,42,53.595,42,70z" fill="#020507" opacity="0.1"/><path d="   M76.901,82.807" fill="none" stroke="#303536" stroke-linecap="round" stroke-linejoin="round" stroke-miterlimit="10" stroke-width="4"/><path d="M66.116,62.563c6.878-7.479,11.692-17.609,2.233-29.752L53.655,18.785   c1.687,1.551-3.335-3.295-12.747-12.324C25.653,12.59,13.393,24.595,6.953,39.689l26.366,24.247   C42.755,72.614,57.439,71.999,66.116,62.563z" fill="#EABF9B"/><path d="M64.144,33.541c-4.606-3.583-9.283-7.006-12.391-9.243c-2.594-1.868-5.949-2.312-8.946-1.201   c-10.072,3.732-14.374,12.1-16.174,17.734c-1.029,3.219-0.201,6.741,2.076,9.237c2.485,2.724,6.115,6.724,10.024,11.104   c5.918,6.63,17.78,6.275,24.812-1.372C71.366,51.296,71.28,39.092,64.144,33.541z" fill="#F5F6F5" opacity="0.5"/></g></svg>