<?xml version="1.0" ?><!DOCTYPE svg  PUBLIC '-//W3C//DTD SVG 1.1//EN'  'http://www.w3.org/Graphics/SVG/1.1/DTD/svg11.dtd'><svg enable-background="new 0 0 128 128" id="Слой_1" version="1.1" viewBox="0 0 128 128" xml:space="preserve" xmlns="http://www.w3.org/2000/svg" xmlns:xlink="http://www.w3.org/1999/xlink"><g><path d="M64,2C31.148,2,4.263,27.551,2.136,59.865c-0.002,0.037,4.882,32.08,13.283,42.659   C26.776,116.828,44.317,126,64,126c26.302,0,48.78-16.379,57.788-39.493c2.719-6.977,2.72-38.034,0.002-45.009   C112.782,18.381,90.304,2,64,2z" fill="#7B4C4C"/><path d="M34.039,75.438l-4.206,14.817c-0.905,3.188,0.946,6.505,4.134,7.41c3.188,0.905,6.505-0.946,7.41-4.134   l1.297-4.569l0-0.001l4.471-15.753l-4.471,15.753c-0.904,3.188,0.946,6.505,4.134,7.41c3.188,0.905,6.505-0.946,7.41-4.134   l2.271-8.002l0,0l2.2-7.75l-2.2,7.751c-0.904,3.188,0.946,6.505,4.134,7.41c3.188,0.905,6.505-0.946,7.41-4.134L74.5,60.731   c1.5-4.625-5.25-7-5.25-7S43.5,41.856,38.5,39.856s-9.375,1.75-9.375,1.75L2.152,59.867c-0.002,0.037-0.006,0.073-0.008,0.11   c-0.033,0.516-0.059,1.034-0.082,1.552C2.03,62.349,2,63.171,2,64c0,0.98,0.029,1.953,0.074,2.922   c0.011,0.249,0.029,0.497,0.043,0.746c0.046,0.782,0.103,1.561,0.178,2.336c0.018,0.186,0.035,0.373,0.054,0.558   C3.47,81.222,7.3,91.069,13.127,99.422l11.248-4.691L34.039,75.438z" fill="#EABF9B"/><path d="M47.146,58.125l-3.377-1.564c-3.602,0-8.102,2.605-9.769,9.605   c-0.194,0.813-0.333,2.245-0.4,3.713c-0.098,2.136,1.924,3.743,3.983,3.163l21.457-6.048   C62.061,65.988,47.146,58.125,47.146,58.125z" fill="#05090C" opacity="0.1"/><path d="M33.967,97.665c3.188,0.905,6.505-0.946,7.41-4.134l0.391-1.379l-8.614,5.21   C33.416,97.479,33.684,97.585,33.967,97.665z" fill="#05090C" opacity="0.1"/><polygon fill="#05090C" points="57.198,81.74 57.198,81.74 56.49,84.236  "/><path d="M42.449,90.661c0.012,1.266,0.428,2.477,1.155,3.474L63.843,80.36l-6.644,1.38L42.449,90.661   z" fill="#05090C" opacity="0.1"/><path d="M124.759,76.389c0.168-0.828,0.312-1.664,0.447-2.503c0.033-0.208,0.071-0.415,0.102-0.624   c0.113-0.752,0.203-1.51,0.288-2.27c0.03-0.273,0.069-0.544,0.096-0.818c0.074-0.746,0.124-1.498,0.171-2.252   c0.017-0.278,0.045-0.553,0.058-0.831C125.972,66.067,126,65.037,126,64s-0.028-2.067-0.078-3.091   c-0.014-0.279-0.041-0.554-0.058-0.831c-0.047-0.753-0.097-1.506-0.171-2.252c-0.027-0.275-0.065-0.546-0.096-0.819   c-0.085-0.76-0.176-1.518-0.288-2.269c-0.031-0.209-0.069-0.416-0.102-0.625c-0.134-0.839-0.279-1.675-0.447-2.502   c-0.019-0.095-0.04-0.189-0.06-0.283c-0.704-3.388-1.696-6.667-2.928-9.828H42c-0.552,0-1,0.448-1,1v43c0,0.552,0.448,1,1,1h79.772   c1.232-3.161,2.224-6.44,2.928-9.828C124.719,76.577,124.74,76.484,124.759,76.389z" fill="#41B19C"/><path d="M45.05,82.45v-36.9h78.158c-0.094-0.303-0.206-0.599-0.305-0.9H44.15v38.7h78.754   c0.099-0.301,0.21-0.597,0.305-0.9H45.05z" fill="#F5F8F8" opacity="0.2"/><circle cx="88" cy="64" fill="#F5F8F8" opacity="0.2" r="15.75"/><path d="M90.907,64.04c-0.464-0.301-0.996-0.544-1.582-0.723c-0.478-0.145-0.968-0.286-1.469-0.424   c-0.443-0.122-0.881-0.267-1.3-0.433c-0.322-0.127-0.606-0.297-0.847-0.505c-0.201-0.174-0.371-0.41-0.505-0.702   c-0.089-0.192-0.194-0.557-0.194-1.199c0-0.332,0.06-0.661,0.177-0.98c0.111-0.3,0.28-0.572,0.502-0.808   c0.222-0.237,0.519-0.433,0.882-0.584c0.758-0.316,1.991-0.318,2.717,0.007c0.345,0.155,0.63,0.363,0.846,0.617   c0.226,0.266,0.398,0.582,0.512,0.938c0.15,0.473,0.657,0.734,1.13,0.584c0.474-0.151,0.736-0.658,0.584-1.131   c-0.185-0.583-0.473-1.107-0.853-1.554c-0.391-0.461-0.889-0.83-1.483-1.096c-1.18-0.529-2.933-0.531-4.147-0.026   c-0.598,0.25-1.102,0.59-1.499,1.012c-0.389,0.414-0.686,0.892-0.879,1.419c-0.192,0.518-0.289,1.057-0.289,1.604   c0,0.777,0.12,1.433,0.358,1.951c0.243,0.527,0.567,0.969,0.962,1.311c0.395,0.342,0.853,0.617,1.365,0.819   c0.479,0.189,0.978,0.356,1.484,0.494c0.486,0.134,0.96,0.27,1.422,0.41c0.424,0.129,0.803,0.301,1.126,0.51   c0.309,0.2,0.565,0.465,0.761,0.787c0.199,0.327,0.301,0.773,0.301,1.325c0,0.402-0.059,0.788-0.176,1.147   c-0.112,0.346-0.285,0.651-0.512,0.905c-0.22,0.245-0.509,0.442-0.859,0.586c-0.66,0.271-1.695,0.297-2.506,0.04   c-0.36-0.114-0.684-0.301-0.962-0.555c-0.287-0.263-0.529-0.616-0.717-1.049c-0.199-0.455-0.727-0.665-1.185-0.466   c-0.455,0.198-0.664,0.729-0.466,1.184c0.29,0.666,0.678,1.224,1.152,1.659c0.473,0.433,1.023,0.751,1.635,0.944   c0.552,0.175,1.144,0.264,1.761,0.264c0.736,0,1.399-0.119,1.972-0.355c0.603-0.248,1.112-0.601,1.514-1.05   c0.396-0.443,0.693-0.964,0.884-1.55c0.175-0.539,0.264-1.112,0.264-1.703c0-0.887-0.189-1.648-0.563-2.262   C91.888,64.846,91.444,64.388,90.907,64.04z" fill="#42464A"/><path d="   M85.942,71.471" fill="none" stroke="#303536" stroke-linecap="round" stroke-linejoin="round" stroke-miterlimit="10" stroke-width="2"/><path d="M87.942,70.523c-0.497,0-0.9,0.403-0.9,0.9v1.327c0,0.497,0.403,0.9,0.9,0.9c0.497,0,0.9-0.403,0.9-0.9   v-1.327C88.842,70.926,88.439,70.523,87.942,70.523z" fill="#42464A"/><path d="M87.942,54.35c-0.497,0-0.9,0.403-0.9,0.9v1.286c0,0.497,0.403,0.9,0.9,0.9c0.497,0,0.9-0.403,0.9-0.9   V55.25C88.842,54.753,88.439,54.35,87.942,54.35z" fill="#42464A"/><path d="M60.555,65.691c-0.849,0-1.689,0.137-2.499,0.406L40.649,71.9v13.6c0,0.552,0.448,1,1,1   h13.145l8.241-5.797c4.426-3.203,5.931-7.592,3.864-11.325C65.506,66.864,63.428,65.691,60.555,65.691z" fill="#05090C" opacity="0.1"/><path d="M32.517,97.837L64.48,78.504c3.175-1.92,4.265-6.007,2.467-9.253c-1.611-2.91-5.068-4.257-8.224-3.205   l-19.712,6.571l-7.344,2.448L10.132,94.681c1.57,2.75,3.342,5.367,5.3,7.833l9.164-1.691   C27.397,100.322,30.082,99.31,32.517,97.837z" fill="#EABF9B"/><path d="M58.828,67.327c-1.542,0.876-2.968,1.67-3.942,2.209c-0.893,0.494-1.47,1.422-1.487,2.443   c-0.029,1.787,0.393,4.597,2.915,6.639c0.75,0.608,1.754,0.805,2.676,0.521c1.106-0.34,2.775-0.867,4.439-1.448   c2.579-0.899,3.783-4.383,2.367-7.573C64.523,67.25,61.163,66.001,58.828,67.327z" fill="#F5F6F5" opacity="0.5"/></g></svg>