<?xml version="1.0" ?><!DOCTYPE svg  PUBLIC '-//W3C//DTD SVG 1.1//EN'  'http://www.w3.org/Graphics/SVG/1.1/DTD/svg11.dtd'><svg enable-background="new 0 0 128 128" id="Слой_1" version="1.1" viewBox="0 0 128 128" xml:space="preserve" xmlns="http://www.w3.org/2000/svg" xmlns:xlink="http://www.w3.org/1999/xlink"><g><path d="M64,2C36.179,2,12.637,20.325,4.787,45.563c-1.812,5.824,99.182,69.766,110.356,53.494   C121.992,89.086,126,77.011,126,64C126,29.758,98.242,2,64,2z" fill="#41B19C"/><path d="M64,126c23.919,0,44.66-13.553,55-33.39V72.942c0-3.557-2.883-6.44-6.44-6.44h-6.912   L88.83,24.688c-1.327-3.3-5.078-4.898-8.377-3.571L3.133,52.215c-0.086,0.447-0.164,0.897-0.241,1.348   c-0.073,0.438-0.154,0.874-0.218,1.315c-0.068,0.459-0.119,0.924-0.176,1.386c-0.068,0.547-0.142,1.092-0.196,1.643   c-0.048,0.497-0.077,1-0.114,1.5c-0.037,0.506-0.084,1.009-0.11,1.519C2.028,61.945,2,62.969,2,64C2,98.242,29.758,126,64,126z" fill="#05090C" opacity="0.1"/><path d="M104.266,68.808L85.079,21.105c-1.39-3.455-5.317-5.129-8.771-3.739L4.605,46.205   c-0.515,1.723-0.969,3.472-1.335,5.254c-0.007,0.036-0.014,0.072-0.022,0.107c-0.193,0.948-0.363,1.903-0.512,2.866   c-0.009,0.058-0.02,0.116-0.029,0.175c-0.145,0.954-0.265,1.916-0.366,2.883c-0.02,0.192-0.034,0.385-0.053,0.577   c-0.072,0.759-0.13,1.522-0.174,2.288C2.1,60.617,2.084,60.878,2.072,61.14C2.029,62.088,2,63.041,2,64   c0,1.086,0.03,2.166,0.084,3.239c0.038,0.732,0.103,1.456,0.166,2.18c0.027,0.32,0.043,0.644,0.075,0.963   c1.565,15.309,8.71,28.959,19.356,38.91l78.845-31.712C103.981,76.19,105.655,72.263,104.266,68.808z" fill="#D8D8D0"/><path d="M86.042,23.499L2.385,57.146c-0.006,0.053-0.014,0.106-0.02,0.159c-0.099,0.938-0.174,1.883-0.234,2.832   c-0.01,0.157-0.027,0.311-0.036,0.468C2.034,61.729,2,62.86,2,64c0,1.165,0.036,2.321,0.102,3.469   c0.008,0.142,0.023,0.282,0.032,0.423c0.063,0.993,0.145,1.98,0.251,2.96c0.006,0.056,0.015,0.111,0.021,0.166l88.441-35.572   L86.042,23.499z" fill="#42464A"/><rect fill="#F8FAFB" height="84.83" transform="matrix(-0.3732 -0.9278 0.9278 -0.3732 4.3585 133.7948)" width="10.303" x="42.226" y="23.01"/><path d="M104.379,69.089l-3.63-9.026H18.543c-4.971,0-9.015,4.044-9.015,9.015v24.553   c3.195,5.86,7.316,11.139,12.154,15.661l79.126-31.825C104.107,76.14,105.706,72.389,104.379,69.089z" fill="#05090C" opacity="0.1"/><path d="M64,126c21.231,0,39.961-10.677,51.136-26.948v-29.67c0-3.724-3.019-6.742-6.742-6.742H18.846   c-3.724,0-6.742,3.019-6.742,6.742v28.527C23.176,114.82,42.277,126,64,126z" fill="#F2F4F5"/><rect fill="#C3BC7B" height="14.167" width="5.903" x="29.759" y="84.143"/><path d="M40.974,84.143h-4.132v6.493h5.313v-5.313C42.155,84.671,41.626,84.143,40.974,84.143z" fill="#C3BC7B"/><path d="M36.842,98.31h4.132c0.652,0,1.181-0.529,1.181-1.181v-5.313h-5.313V98.31z" fill="#C3BC7B"/><path d="M23.266,97.129c0,0.652,0.529,1.181,1.181,1.181h4.132v-6.493h-5.313V97.129z" fill="#C3BC7B"/><path d="M23.266,85.323v5.313h5.313v-6.493h-4.132C23.794,84.143,23.266,84.671,23.266,85.323z" fill="#C3BC7B"/><g opacity="0.2"><path d="M25.366,106.022c-0.117-0.053-0.272-0.079-0.466-0.079h-0.162v-2.92c0-0.438-0.191-0.657-0.574-0.657    c-0.118,0-0.219,0.04-0.304,0.119c-0.084,0.079-0.192,0.207-0.323,0.383l-2,2.675c-0.055,0.073-0.102,0.135-0.14,0.185    c-0.038,0.05-0.074,0.103-0.109,0.157s-0.062,0.106-0.079,0.155c-0.018,0.049-0.026,0.097-0.026,0.145    c0,0.186,0.06,0.333,0.179,0.441c0.12,0.108,0.299,0.162,0.538,0.162h1.894v0.702c0,0.189,0.043,0.331,0.13,0.428    c0.087,0.097,0.201,0.145,0.341,0.145c0.143,0,0.258-0.047,0.343-0.141c0.086-0.094,0.128-0.238,0.128-0.432v-0.702h0.23    c0.191,0,0.335-0.033,0.43-0.1s0.143-0.173,0.143-0.319C25.541,106.191,25.483,106.075,25.366,106.022z M23.794,105.943h-1.622    l1.622-2.192V105.943z" fill="#020507"/><path d="M29.375,107.079h-1.97c0.063-0.096,0.125-0.177,0.185-0.245c0.141-0.171,0.401-0.411,0.779-0.721    c0.379-0.309,0.648-0.536,0.809-0.681c0.161-0.145,0.319-0.345,0.474-0.6c0.155-0.255,0.232-0.539,0.232-0.851    c0-0.199-0.037-0.391-0.111-0.575c-0.074-0.185-0.178-0.348-0.311-0.489s-0.288-0.252-0.464-0.332    c-0.272-0.121-0.6-0.181-0.985-0.181c-0.319,0-0.598,0.047-0.836,0.142c-0.238,0.094-0.434,0.218-0.589,0.372    c-0.155,0.153-0.271,0.324-0.349,0.513s-0.117,0.37-0.117,0.543c0,0.143,0.042,0.257,0.125,0.34s0.187,0.125,0.313,0.125    c0.143,0,0.252-0.045,0.326-0.136c0.074-0.091,0.141-0.22,0.2-0.389c0.059-0.169,0.101-0.272,0.126-0.309    c0.189-0.289,0.448-0.434,0.777-0.434c0.156,0,0.3,0.035,0.432,0.106c0.132,0.07,0.236,0.169,0.313,0.296    c0.077,0.127,0.115,0.271,0.115,0.432c0,0.148-0.036,0.3-0.108,0.455c-0.072,0.155-0.176,0.306-0.313,0.453    s-0.309,0.294-0.515,0.44c-0.116,0.078-0.308,0.241-0.577,0.489c-0.269,0.248-0.571,0.545-0.906,0.892    c-0.081,0.086-0.155,0.203-0.223,0.353c-0.068,0.15-0.102,0.27-0.102,0.36c0,0.141,0.053,0.263,0.159,0.368    c0.106,0.104,0.253,0.157,0.441,0.157h2.777c0.166,0,0.29-0.043,0.372-0.128s0.123-0.19,0.123-0.313    c0-0.138-0.052-0.248-0.155-0.328C29.721,107.119,29.571,107.079,29.375,107.079z" fill="#020507"/><path d="M33.989,102.49h-2.513c-0.199,0-0.353,0.025-0.464,0.076c-0.111,0.05-0.166,0.162-0.166,0.336    c0,0.164,0.052,0.284,0.157,0.36s0.262,0.115,0.474,0.115h2.019c-0.317,0.402-0.591,0.807-0.821,1.213s-0.422,0.802-0.575,1.189    s-0.264,0.718-0.332,0.994c-0.068,0.277-0.102,0.496-0.102,0.657c0,0.209,0.047,0.367,0.14,0.474    c0.093,0.107,0.216,0.16,0.37,0.16c0.161,0,0.29-0.05,0.387-0.149c0.097-0.099,0.172-0.277,0.224-0.534    c0.023-0.111,0.049-0.27,0.079-0.479s0.058-0.379,0.083-0.509c0.025-0.131,0.068-0.296,0.128-0.494    c0.143-0.45,0.301-0.831,0.474-1.143c0.172-0.312,0.34-0.573,0.502-0.783c0.162-0.21,0.307-0.402,0.434-0.575    c0.127-0.174,0.191-0.313,0.191-0.419c0-0.174-0.054-0.298-0.162-0.374C34.406,102.528,34.231,102.49,33.989,102.49z" fill="#020507"/><path d="M38.653,104.817c-0.158-0.16-0.343-0.285-0.553-0.375c-0.21-0.091-0.436-0.136-0.677-0.136    c-0.302,0-0.631,0.096-0.989,0.287l0.215-1.223h1.792c0.186,0,0.327-0.04,0.423-0.121s0.143-0.186,0.143-0.317    c0-0.299-0.196-0.449-0.589-0.449h-1.992c-0.216,0-0.372,0.049-0.468,0.147c-0.096,0.098-0.161,0.255-0.196,0.472l-0.317,1.807    c-0.028,0.159-0.042,0.244-0.042,0.257c0,0.113,0.048,0.214,0.143,0.304s0.205,0.134,0.328,0.134c0.113,0,0.257-0.066,0.432-0.198    c0.175-0.132,0.309-0.225,0.402-0.277c0.093-0.053,0.248-0.079,0.464-0.079c0.176,0,0.336,0.042,0.479,0.126    c0.143,0.084,0.258,0.212,0.343,0.383c0.086,0.171,0.128,0.377,0.128,0.619c0,0.224-0.04,0.424-0.119,0.6    s-0.192,0.314-0.338,0.415c-0.146,0.101-0.316,0.151-0.509,0.151c-0.211,0-0.403-0.062-0.574-0.187s-0.307-0.299-0.407-0.523    c-0.103-0.244-0.26-0.366-0.472-0.366c-0.123,0-0.226,0.044-0.307,0.132c-0.082,0.088-0.123,0.181-0.123,0.279    c0,0.161,0.058,0.349,0.175,0.564c0.117,0.215,0.316,0.406,0.596,0.572c0.28,0.166,0.646,0.249,1.096,0.249    c0.402,0,0.758-0.088,1.066-0.264c0.308-0.176,0.544-0.414,0.707-0.713c0.164-0.299,0.245-0.631,0.245-0.996    c0-0.252-0.045-0.487-0.136-0.706C38.936,105.166,38.812,104.976,38.653,104.817z" fill="#020507"/><path d="M47.156,105.309c-0.135-0.136-0.3-0.257-0.496-0.362c0.204-0.171,0.36-0.346,0.47-0.526    c0.109-0.18,0.164-0.396,0.164-0.647c0-0.191-0.038-0.37-0.113-0.536s-0.187-0.312-0.336-0.438    c-0.148-0.126-0.323-0.222-0.524-0.289s-0.424-0.1-0.668-0.1c-0.279,0-0.532,0.04-0.758,0.119    c-0.226,0.079-0.416,0.184-0.568,0.315c-0.152,0.131-0.268,0.269-0.347,0.413c-0.079,0.145-0.119,0.282-0.119,0.413    c0,0.136,0.042,0.245,0.126,0.326c0.084,0.082,0.177,0.123,0.277,0.123c0.086,0,0.161-0.015,0.226-0.045    c0.065-0.03,0.111-0.072,0.136-0.125c0.043-0.098,0.09-0.202,0.141-0.313c0.052-0.111,0.106-0.201,0.164-0.272    s0.136-0.127,0.236-0.17c0.099-0.043,0.226-0.064,0.379-0.064c0.226,0,0.406,0.07,0.54,0.209c0.133,0.14,0.2,0.306,0.2,0.5    c0,0.254-0.084,0.449-0.251,0.585c-0.167,0.136-0.367,0.204-0.598,0.204h-0.155c-0.179,0-0.313,0.037-0.404,0.111    c-0.091,0.074-0.136,0.172-0.136,0.292c0,0.123,0.038,0.219,0.113,0.289c0.076,0.069,0.182,0.104,0.321,0.104    c0.03,0,0.098-0.005,0.204-0.015c0.106-0.01,0.184-0.015,0.234-0.015c0.287,0,0.511,0.084,0.672,0.251    c0.161,0.167,0.241,0.398,0.241,0.692c0,0.199-0.047,0.374-0.141,0.524c-0.094,0.151-0.214,0.265-0.358,0.341    s-0.295,0.115-0.451,0.115c-0.272,0-0.482-0.085-0.632-0.255s-0.29-0.43-0.421-0.779c-0.02-0.058-0.063-0.108-0.128-0.149    c-0.065-0.042-0.133-0.062-0.204-0.062c-0.141,0-0.258,0.045-0.353,0.134c-0.094,0.089-0.141,0.207-0.141,0.353    c0,0.113,0.04,0.257,0.119,0.43c0.079,0.174,0.196,0.341,0.351,0.504c0.155,0.162,0.352,0.297,0.591,0.406    s0.509,0.162,0.811,0.162c0.297,0,0.568-0.047,0.813-0.141c0.245-0.094,0.457-0.225,0.636-0.392s0.314-0.358,0.406-0.572    c0.092-0.214,0.138-0.435,0.138-0.664c0-0.191-0.034-0.369-0.102-0.534C47.392,105.595,47.29,105.445,47.156,105.309z" fill="#020507"/><path d="M50.678,102.404c-0.118,0-0.199,0.023-0.242,0.068c-0.043,0.045-0.135,0.166-0.275,0.362    c-0.141,0.196-0.302,0.374-0.485,0.532c-0.182,0.159-0.426,0.309-0.73,0.453c-0.204,0.096-0.346,0.174-0.426,0.234    c-0.081,0.06-0.121,0.155-0.121,0.283c0,0.111,0.041,0.208,0.123,0.292c0.082,0.084,0.175,0.126,0.281,0.126    c0.221,0,0.652-0.245,1.29-0.736v3.434c0,0.201,0.047,0.353,0.14,0.457s0.216,0.155,0.37,0.155c0.345,0,0.517-0.253,0.517-0.758    v-4.32c0-0.181-0.04-0.323-0.121-0.426S50.811,102.404,50.678,102.404z" fill="#020507"/><path d="M56.293,104.817c-0.158-0.16-0.343-0.285-0.553-0.375c-0.21-0.091-0.436-0.136-0.677-0.136    c-0.302,0-0.631,0.096-0.989,0.287l0.215-1.223h1.792c0.186,0,0.327-0.04,0.423-0.121s0.143-0.186,0.143-0.317    c0-0.299-0.196-0.449-0.589-0.449h-1.992c-0.216,0-0.372,0.049-0.468,0.147c-0.096,0.098-0.161,0.255-0.196,0.472l-0.317,1.807    c-0.028,0.159-0.042,0.244-0.042,0.257c0,0.113,0.048,0.214,0.143,0.304c0.096,0.089,0.205,0.134,0.328,0.134    c0.113,0,0.257-0.066,0.432-0.198c0.175-0.132,0.309-0.225,0.402-0.277c0.093-0.053,0.248-0.079,0.464-0.079    c0.176,0,0.336,0.042,0.479,0.126c0.143,0.084,0.258,0.212,0.343,0.383c0.086,0.171,0.128,0.377,0.128,0.619    c0,0.224-0.04,0.424-0.119,0.6s-0.192,0.314-0.338,0.415c-0.146,0.101-0.316,0.151-0.509,0.151c-0.211,0-0.402-0.062-0.573-0.187    c-0.171-0.125-0.307-0.299-0.408-0.523c-0.103-0.244-0.26-0.366-0.472-0.366c-0.123,0-0.226,0.044-0.307,0.132    c-0.082,0.088-0.123,0.181-0.123,0.279c0,0.161,0.058,0.349,0.175,0.564c0.117,0.215,0.316,0.406,0.596,0.572    c0.28,0.166,0.646,0.249,1.096,0.249c0.402,0,0.758-0.088,1.066-0.264c0.308-0.176,0.544-0.414,0.707-0.713    c0.164-0.299,0.245-0.631,0.245-0.996c0-0.252-0.045-0.487-0.136-0.706C56.576,105.166,56.451,104.976,56.293,104.817z" fill="#020507"/><path d="M60.924,104.892c-0.152-0.165-0.33-0.292-0.532-0.381c-0.203-0.089-0.423-0.134-0.662-0.134    c-0.249,0-0.474,0.049-0.675,0.147s-0.387,0.249-0.558,0.453c0.033-0.684,0.141-1.16,0.324-1.426    c0.091-0.131,0.202-0.235,0.334-0.311s0.265-0.115,0.398-0.115c0.166,0,0.312,0.046,0.438,0.138    c0.126,0.092,0.218,0.213,0.275,0.364c0.043,0.118,0.109,0.211,0.2,0.277c0.091,0.067,0.189,0.1,0.294,0.1    c0.121,0,0.22-0.042,0.298-0.126c0.078-0.084,0.117-0.178,0.117-0.281c0-0.171-0.062-0.35-0.187-0.536s-0.309-0.342-0.555-0.468    c-0.245-0.126-0.529-0.189-0.851-0.189c-0.335,0-0.633,0.063-0.894,0.189c-0.262,0.126-0.484,0.312-0.668,0.558    c-0.184,0.246-0.324,0.557-0.423,0.932c-0.098,0.375-0.147,0.8-0.147,1.275c0,0.584,0.081,1.077,0.243,1.481    s0.397,0.709,0.704,0.915c0.307,0.206,0.672,0.309,1.094,0.309c0.367,0,0.696-0.081,0.987-0.243s0.517-0.388,0.679-0.677    c0.162-0.289,0.243-0.611,0.243-0.966c0-0.244-0.042-0.478-0.125-0.702C61.194,105.251,61.076,105.057,60.924,104.892z     M60.145,107.009c-0.166,0.208-0.376,0.311-0.63,0.311c-0.267,0-0.488-0.113-0.664-0.34c-0.176-0.226-0.264-0.509-0.264-0.849    c0-0.211,0.043-0.396,0.13-0.553c0.087-0.157,0.201-0.277,0.343-0.36c0.142-0.083,0.291-0.125,0.447-0.125    c0.164,0,0.313,0.043,0.449,0.13c0.136,0.087,0.243,0.213,0.321,0.377c0.078,0.165,0.117,0.362,0.117,0.591    C60.394,106.529,60.311,106.801,60.145,107.009z" fill="#020507"/><path d="M69.086,102.892c-0.16-0.162-0.345-0.286-0.557-0.37c-0.211-0.084-0.446-0.126-0.706-0.126    c-0.392,0-0.73,0.095-1.013,0.285c-0.283,0.19-0.499,0.466-0.647,0.828c-0.086,0.219-0.148,0.48-0.189,0.785    c-0.04,0.304-0.06,0.646-0.06,1.026c0,0.294,0.018,0.568,0.055,0.821c0.036,0.253,0.094,0.484,0.172,0.692    c0.153,0.382,0.382,0.682,0.685,0.898c0.303,0.216,0.646,0.325,1.028,0.325c0.332,0,0.634-0.081,0.906-0.242    c0.272-0.161,0.493-0.39,0.664-0.687c0.136-0.241,0.229-0.511,0.279-0.807c0.05-0.297,0.076-0.651,0.076-1.064    c0-0.76-0.096-1.347-0.287-1.762C69.38,103.255,69.245,103.055,69.086,102.892z M68.665,106.358    c-0.053,0.299-0.145,0.529-0.275,0.69s-0.312,0.242-0.543,0.242c-0.224,0-0.401-0.077-0.532-0.232    c-0.131-0.155-0.224-0.383-0.279-0.685c-0.055-0.302-0.083-0.689-0.083-1.162c0-0.697,0.065-1.212,0.194-1.547    c0.13-0.335,0.36-0.502,0.692-0.502c0.231,0,0.413,0.075,0.543,0.224c0.131,0.15,0.224,0.371,0.279,0.664    c0.055,0.293,0.083,0.67,0.083,1.13C68.744,105.666,68.718,106.059,68.665,106.358z" fill="#020507"/><path d="M73.979,105.309c-0.135-0.136-0.3-0.257-0.496-0.362c0.204-0.171,0.36-0.346,0.47-0.526    s0.164-0.396,0.164-0.647c0-0.191-0.038-0.37-0.113-0.536c-0.075-0.166-0.187-0.312-0.336-0.438    c-0.148-0.126-0.323-0.222-0.524-0.289s-0.424-0.1-0.668-0.1c-0.279,0-0.532,0.04-0.758,0.119s-0.416,0.184-0.568,0.315    s-0.268,0.269-0.347,0.413c-0.079,0.145-0.119,0.282-0.119,0.413c0,0.136,0.042,0.245,0.126,0.326    c0.084,0.082,0.177,0.123,0.277,0.123c0.086,0,0.161-0.015,0.226-0.045c0.065-0.03,0.111-0.072,0.136-0.125    c0.043-0.098,0.09-0.202,0.141-0.313c0.052-0.111,0.106-0.201,0.164-0.272s0.136-0.127,0.236-0.17    c0.099-0.043,0.226-0.064,0.379-0.064c0.226,0,0.406,0.07,0.54,0.209c0.133,0.14,0.2,0.306,0.2,0.5    c0,0.254-0.084,0.449-0.251,0.585c-0.167,0.136-0.367,0.204-0.598,0.204h-0.155c-0.179,0-0.313,0.037-0.404,0.111    c-0.091,0.074-0.136,0.172-0.136,0.292c0,0.123,0.038,0.219,0.113,0.289c0.075,0.069,0.182,0.104,0.321,0.104    c0.03,0,0.098-0.005,0.204-0.015c0.106-0.01,0.184-0.015,0.234-0.015c0.287,0,0.511,0.084,0.672,0.251    c0.161,0.167,0.242,0.398,0.242,0.692c0,0.199-0.047,0.374-0.142,0.524c-0.094,0.151-0.214,0.265-0.358,0.341    c-0.145,0.077-0.295,0.115-0.451,0.115c-0.272,0-0.482-0.085-0.632-0.255c-0.15-0.17-0.29-0.43-0.421-0.779    c-0.02-0.058-0.063-0.108-0.128-0.149c-0.065-0.042-0.133-0.062-0.204-0.062c-0.141,0-0.258,0.045-0.353,0.134    c-0.094,0.089-0.141,0.207-0.141,0.353c0,0.113,0.04,0.257,0.119,0.43c0.079,0.174,0.196,0.341,0.351,0.504    c0.155,0.162,0.352,0.297,0.59,0.406c0.239,0.108,0.509,0.162,0.811,0.162c0.297,0,0.568-0.047,0.813-0.141    c0.245-0.094,0.457-0.225,0.636-0.392s0.314-0.358,0.406-0.572s0.138-0.435,0.138-0.664c0-0.191-0.034-0.369-0.102-0.534    C74.215,105.595,74.114,105.445,73.979,105.309z" fill="#020507"/><path d="M78.452,102.49h-2.513c-0.199,0-0.353,0.025-0.464,0.076c-0.111,0.05-0.166,0.162-0.166,0.336    c0,0.164,0.052,0.284,0.157,0.36c0.104,0.077,0.262,0.115,0.474,0.115h2.019c-0.317,0.402-0.59,0.807-0.821,1.213    s-0.422,0.802-0.575,1.189s-0.264,0.718-0.332,0.994c-0.068,0.277-0.102,0.496-0.102,0.657c0,0.209,0.047,0.367,0.14,0.474    c0.093,0.107,0.216,0.16,0.37,0.16c0.161,0,0.29-0.05,0.387-0.149s0.172-0.277,0.224-0.534c0.023-0.111,0.049-0.27,0.079-0.479    c0.03-0.209,0.058-0.379,0.083-0.509c0.025-0.131,0.068-0.296,0.128-0.494c0.143-0.45,0.301-0.831,0.474-1.143    c0.172-0.312,0.34-0.573,0.502-0.783c0.162-0.21,0.307-0.402,0.434-0.575s0.191-0.313,0.191-0.419    c0-0.174-0.054-0.298-0.162-0.374C78.869,102.528,78.694,102.49,78.452,102.49z" fill="#020507"/><path d="M83.022,107.079h-1.97c0.063-0.096,0.125-0.177,0.185-0.245c0.141-0.171,0.401-0.411,0.779-0.721    c0.379-0.309,0.648-0.536,0.809-0.681c0.161-0.145,0.319-0.345,0.474-0.6c0.155-0.255,0.232-0.539,0.232-0.851    c0-0.199-0.037-0.391-0.111-0.575c-0.074-0.185-0.178-0.348-0.311-0.489s-0.288-0.252-0.464-0.332    c-0.272-0.121-0.6-0.181-0.985-0.181c-0.319,0-0.598,0.047-0.836,0.142c-0.238,0.094-0.434,0.218-0.589,0.372    c-0.155,0.153-0.271,0.324-0.349,0.513s-0.117,0.37-0.117,0.543c0,0.143,0.042,0.257,0.125,0.34s0.187,0.125,0.313,0.125    c0.143,0,0.252-0.045,0.326-0.136c0.074-0.091,0.141-0.22,0.2-0.389c0.059-0.169,0.101-0.272,0.126-0.309    c0.189-0.289,0.448-0.434,0.777-0.434c0.156,0,0.3,0.035,0.432,0.106c0.132,0.07,0.236,0.169,0.313,0.296    c0.077,0.127,0.115,0.271,0.115,0.432c0,0.148-0.036,0.3-0.108,0.455c-0.072,0.155-0.176,0.306-0.313,0.453    s-0.309,0.294-0.515,0.44c-0.116,0.078-0.308,0.241-0.577,0.489c-0.269,0.248-0.571,0.545-0.906,0.892    c-0.081,0.086-0.155,0.203-0.223,0.353c-0.068,0.15-0.102,0.27-0.102,0.36c0,0.141,0.053,0.263,0.159,0.368    c0.106,0.104,0.253,0.157,0.441,0.157h2.777c0.166,0,0.29-0.043,0.372-0.128s0.123-0.19,0.123-0.313    c0-0.138-0.052-0.248-0.155-0.328C83.368,107.119,83.218,107.079,83.022,107.079z" fill="#020507"/><path d="M91.572,104.817c-0.159-0.16-0.343-0.285-0.553-0.375c-0.21-0.091-0.436-0.136-0.677-0.136    c-0.302,0-0.631,0.096-0.989,0.287l0.215-1.223h1.792c0.186,0,0.327-0.04,0.423-0.121s0.143-0.186,0.143-0.317    c0-0.299-0.196-0.449-0.589-0.449h-1.992c-0.216,0-0.372,0.049-0.468,0.147c-0.096,0.098-0.161,0.255-0.196,0.472l-0.317,1.807    c-0.028,0.159-0.042,0.244-0.042,0.257c0,0.113,0.048,0.214,0.143,0.304c0.096,0.089,0.205,0.134,0.328,0.134    c0.113,0,0.257-0.066,0.432-0.198c0.175-0.132,0.309-0.225,0.402-0.277c0.093-0.053,0.248-0.079,0.464-0.079    c0.176,0,0.336,0.042,0.479,0.126c0.143,0.084,0.258,0.212,0.343,0.383c0.086,0.171,0.128,0.377,0.128,0.619    c0,0.224-0.04,0.424-0.119,0.6s-0.192,0.314-0.338,0.415c-0.146,0.101-0.316,0.151-0.509,0.151c-0.211,0-0.402-0.062-0.573-0.187    c-0.171-0.125-0.307-0.299-0.408-0.523c-0.103-0.244-0.26-0.366-0.472-0.366c-0.123,0-0.226,0.044-0.307,0.132    c-0.082,0.088-0.123,0.181-0.123,0.279c0,0.161,0.059,0.349,0.175,0.564c0.117,0.215,0.316,0.406,0.596,0.572    c0.281,0.166,0.646,0.249,1.096,0.249c0.402,0,0.758-0.088,1.066-0.264s0.544-0.414,0.707-0.713    c0.164-0.299,0.245-0.631,0.245-0.996c0-0.252-0.045-0.487-0.136-0.706C91.855,105.166,91.73,104.976,91.572,104.817z" fill="#020507"/><path d="M96.652,106.022c-0.117-0.053-0.272-0.079-0.466-0.079h-0.162v-2.92c0-0.438-0.191-0.657-0.574-0.657    c-0.118,0-0.219,0.04-0.304,0.119c-0.084,0.079-0.192,0.207-0.323,0.383l-2,2.675c-0.055,0.073-0.102,0.135-0.14,0.185    c-0.038,0.05-0.074,0.103-0.109,0.157s-0.062,0.106-0.079,0.155c-0.018,0.049-0.026,0.097-0.026,0.145    c0,0.186,0.06,0.333,0.179,0.441c0.12,0.108,0.299,0.162,0.538,0.162h1.894v0.702c0,0.189,0.043,0.331,0.13,0.428    c0.087,0.097,0.201,0.145,0.341,0.145c0.143,0,0.258-0.047,0.343-0.141c0.086-0.094,0.128-0.238,0.128-0.432v-0.702h0.23    c0.191,0,0.335-0.033,0.43-0.1s0.143-0.173,0.143-0.319C96.828,106.191,96.769,106.075,96.652,106.022z M95.081,105.943h-1.622    l1.622-2.192V105.943z" fill="#020507"/><path d="M100.623,103.096c-0.174-0.225-0.387-0.397-0.641-0.515c-0.254-0.118-0.543-0.177-0.868-0.177    c-0.282,0-0.539,0.048-0.772,0.143c-0.233,0.096-0.433,0.229-0.602,0.4c-0.169,0.171-0.298,0.373-0.389,0.606    c-0.091,0.233-0.136,0.479-0.136,0.738c0,0.241,0.04,0.472,0.121,0.692s0.196,0.413,0.345,0.577    c0.15,0.165,0.327,0.293,0.532,0.385s0.426,0.138,0.662,0.138c0.249,0,0.476-0.05,0.681-0.149    c0.205-0.099,0.391-0.247,0.557-0.443c-0.035,0.682-0.143,1.157-0.324,1.426c-0.091,0.133-0.2,0.236-0.328,0.309    c-0.128,0.073-0.264,0.109-0.407,0.109c-0.161,0-0.306-0.046-0.434-0.138c-0.128-0.092-0.22-0.213-0.275-0.364    c-0.045-0.123-0.112-0.216-0.2-0.277c-0.088-0.062-0.187-0.092-0.298-0.092c-0.121,0-0.22,0.042-0.298,0.125    c-0.078,0.083-0.117,0.177-0.117,0.283c0,0.171,0.063,0.349,0.189,0.534c0.126,0.185,0.309,0.34,0.551,0.464    s0.526,0.187,0.853,0.187c0.332,0,0.629-0.061,0.891-0.183c0.262-0.122,0.486-0.308,0.673-0.558c0.187-0.25,0.33-0.56,0.428-0.928    c0.098-0.369,0.147-0.794,0.147-1.277c0-0.433-0.047-0.82-0.14-1.162C100.93,103.605,100.797,103.321,100.623,103.096z     M99.893,104.886c-0.089,0.156-0.205,0.275-0.347,0.357c-0.142,0.082-0.291,0.123-0.447,0.123c-0.254,0-0.464-0.099-0.63-0.298    s-0.249-0.465-0.249-0.8c0-0.337,0.083-0.608,0.249-0.813s0.368-0.307,0.607-0.307c0.138,0,0.266,0.03,0.383,0.091    c0.117,0.06,0.218,0.143,0.302,0.249c0.084,0.106,0.15,0.231,0.196,0.375c0.047,0.145,0.07,0.302,0.07,0.474    C100.027,104.547,99.983,104.73,99.893,104.886z" fill="#020507"/><path d="M105.395,105.309c-0.135-0.136-0.3-0.257-0.496-0.362c0.204-0.171,0.36-0.346,0.47-0.526    c0.109-0.18,0.164-0.396,0.164-0.647c0-0.191-0.038-0.37-0.113-0.536c-0.075-0.166-0.187-0.312-0.336-0.438    c-0.148-0.126-0.323-0.222-0.524-0.289s-0.424-0.1-0.668-0.1c-0.279,0-0.532,0.04-0.758,0.119    c-0.226,0.079-0.416,0.184-0.568,0.315c-0.152,0.131-0.268,0.269-0.347,0.413c-0.079,0.145-0.119,0.282-0.119,0.413    c0,0.136,0.042,0.245,0.126,0.326s0.177,0.123,0.277,0.123c0.086,0,0.161-0.015,0.226-0.045c0.065-0.03,0.111-0.072,0.136-0.125    c0.043-0.098,0.09-0.202,0.142-0.313c0.052-0.111,0.106-0.201,0.164-0.272s0.136-0.127,0.236-0.17    c0.099-0.043,0.226-0.064,0.379-0.064c0.226,0,0.406,0.07,0.54,0.209c0.133,0.14,0.2,0.306,0.2,0.5    c0,0.254-0.084,0.449-0.251,0.585c-0.167,0.136-0.367,0.204-0.598,0.204h-0.155c-0.179,0-0.313,0.037-0.404,0.111    c-0.091,0.074-0.136,0.172-0.136,0.292c0,0.123,0.038,0.219,0.113,0.289c0.076,0.069,0.182,0.104,0.321,0.104    c0.03,0,0.098-0.005,0.204-0.015c0.106-0.01,0.184-0.015,0.234-0.015c0.287,0,0.511,0.084,0.672,0.251s0.241,0.398,0.241,0.692    c0,0.199-0.047,0.374-0.141,0.524c-0.094,0.151-0.214,0.265-0.358,0.341c-0.145,0.077-0.295,0.115-0.451,0.115    c-0.272,0-0.482-0.085-0.632-0.255s-0.29-0.43-0.421-0.779c-0.02-0.058-0.063-0.108-0.128-0.149    c-0.065-0.042-0.133-0.062-0.204-0.062c-0.141,0-0.258,0.045-0.353,0.134c-0.094,0.089-0.141,0.207-0.141,0.353    c0,0.113,0.04,0.257,0.119,0.43c0.079,0.174,0.196,0.341,0.351,0.504c0.155,0.162,0.352,0.297,0.591,0.406    s0.509,0.162,0.811,0.162c0.297,0,0.568-0.047,0.813-0.141c0.245-0.094,0.457-0.225,0.636-0.392s0.314-0.358,0.406-0.572    c0.092-0.214,0.138-0.435,0.138-0.664c0-0.191-0.034-0.369-0.102-0.534C105.63,105.595,105.529,105.445,105.395,105.309z" fill="#020507"/><path d="M58.157,111.25c-0.059,0-0.099,0.011-0.121,0.034s-0.067,0.083-0.138,0.181    c-0.07,0.098-0.152,0.187-0.243,0.266c-0.091,0.079-0.213,0.155-0.365,0.226c-0.102,0.048-0.173,0.087-0.213,0.117    c-0.04,0.03-0.06,0.077-0.06,0.141c0,0.055,0.02,0.104,0.061,0.147c0.041,0.042,0.088,0.063,0.141,0.063    c0.111,0,0.326-0.123,0.645-0.368v1.717c0,0.101,0.023,0.177,0.07,0.228c0.047,0.052,0.108,0.077,0.185,0.077    c0.172,0,0.258-0.126,0.258-0.379v-2.16c0-0.091-0.02-0.162-0.06-0.213C58.277,111.276,58.224,111.25,58.157,111.25z" fill="#020507"/><path d="M60.453,111.25c-0.059,0-0.099,0.011-0.121,0.034s-0.067,0.083-0.138,0.181s-0.152,0.187-0.243,0.266    c-0.091,0.079-0.213,0.155-0.365,0.226c-0.102,0.048-0.173,0.087-0.213,0.117c-0.04,0.03-0.06,0.077-0.06,0.141    c0,0.055,0.02,0.104,0.061,0.147c0.041,0.042,0.088,0.063,0.141,0.063c0.111,0,0.326-0.123,0.645-0.368v1.717    c0,0.101,0.023,0.177,0.07,0.228c0.047,0.052,0.108,0.077,0.185,0.077c0.172,0,0.258-0.126,0.258-0.379v-2.16    c0-0.091-0.02-0.162-0.06-0.213C60.573,111.276,60.52,111.25,60.453,111.25z" fill="#020507"/><path d="M62.208,111.22c-0.073,0-0.122,0.021-0.147,0.064c-0.025,0.043-0.052,0.122-0.079,0.238l-0.526,2.175    c-0.025,0.116-0.038,0.188-0.038,0.217c0,0.111,0.064,0.166,0.192,0.166c0.052,0,0.091-0.012,0.118-0.035    c0.027-0.023,0.048-0.056,0.06-0.097c0.014-0.042,0.029-0.098,0.047-0.17l0.528-2.175c0.026-0.103,0.04-0.174,0.04-0.213    c0-0.053-0.017-0.094-0.05-0.125C62.318,111.235,62.271,111.22,62.208,111.22z" fill="#020507"/><path d="M64.298,113.588h-0.985c0.031-0.048,0.062-0.089,0.092-0.123c0.07-0.086,0.2-0.206,0.39-0.36    c0.189-0.155,0.324-0.268,0.404-0.341c0.081-0.072,0.159-0.172,0.237-0.299c0.077-0.128,0.116-0.27,0.116-0.426    c0-0.099-0.019-0.196-0.055-0.287c-0.038-0.093-0.089-0.174-0.156-0.245s-0.144-0.126-0.232-0.166    c-0.136-0.06-0.3-0.091-0.492-0.091c-0.16,0-0.299,0.023-0.418,0.071c-0.119,0.047-0.218,0.109-0.294,0.185    c-0.078,0.077-0.136,0.162-0.175,0.257c-0.039,0.094-0.058,0.185-0.058,0.272c0,0.072,0.021,0.128,0.062,0.17    s0.094,0.062,0.157,0.062c0.072,0,0.126-0.023,0.163-0.068s0.07-0.11,0.101-0.194c0.029-0.084,0.05-0.136,0.063-0.155    c0.094-0.145,0.224-0.217,0.389-0.217c0.078,0,0.15,0.018,0.216,0.053c0.065,0.035,0.118,0.085,0.156,0.148    c0.038,0.064,0.058,0.135,0.058,0.216c0,0.074-0.018,0.15-0.054,0.227c-0.035,0.078-0.088,0.153-0.156,0.226    c-0.069,0.074-0.155,0.147-0.258,0.22c-0.058,0.039-0.154,0.121-0.289,0.244c-0.135,0.125-0.286,0.273-0.453,0.447    c-0.04,0.043-0.077,0.102-0.111,0.176c-0.034,0.075-0.051,0.135-0.051,0.18c0,0.07,0.026,0.132,0.079,0.184    c0.053,0.052,0.126,0.078,0.221,0.078h1.389c0.083,0,0.145-0.021,0.186-0.064c0.04-0.043,0.061-0.095,0.061-0.157    c0-0.069-0.026-0.124-0.077-0.164C64.471,113.608,64.396,113.588,64.298,113.588z" fill="#020507"/><path d="M66.514,111.495c-0.081-0.082-0.173-0.143-0.279-0.185c-0.106-0.042-0.223-0.063-0.353-0.063    c-0.196,0-0.365,0.048-0.507,0.143c-0.141,0.095-0.249,0.233-0.323,0.414c-0.043,0.109-0.074,0.24-0.094,0.392    c-0.02,0.152-0.03,0.323-0.03,0.513c0,0.147,0.009,0.284,0.028,0.41c0.018,0.127,0.047,0.242,0.086,0.346    c0.077,0.191,0.191,0.341,0.342,0.449s0.323,0.162,0.514,0.162c0.166,0,0.317-0.04,0.453-0.121    c0.136-0.081,0.247-0.195,0.332-0.343c0.068-0.121,0.114-0.255,0.14-0.404c0.025-0.148,0.038-0.326,0.038-0.532    c0-0.38-0.048-0.674-0.143-0.881C66.661,111.676,66.593,111.576,66.514,111.495z M66.303,113.228    c-0.026,0.15-0.072,0.265-0.138,0.345c-0.065,0.081-0.156,0.121-0.272,0.121c-0.112,0-0.201-0.039-0.266-0.116    c-0.065-0.078-0.112-0.192-0.14-0.343c-0.028-0.151-0.042-0.345-0.042-0.581c0-0.348,0.032-0.606,0.097-0.773    c0.064-0.167,0.18-0.251,0.346-0.251c0.116,0,0.206,0.038,0.272,0.112c0.065,0.076,0.112,0.186,0.14,0.332    c0.028,0.147,0.042,0.335,0.042,0.565C66.343,112.882,66.33,113.078,66.303,113.228z" fill="#020507"/><path d="M35.752,118.099c0.128,0,0.223-0.028,0.287-0.084c0.064-0.056,0.096-0.13,0.096-0.223    c0-0.092-0.031-0.167-0.094-0.224c-0.063-0.057-0.159-0.086-0.288-0.086h-2.375c-0.123,0-0.216,0.028-0.28,0.083    c-0.04,0.034-0.045,0.091-0.06,0.14c0.228,0.131,0.454,0.264,0.684,0.393h0.472v0.271c0.246,0.135,0.496,0.265,0.745,0.397v-0.669    H35.752z" fill="#020507"/><path d="M39.673,117.847c0-0.143-0.031-0.25-0.093-0.321c-0.062-0.071-0.147-0.107-0.254-0.107    c-0.104,0-0.187,0.036-0.248,0.107c-0.061,0.071-0.092,0.178-0.092,0.321v2.193l-1.436-2.173c-0.04-0.064-0.079-0.125-0.117-0.184    c-0.038-0.058-0.075-0.106-0.111-0.143c-0.036-0.037-0.078-0.066-0.126-0.088s-0.105-0.033-0.172-0.033    c-0.086,0-0.165,0.024-0.239,0.072c-0.074,0.048-0.126,0.109-0.158,0.185c-0.027,0.069-0.04,0.164-0.04,0.284v1.652    c0.234,0.115,0.464,0.236,0.699,0.348v-1.316l1.217,1.867c0.372,0.168,0.74,0.344,1.117,0.505    c0.031-0.073,0.053-0.158,0.053-0.269V117.847z" fill="#020507"/><path d="M42.503,118.116c-0.045-0.119-0.082-0.214-0.112-0.286c-0.03-0.071-0.065-0.138-0.108-0.2    c-0.043-0.062-0.099-0.113-0.169-0.152s-0.157-0.059-0.26-0.059c-0.103,0-0.188,0.02-0.258,0.059    c-0.07,0.04-0.126,0.091-0.169,0.155c-0.043,0.064-0.083,0.144-0.121,0.24s-0.07,0.179-0.097,0.248l-0.943,2.395    c-0.038,0.096-0.066,0.17-0.083,0.224s-0.025,0.106-0.025,0.156c0,0.087,0.036,0.165,0.108,0.234s0.155,0.103,0.249,0.103    c0.111,0,0.191-0.032,0.239-0.097c0.048-0.065,0.108-0.189,0.176-0.374l0.176-0.473h1.499l0.176,0.463    c0.023,0.057,0.052,0.123,0.084,0.198c0.033,0.075,0.063,0.13,0.092,0.166c0.028,0.036,0.064,0.065,0.106,0.086    s0.092,0.031,0.151,0.031c0.101,0,0.187-0.036,0.258-0.107c0.071-0.071,0.107-0.15,0.107-0.235c0-0.082-0.038-0.214-0.113-0.395    L42.503,118.116z M41.303,119.729l0.546-1.522l0.556,1.522H41.303z" fill="#020507"/><path d="M47.187,117.482h-0.231c-0.139,0-0.24,0.013-0.303,0.038c-0.063,0.025-0.109,0.07-0.14,0.136    c-0.03,0.065-0.065,0.172-0.103,0.319l-0.536,2.02l-0.536-2.02c-0.038-0.148-0.073-0.254-0.103-0.319    c-0.03-0.065-0.077-0.111-0.14-0.136c-0.063-0.025-0.164-0.038-0.303-0.038h-0.231c-0.143,0-0.256,0.028-0.34,0.084    s-0.126,0.165-0.126,0.326v2.918c0,0.143,0.032,0.248,0.096,0.318c0.064,0.07,0.146,0.104,0.247,0.104    c0.104,0,0.187-0.035,0.25-0.106s0.094-0.176,0.094-0.317v-2.546l0.591,2.349c0.02,0.077,0.04,0.152,0.059,0.223    s0.046,0.136,0.079,0.195s0.081,0.107,0.141,0.145c0.06,0.038,0.134,0.057,0.221,0.057c0.116,0,0.206-0.03,0.272-0.088    c0.065-0.059,0.11-0.124,0.135-0.195c0.025-0.071,0.056-0.183,0.094-0.336l0.591-2.349v2.546c0,0.141,0.032,0.247,0.096,0.317    c0.064,0.07,0.145,0.106,0.244,0.106c0.106,0,0.19-0.035,0.253-0.106s0.094-0.176,0.094-0.317v-2.918    c0-0.161-0.042-0.27-0.126-0.326C47.443,117.511,47.329,117.482,47.187,117.482z" fill="#020507"/><path d="M50.907,120.576h-1.741v-1.049h1.549c0.116,0,0.201-0.026,0.257-0.079    c0.055-0.053,0.083-0.121,0.083-0.205c0-0.084-0.028-0.152-0.084-0.203c-0.056-0.051-0.141-0.077-0.255-0.077h-1.549v-0.906h1.683    c0.119,0,0.208-0.026,0.265-0.079s0.087-0.123,0.087-0.21c0-0.086-0.029-0.155-0.087-0.208c-0.058-0.053-0.147-0.079-0.265-0.079    h-1.972c-0.106,0-0.192,0.016-0.26,0.047c-0.068,0.031-0.118,0.081-0.15,0.148c-0.032,0.068-0.048,0.155-0.048,0.263v2.772    c0,0.161,0.036,0.277,0.107,0.35c0.071,0.072,0.188,0.108,0.351,0.108h2.03c0.118,0,0.206-0.027,0.265-0.082    c0.06-0.055,0.089-0.125,0.089-0.213c0-0.091-0.03-0.163-0.089-0.218C51.113,120.604,51.025,120.576,50.907,120.576z" fill="#020507"/><path d="M60.541,120.556h-1.514v-2.684c0-0.153-0.035-0.266-0.104-0.341s-0.16-0.112-0.273-0.112    c-0.111,0-0.2,0.038-0.268,0.113c-0.068,0.075-0.102,0.189-0.102,0.34v2.84c0,0.161,0.036,0.277,0.107,0.35    c0.071,0.072,0.188,0.108,0.351,0.108h1.804c0.123,0,0.216-0.028,0.279-0.084c0.064-0.056,0.096-0.13,0.096-0.22    c0-0.089-0.032-0.163-0.097-0.221C60.754,120.586,60.662,120.556,60.541,120.556z" fill="#020507"/><path d="M63.419,118.116c-0.045-0.119-0.082-0.214-0.112-0.286c-0.03-0.071-0.065-0.138-0.108-0.2    c-0.043-0.062-0.099-0.113-0.169-0.152s-0.157-0.059-0.26-0.059c-0.102,0-0.188,0.02-0.258,0.059s-0.126,0.091-0.169,0.155    c-0.043,0.064-0.083,0.144-0.121,0.24c-0.038,0.096-0.07,0.179-0.097,0.248l-0.943,2.395c-0.038,0.096-0.066,0.17-0.083,0.224    s-0.025,0.106-0.025,0.156c0,0.087,0.036,0.165,0.108,0.234s0.155,0.103,0.249,0.103c0.111,0,0.191-0.032,0.239-0.097    c0.048-0.065,0.108-0.189,0.176-0.374l0.176-0.473h1.499l0.176,0.463c0.023,0.057,0.052,0.123,0.084,0.198    c0.033,0.075,0.063,0.13,0.092,0.166c0.028,0.036,0.063,0.065,0.106,0.086c0.042,0.021,0.092,0.031,0.151,0.031    c0.101,0,0.187-0.036,0.258-0.107c0.071-0.071,0.107-0.15,0.107-0.235c0-0.082-0.038-0.214-0.113-0.395L63.419,118.116z     M62.219,119.729l0.546-1.522l0.556,1.522H62.219z" fill="#020507"/><path d="M67.47,119.273c-0.118-0.084-0.262-0.155-0.43-0.214c-0.169-0.058-0.357-0.113-0.565-0.161    c-0.166-0.042-0.285-0.074-0.357-0.096c-0.072-0.022-0.143-0.052-0.214-0.091c-0.07-0.038-0.126-0.085-0.166-0.138    c-0.04-0.053-0.06-0.118-0.06-0.191c0-0.119,0.059-0.221,0.177-0.306s0.274-0.127,0.467-0.127c0.208,0,0.359,0.039,0.453,0.117    c0.094,0.078,0.174,0.187,0.242,0.326c0.052,0.097,0.1,0.167,0.145,0.21c0.045,0.043,0.109,0.064,0.195,0.064    c0.094,0,0.172-0.036,0.235-0.107s0.094-0.152,0.094-0.24c0-0.097-0.025-0.197-0.076-0.299s-0.13-0.2-0.239-0.293    c-0.109-0.093-0.246-0.168-0.411-0.224c-0.165-0.056-0.361-0.084-0.587-0.084c-0.284,0-0.53,0.042-0.74,0.127    s-0.37,0.206-0.48,0.364s-0.166,0.338-0.166,0.541c0,0.213,0.052,0.391,0.157,0.535c0.105,0.143,0.247,0.257,0.425,0.34    s0.401,0.155,0.665,0.218c0.198,0.045,0.356,0.088,0.474,0.128c0.118,0.04,0.214,0.099,0.289,0.175s0.112,0.175,0.112,0.298    c0,0.154-0.069,0.283-0.208,0.386c-0.138,0.103-0.318,0.155-0.54,0.155c-0.161,0-0.291-0.026-0.39-0.077    c-0.099-0.051-0.175-0.116-0.23-0.195c-0.055-0.079-0.105-0.177-0.152-0.294c-0.038-0.099-0.085-0.174-0.14-0.224    c-0.055-0.05-0.121-0.076-0.2-0.076c-0.097,0-0.177,0.032-0.24,0.097c-0.063,0.065-0.094,0.142-0.094,0.233    c0,0.156,0.052,0.316,0.157,0.482c0.105,0.165,0.241,0.297,0.409,0.396c0.236,0.138,0.536,0.206,0.901,0.206    c0.304,0,0.566-0.05,0.787-0.151c0.221-0.101,0.389-0.24,0.504-0.418c0.115-0.178,0.172-0.378,0.172-0.601    c0-0.186-0.033-0.343-0.099-0.472C67.681,119.463,67.588,119.357,67.47,119.273z" fill="#020507"/><path d="M70.875,117.482H68.5c-0.123,0-0.216,0.028-0.281,0.083c-0.065,0.055-0.097,0.131-0.097,0.226    c0,0.092,0.031,0.167,0.093,0.223s0.157,0.084,0.284,0.084h0.815v2.679c0,0.153,0.035,0.267,0.104,0.342    c0.07,0.076,0.16,0.113,0.27,0.113c0.109,0,0.198-0.037,0.267-0.112s0.103-0.189,0.103-0.343v-2.679h0.815    c0.128,0,0.223-0.028,0.287-0.084c0.063-0.056,0.096-0.13,0.096-0.223c0-0.092-0.031-0.167-0.094-0.224    C71.1,117.511,71.004,117.482,70.875,117.482z" fill="#020507"/><path d="M74.449,117.42c-0.104,0-0.187,0.036-0.248,0.107c-0.061,0.071-0.092,0.178-0.092,0.321v2.193    l-1.436-2.173c-0.04-0.064-0.079-0.125-0.117-0.184c-0.038-0.058-0.075-0.106-0.111-0.143s-0.078-0.066-0.126-0.088    s-0.105-0.033-0.172-0.033c-0.086,0-0.165,0.024-0.239,0.072c-0.074,0.048-0.126,0.109-0.158,0.185    c-0.027,0.069-0.04,0.164-0.04,0.284v2.845c0,0.139,0.032,0.245,0.096,0.318c0.064,0.073,0.148,0.109,0.254,0.109    c0.102,0,0.186-0.036,0.252-0.108c0.065-0.072,0.098-0.179,0.098-0.319v-2.161l1.401,2.148c0.04,0.058,0.081,0.116,0.121,0.172    c0.04,0.056,0.084,0.105,0.131,0.147c0.047,0.042,0.097,0.072,0.151,0.092s0.114,0.029,0.181,0.029    c0.269,0,0.403-0.162,0.403-0.485v-2.9c0-0.143-0.031-0.25-0.093-0.321C74.641,117.455,74.557,117.42,74.449,117.42z" fill="#020507"/><path d="M77.626,118.116c-0.045-0.119-0.082-0.214-0.112-0.286c-0.03-0.071-0.065-0.138-0.108-0.2    s-0.099-0.113-0.169-0.152c-0.07-0.04-0.157-0.059-0.26-0.059c-0.102,0-0.188,0.02-0.258,0.059s-0.126,0.091-0.169,0.155    c-0.043,0.064-0.083,0.144-0.121,0.24c-0.038,0.096-0.07,0.179-0.097,0.248l-0.943,2.395c-0.038,0.096-0.066,0.17-0.083,0.224    s-0.025,0.106-0.025,0.156c0,0.087,0.036,0.165,0.108,0.234s0.155,0.103,0.249,0.103c0.111,0,0.191-0.032,0.239-0.097    c0.048-0.065,0.108-0.189,0.176-0.374l0.176-0.473h1.499l0.176,0.463c0.023,0.057,0.052,0.123,0.084,0.198    c0.033,0.075,0.064,0.13,0.092,0.166c0.028,0.036,0.063,0.065,0.106,0.086c0.042,0.021,0.092,0.031,0.151,0.031    c0.101,0,0.187-0.036,0.258-0.107c0.071-0.071,0.107-0.15,0.107-0.235c0-0.082-0.038-0.214-0.113-0.395L77.626,118.116z     M76.426,119.729l0.546-1.522l0.556,1.522H76.426z" fill="#020507"/><path d="M82.31,117.482h-0.231c-0.139,0-0.24,0.013-0.303,0.038s-0.109,0.07-0.14,0.136    c-0.03,0.065-0.065,0.172-0.103,0.319l-0.536,2.02l-0.536-2.02c-0.038-0.148-0.073-0.254-0.103-0.319    c-0.03-0.065-0.077-0.111-0.14-0.136s-0.164-0.038-0.303-0.038h-0.231c-0.143,0-0.256,0.028-0.34,0.084    c-0.084,0.056-0.126,0.165-0.126,0.326v2.918c0,0.143,0.032,0.248,0.096,0.318c0.064,0.07,0.146,0.104,0.247,0.104    c0.104,0,0.187-0.035,0.25-0.106c0.063-0.07,0.094-0.176,0.094-0.317v-2.546l0.591,2.349c0.02,0.077,0.04,0.152,0.059,0.223    c0.019,0.071,0.046,0.136,0.079,0.195s0.081,0.107,0.141,0.145c0.06,0.038,0.134,0.057,0.221,0.057    c0.116,0,0.206-0.03,0.272-0.088c0.065-0.059,0.11-0.124,0.135-0.195c0.025-0.071,0.056-0.183,0.094-0.336l0.591-2.349v2.546    c0,0.141,0.032,0.247,0.096,0.317s0.145,0.106,0.244,0.106c0.106,0,0.19-0.035,0.253-0.106c0.063-0.07,0.094-0.176,0.094-0.317    v-2.918c0-0.161-0.042-0.27-0.126-0.326C82.566,117.511,82.453,117.482,82.31,117.482z" fill="#020507"/><path d="M86.03,120.576h-1.741v-1.049h1.549c0.116,0,0.201-0.026,0.257-0.079c0.055-0.053,0.083-0.121,0.083-0.205    c0-0.084-0.028-0.152-0.084-0.203c-0.056-0.051-0.142-0.077-0.255-0.077h-1.549v-0.906h1.683c0.119,0,0.208-0.026,0.265-0.079    s0.087-0.123,0.087-0.21c0-0.086-0.029-0.155-0.087-0.208c-0.058-0.053-0.147-0.079-0.265-0.079H84    c-0.106,0-0.192,0.016-0.26,0.047c-0.068,0.031-0.118,0.081-0.15,0.148c-0.032,0.068-0.048,0.155-0.048,0.263v2.772    c0,0.161,0.036,0.277,0.107,0.35c0.071,0.072,0.188,0.108,0.351,0.108h2.03c0.118,0,0.206-0.027,0.265-0.082    c0.06-0.055,0.089-0.125,0.089-0.213c0-0.091-0.03-0.163-0.089-0.218C86.236,120.604,86.148,120.576,86.03,120.576z" fill="#020507"/></g><path d="M88.527,79c0-5.792,4.695-10.487,10.487-10.487c5.792,0,10.486,4.695,10.486,10.487   c0,5.791-4.694,10.487-10.486,10.487C93.222,89.487,88.527,84.791,88.527,79L88.527,79z" fill="#F5CA41"/><path d="M91.99,71.194c0.005,0-0.549,0.479-0.919,0.949h1.866c0,0,0.638,0.69,0.874,1.21h-3.647   c0,0-0.353,0.555-0.588,1.025h4.823c0,0,0.441,0.825,0.537,1.261H89.07c0,0-0.201,0.571-0.285,0.992l6.42-0.008   c0.176,0.806,0.605,3.15-0.278,5.74l-5.832,0.008c0.093,0.31,0.252,0.731,0.403,1.041h5.009c-0.202,0.421-0.497,0.95-0.665,1.216   l-3.672,0.003c0.194,0.294,0.504,0.756,0.706,0.967l2.261-0.001c-0.424,0.586-1.143,1.193-1.143,1.193h-0.018L92,86.796   c-1.857,1.673-4.317,2.691-7.014,2.691C79.195,89.487,74.5,84.791,74.5,79c0-5.792,4.695-10.487,10.487-10.487   C87.678,68.513,90.133,69.527,91.99,71.194L91.99,71.194z" fill="#C45C45"/><path d="M87.019,77.36l-0.169,0.943l-0.92-0.023c0,0-0.46,0.12-0.46,0.314c0,0.193,0.339,0.436,0.847,0.653   c0.509,0.219,0.533,0.823,0.484,1.234c-0.048,0.411-0.121,1.265-1.597,1.307c-0.847,0.024-1.307-0.145-1.307-0.145l0.194-0.968   c0,0,1.089,0.291,1.331,0.121c0.242-0.169,0.532-0.46,0.072-0.653c-0.46-0.193-1.21-0.509-1.21-1.282   c0-0.774,0.315-1.21,0.799-1.428C85.567,77.215,86.414,77.239,87.019,77.36L87.019,77.36z" fill="#FEFFFF"/><polygon fill="#FEFFFF" points="79.749,81.677 78.679,81.677 79.301,78 77.979,81.655 77.241,81.655 77.062,77.853 76.416,81.677    75.404,81.677 76.357,76.065 77.585,76.065 78.014,79.296 79.442,76.065 80.702,76.065 79.749,81.677  "/><path d="M87.974,81.755c-0.348,0-0.597-0.078-0.746-0.225c-0.15-0.157-0.224-0.394-0.224-0.697   c0-0.079,0.008-0.157,0.017-0.226c0.008-0.078,0.025-0.167,0.033-0.269l0.643-3.591h1.003l-0.146,0.701h0.937l-0.157,0.888h-0.937   l-0.257,1.531c-0.017,0.1-0.033,0.201-0.05,0.313c-0.016,0.102-0.025,0.204-0.025,0.27c0,0.157,0.025,0.259,0.091,0.315   c0.058,0.056,0.158,0.09,0.29,0.09c0.05,0,0.116-0.012,0.199-0.034c0.083-0.033,0.158-0.056,0.208-0.09h0.083l-0.158,0.9   c-0.116,0.045-0.232,0.067-0.356,0.089C88.298,81.744,88.149,81.755,87.974,81.755L87.974,81.755z" fill="#FEFFFF"/><path d="M95.172,78.631c-0.219-0.169-0.707-0.135-0.808,0.212l-0.481,2.834H92.88l0.721-4.228h1.002l-0.021,0.341   c0.191-0.191,0.403-0.353,0.94-0.337C95.557,77.455,95.198,78.082,95.172,78.631L95.172,78.631z" fill="#FEFFFF"/><path d="M97.067,81.79c-0.556,0-0.996-0.191-1.293-0.563c-0.307-0.37-0.457-0.91-0.457-1.608   c0-0.551,0.067-1.046,0.199-1.496c0.132-0.45,0.324-0.832,0.555-1.158c0.233-0.314,0.507-0.562,0.831-0.742   c0.313-0.181,0.654-0.27,1.01-0.27c0.281,0,0.548,0.045,0.797,0.124c0.12,0.041,0.352,0.151,0.352,0.151l-0.233,1.333   c-0.116-0.148-0.232-0.264-0.351-0.348c-0.174-0.112-0.382-0.181-0.614-0.181c-0.414,0-0.754,0.226-1.02,0.675   c-0.273,0.45-0.407,1.024-0.407,1.721c0,0.45,0.075,0.776,0.224,0.978c0.149,0.191,0.365,0.293,0.647,0.293   c0.256,0,0.496-0.069,0.721-0.202c0.106-0.07,0.209-0.143,0.311-0.227l-0.234,1.273c0,0-0.121,0.059-0.178,0.079   c-0.14,0.056-0.264,0.089-0.372,0.123C97.44,81.766,97.274,81.79,97.067,81.79L97.067,81.79z" fill="#FEFFFF"/><path d="M82.217,81.53c-0.041,0.034-0.083,0.056-0.116,0.079c-0.108,0.056-0.199,0.101-0.29,0.134   c-0.091,0.022-0.216,0.046-0.381,0.046c-0.257,0-0.473-0.102-0.63-0.293c-0.166-0.204-0.249-0.462-0.249-0.776   c0-0.337,0.058-0.619,0.174-0.854c0.116-0.226,0.289-0.418,0.522-0.552c0.215-0.134,0.473-0.224,0.763-0.281L82.217,79   c0.24-0.045,0.489-0.078,0.763-0.09c0-0.022,0-0.045,0.008-0.078c0.008-0.033,0.008-0.067,0.008-0.112   c0-0.18-0.058-0.304-0.183-0.383c-0.125-0.067-0.307-0.101-0.547-0.101h-0.05c-0.149,0.011-0.315,0.045-0.497,0.112   c-0.199,0.079-0.349,0.135-0.448,0.191h-0.091l0.149-1.001c0.116-0.045,0.298-0.09,0.539-0.135   c0.116-0.034,0.232-0.045,0.348-0.057c0.125-0.023,0.257-0.023,0.382-0.023c0.489,0,0.846,0.09,1.077,0.259   c0.232,0.169,0.34,0.439,0.34,0.81c0,0.045,0,0.112-0.008,0.192c-0.008,0.079-0.017,0.147-0.025,0.213l-0.488,2.879h-0.996   l0.075-0.45c-0.058,0.056-0.141,0.124-0.224,0.203C82.3,81.463,82.259,81.497,82.217,81.53L82.217,81.53z M82.217,79.777   c-0.108,0.023-0.199,0.056-0.274,0.09c-0.116,0.055-0.199,0.134-0.257,0.235c-0.066,0.102-0.091,0.236-0.091,0.405   c0,0.147,0.042,0.247,0.116,0.304c0.083,0.056,0.191,0.09,0.348,0.09c0.05,0,0.1-0.011,0.158-0.034   c0.05-0.01,0.1-0.033,0.158-0.056c0.108-0.067,0.215-0.147,0.315-0.236l0.149-0.9c-0.174,0.023-0.348,0.045-0.497,0.079   C82.3,79.754,82.259,79.765,82.217,79.777L82.217,79.777z" fill="#FEFFFF"/><path d="M90.888,78.179c-0.132,0.023-0.257,0.09-0.356,0.202c-0.141,0.158-0.249,0.361-0.323,0.631h0.679h0.672   c0-0.045,0.008-0.079,0.008-0.124c0-0.033,0.008-0.078,0.008-0.112c0-0.204-0.05-0.349-0.141-0.462   c-0.091-0.1-0.215-0.156-0.39-0.156C90.996,78.157,90.938,78.168,90.888,78.179L90.888,78.179z M90.888,80.834h0.15   c0.216,0,0.423-0.045,0.622-0.147c0.19-0.102,0.365-0.213,0.505-0.337h0.116l-0.19,1.09c-0.19,0.114-0.398,0.203-0.613,0.259   c-0.183,0.056-0.382,0.079-0.589,0.09h-0.091c-0.539,0-0.945-0.158-1.236-0.484c-0.29-0.315-0.431-0.754-0.431-1.315   c0-0.383,0.05-0.742,0.142-1.058c0.091-0.326,0.232-0.607,0.406-0.855c0.174-0.236,0.382-0.415,0.638-0.562   c0.183-0.09,0.374-0.157,0.572-0.192c0.091-0.01,0.182-0.01,0.274-0.01c0.465,0,0.813,0.123,1.053,0.381   c0.232,0.248,0.349,0.63,0.349,1.125c0,0.169-0.008,0.337-0.033,0.507c-0.025,0.156-0.058,0.326-0.1,0.483h-1.543h-0.779v0.045   V79.9c0,0.293,0.083,0.518,0.232,0.686C90.466,80.722,90.648,80.811,90.888,80.834L90.888,80.834z" fill="#FEFFFF"/><path d="M100.284,81.53c-0.041,0.034-0.083,0.056-0.124,0.079c-0.099,0.056-0.198,0.101-0.289,0.134   c-0.091,0.022-0.217,0.046-0.374,0.046c-0.266,0-0.473-0.102-0.638-0.293c-0.166-0.204-0.241-0.462-0.241-0.776   c0-0.337,0.058-0.619,0.175-0.854c0.115-0.226,0.289-0.418,0.514-0.552c0.215-0.134,0.472-0.224,0.77-0.281   c0.067-0.012,0.133-0.023,0.207-0.034c0.233-0.045,0.49-0.078,0.756-0.09c0.008-0.022,0.008-0.045,0.016-0.078   c0-0.033,0.009-0.067,0.009-0.112c0-0.18-0.065-0.304-0.184-0.383c-0.124-0.067-0.306-0.101-0.546-0.101h-0.051   c-0.157,0.011-0.322,0.045-0.496,0.112c-0.2,0.079-0.349,0.135-0.448,0.191h-0.091l0.141-1.001c0.116-0.045,0.297-0.09,0.547-0.135   c0.116-0.034,0.231-0.045,0.347-0.057c0.126-0.023,0.248-0.023,0.382-0.023c0.49,0,0.845,0.09,1.079,0.259   c0.223,0.169,0.339,0.439,0.339,0.81c0,0.045,0,0.112-0.008,0.192c-0.009,0.079-0.017,0.147-0.027,0.213l-0.488,2.879h-0.996   l0.077-0.45c-0.067,0.056-0.141,0.124-0.232,0.203L100.284,81.53L100.284,81.53z M100.284,79.777   c-0.107,0.023-0.198,0.056-0.281,0.09c-0.107,0.055-0.2,0.134-0.256,0.235c-0.06,0.102-0.093,0.236-0.093,0.405   c0,0.147,0.042,0.247,0.125,0.304c0.074,0.056,0.191,0.09,0.34,0.09c0.049,0,0.108-0.011,0.165-0.034   c0.051-0.01,0.101-0.033,0.149-0.056c0.116-0.067,0.215-0.147,0.316-0.236l0.157-0.9c-0.182,0.023-0.348,0.045-0.506,0.079   C100.359,79.754,100.318,79.765,100.284,79.777L100.284,79.777z" fill="#FEFFFF"/><path d="M104.516,78.631c-0.219-0.169-0.707-0.135-0.808,0.212l-0.481,2.834h-1.003l0.721-4.228h1.002l-0.021,0.341   c0.19-0.191,0.403-0.353,0.941-0.337C104.901,77.455,104.542,78.082,104.516,78.631L104.516,78.631z" fill="#FEFFFF"/><path clip-rule="evenodd" d="M106.486,78.348c-0.05,0.023-0.099,0.057-0.141,0.09   c-0.134,0.089-0.241,0.226-0.331,0.383c-0.075,0.156-0.141,0.337-0.182,0.573c-0.051,0.224-0.075,0.45-0.075,0.664   c0,0.259,0.05,0.438,0.132,0.55c0.093,0.124,0.224,0.181,0.399,0.181c0.067,0,0.134-0.012,0.199-0.045   c0.033-0.012,0.058-0.022,0.091-0.045c0.099-0.056,0.19-0.114,0.281-0.191l0.356-2.08c-0.058-0.034-0.124-0.069-0.215-0.091   c-0.084-0.033-0.158-0.044-0.225-0.044C106.668,78.292,106.577,78.314,106.486,78.348L106.486,78.348z M106.486,81.453   c-0.075,0.067-0.158,0.134-0.249,0.191c-0.082,0.045-0.165,0.089-0.239,0.112c-0.084,0.023-0.184,0.034-0.291,0.034   c-0.307,0-0.548-0.136-0.73-0.394c-0.174-0.269-0.265-0.652-0.265-1.136c0-0.405,0.041-0.788,0.141-1.136   c0.091-0.348,0.223-0.664,0.39-0.932c0.166-0.271,0.356-0.474,0.579-0.631c0.217-0.147,0.432-0.224,0.664-0.236h0.033   c0.173,0,0.324,0.023,0.448,0.067c0.124,0.045,0.258,0.124,0.389,0.225l0.223-1.474h1.003l-0.919,5.534h-1.003l0.074-0.439   C106.643,81.316,106.56,81.385,106.486,81.453L106.486,81.453z" fill="#FEFFFF" fill-rule="evenodd"/></g></svg>