<?xml version="1.0" ?><!DOCTYPE svg  PUBLIC '-//W3C//DTD SVG 1.1//EN'  'http://www.w3.org/Graphics/SVG/1.1/DTD/svg11.dtd'><svg enable-background="new 0 0 128 128" id="Слой_1" version="1.1" viewBox="0 0 128 128" xml:space="preserve" xmlns="http://www.w3.org/2000/svg" xmlns:xlink="http://www.w3.org/1999/xlink"><g><circle cx="64" cy="64" fill="#41B19C" r="62"/><path d="M25.516,99.847c-3.317,0-6.016-2.698-6.016-6.016V40.169c0-3.317,2.698-6.016,6.016-6.016   h82.969c3.317,0,6.016,2.698,6.016,6.016v53.662c0,3.317-2.698,6.016-6.016,6.016H25.516z" fill="#020507" opacity="0.1"/><path d="M22.516,96.847c-3.317,0-6.016-2.698-6.016-6.016V37.169c0-3.317,2.698-6.016,6.016-6.016h82.969   c3.317,0,6.016,2.698,6.016,6.016v53.662c0,3.317-2.698,6.016-6.016,6.016H22.516z" fill="#FEFFFF"/><rect fill="#42464A" height="43.815" width="3.516" x="29.898" y="35.653"/><polygon fill="#42464A" points="25.328,35.654 22.516,35.654 22.516,92.346 25.328,92.346 27.141,92.346 27.141,35.654  "/><rect fill="#42464A" height="43.815" width="1.406" x="36.875" y="35.653"/><path d="M41.5,79.469" fill="none" stroke="#42464A" stroke-miterlimit="10"/><path d="M44.312,79.469" fill="none" stroke="#42464A" stroke-miterlimit="10" stroke-width="2"/><rect fill="#42464A" height="43.815" width="4.219" x="42.719" y="35.653"/><rect fill="#42464A" height="43.815" width="2.109" x="50.695" y="35.653"/><path d="M53.453,79.469" fill="none" stroke="#42464A" stroke-miterlimit="10" stroke-width="3"/><rect fill="#42464A" height="56.693" width="3.219" x="55.859" y="35.654"/><rect fill="#42464A" height="43.815" width="4.219" x="62.594" y="35.653"/><rect fill="#42464A" height="43.815" width="3.406" x="70.625" y="35.653"/><rect fill="#42464A" height="43.815" width="1.812" x="76.656" y="35.653"/><rect fill="#42464A" height="43.815" width="4.922" x="80.523" y="35.653"/><path d="M85.094,79.469" fill="none" stroke="#42464A" stroke-miterlimit="10" stroke-width="2"/><path d="M87.203,79.469" fill="none" stroke="#42464A" stroke-miterlimit="10"/><path d="M90.016,79.469" fill="none" stroke="#42464A" stroke-miterlimit="10" stroke-width="2"/><rect fill="#42464A" height="43.815" width="3.516" x="88.961" y="35.653"/><rect fill="#42464A" height="56.693" width="2.109" x="96.695" y="35.654"/><path d="M105.484,35.654h-3.516v56.693h3.516c0.241,0,0.476-0.025,0.703-0.071V35.724   C105.96,35.678,105.725,35.654,105.484,35.654z" fill="#42464A"/><g><path d="M33.493,82.8c-0.236-0.35-0.53-0.619-0.882-0.809s-0.758-0.284-1.219-0.284s-0.865,0.095-1.213,0.284    c-0.348,0.19-0.639,0.459-0.873,0.809c-0.234,0.35-0.411,0.773-0.53,1.271c-0.119,0.499-0.179,1.058-0.179,1.679    c0,0.617,0.059,1.175,0.179,1.673c0.119,0.499,0.296,0.922,0.53,1.272s0.525,0.618,0.873,0.805    c0.347,0.187,0.752,0.282,1.213,0.282s0.867-0.094,1.219-0.282s0.645-0.456,0.882-0.805s0.414-0.773,0.534-1.272    c0.119-0.498,0.179-1.055,0.179-1.673c0-0.621-0.06-1.18-0.179-1.679C33.907,83.574,33.729,83.15,33.493,82.8z M32.942,87.165    c-0.088,0.393-0.207,0.715-0.357,0.967c-0.151,0.252-0.328,0.437-0.534,0.557c-0.205,0.119-0.425,0.179-0.659,0.179    c-0.231,0-0.447-0.06-0.65-0.179c-0.203-0.119-0.38-0.305-0.53-0.557c-0.151-0.252-0.27-0.574-0.358-0.967    s-0.132-0.864-0.132-1.415s0.044-1.024,0.132-1.421c0.088-0.397,0.207-0.722,0.358-0.976c0.15-0.254,0.327-0.44,0.53-0.56    c0.203-0.119,0.42-0.179,0.65-0.179c0.234,0,0.454,0.06,0.659,0.179c0.205,0.119,0.382,0.306,0.534,0.56    c0.15,0.254,0.269,0.579,0.357,0.976c0.088,0.396,0.132,0.87,0.132,1.421S33.03,86.773,32.942,87.165z" fill="#42464A"/><path d="M40.513,86.395c-0.1-0.168-0.22-0.324-0.36-0.469c-0.141-0.144-0.293-0.273-0.457-0.387    c0.137-0.102,0.263-0.216,0.378-0.343c0.115-0.127,0.215-0.262,0.299-0.404c0.084-0.143,0.149-0.292,0.196-0.448    c0.047-0.156,0.071-0.317,0.071-0.481c0-0.297-0.067-0.575-0.199-0.835c-0.133-0.26-0.314-0.486-0.542-0.68    c-0.228-0.193-0.497-0.346-0.805-0.459s-0.639-0.17-0.99-0.17c-0.347,0-0.674,0.057-0.978,0.17s-0.571,0.266-0.8,0.459    c-0.229,0.194-0.409,0.42-0.542,0.68c-0.133,0.26-0.199,0.538-0.199,0.835c0,0.336,0.084,0.648,0.255,0.935    c0.17,0.288,0.401,0.534,0.694,0.742c-0.164,0.109-0.315,0.236-0.454,0.381c-0.139,0.144-0.258,0.301-0.358,0.468    c-0.1,0.168-0.178,0.346-0.234,0.534c-0.057,0.187-0.085,0.379-0.085,0.574c0,0.332,0.07,0.643,0.211,0.935    s0.332,0.545,0.575,0.761c0.242,0.217,0.528,0.388,0.858,0.513c0.33,0.125,0.683,0.187,1.057,0.187    c0.379,0,0.734-0.062,1.066-0.187c0.332-0.125,0.621-0.296,0.867-0.513c0.246-0.216,0.44-0.47,0.583-0.761    s0.214-0.602,0.214-0.935c0-0.195-0.028-0.386-0.084-0.571C40.69,86.74,40.612,86.562,40.513,86.395z M36.827,83.389    c0.072-0.148,0.172-0.278,0.299-0.389s0.275-0.199,0.442-0.264c0.168-0.065,0.346-0.097,0.534-0.097    c0.192,0,0.373,0.032,0.545,0.097c0.172,0.065,0.322,0.152,0.451,0.264c0.128,0.111,0.23,0.241,0.304,0.389    s0.111,0.307,0.111,0.474c0,0.168-0.037,0.325-0.111,0.472c-0.074,0.147-0.176,0.275-0.304,0.384    c-0.129,0.11-0.279,0.196-0.451,0.261c-0.172,0.065-0.354,0.097-0.545,0.097c-0.187,0-0.365-0.032-0.534-0.097    c-0.168-0.065-0.315-0.151-0.442-0.261c-0.127-0.109-0.227-0.237-0.299-0.384c-0.072-0.146-0.108-0.303-0.108-0.472    C36.719,83.696,36.755,83.537,36.827,83.389z M39.57,88.074c-0.084,0.177-0.198,0.334-0.34,0.468    c-0.143,0.135-0.311,0.24-0.504,0.317c-0.194,0.076-0.402,0.114-0.624,0.114c-0.219,0-0.424-0.038-0.615-0.114    s-0.36-0.182-0.504-0.317s-0.257-0.291-0.34-0.468c-0.082-0.178-0.123-0.37-0.123-0.577c0-0.207,0.041-0.402,0.123-0.583    c0.082-0.182,0.196-0.34,0.34-0.474c0.144-0.135,0.312-0.24,0.504-0.317s0.396-0.114,0.615-0.114c0.222,0,0.431,0.038,0.624,0.114    c0.193,0.076,0.361,0.181,0.504,0.317c0.142,0.135,0.255,0.293,0.34,0.474c0.084,0.181,0.126,0.376,0.126,0.583    C39.695,87.704,39.654,87.896,39.57,88.074z" fill="#42464A"/><path d="M46.873,85.241c-0.238-0.247-0.522-0.441-0.85-0.583c-0.328-0.143-0.685-0.214-1.072-0.214    c-0.067,0-0.154,0.004-0.264,0.012c-0.11,0.008-0.233,0.025-0.369,0.05s-0.28,0.061-0.431,0.108    c-0.15,0.047-0.298,0.109-0.442,0.187c0.05-0.387,0.093-0.71,0.126-0.97c0.033-0.26,0.06-0.472,0.079-0.635    c0.023-0.188,0.041-0.338,0.053-0.452h3.498v-0.931h-4.406l-0.545,4.289h1.043c0.09-0.109,0.193-0.208,0.31-0.296    s0.24-0.163,0.369-0.225c0.128-0.062,0.26-0.11,0.396-0.141c0.135-0.032,0.264-0.047,0.389-0.047c0.219,0,0.433,0.043,0.641,0.128    c0.209,0.086,0.396,0.207,0.56,0.363c0.164,0.157,0.296,0.344,0.396,0.563c0.1,0.218,0.15,0.459,0.15,0.72    c0,0.254-0.047,0.492-0.141,0.712c-0.093,0.22-0.22,0.412-0.378,0.574c-0.159,0.162-0.343,0.289-0.554,0.381    c-0.211,0.092-0.435,0.137-0.674,0.137c-0.168,0-0.333-0.03-0.495-0.091s-0.314-0.148-0.454-0.264    c-0.141-0.115-0.266-0.257-0.375-0.428c-0.11-0.17-0.198-0.364-0.264-0.583h-1.167c0.09,0.383,0.222,0.717,0.396,1.002    c0.174,0.286,0.38,0.524,0.619,0.715c0.238,0.192,0.504,0.334,0.797,0.428c0.293,0.094,0.604,0.141,0.932,0.141    c0.492,0,0.92-0.077,1.283-0.231s0.663-0.358,0.9-0.612c0.236-0.253,0.413-0.544,0.53-0.87s0.176-0.663,0.176-1.011    c0-0.375-0.067-0.729-0.202-1.06C47.297,85.776,47.111,85.487,46.873,85.241z" fill="#42464A"/><path d="M53.312,81.813h-1.09l-3.568,4.916v1.119h3.562v1.934h1.096v-1.934h1.136v-0.914h-1.136V81.813z     M52.216,86.934h-2.461l2.461-3.469V86.934z" fill="#42464A"/><path d="M67.185,85.199c-0.225-0.247-0.497-0.439-0.818-0.577c-0.32-0.139-0.681-0.208-1.084-0.208    c-0.125,0-0.265,0.013-0.419,0.038c-0.154,0.025-0.313,0.07-0.475,0.135s-0.322,0.151-0.48,0.261    c-0.159,0.109-0.304,0.246-0.437,0.41c0.027-0.317,0.079-0.637,0.155-0.961c0.076-0.324,0.189-0.618,0.337-0.882    s0.336-0.479,0.562-0.645c0.227-0.165,0.502-0.249,0.826-0.249c0.187,0,0.36,0.035,0.518,0.105    c0.159,0.071,0.297,0.161,0.416,0.273c0.119,0.111,0.218,0.238,0.296,0.378c0.078,0.14,0.131,0.283,0.159,0.428h1.078    c-0.047-0.27-0.135-0.531-0.264-0.786c-0.129-0.254-0.297-0.479-0.504-0.674c-0.207-0.196-0.455-0.352-0.744-0.469    s-0.615-0.176-0.978-0.176c-0.445,0-0.847,0.089-1.207,0.266c-0.359,0.178-0.667,0.45-0.923,0.814    c-0.255,0.365-0.453,0.829-0.592,1.392s-0.208,1.23-0.208,2.004c0,0.609,0.069,1.145,0.205,1.608s0.331,0.849,0.583,1.16    c0.252,0.31,0.557,0.545,0.914,0.703c0.358,0.158,0.755,0.237,1.193,0.237c0.402,0,0.764-0.07,1.084-0.211    c0.32-0.141,0.591-0.331,0.814-0.571c0.222-0.24,0.393-0.52,0.512-0.841c0.119-0.32,0.179-0.658,0.179-1.013    c0-0.387-0.061-0.747-0.182-1.081C67.582,85.735,67.409,85.445,67.185,85.199z M66.643,87.821    c-0.075,0.209-0.177,0.391-0.308,0.545c-0.131,0.154-0.286,0.276-0.463,0.366s-0.37,0.135-0.577,0.135    c-0.203,0-0.398-0.044-0.583-0.132s-0.35-0.209-0.492-0.363c-0.143-0.154-0.257-0.338-0.343-0.551s-0.129-0.444-0.129-0.694    c0-0.195,0.032-0.395,0.094-0.597c0.062-0.203,0.157-0.388,0.284-0.554c0.127-0.166,0.286-0.301,0.478-0.407    c0.192-0.105,0.418-0.158,0.68-0.158c0.218,0,0.419,0.047,0.6,0.141c0.182,0.093,0.337,0.22,0.466,0.38    c0.129,0.161,0.229,0.346,0.299,0.557s0.106,0.432,0.106,0.662C66.754,87.389,66.717,87.612,66.643,87.821z" fill="#42464A"/><path d="M74.263,86.289c-0.1-0.168-0.22-0.324-0.36-0.469c-0.141-0.144-0.293-0.273-0.457-0.387    c0.137-0.102,0.263-0.216,0.378-0.343c0.115-0.127,0.215-0.262,0.299-0.404c0.084-0.143,0.149-0.292,0.196-0.448    c0.047-0.156,0.071-0.317,0.071-0.481c0-0.297-0.067-0.575-0.199-0.835c-0.133-0.26-0.314-0.486-0.542-0.68    c-0.228-0.193-0.497-0.346-0.805-0.459s-0.639-0.17-0.99-0.17c-0.347,0-0.674,0.057-0.978,0.17s-0.571,0.266-0.8,0.459    c-0.229,0.194-0.409,0.42-0.542,0.68c-0.133,0.26-0.199,0.538-0.199,0.835c0,0.336,0.084,0.648,0.255,0.935    c0.17,0.288,0.401,0.534,0.694,0.742c-0.164,0.109-0.315,0.236-0.454,0.381c-0.139,0.144-0.258,0.301-0.358,0.468    c-0.1,0.168-0.178,0.346-0.234,0.534c-0.057,0.187-0.085,0.379-0.085,0.574c0,0.332,0.07,0.643,0.211,0.935    s0.332,0.545,0.575,0.761c0.242,0.217,0.528,0.388,0.858,0.513c0.33,0.125,0.683,0.187,1.057,0.187    c0.379,0,0.734-0.062,1.066-0.187c0.332-0.125,0.621-0.296,0.867-0.513c0.246-0.216,0.44-0.47,0.583-0.761    s0.214-0.602,0.214-0.935c0-0.195-0.028-0.386-0.084-0.571C74.44,86.634,74.362,86.457,74.263,86.289z M70.577,83.283    c0.072-0.148,0.172-0.278,0.299-0.389s0.275-0.199,0.442-0.264c0.168-0.065,0.346-0.097,0.534-0.097    c0.192,0,0.373,0.032,0.545,0.097c0.172,0.065,0.322,0.152,0.451,0.264c0.128,0.111,0.23,0.241,0.304,0.389    s0.111,0.307,0.111,0.474c0,0.168-0.037,0.325-0.111,0.472c-0.074,0.147-0.176,0.275-0.304,0.384    c-0.129,0.11-0.279,0.196-0.451,0.261c-0.172,0.065-0.354,0.097-0.545,0.097c-0.187,0-0.365-0.032-0.534-0.097    c-0.168-0.065-0.315-0.151-0.442-0.261c-0.127-0.109-0.227-0.237-0.299-0.384c-0.072-0.146-0.108-0.303-0.108-0.472    C70.469,83.59,70.505,83.431,70.577,83.283z M73.32,87.968c-0.084,0.177-0.198,0.334-0.34,0.468    c-0.143,0.135-0.311,0.24-0.504,0.317c-0.194,0.076-0.402,0.114-0.624,0.114c-0.219,0-0.424-0.038-0.615-0.114    s-0.36-0.182-0.504-0.317s-0.257-0.291-0.34-0.468c-0.082-0.178-0.123-0.37-0.123-0.577c0-0.207,0.041-0.402,0.123-0.583    c0.082-0.182,0.196-0.34,0.34-0.474c0.144-0.135,0.312-0.24,0.504-0.317s0.396-0.114,0.615-0.114c0.222,0,0.431,0.038,0.624,0.114    c0.193,0.076,0.361,0.181,0.504,0.317c0.142,0.135,0.255,0.293,0.34,0.474c0.084,0.181,0.126,0.376,0.126,0.583    C73.445,87.598,73.404,87.79,73.32,87.968z" fill="#42464A"/><path d="M80.541,82.542c-0.25-0.311-0.553-0.545-0.911-0.703c-0.357-0.159-0.755-0.238-1.192-0.238    c-0.406,0-0.77,0.071-1.093,0.214c-0.322,0.142-0.595,0.334-0.817,0.577s-0.393,0.523-0.51,0.841    c-0.117,0.318-0.176,0.655-0.176,1.011c0,0.391,0.06,0.753,0.179,1.087c0.119,0.334,0.29,0.623,0.516,0.87    c0.225,0.246,0.496,0.438,0.817,0.577c0.32,0.139,0.682,0.208,1.084,0.208c0.125,0,0.264-0.015,0.416-0.047    c0.152-0.032,0.309-0.08,0.471-0.146c0.162-0.067,0.321-0.154,0.478-0.264c0.156-0.11,0.303-0.242,0.439-0.399    c-0.016,0.211-0.043,0.425-0.082,0.642c-0.038,0.216-0.091,0.426-0.158,0.63s-0.148,0.393-0.243,0.571    c-0.096,0.178-0.21,0.333-0.343,0.466c-0.133,0.133-0.286,0.238-0.457,0.314s-0.365,0.114-0.58,0.114    c-0.187,0-0.361-0.035-0.521-0.105c-0.16-0.071-0.3-0.162-0.419-0.275c-0.119-0.113-0.219-0.24-0.299-0.381    c-0.08-0.141-0.134-0.283-0.161-0.428h-1.061c0.039,0.273,0.122,0.537,0.249,0.791s0.295,0.479,0.504,0.674    c0.209,0.196,0.458,0.352,0.747,0.469s0.617,0.176,0.984,0.176c0.446,0,0.848-0.089,1.207-0.266    c0.36-0.178,0.667-0.449,0.923-0.814c0.256-0.365,0.452-0.83,0.589-1.395s0.205-1.233,0.205-2.007    c0-0.609-0.069-1.145-0.205-1.605S80.791,82.853,80.541,82.542z M79.89,84.86c-0.062,0.203-0.157,0.387-0.284,0.553    s-0.288,0.301-0.483,0.407s-0.424,0.158-0.685,0.158c-0.219,0-0.418-0.047-0.598-0.14c-0.179-0.094-0.334-0.22-0.463-0.378    c-0.129-0.158-0.229-0.343-0.299-0.553s-0.106-0.432-0.106-0.662c0-0.238,0.037-0.463,0.111-0.674s0.176-0.393,0.305-0.548    c0.129-0.154,0.284-0.276,0.463-0.366c0.18-0.09,0.375-0.135,0.586-0.135c0.199,0,0.392,0.044,0.58,0.132    c0.188,0.088,0.353,0.209,0.496,0.363c0.142,0.154,0.257,0.338,0.343,0.551s0.128,0.444,0.128,0.694    C79.984,84.457,79.953,84.656,79.89,84.86z" fill="#42464A"/><path d="M87.062,81.707h-1.09l-3.568,4.916v1.119h3.562v1.934h1.096v-1.934h1.136v-0.914h-1.136V81.707z     M85.966,86.828h-2.461l2.461-3.469V86.828z" fill="#42464A"/><path d="M94.064,85.135c-0.238-0.247-0.522-0.441-0.85-0.583c-0.328-0.143-0.685-0.214-1.072-0.214    c-0.067,0-0.154,0.004-0.264,0.012c-0.11,0.008-0.233,0.025-0.369,0.05s-0.28,0.061-0.431,0.108    c-0.15,0.047-0.298,0.109-0.442,0.187c0.05-0.387,0.093-0.71,0.126-0.97c0.033-0.26,0.06-0.472,0.079-0.635    c0.023-0.188,0.041-0.338,0.053-0.452h3.498v-0.931h-4.406l-0.545,4.289h1.043c0.09-0.109,0.193-0.208,0.31-0.296    s0.24-0.163,0.369-0.225c0.128-0.062,0.26-0.11,0.396-0.141c0.135-0.032,0.264-0.047,0.389-0.047c0.219,0,0.433,0.043,0.641,0.128    c0.209,0.086,0.396,0.207,0.56,0.363c0.164,0.157,0.296,0.344,0.396,0.563c0.1,0.218,0.15,0.459,0.15,0.72    c0,0.254-0.047,0.492-0.141,0.712c-0.093,0.22-0.22,0.412-0.378,0.574c-0.159,0.162-0.343,0.289-0.554,0.381    c-0.211,0.092-0.435,0.137-0.674,0.137c-0.168,0-0.333-0.03-0.495-0.091S91.14,88.628,91,88.513    c-0.141-0.115-0.266-0.257-0.375-0.428c-0.11-0.17-0.198-0.364-0.264-0.583h-1.167c0.09,0.383,0.222,0.717,0.396,1.002    c0.174,0.286,0.38,0.524,0.619,0.715c0.238,0.192,0.504,0.334,0.797,0.428c0.293,0.094,0.604,0.141,0.932,0.141    c0.492,0,0.92-0.077,1.283-0.231s0.663-0.358,0.9-0.612c0.236-0.253,0.413-0.544,0.53-0.87s0.176-0.663,0.176-1.011    c0-0.375-0.067-0.729-0.202-1.06C94.488,85.67,94.302,85.381,94.064,85.135z" fill="#42464A"/></g></g></svg>