<?xml version="1.0" ?><!DOCTYPE svg  PUBLIC '-//W3C//DTD SVG 1.1//EN'  'http://www.w3.org/Graphics/SVG/1.1/DTD/svg11.dtd'><svg enable-background="new 0 0 128 128" id="Слой_1" version="1.1" viewBox="0 0 128 128" xml:space="preserve" xmlns="http://www.w3.org/2000/svg" xmlns:xlink="http://www.w3.org/1999/xlink"><g><circle cx="64" cy="64" fill="#46B19B" r="62"/><path d="M101.053,36.679l-23.849-6.438c-1.283-0.346-2.652-0.168-3.803,0.497L21,60.991   c-2.391,1.381-3.211,4.439-1.83,6.83l17.5,30.311c1.381,2.392,4.439,3.211,6.83,1.83l52.401-30.254   c1.151-0.665,1.99-1.76,2.332-3.045l6.349-23.873C105.29,40.13,103.712,37.397,101.053,36.679z M94.31,48.647c-2.209,0-4-1.791-4-4   c0-2.209,1.791-4,4-4c2.209,0,4,1.791,4,4C98.31,46.856,96.519,48.647,94.31,48.647z" fill="#F6CA41"/><path d="M96.209,40.66c-0.166-0.595-0.298-1.203-0.424-1.814c-0.182-0.884-0.336-1.779-0.438-2.689   c-0.039-0.345-0.072-0.691-0.102-1.038l-1.828-0.494c0.175,1.375,0.426,2.727,0.791,4.034c0.194,0.694,0.407,1.379,0.651,2.051   c0.559,0.078,1.079,0.264,1.539,0.548C96.339,41.058,96.266,40.863,96.209,40.66z" fill="#000504" opacity="0.1"/><path d="M94.31,48.647c-0.586,0-1.139-0.133-1.64-0.36c0.627,1.389,2.017,2.36,3.64,2.36c2.209,0,4-1.791,4-4   c0-1.623-0.971-3.013-2.36-3.64c0.227,0.502,0.36,1.054,0.36,1.64C98.31,46.856,96.519,48.647,94.31,48.647z" fill="#F6CA41"/><path d="M94.31,38.647c-3.309,0-6,2.691-6,6s2.691,6,6,6s6-2.691,6-6S97.618,38.647,94.31,38.647z M94.31,48.647   c-2.209,0-4-1.791-4-4c0-2.209,1.791-4,4-4c2.209,0,4,1.791,4,4C98.31,46.856,96.519,48.647,94.31,48.647z" fill="#4A4946"/><path d="M94.31,40.647c-0.893,0-1.709,0.303-2.375,0.797c0.88,2.498,2.062,4.853,3.51,7.019   c1.012-0.301,1.848-0.984,2.35-1.89c-1.195-1.825-2.189-3.791-2.945-5.873C94.671,40.677,94.495,40.647,94.31,40.647z" fill="#E7E4DC"/><path d="M91.935,41.444c0.88,2.498,2.062,4.853,3.51,7.019c1.012-0.301,1.848-0.984,2.35-1.89   c-1.195-1.825-2.189-3.791-2.945-5.873c-0.704-1.941-1.197-3.982-1.464-6.093c-0.149-1.18-0.235-2.38-0.235-3.6   c0-6.755,2.367-12.965,6.309-17.855c-0.821-0.574-1.657-1.128-2.506-1.662c-4.254,5.371-6.803,12.15-6.803,19.517   c0,0.931,0.049,1.851,0.128,2.761C90.511,36.437,91.077,39.008,91.935,41.444z" fill="#FFFFFF"/><path d="M96.982,45.237c-0.421,0.975-1.219,1.743-2.21,2.133c0.225,0.368,0.446,0.739,0.686,1.098   c1.011-0.305,1.845-0.99,2.344-1.899C97.516,46.134,97.244,45.689,96.982,45.237z" fill="#000504" opacity="0.1"/><path d="M125.955,62.207c-0.029-1.008-0.081-2.008-0.157-3.003c-1.354,0.198-2.738,0.305-4.147,0.305   c-7.521,0-14.366-2.933-19.464-7.71l-0.863,3.246c5.491,4.651,12.585,7.464,20.327,7.464   C123.111,62.509,124.546,62.401,125.955,62.207z" fill="#FFFFFF"/><path d="M97.901,71.709c1.151-0.665,1.99-1.76,2.332-3.045l6.349-23.873   c0.605-2.274-0.467-4.589-2.448-5.666c0.589,1.083,0.789,2.381,0.448,3.666l-6.349,23.873c-0.342,1.285-1.181,2.38-2.332,3.045   L43.5,99.963c-1.574,0.908-3.427,0.848-4.911,0.03l0.08,0.14c1.381,2.391,4.439,3.211,6.83,1.83" fill="#000504" opacity="0.1"/><line fill="#FDFDFD" x1="38.003" x2="77.608" y1="67.666" y2="63.397"/><path d="M38.001,69.166c-0.756,0-1.406-0.57-1.489-1.339c-0.089-0.824,0.507-1.563,1.33-1.652l39.604-4.269   c0.816-0.088,1.563,0.507,1.652,1.33c0.089,0.824-0.507,1.563-1.33,1.652l-39.604,4.269C38.109,69.163,38.055,69.166,38.001,69.166   z" fill="#FAF9F9"/><path d="M53.201,85.478c-3.836,0-7.038-2.879-7.449-6.697c-0.215-1.991,0.358-3.947,1.615-5.508   s3.046-2.538,5.038-2.752c4.159-0.445,7.818,2.568,8.26,6.652c0.442,4.111-2.542,7.817-6.652,8.261   C53.74,85.463,53.469,85.478,53.201,85.478z M53.216,73.477c-0.161,0-0.325,0.009-0.489,0.026   c-1.195,0.129-2.269,0.715-3.022,1.651c-0.754,0.936-1.099,2.109-0.97,3.305c0.265,2.451,2.448,4.256,4.956,3.992   c2.467-0.267,4.258-2.49,3.992-4.957C57.436,75.204,55.516,73.477,53.216,73.477z" fill="#FAF9F9"/><path d="M62.645,60.896c-3.835,0-7.038-2.879-7.45-6.696c-0.442-4.113,2.542-7.818,6.653-8.261   c4.148-0.451,7.819,2.567,8.261,6.652c0.442,4.111-2.542,7.817-6.653,8.261C63.183,60.881,62.912,60.896,62.645,60.896z    M62.659,48.895c-0.162,0-0.326,0.009-0.49,0.026c-2.467,0.266-4.258,2.489-3.992,4.957c0.265,2.45,2.447,4.257,4.957,3.991   c2.467-0.267,4.258-2.49,3.992-4.957C66.879,50.622,64.958,48.895,62.659,48.895z" fill="#FAF9F9"/></g></svg>