<?xml version="1.0" ?><!DOCTYPE svg  PUBLIC '-//W3C//DTD SVG 1.1//EN'  'http://www.w3.org/Graphics/SVG/1.1/DTD/svg11.dtd'><svg enable-background="new 0 0 128 128" id="Слой_1" version="1.1" viewBox="0 0 128 128" xml:space="preserve" xmlns="http://www.w3.org/2000/svg" xmlns:xlink="http://www.w3.org/1999/xlink"><g><circle cx="64" cy="64" fill="#E7E4DC" r="62"/><path d="M89.796,108.609H38.204c-2.322,0-4.204-1.882-4.204-4.204v-80.81c0-2.322,1.882-4.204,4.204-4.204h51.592   c2.322,0,4.204,1.882,4.204,4.204v80.809C94.001,106.727,92.118,108.609,89.796,108.609z" fill="#333638"/><rect fill="#7C4D4C" height="72.001" width="53.218" x="37.391" y="27.999"/><path d="M51.47,78.009h-8c-0.552,0-1-0.448-1-1v-8.01c0-0.552,0.448-1,1-1h8c0.552,0,1,0.448,1,1v8.01   C52.47,77.561,52.022,78.009,51.47,78.009z" fill="#FFFFFF"/><g><path d="M47.828,77.067c-0.38,0-0.739-0.173-0.977-0.47l-3.643-4.559l1.953-1.561l2.663,3.332l4.561-5.749    l1.959,1.554l-5.537,6.979c-0.237,0.298-0.597,0.472-0.977,0.473C47.83,77.067,47.829,77.067,47.828,77.067z" fill="#47AB98"/></g><rect fill="#FFFFFF" height="2.5" width="28" x="57.53" y="68.749"/><rect fill="#FFFFFF" height="2.5" width="14" x="57.53" y="73.749"/><rect fill="#FFFFFF" height="2.5" width="29" x="42.5" y="83.009"/><rect fill="#FFFFFF" height="2.5" width="15" x="42.5" y="88.009"/><rect fill="#FFFFFF" height="2.5" width="23" x="42.5" y="93.009"/><path d="M64,33.545l-12.806,6.941v15.337L64,63.545l12.806-7.722V40.486L64,33.545z M75.768,40.753l-3.809,2.033   l-11.583-6.447L64,34.374L75.768,40.753z M57.385,37.959l2.232-1.21l11.895,6.621v2.377l-2.381,1.302v-2.552L57.385,37.959z    M64.001,47.032L52.347,40.69l4.279-2.319l11.554,6.431L64.001,47.032z M51.923,41.289l11.712,6.373v14.811l-11.712-7.062V41.289z    M64.364,62.473V47.665l4.038-2.155v2.77l3.839-2.1v-2.719l3.835-2.047v13.998L64.364,62.473z" fill="#F6CA41"/><circle cx="64" cy="104.175" fill="#4B4F51" r="2.609"/><circle cx="64" cy="23.304" fill="#4B4F51" r="1.043"/></g></svg>