<?xml version="1.0" ?><!DOCTYPE svg  PUBLIC '-//W3C//DTD SVG 1.1//EN'  'http://www.w3.org/Graphics/SVG/1.1/DTD/svg11.dtd'><svg enable-background="new 0 0 128 128" id="Слой_1" version="1.1" viewBox="0 0 128 128" xml:space="preserve" xmlns="http://www.w3.org/2000/svg" xmlns:xlink="http://www.w3.org/1999/xlink"><g><path d="M64,2C29.758,2,2,29.758,2,64c0,17.121,6.94,32.621,18.159,43.841s76.41,11.243,87.625,0.056   C119.037,96.673,126,81.149,126,64C126,29.758,98.242,2,64,2z" fill="#46B19B"/><path d="M62.579,124.984c17.556,0.403,14.653-31.027,14.653-31.027c-0.773-0.324-1.263-1.096-1.225-1.933   l0.432-9.769l-0.178-2.401h-24.54l-0.178,2.401l0.432,9.769c0.037,0.838-0.452,1.609-1.225,1.933   C50.749,93.957,46.052,124.606,62.579,124.984z" fill="#E6B78D"/><path d="M63.867,108.297c0,0-0.265-3.338-0.651-6.474c-0.858,3.534-1.216,7.482-1.216,7.482   C61.91,109.303,63.958,108.299,63.867,108.297z" fill="#7C4D4C"/><path d="M64.371,103.139c0.002-1.094-0.245-2.277-0.582-3.343c-0.329,0.991-0.609,2.104-0.841,3.212L64.371,103.139   z" fill="#7C4D4C"/><path d="M107.794,107.869c-2.7-3.071-6.339-3.938-7.101-4.091c-0.074-0.011-0.134-0.02-0.164-0.025   c-0.006-0.001-0.02-0.004-0.02-0.004l-0.001,0c-0.02-0.004-0.038-0.007-0.038-0.007l-0.138-0.065L85.068,97.27l-7.816-3.273   l-0.001-0.004l-0.006,0.001l-0.003-0.001c-0.001,0.001-0.002,0.002-0.003,0.003L66,96.424c-0.907,0.286-1.636,1.642-2.211,3.372   c0.337,1.065,0.583,2.248,0.582,3.343l-1.423-0.131c0.232-1.108,0.511-2.221,0.841-3.212c-0.591-1.869-1.463-3.372-1.78-3.372   l-11.251-2.432l-4.467,1.871l-18.834,7.887c0,0-0.047,0.008-0.114,0.021c-0.07,0.013-0.163,0.032-0.296,0.063   c-0.028,0.007-0.065,0.016-0.096,0.024c-0.065,0.016-0.128,0.031-0.203,0.051c-0.034,0.009-0.076,0.021-0.113,0.031   c-0.081,0.022-0.161,0.044-0.251,0.071c-0.056,0.017-0.122,0.039-0.182,0.057c-0.081,0.025-0.158,0.048-0.244,0.077   c-0.061,0.02-0.129,0.046-0.193,0.068c-0.093,0.032-0.184,0.063-0.283,0.1c-0.083,0.031-0.173,0.068-0.26,0.103   c-0.087,0.034-0.17,0.065-0.26,0.103c-0.093,0.039-0.191,0.084-0.287,0.127c-0.089,0.04-0.176,0.076-0.268,0.119   c-0.094,0.044-0.192,0.095-0.288,0.143c-0.098,0.049-0.195,0.094-0.295,0.147c-0.09,0.047-0.183,0.102-0.275,0.153   c-0.109,0.061-0.217,0.118-0.328,0.183c-0.092,0.054-0.185,0.116-0.277,0.174c-0.112,0.07-0.224,0.137-0.336,0.212   c-0.093,0.062-0.187,0.133-0.28,0.199c-0.112,0.079-0.225,0.155-0.337,0.24c-0.094,0.071-0.187,0.151-0.281,0.226   c-0.111,0.089-0.222,0.174-0.332,0.269c-0.093,0.08-0.183,0.169-0.275,0.252c-0.109,0.1-0.219,0.196-0.327,0.302   c-0.089,0.088-0.175,0.186-0.263,0.278c-0.103,0.108-0.207,0.213-0.308,0.327l0,0l0,0c0.005,0.005,0.01,0.015,0.015,0.021   c0.008,0.009,0.016,0.022,0.023,0.032c2.717,2.707,5.684,5.163,8.862,7.332c9.94,6.781,59.936,6.752,69.897-0.075   c3.148-2.157,6.086-4.597,8.779-7.283c-0.002-0.002-0.003-0.003-0.005-0.005C107.784,107.884,107.789,107.874,107.794,107.869z" fill="#7C4D4C"/><path d="M66.29,106.859c0.49-3.55,1.637-9.78,3.71-10.435h-4c-2.073,0.655-3.22,6.885-3.71,10.435   c-0.199,1.442-0.29,2.895-0.29,4.35v14.74c0.666,0.021,1.329,0.051,2,0.051c0.671,0,1.334-0.029,2-0.051v-14.74   C66,109.754,66.091,108.301,66.29,106.859z" fill="#7C4D4C"/><path d="M66.29,106.859c0.49-3.55,1.637-9.78,3.71-10.435h-4c-2.073,0.655-3.22,6.885-3.71,10.435   c-0.199,1.442-0.29,2.895-0.29,4.35v14.74c0.666,0.021,1.329,0.051,2,0.051c0.671,0,1.334-0.029,2-0.051v-14.74   C66,109.754,66.091,108.301,66.29,106.859z" fill="#010203" opacity="0.1"/><path d="M65.991,96.424H70" fill="#7C4D4C"/><path d="M65.991,96.424H70" fill="#7C4D4C"/><path d="M51.826,87.473c-0.347,0-0.44,0.28-0.504,0.516l-2.081,6.639   c1.842,5.624,6.845,10.878,8.355,12.498c0.156,0.167,0.436,0.098,0.507-0.119c2.336-7.173,2.287-9.721,3.907-10.582   C62.009,96.424,51.947,90.441,51.826,87.473z" fill="#010303" opacity="0.1"/><path d="M51.826,87.473c-0.347,0-0.44,0.28-0.504,0.516l-2.081,6.639c2.811,6.158,6.83,9.61,8.179,10.853   c0.16,0.147,0.421,0.07,0.489-0.137c2.356-7.137,2.479-8.056,4.101-8.919C62.009,96.424,51.947,90.441,51.826,87.473z" fill="#7C4D4C"/><path d="M76.174,87.473c-0.121,2.969-10.184,8.952-10.184,8.952c1.62,0.861,1.589,3.409,3.926,10.581   c0.071,0.218,0.351,0.287,0.507,0.119c1.507-1.621,6.495-6.874,8.336-12.497l-2.081-6.64   C76.615,87.752,76.522,87.473,76.174,87.473z" fill="#010303" opacity="0.1"/><path d="M76.174,87.473c-0.121,2.969-10.184,8.952-10.184,8.952c1.623,0.863,1.746,1.782,4.101,8.919   c0.068,0.207,0.329,0.285,0.489,0.137c1.349-1.242,5.367-4.694,8.179-10.852l-2.081-6.64   C76.615,87.752,76.522,87.473,76.174,87.473z" fill="#7C4D4C"/><path d="M81.509,95.779l-2.75-1.152l-2.081-6.64c-0.061-0.227-0.155-0.488-0.471-0.508l0.231-5.225   l-0.178-2.401h-24.54l-0.178,2.401l0.182,4.114c0.84,2.054,2.003,3.969,3.461,5.656c8.82,10.203,10.707,11.28,13.462,11.392   L70,103.417l1.352,0.001C73.721,103.322,75.461,102.495,81.509,95.779z" fill="#010203" opacity="0.15"/><circle cx="64" cy="110" fill="#010303" opacity="0.1" r="1"/><circle cx="64" cy="121" fill="#010303" opacity="0.1" r="1"/><circle cx="61.166" cy="100.344" fill="#010303" opacity="0.1" r="1"/><path d="M43.052,66.666c0.01-0.003,0.019-0.009,0.028-0.012l0.003,0.012l1.709,6.884   c0.777,3.129,2.284,6.038,4.392,8.477c8.82,10.203,10.707,11.28,13.462,11.392L64,93.417l1.352,0.001   c2.755-0.112,4.643-1.189,13.462-11.392c2.108-2.439,3.615-5.348,4.392-8.477l1.709-6.884l0.003-0.012   c0.01,0.003,0.019,0.009,0.028,0.012c2.651,0.815,5.919-1.799,7.368-6.512c1.449-4.713,0.53-9.741-2.121-10.555   c-0.2-0.061-0.405-0.093-0.612-0.11l0.269-2.57c0-24.78-21.324-26.626-22.353-26.626h-2.022H64h-1.476h-2.022   c-1.029,0-22.353,1.846-22.353,26.626l0.269,2.57c-0.207,0.017-0.412,0.049-0.612,0.11c-2.651,0.815-3.57,5.842-2.121,10.555   C37.134,64.867,40.401,67.48,43.052,66.666z" fill="#E6B78D"/><path d="M70.997,16.409c-5.327-1.922-11.152-2.446-16.602-0.905C29.667,22.5,38.456,49.38,38.456,49.38l0.274,0.012   l2.079,8.791h1.873c-0.618-5.949-0.901-13.754-0.901-13.754l4.255-5.507c9.021-11.024,36.624,4.892,40.197,0.955l-0.751,18.307   h1.906l1.957-8.7l0.238,0.004c1.492-13.446,0.835-15.322,0.001-18.655C87.824,23.805,77.313,18.688,70.997,16.409z" fill="#403C35"/><path d="M70.997,16.409c-3.508-1.266-7.222-1.872-10.912-1.734c3.025,0.109,6.038,0.697,8.912,1.734   c6.317,2.279,16.309,6.856,18.808,13.656c1.753,4.769,0.759,5.183,0.107,19.508l-0.523,8.612l1.957-8.7l0.238,0.004   c1.533-13.076,0.599-15.072,0.001-18.655C88.39,23.687,77.313,18.688,70.997,16.409z" fill="#030405" opacity="0.2"/><path d="M54.395,15.504C30.083,22.583,38.456,49.38,38.456,49.38l0.274,0.012l2.079,8.791   l0.682,0.001c-0.031-0.301-1.542-8.761-1.542-8.761S30.16,23,56.395,15.504c1.844-0.527,3.733-0.795,5.63-0.87   C59.458,14.538,56.883,14.78,54.395,15.504z" fill="#FFFFFF" opacity="0.1"/><path d="M84.426,53.13c3.457,3.126,2.828-4.184,5.756-7.811v0c0,0-10.33-7.572-26.502-7.574v0   c-0.001,0-0.002,0-0.002,0v0.001l0-0.001c-0.001,0-0.002,0-0.002,0v0c-16.172,0.002-26.502,7.574-26.502,7.574l0.002,0.002   c2.927,3.625,10.425,3.979,14.73,2.196l5.765-3.076c7.578-3.139,16.286-1.633,22.37,3.867L84.426,53.13" fill="#010203" opacity="0.1"/><path d="M88.977,28.128c-2.616-7.156-6.632-10.452-10.882-12.199c-3.466-1.606-6.686-2.222-10.999-3.078   c-1.124-0.223-2.263-0.333-3.402-0.332c-1.139-0.001-2.278,0.109-3.402,0.332c-4.313,0.856-7.532,1.472-10.999,3.078   c-4.25,1.747-8.266,5.043-10.882,12.199c-1.657,4.935-2.21,11.164-1.238,17.192l0.002,0.002c2.014,2.494,4.126,3.677,6.531,3.363   c1.103-0.139,2.266-0.591,3.505-1.374l5.142-4.004c3.463-2.191,7.402-3.287,11.341-3.29c3.939,0.002,7.878,1.099,11.341,3.29   l5.142,4.004c1.478,0.935,2.842,1.398,4.126,1.421c2.15,0.051,4.072-1.132,5.91-3.409l0.002-0.002   C91.187,39.292,90.634,33.063,88.977,28.128z" fill="#7C4D4C"/><path d="M88.977,28.128c-2.616-7.156-6.632-10.452-10.882-12.199   c-3.466-1.606-6.686-2.222-10.999-3.078c-1.124-0.223-2.263-0.333-3.402-0.332c-0.008,0-0.017,0.001-0.025,0.001l-8.26,2.956   c-6.956,2.489-11.685,8.976-11.925,16.361l-0.332,10.216c4.616-2.049,11.696-4.305,20.523-4.306v0c0.001,0,0.002,0,0.002,0   c0.001,0,0.002,0,0.002,0v0c16.157,0.002,26.516,7.56,26.535,7.574C91.187,39.292,90.634,33.063,88.977,28.128z" fill="#010203" opacity="0.15"/><path d="M57.071,38.18c-0.756,0.098-1.494,0.211-2.213,0.337   C55.578,38.391,56.315,38.278,57.071,38.18z" fill="#010203" opacity="0.2"/><path d="M80.764,40.677c-0.27-0.096-0.542-0.19-0.823-0.284   C80.221,40.487,80.494,40.581,80.764,40.677z" fill="#010203" opacity="0.2"/><path d="M54.206,38.634c-0.673,0.127-1.327,0.265-1.966,0.412   C52.879,38.899,53.533,38.761,54.206,38.634z" fill="#010203" opacity="0.2"/><path d="M60.194,37.871c-0.871,0.06-1.724,0.138-2.554,0.237C58.47,38.01,59.322,37.93,60.194,37.871   z" fill="#010203" opacity="0.2"/><path d="M63.646,37.747c-1.046,0.001-2.066,0.035-3.062,0.096   C61.58,37.783,62.599,37.748,63.646,37.747z" fill="#010203" opacity="0.2"/><path d="M75.818,39.2c-0.22-0.054-0.445-0.103-0.669-0.155C75.373,39.097,75.599,39.147,75.818,39.2z   " fill="#010203" opacity="0.2"/><path d="M70.318,38.18c-0.189-0.025-0.377-0.049-0.569-0.072   C69.941,38.131,70.129,38.156,70.318,38.18z" fill="#010203" opacity="0.2"/><path d="M51.571,39.2c-0.617,0.15-1.213,0.311-1.796,0.475C50.358,39.511,50.954,39.351,51.571,39.2z   " fill="#010203" opacity="0.2"/><path d="M78.481,39.929c-0.285-0.086-0.573-0.17-0.868-0.253   C77.907,39.759,78.197,39.843,78.481,39.929z" fill="#010203" opacity="0.2"/><path d="M73.183,38.634c-0.216-0.041-0.433-0.079-0.652-0.117   C72.75,38.555,72.968,38.594,73.183,38.634z" fill="#010203" opacity="0.2"/><path d="M67.196,37.871c-0.131-0.009-0.259-0.02-0.39-0.028   C66.937,37.851,67.065,37.862,67.196,37.871z" fill="#010203" opacity="0.2"/><polygon fill="#010203" opacity="0.2" points="63.695,12.518 63.695,12.518 63.698,12.518  "/><path d="M63.714,37.746c-0.001,0-0.002,0-0.002,0c-0.001,0-0.002,0-0.002,0v0   c-0.005,0-0.009,0-0.014,0c0.016,0,0.032,0.001,0.049,0.001C63.733,37.747,63.724,37.746,63.714,37.746L63.714,37.746z" fill="#010203" opacity="0.2"/><path d="M63.67,12.519L63.67,12.519c0.007,0,0.015-0.001,0.022-0.001   C63.684,12.519,63.677,12.519,63.67,12.519z" fill="#010203" opacity="0.2"/><path d="M83.905,31.836l0.332,10.216c-0.083-0.037-0.18-0.074-0.264-0.111   c4,1.744,6.234,3.372,6.243,3.379c0.972-6.028,0.419-12.257-1.238-17.192c-2.616-7.156-6.632-10.452-10.882-12.199   c-3.466-1.606-6.686-2.222-10.999-3.078c-1.116-0.222-2.246-0.331-3.377-0.331l8.26,2.956   C78.936,17.964,83.665,24.451,83.905,31.836z" fill="#010203" opacity="0.1"/><path d="M82.76,41.433c-0.206-0.084-0.41-0.166-0.624-0.249C82.349,41.267,82.555,41.35,82.76,41.433   z" fill="#010203" opacity="0.2"/><path d="M48.908,39.929c-0.5,0.151-0.987,0.306-1.459,0.464C47.92,40.234,48.408,40.08,48.908,39.929   z" fill="#010203" opacity="0.2"/><path d="M46.626,40.677c-0.472,0.167-0.933,0.336-1.373,0.507   C45.692,41.013,46.154,40.844,46.626,40.677z" fill="#010203" opacity="0.2"/><path d="M43.417,41.941c0.386-0.169,0.793-0.339,1.212-0.508   C44.209,41.603,43.804,41.772,43.417,41.941z" fill="#010203" opacity="0.2"/><path d="M75.149,39.046c-0.639-0.147-1.293-0.285-1.966-0.412   C73.856,38.761,74.51,38.899,75.149,39.046z" fill="#010203" opacity="0.2"/><polygon fill="#010203" opacity="0.2" points="63.695,12.518 63.692,12.518 63.695,12.518  "/><path d="M79.941,40.393c-0.472-0.158-0.959-0.313-1.459-0.464   C78.982,40.08,79.469,40.234,79.941,40.393z" fill="#010203" opacity="0.2"/><path d="M82.136,41.184c-0.44-0.171-0.901-0.34-1.373-0.507   C81.235,40.844,81.697,41.013,82.136,41.184z" fill="#010203" opacity="0.2"/><path d="M77.614,39.676c-0.583-0.165-1.178-0.325-1.796-0.475   C76.436,39.351,77.031,39.511,77.614,39.676z" fill="#010203" opacity="0.2"/><path d="M63.72,12.519c-0.007,0-0.015-0.001-0.022-0.001C63.705,12.518,63.712,12.519,63.72,12.519   L63.72,12.519z" fill="#010203" opacity="0.2"/><path d="M83.973,41.941c-0.387-0.169-0.792-0.338-1.212-0.508   C83.179,41.602,83.586,41.772,83.973,41.941z" fill="#010203" opacity="0.2"/><path d="M47.449,40.393c-0.281,0.094-0.553,0.188-0.823,0.284   C46.895,40.581,47.169,40.487,47.449,40.393z" fill="#010203" opacity="0.2"/><path d="M45.253,41.184c-0.214,0.083-0.418,0.165-0.624,0.249   C44.835,41.35,45.04,41.267,45.253,41.184z" fill="#010203" opacity="0.2"/><path d="M49.776,39.676c-0.294,0.083-0.583,0.167-0.868,0.253   C49.193,39.843,49.482,39.759,49.776,39.676z" fill="#010203" opacity="0.2"/><path d="M72.531,38.517c-0.719-0.126-1.457-0.238-2.213-0.337   C71.074,38.278,71.812,38.391,72.531,38.517z" fill="#010203" opacity="0.2"/><path d="M63.68,37.746c-0.001,0-0.002,0-0.002,0c-0.001,0-0.002,0-0.002,0v0   c-0.01,0-0.019,0.001-0.029,0.001c0.016,0,0.032-0.001,0.049-0.001C63.69,37.746,63.685,37.746,63.68,37.746L63.68,37.746z" fill="#010203" opacity="0.2"/><path d="M52.24,39.046c-0.224,0.051-0.449,0.101-0.669,0.155   C51.791,39.147,52.017,39.097,52.24,39.046z" fill="#010203" opacity="0.2"/><path d="M66.805,37.843c-0.996-0.061-2.016-0.095-3.062-0.096   C64.79,37.748,65.809,37.783,66.805,37.843z" fill="#010203" opacity="0.2"/><path d="M69.75,38.108c-0.83-0.099-1.683-0.178-2.554-0.237C68.067,37.93,68.919,38.01,69.75,38.108z   " fill="#010203" opacity="0.2"/><path d="M60.584,37.843c-0.132,0.008-0.26,0.019-0.39,0.028   C60.324,37.862,60.453,37.851,60.584,37.843z" fill="#010203" opacity="0.2"/><path d="M57.64,38.108c-0.192,0.023-0.379,0.047-0.569,0.072   C57.26,38.156,57.449,38.131,57.64,38.108z" fill="#010203" opacity="0.2"/><path d="M54.858,38.517c-0.219,0.038-0.436,0.077-0.652,0.117   C54.422,38.594,54.64,38.555,54.858,38.517z" fill="#010203" opacity="0.2"/><path d="M74.614,38.924c-4.192,0.345-9.257,0.9-12.083,1.132c4.323-0.234,8.701,0.843,12.506,3.25   l5.142,4.004c3.939,2.492,7.076,1.636,10.004-1.99C90.182,45.32,84.359,41.052,74.614,38.924z" fill="#010203" opacity="0.15"/><path d="M90.182,45.32c0,0-10.33-7.572-26.502-7.574v0c-0.001,0-0.002,0-0.002,0v0.001l0-0.001   c-0.001,0-0.002,0-0.002,0v0c-16.172,0.002-26.502,7.574-26.502,7.574l0.002,0.002c2.927,3.625,6.063,4.482,10.001,1.992   l5.158-4.012c6.933-4.383,15.77-4.381,22.702,0.004l5.142,4.004C84.117,49.802,87.254,48.946,90.182,45.32L90.182,45.32z" fill="#010203" opacity="0.1"/><path d="M32.5,106.776l-3.5,8v0.397c9.936,6.809,21.952,10.804,34.902,10.825c0.053,0,0.106,0.001,0.159,0.001   c12.965-0.013,24.993-4.01,34.938-10.825v-0.397l-3.5-8H32.5z" fill="#F6CA41"/><polygon fill="#FFFFFF" points="58.733,106.776 57.333,114.781 57.333,123.776 71.333,123.776 71.333,114.833 69.933,106.776  "/><path d="M29,115.173c9.936,6.809,21.952,10.804,34.902,10.825c0.053,0,0.106,0.001,0.159,0.001   c12.965-0.013,24.993-4.01,34.938-10.825v-0.397H29V115.173z" fill="#010303" opacity="0.05"/></g></svg>