<?xml version="1.0" ?><!DOCTYPE svg  PUBLIC '-//W3C//DTD SVG 1.1//EN'  'http://www.w3.org/Graphics/SVG/1.1/DTD/svg11.dtd'><svg enable-background="new 0 0 128 128" id="Слой_1" version="1.1" viewBox="0 0 128 128" xml:space="preserve" xmlns="http://www.w3.org/2000/svg" xmlns:xlink="http://www.w3.org/1999/xlink"><g><circle cx="64" cy="64" fill="#E7E4DC" r="62"/><path d="M89.796,108.609H38.204c-2.322,0-4.204-1.882-4.204-4.204v-80.81c0-2.322,1.882-4.204,4.204-4.204h51.592   c2.322,0,4.204,1.882,4.204,4.204v80.809C94.001,106.727,92.118,108.609,89.796,108.609z" fill="#333638"/><rect fill="#65C8CE" height="72.001" width="53.218" x="37.391" y="27.999"/><path d="M51.47,78.009h-8c-0.552,0-1-0.448-1-1v-8.01c0-0.552,0.448-1,1-1h8c0.552,0,1,0.448,1,1   v8.01C52.47,77.561,52.022,78.009,51.47,78.009z" fill="#FFFFFF" opacity="0.9"/><g><path d="M47.828,77.067c-0.38,0-0.739-0.173-0.977-0.47l-3.643-4.559l1.953-1.561l2.663,3.332l4.561-5.749    l1.959,1.554l-5.537,6.979c-0.237,0.298-0.597,0.472-0.977,0.473C47.83,77.067,47.829,77.067,47.828,77.067z" fill="#47AB98"/></g><rect fill="#FFFFFF" height="2.5" opacity="0.9" width="28" x="57.53" y="68.749"/><rect fill="#FFFFFF" height="2.5" opacity="0.9" width="14" x="57.53" y="73.749"/><rect fill="#FFFFFF" height="2.5" width="29" x="42.5" y="83.009"/><rect fill="#FFFFFF" height="2.5" width="15" x="42.5" y="88.009"/><rect fill="#FFFFFF" height="2.5" width="23" x="42.5" y="93.009"/><circle cx="64" cy="104.175" fill="#4B4F51" r="2.609"/><circle cx="64" cy="23.304" fill="#4B4F51" r="1.043"/><path d="M58.725,42.556l-1.817,0.858l0.844,0.338l1.157-1.058   C58.966,42.579,58.82,42.469,58.725,42.556z" fill="#FFFFFF" opacity="0.3"/><path d="M47.409,41.227l-2.338,5.839c-0.308,0.769,0.066,1.642,0.835,1.95l2.152,0.862l3.453-8.624l-2.152-0.862   C48.59,40.084,47.717,40.458,47.409,41.227z" fill="#F6CA41"/><path d="M45.531,45.919l-0.508,1.27c-0.281,0.701,0.06,1.497,0.761,1.778l2.275,0.911l0.508-1.27   l-2.275-0.911C45.591,47.416,45.25,46.62,45.531,45.919z" fill="#010203" opacity="0.1"/><path d="M47.458,41.104l-0.508,1.27c0.281-0.701,1.077-1.042,1.778-0.761l2.275,0.911l0.508-1.27   l-2.275-0.911C48.535,40.062,47.739,40.403,47.458,41.104z" fill="#FFFFFF" opacity="0.3"/><path d="M85.739,49.975c-0.555-0.31-1.235-0.3-1.801-0.01l-3.818,1.951c-0.592,0.302-1.291,0.312-1.891,0.026   c-7.328-3.074-9.478-5.347-15.125-7.744l-0.041-0.019c-0.119-0.057-0.261-0.001-0.31,0.121l-0.291,0.703   c-0.189,0.457-0.548,0.832-1.009,1.01c-0.622,0.24-1.332,0.255-2-0.012c-0.972-0.389-1.597-1.274-1.702-2.247l-6.24-2.499   l-3.453,8.624l10.88,4.357c1.386,0.555,2.812,1.004,4.266,1.343l19.096,3.287c1.982,0.462,4.039-0.376,5.135-2.09l0.006-0.009   C88.963,54.375,88.085,51.286,85.739,49.975z" fill="#C55C44"/><path d="M66.658,47.023l-3.617,0.421l-1.425,3.56l2.254,2.982l3.69-0.602l1.425-3.56L66.658,47.023z M68.72,49.79   l-1.073,0.118l-2.089-2.573l1.023-0.119L68.72,49.79z M64.713,47.433l0.63-0.073l2.145,2.642l-0.221,0.552l-0.674,0.081   l0.237-0.592L64.713,47.433z M65.405,50.154l-2.115-2.555l1.209-0.141l2.084,2.566L65.405,50.154z M63.136,47.698l2.126,2.568   l-1.376,3.437l-2.062-2.727L63.136,47.698z M64.054,53.771l1.376-3.437l1.137-0.125l-0.257,0.643l1.086-0.131l0.253-0.631   l1.08-0.119l-1.301,3.249L64.054,53.771z" fill="#F6CA41"/><path d="M51.617,43.08c-0.07-0.175-0.705,0.078-0.635,0.253c1.271,2.333,2.352,5.125,3.291,8.262   c0.07,0.175,0.269,0.261,0.444,0.191c0.175-0.07,0.261-0.269,0.191-0.444C54.118,48.327,53.057,45.543,51.617,43.08z" fill="#010203" opacity="0.1"/><path d="M56.555,45.074c-0.07-0.175-0.705,0.078-0.635,0.253c1.271,2.333,2.352,5.125,3.291,8.262   c0.07,0.175,0.269,0.261,0.444,0.191c0.175-0.07,0.261-0.269,0.191-0.444C59.056,50.321,57.995,47.537,56.555,45.074z" fill="#010203" opacity="0.1"/><path d="M66.891,46.025c-0.969-0.524-2.001-1.043-3.184-1.566c-0.203-0.089-0.408-0.179-0.603-0.262   l-0.041-0.019c-0.119-0.057-0.261-0.001-0.31,0.121l-0.291,0.703c-0.189,0.457-0.548,0.832-1.009,1.01   c-0.231,0.089-0.476,0.136-0.725,0.16c-0.421,0.041-0.855-0.004-1.275-0.172c-0.972-0.389-1.597-1.274-1.702-2.247l-2.913-1.166   c4.195,4.066,6.52,8.268,6.925,12.612c0,0,0,0,0,0c0.477,0.137,0.957,0.267,1.44,0.379l10.412,1.792   C72.89,53.447,70.748,49.656,66.891,46.025z" fill="#010203" opacity="0.1"/><path d="M82.47,58.441l-18.757-4.133c-1.454-0.339-2.88-0.788-4.266-1.343l-10.88-4.357l-0.508,1.27   l10.88,4.357c1.386,0.555,2.812,1.004,4.266,1.343l19.096,3.287c1.982,0.462,4.039-0.376,5.135-2.09   C86.34,58.489,84.452,58.903,82.47,58.441z" fill="#010203" opacity="0.1"/><path d="M57.752,43.753l-6.24-2.499l-0.508,1.27c0,0,7.479,3.087,8.451,3.476   C58.482,45.611,57.857,44.726,57.752,43.753z" fill="#FFFFFF" opacity="0.3"/><path d="M85.739,49.975c-0.555-0.31-1.235-0.3-1.801-0.01l-3.818,1.951   c-0.592,0.302-1.291,0.312-1.891,0.026c-7.328-3.074-9.478-5.347-15.125-7.744l-0.041-0.019c-0.119-0.057-0.261-0.001-0.31,0.121   l-0.291,0.703l-0.048,0.144c0.049-0.122,0.141-0.245,0.26-0.189c5.647,2.397,8.057,4.333,15.385,7.408   c0.6,0.286,1.299,0.276,1.891-0.026l3.818-1.951c0.566-0.289,1.246-0.3,1.801,0.01c2.052,1.146,3.109,3.328,2.326,5.455   C88.723,53.641,87.796,51.125,85.739,49.975z" fill="#FFFFFF" opacity="0.3"/><path d="M53.807,37.14c-0.175-0.07-0.374,0.015-0.445,0.19l-2.372,5.925c-0.07,0.175,0.565,0.429,0.635,0.254   l2.372-5.925C54.068,37.41,53.982,37.21,53.807,37.14z" fill="#AFADAD"/><path d="M48.342,49.562L45.8,55.91c-0.094,0.234,0.02,0.499,0.254,0.593c0.234,0.094,0.499-0.02,0.593-0.254   l2.542-6.348C49.282,49.668,48.435,49.329,48.342,49.562z" fill="#AFADAD"/><path d="M53.508,51.323l-7.644,4.305c-0.22,0.124-0.297,0.402-0.174,0.621c0.053,0.094,0.135,0.162,0.228,0.199   c0.124,0.05,0.268,0.045,0.393-0.026l7.644-4.305c0.22-0.124,0.297-0.402,0.174-0.621C54.005,51.278,53.727,51.2,53.508,51.323z" fill="#AFADAD"/><path d="M58.751,39.12c-0.175-0.07-0.374,0.015-0.445,0.19l-2.372,5.925c-0.07,0.175,0.565,0.429,0.635,0.254   l2.372-5.925C59.011,39.389,58.926,39.19,58.751,39.12z" fill="#AFADAD"/><path d="M55.046,47.27c-0.062-0.807-0.155-1.666-0.247-2.524c-0.107-0.857-0.211-1.713-0.336-2.514   c-0.119-0.801-0.246-1.546-0.369-2.184c-0.238-1.276-0.462-2.119-0.462-2.119s-0.026,0.872,0.034,2.168   c0.026,0.649,0.073,1.403,0.14,2.21c0.061,0.808,0.156,1.666,0.247,2.524c0.107,0.856,0.212,1.713,0.337,2.513   c0.12,0.801,0.246,1.546,0.369,2.184c0.237,1.276,0.461,2.119,0.461,2.119s0.025-0.872-0.035-2.168   C55.16,48.832,55.113,48.077,55.046,47.27z" fill="#6E4D31"/><path d="M60.131,49.358c-0.063-0.822-0.157-1.697-0.25-2.571c-0.108-0.873-0.213-1.745-0.339-2.561   c-0.12-0.816-0.248-1.575-0.372-2.225c-0.239-1.3-0.465-2.159-0.465-2.159s-0.025,0.888,0.037,2.208   c0.027,0.661,0.075,1.429,0.143,2.251c0.063,0.822,0.158,1.696,0.251,2.571c0.108,0.873,0.215,1.745,0.34,2.56   c0.121,0.816,0.248,1.575,0.372,2.225c0.239,1.3,0.464,2.159,0.464,2.159s0.024-0.888-0.038-2.208   C60.247,50.949,60.199,50.18,60.131,49.358z" fill="#6E4D31"/><path d="M60.553,52.851c-0.022-0.188-0.191-0.323-0.379-0.301c-0.188,0.021-0.322,0.191-0.301,0.379l0.172,1.495   c0.015,0.129,0.1,0.233,0.213,0.278c0.051,0.02,0.108,0.029,0.166,0.022c0.188-0.021,0.322-0.191,0.301-0.379L60.553,52.851z" fill="#45474A"/><path d="M58.969,39.061c-0.022-0.188-0.191-0.322-0.379-0.301c-0.188,0.021-0.322,0.191-0.301,0.379l0.172,1.495   c0.015,0.129,0.1,0.233,0.213,0.278c0.051,0.02,0.108,0.029,0.166,0.022c0.188-0.021,0.322-0.191,0.301-0.379L58.969,39.061z" fill="#45474A"/><path d="M61.25,40.618c-0.027-0.013-0.062-0.005-0.077,0.023l-5.662,10.36l-0.02-0.177   c-0.022-0.188-0.191-0.323-0.379-0.301c-0.188,0.021-0.322,0.191-0.301,0.379l0.172,1.495c0.015,0.129,0.1,0.233,0.213,0.278   c0.051,0.02,0.108,0.029,0.166,0.022c0.188-0.021,0.322-0.191,0.301-0.379l-0.129-1.122l5.739-10.501   C61.288,40.668,61.278,40.633,61.25,40.618z" fill="#434649"/><path d="M54.065,38.67c0.014-0.045,0.02-0.092,0.015-0.142l-0.172-1.495c-0.022-0.188-0.191-0.322-0.379-0.301   c-0.188,0.021-0.322,0.191-0.301,0.379l0.172,1.495c0.015,0.129,0.1,0.233,0.213,0.278c0.051,0.02,0.108,0.029,0.166,0.022   c0.089-0.01,0.164-0.055,0.218-0.118l7.865,15.813c0.006,0.013,0.017,0.022,0.03,0.027c0.014,0.006,0.031,0.006,0.047-0.002   c0.028-0.014,0.04-0.048,0.026-0.076L54.065,38.67z" fill="#434649"/><path d="M45.864,55.628c-0.22,0.124-0.297,0.402-0.174,0.621c0.053,0.094,0.135,0.162,0.228,0.199   c0.124,0.05,0.268,0.045,0.393-0.026l3.53-1.988c-0.119-0.28-0.274-0.544-0.455-0.79L45.864,55.628z" fill="#010203" opacity="0.2"/><path d="M64.453,55.847c-3.841-1.969-7.212-3.494-10.945-4.838c-0.375-0.15-0.785-0.009-0.915,0.316   c-0.13,0.325,0.069,0.71,0.444,0.86c3.594,1.591,7.078,2.821,11.259,4.053c0.172,0.049,0.67,0.166,0.713,0.058   C65.053,56.189,64.594,55.916,64.453,55.847z" fill="#C55C44"/><path d="M63.549,40.936c-3.841-1.969-7.212-3.494-10.945-4.838c-0.375-0.15-0.785-0.009-0.915,0.316   c-0.13,0.325,0.069,0.71,0.444,0.86c3.594,1.591,7.078,2.821,11.259,4.053c0.172,0.049,0.67,0.166,0.713,0.058   C64.148,41.278,63.69,41.005,63.549,40.936z" fill="#C55C44"/><path d="M64.456,55.84c-3.841-1.969-7.212-3.494-10.945-4.838c-0.375-0.15-0.785-0.009-0.915,0.316   c-0.016,0.04-0.027,0.082-0.034,0.124c0.171-0.243,0.525-0.335,0.854-0.204c3.733,1.344,7.103,2.868,10.945,4.838   c0.081,0.04,0.265,0.146,0.4,0.25c0.126,0.014,0.232,0.011,0.251-0.036C65.056,56.182,64.597,55.91,64.456,55.84z" fill="#FFFFFF" opacity="0.3"/><path d="M64.85,56.104c-0.165-0.018-0.365-0.067-0.462-0.094c-4.181-1.232-7.664-2.463-11.259-4.053   c-0.328-0.132-0.521-0.443-0.477-0.737c-0.024,0.035-0.045,0.072-0.061,0.113c-0.13,0.325,0.069,0.71,0.444,0.86   c3.594,1.591,7.078,2.821,11.259,4.053c0.172,0.049,0.67,0.166,0.713,0.058C65.025,56.258,64.951,56.182,64.85,56.104z" fill="#010203" opacity="0.1"/><path d="M64.453,55.847c-3.841-1.969-7.212-3.494-10.945-4.838c-0.375-0.15-0.785-0.009-0.915,0.316   c-0.13,0.325,0.069,0.71,0.444,0.86c3.594,1.591,7.078,2.821,11.259,4.053c0.172,0.049,0.67,0.166,0.713,0.058   C65.053,56.189,64.594,55.916,64.453,55.847z" fill="#C55C44"/><path d="M63.551,40.929c-3.841-1.969-7.212-3.494-10.945-4.838c-0.375-0.15-0.785-0.009-0.915,0.316   c-0.016,0.04-0.027,0.082-0.034,0.124c0.171-0.243,0.525-0.335,0.854-0.204c3.733,1.344,7.103,2.868,10.945,4.838   c0.081,0.04,0.265,0.146,0.4,0.25c0.126,0.014,0.232,0.011,0.251-0.036C64.151,41.271,63.692,40.998,63.551,40.929z" fill="#FFFFFF" opacity="0.3"/><path d="M64.456,55.84c-3.841-1.969-7.212-3.494-10.945-4.838c-0.375-0.15-0.785-0.009-0.915,0.316   c-0.016,0.04-0.027,0.082-0.034,0.124c0.171-0.243,0.525-0.335,0.854-0.204c3.733,1.344,7.103,2.868,10.945,4.838   c0.081,0.04,0.265,0.146,0.4,0.25c0.126,0.014,0.232,0.011,0.251-0.036C65.056,56.182,64.597,55.91,64.456,55.84z" fill="#FFFFFF" opacity="0.3"/><path d="M63.946,41.193c-0.165-0.018-0.365-0.067-0.462-0.094c-4.181-1.232-7.664-2.463-11.259-4.053   c-0.328-0.132-0.521-0.443-0.477-0.737c-0.024,0.035-0.045,0.072-0.061,0.113c-0.13,0.325,0.069,0.71,0.444,0.86   c3.594,1.591,7.078,2.821,11.259,4.053c0.172,0.049,0.67,0.166,0.713,0.058C64.121,41.346,64.046,41.27,63.946,41.193z" fill="#010203" opacity="0.1"/><path d="M64.85,56.104c-0.165-0.018-0.365-0.067-0.462-0.094c-4.181-1.232-7.664-2.463-11.259-4.053   c-0.328-0.132-0.521-0.443-0.477-0.737c-0.024,0.035-0.045,0.072-0.061,0.113c-0.13,0.325,0.069,0.71,0.444,0.86   c3.594,1.591,7.078,2.821,11.259,4.053c0.172,0.049,0.67,0.166,0.713,0.058C65.025,56.258,64.951,56.182,64.85,56.104z" fill="#010203" opacity="0.1"/><path d="M47.282,52.208L45.8,55.91c-0.094,0.234,0.02,0.499,0.254,0.593   c0.234,0.094,0.499-0.02,0.593-0.254l1.483-3.703c-0.133-0.072-0.269-0.139-0.412-0.197C47.573,52.292,47.428,52.247,47.282,52.208   z" fill="#010203" opacity="0.2"/><circle cx="46.276" cy="55.948" fill="#45474A" r="3.419"/><path d="M43.101,54.676c-0.373,0.93-0.304,1.926,0.101,2.762c-0.287-0.769-0.304-1.643,0.026-2.465   c0.702-1.753,2.692-2.605,4.445-1.903c0.823,0.329,1.444,0.944,1.802,1.684c-0.325-0.871-0.998-1.608-1.929-1.98   C45.794,52.071,43.804,52.923,43.101,54.676z" fill="#FEFDFD" opacity="0.2"/><path d="M49.338,56.928c-0.702,1.753-2.692,2.605-4.446,1.903c-0.823-0.329-1.444-0.944-1.802-1.684   c0.325,0.871,0.998,1.608,1.929,1.98c1.753,0.702,3.743-0.15,4.445-1.903c0.373-0.93,0.304-1.926-0.101-2.762   C49.651,55.232,49.667,56.105,49.338,56.928z" fill="#010203" opacity="0.2"/><circle cx="46.276" cy="55.948" fill="#F6CA41" r="2.28"/><path d="M48.215,54.767c0.124,0.46,0.113,0.96-0.077,1.436c-0.467,1.167-1.797,1.736-2.964,1.269   c-0.475-0.19-0.845-0.528-1.092-0.935c0.18,0.669,0.654,1.251,1.346,1.528c1.167,0.467,2.496-0.102,2.964-1.269   C48.669,56.104,48.575,55.359,48.215,54.767z" fill="#010203" opacity="0.05"/><path d="M49.217,34.879c-0.158-0.063-0.337,0.012-0.402,0.169l-3.775,7.882l1.032,0.413l3.24-8.091   C49.375,35.092,49.377,34.942,49.217,34.879z" fill="#714E32"/><path d="M41.823,52.508c-0.061,0.159,0.017,0.337,0.175,0.4c0.159,0.064,0.261-0.045,0.325-0.205l3.24-8.091   l-1.032-0.413L41.823,52.508z" fill="#714E32"/><rect fill="#838282" height="0.456" transform="matrix(-0.9283 -0.3719 0.3719 -0.9283 71.1167 101.2728)" width="1.976" x="44.335" y="43.551"/><polygon fill="#AFADAD" points="44.801,42.834 44.293,44.104 45.774,44.697 46.283,43.427 46.071,43.342  "/><circle cx="46.276" cy="55.948" fill="#45474A" r="0.228"/></g></svg>