<?xml version="1.0" ?><!DOCTYPE svg  PUBLIC '-//W3C//DTD SVG 1.1//EN'  'http://www.w3.org/Graphics/SVG/1.1/DTD/svg11.dtd'><svg enable-background="new 0 0 128 128" id="Слой_1" version="1.1" viewBox="0 0 128 128" xml:space="preserve" xmlns="http://www.w3.org/2000/svg" xmlns:xlink="http://www.w3.org/1999/xlink"><g><circle cx="64" cy="64" fill="#F6CA41" r="62"/><path d="M64,19c-24.853,0-45,20.147-45,45s20.147,45,45,45s45-20.147,45-45S88.853,19,64,19z M64,104   c-22.056,0-40-17.944-40-40s17.944-40,40-40s40,17.944,40,40S86.056,104,64,104z" fill="#4A4946"/><path d="M66,21c11.918,0,22.745,4.641,30.796,12.204C88.587,24.466,76.935,19,64,19   c-24.853,0-45,20.147-45,45c0,12.936,5.466,24.588,14.204,32.796C25.641,88.746,21,77.918,21,66C21,41.147,41.147,21,66,21z" fill="#F9F8F8" opacity="0.2"/><path d="M94.796,31.204C102.359,39.255,107,50.082,107,62c0,24.853-20.147,45-45,45   c-11.917,0-22.745-4.641-30.796-12.204C39.413,103.534,51.065,109,64,109c24.853,0,45-20.147,45-45   C109,51.065,103.534,39.413,94.796,31.204z" fill="#010203" opacity="0.3"/><path d="M64,24c-22.056,0-40,17.944-40,40s17.944,40,40,40s40-17.944,40-40S86.056,24,64,24z" fill="#FFFFFF"/><path d="M61.917,70.417" fill="none" stroke="#333638" stroke-linecap="round" stroke-miterlimit="10" stroke-width="2"/><path d="M71.5,29.702" fill="none" stroke="#333638" stroke-linecap="round" stroke-miterlimit="10" stroke-width="2"/><path d="M81.597,79.659" fill="none" stroke="#333638" stroke-linecap="round" stroke-miterlimit="10" stroke-width="2"/><path d="M58.296,60.04" fill="none" stroke="#333638" stroke-linecap="round" stroke-miterlimit="10" stroke-width="2"/><path d="M81.595,81.078c-0.657,0-1.319-0.215-1.872-0.657L62.126,66.343C61.414,65.773,61,64.911,61,64V32   c0-1.657,1.343-3,3-3s3,1.343,3,3v30.559l16.471,13.177c1.294,1.035,1.504,2.923,0.469,4.217   C83.347,80.692,82.475,81.078,81.595,81.078z" fill="#4A4946"/><path d="M67,62.559v-3.787C66.112,58.282,65.09,58,64,58c-1.09,0-2.112,0.283-3,0.773V64   c0,0.911,0.414,1.773,1.126,2.343l4.067,3.254c1.996-0.751,3.488-2.489,3.851-4.603L67,62.559z" fill="#010203" opacity="0.3"/><path d="M64,59c-2.837,0-5.136,2.239-5.136,5c0,0.19,0.036,0.371,0.058,0.556l-25.936,8.19   c-0.526,0.166-0.818,0.728-0.652,1.254l0,0c0.166,0.526,0.728,0.819,1.254,0.652l25.963-8.199C60.433,67.967,62.084,69,64,69   c2.837,0,5.136-2.239,5.136-5S66.837,59,64,59z" fill="#47AB98"/><path d="M107.899,35.73c2.808,3.301,4.512,7.571,4.512,12.245c0,10.449-8.47,18.919-18.919,18.919   c-4.674,0-8.944-1.703-12.245-4.512c3.47,4.079,8.632,6.674,14.407,6.674c10.449,0,18.919-8.47,18.919-18.919   C114.573,44.362,111.978,39.2,107.899,35.73z" fill="#010203" opacity="0.1"/><circle cx="93.492" cy="47.975" fill="#C55C44" r="18.919"/><g><path d="M85.468,54.201h6.226c0.62,0,1.094,0.127,1.42,0.382c0.325,0.254,0.488,0.6,0.488,1.037    c0,0.39-0.129,0.72-0.387,0.99c-0.259,0.271-0.65,0.405-1.175,0.405h-8.778c-0.597,0-1.062-0.165-1.396-0.495    s-0.501-0.718-0.501-1.163c0-0.286,0.107-0.665,0.322-1.139c0.215-0.473,0.449-0.845,0.703-1.115    c1.058-1.097,2.012-2.037,2.862-2.82c0.852-0.783,1.459-1.298,1.825-1.545c0.652-0.461,1.194-0.924,1.628-1.39    c0.434-0.465,0.764-0.941,0.99-1.431s0.34-0.968,0.34-1.438c0-0.509-0.121-0.964-0.364-1.365    c-0.242-0.401-0.572-0.714-0.989-0.937c-0.418-0.223-0.873-0.334-1.366-0.334c-1.041,0-1.86,0.458-2.457,1.372    c-0.079,0.119-0.212,0.445-0.399,0.978c-0.187,0.533-0.397,0.942-0.632,1.229s-0.578,0.43-1.031,0.43    c-0.398,0-0.728-0.132-0.99-0.394c-0.263-0.263-0.394-0.62-0.394-1.073c0-0.549,0.123-1.121,0.37-1.718    c0.246-0.597,0.613-1.137,1.103-1.622s1.109-0.877,1.86-1.175c0.752-0.298,1.632-0.447,2.643-0.447    c1.216,0,2.254,0.19,3.112,0.572c0.557,0.255,1.046,0.604,1.467,1.05c0.422,0.445,0.75,0.96,0.984,1.545    c0.234,0.584,0.352,1.19,0.352,1.818c0,0.986-0.244,1.883-0.733,2.689s-0.988,1.439-1.497,1.896s-1.361,1.175-2.558,2.152    c-1.197,0.979-2.018,1.737-2.463,2.278C85.861,53.641,85.667,53.898,85.468,54.201z" fill="#FFFFFF"/><path d="M103.084,55.501v-2.219h-5.987c-0.756,0-1.322-0.171-1.7-0.513c-0.377-0.342-0.566-0.807-0.566-1.396    c0-0.15,0.028-0.304,0.084-0.459s0.139-0.317,0.25-0.489c0.111-0.171,0.227-0.335,0.346-0.494c0.12-0.159,0.267-0.354,0.441-0.585    l6.321-8.456c0.413-0.557,0.753-0.96,1.02-1.21c0.267-0.251,0.587-0.376,0.96-0.376c1.209,0,1.813,0.691,1.813,2.075v9.231h0.513    c0.612,0,1.104,0.083,1.473,0.25c0.37,0.167,0.555,0.533,0.555,1.098c0,0.461-0.151,0.797-0.453,1.008s-0.756,0.315-1.359,0.315    h-0.728v2.219c0,0.612-0.136,1.067-0.405,1.365c-0.271,0.299-0.633,0.447-1.086,0.447c-0.445,0-0.805-0.153-1.079-0.459    S103.084,56.098,103.084,55.501z M97.955,50.611h5.129v-6.93L97.955,50.611z" fill="#FFFFFF"/></g></g></svg>