<?xml version="1.0" ?><!DOCTYPE svg  PUBLIC '-//W3C//DTD SVG 1.1//EN'  'http://www.w3.org/Graphics/SVG/1.1/DTD/svg11.dtd'><svg enable-background="new 0 0 128 128" id="Слой_1" version="1.1" viewBox="0 0 128 128" xml:space="preserve" xmlns="http://www.w3.org/2000/svg" xmlns:xlink="http://www.w3.org/1999/xlink"><g><path d="M64,2C29.758,2,2,29.758,2,64c0,19.865,9.342,37.548,23.873,48.895c10.516,8.212,65.775,8.198,76.298-0.035   C116.677,101.512,126,83.845,126,64C126,29.758,98.242,2,64,2z M87.976,56.45c-3.57,9.627-12.834,16.488-23.702,16.488   c-2.036,0-4.013-0.248-5.909-0.702C47.258,69.575,39,59.587,39,47.664C39,33.705,50.315,22.39,64.274,22.39   c13.958,0,25.274,11.315,25.274,25.274C89.548,50.754,88.991,53.713,87.976,56.45z" fill="#E7E4DC"/><path d="M100.504,111.652c-0.094-0.068-0.185-0.139-0.279-0.206c-0.57-0.408-1.15-0.802-1.735-1.193   c-0.17-0.113-0.339-0.226-0.51-0.338c-0.621-0.406-1.248-0.803-1.885-1.189c-0.02-0.012-0.04-0.023-0.06-0.035   c-5.297-3.197-11.112-5.673-17.236-7.172c-0.036-0.009-0.072-0.017-0.107-0.026c-0.747-0.181-1.498-0.35-2.255-0.504   c-0.08-0.016-0.16-0.031-0.24-0.047c-0.733-0.146-1.47-0.281-2.212-0.401c-0.073-0.012-0.146-0.022-0.219-0.033   c-0.554-0.087-1.112-0.16-1.67-0.234c-0.01-0.001-0.02-0.003-0.03-0.004c-0.192-0.025-0.382-0.057-0.575-0.081   c-0.049-0.006-0.098-0.01-0.146-0.016c-0.46-0.054-0.924-0.093-1.387-0.138c-0.227-0.022-0.452-0.048-0.68-0.067   c-0.097-0.008-0.192-0.021-0.289-0.029c-0.051-0.004-0.102-0.006-0.153-0.01c-0.354-0.027-0.712-0.041-1.067-0.063   c-0.392-0.024-0.783-0.053-1.177-0.07c-0.029-0.001-0.057-0.004-0.085-0.005c-0.214-0.009-0.431-0.009-0.646-0.015   c-0.544-0.015-1.086-0.037-1.633-0.038c-0.001,0-0.001,0.001-0.002,0.002c-0.025,0-0.049-0.002-0.074-0.002   c-0.042,0-0.084,0.001-0.125,0.002c-0.042-0.001-0.083-0.002-0.125-0.002c-0.025,0-0.049,0.002-0.074,0.002   c-0.001-0.001-0.001-0.002-0.002-0.002c-0.547,0.001-1.089,0.023-1.633,0.038c-0.215,0.007-0.432,0.007-0.646,0.015   c-0.029,0.001-0.057,0.004-0.085,0.005c-0.394,0.017-0.785,0.045-1.177,0.07c-0.355,0.022-0.713,0.036-1.067,0.063   c-0.051,0.004-0.102,0.006-0.153,0.01c-0.097,0.008-0.192,0.021-0.289,0.029c-0.227,0.02-0.453,0.045-0.68,0.067   c-0.463,0.045-0.927,0.083-1.387,0.138c-0.049,0.006-0.098,0.01-0.146,0.016c-0.193,0.023-0.383,0.055-0.575,0.081   c-0.01,0.001-0.02,0.003-0.03,0.004c-0.558,0.073-1.117,0.146-1.67,0.234c-0.073,0.012-0.146,0.022-0.219,0.033   c-0.742,0.12-1.479,0.255-2.212,0.401c-0.08,0.016-0.16,0.031-0.24,0.047c-0.757,0.154-1.508,0.323-2.255,0.504   c-0.036,0.009-0.072,0.017-0.107,0.026c-6.125,1.5-11.939,3.975-17.236,7.172c-0.02,0.012-0.04,0.023-0.06,0.035   c-0.637,0.385-1.264,0.782-1.885,1.189c-0.171,0.112-0.34,0.225-0.51,0.338c-0.584,0.39-1.165,0.784-1.735,1.193   c-0.094,0.067-0.185,0.138-0.279,0.206c-0.558,0.404-1.117,0.807-1.661,1.227c10.504,8.203,23.708,13.107,38.065,13.12   c0.026-0.001,0.051-0.001,0.077-0.002c0.02,0,0.039,0.001,0.059,0.001c14.358-0.019,27.572-4.917,38.073-13.126   C101.615,112.455,101.059,112.054,100.504,111.652z" fill="#355067"/><path d="M64.274,22.39C50.315,22.39,39,33.705,39,47.664c0,11.923,8.258,21.911,19.365,24.572   c1.896,0.454,3.873,0.702,5.909,0.702c10.868,0,20.132-6.861,23.702-16.488c1.015-2.737,1.572-5.696,1.572-8.786   C89.548,33.705,78.232,22.39,64.274,22.39z" fill="#E7E4DC"/><ellipse cx="64" cy="110.838" enable-background="new    " fill="#0C0D0E" opacity="0.2" rx="7" ry="3.5"/><path d="M64,15.98c-17.656,0-31.969,14.313-31.969,31.969c0,4.742,1.299,10.183,3.495,14.386l0.284,0.51   l26.682,47.935c0,0,0.428,1.114,1.507,1.114c1.026,0,1.507-1.114,1.507-1.114l26.832-48.204c2.371-4.48,3.63-9.886,3.63-14.627   C95.969,30.293,81.656,15.98,64,15.98z" fill="#F6CA41"/><path d="M64.274,22.664c-13.808,0-25,11.192-25,25c0,11.794,8.168,21.673,19.155,24.306   c1.875,0.449,3.831,0.694,5.845,0.694c10.75,0,19.914-6.787,23.445-16.309c1.004-2.707,1.555-5.634,1.555-8.691   C89.274,33.856,78.081,22.664,64.274,22.664z" fill="#FFFFFF"/><path d="M101.406,28.664h-53.79C42.337,33.296,39,40.088,39,47.664c0,7.58,3.346,14.37,8.632,19h53.774   c0.552,0,1-0.448,1-1v-36C102.406,29.112,101.959,28.664,101.406,28.664z" fill="#46B19B"/><path d="M44.999,31.324c-0.211,0.249-0.417,0.503-0.618,0.76h54.606v31.16H44.386   c0.204,0.26,0.422,0.508,0.636,0.76h54.725v-32.68H44.999z" fill="#F6F8F7" opacity="0.2"/><circle cx="64.406" cy="47.664" fill="#F6F8F7" opacity="0.2" r="13.3"/><path d="M66.861,47.697c-0.392-0.255-0.841-0.46-1.336-0.61c-0.404-0.122-0.817-0.242-1.24-0.358   c-0.374-0.103-0.744-0.226-1.098-0.365c-0.272-0.107-0.512-0.251-0.715-0.427c-0.17-0.147-0.313-0.346-0.426-0.593   c-0.075-0.163-0.164-0.47-0.164-1.013c0-0.281,0.05-0.559,0.15-0.828c0.094-0.253,0.236-0.483,0.424-0.682   c0.188-0.2,0.439-0.366,0.744-0.493c0.64-0.267,1.681-0.269,2.294,0.006c0.292,0.131,0.532,0.306,0.715,0.521   c0.191,0.225,0.336,0.491,0.433,0.792c0.127,0.399,0.554,0.62,0.954,0.493c0.4-0.128,0.621-0.555,0.493-0.955   c-0.157-0.492-0.399-0.934-0.721-1.313c-0.33-0.39-0.751-0.701-1.252-0.926c-0.297-0.133-0.641-0.214-0.999-0.268v-0.403   c0-0.42-0.34-0.76-0.76-0.76c-0.42,0-0.76,0.34-0.76,0.76v0.398c-0.349,0.051-0.687,0.128-0.983,0.251   c-0.505,0.211-0.931,0.498-1.266,0.855c-0.329,0.349-0.579,0.753-0.742,1.198c-0.162,0.438-0.244,0.893-0.244,1.354   c0,0.656,0.102,1.21,0.302,1.647c0.205,0.445,0.479,0.818,0.813,1.107c0.333,0.289,0.721,0.521,1.153,0.692   c0.405,0.16,0.826,0.3,1.253,0.417c0.41,0.113,0.81,0.228,1.201,0.347c0.359,0.109,0.678,0.254,0.951,0.431   c0.261,0.169,0.477,0.393,0.643,0.665c0.168,0.276,0.254,0.653,0.254,1.119c0,0.34-0.05,0.665-0.148,0.968   c-0.095,0.292-0.24,0.55-0.433,0.764c-0.186,0.207-0.43,0.373-0.725,0.495c-0.557,0.229-1.431,0.251-2.116,0.033   c-0.304-0.096-0.577-0.254-0.813-0.469c-0.243-0.222-0.447-0.52-0.606-0.886c-0.168-0.384-0.614-0.562-1-0.394   c-0.384,0.167-0.561,0.615-0.393,1c0.245,0.563,0.572,1.034,0.973,1.401c0.399,0.366,0.864,0.634,1.38,0.797   c0.176,0.056,0.362,0.091,0.548,0.126v0.46c0,0.42,0.34,0.76,0.76,0.76c0.42,0,0.76-0.34,0.76-0.76v-0.413   c0.389-0.044,0.76-0.116,1.085-0.25c0.509-0.21,0.939-0.508,1.279-0.887c0.335-0.374,0.586-0.814,0.747-1.308   c0.148-0.455,0.223-0.939,0.223-1.438c0-0.749-0.16-1.392-0.476-1.91C67.69,48.378,67.315,47.991,66.861,47.697z" fill="#45474A"/><polygon fill="#010203" opacity="0.1" points="47.632,66.664 90.062,66.664 87.279,71.664  "/></g></svg>