<?xml version="1.0" ?><!DOCTYPE svg  PUBLIC '-//W3C//DTD SVG 1.1//EN'  'http://www.w3.org/Graphics/SVG/1.1/DTD/svg11.dtd'><svg enable-background="new 0 0 128 128" id="Слой_1" version="1.1" viewBox="0 0 128 128" xml:space="preserve" xmlns="http://www.w3.org/2000/svg" xmlns:xlink="http://www.w3.org/1999/xlink"><g><circle cx="64" cy="64" fill="#65C8CE" r="62"/><path d="M89.796,108.609H38.204c-2.322,0-4.204-1.882-4.204-4.204v-80.81c0-2.322,1.882-4.204,4.204-4.204h51.592   c2.322,0,4.204,1.882,4.204,4.204v80.809C94.001,106.727,92.118,108.609,89.796,108.609z" fill="#333638"/><rect fill="#E7E4DC" height="72.001" width="53.218" x="37.391" y="27.999"/><path d="M57.327,46.039l-0.692-0.253c-0.612-0.223-0.927-0.9-0.704-1.512l4.497-12.326   c0.223-0.612,0.9-0.927,1.512-0.704l0.692,0.253c0.612,0.223,0.927,0.9,0.704,1.512l-4.497,12.326   C58.616,45.947,57.939,46.262,57.327,46.039z" fill="#45474A"/><path d="M71.367,45.787l-0.692,0.253c-0.612,0.224-1.289-0.091-1.513-0.702l-4.51-12.324   c-0.224-0.612,0.091-1.289,0.702-1.513l0.692-0.253c0.612-0.224,1.289,0.091,1.513,0.702l4.51,12.324   C72.293,44.886,71.979,45.563,71.367,45.787z" fill="#45474A"/><path d="M69.39,45.961c0.098,0.268,0.394,0.405,0.662,0.307l1.939-0.709   c0.268-0.098,0.405-0.394,0.307-0.662l-0.944-2.579h-3.297L69.39,45.961z" fill="#050708" opacity="0.2"/><path d="M55.704,44.897c-0.098,0.268,0.04,0.564,0.308,0.662l1.939,0.707   c0.268,0.098,0.564-0.04,0.662-0.308l1.328-3.639h-3.296L55.704,44.897z" fill="#050708" opacity="0.2"/><path d="M80.625,43.194h-33.25c-0.483,0-0.875,0.392-0.875,0.875v2.625c0,0.483,0.392,0.875,0.875,0.875h1.319   L50.635,63.1c0.137,1.095,1.067,1.916,2.171,1.916h22.388c1.103,0,2.034-0.821,2.171-1.916l1.941-15.532h1.319   c0.483,0,0.875-0.392,0.875-0.875v-2.625C81.5,43.585,81.108,43.194,80.625,43.194z M58.312,60.439   c0,0.483-0.392,0.875-0.875,0.875s-0.875-0.392-0.875-0.875v-9.188c0-0.483,0.392-0.875,0.875-0.875s0.875,0.392,0.875,0.875   V60.439z M64.875,60.439c0,0.483-0.392,0.875-0.875,0.875c-0.483,0-0.875-0.392-0.875-0.875v-9.188   c0-0.483,0.392-0.875,0.875-0.875c0.483,0,0.875,0.392,0.875,0.875V60.439z M71.438,60.439c0,0.483-0.392,0.875-0.875,0.875   s-0.875-0.392-0.875-0.875v-9.188c0-0.483,0.392-0.875,0.875-0.875s0.875,0.392,0.875,0.875V60.439z" fill="#C55C44"/><path d="M50.001,47.596l-1.307-0.027L50.635,63.1c0.117,0.935,0.814,1.665,1.702,1.86   c-0.202-0.285-0.343-0.618-0.389-0.985L50.001,47.596z" fill="#F6F7F5" opacity="0.2"/><path d="M47.375,43.194c-0.483,0-0.875,0.392-0.875,0.875v2.625c0,0.483,0.392,0.875,0.875,0.875   h0.438v-3.5c0-0.483,0.392-0.875,0.875-0.875" fill="#F6F7F5" opacity="0.2"/><path d="M80.625,43.194h-0.438v3.5c0,0.483-0.392,0.875-0.875,0.875h1.312   c0.483,0,0.875-0.392,0.875-0.875v-2.625C81.5,43.585,81.108,43.194,80.625,43.194z" fill="#050708" opacity="0.1"/><path d="M79.312,47.517H48.688l0,0l29.079,1.763L76.052,63.1c-0.137,1.095-1.067,1.916-2.171,1.916   h1.312c1.103,0,2.034-0.821,2.171-1.916l1.941-15.532l0,0L79.312,47.517z" fill="#050708" opacity="0.1"/><circle cx="56.979" cy="45.648" fill="#45474A" r="1.094"/><path d="M72.076,45.376c0.196,0.814-0.519,1.529-1.333,1.333c-0.383-0.092-0.697-0.406-0.789-0.789   c-0.196-0.814,0.519-1.529,1.333-1.333C71.67,44.679,71.984,44.993,72.076,45.376z" fill="#45474A"/><circle cx="64" cy="81.005" fill="#FFFFFF" r="12.5"/><path d="M63.999,91.067c-0.802,0-1.56-0.365-2.061-0.991l-7.687-9.62l4.122-3.293l5.618,7.032l9.627-12.133   l4.132,3.279L66.066,90.07c-0.501,0.629-1.259,0.995-2.063,0.997C64.003,91.067,64.001,91.067,63.999,91.067z" fill="#46B19B"/><circle cx="64" cy="104.175" fill="#4B4F51" r="2.609"/><circle cx="64" cy="23.304" fill="#4B4F51" r="1.043"/></g></svg>