<?xml version="1.0" ?><!DOCTYPE svg  PUBLIC '-//W3C//DTD SVG 1.1//EN'  'http://www.w3.org/Graphics/SVG/1.1/DTD/svg11.dtd'><svg enable-background="new 0 0 128 128" id="Слой_1" version="1.1" viewBox="0 0 128 128" xml:space="preserve" xmlns="http://www.w3.org/2000/svg" xmlns:xlink="http://www.w3.org/1999/xlink"><g><path d="M64,2C29.758,2,2,29.758,2,64c0,19.865,9.342,37.548,23.873,48.895c10.516,8.212,65.775,8.198,76.298-0.035   C116.677,101.512,126,83.845,126,64C126,29.758,98.242,2,64,2z M87.976,56.45c-3.57,9.627-12.834,16.488-23.702,16.488   c-2.036,0-4.013-0.248-5.909-0.702C47.258,69.575,39,59.587,39,47.664C39,33.705,50.315,22.39,64.274,22.39   c13.958,0,25.274,11.315,25.274,25.274C89.548,50.754,88.991,53.713,87.976,56.45z" fill="#E7E4DC"/><path d="M100.504,111.652c-0.094-0.068-0.185-0.139-0.279-0.206c-0.57-0.408-1.15-0.802-1.735-1.193   c-0.17-0.113-0.339-0.226-0.51-0.338c-0.621-0.406-1.248-0.803-1.885-1.189c-0.02-0.012-0.04-0.023-0.06-0.035   c-5.297-3.197-11.112-5.673-17.236-7.172c-0.036-0.009-0.072-0.017-0.107-0.026c-0.747-0.181-1.498-0.35-2.255-0.504   c-0.08-0.016-0.16-0.031-0.24-0.047c-0.733-0.146-1.47-0.281-2.212-0.401c-0.073-0.012-0.146-0.022-0.219-0.033   c-0.554-0.087-1.112-0.16-1.67-0.234c-0.01-0.001-0.02-0.003-0.03-0.004c-0.192-0.025-0.382-0.057-0.575-0.081   c-0.049-0.006-0.098-0.01-0.146-0.016c-0.46-0.054-0.924-0.093-1.387-0.138c-0.227-0.022-0.452-0.048-0.68-0.067   c-0.097-0.008-0.192-0.021-0.289-0.029c-0.051-0.004-0.102-0.006-0.153-0.01c-0.354-0.027-0.712-0.041-1.067-0.063   c-0.392-0.024-0.783-0.053-1.177-0.07c-0.029-0.001-0.057-0.004-0.085-0.005c-0.214-0.009-0.431-0.009-0.646-0.015   c-0.544-0.015-1.086-0.037-1.633-0.038c-0.001,0-0.001,0.001-0.002,0.002c-0.025,0-0.049-0.002-0.074-0.002   c-0.042,0-0.084,0.001-0.125,0.002c-0.042-0.001-0.083-0.002-0.125-0.002c-0.025,0-0.049,0.002-0.074,0.002   c-0.001-0.001-0.001-0.002-0.002-0.002c-0.547,0.001-1.089,0.023-1.633,0.038c-0.215,0.007-0.432,0.007-0.646,0.015   c-0.029,0.001-0.057,0.004-0.085,0.005c-0.394,0.017-0.785,0.045-1.177,0.07c-0.355,0.022-0.713,0.036-1.067,0.063   c-0.051,0.004-0.102,0.006-0.153,0.01c-0.097,0.008-0.192,0.021-0.289,0.029c-0.227,0.02-0.453,0.045-0.68,0.067   c-0.463,0.045-0.927,0.083-1.387,0.138c-0.049,0.006-0.098,0.01-0.146,0.016c-0.193,0.023-0.383,0.055-0.575,0.081   c-0.01,0.001-0.02,0.003-0.03,0.004c-0.558,0.073-1.117,0.146-1.67,0.234c-0.073,0.012-0.146,0.022-0.219,0.033   c-0.742,0.12-1.479,0.255-2.212,0.401c-0.08,0.016-0.16,0.031-0.24,0.047c-0.757,0.154-1.508,0.323-2.255,0.504   c-0.036,0.009-0.072,0.017-0.107,0.026c-6.125,1.5-11.939,3.975-17.236,7.172c-0.02,0.012-0.04,0.023-0.06,0.035   c-0.637,0.385-1.264,0.782-1.885,1.189c-0.171,0.112-0.34,0.225-0.51,0.338c-0.584,0.39-1.165,0.784-1.735,1.193   c-0.094,0.067-0.185,0.138-0.279,0.206c-0.558,0.404-1.117,0.807-1.661,1.227c10.504,8.203,23.708,13.107,38.065,13.12   c0.026-0.001,0.051-0.001,0.077-0.002c0.02,0,0.039,0.001,0.059,0.001c14.358-0.019,27.572-4.917,38.073-13.126   C101.615,112.455,101.059,112.054,100.504,111.652z" fill="#355067"/><ellipse cx="64" cy="110.838" enable-background="new    " fill="#0C0D0E" opacity="0.2" rx="7" ry="3.5"/><path d="M64,15.98c-17.656,0-31.969,14.313-31.969,31.969c0,4.742,1.299,10.183,3.495,14.386l0.284,0.51   l26.682,47.935c0,0,0.428,1.114,1.507,1.114c1.026,0,1.507-1.114,1.507-1.114l26.832-48.204c2.371-4.48,3.63-9.886,3.63-14.627   C95.969,30.293,81.656,15.98,64,15.98z M63.983,72.807c-13.669,0-24.75-11.081-24.75-24.75s11.081-24.75,24.75-24.75   s24.75,11.081,24.75,24.75S77.652,72.807,63.983,72.807z" fill="#46B19B"/><path d="M64.274,22.39C50.315,22.39,39,33.705,39,47.664c0,11.923,8.258,21.911,19.365,24.572   c1.896,0.454,3.873,0.702,5.909,0.702c10.868,0,20.132-6.861,23.702-16.488c1.015-2.737,1.572-5.696,1.572-8.786   C89.548,33.705,78.232,22.39,64.274,22.39z" fill="#F6F7F8"/><path d="M52.645,39.207c-0.025,0-0.046,0.012-0.071,0.014l-0.524-2.146C51.81,35.873,50.761,35,49.557,35H47.21   v1.727h2.346c0.378,0,0.722,0.295,0.808,0.723l5.216,21.353c0.164,0.82,0.719,1.477,1.444,1.812   c-0.247,0.43-0.399,0.92-0.399,1.451c0,1.619,1.317,2.935,2.935,2.935s2.935-1.316,2.935-2.935c0-0.432-0.099-0.839-0.267-1.209   h8.888c-0.168,0.37-0.267,0.777-0.267,1.209c0,1.619,1.317,2.935,2.935,2.935c1.618,0,2.935-1.316,2.935-2.935   s-1.317-2.935-2.935-2.935H58.085c-0.393,0-0.734-0.28-0.819-0.701l-0.664-2.718l18.398-1.682c1.24-0.13,2.187-0.931,2.402-1.992   l3.388-12.829H52.645z M60.769,62.065c0,0.666-0.542,1.209-1.209,1.209c-0.666,0-1.209-0.542-1.209-1.209   c0-0.666,0.542-1.209,1.209-1.209C60.227,60.856,60.769,61.399,60.769,62.065z M74.992,62.065c0,0.666-0.542,1.209-1.209,1.209   s-1.209-0.542-1.209-1.209c0-0.666,0.542-1.209,1.209-1.209S74.992,61.399,74.992,62.065z M75.721,51.643   c-0.088,0.432-0.524,0.628-0.891,0.666l-18.643,1.704l-3.195-13.08h25.556L75.721,51.643z" fill="#45474A"/></g></svg>