<?xml version="1.0" ?><!DOCTYPE svg  PUBLIC '-//W3C//DTD SVG 1.1//EN'  'http://www.w3.org/Graphics/SVG/1.1/DTD/svg11.dtd'><svg enable-background="new 0 0 128 128" id="Слой_1" version="1.1" viewBox="0 0 128 128" xml:space="preserve" xmlns="http://www.w3.org/2000/svg" xmlns:xlink="http://www.w3.org/1999/xlink"><g><circle cx="64" cy="64" fill="#F6CA41" r="62"/><path d="M89.796,108.609H38.204c-2.322,0-4.204-1.882-4.204-4.204v-80.81c0-2.322,1.882-4.204,4.204-4.204h51.592   c2.322,0,4.204,1.882,4.204,4.204v80.809C94.001,106.727,92.118,108.609,89.796,108.609z" fill="#333638"/><rect fill="#46B19B" height="72.001" width="53.218" x="37.391" y="27.999"/><path d="M52.645,53.207c-0.025,0-0.046,0.012-0.071,0.014l-0.524-2.146C51.81,49.873,50.761,49,49.557,49H47.21   v1.727h2.346c0.378,0,0.722,0.295,0.808,0.723l5.216,21.353c0.164,0.82,0.719,1.477,1.444,1.812   c-0.247,0.43-0.399,0.92-0.399,1.451c0,1.619,1.317,2.935,2.935,2.935s2.935-1.316,2.935-2.935c0-0.432-0.099-0.839-0.267-1.209   h8.888c-0.168,0.37-0.267,0.777-0.267,1.209c0,1.619,1.317,2.935,2.935,2.935c1.618,0,2.935-1.316,2.935-2.935   c0-1.619-1.317-2.935-2.935-2.935H58.085c-0.393,0-0.734-0.28-0.819-0.701l-0.664-2.718l18.398-1.682   c1.24-0.13,2.187-0.931,2.402-1.992l3.388-12.829H52.645z M60.769,76.065c0,0.666-0.542,1.209-1.209,1.209   c-0.666,0-1.209-0.542-1.209-1.209c0-0.666,0.542-1.209,1.209-1.209C60.227,74.856,60.769,75.399,60.769,76.065z M74.992,76.065   c0,0.666-0.542,1.209-1.209,1.209s-1.209-0.542-1.209-1.209c0-0.666,0.542-1.209,1.209-1.209S74.992,75.399,74.992,76.065z    M75.721,65.643c-0.088,0.432-0.524,0.628-0.891,0.666l-18.643,1.704l-3.195-13.08h25.556L75.721,65.643z" fill="#FFFFFF"/><circle cx="64" cy="104.175" fill="#4B4F51" r="2.609"/><circle cx="64" cy="23.304" fill="#4B4F51" r="1.043"/></g></svg>