<?xml version="1.0" ?><!DOCTYPE svg  PUBLIC '-//W3C//DTD SVG 1.1//EN'  'http://www.w3.org/Graphics/SVG/1.1/DTD/svg11.dtd'><svg enable-background="new 0 0 128 128" id="Слой_1" version="1.1" viewBox="0 0 128 128" xml:space="preserve" xmlns="http://www.w3.org/2000/svg" xmlns:xlink="http://www.w3.org/1999/xlink"><g><circle cx="64" cy="64" fill="#F6CA41" r="62"/><path d="M89.796,108.609H38.204c-2.322,0-4.204-1.882-4.204-4.204v-80.81c0-2.322,1.882-4.204,4.204-4.204h51.592   c2.322,0,4.204,1.882,4.204,4.204v80.809C94.001,106.727,92.118,108.609,89.796,108.609z" fill="#333638"/><rect fill="#46B19B" height="72.001" width="53.218" x="37.391" y="27.999"/><path d="M51.421,83.447h-8c-0.552,0-1-0.448-1-1v-8.01c0-0.552,0.448-1,1-1h8c0.552,0,1,0.448,1,1   v8.01C52.421,82.999,51.973,83.447,51.421,83.447z" fill="#FFFFFF" opacity="0.9"/><path d="M47.779,82.505c-0.38,0-0.739-0.173-0.977-0.47l-3.643-4.559l1.953-1.561l2.663,3.332l4.561-5.749   l1.959,1.554l-5.536,6.979c-0.237,0.299-0.597,0.473-0.977,0.474C47.78,82.505,47.78,82.505,47.779,82.505z" fill="#7C4D4C"/><rect fill="#FFFFFF" height="2.5" opacity="0.9" width="28" x="55.45" y="74.187"/><rect fill="#FFFFFF" height="2.5" opacity="0.9" width="14" x="55.45" y="79.187"/><path d="M53.357,94.241H43.45c-0.552,0-1-0.448-1-1V87.75c0-0.552,0.448-1,1-1h9.906c0.552,0,1,0.448,1,1v5.491   C54.357,93.793,53.909,94.241,53.357,94.241z" fill="#FFFFFF"/><polygon fill="#314F67" points="46.985,91.93 47.471,89.078 48.249,89.078 47.762,91.93 46.985,91.93  "/><path d="M50.582,89.148c-0.154-0.058-0.395-0.12-0.697-0.12c-0.768,0-1.309,0.387-1.314,0.941   c-0.004,0.41,0.386,0.639,0.681,0.775c0.303,0.14,0.405,0.229,0.403,0.354c-0.002,0.191-0.242,0.278-0.465,0.278   c-0.311,0-0.476-0.043-0.732-0.15l-0.1-0.045l-0.109,0.639c0.181,0.08,0.517,0.149,0.866,0.152c0.817,0,1.347-0.382,1.354-0.974   c0.003-0.324-0.204-0.571-0.652-0.775c-0.272-0.132-0.438-0.22-0.437-0.354c0-0.119,0.141-0.245,0.445-0.245   c0.254-0.004,0.438,0.051,0.582,0.109l0.07,0.033L50.582,89.148L50.582,89.148z" fill="#314F67"/><path d="M52.575,89.08h-0.601c-0.186,0-0.325,0.051-0.407,0.237l-1.154,2.614h0.816c0,0,0.133-0.351,0.164-0.429   c0.089,0,0.882,0.001,0.996,0.001c0.023,0.1,0.094,0.427,0.094,0.427h0.722L52.575,89.08L52.575,89.08z M51.617,90.919   c0.064-0.164,0.31-0.797,0.31-0.797c-0.004,0.008,0.064-0.165,0.103-0.272l0.053,0.246c0,0,0.149,0.681,0.18,0.824H51.617   L51.617,90.919z" fill="#314F67"/><path d="M46.333,89.08l-0.761,1.945l-0.081-0.395c-0.141-0.456-0.583-0.949-1.076-1.197l0.696,2.494l0.822-0.001   l1.224-2.847H46.333L46.333,89.08z" fill="#314F67"/><path d="M44.866,89.078h-1.254l-0.01,0.059c0.975,0.236,1.621,0.807,1.888,1.492l-0.272-1.311   C45.172,89.138,45.035,89.084,44.866,89.078L44.866,89.078z" fill="#E6C35F"/><path d="M42.45,87.529v0.661h11.906v-0.661c0-0.43-0.349-0.779-0.779-0.779H43.23   C42.799,86.75,42.45,87.099,42.45,87.529z" fill="#314F67"/><path d="M42.45,92.801v0.67c0,0.392,0.29,0.716,0.668,0.77h10.57c0.378-0.054,0.668-0.378,0.668-0.77v-0.67H42.45z" fill="#E6C35F"/><circle cx="64" cy="39.438" fill="#FFFFFF" r="10"/><path d="M68.619,36.922c0,2.444-2.068,6.98-4.619,6.98s-4.619-4.536-4.619-6.98s2.068-4.425,4.619-4.425   S68.619,34.478,68.619,36.922z" fill="#45474A"/><path d="M64,49.438c3.046,0,5.769-1.366,7.603-3.514c-0.656-1.046-1.981-1.863-3.711-2.345   c-1.036,1.261-2.354,2.149-3.892,2.149c-1.538,0-2.856-0.889-3.892-2.149c-1.73,0.482-3.055,1.299-3.711,2.345   C58.231,48.071,60.954,49.438,64,49.438z" fill="#45474A"/><circle cx="64" cy="104.175" fill="#4B4F51" r="2.609"/><circle cx="64" cy="23.304" fill="#4B4F51" r="1.043"/><rect fill="#FFFFFF" height="2.5" opacity="0.9" width="28" x="55.45" y="51.749"/><rect fill="#FFFFFF" height="2.5" opacity="0.9" width="14" x="55.45" y="56.749"/><rect fill="#FFFFFF" height="2.5" opacity="0.9" width="21" x="55.45" y="61.749"/><rect fill="#FFFFFF" height="2.5" opacity="0.9" width="17" x="55.45" y="66.749"/><rect fill="#FFFFFF" height="2.5" width="10" x="42.45" y="56.749"/><rect fill="#FFFFFF" height="2.5" opacity="0.9" width="10" x="42.45" y="61.749"/><rect fill="#FFFFFF" height="2.5" width="10" x="42.45" y="66.749"/><rect fill="#FFFFFF" height="2.5" width="5" x="56.45" y="89.246"/><rect fill="#FFFFFF" height="2.5" width="5" x="62.45" y="89.246"/><rect fill="#FFFFFF" height="2.5" width="5" x="68.45" y="89.246"/><rect fill="#FFFFFF" height="2.5" width="5" x="74.45" y="89.246"/><rect fill="#FFFFFF" height="2.5" width="5" x="80.45" y="89.246"/><rect fill="#FFFFFF" height="2.5" width="10" x="42.45" y="51.749"/></g></svg>