<?xml version="1.0" ?><!DOCTYPE svg  PUBLIC '-//W3C//DTD SVG 1.1//EN'  'http://www.w3.org/Graphics/SVG/1.1/DTD/svg11.dtd'><svg enable-background="new 0 0 128 128" id="Слой_1" version="1.1" viewBox="0 0 128 128" xml:space="preserve" xmlns="http://www.w3.org/2000/svg" xmlns:xlink="http://www.w3.org/1999/xlink"><g><circle cx="64" cy="64" fill="#E7E4DC" r="62"/><path d="M89.796,108.609H38.204c-2.322,0-4.204-1.882-4.204-4.204v-80.81c0-2.322,1.882-4.204,4.204-4.204h51.592   c2.322,0,4.204,1.882,4.204,4.204v80.809C94.001,106.727,92.118,108.609,89.796,108.609z" fill="#333638"/><rect fill="#F6CA41" height="72.001" width="53.218" x="37.391" y="27.999"/><circle cx="64" cy="81.005" fill="#FFFFFF" r="12.5"/><path d="M63.999,91.067c-0.802,0-1.56-0.365-2.061-0.991l-7.687-9.62l4.122-3.293l5.618,7.032l9.627-12.133   l4.132,3.279L66.066,90.07c-0.501,0.629-1.259,0.995-2.063,0.997C64.003,91.067,64.001,91.067,63.999,91.067z" fill="#46B19B"/><circle cx="64" cy="48" fill="#FFFFFF" r="10"/><path d="M64,59c3.046,0,5.769-2.366,7.603-4.514c-0.656-1.046-1.981-1.863-3.711-2.345   C66.856,53.402,65.538,54.29,64,54.29c-1.538,0-2.856-0.889-3.892-2.149c-1.73,0.482-3.055,1.299-3.711,2.345   C58.231,56.634,60.954,59,64,59z" fill="#65C8CE"/><path d="M76.618,49.141L79,48.037l-0.228-2.605l-2.537-0.674l-0.755-2.075l1.51-2.147l-1.5-2.142l-2.534,0.685   l-1.691-1.419l0.235-2.615l-2.37-1.105l-1.852,1.86l-2.174-0.383L64,33.037l-2.605,0.228l-0.674,2.537l-2.075,0.755l-2.147-1.51   l-2.142,1.5l0.685,2.534l-1.419,1.691l-2.614-0.235l-1.105,2.37l1.86,1.852l-0.383,2.174L49,48.037l0.228,2.605l2.537,0.674   l0.755,2.075l-1.51,2.147l1.5,2.142l2.534-0.685l1.691,1.419L56.5,61.027l2.37,1.105l1.852-1.86l2.174,0.383L64,63.037l2.605-0.228   l0.674-2.537l2.075-0.755l2.147,1.51l2.142-1.5l-0.685-2.534l1.419-1.691l2.614,0.235l1.105-2.37l-1.86-1.852L76.618,49.141z    M64,58c-5.523,0-10-4.477-10-10c0-5.523,4.477-10,10-10s10,4.477,10,10C74,53.523,69.523,58,64,58z" fill="#45474A"/><path d="M64,38c2.634,0,5.023,1.026,6.809,2.691c-1.826-1.959-4.42-3.191-7.309-3.191   c-5.523,0-10,4.477-10,10c0,2.889,1.232,5.484,3.191,7.309C55.027,53.024,54,50.634,54,48C54,42.478,58.478,38,64,38z" fill="#030405" opacity="0.2"/><path d="M71.309,41.191C72.974,42.977,74,45.366,74,48c0,5.523-4.477,10-10,10   c-2.634,0-5.023-1.026-6.809-2.691c1.825,1.959,4.42,3.191,7.309,3.191c5.523,0,10-4.477,10-10   C74.5,45.611,73.268,43.016,71.309,41.191z" fill="#F8F7F9" opacity="0.2"/><path d="M68.619,45.485c0,2.444-2.068,6.98-4.619,6.98s-4.619-4.536-4.619-6.98s2.068-4.425,4.619-4.425   S68.619,43.04,68.619,45.485z" fill="#65C8CE"/><circle cx="64" cy="104.175" fill="#4B4F51" r="2.609"/><circle cx="64" cy="23.304" fill="#4B4F51" r="1.043"/></g></svg>