<?xml version="1.0" ?><!DOCTYPE svg  PUBLIC '-//W3C//DTD SVG 1.1//EN'  'http://www.w3.org/Graphics/SVG/1.1/DTD/svg11.dtd'><svg enable-background="new 0 0 128 128" id="Слой_1" version="1.1" viewBox="0 0 128 128" xml:space="preserve" xmlns="http://www.w3.org/2000/svg" xmlns:xlink="http://www.w3.org/1999/xlink"><g><circle cx="64" cy="64" fill="#E7E4DC" r="62"/><path d="M102.222,99.833H25.778c-2.639,0-4.778-2.139-4.778-4.778V32.944h86v62.111   C107,97.694,104.861,99.833,102.222,99.833z" fill="#FFFFFF"/><rect fill="#BDBCBB" height="2.5" width="20" x="31" y="56.5"/><rect fill="#BDBCBB" height="2.5" width="20" x="54" y="56.5"/><rect fill="#BDBCBB" height="2.5" width="20" x="77" y="56.5"/><path d="M102.222,28.167H25.778c-2.639,0-4.778,2.139-4.778,4.778v6.36h86v-6.36   C107,30.306,104.861,28.167,102.222,28.167z" fill="#4A4946"/><circle cx="26.306" cy="33.9" fill="#C55C44" r="2.389"/><circle cx="32.995" cy="33.9" fill="#F6CA41" r="2.389"/><circle cx="39.684" cy="33.9" fill="#46B19B" r="2.389"/><rect fill="#46B19B" height="20" width="20" x="54" y="62"/><rect fill="#F6CA41" height="20" width="20" x="31" y="62"/><path d="M28.293,76.242l-3.535-3.535c-0.391-0.391-0.391-1.023,0-1.414l3.535-3.535l1.414,1.414L26.879,72   l2.828,2.828L28.293,76.242z" fill="#4A4946"/><path d="M99.879,76.242l3.535-3.535c0.391-0.391,0.391-1.023,0-1.414l-3.535-3.535l-1.414,1.414L101.293,72   l-2.828,2.828L99.879,76.242z" fill="#4A4946"/><rect fill="#C55C44" height="20" width="20" x="77" y="62"/><rect fill="#46B19B" height="14.833" width="20" x="54" y="85"/><rect fill="#F6CA41" height="14.833" width="20" x="31" y="85"/><rect fill="#C55C44" height="14.833" width="20" x="77" y="85"/><rect fill="#65C8CE" height="9.41" width="86" x="21" y="39.304"/></g></svg>