<?xml version="1.0" ?><!DOCTYPE svg  PUBLIC '-//W3C//DTD SVG 1.1//EN'  'http://www.w3.org/Graphics/SVG/1.1/DTD/svg11.dtd'><svg enable-background="new 0 0 128 128" id="Слой_1" version="1.1" viewBox="0 0 128 128" xml:space="preserve" xmlns="http://www.w3.org/2000/svg" xmlns:xlink="http://www.w3.org/1999/xlink"><g><path d="M64,2C29.758,2,2,29.758,2,64c0,18.993,8.541,35.992,21.991,47.365c10.798,9.13,68.729,9.322,79.447,0.477   C117.217,100.47,126,83.261,126,64C126,29.758,98.242,2,64,2z" fill="#46B19B"/><path d="M84.157,38.101c-0.65,0-1.176-0.526-1.176-1.176v-4.683c0-10.738-8.87-20.157-18.982-20.157   s-18.982,9.42-18.982,20.157v4.683c0,0.65-0.526,1.176-1.176,1.176s-1.176-0.526-1.176-1.176v-4.683   c0-12.201,9.77-22.509,21.333-22.509s21.333,10.308,21.333,22.509v4.683C85.333,37.575,84.807,38.101,84.157,38.101z" fill="#FFFFFF"/><path d="M100,40.444V26H28v14.444L24,44v2.333h80V44L100,40.444z" fill="#C55C44"/><path d="M24,111.355C34.798,120.485,48.752,126,64,126s29.202-5.515,40-14.645V44H24V111.355z" fill="#F6CA41"/><polygon fill="#F6CA41" points="28,26 28,40.444 36,33.333  "/><polygon fill="#F6CA41" points="100,26 100,40.444 92,33.333  "/><polygon fill="#050708" opacity="0.15" points="24,44 36,33.333 36,44  "/><polygon fill="#050708" opacity="0.15" points="104,44 92,33.333 92,44  "/><circle cx="41.143" cy="54.476" fill="#45474A" r="3.81"/><circle cx="86.857" cy="54.476" fill="#45474A" r="3.81"/><path d="M86.857,56c-0.737,0-1.333-0.596-1.333-1.333v-5.31C85.523,37.181,75.466,26.5,64,26.5   S42.477,37.181,42.477,49.357v5.31c0,0.737-0.596,1.333-1.333,1.333c-0.737,0-1.333-0.596-1.333-1.333v-5.31   c0-13.835,11.078-25.523,24.19-25.523s24.19,11.689,24.19,25.523v5.31C88.19,55.404,87.594,56,86.857,56z" fill="#FFFFFF"/><path d="M64.109,58.001C64.108,58.001,64.001,58,64,58c-6.208,0-12.165,1.88-17.227,5.436   C38.775,69.056,34,78.238,34,88c0,16.542,13.458,30,30,30c0.001,0,0.108-0.001,0.109-0.001C80.591,117.94,94,104.483,94,88   C94,71.518,80.591,58.06,64.109,58.001z M81.019,87.032c-0.045-5.309-0.93-10.506-2.603-15.439c2.159-0.66,4.278-1.466,6.35-2.43   c4.326,4.764,7.048,11.009,7.282,17.868H81.019z M69.981,115.414c-1.624,0.355-3.299,0.566-5.013,0.625v-11.447   c3.541,0.07,7.012,0.524,10.39,1.355C73.948,109.269,72.153,112.442,69.981,115.414z M77.252,106.448   c1.97,0.574,3.904,1.285,5.801,2.119c-2.892,2.681-6.345,4.761-10.163,6.042C74.607,112.011,76.068,109.283,77.252,106.448z    M58.966,115.59c-2.271-3.078-4.14-6.373-5.588-9.829c3.145-0.72,6.37-1.105,9.655-1.17v11.448   c-1.381-0.047-2.736-0.194-4.059-0.435C58.969,115.601,58.969,115.595,58.966,115.59z M56.145,114.939   c-4.233-1.237-8.053-3.446-11.205-6.369c2.135-0.94,4.317-1.724,6.545-2.333C52.732,109.267,54.289,112.179,56.145,114.939z    M63.032,59.972v11.811c-3.466-0.069-6.864-0.501-10.172-1.298c1.333-3.474,3.076-6.8,5.223-9.912   C59.701,60.227,61.355,60.029,63.032,59.972z M70.884,60.794c2.039,2.991,3.711,6.176,5.003,9.501   c-3.543,0.916-7.192,1.415-10.919,1.488V59.961C67.001,60.031,68.981,60.311,70.884,60.794z M73.769,61.699   c3.588,1.34,6.831,3.393,9.557,5.988c-1.821,0.815-3.678,1.512-5.567,2.085C76.684,66.977,75.351,64.277,73.769,61.699z    M63.032,73.718v13.314H49.734c0.045-5.06,0.884-10.013,2.468-14.718C55.723,73.179,59.34,73.648,63.032,73.718z M63.032,88.968   v13.689c-3.53,0.067-6.994,0.496-10.37,1.29c-1.765-4.761-2.747-9.8-2.907-14.978H63.032z M64.968,102.656V88.968h14.095   c-0.162,5.245-1.169,10.349-2.979,15.166C72.472,103.224,68.759,102.728,64.968,102.656z M64.968,87.032V73.718   c3.956-0.075,7.827-0.61,11.584-1.596c1.627,4.762,2.486,9.782,2.532,14.91H64.968z M47.885,65.02   c2.29-1.609,4.78-2.843,7.394-3.696c-1.728,2.761-3.166,5.667-4.306,8.679c-2.149-0.614-4.252-1.399-6.314-2.323   C45.663,66.724,46.734,65.829,47.885,65.02z M43.216,69.156c2.315,1.077,4.686,1.973,7.109,2.671   c-1.623,4.863-2.482,9.979-2.526,15.205H35.952C36.183,80.359,38.799,74.034,43.216,69.156z M47.82,88.968   c0.159,5.339,1.158,10.536,2.957,15.452c-2.493,0.693-4.933,1.592-7.314,2.684c-4.462-4.793-7.273-11.143-7.511-18.136H47.82z    M84.53,107.101c-2.142-0.982-4.334-1.798-6.567-2.458c1.85-4.982,2.873-10.257,3.034-15.675h11.05   C91.809,95.953,88.996,102.305,84.53,107.101z" fill="#FFFFFF"/></g></svg>