<?xml version="1.0" ?><!DOCTYPE svg  PUBLIC '-//W3C//DTD SVG 1.1//EN'  'http://www.w3.org/Graphics/SVG/1.1/DTD/svg11.dtd'><svg enable-background="new 0 0 128 128" id="Слой_1" version="1.1" viewBox="0 0 128 128" xml:space="preserve" xmlns="http://www.w3.org/2000/svg" xmlns:xlink="http://www.w3.org/1999/xlink"><g><path d="M64,2C29.758,2,2,29.758,2,64c0,14.502,4.979,27.841,13.321,38.401   c6.382,8.079,58.426,23.021,63.034,21.929C105.675,117.854,126,93.3,126,64c0-3.307-0.259-6.554-0.758-9.721   c-1.287-8.173-16.207-33.406-21.3-37.701C93.153,7.482,79.217,2,64,2z" fill="#65C8CE"/><path d="M103.934,16.587c-2.12-0.751-4.4-1.166-6.779-1.166c-10.193,0-18.614,7.494-20.117,17.267   c-0.545-0.079-1.098-0.133-1.665-0.133c-6.362,0-11.519,5.031-11.519,11.393S69.01,56,75.372,56c1.105,0,15.184,0,15.184,0h17.5   c0,0,9.095,0,9.848,0c2.646,0,5.136-0.622,7.333-1.718C122.866,39.23,115.078,25.984,103.934,16.587z" fill="#FAFCFD"/><path d="M69.334,105.556c-0.567,0-1.12,0.054-1.665,0.133c-1.503-9.773-9.924-17.267-20.117-17.267   c-7.273,0-13.639,3.817-17.245,9.55c-1.129-0.253-2.298-0.408-3.504-0.408c-4.506,0-8.568,1.848-11.469,4.825   C26.688,116.764,44.26,126,64,126c4.942,0,9.742-0.595,14.35-1.688c1.563-2.077,2.503-4.657,2.503-7.364   C80.853,110.587,75.696,105.556,69.334,105.556z" fill="#FAFCFD"/><path d="M116.208,30.578c0.126,0.196,0.253,0.39,0.377,0.587C116.461,30.968,116.333,30.773,116.208,30.578z" fill="#FAFCFD"/><path d="M122.411,43.193c0.096,0.269,0.183,0.542,0.275,0.813C122.594,43.735,122.507,43.462,122.411,43.193z" fill="#FAFCFD"/><path d="M118.985,35.362c0.136,0.261,0.271,0.524,0.403,0.787C119.256,35.886,119.122,35.623,118.985,35.362z" fill="#FAFCFD"/><path d="M117.637,32.916c0.137,0.235,0.273,0.471,0.407,0.708C117.91,33.387,117.774,33.152,117.637,32.916z" fill="#FAFCFD"/><path d="M120.237,37.896c0.129,0.277,0.253,0.557,0.378,0.836C120.49,38.453,120.366,38.173,120.237,37.896z" fill="#FAFCFD"/><path d="M121.381,40.509c0.116,0.282,0.224,0.567,0.336,0.852C121.605,41.076,121.497,40.791,121.381,40.509z" fill="#FAFCFD"/><path d="M113.307,26.427c0.011,0.014,0.022,0.028,0.033,0.042C113.33,26.455,113.318,26.441,113.307,26.427z" fill="#FAFCFD"/><polygon fill="#FAFCFD" points="103.934,16.587 103.934,16.587 103.934,16.587  "/><path d="M114.731,28.379c0.094,0.134,0.191,0.265,0.284,0.4C114.922,28.644,114.825,28.512,114.731,28.379z" fill="#FAFCFD"/><path d="M123.32,45.943c0.063,0.206,0.116,0.416,0.177,0.622C123.437,46.358,123.383,46.149,123.32,45.943z" fill="#FAFCFD"/><polygon fill="#FAFCFD" points="125.236,54.282 125.236,54.278 125.236,54.282  "/><polygon fill="#FAFCFD" points="113.341,26.469 113.33,26.455 113.341,26.469  "/><path d="M115.016,28.779c-0.074-0.107-0.151-0.213-0.227-0.319c0.075,0.108,0.154,0.213,0.228,0.321   C115.016,28.78,115.016,28.779,115.016,28.779z" fill="#FAFCFD"/><path d="M108.743,21.106c0.093,0.097,0.186,0.195,0.279,0.293C108.929,21.3,108.836,21.203,108.743,21.106z" fill="#FAFCFD"/><path d="M106.382,18.769c0.079,0.074,0.156,0.15,0.235,0.224C106.539,18.919,106.461,18.843,106.382,18.769z" fill="#FAFCFD"/><path d="M111.031,23.626c0.07,0.081,0.141,0.161,0.211,0.243C111.172,23.787,111.101,23.708,111.031,23.626z" fill="#FAFCFD"/><path d="M43.038,122.358c-0.045-0.016-0.09-0.03-0.135-0.046C42.948,122.329,42.994,122.342,43.038,122.358z" fill="#FAFCFD"/><path d="M46.906,123.594c-0.295-0.084-0.592-0.163-0.885-0.251C46.313,123.431,46.611,123.509,46.906,123.594z" fill="#FAFCFD"/><path d="M33.659,118.064c-0.158-0.089-0.313-0.18-0.47-0.271C33.346,117.884,33.502,117.975,33.659,118.064z" fill="#FAFCFD"/><path d="M30.731,116.306c-0.132-0.084-0.264-0.168-0.395-0.253C30.467,116.138,30.599,116.222,30.731,116.306z" fill="#FAFCFD"/><path d="M36.625,119.632c-0.126-0.062-0.25-0.129-0.375-0.192C36.375,119.503,36.499,119.57,36.625,119.632z" fill="#FAFCFD"/><path d="M60.545,125.899c-0.367-0.02-0.729-0.057-1.094-0.083C59.816,125.843,60.178,125.879,60.545,125.899z" fill="#FAFCFD"/><path d="M57.125,125.612c-0.417-0.046-0.83-0.104-1.245-0.158C56.295,125.508,56.708,125.566,57.125,125.612z" fill="#FAFCFD"/><path d="M53.732,125.138c-0.413-0.069-0.824-0.143-1.235-0.221C52.907,124.995,53.318,125.069,53.732,125.138z" fill="#FAFCFD"/><path d="M50.35,124.474c-0.379-0.085-0.757-0.17-1.133-0.262C49.592,124.304,49.971,124.389,50.35,124.474z" fill="#FAFCFD"/><path d="M71.674,125.51c-0.196,0.024-0.391,0.052-0.588,0.075C71.282,125.562,71.478,125.535,71.674,125.51z" fill="#FAFCFD"/><path d="M67.511,125.895c0.249-0.014,0.495-0.039,0.743-0.057C68.006,125.855,67.76,125.881,67.511,125.895z" fill="#FAFCFD"/><polygon fill="#FAFCFD" points="15.334,102.389 15.334,102.39 15.334,102.389  "/><path d="M75.006,125.006c-0.096,0.017-0.192,0.035-0.289,0.052C74.814,125.041,74.91,125.024,75.006,125.006z" fill="#FAFCFD"/><path d="M27.785,114.309c-0.054-0.039-0.108-0.076-0.162-0.115C27.677,114.233,27.732,114.271,27.785,114.309z" fill="#FAFCFD"/><path d="M27.785,114.309c0.001,0,0.001,0.001,0.002,0.001c-0.041-0.029-0.082-0.058-0.123-0.087   C27.705,114.252,27.745,114.28,27.785,114.309z" fill="#FAFCFD"/><path d="M50.35,124.474C50.35,124.474,50.35,124.474,50.35,124.474c-0.029-0.007-0.059-0.014-0.088-0.02   C50.291,124.46,50.32,124.467,50.35,124.474z" fill="#FAFCFD"/><path d="M21.079,108.717c-0.003-0.003-0.007-0.006-0.01-0.009C21.072,108.711,21.076,108.714,21.079,108.717z" fill="#FAFCFD"/><path d="M53.732,125.138C53.732,125.138,53.732,125.138,53.732,125.138c-0.284-0.047-0.566-0.1-0.849-0.152   C53.165,125.038,53.448,125.091,53.732,125.138z" fill="#FAFCFD"/><path d="M66.654,125.933C65.773,125.97,64.89,126,64,126C64.89,126,65.774,125.972,66.654,125.933z" fill="#FAFCFD"/><path d="M57.125,125.612c0.001,0,0.001,0,0.002,0c-0.35-0.039-0.696-0.088-1.044-0.133   C56.429,125.525,56.775,125.573,57.125,125.612z" fill="#FAFCFD"/><polygon fill="#FAFCFD" points="78.35,124.312 78.35,124.312 78.349,124.312  "/><rect fill="#FAFCFD" height="0.001" width="0.001" x="15.334" y="102.389"/><path d="M60.545,125.899L60.545,125.899c-0.019-0.001-0.037-0.003-0.056-0.004   C60.507,125.896,60.526,125.898,60.545,125.899z" fill="#FAFCFD"/><path d="M25.978,112.955c-0.052-0.041-0.104-0.082-0.156-0.122C25.875,112.874,25.926,112.915,25.978,112.955z" fill="#FAFCFD"/><path d="M82.484,40.072l-3.919,4.219h2.604l1.949-4.047C83.148,39.875,82.645,39.739,82.484,40.072z" fill="#FFFFFF" opacity="0.3"/><path d="M50.969,48.589V66.61c0,2.374,1.924,4.298,4.298,4.298h6.643V44.291h-6.643   C52.893,44.291,50.969,46.215,50.969,48.589z" fill="#F6CA41"/><path d="M50.969,63.07v3.919c0,2.164,1.755,3.919,3.919,3.919h7.022v-3.919h-7.022   C52.723,66.989,50.969,65.234,50.969,63.07z" fill="#010203" opacity="0.1"/><path d="M50.969,48.21v3.919c0-2.165,1.755-3.919,3.919-3.919h7.022v-3.919h-7.022   C52.723,44.291,50.969,46.046,50.969,48.21z" fill="#FFFFFF" opacity="0.3"/><path d="M122.197,42.58c-8.797-1.188-15.899-2.594-26.316-2.808l-0.129-0.008c-0.376-0.024-0.695,0.275-0.695,0.652   l-0.025,2.18c-0.017,1.417-0.571,2.797-1.608,3.762c-1.398,1.301-3.273,2.098-5.334,2.098c-3.001,0-5.605-1.688-6.922-4.164h-19.26   v26.617h33.582c4.278,0,8.549-0.325,12.777-0.972l17.677-3.776C125.97,65.442,126,64.725,126,64   C126,56.471,124.656,49.256,122.197,42.58z" fill="#C55C44"/><path d="M108.344,43.504l-9.173,4.972v10.987l9.173,5.531l9.173-5.531V48.476L108.344,43.504z M108.344,44.098   l8.43,4.569l-2.728,1.456l-8.297-4.618L108.344,44.098z M105.205,45.8l8.521,4.743v1.703l-1.706,0.933V51.35l-8.414-4.684   L105.205,45.8z M108.083,64.226l-8.39-5.059V49.051l8.39,4.565V64.226z M99.997,48.622l3.065-1.661l8.276,4.607l-2.993,1.597   L99.997,48.622z M116.995,59.168l-8.39,5.059V53.618l2.892-1.544v1.984l2.75-1.504v-1.948l2.747-1.466V59.168z" fill="#F6CA41"/><path d="M64.135,49.037c-0.373-0.392-1.793,0.958-1.42,1.35C68.58,55.24,74.43,61.514,80.269,68.858   c0.373,0.392,0.993,0.407,1.385,0.035c0.392-0.373,0.407-0.993,0.035-1.385C76.376,60.33,70.589,54.053,64.135,49.037z" fill="#010203" opacity="0.1"/><path d="M79.394,49.081c-0.373-0.392-1.793,0.958-1.42,1.351   c5.865,4.852,11.715,11.126,17.553,18.471c0.373,0.392,0.993,0.407,1.385,0.035s0.407-0.993,0.035-1.385   C91.635,60.375,85.847,54.097,79.394,49.081z" fill="#010203" opacity="0.1"/><path d="M97.764,39.826c-0.636-0.02-1.274-0.041-1.882-0.054l-0.129-0.008   c-0.376-0.024-0.695,0.275-0.695,0.652l-0.025,2.18c-0.017,1.417-0.571,2.797-1.608,3.762c-0.52,0.484-1.122,0.869-1.758,1.198   c-1.076,0.557-2.28,0.9-3.575,0.9c-3.001,0-5.605-1.688-6.922-4.164h-8.991c15.49,6.346,26.15,15.049,31.854,26.17c0,0,0,0,0.001,0   c1.415-0.144,2.828-0.31,4.235-0.525l17.677-3.776C125.97,65.442,126,64.725,126,64c0-5.054-0.619-9.962-1.76-14.665   c-4.621-3.335-10.04-6.26-16.339-8.735C104.765,40.239,101.469,39.957,97.764,39.826z" fill="#010203" opacity="0.1"/><path d="M125.977,63.087l-17.709,2.93c-4.228,0.647-8.5,0.972-12.777,0.972H61.909v3.919h33.582   c4.277,0,8.549-0.325,12.777-0.972l17.677-3.776C125.97,65.442,126,64.725,126,64C126,63.694,125.981,63.392,125.977,63.087z" fill="#010203" opacity="0.1"/><path d="M81.169,44.291h-19.26v3.919c0,0,23.181,0.245,26.182,0.245   C85.09,48.455,82.486,46.768,81.169,44.291z" fill="#FFFFFF" opacity="0.3"/><path d="M95.882,39.772l-0.129-0.008c-0.376-0.024-0.695,0.275-0.695,0.652l-0.025,2.18l0.025,0.433   c0-0.377,0.113-0.802,0.49-0.778c10.701,0.22,18.031,1.263,27.264,2.13c-0.201-0.602-0.396-1.207-0.615-1.8   C113.4,41.392,106.298,39.986,95.882,39.772z" fill="#FFFFFF" opacity="0.3"/><path d="M63.633,30.904c-0.541,0-0.98,0.439-0.98,0.98V50.17c0,0.541,1.96,0.541,1.96,0V31.883   C64.613,31.342,64.174,30.904,63.633,30.904z" fill="#AFADAD"/><path d="M62.327,69.768V89.36c0,0.722,0.585,1.306,1.306,1.306c0.721,0,1.306-0.585,1.306-1.306V69.768   C64.94,69.046,62.327,69.046,62.327,69.768z" fill="#AFADAD"/><path d="M77.944,68.949L62.198,88.542c-0.452,0.563-0.363,1.385,0.2,1.837c0.241,0.194,0.531,0.288,0.818,0.288   c0.382,0,0.761-0.167,1.019-0.488L79.98,70.586c0.452-0.563,0.363-1.385-0.2-1.836C79.219,68.298,78.396,68.388,77.944,68.949z" fill="#AFADAD"/><path d="M78.892,30.904c-0.541,0-0.98,0.439-0.98,0.98V50.17c0,0.541,1.96,0.541,1.96,0V31.883   C79.872,31.342,79.433,30.904,78.892,30.904z" fill="#AFADAD"/><path d="M77.72,56.528c-1.024-2.082-2.187-4.265-3.344-6.451c-1.197-2.164-2.387-4.333-3.571-6.328   c-1.17-2.003-2.302-3.851-3.307-5.417c-1.991-3.141-3.486-5.144-3.486-5.144s0.86,2.347,2.401,5.731   c0.761,1.697,1.69,3.655,2.728,5.73c1.023,2.083,2.189,4.264,3.346,6.45c1.198,2.164,2.389,4.331,3.573,6.327   c1.171,2.002,2.302,3.851,3.307,5.416c1.99,3.141,3.484,5.145,3.484,5.145s-0.861-2.346-2.404-5.73   C79.686,60.561,78.756,58.604,77.72,56.528z" fill="#6E4D31"/><path d="M93.47,56.667c-1.043-2.121-2.226-4.345-3.403-6.572c-1.217-2.206-2.427-4.415-3.63-6.449   c-1.189-2.042-2.338-3.927-3.358-5.522c-2.021-3.203-3.537-5.247-3.537-5.247s0.88,2.388,2.451,5.834   c0.776,1.728,1.722,3.722,2.779,5.836c1.042,2.121,2.228,4.344,3.406,6.571c1.218,2.205,2.43,4.414,3.632,6.448   c1.19,2.041,2.339,3.926,3.359,5.522c2.02,3.203,3.534,5.249,3.534,5.249s-0.881-2.387-2.454-5.833   C95.472,60.775,94.525,58.781,93.47,56.667z" fill="#6E4D31"/><path d="M98.311,65.509c-0.258-0.476-0.852-0.655-1.327-0.396c-0.476,0.257-0.654,0.852-0.396,1.327l2.05,3.793   c0.177,0.328,0.514,0.514,0.862,0.514c0.157,0,0.317-0.038,0.465-0.118c0.477-0.257,0.654-0.851,0.396-1.327L98.311,65.509z" fill="#45474A"/><path d="M79.411,30.513c-0.258-0.476-0.852-0.654-1.327-0.396c-0.476,0.257-0.654,0.851-0.396,1.327l2.05,3.793   c0.177,0.328,0.514,0.514,0.862,0.514c0.158,0,0.317-0.038,0.465-0.118c0.476-0.257,0.654-0.852,0.396-1.327L79.411,30.513z" fill="#45474A"/><path d="M87.136,32.227c-0.084-0.006-0.171,0.054-0.181,0.143L82.93,65.957l-0.242-0.448   c-0.258-0.476-0.852-0.655-1.327-0.396c-0.476,0.257-0.654,0.852-0.396,1.327l2.05,3.793c0.177,0.328,0.514,0.514,0.862,0.514   c0.157,0,0.317-0.038,0.465-0.118c0.477-0.257,0.654-0.851,0.396-1.327l-1.539-2.847l4.08-34.047   C87.29,32.319,87.226,32.238,87.136,32.227z" fill="#434649"/><path d="M65.949,34.699c-0.01-0.134-0.044-0.267-0.112-0.393l-2.05-3.793c-0.258-0.476-0.852-0.654-1.327-0.396   c-0.477,0.257-0.654,0.851-0.396,1.327l2.05,3.793c0.177,0.328,0.514,0.514,0.862,0.514c0.158,0,0.317-0.038,0.465-0.118   c0.225-0.122,0.377-0.321,0.454-0.545l37.763,33.686c0.031,0.028,0.07,0.041,0.108,0.041c0.045,0,0.089-0.018,0.122-0.055   c0.06-0.067,0.054-0.17-0.013-0.23L65.949,34.699z" fill="#434649"/><path d="M62.198,88.542c-0.452,0.563-0.363,1.385,0.2,1.837c0.241,0.194,0.531,0.288,0.818,0.288   c0.382,0,0.761-0.167,1.019-0.488l7.272-9.048c-0.615-0.619-1.307-1.156-2.052-1.617L62.198,88.542z" fill="#010203" opacity="0.2"/><path d="M111.877,69.323c-12.315-1.146-22.905-1.612-34.265-1.21c-1.158,0-2.096,0.813-2.096,1.815   s0.938,1.815,2.096,1.815c11.255,0.403,21.832-0.035,34.265-1.21c0.51-0.054,1.96-0.271,1.96-0.605   C113.837,69.594,112.327,69.357,111.877,69.323z" fill="#C55C44"/><path d="M93.588,30.623c-12.315-1.147-22.905-1.612-34.265-1.21c-1.158,0-2.096,0.813-2.096,1.815   c0,1.003,0.939,1.815,2.096,1.815c11.255,0.403,21.832-0.035,34.265-1.21c0.51-0.054,1.96-0.271,1.96-0.605   C95.548,30.894,94.038,30.656,93.588,30.623z" fill="#C55C44"/><path d="M111.877,69.303c-12.315-1.147-22.905-1.612-34.265-1.21c-1.158,0-2.096,0.813-2.096,1.815   c0,0.125,0.015,0.247,0.042,0.364c0.195-0.828,1.04-1.451,2.054-1.451c11.361-0.402,21.95,0.064,34.265,1.21   c0.258,0.019,0.86,0.107,1.33,0.24c0.351-0.097,0.629-0.219,0.629-0.364C113.837,69.574,112.327,69.337,111.877,69.303z" fill="#FFFFFF" opacity="0.3"/><path d="M113.208,69.584c-0.457,0.126-1.041,0.211-1.33,0.241c-12.433,1.175-23.01,1.613-34.265,1.21   c-1.014,0-1.859-0.623-2.054-1.451c-0.028,0.118-0.042,0.24-0.042,0.364c0,1.002,0.938,1.815,2.096,1.815   c11.255,0.403,21.832-0.035,34.265-1.21c0.51-0.054,1.96-0.271,1.96-0.605C113.837,69.806,113.558,69.683,113.208,69.584z" fill="#010203" opacity="0.1"/><path d="M111.877,69.323c-12.315-1.146-22.905-1.612-34.265-1.21c-1.158,0-2.096,0.813-2.096,1.815   s0.938,1.815,2.096,1.815c11.255,0.403,21.832-0.035,34.265-1.21c0.51-0.054,1.96-0.271,1.96-0.605   C113.837,69.594,112.327,69.357,111.877,69.323z" fill="#C55C44"/><path d="M93.588,30.602c-12.315-1.146-22.905-1.612-34.265-1.21c-1.158,0-2.096,0.813-2.096,1.815   c0,0.125,0.015,0.247,0.042,0.364c0.195-0.828,1.04-1.451,2.054-1.451c11.36-0.402,21.95,0.063,34.265,1.21   c0.258,0.019,0.86,0.107,1.33,0.24c0.351-0.097,0.629-0.219,0.629-0.364C95.548,30.873,94.038,30.636,93.588,30.602z" fill="#FFFFFF" opacity="0.3"/><path d="M111.877,69.303c-12.315-1.147-22.905-1.612-34.265-1.21c-1.158,0-2.096,0.813-2.096,1.815   c0,0.125,0.015,0.247,0.042,0.364c0.195-0.828,1.04-1.451,2.054-1.451c11.361-0.402,21.95,0.064,34.265,1.21   c0.258,0.019,0.86,0.107,1.33,0.24c0.351-0.097,0.629-0.219,0.629-0.364C113.837,69.574,112.327,69.337,111.877,69.303z" fill="#FFFFFF" opacity="0.3"/><path d="M94.919,30.883c-0.457,0.126-1.042,0.211-1.33,0.241c-12.433,1.175-23.01,1.613-34.265,1.21   c-1.014,0-1.859-0.623-2.054-1.451c-0.028,0.118-0.042,0.24-0.042,0.364c0,1.003,0.939,1.815,2.096,1.815   c11.255,0.403,21.832-0.035,34.265-1.21c0.51-0.054,1.96-0.271,1.96-0.605C95.548,31.105,95.269,30.982,94.919,30.883z" fill="#010203" opacity="0.1"/><path d="M113.208,69.584c-0.457,0.126-1.041,0.211-1.33,0.241c-12.433,1.175-23.01,1.613-34.265,1.21   c-1.014,0-1.859-0.623-2.054-1.451c-0.028,0.118-0.042,0.24-0.042,0.364c0,1.002,0.938,1.815,2.096,1.815   c11.255,0.403,21.832-0.035,34.265-1.21c0.51-0.054,1.96-0.271,1.96-0.605C113.837,69.806,113.558,69.683,113.208,69.584z" fill="#010203" opacity="0.1"/><path d="M62.327,77.932V89.36c0,0.722,0.585,1.306,1.306,1.306c0.721,0,1.306-0.585,1.306-1.306   V77.932c-0.429-0.051-0.864-0.084-1.306-0.084S62.756,77.881,62.327,77.932z" fill="#010203" opacity="0.2"/><circle cx="63.633" cy="88.952" fill="#45474A" r="9.798"/><path d="M53.836,88.952c0,2.872,1.243,5.446,3.211,7.238c-1.584-1.74-2.558-4.046-2.558-6.584   c0-5.411,4.387-9.798,9.798-9.798c2.54,0,4.846,0.974,6.586,2.559c-1.792-1.969-4.368-3.213-7.24-3.213   C58.222,79.155,53.836,83.541,53.836,88.952z" fill="#FEFDFD" opacity="0.2"/><path d="M72.823,88.299c0,5.411-4.387,9.798-9.798,9.798c-2.539,0-4.846-0.974-6.586-2.559   c1.792,1.969,4.368,3.213,7.24,3.213c5.411,0,9.798-4.387,9.798-9.798c0-2.872-1.243-5.447-3.211-7.239   C71.849,83.454,72.823,85.76,72.823,88.299z" fill="#010203" opacity="0.2"/><path d="M63.633,82.42c-3.601,0-6.532,2.93-6.532,6.532c0,3.601,2.93,6.532,6.532,6.532   c3.601,0,6.532-2.93,6.532-6.532C70.165,85.351,67.235,82.42,63.633,82.42z" fill="#F6CA41"/><path d="M67.534,83.745c0.82,1.092,1.325,2.433,1.325,3.901c0,3.601-2.93,6.532-6.532,6.532   c-1.468,0-2.809-0.504-3.901-1.325c1.193,1.587,3.073,2.631,5.207,2.631c3.601,0,6.532-2.93,6.532-6.532   C70.165,86.818,69.122,84.938,67.534,83.745z" fill="#010203" opacity="0.05"/><path d="M49.015,29.776c-0.487,0-0.883,0.391-0.891,0.877l-1.647,24.987h3.185V30.667   C49.663,30.175,49.507,29.776,49.015,29.776z" fill="#714E32"/><path d="M48.125,84.547c0.007,0.487,0.404,0.877,0.891,0.877c0.492,0,0.647-0.399,0.647-0.891V59.56h-3.185   L48.125,84.547z" fill="#714E32"/><rect fill="#838282" height="1.306" width="5.661" x="45.307" y="56.947"/><polygon fill="#AFADAD" points="45.743,55.641 45.743,59.56 50.315,59.56 50.315,55.641 49.663,55.641  "/><circle cx="63.633" cy="88.952" fill="#45474A" r="0.653"/></g></svg>