<?xml version="1.0" ?><!DOCTYPE svg  PUBLIC '-//W3C//DTD SVG 1.1//EN'  'http://www.w3.org/Graphics/SVG/1.1/DTD/svg11.dtd'><svg enable-background="new 0 0 128 128" id="Слой_1" version="1.1" viewBox="0 0 128 128" xml:space="preserve" xmlns="http://www.w3.org/2000/svg" xmlns:xlink="http://www.w3.org/1999/xlink"><g><path d="M64,2C29.758,2,2,29.758,2,64c0,18.993,8.541,35.992,21.991,47.365c10.798,9.13,68.729,9.322,79.447,0.477   C117.217,100.47,126,83.261,126,64C126,29.758,98.242,2,64,2z" fill="#7C4D4C"/><path d="M64,10.733c-11.563,0-21.333,9.308-21.333,21.509v4.683c0,0.65,0.526,1.176,1.176,1.176   s1.176-0.526,1.176-1.176v-4.683c0-10.738,8.87-19.157,18.982-19.157s18.982,8.42,18.982,19.157v4.683   c0,0.65,0.526,1.176,1.176,1.176s1.176-0.526,1.176-1.176v-4.683C85.333,20.041,75.563,10.733,64,10.733z" fill="#FFFFFF"/><polygon fill="#65C8CE" points="100,26 28,26 28,40.444 24,44 24,46.333 104,46.333 104,44 100,40.444  "/><path d="M24,44v67.355C34.798,120.485,48.752,126,64,126s29.202-5.515,40-14.645V44H24z" fill="#F6CA41"/><polygon fill="#F6CA41" points="28,40.444 36,33.333 28,26  "/><polygon fill="#F6CA41" points="100,40.444 100,26 92,33.333  "/><polygon fill="#050708" opacity="0.15" points="36,44 36,33.333 24,44  "/><polygon fill="#050708" opacity="0.15" points="92,44 104,44 92,33.333  "/><circle cx="41.143" cy="54.476" fill="#45474A" r="3.81"/><circle cx="86.857" cy="54.476" fill="#45474A" r="3.81"/><path d="M64,23.833c-13.112,0-24.19,11.689-24.19,25.523v5.31c0,0.737,0.596,1.333,1.333,1.333   c0.737,0,1.333-0.596,1.333-1.333v-5.31C42.477,37.181,52.534,26.5,64,26.5s21.523,10.681,21.523,22.857v5.31   c0,0.737,0.596,1.333,1.333,1.333c0.737,0,1.333-0.596,1.333-1.333v-5.31C88.19,35.522,77.112,23.833,64,23.833z" fill="#FFFFFF"/><circle cx="63.929" cy="89.001" fill="#FFFFFF" r="30.001"/><path d="M63.906,96.656L50.422,79.779l-9.893,7.904l18.45,23.09c1.202,1.504,3.022,2.379,4.946,2.379   c0.005,0,0.01,0,0.01,0c1.929-0.005,3.749-0.885,4.951-2.394l28.041-35.352l-9.917-7.87L63.906,96.656z" fill="#47AB98"/></g></svg>