<?xml version="1.0" ?><!DOCTYPE svg  PUBLIC '-//W3C//DTD SVG 1.1//EN'  'http://www.w3.org/Graphics/SVG/1.1/DTD/svg11.dtd'><svg enable-background="new 0 0 128 128" id="Слой_1" version="1.1" viewBox="0 0 128 128" xml:space="preserve" xmlns="http://www.w3.org/2000/svg" xmlns:xlink="http://www.w3.org/1999/xlink"><g><circle cx="64" cy="64" fill="#E7E4DC" r="62"/><path d="M89.796,108.609H38.204c-2.322,0-4.204-1.882-4.204-4.204v-80.81c0-2.322,1.882-4.204,4.204-4.204h51.592   c2.322,0,4.204,1.882,4.204,4.204v80.809C94.001,106.727,92.118,108.609,89.796,108.609z" fill="#333638"/><rect fill="#65C8CE" height="72.001" width="53.218" x="37.391" y="27.999"/><path d="M90.609,32.394c-0.594-0.28-1.251-0.451-1.953-0.451c-0.343,0-0.677,0.046-0.998,0.119   c-0.002,0-0.003,0-0.004-0.002c-1.031-1.637-2.849-2.725-4.926-2.725c-2.911,0-5.316,2.14-5.747,4.93   c0,0.002-0.002,0.004-0.005,0.003c-0.154-0.022-0.311-0.037-0.472-0.037c-1.931,0-3.473,1.61-3.274,3.588   c0.178,1.765,1.703,3.089,3.478,3.089h4.135h5h2.844c0.688,0,1.337-0.162,1.923-0.436V32.394z" fill="#FFFFFF"/><path d="M45.656,55.943c-0.343,0-0.677,0.046-0.998,0.119c-0.002,0-0.003,0-0.004-0.002   c-1.031-1.637-2.849-2.725-4.926-2.725c-0.835,0-1.619,0.193-2.337,0.51v11.064h0.451h5h2.844c2.598,0,4.703-2.187,4.514-4.779   C50.03,57.772,48.06,55.943,45.656,55.943z" fill="#FFFFFF"/><path d="M71.946,50.215c0.206,0,0.406,0.028,0.599,0.071c0.001,0,0.002,0,0.003-0.001   c0.618-0.982,1.709-1.635,2.955-1.635c1.747,0,3.19,1.284,3.448,2.958c0,0.001,0.001,0.002,0.003,0.002   c0.093-0.013,0.187-0.022,0.283-0.022c1.159,0,2.084,0.966,1.964,2.153c-0.107,1.059-1.022,1.853-2.087,1.853h-2.481h-3h-1.707   c-1.559,0-2.822-1.312-2.709-2.867C69.322,51.312,70.504,50.215,71.946,50.215z" fill="#FFFFFF"/><path d="M50.295,33.738c-0.258,0-0.507,0.035-0.749,0.089c-0.001,0-0.003,0-0.003-0.001   c-0.773-1.227-2.137-2.044-3.694-2.044c-2.183,0-3.987,1.605-4.31,3.698c0,0.002-0.002,0.003-0.003,0.003   c-0.116-0.017-0.233-0.028-0.354-0.028c-1.448,0-2.605,1.207-2.455,2.691c0.134,1.324,1.278,2.317,2.608,2.317h3.101h3.75h2.133   c1.949,0,3.527-1.64,3.386-3.584C53.575,35.11,52.098,33.738,50.295,33.738z" fill="#FFFFFF"/><circle cx="64" cy="104.175" fill="#4B4F51" r="2.609"/><circle cx="64" cy="23.304" fill="#4B4F51" r="1.043"/><path d="M55.475,38.649l-1.368,1.472h0.909l0.68-1.412C55.706,38.58,55.531,38.533,55.475,38.649z" fill="#FFFFFF" opacity="0.3"/><path d="M44.476,41.622v6.289c0,0.828,0.672,1.5,1.5,1.5h2.318v-9.289h-2.318   C45.147,40.122,44.476,40.793,44.476,41.622z" fill="#F6CA41"/><path d="M44.476,46.675v1.368c0,0.755,0.612,1.368,1.368,1.368h2.451v-1.368h-2.451   C45.088,48.043,44.476,47.431,44.476,46.675z" fill="#010203" opacity="0.1"/><path d="M44.476,41.489v1.368c0-0.755,0.612-1.368,1.368-1.368h2.451v-1.368h-2.451   C45.088,40.122,44.476,40.734,44.476,41.489z" fill="#FFFFFF" opacity="0.3"/><path d="M83.311,35.494c-0.63-0.082-1.258,0.181-1.676,0.66l-2.819,3.23c-0.437,0.501-1.082,0.769-1.746,0.727   c-7.946-0.13-10.786-1.441-16.92-1.567l-0.045-0.003c-0.131-0.008-0.243,0.096-0.243,0.227l-0.009,0.761   c-0.006,0.495-0.199,0.976-0.561,1.313c-0.488,0.454-1.142,0.732-1.861,0.732c-1.047,0-1.956-0.589-2.416-1.453h-6.722v9.289h11.72   c1.493,0,2.984-0.113,4.459-0.339l18.95-4.047c2.011-0.308,3.61-1.85,3.99-3.849l0.002-0.011   C87.939,38.38,85.976,35.839,83.311,35.494z" fill="#C55C44"/><path d="M64.5,39.847l-3.201,1.735v3.834l3.201,1.93l3.202-1.93v-3.834L64.5,39.847z M67.442,41.649l-0.952,0.508   l-2.896-1.612l0.906-0.491L67.442,41.649z M62.846,40.95l0.558-0.302l2.974,1.655v0.594l-0.595,0.326v-0.638L62.846,40.95z    M64.5,43.219l-2.914-1.585l1.07-0.58l2.888,1.608L64.5,43.219z M61.481,41.783l2.928,1.593v3.703l-2.928-1.765V41.783z    M64.591,47.079v-3.702l1.009-0.539v0.692l0.96-0.525v-0.68l0.959-0.512v3.499L64.591,47.079z" fill="#F6CA41"/><path d="M49.071,41.778c-0.13-0.137-0.626,0.335-0.496,0.471c2.047,1.693,4.088,3.883,6.126,6.446   c0.13,0.137,0.347,0.142,0.483,0.012s0.142-0.347,0.012-0.483C53.343,45.719,51.323,43.528,49.071,41.778z" fill="#010203" opacity="0.1"/><path d="M54.396,41.793c-0.13-0.137-0.626,0.335-0.496,0.471c2.047,1.693,4.088,3.883,6.126,6.446   c0.13,0.137,0.347,0.142,0.483,0.012c0.137-0.13,0.142-0.347,0.012-0.483C58.668,45.735,56.648,43.544,54.396,41.793z" fill="#010203" opacity="0.1"/><path d="M64.345,38.833c-1.095-0.126-2.245-0.225-3.538-0.27c-0.222-0.007-0.445-0.014-0.657-0.019   l-0.045-0.003c-0.131-0.008-0.243,0.096-0.243,0.228l-0.009,0.761c-0.006,0.495-0.199,0.976-0.561,1.313   c-0.181,0.169-0.392,0.303-0.614,0.418c-0.376,0.194-0.796,0.314-1.248,0.314c-1.047,0-1.956-0.589-2.416-1.453h-3.138   c5.406,2.215,9.126,5.252,11.117,9.134c0,0,0,0,0,0c0.494-0.05,0.987-0.108,1.478-0.183l10.333-2.207   C72.673,43.493,69.275,40.771,64.345,38.833z" fill="#010203" opacity="0.1"/><path d="M83.423,44.568l-18.95,3.136c-1.476,0.226-2.966,0.339-4.459,0.339h-11.72v1.368h11.72   c1.493,0,2.984-0.113,4.459-0.339l18.95-4.047c2.011-0.308,3.61-1.85,3.99-3.849C87.033,43.174,85.435,44.261,83.423,44.568z" fill="#010203" opacity="0.1"/><path d="M55.016,40.122h-6.722v1.368c0,0,8.09,0.085,9.137,0.085   C56.384,41.575,55.475,40.986,55.016,40.122z" fill="#FFFFFF" opacity="0.3"/><path d="M83.311,35.494c-0.63-0.082-1.258,0.181-1.676,0.66l-2.819,3.23   c-0.437,0.501-1.082,0.769-1.746,0.727c-7.946-0.13-10.786-1.441-16.92-1.567l-0.045-0.003c-0.131-0.008-0.243,0.096-0.243,0.227   l-0.009,0.761l0.009,0.151c0-0.132,0.04-0.28,0.171-0.272c6.134,0.126,9.091,1.028,17.036,1.158   c0.663,0.043,1.309-0.226,1.746-0.727l2.819-3.23c0.418-0.479,1.046-0.741,1.676-0.66c2.331,0.301,4.124,1.934,4.187,4.2   C87.444,37.788,85.648,35.796,83.311,35.494z" fill="#FFFFFF" opacity="0.3"/><path d="M48.896,35.449c-0.189,0-0.342,0.153-0.342,0.342v6.382c0,0.189,0.684,0.189,0.684,0v-6.382   C49.238,35.602,49.085,35.449,48.896,35.449z" fill="#AFADAD"/><path d="M48.44,49.013v6.838c0,0.252,0.204,0.456,0.456,0.456s0.456-0.204,0.456-0.456v-6.838   C49.352,48.761,48.44,48.761,48.44,49.013z" fill="#AFADAD"/><path d="M53.89,48.727l-5.496,6.838c-0.158,0.196-0.127,0.483,0.07,0.641c0.084,0.068,0.185,0.101,0.285,0.101   c0.133,0,0.266-0.058,0.355-0.17l5.496-6.838c0.158-0.196,0.127-0.483-0.07-0.641C54.335,48.5,54.048,48.531,53.89,48.727z" fill="#AFADAD"/><path d="M54.221,35.449c-0.189,0-0.342,0.153-0.342,0.342v6.382c0,0.189,0.684,0.189,0.684,0v-6.382   C54.563,35.602,54.41,35.449,54.221,35.449z" fill="#AFADAD"/><path d="M53.812,44.392c-0.357-0.727-0.763-1.488-1.167-2.251c-0.418-0.755-0.833-1.512-1.246-2.208   c-0.408-0.699-0.803-1.344-1.154-1.89c-0.695-1.096-1.217-1.795-1.217-1.795s0.3,0.819,0.838,2c0.266,0.592,0.59,1.276,0.952,2   c0.357,0.727,0.764,1.488,1.168,2.251c0.418,0.755,0.834,1.512,1.247,2.208c0.409,0.699,0.803,1.344,1.154,1.89   c0.695,1.096,1.216,1.796,1.216,1.796s-0.301-0.819-0.839-2C54.498,45.8,54.174,45.117,53.812,44.392z" fill="#6E4D31"/><path d="M59.309,44.441c-0.364-0.74-0.777-1.516-1.188-2.294c-0.425-0.77-0.847-1.541-1.267-2.251   c-0.415-0.713-0.816-1.37-1.172-1.927c-0.705-1.118-1.234-1.831-1.234-1.831s0.307,0.833,0.855,2.036   c0.271,0.603,0.601,1.299,0.97,2.037c0.364,0.74,0.777,1.516,1.189,2.293c0.425,0.77,0.848,1.54,1.268,2.25   c0.415,0.712,0.816,1.37,1.172,1.927c0.705,1.118,1.233,1.832,1.233,1.832s-0.308-0.833-0.856-2.036   C60.008,45.874,59.677,45.179,59.309,44.441z" fill="#6E4D31"/><path d="M60.998,47.527c-0.09-0.166-0.297-0.229-0.463-0.138c-0.166,0.09-0.228,0.297-0.138,0.463l0.715,1.324   c0.062,0.114,0.179,0.179,0.301,0.179c0.055,0,0.111-0.013,0.162-0.041c0.166-0.09,0.228-0.297,0.138-0.463L60.998,47.527z" fill="#45474A"/><path d="M54.402,35.313c-0.09-0.166-0.297-0.228-0.463-0.138c-0.166,0.09-0.228,0.297-0.138,0.463l0.715,1.324   c0.062,0.114,0.179,0.179,0.301,0.179c0.055,0,0.111-0.013,0.162-0.041c0.166-0.09,0.228-0.297,0.138-0.463L54.402,35.313z" fill="#45474A"/><path d="M57.098,35.911c-0.029-0.002-0.06,0.019-0.063,0.05L55.63,47.683l-0.085-0.156   c-0.09-0.166-0.297-0.229-0.463-0.138c-0.166,0.09-0.228,0.297-0.138,0.463l0.715,1.324c0.062,0.114,0.179,0.179,0.301,0.179   c0.055,0,0.111-0.013,0.162-0.041c0.166-0.09,0.228-0.297,0.138-0.463l-0.537-0.994l1.424-11.882   C57.152,35.943,57.13,35.915,57.098,35.911z" fill="#434649"/><path d="M49.704,36.774c-0.003-0.047-0.015-0.093-0.039-0.137l-0.715-1.324c-0.09-0.166-0.297-0.228-0.463-0.138   c-0.166,0.09-0.228,0.297-0.138,0.463l0.715,1.324c0.062,0.114,0.179,0.179,0.301,0.179c0.055,0,0.111-0.013,0.162-0.041   c0.079-0.042,0.132-0.112,0.159-0.19l13.179,11.756c0.011,0.01,0.024,0.014,0.038,0.014c0.016,0,0.031-0.006,0.043-0.019   c0.021-0.023,0.019-0.059-0.005-0.08L49.704,36.774z" fill="#434649"/><path d="M48.395,55.565c-0.158,0.196-0.127,0.483,0.07,0.641c0.084,0.068,0.185,0.101,0.285,0.101   c0.133,0,0.266-0.058,0.355-0.17l2.538-3.158c-0.214-0.216-0.456-0.403-0.716-0.564L48.395,55.565z" fill="#010203" opacity="0.2"/><path d="M65.733,48.858c-4.298-0.4-7.994-0.563-11.959-0.422c-0.404,0-0.732,0.284-0.732,0.634   c0,0.35,0.328,0.634,0.732,0.634c3.928,0.141,7.619-0.012,11.959-0.422c0.178-0.019,0.684-0.095,0.684-0.211   C66.417,48.952,65.89,48.87,65.733,48.858z" fill="#C55C44"/><path d="M59.35,35.351c-4.298-0.4-7.994-0.563-11.959-0.422c-0.404,0-0.732,0.284-0.732,0.634   c0,0.35,0.328,0.634,0.732,0.634c3.928,0.141,7.619-0.012,11.959-0.422c0.178-0.019,0.684-0.095,0.684-0.211   C60.034,35.446,59.507,35.363,59.35,35.351z" fill="#C55C44"/><path d="M65.733,48.851c-4.298-0.4-7.994-0.563-11.959-0.422c-0.404,0-0.732,0.284-0.732,0.634   c0,0.044,0.005,0.086,0.015,0.127c0.068-0.289,0.363-0.506,0.717-0.506c3.965-0.14,7.661,0.022,11.959,0.422   c0.09,0.007,0.3,0.037,0.464,0.084c0.123-0.034,0.22-0.076,0.22-0.127C66.417,48.945,65.89,48.862,65.733,48.851z" fill="#FFFFFF" opacity="0.3"/><path d="M66.197,48.949c-0.16,0.044-0.363,0.074-0.464,0.084c-4.339,0.41-8.031,0.563-11.959,0.422   c-0.354,0-0.649-0.217-0.717-0.506c-0.01,0.041-0.015,0.084-0.015,0.127c0,0.35,0.328,0.634,0.732,0.634   c3.928,0.141,7.619-0.012,11.959-0.422c0.178-0.019,0.684-0.095,0.684-0.211C66.417,49.026,66.319,48.983,66.197,48.949z" fill="#010203" opacity="0.1"/><path d="M65.733,48.858c-4.298-0.4-7.994-0.563-11.959-0.422c-0.404,0-0.732,0.284-0.732,0.634   c0,0.35,0.328,0.634,0.732,0.634c3.928,0.141,7.619-0.012,11.959-0.422c0.178-0.019,0.684-0.095,0.684-0.211   C66.417,48.952,65.89,48.87,65.733,48.858z" fill="#C55C44"/><path d="M59.35,35.344c-4.298-0.4-7.994-0.563-11.959-0.422c-0.404,0-0.732,0.284-0.732,0.634   c0,0.044,0.005,0.086,0.015,0.127c0.068-0.289,0.363-0.506,0.717-0.506c3.965-0.14,7.661,0.022,11.959,0.422   c0.09,0.007,0.3,0.037,0.464,0.084c0.123-0.034,0.22-0.076,0.22-0.127C60.034,35.439,59.507,35.356,59.35,35.344z" fill="#FFFFFF" opacity="0.3"/><path d="M65.733,48.851c-4.298-0.4-7.994-0.563-11.959-0.422c-0.404,0-0.732,0.284-0.732,0.634   c0,0.044,0.005,0.086,0.015,0.127c0.068-0.289,0.363-0.506,0.717-0.506c3.965-0.14,7.661,0.022,11.959,0.422   c0.09,0.007,0.3,0.037,0.464,0.084c0.123-0.034,0.22-0.076,0.22-0.127C66.417,48.945,65.89,48.862,65.733,48.851z" fill="#FFFFFF" opacity="0.3"/><path d="M59.814,35.442c-0.16,0.044-0.363,0.074-0.464,0.084c-4.339,0.41-8.031,0.563-11.959,0.422   c-0.354,0-0.649-0.217-0.717-0.506c-0.01,0.041-0.015,0.084-0.015,0.127c0,0.35,0.328,0.634,0.732,0.634   c3.928,0.141,7.619-0.012,11.959-0.422c0.178-0.019,0.684-0.095,0.684-0.211C60.034,35.52,59.937,35.477,59.814,35.442z" fill="#010203" opacity="0.1"/><path d="M66.197,48.949c-0.16,0.044-0.363,0.074-0.464,0.084c-4.339,0.41-8.031,0.563-11.959,0.422   c-0.354,0-0.649-0.217-0.717-0.506c-0.01,0.041-0.015,0.084-0.015,0.127c0,0.35,0.328,0.634,0.732,0.634   c3.928,0.141,7.619-0.012,11.959-0.422c0.178-0.019,0.684-0.095,0.684-0.211C66.417,49.026,66.319,48.983,66.197,48.949z" fill="#010203" opacity="0.1"/><path d="M48.44,51.862v3.989c0,0.252,0.204,0.456,0.456,0.456s0.456-0.204,0.456-0.456v-3.989   c-0.15-0.018-0.301-0.029-0.456-0.029C48.741,51.833,48.59,51.845,48.44,51.862z" fill="#010203" opacity="0.2"/><circle cx="48.896" cy="55.708" fill="#45474A" r="3.419"/><path d="M45.476,55.708c0,1.002,0.434,1.901,1.121,2.526c-0.553-0.607-0.893-1.412-0.893-2.298   c0-1.888,1.531-3.419,3.419-3.419c0.886,0,1.691,0.34,2.299,0.893c-0.625-0.687-1.524-1.121-2.527-1.121   C47.007,52.289,45.476,53.82,45.476,55.708z" fill="#FEFDFD" opacity="0.2"/><path d="M52.103,55.48c0,1.888-1.531,3.419-3.419,3.419c-0.886,0-1.691-0.34-2.299-0.893   c0.625,0.687,1.524,1.121,2.527,1.121c1.888,0,3.419-1.531,3.419-3.419c0-1.002-0.434-1.901-1.121-2.526   C51.763,53.79,52.103,54.594,52.103,55.48z" fill="#010203" opacity="0.2"/><circle cx="48.896" cy="55.708" fill="#F6CA41" r="2.28"/><path d="M50.257,53.891c0.286,0.381,0.462,0.849,0.462,1.361c0,1.257-1.023,2.28-2.28,2.28   c-0.512,0-0.98-0.176-1.361-0.462c0.416,0.554,1.073,0.918,1.817,0.918c1.257,0,2.28-1.023,2.28-2.28   C51.175,54.964,50.811,54.307,50.257,53.891z" fill="#010203" opacity="0.05"/><path d="M43.794,35.056c-0.17,0-0.308,0.136-0.311,0.306l-0.575,8.721h1.111v-8.716   C44.02,35.195,43.966,35.056,43.794,35.056z" fill="#714E32"/><path d="M43.483,54.171c0.003,0.17,0.141,0.306,0.311,0.306c0.172,0,0.226-0.139,0.226-0.311V45.45h-1.111   L43.483,54.171z" fill="#714E32"/><rect fill="#838282" height="0.456" width="1.976" x="42.5" y="44.538"/><polygon fill="#AFADAD" points="42.652,44.083 42.652,45.45 44.248,45.45 44.248,44.083 44.02,44.083  "/><circle cx="48.896" cy="55.708" fill="#45474A" r="0.228"/><circle cx="64" cy="81.005" fill="#FFFFFF" r="12.5"/><path d="M63.999,91.067c-0.802,0-1.56-0.365-2.061-0.991l-7.687-9.62l4.122-3.293l5.618,7.032l9.627-12.133   l4.132,3.279L66.066,90.07c-0.501,0.629-1.259,0.995-2.063,0.997C64.003,91.067,64.001,91.067,63.999,91.067z" fill="#47AB98"/></g></svg>