<?xml version="1.0" ?><!DOCTYPE svg  PUBLIC '-//W3C//DTD SVG 1.1//EN'  'http://www.w3.org/Graphics/SVG/1.1/DTD/svg11.dtd'><svg enable-background="new 0 0 128 128" id="Слой_1" version="1.1" viewBox="0 0 128 128" xml:space="preserve" xmlns="http://www.w3.org/2000/svg" xmlns:xlink="http://www.w3.org/1999/xlink"><g><circle cx="64" cy="64" fill="#E7E4DC" r="62"/><path d="M89.796,108.609H38.204c-2.322,0-4.204-1.882-4.204-4.204v-80.81c0-2.322,1.882-4.204,4.204-4.204h51.592   c2.322,0,4.204,1.882,4.204,4.204v80.809C94.001,106.727,92.118,108.609,89.796,108.609z" fill="#333638"/><rect fill="#65C8CE" height="72.001" width="53.218" x="37.391" y="27.999"/><path d="M72.819,50.54c-0.284,0-0.514-0.23-0.514-0.514v-2.049c0-4.698-3.88-8.819-8.304-8.819   s-8.304,4.121-8.304,8.819v2.049c0,0.284-0.23,0.514-0.514,0.514s-0.514-0.23-0.514-0.514v-2.049c0-5.338,4.274-9.848,9.333-9.848   s9.333,4.51,9.333,9.848v2.049C73.333,50.31,73.103,50.54,72.819,50.54z" fill="#FFFFFF"/><path d="M79.75,51.565v-6.319h-31.5v6.319l-1.75,1.556v1.021h35v-1.021L79.75,51.565z" fill="#C55C44"/><path d="M81.5,53.121h-35v36.167c0,0.322,0.261,0.583,0.583,0.583h33.833c0.322,0,0.583-0.261,0.583-0.583V53.121z" fill="#F6CA41"/><polygon fill="#F6CA41" points="48.25,45.246 48.25,51.565 51.75,48.454  "/><polygon fill="#F6CA41" points="79.75,45.246 79.75,51.565 76.25,48.454  "/><polygon fill="#050708" opacity="0.15" points="46.5,53.121 51.75,48.454 51.75,53.121  "/><polygon fill="#050708" opacity="0.15" points="81.5,53.121 76.25,48.454 76.25,53.121  "/><circle cx="54" cy="57.704" fill="#45474A" r="1.667"/><circle cx="74" cy="57.704" fill="#45474A" r="1.667"/><path d="M74,58.371c-0.322,0-0.583-0.261-0.583-0.583v-2.323c0-5.327-4.4-10-9.417-10s-9.417,4.673-9.417,10v2.323   c0,0.322-0.261,0.583-0.583,0.583c-0.322,0-0.583-0.261-0.583-0.583v-2.323c0-6.053,4.847-11.167,10.583-11.167   s10.583,5.114,10.583,11.167v2.323C74.583,58.11,74.322,58.371,74,58.371z" fill="#FFFFFF"/><circle cx="64" cy="104.175" fill="#4B4F51" r="2.609"/><circle cx="64" cy="23.304" fill="#4B4F51" r="1.043"/><circle cx="64" cy="72.005" fill="#FFFFFF" r="12.5"/><path d="M63.999,82.067c-0.802,0-1.56-0.365-2.061-0.991l-7.687-9.62l4.122-3.293l5.618,7.032l9.627-12.133   l4.132,3.279L66.066,81.07c-0.501,0.629-1.259,0.995-2.063,0.997C64.003,82.067,64.001,82.067,63.999,82.067z" fill="#47AB98"/></g></svg>