<?xml version="1.0" ?><!DOCTYPE svg  PUBLIC '-//W3C//DTD SVG 1.1//EN'  'http://www.w3.org/Graphics/SVG/1.1/DTD/svg11.dtd'><svg enable-background="new 0 0 128 128" id="Слой_1" version="1.1" viewBox="0 0 128 128" xml:space="preserve" xmlns="http://www.w3.org/2000/svg" xmlns:xlink="http://www.w3.org/1999/xlink"><g><path d="M64,2C29.758,2,2,29.758,2,64s27.758,62,62,62s62-27.758,62-62S98.242,2,64,2z" fill="#E7E4DC"/><path d="M64,106c-23.159,0-42-18.841-42-42s18.841-42,42-42s42,18.841,42,42S87.159,106,64,106z M64,26   c-20.953,0-38,17.047-38,38s17.047,38,38,38s38-17.047,38-38S84.953,26,64,26z" fill="#45474A"/><path d="M55.765,88.932c-1.205-1.24-3.116-1.462-4.573-0.53l-1.272,0.814l-3.797,2.429   c-1.459,0.933-3.398,0.507-4.331-0.952l-5.987-9.359l-5.889-9.206c-0.933-1.459-0.507-3.398,0.952-4.331l3.797-2.429l1.272-0.814   c1.457-0.932,2.057-2.76,1.436-4.374l-6.497-16.889c-0.762-1.979-3.047-2.891-4.962-1.98l-0.465,0.221l-5.285,2.515   c-3.398,1.617-5.429,5.182-5.067,8.927c0.723,7.478,3.554,21.044,11.857,34.022c8.302,12.978,19.529,21.389,26.015,25.181   c3.248,1.899,7.337,1.549,10.229-0.857l4.499-3.744l0.396-0.329c1.63-1.357,1.76-3.814,0.283-5.335L55.765,88.932z" fill="#46B19B"/><g><path d="M48.123,93.644l3.797-2.429l1.272-0.814c0.546-0.349,1.157-0.537,1.769-0.569    c0.204-0.011,0.409-0.004,0.612,0.019c0.661,0.077,1.296,0.343,1.836,0.772l-1.644-1.693c-0.602-0.62-1.382-0.986-2.192-1.08    c-0.203-0.023-0.407-0.03-0.612-0.019c-0.613,0.032-1.223,0.219-1.769,0.569l-1.272,0.814l-3.797,2.429    c-0.878,0.562-1.927,0.623-2.828,0.271l0.497,0.777C44.725,94.151,46.664,94.578,48.123,93.644z" fill="#FDFDFD" opacity="0.2"/><path d="M17.097,54.974c-0.362-3.745,1.669-7.31,5.067-8.927l5.285-2.515l0.315-0.15l0.15-0.071    c0.479-0.228,0.981-0.342,1.476-0.353c0.303-0.007,0.6,0.036,0.892,0.103c0.197,0.045,0.387,0.11,0.573,0.186    c-0.111-0.274-0.256-0.523-0.42-0.754c-0.526-0.739-1.297-1.237-2.153-1.432c-0.291-0.067-0.589-0.11-0.892-0.103    c-0.495,0.012-0.997,0.125-1.476,0.353l-0.15,0.071l-0.315,0.15l-5.285,2.515c-3.398,1.617-5.429,5.182-5.067,8.927    c0.723,7.478,3.555,21.044,11.857,34.022c3.547,5.545,7.627,10.248,11.644,14.121c-3.354-3.463-6.685-7.496-9.644-12.121    C20.651,76.017,17.82,62.451,17.097,54.974z" fill="#FDFDFD" opacity="0.2"/><path d="M35.373,58.18c0.466,1.211,0.245,2.542-0.51,3.524c-0.251,0.328-0.562,0.617-0.926,0.85    l-1.272,0.814h0l-3.797,2.429c-1.459,0.933-1.885,2.872-0.952,4.331l5.889,9.206l5.987,9.359c0.372,0.581,0.906,0.99,1.503,1.223    l-5.49-8.582l-5.889-9.206c-0.933-1.459-0.507-3.398,0.952-4.331l3.797-2.429h0l1.272-0.814c0.364-0.233,0.675-0.522,0.926-0.85    c0.754-0.983,0.975-2.314,0.51-3.524l-6.497-16.889c-0.113-0.293-0.268-0.555-0.441-0.799c-0.405-0.569-0.957-0.991-1.58-1.246    c0.006,0.016,0.015,0.029,0.021,0.045L35.373,58.18z" fill="#050708" opacity="0.1"/><path d="M69.364,103.91c-0.108-0.726-0.436-1.428-0.99-1.999L55.765,88.932    c-0.111-0.114-0.234-0.21-0.356-0.307l10.965,11.287c0.554,0.57,0.882,1.272,0.99,1.999c0.036,0.242,0.047,0.487,0.034,0.73    c-0.026,0.487-0.149,0.969-0.367,1.414c-0.109,0.223-0.242,0.436-0.399,0.636s-0.337,0.387-0.541,0.556l-0.198,0.165l-0.198,0.165    h0l-4.499,3.744c-2.892,2.407-6.981,2.756-10.229,0.857c-3.715-2.172-8.986-5.867-14.371-11.06    c6.059,6.254,12.197,10.619,16.371,13.06c3.248,1.899,7.337,1.549,10.229-0.857l4.499-3.744h0l0.198-0.165l0.198-0.165    c0.204-0.17,0.384-0.356,0.541-0.556s0.29-0.413,0.399-0.636c0.218-0.445,0.341-0.927,0.367-1.414    C69.411,104.397,69.4,104.152,69.364,103.91z" fill="#050708" opacity="0.1"/></g><path d="M37.373,60.18l-6.497-16.889c-0.761-1.979-3.047-2.892-4.962-1.98l-0.465,0.221   l9.216,23.836l1.272-0.814C37.394,63.622,37.994,61.794,37.373,60.18z" fill="#050708" opacity="0.15"/><path d="M55.765,88.932l12.609,12.979c1.478,1.521,1.348,3.979-0.283,5.335l-0.396,0.329   L49.92,89.216l1.272-0.814C52.649,87.47,54.56,87.691,55.765,88.932z" fill="#050708" opacity="0.15"/><circle cx="64" cy="64" fill="#C55C44" r="22.5"/><path d="M81.339,49.661C84.562,53.554,86.5,58.551,86.5,64c0,12.426-10.074,22.5-22.5,22.5   c-5.449,0-10.446-1.938-14.339-5.161C53.788,86.324,60.023,89.5,67,89.5c12.426,0,22.5-10.074,22.5-22.5   C89.5,60.023,86.324,53.788,81.339,49.661z" fill="#050708" opacity="0.1"/><g><path d="M53.269,71.404h7.404c0.738,0,1.3,0.151,1.688,0.454s0.582,0.714,0.582,1.234    c0,0.463-0.154,0.855-0.461,1.177c-0.308,0.321-0.773,0.482-1.397,0.482h-10.44c-0.709,0-1.262-0.196-1.659-0.589    c-0.397-0.392-0.596-0.854-0.596-1.383c0-0.341,0.127-0.792,0.383-1.354s0.534-1.005,0.837-1.326    c1.257-1.305,2.392-2.423,3.404-3.354c1.012-0.932,1.735-1.544,2.17-1.837c0.775-0.549,1.421-1.1,1.936-1.652    c0.516-0.554,0.908-1.121,1.177-1.702c0.27-0.582,0.404-1.151,0.404-1.709c0-0.605-0.144-1.146-0.433-1.624    s-0.681-0.849-1.177-1.114c-0.496-0.265-1.038-0.396-1.624-0.396c-1.239,0-2.213,0.544-2.922,1.631    c-0.095,0.142-0.253,0.529-0.475,1.163s-0.473,1.121-0.752,1.461c-0.279,0.341-0.688,0.511-1.227,0.511    c-0.473,0-0.865-0.156-1.177-0.468c-0.312-0.312-0.468-0.738-0.468-1.277c0-0.652,0.146-1.333,0.439-2.042s0.73-1.353,1.312-1.929    c0.582-0.577,1.319-1.043,2.213-1.397s1.941-0.532,3.142-0.532c1.447,0,2.681,0.228,3.702,0.681    c0.662,0.303,1.244,0.719,1.745,1.249c0.501,0.529,0.891,1.142,1.17,1.837c0.279,0.694,0.418,1.416,0.418,2.163    c0,1.172-0.291,2.238-0.873,3.198s-1.175,1.712-1.78,2.255c-0.605,0.544-1.62,1.397-3.042,2.561    c-1.423,1.163-2.4,2.066-2.929,2.709C53.737,70.738,53.505,71.045,53.269,71.404z" fill="#FFFFFF"/><path d="M74.219,72.95v-2.638h-7.12c-0.899,0-1.572-0.203-2.021-0.61c-0.449-0.406-0.674-0.959-0.674-1.659    c0-0.18,0.033-0.362,0.1-0.546c0.066-0.185,0.165-0.379,0.298-0.582c0.132-0.203,0.27-0.399,0.411-0.589    c0.142-0.188,0.317-0.42,0.525-0.694l7.518-10.057c0.492-0.662,0.896-1.142,1.213-1.439c0.316-0.299,0.697-0.447,1.142-0.447    c1.438,0,2.156,0.822,2.156,2.468v10.979h0.61c0.728,0,1.312,0.1,1.751,0.298c0.44,0.199,0.66,0.634,0.66,1.306    c0,0.548-0.18,0.947-0.539,1.198s-0.898,0.376-1.617,0.376h-0.865v2.638c0,0.729-0.161,1.27-0.482,1.624    c-0.322,0.355-0.752,0.532-1.291,0.532c-0.529,0-0.957-0.182-1.284-0.546C74.382,74.196,74.219,73.66,74.219,72.95z M68.12,67.135    h6.099v-8.24L68.12,67.135z" fill="#FFFFFF"/></g></g></svg>