<?xml version="1.0" ?><!DOCTYPE svg  PUBLIC '-//W3C//DTD SVG 1.1//EN'  'http://www.w3.org/Graphics/SVG/1.1/DTD/svg11.dtd'><svg enable-background="new 0 0 128 128" id="Слой_1" version="1.1" viewBox="0 0 128 128" xml:space="preserve" xmlns="http://www.w3.org/2000/svg" xmlns:xlink="http://www.w3.org/1999/xlink"><g><circle cx="64" cy="64" fill="#E7E4DC" r="62"/><path d="M97.859,31.839L73.26,34.101c-1.324,0.122-2.544,0.766-3.393,1.789L31.269,82.487   c-1.762,2.127-1.466,5.279,0.661,7.04l26.953,22.327c2.127,1.762,5.279,1.466,7.04-0.661l38.599-46.597   c0.848-1.024,1.254-2.343,1.127-3.666l-2.355-24.59C103.032,33.6,100.602,31.586,97.859,31.839z M94.31,45.655   c-2.209,0-4-1.791-4-4c0-2.209,1.791-4,4-4c2.209,0,4,1.791,4,4C98.31,43.865,96.519,45.655,94.31,45.655z" fill="#46B19B"/><path d="M99.527,32.614l-24.614-2.09c-1.325-0.113-2.639,0.307-3.654,1.166L25.08,70.788   c-2.107,1.784-2.37,4.939-0.585,7.047l22.616,26.712c1.784,2.108,4.939,2.37,7.047,0.585l46.179-39.098   c1.015-0.859,1.645-2.087,1.753-3.412l1.998-24.622C104.31,35.256,102.271,32.847,99.527,32.614z M94.31,45.655   c-2.209,0-4-1.791-4-4c0-2.209,1.791-4,4-4c2.209,0,4,1.791,4,4C98.31,43.865,96.519,45.655,94.31,45.655z" fill="#F6CA41"/><path d="M102.089,62.622c-0.108,1.325-0.738,2.553-1.753,3.412l-46.179,39.098   c-0.636,0.539-1.369,0.879-2.129,1.046l2.015,1.669c0.87-0.139,1.716-0.492,2.437-1.103l43.957-37.216l3.86-4.66   c0.045-0.21,0.098-0.417,0.115-0.633l0.712-8.771l-1.329-13.876L102.089,62.622z" fill="#000504" opacity="0.1"/><path d="M101.053,33.687l-23.849-6.438c-1.283-0.346-2.652-0.168-3.803,0.497L21,58   c-2.391,1.381-3.211,4.439-1.83,6.83l17.5,30.311c1.381,2.392,4.439,3.211,6.83,1.83l52.401-30.254   c1.151-0.665,1.99-1.76,2.332-3.045l6.349-23.873C105.29,37.138,103.712,34.405,101.053,33.687z M94.31,45.655   c-2.209,0-4-1.791-4-4c0-2.209,1.791-4,4-4c2.209,0,4,1.791,4,4C98.31,43.865,96.519,45.655,94.31,45.655z" fill="#C55C44"/><path d="M95.901,66.717L43.5,96.971c-0.714,0.412-1.486,0.615-2.254,0.648l1.695,2.002   c0.869,0.011,1.752-0.185,2.559-0.651L95.594,70.05l4.393-3.719c0.091-0.215,0.186-0.43,0.247-0.658l2.315-8.706l1.112-13.702   l-5.427,20.407C97.891,64.957,97.052,66.053,95.901,66.717z" fill="#000504" opacity="0.1"/><path d="M94.31,35.655c-3.309,0-6,2.691-6,6s2.691,6,6,6s6-2.691,6-6S97.618,35.655,94.31,35.655z M94.31,45.655   c-2.209,0-4-1.791-4-4c0-2.209,1.791-4,4-4c2.209,0,4,1.791,4,4C98.31,43.865,96.519,45.655,94.31,45.655z" fill="#4A4946"/><g><path d="M48.055,71.902c0.477,0.824,0.691,1.688,0.646,2.591c-0.045,0.903-0.369,1.776-0.975,2.621    c-0.604,0.845-1.467,1.592-2.588,2.239c-1.348,0.777-2.604,1.164-3.771,1.16c-0.832-0.008-1.617-0.205-2.357-0.592    c-0.74-0.388-1.277-0.869-1.611-1.446c-0.193-0.335-0.242-0.688-0.148-1.062c0.096-0.373,0.322-0.664,0.684-0.872    c0.291-0.168,0.592-0.217,0.9-0.147c0.309,0.07,0.639,0.247,0.994,0.53c0.424,0.334,0.82,0.588,1.191,0.763    c0.369,0.176,0.791,0.252,1.268,0.229c0.475-0.021,1.01-0.204,1.605-0.548c0.818-0.473,1.373-1.048,1.664-1.725    c0.293-0.677,0.273-1.301-0.057-1.871c-0.26-0.452-0.611-0.74-1.051-0.863c-0.438-0.123-0.92-0.133-1.441-0.029    c-0.523,0.104-1.199,0.283-2.029,0.538c-1.111,0.337-2.086,0.542-2.924,0.616s-1.605-0.041-2.299-0.348s-1.268-0.854-1.723-1.642    c-0.432-0.75-0.613-1.535-0.539-2.354c0.072-0.819,0.406-1.609,1-2.371c0.594-0.76,1.416-1.443,2.463-2.049    c0.838-0.483,1.623-0.797,2.354-0.941s1.396-0.162,1.998-0.051s1.105,0.303,1.51,0.573c0.404,0.271,0.711,0.587,0.918,0.946    c0.191,0.329,0.246,0.691,0.164,1.09c-0.08,0.398-0.293,0.697-0.641,0.897c-0.316,0.183-0.604,0.242-0.859,0.179    c-0.256-0.062-0.582-0.219-0.982-0.468c-0.545-0.371-1.074-0.601-1.588-0.689c-0.516-0.087-1.156,0.091-1.926,0.534    c-0.713,0.412-1.197,0.901-1.453,1.467s-0.258,1.068-0.004,1.509c0.158,0.273,0.367,0.466,0.631,0.578s0.566,0.165,0.91,0.157    s0.672-0.048,0.984-0.122c0.312-0.072,0.822-0.209,1.525-0.409c0.873-0.264,1.684-0.467,2.432-0.609s1.432-0.186,2.047-0.129    c0.617,0.059,1.184,0.254,1.703,0.586C47.199,70.703,47.656,71.214,48.055,71.902z" fill="#FFFFFF"/><path d="M60.598,68.06l-1.641-1.336l-5.545,3.201l0.359,2.125c0.139,0.829,0.188,1.415,0.146,1.757    c-0.043,0.343-0.268,0.633-0.678,0.869c-0.348,0.2-0.729,0.25-1.141,0.15c-0.414-0.101-0.713-0.312-0.9-0.635    c-0.107-0.186-0.188-0.396-0.24-0.63s-0.109-0.569-0.17-1.006l-1.625-10.87c-0.047-0.312-0.104-0.686-0.172-1.123    c-0.064-0.438-0.088-0.819-0.064-1.146c0.021-0.327,0.119-0.638,0.291-0.932c0.174-0.295,0.449-0.551,0.828-0.77    c0.385-0.223,0.748-0.334,1.09-0.338c0.342-0.002,0.658,0.065,0.947,0.203c0.291,0.139,0.566,0.309,0.828,0.509    c0.26,0.202,0.602,0.474,1.023,0.817l8.645,6.743c0.666,0.509,1.086,0.915,1.262,1.219c0.182,0.316,0.217,0.683,0.105,1.099    s-0.352,0.73-0.725,0.945c-0.217,0.126-0.426,0.194-0.625,0.206c-0.201,0.013-0.391-0.018-0.574-0.091    c-0.182-0.072-0.412-0.211-0.693-0.418C61.049,68.404,60.805,68.221,60.598,68.06z M52.941,67.432l4.074-2.353l-5.307-4.441    L52.941,67.432z" fill="#FFFFFF"/><path d="M62.131,52.971l5.73,9.927l5.602-3.233c0.445-0.258,0.852-0.348,1.215-0.268    c0.365,0.079,0.643,0.282,0.832,0.611c0.193,0.335,0.232,0.674,0.115,1.018c-0.115,0.345-0.4,0.647-0.852,0.908l-6.67,3.852    c-0.602,0.348-1.111,0.464-1.529,0.349c-0.418-0.114-0.799-0.469-1.143-1.064l-6.062-10.503c-0.322-0.559-0.439-1.05-0.35-1.474    c0.09-0.425,0.34-0.755,0.75-0.991c0.414-0.239,0.83-0.295,1.248-0.168C61.434,52.061,61.805,52.407,62.131,52.971z" fill="#FFFFFF"/><path d="M80.316,43.39l-6.225,3.594l1.934,3.349l5.73-3.309c0.422-0.243,0.791-0.33,1.109-0.262    c0.316,0.07,0.564,0.26,0.744,0.569c0.178,0.311,0.221,0.622,0.129,0.936s-0.352,0.594-0.779,0.841l-5.73,3.309l2.24,3.879    l6.438-3.717c0.434-0.25,0.82-0.338,1.156-0.264s0.602,0.279,0.795,0.614c0.186,0.322,0.227,0.647,0.123,0.976    c-0.104,0.33-0.373,0.619-0.807,0.87l-7.508,4.334c-0.602,0.348-1.111,0.464-1.527,0.349c-0.418-0.113-0.799-0.469-1.143-1.064    l-5.92-10.252c-0.229-0.396-0.357-0.754-0.385-1.074c-0.027-0.318,0.053-0.607,0.236-0.868c0.186-0.26,0.475-0.502,0.865-0.728    l7.293-4.211c0.439-0.254,0.824-0.346,1.15-0.273c0.326,0.071,0.582,0.266,0.764,0.582c0.188,0.322,0.229,0.643,0.129,0.962    C81.027,42.85,80.756,43.136,80.316,43.39z" fill="#FFFFFF"/></g><path d="M94.31,37.655c-0.889,0-1.703,0.3-2.367,0.791c0.881,2.499,2.065,4.855,3.515,7.022   c1.011-0.305,1.845-0.99,2.344-1.899c-1.192-1.82-2.186-3.782-2.941-5.858C94.679,37.686,94.498,37.655,94.31,37.655z" fill="#FFFFFF"/><path d="M121.655,56.5c-0.711,0-1.414-0.035-2.113-0.087c-0.199-0.015-0.396-0.034-0.594-0.053   c-0.539-0.051-1.073-0.117-1.602-0.198c-0.171-0.026-0.344-0.048-0.514-0.077c-0.671-0.115-1.334-0.251-1.988-0.412   c-0.137-0.034-0.271-0.075-0.407-0.111c-0.527-0.138-1.049-0.291-1.564-0.459c-0.197-0.064-0.393-0.129-0.587-0.197   c-0.521-0.182-1.035-0.379-1.542-0.59c-0.116-0.048-0.235-0.091-0.351-0.141c-0.598-0.258-1.183-0.54-1.759-0.838   c-0.182-0.094-0.36-0.194-0.539-0.292c-0.415-0.226-0.824-0.462-1.227-0.707c-0.187-0.114-0.375-0.227-0.56-0.345   c-0.531-0.341-1.054-0.695-1.561-1.069l0.309,3.819l0.001,0.013c0.1,0.062,0.206,0.116,0.307,0.177   c0.405,0.246,0.816,0.483,1.233,0.711c0.173,0.095,0.346,0.19,0.522,0.282c0.464,0.243,0.935,0.472,1.412,0.691   c0.132,0.061,0.262,0.126,0.395,0.185c1.236,0.549,2.514,1.02,3.827,1.408c0.171,0.05,0.344,0.093,0.516,0.141   c0.479,0.133,0.961,0.257,1.449,0.367c0.225,0.051,0.451,0.097,0.678,0.143c0.449,0.091,0.902,0.172,1.358,0.244   c0.239,0.038,0.477,0.075,0.718,0.107c0.475,0.063,0.954,0.112,1.436,0.154c0.216,0.019,0.43,0.043,0.647,0.058   c0.695,0.046,1.395,0.075,2.101,0.075c1.405,0,2.786-0.102,4.144-0.281c-0.077-1.002-0.176-1.997-0.3-2.985   C124.24,56.404,122.959,56.5,121.655,56.5z" fill="#FFFFFF"/><path d="M106.97,55.846l-0.351-3.661c-0.104-0.064-0.209-0.126-0.312-0.192   c-0.531-0.341-1.054-0.695-1.561-1.069l0.309,3.819l0.001,0.01l0,0.003c0.1,0.062,0.206,0.116,0.307,0.177   c0.405,0.246,0.817,0.483,1.234,0.711C106.722,55.713,106.846,55.78,106.97,55.846z" fill="#000504" opacity="0.1"/><path d="M90.218,29.814c0.014,0.239,0.03,0.476,0.049,0.713c0.007,0.084,0.01,0.169,0.017,0.253l0.009,0.003   c0.174,1.947,0.513,3.848,1.025,5.679c0.187,0.671,0.394,1.333,0.624,1.985c0.881,2.499,2.065,4.855,3.515,7.022   c1.011-0.305,1.845-0.99,2.344-1.899c-1.192-1.82-2.186-3.782-2.941-5.858c-0.244-0.671-0.458-1.357-0.651-2.051   c-0.407-1.457-0.689-2.964-0.862-4.503c-0.049-0.435-0.098-0.87-0.128-1.31c-0.04-0.611-0.064-1.226-0.064-1.847   c0-5.862,1.78-11.315,4.827-15.85c-0.835-0.548-1.683-1.076-2.546-1.585C92.103,15.562,90.155,21.557,90.155,28   C90.155,28.61,90.181,29.213,90.218,29.814z" fill="#FFFFFF"/><path d="M96.982,42.237c-0.421,0.975-1.219,1.743-2.21,2.133c0.225,0.368,0.446,0.739,0.686,1.098   c1.011-0.305,1.845-0.99,2.344-1.899C97.516,43.134,97.244,42.689,96.982,42.237z" fill="#000504" opacity="0.1"/><path d="M96.209,37.66c-0.166-0.595-0.298-1.203-0.424-1.814c-0.182-0.884-0.336-1.779-0.438-2.689   c-0.039-0.345-0.072-0.691-0.102-1.038l-1.828-0.494c0.175,1.375,0.426,2.727,0.791,4.034c0.194,0.694,0.407,1.379,0.651,2.051   c0.559,0.078,1.079,0.264,1.539,0.548C96.339,38.058,96.266,37.863,96.209,37.66z" fill="#000504" opacity="0.1"/></g></svg>