<?xml version="1.0" ?><!DOCTYPE svg  PUBLIC '-//W3C//DTD SVG 1.1//EN'  'http://www.w3.org/Graphics/SVG/1.1/DTD/svg11.dtd'><svg enable-background="new 0 0 128 128" id="Слой_1" version="1.1" viewBox="0 0 128 128" xml:space="preserve" xmlns="http://www.w3.org/2000/svg" xmlns:xlink="http://www.w3.org/1999/xlink"><g><circle cx="64" cy="64" fill="#E7E4DC" r="62"/><path d="M102.222,99.833H25.778c-2.639,0-4.778-2.139-4.778-4.778V32.944h86v62.111   C107,97.694,104.861,99.833,102.222,99.833z" fill="#FFFFFF"/><path d="M76.937,49.809h-4.993c-0.552,0-1-0.448-1-1v-5c0-0.552,0.448-1,1-1h4.993c0.552,0,1,0.448,1,1v5   C77.937,49.361,77.489,49.809,76.937,49.809z" fill="#F6CA41"/><rect fill="#BDBCBB" height="2.5" width="20" x="82.266" y="45.059"/><rect fill="#BDBCBB" height="2.5" width="20" x="82.266" y="45.059"/><rect fill="#BDBCBB" height="2.5" width="20" x="82.266" y="55.059"/><path d="M76.937,59.809h-4.993c-0.552,0-1-0.448-1-1v-5c0-0.552,0.448-1,1-1h4.993c0.552,0,1,0.448,1,1v5   C77.937,59.361,77.489,59.809,76.937,59.809z" fill="#F6CA41"/><rect fill="#BDBCBB" height="2.5" width="20" x="82.266" y="65.059"/><path d="M76.937,69.809h-4.993c-0.552,0-1-0.448-1-1v-5c0-0.552,0.448-1,1-1h4.993c0.552,0,1,0.448,1,1v5   C77.937,69.361,77.489,69.809,76.937,69.809z" fill="#F6CA41"/><rect fill="#BDBCBB" height="2.5" width="20" x="82.266" y="75.059"/><path d="M76.937,79.809h-4.993c-0.552,0-1-0.448-1-1v-5c0-0.552,0.448-1,1-1h4.993c0.552,0,1,0.448,1,1v5   C77.937,79.361,77.489,79.809,76.937,79.809z" fill="#F6CA41"/><rect fill="#BDBCBB" height="2.5" width="20" x="82.266" y="85.059"/><path d="M76.937,89.809h-4.993c-0.552,0-1-0.448-1-1v-5c0-0.552,0.448-1,1-1h4.993c0.552,0,1,0.448,1,1v5   C77.937,89.361,77.489,89.809,76.937,89.809z" fill="#F6CA41"/><path d="M38.532,65.806l-1.108-0.404c-0.612-0.223-0.927-0.9-0.704-1.512l5.255-14.404   c0.223-0.612,0.9-0.927,1.512-0.704l1.108,0.404c0.612,0.223,0.927,0.9,0.704,1.512l-5.255,14.404   C39.821,65.714,39.144,66.029,38.532,65.806z" fill="#45474A"/><path d="M54.578,65.403l-1.108,0.405c-0.612,0.224-1.289-0.091-1.513-0.702l-5.27-14.401   c-0.224-0.612,0.091-1.289,0.702-1.513l1.108-0.405c0.612-0.224,1.289,0.091,1.513,0.702l5.27,14.401   C55.504,64.501,55.19,65.179,54.578,65.403z" fill="#45474A"/><path d="M52.159,65.66c0.112,0.306,0.451,0.463,0.757,0.351l2.216-0.811   c0.306-0.112,0.463-0.451,0.351-0.757l-1.078-2.947h-3.768L52.159,65.66z" fill="#050708" opacity="0.2"/><path d="M36.518,64.443c-0.112,0.306,0.046,0.644,0.352,0.756l2.216,0.808   c0.306,0.112,0.644-0.046,0.756-0.352l1.517-4.159h-3.766L36.518,64.443z" fill="#050708" opacity="0.2"/><path d="M65,62.497H27c-0.552,0-1,0.448-1,1v3c0,0.552,0.448,1,1,1h1.507l2.219,17.751   c0.156,1.251,1.22,2.19,2.481,2.19h25.586c1.261,0,2.324-0.939,2.481-2.19l2.219-17.751H65c0.552,0,1-0.448,1-1v-3   C66,62.944,65.552,62.497,65,62.497z M39.5,82.205c0,0.552-0.448,1-1,1s-1-0.448-1-1v-10.5c0-0.552,0.448-1,1-1s1,0.448,1,1V82.205   z M47,82.205c0,0.552-0.448,1-1,1s-1-0.448-1-1v-10.5c0-0.552,0.448-1,1-1s1,0.448,1,1V82.205z M54.5,82.205c0,0.552-0.448,1-1,1   s-1-0.448-1-1v-10.5c0-0.552,0.448-1,1-1s1,0.448,1,1V82.205z" fill="#C55C44"/><path d="M30.001,67.528l-1.493-0.031l2.219,17.751c0.134,1.068,0.93,1.903,1.945,2.126   c-0.23-0.326-0.392-0.706-0.445-1.126L30.001,67.528z" fill="#F6F7F5" opacity="0.2"/><path d="M27,62.497c-0.552,0-1,0.448-1,1v3c0,0.552,0.448,1,1,1h0.5v-4c0-0.552,0.448-1,1-1" fill="#F6F7F5" opacity="0.2"/><path d="M65,62.497h-0.5v4c0,0.552-0.448,1-1,1H65c0.552,0,1-0.448,1-1v-3   C66,62.944,65.552,62.497,65,62.497z" fill="#050708" opacity="0.1"/><path d="M63.5,67.437h-35l0,0l33.234,2.015l-1.96,15.795c-0.156,1.251-1.22,2.19-2.481,2.19h1.5   c1.261,0,2.324-0.939,2.481-2.19l2.219-17.751l0,0L63.5,67.437z" fill="#050708" opacity="0.1"/><circle cx="37.976" cy="65.301" fill="#45474A" r="1.25"/><path d="M55.23,64.99c0.224,0.931-0.593,1.748-1.523,1.523c-0.437-0.105-0.796-0.464-0.902-0.902   c-0.224-0.931,0.593-1.748,1.523-1.523C54.766,64.194,55.125,64.553,55.23,64.99z" fill="#45474A"/><path d="M102.222,28.167H25.778c-2.639,0-4.778,2.139-4.778,4.778v6.36h86v-6.36   C107,30.306,104.861,28.167,102.222,28.167z" fill="#4A4946"/><circle cx="26.306" cy="33.9" fill="#C55C44" r="2.389"/><circle cx="32.995" cy="33.9" fill="#F6CA41" r="2.389"/><circle cx="39.684" cy="33.9" fill="#46B19B" r="2.389"/></g></svg>