<?xml version="1.0" ?><!DOCTYPE svg  PUBLIC '-//W3C//DTD SVG 1.1//EN'  'http://www.w3.org/Graphics/SVG/1.1/DTD/svg11.dtd'><svg enable-background="new 0 0 128 128" id="Слой_1" version="1.1" viewBox="0 0 128 128" xml:space="preserve" xmlns="http://www.w3.org/2000/svg" xmlns:xlink="http://www.w3.org/1999/xlink"><g><path d="M64,2C29.758,2,2,29.758,2,64c0,17.121,6.94,32.621,18.159,43.841s76.41,11.243,87.625,0.056   C119.037,96.673,126,81.149,126,64C126,29.758,98.242,2,64,2z" fill="#65C8CE"/><path d="M70.84,122.115c8.464-7.709,6.585-28.123,6.585-28.123c-0.773-0.324-1.263-1.096-1.225-1.933l0.432-9.769   l-0.178-2.401h-24.54l-0.178,2.401l0.432,9.769c0.037,0.838-0.452,1.609-1.225,1.933c0,0-2.944,19.272,4.083,27.436   c3.799,1.132,7.053,1.857,9.168,1.857C65.817,123.285,68.13,122.841,70.84,122.115z" fill="#F1CBA7"/><path d="M63.867,108.297c0,0-0.265-3.338-0.651-6.474c-0.858,3.534-1.216,7.482-1.216,7.482   C61.91,109.303,63.958,108.299,63.867,108.297z" fill="#7C4D4C"/><path d="M64.371,103.139c0.002-1.094-0.245-2.277-0.582-3.343c-0.329,0.991-0.609,2.104-0.841,3.212L64.371,103.139   z" fill="#7C4D4C"/><path d="M107.794,107.869c-2.7-3.071-6.339-3.938-7.101-4.091c-0.074-0.011-0.134-0.02-0.164-0.025   c-0.006-0.001-0.02-0.004-0.02-0.004l-0.001,0c-0.02-0.004-0.038-0.007-0.038-0.007l-0.138-0.065L85.068,97.27l-7.816-3.273   l-0.001-0.004l-0.006,0.001l-0.003-0.001c-0.001,0.001-0.002,0.002-0.003,0.003L66,96.424c-0.907,0.286-1.636,1.642-2.211,3.372   c0.337,1.065,0.583,2.248,0.582,3.343l-1.423-0.131c0.232-1.108,0.511-2.221,0.841-3.212c-0.591-1.869-1.463-3.372-1.78-3.372   l-11.251-2.432l-4.467,1.871l-18.834,7.887c0,0-0.047,0.008-0.114,0.021c-0.07,0.013-0.163,0.032-0.296,0.063   c-0.028,0.007-0.065,0.016-0.096,0.024c-0.065,0.016-0.128,0.031-0.203,0.051c-0.034,0.009-0.076,0.021-0.113,0.031   c-0.081,0.022-0.161,0.044-0.251,0.071c-0.056,0.017-0.122,0.039-0.182,0.057c-0.081,0.025-0.158,0.048-0.244,0.077   c-0.061,0.02-0.129,0.046-0.193,0.068c-0.093,0.032-0.184,0.063-0.283,0.1c-0.083,0.031-0.173,0.068-0.26,0.103   c-0.087,0.034-0.17,0.065-0.26,0.103c-0.093,0.039-0.191,0.084-0.287,0.127c-0.089,0.04-0.176,0.076-0.268,0.119   c-0.094,0.044-0.192,0.095-0.288,0.143c-0.098,0.049-0.195,0.094-0.295,0.147c-0.09,0.047-0.183,0.102-0.275,0.153   c-0.109,0.061-0.217,0.118-0.328,0.183c-0.092,0.054-0.185,0.116-0.277,0.174c-0.112,0.07-0.224,0.137-0.336,0.212   c-0.093,0.062-0.187,0.133-0.28,0.199c-0.112,0.079-0.225,0.155-0.337,0.24c-0.094,0.071-0.187,0.151-0.281,0.226   c-0.111,0.089-0.222,0.174-0.332,0.269c-0.093,0.08-0.183,0.169-0.275,0.252c-0.109,0.1-0.219,0.196-0.327,0.302   c-0.089,0.088-0.175,0.186-0.263,0.278c-0.103,0.108-0.207,0.213-0.308,0.327l0,0l0,0c0.005,0.005,0.01,0.015,0.015,0.021   c0.008,0.009,0.016,0.022,0.023,0.032c2.717,2.707,5.684,5.163,8.862,7.332c9.94,6.781,59.936,6.752,69.897-0.075   c3.148-2.157,6.086-4.597,8.779-7.283c-0.002-0.002-0.003-0.003-0.005-0.005C107.784,107.884,107.789,107.874,107.794,107.869z" fill="#7C4D4C"/><path d="M66.29,106.859c0.49-3.55,1.637-9.78,3.71-10.435h-4c-2.073,0.655-3.22,6.885-3.71,10.435   c-0.199,1.442-0.29,2.895-0.29,4.35v14.74c0.666,0.021,1.329,0.051,2,0.051c0.671,0,1.334-0.029,2-0.051v-14.74   C66,109.754,66.091,108.301,66.29,106.859z" fill="#7C4D4C"/><path d="M66.29,106.859c0.49-3.55,1.637-9.78,3.71-10.435h-4c-2.073,0.655-3.22,6.885-3.71,10.435   c-0.199,1.442-0.29,2.895-0.29,4.35v14.74c0.666,0.021,1.329,0.051,2,0.051c0.671,0,1.334-0.029,2-0.051v-14.74   C66,109.754,66.091,108.301,66.29,106.859z" fill="#010203" opacity="0.1"/><path d="M65.991,96.424H70" fill="#7C4D4C"/><path d="M65.991,96.424H70" fill="#7C4D4C"/><path d="M51.826,87.473c-0.347,0-0.44,0.28-0.504,0.516l-2.081,6.639   c1.842,5.624,6.845,10.878,8.355,12.498c0.156,0.167,0.436,0.098,0.507-0.119c2.336-7.173,2.287-9.721,3.907-10.582   C62.009,96.424,51.947,90.441,51.826,87.473z" fill="#010303" opacity="0.1"/><path d="M51.826,87.473c-0.347,0-0.44,0.28-0.504,0.516l-2.081,6.639c2.811,6.158,6.83,9.61,8.179,10.853   c0.16,0.147,0.421,0.07,0.489-0.137c2.356-7.137,2.479-8.056,4.101-8.919C62.009,96.424,51.947,90.441,51.826,87.473z" fill="#7C4D4C"/><path d="M76.174,87.473c-0.121,2.969-10.184,8.952-10.184,8.952c1.62,0.861,1.589,3.409,3.926,10.581   c0.071,0.218,0.351,0.287,0.507,0.119c1.507-1.621,6.495-6.874,8.336-12.497l-2.081-6.64   C76.615,87.752,76.522,87.473,76.174,87.473z" fill="#010303" opacity="0.1"/><path d="M76.174,87.473c-0.121,2.969-10.184,8.952-10.184,8.952c1.623,0.863,1.746,1.782,4.101,8.919   c0.068,0.207,0.329,0.285,0.489,0.137c1.349-1.242,5.367-4.694,8.179-10.852l-2.081-6.64   C76.615,87.752,76.522,87.473,76.174,87.473z" fill="#7C4D4C"/><path d="M79.417,94.903l-0.658-0.275l-2.081-6.64c-0.046-0.173-0.111-0.368-0.278-0.46l0.232-5.238   l-0.178-2.401h-24.54l-0.178,2.401l0.166,3.754l0.728,2.153c0.587,1.735,1.542,3.332,2.793,4.669   c8.043,8.598,9.554,7.566,12.194,7.566h0.028h1.489C71.551,100.434,73.025,101.328,79.417,94.903z" fill="#010203" opacity="0.1"/><circle cx="64" cy="110" fill="#010303" opacity="0.1" r="1"/><circle cx="64" cy="121" fill="#010303" opacity="0.1" r="1"/><circle cx="61.166" cy="100.344" fill="#010303" opacity="0.1" r="1"/><path d="M32.5,106.776l-3.5,8v0.397c9.936,6.809,21.952,10.804,34.902,10.825c0.053,0,0.106,0.001,0.159,0.001   c12.965-0.013,24.993-4.01,34.938-10.825v-0.397l-3.5-8H32.5z" fill="#F6CA41"/><polygon fill="#FFFFFF" points="58.733,106.776 57.333,114.781 57.333,123.776 71.333,123.776 71.333,114.833 69.933,106.776  "/><path d="M29,115.173c9.936,6.809,21.952,10.804,34.902,10.825c0.053,0,0.106,0.001,0.159,0.001   c12.965-0.013,24.993-4.01,34.938-10.825v-0.397H29V115.173z" fill="#010303" opacity="0.05"/><path d="M38.115,49.451c-2.703,0.847-3.612,5.988-2.106,10.792c1.506,4.805,4.859,7.456,7.561,6.609   c0.068-0.021,0.13-0.055,0.196-0.081l3.865,11.427c0.587,1.735,1.542,3.332,2.793,4.669c8.043,8.598,9.554,7.566,12.194,7.566   h0.028h1.489c2.694,0,4.212,1.12,12.693-8.052c0.939-1.015,1.704-2.184,2.269-3.445l5.519-12.308   c0.087,0.036,0.17,0.079,0.26,0.106c2.708,0.832,6.045-1.837,7.526-6.65c1.48-4.813,0.542-9.947-2.165-10.78   c-0.617-0.19-1.27-0.159-1.928,0.044l0.698-3.309c-0.001-27.052-21.219-27.327-22.27-27.327h-0.937h-1.909h-1.401h-2.475   c-1.05,0-20.73,0.267-20.73,27.319l0.73,3.446C39.367,49.285,38.722,49.261,38.115,49.451z" fill="#F1CBA7"/><path d="M84.694,56.906c-0.092,0.676-0.191,1.367-0.308,2.093h0.09h0.004h0.09h1.094h0.09h0.033h0.09   c0.11-0.563,0.178-0.837,0.178-0.837l1.448-5.444c0.31-1.168,0.864-2.256,1.624-3.196l0.282-0.348   c0.169-1.632,0.946-8.533,1.06-9.269c0.09-0.582,0.191-1.783,0.165-3.31c0.063-3.693-4.621-13.161-4.792-13.328   c-4.891-4.789-12.16-9.112-19.333-9.112c-0.002,0-0.037,0-0.09,0c-0.35,0-1.635,0-1.652,0c-1.083,0-2.329,0-2.794,0   c-0.012,0-0.024,0.001-0.036,0.001c-0.019,0-0.035-0.001-0.054-0.001c-7.173,0-14.442,4.323-19.333,9.112   c-0.17,0.167-0.318,0.348-0.477,0.522c-3.74,3.498-4.378,9.112-4.315,12.805c-0.027,1.527,0.074,2.729,0.165,3.31   c0.114,0.736,0.891,7.637,1.06,9.269l0.282,0.348c0.76,0.939,1.314,2.028,1.624,3.196l1.448,5.444c0,0,0.067,0.274,0.178,0.837   h0.09h0.033h0.09h1.094h0.09h0.004h0.09c-0.117-0.726-0.216-1.417-0.308-2.093c-0.136-1.625-0.275-3.762-0.4-5.911   c-0.191-7.422-0.127-10.142,0.801-12.29c3.309-7.657,35.644-7.482,40.198,0c1.216,1.998,0.992,4.868,0.801,12.29   C84.969,53.144,84.83,55.282,84.694,56.906z" fill="#B39662"/><path d="M62.478,33.042c-9.357-0.146-18.787,1.714-20.493,5.664c-0.928,2.147-0.992,4.868-0.801,12.29   c0.075,1.286,0.155,2.555,0.236,3.726l0.915,3.441c0,0,0.067,0.274,0.178,0.837h0.09h0.033h0.09h1.094h0.09h0.004h0.09   c-0.117-0.726-0.216-1.417-0.308-2.093c-0.136-1.625-0.275-3.762-0.4-5.911c-0.191-7.422-0.127-10.142,0.801-12.29   C45.673,35.053,53.857,33.187,62.478,33.042z" fill="#B39662"/><path d="M44.657,23.266c4.891-4.789,12.16-9.112,19.333-9.112c-0.848,0-1.664,0-2.02,0   c-0.012,0-0.024,0.001-0.036,0.001c-0.019,0-0.035-0.001-0.054-0.001c-7.173,0-14.442,4.323-19.333,9.112   c-0.17,0.167-0.318,0.348-0.477,0.522c-3.74,3.498-4.378,9.112-4.315,12.805c-0.027,1.527,0.074,2.729,0.165,3.31   c0.114,0.736,0.891,7.637,1.06,9.269l0.282,0.348c0.76,0.939,1.314,2.028,1.624,3.196l1.448,5.444c0,0,0.067,0.274,0.178,0.837   h0.09h0.033h0.09h1.094h0.09h0.004h0.09c-0.117-0.726-0.216-1.417-0.308-2.093c-0.055-0.652-0.11-1.4-0.164-2.185l-0.533-2.004   c-0.31-1.168-0.864-2.257-1.624-3.196l-0.282-0.348c-0.169-1.632-0.946-8.533-1.06-9.269c-0.09-0.582-0.191-1.783-0.165-3.31   c-0.063-3.693,0.574-9.308,4.315-12.805C44.339,23.614,44.487,23.433,44.657,23.266z" fill="#FFFFFF" opacity="0.1"/><path d="M90.374,45.193c0,0-10.29-7.543-26.399-7.544v0c-0.001,0-0.002,0-0.002,0v0.001l0-0.001   c-0.001,0-0.002,0-0.002,0v0c-16.109,0.002-26.399,7.544-26.399,7.544l0.002,0.002c2.916,3.611,10.385,3.964,14.673,2.188   l5.743-3.064c7.548-3.127,16.223-1.627,22.283,3.852l4.369,4.802C88.084,56.087,87.458,48.805,90.374,45.193L90.374,45.193z" fill="#010203" opacity="0.1"/><path d="M89.174,28.068c-2.606-7.128-6.606-10.412-10.84-12.152c-3.453-1.6-6.66-2.213-10.956-3.066   c-1.12-0.222-2.254-0.332-3.389-0.331c-1.134-0.001-2.269,0.109-3.389,0.331c-4.296,0.853-7.503,1.466-10.956,3.066   c-4.233,1.74-8.234,5.024-10.84,12.152c-1.651,4.916-2.202,11.121-1.234,17.125l0.002,0.002c2.006,2.484,4.11,3.663,6.505,3.35   c1.099-0.139,2.257-0.588,3.491-1.369l5.122-3.988c3.45-2.182,7.373-3.275,11.297-3.277c3.924,0.002,7.848,1.094,11.297,3.277   l5.122,3.988c1.472,0.931,2.831,1.393,4.11,1.416c2.142,0.051,4.056-1.128,5.887-3.396l0.002-0.002   C91.376,39.188,90.825,32.983,89.174,28.068z" fill="#7C4D4C"/><path d="M89.174,28.068c-2.606-7.128-6.606-10.412-10.84-12.152c-3.453-1.6-6.66-2.213-10.956-3.066   c-1.12-0.222-2.254-0.332-3.389-0.331c-0.008,0-0.017,0.001-0.025,0.001l-8.228,2.944c-6.929,2.479-11.639,8.942-11.879,16.297   l-0.331,10.177c4.598-2.041,11.651-4.288,20.444-4.289v0c0.001,0,0.002,0,0.002,0c0.001,0,0.002,0,0.002,0v0   c16.094,0.002,26.413,7.53,26.433,7.544C91.376,39.188,90.825,32.983,89.174,28.068z" fill="#010203" opacity="0.15"/><path d="M57.391,38.081c-0.753,0.098-1.488,0.21-2.204,0.336   C55.904,38.291,56.638,38.179,57.391,38.081z" fill="#010203" opacity="0.2"/><path d="M80.992,40.568c-0.269-0.096-0.54-0.189-0.82-0.283   C80.451,40.378,80.724,40.473,80.992,40.568z" fill="#010203" opacity="0.2"/><path d="M54.538,38.533c-0.671,0.126-1.322,0.264-1.959,0.41   C53.215,38.797,53.867,38.659,54.538,38.533z" fill="#010203" opacity="0.2"/><path d="M60.502,37.773c-0.868,0.059-1.717,0.138-2.544,0.236   C58.785,37.911,59.634,37.832,60.502,37.773z" fill="#010203" opacity="0.2"/><path d="M63.941,37.649c-1.042,0.001-2.058,0.035-3.05,0.096   C61.883,37.685,62.898,37.65,63.941,37.649z" fill="#010203" opacity="0.2"/><path d="M76.066,39.097c-0.219-0.053-0.443-0.103-0.666-0.154   C75.622,38.994,75.848,39.044,76.066,39.097z" fill="#010203" opacity="0.2"/><path d="M70.587,38.081c-0.189-0.024-0.376-0.049-0.566-0.072   C70.211,38.032,70.399,38.056,70.587,38.081z" fill="#010203" opacity="0.2"/><path d="M51.913,39.097c-0.615,0.15-1.208,0.309-1.789,0.473   C50.705,39.407,51.298,39.247,51.913,39.097z" fill="#010203" opacity="0.2"/><path d="M78.719,39.823c-0.284-0.086-0.571-0.169-0.865-0.252   C78.147,39.653,78.435,39.737,78.719,39.823z" fill="#010203" opacity="0.2"/><path d="M73.441,38.533c-0.215-0.04-0.431-0.079-0.649-0.117   C73.009,38.455,73.227,38.493,73.441,38.533z" fill="#010203" opacity="0.2"/><path d="M67.477,37.773c-0.13-0.009-0.258-0.02-0.389-0.028   C67.219,37.753,67.347,37.764,67.477,37.773z" fill="#010203" opacity="0.2"/><polygon fill="#010203" opacity="0.2" points="63.989,12.518 63.989,12.518 63.992,12.518  "/><path d="M64.009,37.648c-0.001,0-0.002,0-0.002,0s-0.002,0-0.002,0v0c-0.005,0-0.009,0-0.014,0   c0.016,0,0.032,0.001,0.048,0.001C64.028,37.649,64.019,37.648,64.009,37.648L64.009,37.648z" fill="#010203" opacity="0.2"/><path d="M63.964,12.519L63.964,12.519c0.007,0,0.015-0.001,0.022-0.001   C63.979,12.519,63.972,12.519,63.964,12.519z" fill="#010203" opacity="0.2"/><path d="M84.122,31.761l0.331,10.177c-0.082-0.037-0.179-0.074-0.263-0.11   c3.984,1.738,6.21,3.359,6.219,3.366c0.968-6.005,0.417-12.21-1.234-17.125c-2.606-7.128-6.606-10.412-10.84-12.152   c-3.453-1.6-6.66-2.213-10.956-3.066c-1.112-0.221-2.238-0.329-3.364-0.33l8.228,2.944C79.172,17.943,83.882,24.405,84.122,31.761z   " fill="#010203" opacity="0.1"/><path d="M82.981,41.321c-0.205-0.083-0.409-0.165-0.622-0.248   C82.572,41.155,82.776,41.238,82.981,41.321z" fill="#010203" opacity="0.2"/><path d="M49.26,39.823c-0.498,0.151-0.984,0.305-1.454,0.462   C48.276,40.127,48.762,39.973,49.26,39.823z" fill="#010203" opacity="0.2"/><path d="M46.987,40.568c-0.47,0.167-0.929,0.335-1.367,0.505   C46.057,40.903,46.517,40.735,46.987,40.568z" fill="#010203" opacity="0.2"/><path d="M43.79,41.827c0.385-0.168,0.79-0.337,1.208-0.506C44.579,41.49,44.176,41.659,43.79,41.827z   " fill="#010203" opacity="0.2"/><path d="M75.4,38.943c-0.637-0.146-1.288-0.284-1.959-0.41C74.112,38.659,74.763,38.797,75.4,38.943z   " fill="#010203" opacity="0.2"/><polygon fill="#010203" opacity="0.2" points="63.989,12.518 63.987,12.518 63.989,12.518  "/><path d="M80.173,40.285c-0.47-0.158-0.955-0.312-1.454-0.462   C79.217,39.973,79.703,40.127,80.173,40.285z" fill="#010203" opacity="0.2"/><path d="M82.36,41.073c-0.438-0.17-0.897-0.338-1.367-0.505   C81.462,40.735,81.922,40.903,82.36,41.073z" fill="#010203" opacity="0.2"/><path d="M77.854,39.571c-0.58-0.164-1.173-0.324-1.789-0.473   C76.681,39.247,77.274,39.407,77.854,39.571z" fill="#010203" opacity="0.2"/><path d="M64.014,12.519c-0.007,0-0.015-0.001-0.022-0.001C64,12.518,64.007,12.519,64.014,12.519   L64.014,12.519z" fill="#010203" opacity="0.2"/><path d="M84.189,41.827c-0.386-0.168-0.789-0.337-1.208-0.506   C83.399,41.49,83.804,41.659,84.189,41.827z" fill="#010203" opacity="0.2"/><path d="M47.806,40.285c-0.279,0.094-0.55,0.187-0.82,0.283   C47.255,40.473,47.527,40.378,47.806,40.285z" fill="#010203" opacity="0.2"/><path d="M45.619,41.073c-0.213,0.083-0.416,0.165-0.622,0.248   C45.202,41.238,45.407,41.155,45.619,41.073z" fill="#010203" opacity="0.2"/><path d="M50.124,39.571c-0.293,0.083-0.58,0.166-0.865,0.252   C49.543,39.737,49.832,39.653,50.124,39.571z" fill="#010203" opacity="0.2"/><path d="M72.792,38.416c-0.717-0.125-1.452-0.237-2.204-0.336   C71.34,38.179,72.075,38.291,72.792,38.416z" fill="#010203" opacity="0.2"/><path d="M63.975,37.648c-0.001,0-0.002,0-0.002,0c-0.001,0-0.002,0-0.002,0v0   c-0.01,0-0.019,0.001-0.029,0.001c0.016,0,0.032-0.001,0.049-0.001C63.985,37.649,63.98,37.648,63.975,37.648L63.975,37.648z" fill="#010203" opacity="0.2"/><path d="M52.579,38.943c-0.223,0.051-0.447,0.101-0.666,0.154   C52.131,39.044,52.356,38.994,52.579,38.943z" fill="#010203" opacity="0.2"/><path d="M67.088,37.745c-0.992-0.06-2.008-0.094-3.05-0.096C65.08,37.65,66.096,37.685,67.088,37.745   z" fill="#010203" opacity="0.2"/><path d="M70.021,38.009c-0.827-0.098-1.676-0.177-2.544-0.236   C68.345,37.832,69.194,37.911,70.021,38.009z" fill="#010203" opacity="0.2"/><path d="M60.891,37.745c-0.131,0.008-0.259,0.019-0.389,0.028   C60.632,37.764,60.76,37.753,60.891,37.745z" fill="#010203" opacity="0.2"/><path d="M57.958,38.009c-0.191,0.023-0.378,0.047-0.566,0.072   C57.58,38.056,57.768,38.032,57.958,38.009z" fill="#010203" opacity="0.2"/><path d="M55.187,38.416c-0.218,0.038-0.434,0.076-0.649,0.117   C54.752,38.493,54.97,38.455,55.187,38.416z" fill="#010203" opacity="0.2"/><path d="M90.374,45.193c0,0-10.29-7.543-26.399-7.544v0c-0.001,0-0.002,0-0.002,0v0.001l0-0.001   c-0.001,0-0.002,0-0.002,0v0c-16.109,0.002-26.399,7.544-26.399,7.544l0.002,0.002c2.916,3.611,6.039,4.465,9.962,1.985   l5.138-3.997c6.906-4.366,15.709-4.364,22.614,0.004l5.122,3.988C84.332,49.658,87.458,48.805,90.374,45.193L90.374,45.193z" fill="#010203" opacity="0.1"/><path d="M61.237,40.054c0.041,0.005,0.082,0.021,0.123,0.027c0.231-0.029,0.462-0.051,0.693-0.072   C61.736,40.03,61.451,40.047,61.237,40.054z" fill="#010203" opacity="0.05"/><path d="M74.866,38.822c-4.176,0.343-9.221,0.897-12.037,1.128c4.306-0.234,8.667,0.84,12.457,3.237   l5.122,3.988c3.923,2.482,7.049,1.629,9.965-1.983C90.374,45.193,84.574,40.942,74.866,38.822z" fill="#010203" opacity="0.15"/></g></svg>