<?xml version="1.0" ?><!DOCTYPE svg  PUBLIC '-//W3C//DTD SVG 1.1//EN'  'http://www.w3.org/Graphics/SVG/1.1/DTD/svg11.dtd'><svg enable-background="new 0 0 128 128" id="Слой_1" version="1.1" viewBox="0 0 128 128" xml:space="preserve" xmlns="http://www.w3.org/2000/svg" xmlns:xlink="http://www.w3.org/1999/xlink"><g><circle cx="64" cy="64" fill="#E7E4DC" r="62"/><path d="M89.797,108.609H38.204c-2.322,0-4.204-1.882-4.204-4.204v-80.81c0-2.322,1.882-4.204,4.204-4.204h51.592   c2.322,0,4.204,1.882,4.204,4.204v80.809C94.001,106.727,92.119,108.609,89.797,108.609z" fill="#333638"/><rect fill="#F6CA41" height="72.001" width="53.218" x="37.391" y="27.999"/><path d="M55.795,32.112H38.391v25.143c0.031,0.054,0.062,0.109,0.093,0.163c0.008,0.014-0.029,0.028-0.093,0.042   v0.279l1.863,0.014c0-0.014-0.002-0.028-0.002-0.042c0-0.099,0.009-0.196,0.015-0.293l9.41-0.964   c0.079,0.295,0.337,0.505,0.64,0.505h5.809c0.365,0,0.662-0.296,0.662-0.662V33.114C56.787,32.561,56.343,32.112,55.795,32.112z" fill="#373A3C"/><path d="M55.801,32.112h-18.41v25.641c0.31,0,2.869,0,2.869,0c0-0.014-0.002-0.028-0.002-0.042   c0-2.671,2.152-4.844,4.797-4.844c2.225,0,4.096,1.54,4.635,3.618c0.072,0.277,0.317,0.474,0.604,0.474h5.838   c0.365,0,0.662-0.296,0.662-0.662V33.114C56.794,32.561,56.35,32.112,55.801,32.112z" fill="#45474A"/><ellipse cx="45.056" cy="57.712" fill="#7BA9B7" rx="4.136" ry="4.176"/><path d="M56.791,55.22h-1.979c-0.367,0-0.665,0.298-0.665,0.665v0.396c0,0.367,0.298,0.665,0.665,0.665h1.979   c0.367,0,0.665-0.298,0.665-0.665v-0.396C57.456,55.518,57.158,55.22,56.791,55.22z" fill="#373A3C"/><ellipse cx="45.056" cy="57.712" fill="#45474A" rx="4.136" ry="4.176"/><path d="M47.807,54.6c0.653,0.738,1.054,1.71,1.054,2.778c0,2.306-1.852,4.176-4.136,4.176   c-1.058,0-2.02-0.404-2.751-1.064c0.757,0.856,1.856,1.398,3.082,1.398c2.284,0,4.136-1.87,4.136-4.176   C49.191,56.473,48.654,55.364,47.807,54.6z" fill="#050708" opacity="0.2"/><ellipse cx="45.056" cy="57.712" fill="#373A3C" rx="2.481" ry="2.506"/><path d="M45.056,53.536c-2.284,0-4.136,1.87-4.136,4.176c0,1.238,0.537,2.347,1.385,3.112   c-0.653-0.738-1.054-1.71-1.054-2.778c0-2.306,1.852-4.176,4.136-4.176c1.058,0,2.02,0.404,2.751,1.064   C47.38,54.078,46.282,53.536,45.056,53.536z" fill="#F6F7F8" opacity="0.1"/><path d="M45.056,55.039c-1.459,0-2.647,1.199-2.647,2.673c0,1.474,1.187,2.673,2.647,2.673   c1.459,0,2.647-1.199,2.647-2.673C47.702,56.238,46.515,55.039,45.056,55.039z M45.056,60.05c-1.277,0-2.316-1.049-2.316-2.339   c0-1.29,1.039-2.339,2.316-2.339s2.316,1.049,2.316,2.339C47.371,59.001,46.332,60.05,45.056,60.05z" fill="#5A5D60"/><circle cx="44.394" cy="57.044" fill="#282829" r="0.251"/><circle cx="44.394" cy="58.38" fill="#282829" r="0.251"/><circle cx="45.717" cy="58.38" fill="#282829" r="0.251"/><circle cx="45.717" cy="57.044" fill="#282829" r="0.251"/><path d="M45.056,36.733l-5.812,3.15v6.961l5.812,3.504l5.812-3.504v-6.961L45.056,36.733z M50.396,40.005   l-1.728,0.922l-5.257-2.926l1.644-0.891L50.396,40.005z M42.054,38.737l1.013-0.549l5.398,3.005v1.079l-1.081,0.591v-1.158   L42.054,38.737z M45.056,42.854l-5.289-2.878l1.942-1.053l5.244,2.919L45.056,42.854z M39.575,40.248l5.315,2.892v6.722   l-5.315-3.205V40.248z M45.221,49.862v-6.721l1.833-0.978v1.257l1.742-0.953v-1.234l1.741-0.929v6.353L45.221,49.862z" fill="#F6CA41"/><path d="M70.566,51.059c0.236-0.507,0.373-1.073,0.373-1.672c0-2.153-1.708-3.899-3.815-3.899   c-1.875,0-3.431,1.384-3.752,3.206c-0.319-0.109-0.661-0.171-1.017-0.171c-1.731,0-3.134,1.394-3.134,3.113   c0,0.876,0.366,1.666,0.953,2.231c0.54,0.519,0.786,1.303,0.58,2.023c-0.231,0.808-0.975,1.309-2.722,1.549v0.534l4.724,0.014   c0.55,0.572,1.309,0.735,2.159,0.735c1.161,0,2.168-0.663,2.676-1.636c0.608,0.439,1.365,0.703,2.19,0.703   c1.994,0,3.611-1.525,3.611-3.406C73.391,52.755,72.182,51.397,70.566,51.059z" fill="#45474A" opacity="0.4"/><path d="M57.37,58.001h-5.13c-0.465,0-0.844-0.378-0.844-0.844v-0.211h0.579v0.211c0,0.146,0.119,0.265,0.265,0.265   h5.13V58.001z" fill="#373A3C"/><circle cx="64.001" cy="104.175" fill="#4B4F51" r="2.609"/><circle cx="64.001" cy="23.304" fill="#4B4F51" r="1.043"/><circle cx="64" cy="81.005" fill="#FFFFFF" r="12.5"/><path d="M63.999,91.067c-0.802,0-1.56-0.365-2.061-0.991l-7.687-9.62l4.122-3.293l5.618,7.032l9.627-12.133   l4.132,3.279L66.066,90.07c-0.501,0.629-1.259,0.995-2.063,0.997C64.003,91.067,64.001,91.067,63.999,91.067z" fill="#47AB98"/></g></svg>