<?xml version="1.0" ?><!DOCTYPE svg  PUBLIC '-//W3C//DTD SVG 1.1//EN'  'http://www.w3.org/Graphics/SVG/1.1/DTD/svg11.dtd'><svg enable-background="new 0 0 128 128" id="Слой_1" version="1.1" viewBox="0 0 128 128" xml:space="preserve" xmlns="http://www.w3.org/2000/svg" xmlns:xlink="http://www.w3.org/1999/xlink"><g><circle cx="64" cy="64" fill="#E7E4DC" r="62"/><path d="M102.222,99.833H25.778c-2.639,0-4.778-2.139-4.778-4.778V32.944h86v62.111   C107,97.694,104.861,99.833,102.222,99.833z" fill="#FFFFFF"/><path d="M28.928,80.104c-0.013,0-0.023,0.006-0.035,0.007l-0.262-1.073C28.51,78.436,27.986,78,27.384,78H26.21   v0.863h1.173c0.189,0,0.361,0.148,0.404,0.361l2.608,10.677c0.082,0.41,0.36,0.739,0.722,0.906c-0.123,0.215-0.2,0.46-0.2,0.725   c0,0.809,0.658,1.468,1.468,1.468c0.809,0,1.468-0.658,1.468-1.468c0-0.216-0.05-0.419-0.134-0.604h4.444   c-0.084,0.185-0.134,0.388-0.134,0.604c0,0.809,0.658,1.468,1.468,1.468c0.809,0,1.468-0.658,1.468-1.468   c0-0.809-0.658-1.468-1.468-1.468h-7.849c-0.197,0-0.367-0.14-0.41-0.351l-0.332-1.359l9.199-0.841   c0.62-0.065,1.094-0.465,1.201-0.996L43,80.104H28.928z M32.99,91.532c0,0.333-0.271,0.604-0.604,0.604s-0.604-0.271-0.604-0.604   s0.271-0.604,0.604-0.604S32.99,91.199,32.99,91.532z M40.101,91.532c0,0.333-0.271,0.604-0.604,0.604   c-0.333,0-0.604-0.271-0.604-0.604s0.271-0.604,0.604-0.604C39.83,90.928,40.101,91.199,40.101,91.532z M40.466,86.322   c-0.044,0.216-0.262,0.314-0.445,0.333l-9.322,0.852l-1.597-6.54h12.778L40.466,86.322z" fill="#BDBCBB"/><rect fill="#BDBCBB" height="2.5" width="23" x="26.266" y="44.304"/><polyline fill="#BDBCBB" points="26.266,49.304 44.266,49.304 44.266,51.804 26.266,51.804  "/><polyline fill="#BDBCBB" points="26.266,54.304 46.266,54.304 46.266,56.804 26.266,56.804  "/><polyline fill="#BDBCBB" points="26.266,59.304 38.266,59.304 38.266,61.804 26.266,61.804  "/><polyline fill="#BDBCBB" points="26.266,64.304 47.266,64.304 47.266,66.804 26.266,66.804  "/><polyline fill="#BDBCBB" points="26.266,69.304 45.266,69.304 45.266,71.804 26.266,71.804  "/><path d="M102.222,28.167H25.778c-2.639,0-4.778,2.139-4.778,4.778v6.36h86v-6.36   C107,30.306,104.861,28.167,102.222,28.167z" fill="#4A4946"/><circle cx="26.306" cy="33.9" fill="#C55C44" r="2.389"/><circle cx="32.995" cy="33.9" fill="#F6CA41" r="2.389"/><circle cx="39.684" cy="33.9" fill="#46B19B" r="2.389"/><rect fill="#C55C44" height="23" width="23" x="53.073" y="44.304"/><rect fill="#65C8CE" height="23" width="23" x="79.073" y="44.304"/><rect fill="#46B19B" height="23" width="23" x="53.073" y="70.304"/><rect fill="#F6CA41" height="23" width="23" x="79.073" y="70.304"/></g></svg>