<?xml version="1.0" ?><!DOCTYPE svg  PUBLIC '-//W3C//DTD SVG 1.1//EN'  'http://www.w3.org/Graphics/SVG/1.1/DTD/svg11.dtd'><svg enable-background="new 0 0 128 128" id="Слой_1" version="1.1" viewBox="0 0 128 128" xml:space="preserve" xmlns="http://www.w3.org/2000/svg" xmlns:xlink="http://www.w3.org/1999/xlink"><g><circle cx="64" cy="64" fill="#E7E4DC" r="62"/><path d="M13.569,75.867c-0.64,1.224-0.167,2.734,1.056,3.374l33.808,17.686c0.256,0.134,0.533,0.222,0.819,0.262   l21.674,2.978c1.045,0.143,2.067-0.384,2.555-1.318l8.063-15.414c0.299-0.571,0.366-1.236,0.186-1.856l-7.959-27.432l9.701-18.543   l17.147-4.449c1.336-0.347,2.139-1.711,1.793-3.047c-0.348-1.337-1.712-2.138-3.047-1.793l-18.221,4.728   c-0.684,0.178-1.26,0.636-1.588,1.261l-30.912,59.09L16.943,74.81C15.719,74.17,14.209,74.643,13.569,75.867z M69.865,94.973   l-16.281-2.237l16.838-32.187l6.226,21.458L69.865,94.973z" fill="#7C4D4C"/><path d="M76.648,82.007l-6.783,12.967l-14.51-1.994c-0.269,1.633-0.314,3.324-0.1,5.033l15.67,2.153   c1.045,0.143,2.067-0.384,2.555-1.318l8.063-15.414c0.299-0.571,0.366-1.236,0.186-1.856l-0.174-0.601   c-1.778-1.105-3.761-1.897-5.874-2.302L76.648,82.007z" fill="#010203" opacity="0.15"/><ellipse cx="73.624" cy="95.029" fill="#45474A" rx="15.382" ry="15.533" transform="matrix(0.9771 -0.2127 0.2127 0.9771 -18.5241 17.8298)"/><path d="M81.161,81.542c2.958,2.167,5.182,5.381,6.027,9.263c1.824,8.382-3.426,16.642-11.727,18.449   c-3.844,0.837-7.66,0.128-10.84-1.692c3.43,2.512,7.85,3.614,12.306,2.644c8.301-1.807,13.551-10.066,11.727-18.449   C87.675,87.257,84.847,83.651,81.161,81.542z" fill="#050708" opacity="0.2"/><path d="M75.606,104.136c-4.973,1.082-9.907-2.122-11-7.144c-1.093-5.022,2.063-9.987,7.036-11.069   c4.973-1.082,9.907,2.122,11,7.144C83.735,98.088,80.579,103.053,75.606,104.136z" fill="#373A3C"/><path d="M71.788,80.803c3.844-0.837,7.66-0.128,10.84,1.691c-3.43-2.512-7.85-3.614-12.306-2.644   C62.02,81.657,56.77,89.917,58.594,98.3c0.979,4.5,3.808,8.106,7.494,10.215c-2.958-2.167-5.182-5.381-6.027-9.263   C58.236,90.87,63.487,82.61,71.788,80.803z" fill="#F6F7F8" opacity="0.1"/><path d="M75.738,104.743c-5.304,1.154-10.568-2.264-11.733-7.62c-1.166-5.356,2.201-10.653,7.505-11.807   s10.568,2.264,11.733,7.62C84.409,98.291,81.042,103.588,75.738,104.743z M71.774,86.529c-4.641,1.01-7.587,5.645-6.567,10.331   c1.02,4.687,5.626,7.678,10.267,6.668c4.641-1.01,7.587-5.645,6.567-10.331C81.021,88.51,76.415,85.519,71.774,86.529z" fill="#5A5D60"/><ellipse cx="70.691" cy="93.124" fill="#282829" rx="0.923" ry="0.932" transform="matrix(0.9771 -0.2127 0.2127 0.9771 -18.1861 17.1625)"/><ellipse cx="71.748" cy="97.981" fill="#282829" rx="0.923" ry="0.932" transform="matrix(0.9771 -0.2127 0.2127 0.9771 -19.1947 17.4983)"/><ellipse cx="76.558" cy="96.934" fill="#282829" rx="0.923" ry="0.932" transform="matrix(0.9771 -0.2127 0.2127 0.9771 -18.8621 18.4971)"/><ellipse cx="75.501" cy="92.077" fill="#282829" rx="0.923" ry="0.932" transform="matrix(0.9771 -0.2127 0.2127 0.9771 -17.8535 18.1613)"/><rect fill="#FFFFFF" height="8.4" transform="matrix(-0.8861 -0.4635 0.4635 -0.8861 65.8141 111.6963)" width="12" x="40.633" y="43.561"/><polygon fill="#F6CA41" points="43.263,41.258 39.369,48.701 50.002,54.263 53.896,46.82 66.375,53.348 47.833,88.792 12.39,70.25    30.932,34.807  "/><path d="M14.848,70.021c-0.466-0.24-0.65-0.813-0.41-1.279l3.877-7.534c0.24-0.466,0.813-0.65,1.279-0.41   l11.649,5.994c0.466,0.24,0.65,0.813,0.41,1.279l-3.877,7.534c-0.24,0.466-0.813,0.65-1.279,0.41L14.848,70.021z" fill="#FFFFFF"/><polyline fill="#45474A" opacity="0.7" points="20.799,62.217 20.306,61.963 17.14,68.114 17.634,68.368  "/><polygon fill="#45474A" opacity="0.7" points="19.664,61.633 19.269,61.429 15.173,69.389 15.568,69.592 15.823,69.723    19.919,61.764  "/><rect fill="#45474A" height="0.222" opacity="0.7" transform="matrix(-0.4576 0.8892 -0.8892 -0.4576 87.1858 77.9994)" width="6.918" x="16.342" y="65.482"/><path d="M18.769,68.952" fill="none" opacity="0.7" stroke="#45474A" stroke-miterlimit="10"/><path d="M19.164,69.156" fill="none" opacity="0.7" stroke="#45474A" stroke-miterlimit="10" stroke-width="2"/><rect fill="#45474A" height="0.666" opacity="0.7" transform="matrix(-0.4576 0.8892 -0.8892 -0.4576 89.1352 77.8578)" width="6.918" x="17.36" y="65.784"/><rect fill="#45474A" height="0.333" opacity="0.7" transform="matrix(-0.4576 0.8892 -0.8892 -0.4576 90.9963 77.7226)" width="6.918" x="18.332" y="66.451"/><path d="M20.447,69.816" fill="none" opacity="0.7" stroke="#45474A" stroke-miterlimit="10" stroke-width="3"/><rect fill="#45474A" height="0.508" opacity="0.7" transform="matrix(0.4576 -0.8892 0.8892 0.4576 -48.4023 56.5266)" width="8.952" x="17.653" y="67.68"/><rect fill="#45474A" height="0.666" opacity="0.7" transform="matrix(-0.4576 0.8892 -0.8892 -0.4576 94.4791 77.4696)" width="6.918" x="20.15" y="67.22"/><rect fill="#45474A" height="0.538" opacity="0.7" transform="matrix(-0.4576 0.8892 -0.8892 -0.4576 96.5293 77.3207)" width="6.918" x="21.221" y="67.835"/><rect fill="#45474A" height="0.286" opacity="0.7" transform="matrix(-0.4576 0.8892 -0.8892 -0.4576 97.9366 77.2184)" width="6.918" x="21.956" y="68.339"/><rect fill="#45474A" height="0.777" opacity="0.7" transform="matrix(-0.4576 0.8892 -0.8892 -0.4576 99.3945 77.1125)" width="6.918" x="22.717" y="68.485"/><path d="M24.89,72.102" fill="none" opacity="0.7" stroke="#45474A" stroke-miterlimit="10" stroke-width="2"/><path d="M25.186,72.254" fill="none" opacity="0.7" stroke="#45474A" stroke-miterlimit="10"/><path d="M25.581,72.458" fill="none" opacity="0.7" stroke="#45474A" stroke-miterlimit="10" stroke-width="2"/><rect fill="#45474A" height="0.555" opacity="0.7" transform="matrix(-0.4576 0.8892 -0.8892 -0.4576 101.4741 76.9614)" width="6.918" x="23.803" y="69.155"/><rect fill="#45474A" height="0.333" opacity="0.7" transform="matrix(0.4576 -0.8892 0.8892 0.4576 -47.9223 63.1337)" width="8.952" x="23.308" y="70.678"/><path d="M30.918,67.424l-0.494-0.254l-4.096,7.959l0.494,0.254c0.034,0.017,0.069,0.031,0.104,0.041   l4.086-7.94C30.983,67.461,30.952,67.441,30.918,67.424z" fill="#45474A" opacity="0.7"/><path d="M17.404,68.842c-0.008-0.066-0.03-0.125-0.065-0.177c-0.036-0.052-0.086-0.095-0.151-0.128   c-0.065-0.033-0.128-0.049-0.191-0.048c-0.063,0.001-0.123,0.018-0.181,0.05c-0.058,0.032-0.114,0.079-0.166,0.14   c-0.053,0.061-0.102,0.136-0.146,0.223c-0.045,0.087-0.077,0.169-0.096,0.248c-0.019,0.079-0.025,0.151-0.017,0.217   c0.008,0.066,0.029,0.125,0.064,0.176c0.035,0.051,0.085,0.094,0.15,0.127c0.065,0.033,0.129,0.049,0.191,0.049   c0.063-0.001,0.124-0.017,0.182-0.049c0.058-0.032,0.114-0.079,0.167-0.14c0.053-0.061,0.101-0.135,0.146-0.222   c0.045-0.087,0.077-0.17,0.096-0.249C17.407,68.98,17.412,68.908,17.404,68.842z M17.012,69.415   c-0.041,0.049-0.081,0.085-0.12,0.11c-0.039,0.024-0.078,0.038-0.115,0.04c-0.037,0.002-0.073-0.006-0.105-0.023   c-0.032-0.017-0.058-0.041-0.078-0.072c-0.02-0.031-0.031-0.07-0.034-0.116c-0.003-0.046,0.004-0.1,0.02-0.162   c0.016-0.061,0.044-0.131,0.084-0.208s0.08-0.141,0.121-0.19c0.041-0.049,0.081-0.086,0.121-0.111   c0.039-0.025,0.078-0.038,0.115-0.04c0.037-0.002,0.072,0.005,0.104,0.022c0.033,0.017,0.059,0.041,0.08,0.073   c0.02,0.032,0.032,0.071,0.034,0.117c0.003,0.046-0.004,0.101-0.02,0.163c-0.016,0.062-0.044,0.132-0.084,0.209   S17.052,69.366,17.012,69.415z" fill="#45474A"/><path d="M18.13,69.854c-0.002-0.031-0.007-0.061-0.017-0.092c-0.009-0.03-0.021-0.06-0.036-0.087   c0.027-0.004,0.052-0.011,0.078-0.021c0.025-0.01,0.049-0.021,0.071-0.035c0.022-0.014,0.042-0.03,0.06-0.049   c0.018-0.018,0.033-0.039,0.045-0.062c0.021-0.042,0.032-0.086,0.032-0.132c0-0.046-0.009-0.091-0.027-0.135   c-0.018-0.044-0.045-0.085-0.08-0.123s-0.077-0.07-0.127-0.095c-0.049-0.025-0.099-0.041-0.15-0.047s-0.099-0.004-0.145,0.007   c-0.046,0.011-0.088,0.029-0.125,0.056c-0.038,0.027-0.067,0.061-0.088,0.103c-0.024,0.047-0.035,0.097-0.032,0.15   c0.003,0.053,0.018,0.104,0.044,0.154c-0.031,0.003-0.061,0.01-0.091,0.021c-0.03,0.01-0.058,0.024-0.084,0.04   c-0.026,0.016-0.05,0.036-0.071,0.058c-0.022,0.022-0.039,0.047-0.053,0.074c-0.024,0.047-0.037,0.095-0.038,0.146   c-0.001,0.051,0.007,0.101,0.026,0.148c0.018,0.048,0.046,0.093,0.083,0.134c0.037,0.041,0.082,0.076,0.135,0.103   c0.053,0.027,0.108,0.044,0.163,0.051c0.056,0.006,0.109,0.003,0.159-0.009c0.05-0.013,0.096-0.034,0.137-0.065   s0.073-0.069,0.097-0.116c0.014-0.027,0.024-0.056,0.029-0.086C18.13,69.915,18.132,69.884,18.13,69.854z M17.83,69.165   c0.021-0.016,0.044-0.027,0.07-0.033s0.053-0.008,0.081-0.005c0.028,0.003,0.056,0.011,0.082,0.025   c0.027,0.014,0.05,0.031,0.07,0.053c0.019,0.021,0.034,0.045,0.044,0.07c0.01,0.025,0.015,0.05,0.015,0.077   c0,0.026-0.007,0.051-0.019,0.075c-0.012,0.024-0.029,0.043-0.05,0.058c-0.021,0.015-0.045,0.026-0.07,0.032   c-0.026,0.006-0.053,0.007-0.082,0.004c-0.029-0.003-0.057-0.012-0.084-0.026c-0.026-0.014-0.049-0.031-0.068-0.052   c-0.019-0.021-0.033-0.044-0.043-0.069c-0.01-0.025-0.015-0.05-0.014-0.075c0-0.026,0.007-0.05,0.019-0.074   C17.793,69.2,17.809,69.181,17.83,69.165z M17.877,70.021c-0.025,0.019-0.052,0.033-0.082,0.041   c-0.03,0.009-0.061,0.011-0.094,0.008c-0.033-0.003-0.065-0.013-0.096-0.029c-0.031-0.016-0.057-0.036-0.078-0.06   s-0.037-0.052-0.048-0.081c-0.011-0.029-0.015-0.059-0.014-0.09c0.001-0.031,0.009-0.061,0.024-0.09   c0.015-0.029,0.035-0.053,0.059-0.073c0.025-0.02,0.052-0.034,0.082-0.042c0.03-0.009,0.061-0.011,0.094-0.008   c0.032,0.003,0.064,0.013,0.095,0.028c0.031,0.016,0.058,0.036,0.079,0.061c0.022,0.025,0.038,0.052,0.048,0.081   c0.01,0.029,0.015,0.06,0.013,0.091c-0.001,0.032-0.01,0.062-0.024,0.091C17.921,69.978,17.901,70.002,17.877,70.021z" fill="#45474A"/><path d="M19.107,70.151c-0.016-0.052-0.041-0.1-0.077-0.143c-0.036-0.044-0.081-0.08-0.135-0.108   c-0.009-0.005-0.022-0.011-0.038-0.017c-0.016-0.007-0.034-0.013-0.055-0.02c-0.021-0.006-0.044-0.012-0.068-0.016   c-0.024-0.004-0.05-0.006-0.076-0.006c0.035-0.051,0.064-0.093,0.088-0.127c0.023-0.034,0.042-0.062,0.057-0.083   c0.017-0.025,0.03-0.044,0.04-0.06l0.491,0.253l0.067-0.131l-0.619-0.318l-0.386,0.563l0.146,0.075   c0.021-0.009,0.042-0.015,0.065-0.019c0.023-0.004,0.045-0.005,0.068-0.005c0.023,0.001,0.044,0.003,0.066,0.009   c0.021,0.005,0.04,0.013,0.058,0.022c0.031,0.016,0.058,0.037,0.081,0.064c0.023,0.027,0.041,0.058,0.052,0.091   c0.012,0.034,0.017,0.07,0.015,0.108c-0.002,0.038-0.012,0.075-0.031,0.112c-0.018,0.036-0.042,0.066-0.071,0.09   c-0.029,0.024-0.061,0.042-0.094,0.053c-0.034,0.011-0.069,0.016-0.105,0.013c-0.036-0.002-0.071-0.012-0.104-0.029   c-0.024-0.012-0.045-0.028-0.063-0.048c-0.018-0.02-0.033-0.043-0.045-0.07c-0.011-0.026-0.019-0.055-0.022-0.087   c-0.003-0.032-0.001-0.065,0.005-0.101l-0.164-0.084c-0.015,0.06-0.021,0.117-0.017,0.169c0.004,0.053,0.016,0.101,0.035,0.145   c0.02,0.044,0.047,0.083,0.081,0.118c0.034,0.034,0.075,0.063,0.121,0.087c0.069,0.036,0.135,0.056,0.197,0.06   c0.062,0.005,0.119-0.002,0.171-0.021c0.051-0.019,0.097-0.047,0.137-0.084s0.073-0.08,0.098-0.129   c0.027-0.053,0.043-0.107,0.048-0.163C19.127,70.257,19.122,70.203,19.107,70.151z" fill="#45474A"/><path d="M20.258,70.135l-0.153-0.079l-0.856,0.432l-0.081,0.157l0.5,0.257l-0.14,0.271l0.154,0.079l0.14-0.271   l0.16,0.082l0.066-0.128l-0.16-0.082L20.258,70.135z M19.734,70.775l-0.346-0.178l0.596-0.309L19.734,70.775z" fill="#45474A"/><path d="M21.961,71.613c-0.014-0.051-0.038-0.098-0.073-0.14c-0.035-0.043-0.081-0.078-0.137-0.107   c-0.018-0.009-0.038-0.017-0.062-0.025c-0.024-0.008-0.049-0.013-0.076-0.015c-0.027-0.003-0.056-0.002-0.086,0.002   c-0.03,0.004-0.06,0.013-0.091,0.026c0.027-0.042,0.057-0.084,0.091-0.124c0.034-0.04,0.071-0.073,0.111-0.099   c0.04-0.026,0.082-0.043,0.126-0.05c0.044-0.007,0.088,0.001,0.134,0.025c0.026,0.014,0.048,0.031,0.065,0.052   c0.017,0.021,0.03,0.044,0.039,0.068c0.009,0.024,0.013,0.049,0.014,0.075c0.001,0.025-0.002,0.049-0.009,0.072l0.151,0.078   c0.013-0.041,0.019-0.084,0.02-0.129c0-0.045-0.007-0.089-0.022-0.131c-0.015-0.042-0.039-0.082-0.071-0.12   S22.012,71,21.961,70.974c-0.062-0.032-0.125-0.049-0.189-0.05c-0.063-0.001-0.126,0.015-0.188,0.048   c-0.062,0.033-0.124,0.084-0.184,0.153s-0.118,0.158-0.174,0.266c-0.044,0.086-0.073,0.166-0.087,0.241   c-0.014,0.075-0.015,0.143-0.002,0.205c0.013,0.062,0.039,0.117,0.078,0.165c0.039,0.048,0.089,0.088,0.15,0.119   c0.056,0.029,0.112,0.045,0.167,0.049c0.055,0.003,0.107-0.004,0.156-0.021c0.049-0.018,0.093-0.045,0.133-0.081   c0.04-0.036,0.073-0.079,0.098-0.129c0.028-0.054,0.045-0.109,0.053-0.165C21.978,71.717,21.975,71.663,21.961,71.613z    M21.696,71.942c-0.026,0.024-0.053,0.042-0.083,0.054c-0.03,0.012-0.06,0.018-0.092,0.018s-0.062-0.008-0.091-0.023   c-0.029-0.015-0.053-0.035-0.072-0.061c-0.02-0.026-0.034-0.055-0.043-0.087c-0.009-0.032-0.012-0.066-0.008-0.102   s0.014-0.072,0.032-0.107c0.014-0.027,0.033-0.053,0.056-0.077c0.023-0.024,0.05-0.043,0.08-0.057   c0.03-0.014,0.062-0.022,0.097-0.023c0.034-0.001,0.07,0.008,0.107,0.027c0.031,0.016,0.055,0.037,0.074,0.063   c0.019,0.026,0.031,0.055,0.038,0.087c0.007,0.032,0.007,0.065,0.002,0.1c-0.005,0.035-0.016,0.068-0.033,0.101   C21.743,71.889,21.721,71.918,21.696,71.942z" fill="#45474A"/><path d="M22.876,72.277c-0.002-0.031-0.007-0.061-0.017-0.092c-0.009-0.03-0.021-0.06-0.036-0.087   c0.027-0.004,0.052-0.011,0.078-0.021c0.025-0.01,0.049-0.021,0.071-0.035c0.022-0.014,0.042-0.03,0.06-0.049   c0.018-0.018,0.033-0.039,0.045-0.062c0.021-0.042,0.032-0.086,0.032-0.132c0-0.046-0.009-0.091-0.027-0.135   c-0.018-0.044-0.045-0.085-0.08-0.123c-0.035-0.038-0.077-0.07-0.127-0.095c-0.049-0.025-0.099-0.041-0.15-0.047   s-0.099-0.004-0.145,0.007c-0.046,0.011-0.088,0.029-0.125,0.056c-0.038,0.027-0.067,0.061-0.088,0.103   c-0.024,0.047-0.035,0.097-0.032,0.15c0.003,0.053,0.018,0.104,0.044,0.154c-0.031,0.003-0.061,0.01-0.091,0.021   c-0.03,0.01-0.058,0.024-0.084,0.04c-0.026,0.016-0.05,0.036-0.071,0.058c-0.022,0.022-0.039,0.047-0.053,0.074   c-0.024,0.047-0.037,0.095-0.038,0.146c-0.001,0.051,0.007,0.101,0.026,0.148c0.018,0.048,0.046,0.093,0.083,0.134   c0.037,0.041,0.082,0.076,0.135,0.103c0.053,0.027,0.108,0.044,0.163,0.051c0.056,0.006,0.109,0.003,0.159-0.009   c0.05-0.013,0.096-0.034,0.137-0.065s0.073-0.069,0.097-0.116c0.014-0.027,0.024-0.056,0.029-0.086   C22.876,72.338,22.878,72.308,22.876,72.277z M22.576,71.589c0.021-0.016,0.044-0.027,0.07-0.033s0.053-0.008,0.081-0.005   c0.028,0.003,0.056,0.011,0.082,0.025c0.027,0.014,0.05,0.031,0.07,0.053c0.019,0.021,0.034,0.045,0.044,0.07   c0.01,0.025,0.015,0.05,0.015,0.077c0,0.026-0.007,0.051-0.019,0.075c-0.012,0.024-0.029,0.043-0.05,0.058   c-0.021,0.015-0.045,0.026-0.07,0.032c-0.026,0.006-0.053,0.007-0.082,0.004c-0.029-0.003-0.057-0.012-0.084-0.026   c-0.026-0.014-0.049-0.031-0.068-0.052c-0.019-0.021-0.033-0.044-0.043-0.069c-0.01-0.025-0.015-0.05-0.014-0.075   c0-0.026,0.007-0.05,0.019-0.074C22.539,71.624,22.555,71.604,22.576,71.589z M22.623,72.445c-0.025,0.019-0.052,0.033-0.082,0.041   c-0.03,0.009-0.061,0.011-0.094,0.008c-0.033-0.003-0.065-0.013-0.096-0.029c-0.031-0.016-0.057-0.036-0.078-0.06   s-0.037-0.052-0.048-0.081c-0.011-0.029-0.015-0.059-0.014-0.09c0.001-0.031,0.009-0.061,0.024-0.09   c0.015-0.029,0.035-0.053,0.059-0.073c0.025-0.02,0.052-0.034,0.082-0.042c0.03-0.009,0.061-0.011,0.094-0.008   c0.032,0.003,0.064,0.013,0.095,0.028c0.031,0.016,0.058,0.036,0.079,0.061c0.022,0.025,0.038,0.052,0.048,0.081   c0.01,0.029,0.015,0.06,0.013,0.091c-0.001,0.032-0.01,0.062-0.024,0.091C22.667,72.402,22.647,72.426,22.623,72.445z" fill="#45474A"/><path d="M24.028,72.204c-0.013-0.062-0.038-0.117-0.077-0.165c-0.039-0.048-0.089-0.088-0.15-0.119   c-0.057-0.029-0.113-0.046-0.169-0.049c-0.055-0.003-0.108,0.004-0.156,0.022s-0.093,0.045-0.132,0.081   c-0.039,0.036-0.072,0.079-0.098,0.129c-0.028,0.055-0.046,0.11-0.053,0.166c-0.007,0.055-0.004,0.109,0.01,0.159   c0.014,0.051,0.038,0.097,0.073,0.14c0.035,0.043,0.081,0.078,0.137,0.108c0.018,0.009,0.038,0.017,0.062,0.024   c0.024,0.007,0.049,0.011,0.077,0.013c0.028,0.002,0.056,0.002,0.086-0.002c0.03-0.004,0.06-0.012,0.091-0.024   c-0.017,0.029-0.037,0.057-0.058,0.084c-0.021,0.028-0.044,0.053-0.068,0.077c-0.024,0.024-0.049,0.045-0.075,0.063   c-0.026,0.018-0.054,0.032-0.082,0.041c-0.028,0.009-0.057,0.013-0.087,0.011c-0.03-0.002-0.06-0.01-0.09-0.026   c-0.026-0.014-0.048-0.031-0.066-0.052c-0.017-0.021-0.03-0.044-0.039-0.069c-0.009-0.025-0.013-0.05-0.014-0.075   c-0.001-0.026,0.002-0.049,0.008-0.072l-0.149-0.077c-0.014,0.041-0.022,0.084-0.022,0.129c-0.001,0.045,0.007,0.088,0.022,0.131   c0.015,0.043,0.039,0.082,0.071,0.12s0.074,0.069,0.125,0.096c0.063,0.032,0.125,0.049,0.189,0.05   c0.063,0.001,0.126-0.015,0.188-0.048c0.062-0.033,0.124-0.084,0.183-0.153c0.06-0.069,0.118-0.158,0.174-0.267   c0.044-0.086,0.073-0.166,0.087-0.24C24.04,72.334,24.041,72.266,24.028,72.204z M23.77,72.483c-0.023,0.024-0.05,0.043-0.08,0.057   c-0.03,0.014-0.062,0.021-0.097,0.022c-0.035,0.001-0.071-0.008-0.108-0.027c-0.031-0.016-0.055-0.037-0.074-0.063   c-0.018-0.026-0.031-0.055-0.038-0.087c-0.007-0.032-0.007-0.065-0.002-0.099c0.005-0.035,0.016-0.068,0.033-0.101   c0.017-0.033,0.039-0.062,0.064-0.087c0.026-0.024,0.053-0.043,0.082-0.055c0.029-0.012,0.06-0.018,0.091-0.018   c0.032,0,0.062,0.008,0.092,0.023c0.028,0.014,0.052,0.034,0.072,0.06c0.02,0.026,0.034,0.055,0.043,0.087   c0.009,0.032,0.012,0.066,0.008,0.102s-0.014,0.072-0.032,0.107C23.812,72.433,23.793,72.459,23.77,72.483z" fill="#45474A"/><path d="M25.004,72.558l-0.153-0.079l-0.856,0.432l-0.081,0.157l0.5,0.257l-0.14,0.271l0.154,0.079l0.14-0.271   l0.16,0.082l0.066-0.128l-0.16-0.082L25.004,72.558z M24.48,73.198l-0.346-0.178l0.596-0.309L24.48,73.198z" fill="#45474A"/><path d="M25.74,73.546c-0.016-0.052-0.041-0.1-0.077-0.143c-0.036-0.044-0.081-0.08-0.135-0.108   c-0.009-0.005-0.022-0.011-0.038-0.017c-0.016-0.007-0.034-0.013-0.055-0.02c-0.021-0.006-0.044-0.012-0.068-0.016   c-0.024-0.004-0.05-0.006-0.076-0.006c0.035-0.051,0.064-0.093,0.088-0.127c0.023-0.034,0.042-0.062,0.057-0.083   c0.017-0.025,0.03-0.044,0.04-0.06l0.491,0.253l0.067-0.131l-0.619-0.318l-0.386,0.563l0.146,0.075   c0.021-0.009,0.042-0.015,0.065-0.019c0.023-0.004,0.045-0.005,0.068-0.005c0.023,0.001,0.044,0.003,0.066,0.009   c0.021,0.005,0.04,0.013,0.058,0.022c0.031,0.016,0.058,0.037,0.081,0.064c0.023,0.027,0.041,0.058,0.052,0.091   c0.012,0.034,0.017,0.07,0.015,0.108c-0.002,0.038-0.012,0.075-0.031,0.112c-0.018,0.036-0.042,0.066-0.071,0.09   c-0.029,0.024-0.061,0.042-0.094,0.053c-0.034,0.011-0.069,0.016-0.105,0.013c-0.036-0.002-0.071-0.012-0.104-0.029   c-0.024-0.012-0.045-0.028-0.063-0.048c-0.018-0.02-0.033-0.043-0.045-0.07c-0.011-0.026-0.019-0.055-0.022-0.087   c-0.003-0.032-0.001-0.065,0.005-0.101l-0.164-0.084c-0.015,0.06-0.021,0.117-0.017,0.169c0.004,0.053,0.016,0.101,0.035,0.145   c0.02,0.044,0.047,0.083,0.081,0.118c0.034,0.034,0.075,0.063,0.121,0.087c0.069,0.036,0.135,0.056,0.197,0.06   c0.062,0.005,0.119-0.002,0.171-0.021c0.051-0.019,0.097-0.047,0.137-0.084s0.073-0.08,0.098-0.129   c0.027-0.053,0.043-0.107,0.048-0.163C25.761,73.651,25.755,73.597,25.74,73.546z" fill="#45474A"/><g><path d="M51.839,74.779c-0.513-1.636-1.632-2.976-3.151-3.771c-0.916-0.479-1.942-0.732-2.97-0.732    c-2.4,0-4.582,1.32-5.694,3.446c-0.128,0.244-0.033,0.547,0.212,0.675l4.683,2.45l-2.933,5.394    c-0.235,0.433-0.775,0.595-1.286,0.314c-0.23-0.125-0.397-0.332-0.472-0.583s-0.046-0.516,0.079-0.745    c0.132-0.243,0.042-0.547-0.2-0.679c-0.242-0.13-0.547-0.041-0.679,0.2c-0.253,0.465-0.31,1-0.159,1.507    c0.149,0.507,0.488,0.926,1.03,1.222c0.281,0.152,0.59,0.23,0.901,0.23c0.18,0,0.361-0.026,0.538-0.078    c0.484-0.144,0.885-0.467,1.126-0.91l2.941-5.409l4.921,2.575c0.072,0.037,0.151,0.057,0.231,0.057    c0.05,0,0.101-0.008,0.149-0.022c0.127-0.04,0.232-0.128,0.294-0.246C52.196,78.154,52.352,76.416,51.839,74.779z M50.727,78.757    l-9.564-5.004c0.993-1.539,2.697-2.477,4.556-2.477c0.879,0,1.722,0.208,2.507,0.619c1.282,0.671,2.228,1.802,2.66,3.183    C51.268,76.3,51.209,77.588,50.727,78.757z" fill="#46484B"/><path d="M40.366,66.802l-5.246-2.744c-0.241-0.125-0.546-0.033-0.675,0.212l-2.744,5.246    c-0.428,0.818-0.512,1.755-0.235,2.637c0.226,0.72,0.677,1.323,1.277,1.757l-1.815,3.468l-2.179-1.14    c-0.241-0.125-0.546-0.033-0.675,0.212c-0.128,0.244-0.033,0.547,0.212,0.675l2.621,1.371c0,0,0.001,0.001,0.001,0.001    c0,0,0.001,0,0.001,0l2.622,1.372c0.073,0.038,0.153,0.057,0.231,0.057c0.18,0,0.354-0.098,0.443-0.269    c0.128-0.244,0.033-0.547-0.212-0.675l-2.179-1.14l1.82-3.479c0.366,0.128,0.744,0.217,1.131,0.217    c1.293,0,2.469-0.711,3.068-1.856l2.744-5.246C40.706,67.232,40.611,66.93,40.366,66.802z M36.947,72.26    c-0.61,1.167-2.143,1.655-3.32,1.038c-0.582-0.305-1.011-0.817-1.207-1.444s-0.137-1.293,0.168-1.875l2.512-4.803l4.36,2.28    L36.947,72.26z" fill="#46484B"/></g></g></svg>