<?xml version="1.0" ?><!DOCTYPE svg  PUBLIC '-//W3C//DTD SVG 1.1//EN'  'http://www.w3.org/Graphics/SVG/1.1/DTD/svg11.dtd'><svg enable-background="new 0 0 128 128" id="Слой_1" version="1.1" viewBox="0 0 128 128" xml:space="preserve" xmlns="http://www.w3.org/2000/svg" xmlns:xlink="http://www.w3.org/1999/xlink"><g><circle cx="64" cy="64" fill="#E7E4DC" r="62"/><path d="M89.796,108.609H38.204c-2.322,0-4.204-1.882-4.204-4.204v-80.81c0-2.322,1.882-4.204,4.204-4.204h51.592   c2.322,0,4.204,1.882,4.204,4.204v80.809C94.001,106.727,92.118,108.609,89.796,108.609z" fill="#333638"/><rect fill="#F6CA41" height="72.001" width="53.218" x="37.391" y="27.999"/><path d="M85.5,57.853h-5.024c-0.456,0-0.826-0.371-0.826-0.826v-0.207h0.567v0.207c0,0.143,0.116,0.259,0.259,0.259   H85.5V57.853z" fill="#373A3C"/><path d="M52.813,32.323c-0.551,0-0.993,0.459-0.978,1.016l0.013,0.467l-4.243,10.381   c-0.063,0.155-0.183,0.28-0.334,0.349l-4.331,1.979c-0.583,0.267-0.958,0.854-0.958,1.5l0.006,8.084l1.604-0.206   c0,0,9.979,1.242,9.979,1.256l13.463,0.246V32.323H52.813z M52.827,42.967c0,0.309-0.248,0.56-0.554,0.56h-2.86   c-0.395,0-0.663-0.405-0.513-0.774l2.86-6.997c0.232-0.567,1.067-0.399,1.067,0.214V42.967z" fill="#373A3C"/><path d="M83.863,32.323H67.028v25.251l1.514,0.028c0-0.014-0.002-0.027-0.002-0.041   c0-0.097,0.009-0.193,0.014-0.289l9.277-0.95c0.078,0.291,0.332,0.498,0.631,0.498h6.379V33.311   C84.841,32.765,84.403,32.323,83.863,32.323z" fill="#373A3C"/><path d="M83.869,32.323H67.034h-0.006H52.82c-0.551,0-0.993,0.459-0.978,1.016l0.013,0.467L47.61,44.187   c-0.063,0.154-0.182,0.278-0.333,0.347l-4.331,1.979c-0.583,0.267-0.958,0.854-0.958,1.5v8.208h1.19   c0.235,0,0.454-0.141,0.533-0.363c0.698-1.983,2.608-3.404,4.807-3.404c2.788,0,5.055,2.29,5.055,5.105   c0,0.014-0.002,0.027-0.002,0.041h13.457h0.006h1.514c0-0.014-0.002-0.027-0.002-0.041c0-2.633,2.122-4.776,4.729-4.776   c2.187,0,4.028,1.509,4.565,3.55c0.075,0.286,0.332,0.485,0.628,0.485h6.379V33.311C84.848,32.765,84.41,32.323,83.869,32.323z    M52.833,42.967c0,0.309-0.248,0.56-0.554,0.56h-2.86c-0.395,0-0.663-0.405-0.513-0.774l2.86-6.997   c0.232-0.567,1.067-0.399,1.067,0.214V42.967z" fill="#45474A"/><path d="M73.275,36.25l-5.929,3.214v7.101l5.929,3.575l5.929-3.575v-7.101L73.275,36.25z M78.723,39.587   l-1.763,0.941l-5.362-2.985l1.677-0.909L78.723,39.587z M70.213,38.294l1.033-0.56l5.507,3.065v1.1l-1.103,0.603v-1.181   L70.213,38.294z M73.276,42.494l-5.396-2.936l1.981-1.074l5.349,2.977L73.276,42.494z M67.684,39.836l5.422,2.951v6.857   l-5.422-3.27V39.836z M73.444,49.643v-6.856l1.869-0.998v1.282l1.778-0.972v-1.259l1.775-0.947v6.48L73.444,49.643z" fill="#F6CA41"/><ellipse cx="73.275" cy="57.56" fill="#7BA9B7" rx="4.077" ry="4.117"/><path d="M82.898,56.819h1.943c0.362,0,0.659-0.279,0.659-0.641v-0.391c0-0.362-0.293-0.656-0.656-0.656h-1.951   c-0.362,0-0.656,0.293-0.656,0.656v0.391C82.238,56.54,82.536,56.819,82.898,56.819z" fill="#373A3C"/><ellipse cx="48.518" cy="57.56" fill="#45474A" rx="4.077" ry="4.117"/><path d="M48.844,53.773c1.043,0,1.991,0.399,2.712,1.049c-0.747-0.844-1.829-1.378-3.038-1.378   c-2.252,0-4.077,1.843-4.077,4.117c0,1.221,0.529,2.314,1.365,3.068c-0.644-0.728-1.039-1.686-1.039-2.739   C44.767,55.616,46.592,53.773,48.844,53.773z" fill="#F7FAFB" opacity="0.1"/><path d="M51.23,54.492c0.644,0.728,1.039,1.686,1.039,2.739c0,2.274-1.825,4.117-4.077,4.117   c-1.043,0-1.991-0.399-2.712-1.049c0.747,0.844,1.829,1.378,3.038,1.378c2.252,0,4.077-1.843,4.077-4.117   C52.595,56.339,52.066,55.246,51.23,54.492z" fill="#050708" opacity="0.2"/><ellipse cx="48.518" cy="57.56" fill="#373A3C" rx="2.446" ry="2.47"/><path d="M48.844,53.773c1.043,0,1.991,0.399,2.712,1.049c-0.747-0.844-1.829-1.378-3.038-1.378   c-2.252,0-4.077,1.843-4.077,4.117c0,1.221,0.529,2.314,1.365,3.068c-0.644-0.728-1.039-1.686-1.039-2.739   C44.767,55.616,46.592,53.773,48.844,53.773z" fill="#F6F7F8" opacity="0.1"/><path d="M48.518,60.195c-1.439,0-2.609-1.182-2.609-2.635s1.171-2.635,2.609-2.635c1.439,0,2.609,1.182,2.609,2.635   S49.956,60.195,48.518,60.195z M48.518,55.255c-1.259,0-2.283,1.034-2.283,2.306s1.024,2.306,2.283,2.306s2.283-1.034,2.283-2.306   S49.776,55.255,48.518,55.255z" fill="#5A5D60"/><path d="M41.351,56.222h1.56c0.47,0,0.851-0.381,0.851-0.851v0c0-0.47-0.381-0.851-0.851-0.851h-1.56   c-0.47,0-0.851,0.381-0.851,0.851v0C40.5,55.841,40.881,56.222,41.351,56.222z" fill="#373A3C"/><path d="M56.529,56.489l-2.169-9.838c-0.012-0.056-0.018-0.113-0.018-0.17V36.116c0-0.435,0.353-0.787,0.787-0.787   h7.884c0.435,0,0.788,0.353,0.788,0.787v10.366c0,0.057,0.006,0.114,0.018,0.17l2.094,9.499c0.108,0.491-0.266,0.957-0.769,0.957   h-7.846C56.929,57.107,56.609,56.85,56.529,56.489z" fill="#373A3C"/><circle cx="47.865" cy="56.901" fill="#282829" r="0.245"/><circle cx="47.865" cy="58.219" fill="#282829" r="0.245"/><circle cx="49.17" cy="58.219" fill="#282829" r="0.245"/><circle cx="49.17" cy="56.901" fill="#282829" r="0.245"/><ellipse cx="73.275" cy="57.56" fill="#45474A" rx="4.077" ry="4.117"/><path d="M75.987,54.492c0.644,0.728,1.039,1.686,1.039,2.739c0,2.274-1.825,4.117-4.077,4.117   c-1.043,0-1.991-0.399-2.712-1.049c0.747,0.844,1.829,1.378,3.038,1.378c2.252,0,4.077-1.843,4.077-4.117   C77.352,56.339,76.823,55.246,75.987,54.492z" fill="#050708" opacity="0.2"/><ellipse cx="73.275" cy="57.56" fill="#373A3C" rx="2.446" ry="2.47"/><path d="M73.602,53.773c1.043,0,1.991,0.399,2.712,1.049c-0.747-0.844-1.829-1.378-3.038-1.378   c-2.252,0-4.077,1.843-4.077,4.117c0,1.221,0.529,2.314,1.365,3.068c-0.644-0.728-1.039-1.686-1.039-2.739   C69.525,55.616,71.35,53.773,73.602,53.773z" fill="#F6F7F8" opacity="0.1"/><path d="M73.275,60.195c-1.439,0-2.609-1.182-2.609-2.635s1.171-2.635,2.609-2.635c1.439,0,2.609,1.182,2.609,2.635   S74.714,60.195,73.275,60.195z M73.275,55.255c-1.259,0-2.283,1.034-2.283,2.306s1.024,2.306,2.283,2.306   c1.259,0,2.283-1.034,2.283-2.306S74.534,55.255,73.275,55.255z" fill="#5A5D60"/><circle cx="72.623" cy="56.901" fill="#282829" r="0.245"/><circle cx="72.623" cy="58.219" fill="#282829" r="0.245"/><circle cx="73.928" cy="58.219" fill="#282829" r="0.245"/><circle cx="73.928" cy="56.901" fill="#282829" r="0.245"/><path d="M41.982,52.661L41.982,52.661v-2.923l0,0c-0.199,0-0.361,0.161-0.361,0.361V52.3   C41.621,52.499,41.783,52.661,41.982,52.661z" fill="#373A3C"/><path d="M41.621,52.455c-0.343-0.861-0.418-1.704,0-2.511V52.455z" fill="#F6CA41"/><circle cx="44.516" cy="50.479" fill="#F6CA41" r="0.489"/><path d="M51.47,78.009h-8c-0.552,0-1-0.448-1-1v-8.01c0-0.552,0.448-1,1-1h8c0.552,0,1,0.448,1,1v8.01   C52.47,77.561,52.022,78.009,51.47,78.009z" fill="#FFFFFF"/><g><path d="M47.828,77.067c-0.38,0-0.739-0.173-0.977-0.47l-3.643-4.559l1.953-1.561l2.662,3.332l4.562-5.749    l1.958,1.554l-5.536,6.979c-0.237,0.298-0.597,0.472-0.978,0.473C47.83,77.067,47.829,77.067,47.828,77.067z" fill="#47AB98"/></g><rect fill="#FFFFFF" height="2.5" width="28" x="57.53" y="68.749"/><rect fill="#FFFFFF" height="2.5" width="14" x="57.53" y="73.749"/><rect fill="#FFFFFF" height="2.5" width="29" x="42.5" y="83.009"/><rect fill="#FFFFFF" height="2.5" width="15" x="42.5" y="88.009"/><rect fill="#FFFFFF" height="2.5" width="23" x="42.5" y="93.009"/><circle cx="64" cy="104.175" fill="#4B4F51" r="2.609"/><circle cx="64" cy="23.304" fill="#4B4F51" r="1.043"/></g></svg>