<?xml version="1.0" ?><!DOCTYPE svg  PUBLIC '-//W3C//DTD SVG 1.1//EN'  'http://www.w3.org/Graphics/SVG/1.1/DTD/svg11.dtd'><svg enable-background="new 0 0 128 128" id="Слой_1" version="1.1" viewBox="0 0 128 128" xml:space="preserve" xmlns="http://www.w3.org/2000/svg" xmlns:xlink="http://www.w3.org/1999/xlink"><g><circle cx="64" cy="64" fill="#E7E4DC" r="62"/><path d="M97.859,31.839L73.26,34.101c-1.324,0.122-2.544,0.766-3.393,1.789L31.269,82.487   c-1.762,2.127-1.466,5.279,0.661,7.04l26.953,22.327c2.127,1.762,5.279,1.466,7.04-0.661l38.599-46.597   c0.848-1.024,1.254-2.343,1.127-3.666l-2.355-24.59C103.032,33.6,100.602,31.586,97.859,31.839z M94.31,45.655   c-2.209,0-4-1.791-4-4c0-2.209,1.791-4,4-4c2.209,0,4,1.791,4,4C98.31,43.865,96.519,45.655,94.31,45.655z" fill="#7C4D4C"/><path d="M94.31,45.656c-0.586,0-1.139-0.133-1.64-0.36c0.627,1.389,2.017,2.36,3.64,2.36c2.209,0,4-1.791,4-4   c0-1.623-0.971-3.013-2.36-3.64c0.227,0.502,0.36,1.054,0.36,1.64C98.31,43.865,96.519,45.656,94.31,45.656z" fill="#7C4D4C"/><path d="M99.527,32.614l-24.614-2.09c-1.325-0.113-2.639,0.307-3.654,1.166L25.08,70.788   c-2.107,1.784-2.37,4.939-0.585,7.047l22.616,26.712c1.784,2.108,4.939,2.37,7.047,0.585l46.179-39.098   c1.015-0.859,1.645-2.087,1.753-3.412l1.998-24.622C104.31,35.256,102.271,32.847,99.527,32.614z M94.31,45.655   c-2.209,0-4-1.791-4-4c0-2.209,1.791-4,4-4c2.209,0,4,1.791,4,4C98.31,43.865,96.519,45.655,94.31,45.655z" fill="#F6CA41"/><path d="M102.089,62.622c-0.108,1.325-0.738,2.553-1.753,3.412l-46.179,39.098   c-0.636,0.539-1.369,0.879-2.129,1.046l2.015,1.669c0.87-0.139,1.716-0.492,2.437-1.103l43.957-37.216l3.86-4.66   c0.045-0.21,0.098-0.417,0.115-0.633l0.712-8.771l-1.329-13.876L102.089,62.622z" fill="#000504" opacity="0.1"/><path d="M101.053,33.687l-23.849-6.438c-1.283-0.346-2.652-0.168-3.803,0.497L21,58   c-2.391,1.381-3.211,4.439-1.83,6.83l17.5,30.311c1.381,2.392,4.439,3.211,6.83,1.83l52.401-30.254   c1.151-0.665,1.99-1.76,2.332-3.045l6.349-23.873C105.29,37.138,103.712,34.405,101.053,33.687z M94.31,45.655   c-2.209,0-4-1.791-4-4c0-2.209,1.791-4,4-4c2.209,0,4,1.791,4,4C98.31,43.865,96.519,45.655,94.31,45.655z" fill="#46B19B"/><path d="M95.901,66.717L43.5,96.971c-0.714,0.412-1.486,0.615-2.254,0.648l1.695,2.002   c0.869,0.011,1.752-0.185,2.559-0.651L95.594,70.05l4.393-3.719c0.091-0.215,0.186-0.43,0.247-0.658l2.315-8.706l1.112-13.702   l-5.427,20.407C97.891,64.957,97.052,66.053,95.901,66.717z" fill="#000504" opacity="0.1"/><path d="M94.31,35.655c-3.309,0-6,2.691-6,6s2.691,6,6,6s6-2.691,6-6S97.618,35.655,94.31,35.655z M94.31,45.655   c-2.209,0-4-1.791-4-4c0-2.209,1.791-4,4-4c2.209,0,4,1.791,4,4C98.31,43.865,96.519,45.655,94.31,45.655z" fill="#4A4946"/><g><path d="M41.561,65.766l-5.443,3.143l2.014,3.488l4.551-2.627c0.42-0.243,0.789-0.33,1.107-0.261    c0.316,0.069,0.566,0.262,0.75,0.578c0.182,0.316,0.221,0.628,0.117,0.937c-0.104,0.308-0.363,0.581-0.777,0.821l-4.549,2.626    l2.594,4.494c0.33,0.57,0.445,1.068,0.346,1.492c-0.098,0.425-0.348,0.754-0.75,0.986c-0.41,0.236-0.824,0.289-1.242,0.158    c-0.418-0.13-0.791-0.478-1.117-1.042l-6.059-10.494c-0.229-0.396-0.357-0.755-0.385-1.074c-0.027-0.318,0.053-0.608,0.236-0.868    c0.186-0.26,0.475-0.502,0.865-0.728l6.512-3.76c0.439-0.255,0.822-0.346,1.15-0.274c0.326,0.072,0.582,0.267,0.764,0.583    c0.186,0.322,0.229,0.643,0.127,0.962C42.27,65.225,42,65.512,41.561,65.766z" fill="#FFFFFF"/><path d="M51.906,67.358l-0.967,0.559l2.529,4.382c0.332,0.577,0.451,1.075,0.354,1.495    c-0.096,0.419-0.35,0.747-0.758,0.983c-0.441,0.255-0.865,0.309-1.271,0.163s-0.768-0.494-1.088-1.046L44.646,63.4    c-0.344-0.596-0.459-1.104-0.346-1.524c0.111-0.42,0.467-0.803,1.062-1.146l4.492-2.594c0.621-0.358,1.166-0.638,1.637-0.84    c0.471-0.201,0.93-0.323,1.377-0.366c0.531-0.067,1.059-0.028,1.58,0.116c0.521,0.146,0.996,0.392,1.422,0.735    c0.428,0.346,0.783,0.766,1.07,1.262c0.588,1.018,0.77,1.996,0.547,2.935c-0.223,0.939-0.844,1.872-1.863,2.8    c0.641-0.022,1.332,0.092,2.072,0.342c0.738,0.251,1.449,0.562,2.131,0.934s1.254,0.732,1.717,1.081s0.744,0.611,0.844,0.784    c0.104,0.181,0.148,0.392,0.137,0.635c-0.014,0.242-0.09,0.473-0.229,0.689c-0.141,0.217-0.34,0.4-0.6,0.551    c-0.311,0.18-0.613,0.257-0.908,0.232c-0.295-0.023-0.582-0.104-0.863-0.238c-0.281-0.137-0.678-0.346-1.188-0.63l-2.172-1.202    c-0.787-0.447-1.439-0.757-1.957-0.93c-0.516-0.173-0.975-0.23-1.371-0.175C52.84,66.906,52.396,67.076,51.906,67.358z     M50.18,60.715l-2.549,1.472l2.164,3.749l2.475-1.429c0.664-0.383,1.188-0.763,1.574-1.139s0.621-0.771,0.699-1.185    c0.08-0.414-0.02-0.863-0.299-1.347c-0.219-0.378-0.508-0.656-0.867-0.834c-0.357-0.177-0.75-0.238-1.172-0.185    C51.803,59.869,51.129,60.167,50.18,60.715z" fill="#FFFFFF"/><path d="M67.607,50.727l-6.223,3.594l1.934,3.349l5.73-3.309c0.422-0.243,0.791-0.33,1.107-0.261    s0.564,0.259,0.744,0.568c0.18,0.311,0.223,0.622,0.131,0.936s-0.352,0.594-0.779,0.841l-5.73,3.309l2.24,3.879l6.438-3.717    c0.434-0.25,0.818-0.338,1.154-0.264c0.338,0.075,0.602,0.279,0.795,0.614c0.188,0.322,0.229,0.648,0.125,0.977    c-0.104,0.329-0.373,0.618-0.807,0.869l-7.508,4.334c-0.602,0.348-1.111,0.464-1.529,0.35s-0.799-0.47-1.143-1.065l-5.918-10.252    c-0.229-0.396-0.357-0.755-0.385-1.074c-0.027-0.318,0.051-0.608,0.236-0.868s0.473-0.502,0.863-0.728l7.295-4.211    c0.439-0.255,0.822-0.346,1.15-0.274c0.326,0.072,0.58,0.267,0.764,0.583c0.186,0.322,0.229,0.643,0.127,0.962    C68.318,50.186,68.049,50.473,67.607,50.727z" fill="#FFFFFF"/><path d="M80.316,43.39l-6.225,3.594l1.934,3.349l5.73-3.309c0.422-0.243,0.791-0.33,1.109-0.262    c0.316,0.07,0.564,0.26,0.744,0.569c0.178,0.311,0.221,0.622,0.129,0.936s-0.352,0.594-0.779,0.841l-5.73,3.309l2.24,3.879    l6.438-3.717c0.434-0.25,0.82-0.338,1.156-0.264s0.602,0.279,0.795,0.614c0.186,0.322,0.227,0.647,0.123,0.976    c-0.104,0.33-0.373,0.619-0.807,0.87l-7.508,4.334c-0.602,0.348-1.111,0.464-1.527,0.349c-0.418-0.113-0.799-0.469-1.143-1.064    l-5.92-10.252c-0.229-0.396-0.357-0.754-0.385-1.074c-0.027-0.318,0.053-0.607,0.236-0.868c0.186-0.26,0.475-0.502,0.865-0.728    l7.293-4.211c0.439-0.254,0.824-0.346,1.15-0.273c0.326,0.071,0.582,0.266,0.764,0.582c0.188,0.322,0.229,0.643,0.129,0.962    C81.027,42.85,80.756,43.136,80.316,43.39z" fill="#FFFFFF"/></g><path d="M94.31,37.655c-0.889,0-1.703,0.3-2.367,0.791c0.881,2.499,2.065,4.855,3.515,7.022   c1.011-0.305,1.845-0.99,2.344-1.899c-1.192-1.82-2.186-3.782-2.941-5.858C94.679,37.686,94.498,37.655,94.31,37.655z" fill="#FFFFFF"/><path d="M121.655,56.5c-0.711,0-1.414-0.035-2.113-0.087c-0.199-0.015-0.396-0.034-0.594-0.053   c-0.539-0.051-1.073-0.117-1.602-0.198c-0.171-0.026-0.344-0.048-0.514-0.077c-0.671-0.115-1.334-0.251-1.988-0.412   c-0.137-0.034-0.271-0.075-0.407-0.111c-0.527-0.138-1.049-0.291-1.564-0.459c-0.197-0.064-0.393-0.129-0.587-0.197   c-0.521-0.182-1.035-0.379-1.542-0.59c-0.116-0.048-0.235-0.091-0.351-0.141c-0.598-0.258-1.183-0.54-1.759-0.838   c-0.182-0.094-0.36-0.194-0.539-0.292c-0.415-0.226-0.824-0.462-1.227-0.707c-0.187-0.114-0.375-0.227-0.56-0.345   c-0.531-0.341-1.054-0.695-1.561-1.069l0.309,3.819l0.001,0.013c0.1,0.062,0.206,0.116,0.307,0.177   c0.405,0.246,0.816,0.483,1.233,0.711c0.173,0.095,0.346,0.19,0.522,0.282c0.464,0.243,0.935,0.472,1.412,0.691   c0.132,0.061,0.262,0.126,0.395,0.185c1.236,0.549,2.514,1.02,3.827,1.408c0.171,0.05,0.344,0.093,0.516,0.141   c0.479,0.133,0.961,0.257,1.449,0.367c0.225,0.051,0.451,0.097,0.678,0.143c0.449,0.091,0.902,0.172,1.358,0.244   c0.239,0.038,0.477,0.075,0.718,0.107c0.475,0.063,0.954,0.112,1.436,0.154c0.216,0.019,0.43,0.043,0.647,0.058   c0.695,0.046,1.395,0.075,2.101,0.075c1.405,0,2.786-0.102,4.144-0.281c-0.077-1.002-0.176-1.997-0.3-2.985   C124.24,56.404,122.959,56.5,121.655,56.5z" fill="#FFFFFF"/><path d="M106.97,55.846l-0.351-3.661c-0.104-0.064-0.209-0.126-0.312-0.192   c-0.531-0.341-1.054-0.695-1.561-1.069l0.309,3.819l0.001,0.01l0,0.003c0.1,0.062,0.206,0.116,0.307,0.177   c0.405,0.246,0.817,0.483,1.234,0.711C106.722,55.713,106.846,55.78,106.97,55.846z" fill="#000504" opacity="0.1"/><path d="M90.218,29.814c0.014,0.239,0.03,0.476,0.049,0.713c0.007,0.084,0.01,0.169,0.017,0.253l0.009,0.003   c0.174,1.947,0.513,3.848,1.025,5.679c0.187,0.671,0.394,1.333,0.624,1.985c0.881,2.499,2.065,4.855,3.515,7.022   c1.011-0.305,1.845-0.99,2.344-1.899c-1.192-1.82-2.186-3.782-2.941-5.858c-0.244-0.671-0.458-1.357-0.651-2.051   c-0.407-1.457-0.689-2.964-0.862-4.503c-0.049-0.435-0.098-0.87-0.128-1.31c-0.04-0.611-0.064-1.226-0.064-1.847   c0-5.862,1.78-11.315,4.827-15.85c-0.835-0.548-1.683-1.076-2.546-1.585C92.103,15.562,90.155,21.557,90.155,28   C90.155,28.61,90.181,29.213,90.218,29.814z" fill="#FFFFFF"/><path d="M96.982,42.237c-0.421,0.975-1.219,1.743-2.21,2.133c0.225,0.368,0.446,0.739,0.686,1.098   c1.011-0.305,1.845-0.99,2.344-1.899C97.516,43.134,97.244,42.689,96.982,42.237z" fill="#000504" opacity="0.1"/><path d="M96.209,37.66c-0.166-0.595-0.298-1.203-0.424-1.814c-0.182-0.884-0.336-1.779-0.438-2.689   c-0.039-0.345-0.072-0.691-0.102-1.038l-1.828-0.494c0.175,1.375,0.426,2.727,0.791,4.034c0.194,0.694,0.407,1.379,0.651,2.051   c0.559,0.078,1.079,0.264,1.539,0.548C96.339,38.058,96.266,37.863,96.209,37.66z" fill="#000504" opacity="0.1"/></g></svg>