<?xml version="1.0" ?><!DOCTYPE svg  PUBLIC '-//W3C//DTD SVG 1.1//EN'  'http://www.w3.org/Graphics/SVG/1.1/DTD/svg11.dtd'><svg enable-background="new 0 0 128 128" id="Слой_1" version="1.1" viewBox="0 0 128 128" xml:space="preserve" xmlns="http://www.w3.org/2000/svg" xmlns:xlink="http://www.w3.org/1999/xlink"><g><circle cx="64" cy="64" fill="#46B19B" r="62"/><path d="M26.614,87.522c-0.223-0.374-0.364-0.886-0.364-1.353V39.675c0-1.382,1.121-2.503,2.503-2.503h70.494   c1.382,0,2.503,1.121,2.503,2.503v46.494c0,0.462-0.183,0.982-0.401,1.353" fill="#1E272A"/><rect fill="#F6CA41" height="45" width="71" x="28.438" y="39.922"/><path d="M52.645,53.207c-0.025,0-0.046,0.012-0.071,0.014l-0.524-2.146C51.81,49.873,50.761,49,49.557,49H47.21   v1.727h2.346c0.378,0,0.722,0.295,0.808,0.723l5.216,21.353c0.164,0.82,0.719,1.477,1.444,1.812   c-0.247,0.43-0.399,0.92-0.399,1.451c0,1.619,1.317,2.935,2.935,2.935s2.935-1.316,2.935-2.935c0-0.432-0.099-0.839-0.267-1.209   h8.888c-0.168,0.37-0.267,0.777-0.267,1.209c0,1.619,1.317,2.935,2.935,2.935c1.618,0,2.935-1.316,2.935-2.935   c0-1.619-1.317-2.935-2.935-2.935H58.085c-0.393,0-0.734-0.28-0.819-0.701l-0.664-2.718l18.398-1.682   c1.24-0.13,2.187-0.931,2.402-1.992l3.388-12.829H52.645z M60.769,76.065c0,0.666-0.542,1.209-1.209,1.209   c-0.666,0-1.209-0.542-1.209-1.209c0-0.666,0.542-1.209,1.209-1.209C60.227,74.856,60.769,75.399,60.769,76.065z M74.992,76.065   c0,0.666-0.542,1.209-1.209,1.209s-1.209-0.542-1.209-1.209c0-0.666,0.542-1.209,1.209-1.209S74.992,75.399,74.992,76.065z    M75.721,65.643c-0.088,0.432-0.524,0.628-0.891,0.666l-18.643,1.704l-3.195-13.08h25.556L75.721,65.643z" fill="#FFFFFF"/><path d="M110.4,87.522H17.6c-0.055,0-0.1,0.045-0.1,0.1v0.065v1.635c0,0,1.25,1.506,4.833,1.506   c2.648,0,80.508,0,83.167,0c3.583,0,5-1.489,5-1.489c0-0.134,0-0.247,0-0.354c0-0.884,0-0.891,0-0.891v-0.471   C110.5,87.567,110.455,87.522,110.4,87.522z" fill="#D1D4D7"/><path d="M57,87.522v0.062c0,0.69,1.06,1,1.75,1H64h4.906c0.469,0,1.42-0.375,1.484-1.062" opacity="0.1"/></g></svg>