<?xml version="1.0" ?><!DOCTYPE svg  PUBLIC '-//W3C//DTD SVG 1.1//EN'  'http://www.w3.org/Graphics/SVG/1.1/DTD/svg11.dtd'><svg enable-background="new 0 0 128 128" id="Слой_1" version="1.1" viewBox="0 0 128 128" xml:space="preserve" xmlns="http://www.w3.org/2000/svg" xmlns:xlink="http://www.w3.org/1999/xlink"><g><circle cx="64" cy="64" fill="#E7E4DC" r="62"/><path d="M89.796,108.609H38.204c-2.322,0-4.204-1.882-4.204-4.204v-80.81c0-2.322,1.882-4.204,4.204-4.204h51.592   c2.322,0,4.204,1.882,4.204,4.204v80.809C94.001,106.727,92.118,108.609,89.796,108.609z" fill="#333638"/><rect fill="#7C4D4C" height="72.001" width="53.218" x="37.391" y="27.999"/><path d="M64,33.545l-12.806,6.941v15.337L64,63.545l12.806-7.722V40.486L64,33.545z M75.768,40.753l-3.809,2.033   l-11.583-6.447L64,34.374L75.768,40.753z M57.385,37.959l2.232-1.21l11.895,6.621v2.377l-2.381,1.302v-2.552L57.385,37.959z    M64.001,47.032L52.347,40.69l4.279-2.319l11.554,6.431L64.001,47.032z M51.923,41.289l11.712,6.373v14.811l-11.712-7.062V41.289z    M64.364,62.473V47.665l4.038-2.155v2.77l3.839-2.1v-2.719l3.835-2.047v13.998L64.364,62.473z" fill="#F6CA41"/><circle cx="64" cy="104.175" fill="#4B4F51" r="2.609"/><circle cx="64" cy="23.304" fill="#4B4F51" r="1.043"/><circle cx="64" cy="81.005" fill="#FFFFFF" r="12.5"/><path d="M63.999,91.067c-0.802,0-1.56-0.365-2.061-0.991l-7.687-9.62l4.122-3.293l5.618,7.032l9.627-12.133   l4.132,3.279L66.066,90.07c-0.501,0.629-1.259,0.995-2.063,0.997C64.003,91.067,64.001,91.067,63.999,91.067z" fill="#47AB98"/></g></svg>