<?xml version="1.0" ?><!DOCTYPE svg  PUBLIC '-//W3C//DTD SVG 1.1//EN'  'http://www.w3.org/Graphics/SVG/1.1/DTD/svg11.dtd'><svg enable-background="new 0 0 128 128" id="Слой_1" version="1.1" viewBox="0 0 128 128" xml:space="preserve" xmlns="http://www.w3.org/2000/svg" xmlns:xlink="http://www.w3.org/1999/xlink"><g><path d="M64,2C29.758,2,2,29.758,2,64c0,19.865,9.342,37.548,23.873,48.895c10.516,8.212,65.775,8.198,76.298-0.035   C116.677,101.512,126,83.845,126,64C126,29.758,98.242,2,64,2z M87.976,56.45c-3.57,9.627-12.834,16.488-23.702,16.488   c-2.036,0-4.013-0.248-5.909-0.702C47.258,69.575,39,59.587,39,47.664C39,33.705,50.315,22.39,64.274,22.39   c13.958,0,25.274,11.315,25.274,25.274C89.548,50.754,88.991,53.713,87.976,56.45z" fill="#E7E4DC"/><path d="M100.504,111.652c-0.094-0.068-0.185-0.139-0.279-0.206c-0.57-0.408-1.15-0.802-1.735-1.193   c-0.17-0.113-0.339-0.226-0.51-0.338c-0.621-0.406-1.248-0.803-1.885-1.189c-0.02-0.012-0.04-0.023-0.06-0.035   c-5.297-3.197-11.112-5.673-17.236-7.172c-0.036-0.009-0.072-0.017-0.107-0.026c-0.747-0.181-1.498-0.35-2.255-0.504   c-0.08-0.016-0.16-0.031-0.24-0.047c-0.733-0.146-1.47-0.281-2.212-0.401c-0.073-0.012-0.146-0.022-0.219-0.033   c-0.554-0.087-1.112-0.16-1.67-0.234c-0.01-0.001-0.02-0.003-0.03-0.004c-0.192-0.025-0.382-0.057-0.575-0.081   c-0.049-0.006-0.098-0.01-0.146-0.016c-0.46-0.054-0.924-0.093-1.387-0.138c-0.227-0.022-0.452-0.048-0.68-0.067   c-0.097-0.008-0.192-0.021-0.289-0.029c-0.051-0.004-0.102-0.006-0.153-0.01c-0.354-0.027-0.712-0.041-1.067-0.063   c-0.392-0.024-0.783-0.053-1.177-0.07c-0.029-0.001-0.057-0.004-0.085-0.005c-0.214-0.009-0.431-0.009-0.646-0.015   c-0.544-0.015-1.086-0.037-1.633-0.038c-0.001,0-0.001,0.001-0.002,0.002c-0.025,0-0.049-0.002-0.074-0.002   c-0.042,0-0.084,0.001-0.125,0.002c-0.042-0.001-0.083-0.002-0.125-0.002c-0.025,0-0.049,0.002-0.074,0.002   c-0.001-0.001-0.001-0.002-0.002-0.002c-0.547,0.001-1.089,0.023-1.633,0.038c-0.215,0.007-0.432,0.007-0.646,0.015   c-0.029,0.001-0.057,0.004-0.085,0.005c-0.394,0.017-0.785,0.045-1.177,0.07c-0.355,0.022-0.713,0.036-1.067,0.063   c-0.051,0.004-0.102,0.006-0.153,0.01c-0.097,0.008-0.192,0.021-0.289,0.029c-0.227,0.02-0.453,0.045-0.68,0.067   c-0.463,0.045-0.927,0.083-1.387,0.138c-0.049,0.006-0.098,0.01-0.146,0.016c-0.193,0.023-0.383,0.055-0.575,0.081   c-0.01,0.001-0.02,0.003-0.03,0.004c-0.558,0.073-1.117,0.146-1.67,0.234c-0.073,0.012-0.146,0.022-0.219,0.033   c-0.742,0.12-1.479,0.255-2.212,0.401c-0.08,0.016-0.16,0.031-0.24,0.047c-0.757,0.154-1.508,0.323-2.255,0.504   c-0.036,0.009-0.072,0.017-0.107,0.026c-6.125,1.5-11.939,3.975-17.236,7.172c-0.02,0.012-0.04,0.023-0.06,0.035   c-0.637,0.385-1.264,0.782-1.885,1.189c-0.171,0.112-0.34,0.225-0.51,0.338c-0.584,0.39-1.165,0.784-1.735,1.193   c-0.094,0.067-0.185,0.138-0.279,0.206c-0.558,0.404-1.117,0.807-1.661,1.227c10.504,8.203,23.708,13.107,38.065,13.12   c0.026-0.001,0.051-0.001,0.077-0.002c0.02,0,0.039,0.001,0.059,0.001c14.358-0.019,27.572-4.917,38.073-13.126   C101.615,112.455,101.059,112.054,100.504,111.652z" fill="#355067"/><ellipse cx="64" cy="110.838" enable-background="new    " fill="#0C0D0E" opacity="0.2" rx="7" ry="3.5"/><path d="M64,15.98c-17.656,0-31.969,14.313-31.969,31.969c0,4.742,1.299,10.183,3.495,14.386l0.284,0.51   l26.682,47.935c0,0,0.428,1.114,1.507,1.114c1.026,0,1.507-1.114,1.507-1.114l26.832-48.204c2.371-4.48,3.63-9.886,3.63-14.627   C95.969,30.293,81.656,15.98,64,15.98z" fill="#C55C44"/><path d="M64.274,22.39C50.315,22.39,39,33.705,39,47.664c0,3.921,0.893,7.633,2.487,10.943   c3.253,6.757,40.745,8.971,45.021,1.08c0.562-1.037,1.054-2.119,1.468-3.237c1.015-2.737,1.572-5.696,1.572-8.786   C89.548,33.705,78.232,22.39,64.274,22.39z" fill="#FFFFFF"/><polygon fill="#F6CA41" points="84.25,29.888 84.25,27.312 79.257,27.312 67.196,27.312 83.898,29.835  "/><path d="M56.532,71.135c-7.105-2.879-12.432-8.838-14.639-16.006l2.964-19.623l0.196-1.298l2.523-1.642l0.376-2.486   l0.418-2.767h-4.62v5.61v2.515l-2.25,2v1.312v19.846c3.252,6.758,9.41,11.854,16.865,13.64c1.896,0.454,3.873,0.702,5.909,0.702   c0.046,0,0.091-0.005,0.137-0.005c-0.711-0.047-1.424-0.114-2.141-0.222C60.256,72.407,58.339,71.867,56.532,71.135z" fill="#F6CA41"/><polygon fill="#46B19B" points="84.25,35.438 84.25,32.19 84.25,27.312 79.257,27.312 49.29,27.312 43.75,27.312 43.75,32.923    43.75,35.438 41.5,37.438 41.5,38.75 86.5,38.75 86.5,37.438  "/><path d="M41.5,37.438v21.159c3.252,6.758,9.41,11.854,16.865,13.64c1.896,0.454,3.873,0.702,5.909,0.702   c9.605,0,17.95-5.364,22.226-13.255V37.438H41.5z" fill="#F6CA41"/><path d="M46.428,29.768l-2.678-2.455v5.61C44.558,31.8,45.451,30.742,46.428,29.768z" fill="#4CAA96"/><path d="M48.25,31.438l-1.822-1.67c-0.977,0.975-1.87,2.032-2.678,3.155v2.515L48.25,31.438z" fill="#4CAA96"/><polygon fill="#F6CA41" points="81.851,29.512 79.75,31.438 84.25,35.438 84.25,32.19 84.25,27.312  "/><polygon fill="#050708" opacity="0.15" points="48.25,37.438 48.25,31.438 41.5,37.438  "/><polygon fill="#F6CA41" points="46.428,29.768 43.75,27.312 43.75,32.923 43.75,35.438 48.25,31.438  "/><polygon fill="#050708" opacity="0.15" points="79.75,37.438 86.5,37.438 79.75,31.438  "/><circle cx="51.143" cy="43.33" fill="#45474A" r="2.143"/><circle cx="76.857" cy="43.33" fill="#45474A" r="2.143"/><path d="M76.857,42.594c-0.415,0-0.75,0.335-0.75,0.75v2.987c0,6.849-5.657,12.857-12.107,12.857   s-12.107-6.008-12.107-12.857v-2.987c0-0.415-0.335-0.75-0.75-0.75s-0.75,0.335-0.75,0.75v2.987   c0,7.782,6.231,14.357,13.607,14.357s13.607-6.575,13.607-14.357v-2.987C77.607,42.929,77.271,42.594,76.857,42.594z" fill="#FFFFFF"/></g></svg>