<?xml version="1.0" ?><!DOCTYPE svg  PUBLIC '-//W3C//DTD SVG 1.1//EN'  'http://www.w3.org/Graphics/SVG/1.1/DTD/svg11.dtd'><svg enable-background="new 0 0 128 128" id="Слой_1" version="1.1" viewBox="0 0 128 128" xml:space="preserve" xmlns="http://www.w3.org/2000/svg" xmlns:xlink="http://www.w3.org/1999/xlink"><g><circle cx="64" cy="63.812" fill="#E7E4DC" r="62"/><path d="M81.885,17.155c1.256-0.478,2.272-1.734,2.272-1.734l-0.718,0.179c-0.837-0.747-1.923-1.03-2.82-0.902   c-0.791,0.112-1.559,0.64-2.239,1.058c-2.253,1.384-9.888,5.926-12.879,5.824c-5.799-0.197-6.821-0.72-6.821-0.72   c5.942-2.39,7.36-3.286,7.36-3.286s3.169-1.734,2.153-3.03c-0.843-1.074-4.903,0.339-4.903,0.339s-5.856,2.453-9.209,2.631   c-5.017,0.267-9.142,1.142-12.641,3.574c-2.015,1.401-7.869,4.439-7.869,4.439c-7.63,3.29-18.695,9.377-26.566,13.861   C4.06,46.249,2.329,53.75,2.055,61.622c15.783-14.167,31.462-24.063,36.708-27.725c2.149-1.5,4.581-2.541,7.162-2.995   c1.891-0.332,10.022,0.042,13.157-0.235c4.083-0.361,10.524-4.143,10.524-4.143l11.665-5.975l0.247-0.254   c1.315-0.346,2.673-0.992,4.074-1.944h-0.658C84.188,16.767,81.885,17.155,81.885,17.155z" fill="#E6B78D"/><path d="M89.492,52.503L39.73,35.394L20.496,91.339c-0.157,0.458,0.086,0.957,0.544,1.115l48.104,16.538   c0.458,0.157,0.957-0.086,1.115-0.544L89.492,52.503z" fill="#F6CA41"/><polygon fill="#010203" opacity="0.1" points="58.676,41.908 39.471,39.31 31.783,96.147 33.953,96.893 41.471,41.31    66.969,44.759  "/><circle cx="48.153" cy="45.577" fill="#43464A" r="2.506"/><circle cx="76.588" cy="55.353" fill="#43464A" r="2.506"/><path d="M76.221,56.421c-0.458-0.158-0.702-0.656-0.544-1.115l5.082-14.782c2.604-7.574-1.368-16.368-8.5-18.821   s-15.672,2.041-18.276,9.615L48.9,46.101c-0.158,0.458-0.656,0.702-1.115,0.544c-0.458-0.158-0.702-0.656-0.544-1.115l5.082-14.782   c2.959-8.606,12.349-13.507,20.505-10.703s12.547,12.444,9.589,21.05l-5.082,14.782C77.178,56.336,76.679,56.579,76.221,56.421z" fill="#FFFFFF"/><path d="M93.618,48.364L41.471,41.31l-7.93,58.625c-0.065,0.48,0.272,0.922,0.752,0.987l50.408,6.819   c0.48,0.065,0.922-0.272,0.987-0.752L93.618,48.364z" fill="#7C4D4C"/><polygon fill="#010203" opacity="0.1" points="61.345,106.311 70.564,107.558 71.132,105.905 53.051,103.459  "/><polyline fill="#010203" opacity="0.1" points="44.279,46.332 68.087,44.91 57.216,43.44 42.279,44.332 45.75,102.472    47.646,102.728  "/><circle cx="51.722" cy="49.65" fill="#43464A" r="2.506"/><circle cx="81.52" cy="53.681" fill="#43464A" r="2.506"/><path d="M70.933,19.789c-0.778-0.105-1.552-0.125-2.32-0.105c0.439,0.019,0.879,0.045,1.32,0.105   c8.547,1.156,14.737,9.752,13.517,18.77l-2.095,15.49c-0.034,0.251-0.174,0.458-0.365,0.594c0.111,0.078,0.235,0.138,0.378,0.158   c0.48,0.065,0.922-0.271,0.987-0.752l2.095-15.49C85.67,29.541,79.48,20.945,70.933,19.789z" fill="#FFFFFF"/><path d="M68.611,19.264c-8.059-0.346-15.539,6.476-16.696,15.028l-0.678,5.012l1.649-4.795   l0.029-0.217C54.023,26.096,60.942,19.464,68.611,19.264z" fill="#010203" opacity="0.05"/><path d="M80.617,53.814l2.095-15.49c1.074-7.937-4.54-15.785-12.014-16.796c-0.695-0.094-1.389-0.107-2.079-0.083   c0.359,0.016,0.719,0.034,1.079,0.083c7.474,1.011,13.088,8.86,12.014,16.796l-2.095,15.49c-0.065,0.48,0.271,0.922,0.752,0.987   c0.229,0.031,0.447-0.034,0.622-0.158C80.73,54.461,80.571,54.151,80.617,53.814z" fill="#FFFFFF"/><path d="M81.368,54.801c-0.48-0.065-0.817-0.506-0.752-0.987l2.095-15.491c1.074-7.937-4.54-15.785-12.014-16.796   c-7.474-1.011-14.971,5.064-16.045,13.001l-2.095,15.491c-0.065,0.48-0.506,0.817-0.987,0.752s-0.817-0.506-0.752-0.987   l2.095-15.491c1.22-9.018,9.471-15.66,18.018-14.504s14.737,9.752,13.517,18.77l-2.095,15.491   C82.29,54.53,81.849,54.866,81.368,54.801z" fill="#FFFFFF"/><path d="M96.807,43.196l-52.528,3.136l3.526,59.054c0.029,0.484,0.444,0.852,0.928,0.823l50.777-3.032   c0.484-0.029,0.852-0.444,0.823-0.928L96.807,43.196z" fill="#46B19B"/><polygon fill="#010203" opacity="0.1" points="76.395,106.617 85.814,106.055 86.103,103.918 65.525,105.147  "/><circle cx="55.946" cy="52.538" fill="#43464A" r="2.506"/><circle cx="85.962" cy="50.746" fill="#43464A" r="2.506"/><path d="M86.029,51.874c-0.484,0.029-0.899-0.339-0.928-0.823l-0.932-15.604c-0.477-7.995-7.5-14.613-15.028-14.164   c-7.529,0.449-13.714,7.857-13.236,15.851l0.932,15.604c0.029,0.484-0.339,0.899-0.823,0.928c-0.484,0.029-0.899-0.339-0.928-0.823   l-0.932-15.604c-0.542-9.084,6.273-17.193,14.883-17.707s16.341,6.727,16.884,15.81l0.932,15.604   C86.881,51.43,86.513,51.845,86.029,51.874z" fill="#FFFFFF"/><path d="M85.92,35.343c-0.52-8.707-7.649-15.701-15.822-15.815c7.936,0.417,14.751,7.307,15.259,15.815   l0.932,15.604c0.024,0.41-0.242,0.755-0.616,0.873c0.111,0.041,0.23,0.062,0.356,0.055c0.484-0.029,0.852-0.444,0.823-0.928   L85.92,35.343z" fill="#FFFFFF"/><path d="M67.033,19.81c-1.136,0.153-2.246,0.433-3.315,0.834   c-6.214,2.586-10.564,9.271-10.126,16.595l0.213,3.562l0.39-2.885l-0.04-0.677C53.655,28.875,59.399,21.353,67.033,19.81z" fill="#010203" opacity="0.05"/><path d="M85.101,51.051l-0.932-15.604c-0.459-7.692-6.979-14.09-14.176-14.166   c6.972,0.392,13.167,6.674,13.614,14.166l0.932,15.604c0.029,0.484,0.444,0.852,0.928,0.823c0.074-0.005,0.139-0.033,0.207-0.055   C85.357,51.702,85.122,51.409,85.101,51.051z" fill="#FFFFFF"/><path d="M68.611,21.74l4.824-5.422c0,0,1.435-1.621,3.269-0.877l0.558-0.319c0,0-0.359,1.316-1.355,2.791   S68.611,21.74,68.611,21.74z" fill="#E6B78D"/><path d="M59.483,28.459c9.387-1.054,10.124-1.935,10.124-1.935l11.665-5.975l0.247-0.254   c1.315-0.346,2.673-0.992,4.074-1.943h-0.658c-0.747-1.585-3.05-1.196-3.05-1.196c1.256-0.478,2.272-1.734,2.272-1.734   l-0.718,0.179c-0.837-0.747-1.923-1.03-2.82-0.902c-0.791,0.112-1.559,0.64-2.239,1.058c-1.886,1.158-7.537,4.522-11.085,5.529   c-0.031,0.021-0.065,0.047-0.087,0.054C63.614,22.66,61.07,24.861,59.483,28.459z" fill="#E6B78D"/></g></svg>