<?xml version="1.0" ?><!DOCTYPE svg  PUBLIC '-//W3C//DTD SVG 1.1//EN'  'http://www.w3.org/Graphics/SVG/1.1/DTD/svg11.dtd'><svg enable-background="new 0 0 128 128" id="Слой_1" version="1.1" viewBox="0 0 128 128" xml:space="preserve" xmlns="http://www.w3.org/2000/svg" xmlns:xlink="http://www.w3.org/1999/xlink"><g><path d="M64,2C29.758,2,2,29.758,2,64c0,17.121,6.94,32.621,18.159,43.841s76.41,11.243,87.625,0.056   C119.037,96.672,126,81.149,126,64C126,29.758,98.242,2,64,2z" fill="#E7E4DC"/><path d="M76.007,92.024l0.432-9.769l-0.178-2.401h-24.54l-0.178,2.401l0.432,9.769   c0.037,0.838-0.452,1.609-1.225,1.933c0,0-4.697,30.648,11.83,31.027c17.556,0.403,14.653-31.027,14.653-31.027   C76.459,93.633,75.969,92.862,76.007,92.024z" fill="#8D6C50"/><path d="M107.794,107.869c-2.7-3.071-6.339-3.938-7.101-4.091c-0.074-0.011-0.134-0.02-0.164-0.025   c-0.006-0.001-0.02-0.004-0.02-0.004l-0.001,0c-0.02-0.004-0.038-0.007-0.038-0.007l-0.138-0.065L85.068,97.27l-7.816-3.273   l-0.001-0.004l-0.006,0.001l-0.003-0.001c-0.001,0.001-0.002,0.002-0.003,0.003L66,96.424c-0.907,0.286-1.636,1.642-2.211,3.372   c0.337,1.065,0.583,2.248,0.582,3.343l-1.423-0.131c0.232-1.108,0.511-2.221,0.841-3.212c-0.591-1.869-1.463-3.372-1.78-3.372   l-11.251-2.432l-4.467,1.871l-18.834,7.887c0,0-0.047,0.008-0.114,0.021c-0.07,0.013-0.163,0.032-0.296,0.063   c-0.028,0.007-0.065,0.016-0.096,0.024c-0.065,0.016-0.128,0.031-0.203,0.051c-0.034,0.009-0.076,0.021-0.113,0.031   c-0.081,0.022-0.161,0.044-0.251,0.071c-0.056,0.017-0.122,0.039-0.182,0.057c-0.081,0.025-0.158,0.048-0.244,0.077   c-0.061,0.02-0.129,0.046-0.193,0.068c-0.093,0.032-0.184,0.063-0.283,0.1c-0.083,0.031-0.173,0.068-0.26,0.103   c-0.087,0.034-0.17,0.065-0.26,0.103c-0.093,0.039-0.191,0.084-0.287,0.127c-0.089,0.04-0.176,0.076-0.268,0.119   c-0.094,0.044-0.192,0.095-0.288,0.143c-0.098,0.049-0.195,0.094-0.295,0.147c-0.09,0.047-0.183,0.102-0.275,0.153   c-0.109,0.061-0.217,0.118-0.328,0.183c-0.092,0.054-0.185,0.116-0.277,0.174c-0.112,0.07-0.224,0.137-0.336,0.212   c-0.093,0.062-0.187,0.133-0.28,0.199c-0.112,0.079-0.225,0.155-0.337,0.24c-0.094,0.071-0.187,0.151-0.281,0.226   c-0.111,0.089-0.222,0.174-0.332,0.269c-0.093,0.08-0.183,0.169-0.275,0.252c-0.109,0.1-0.219,0.196-0.327,0.302   c-0.089,0.088-0.175,0.186-0.263,0.278c-0.103,0.108-0.207,0.213-0.308,0.327l0,0l0,0c0.005,0.005,0.01,0.015,0.015,0.021   c0.008,0.009,0.016,0.022,0.023,0.032c2.717,2.707,5.684,5.163,8.862,7.332c9.94,6.781,59.936,6.752,69.897-0.075   c3.148-2.157,6.086-4.597,8.779-7.283c-0.002-0.002-0.003-0.003-0.005-0.005C107.784,107.884,107.789,107.874,107.794,107.869z" fill="#7C4D4C"/><path d="M63.867,108.297c0,0-0.265-3.338-0.651-6.474c-0.858,3.534-1.216,7.482-1.216,7.482   C61.91,109.303,63.958,108.299,63.867,108.297z" fill="#7C4D4C"/><path d="M64.371,103.139c0.002-1.094-0.245-2.277-0.582-3.343c-0.329,0.991-0.609,2.104-0.841,3.212L64.371,103.139   z" fill="#7C4D4C"/><path d="M66.29,106.859c0.49-3.55,1.637-9.78,3.71-10.435h-4c-2.073,0.655-3.22,6.885-3.71,10.435   c-0.199,1.442-0.29,2.895-0.29,4.35v14.74c0.666,0.021,1.329,0.051,2,0.051c0.671,0,1.334-0.029,2-0.051v-14.74   C66,109.754,66.091,108.301,66.29,106.859z" fill="#7C4D4C"/><path d="M66.29,106.859c0.49-3.55,1.637-9.78,3.71-10.435h-4c-2.073,0.655-3.22,6.885-3.71,10.435   c-0.199,1.442-0.29,2.895-0.29,4.35v14.74c0.666,0.021,1.329,0.051,2,0.051c0.671,0,1.334-0.029,2-0.051v-14.74   C66,109.754,66.091,108.301,66.29,106.859z" fill="#010203" opacity="0.2"/><path d="M65.991,96.424H70" fill="#7C4D4C"/><path d="M65.991,96.424H70" fill="#7C4D4C"/><path d="M51.826,87.473c-0.347,0-0.44,0.28-0.504,0.516l-2.081,6.639   c1.842,5.624,6.845,10.878,8.355,12.498c0.156,0.167,0.436,0.098,0.507-0.119c2.336-7.173,2.287-9.721,3.907-10.582   C62.009,96.424,51.947,90.441,51.826,87.473z" fill="#010303" opacity="0.1"/><path d="M51.826,87.473c-0.347,0-0.44,0.28-0.504,0.516l-2.081,6.639c2.811,6.158,6.83,9.61,8.179,10.853   c0.16,0.147,0.421,0.07,0.489-0.137c2.356-7.137,2.479-8.056,4.101-8.919C62.009,96.424,51.947,90.441,51.826,87.473z" fill="#7C4D4C"/><path d="M76.174,87.473c-0.121,2.969-10.184,8.952-10.184,8.952c1.62,0.861,1.589,3.409,3.926,10.581   c0.071,0.218,0.351,0.287,0.507,0.119c1.507-1.621,6.495-6.874,8.336-12.497l-2.081-6.64   C76.615,87.752,76.522,87.473,76.174,87.473z" fill="#010303" opacity="0.1"/><path d="M76.174,87.473c-0.121,2.969-10.184,8.952-10.184,8.952c1.623,0.863,1.746,1.782,4.101,8.919   c0.068,0.207,0.329,0.285,0.489,0.137c1.349-1.242,5.367-4.694,8.179-10.852l-2.081-6.64   C76.615,87.752,76.522,87.473,76.174,87.473z" fill="#7C4D4C"/><path d="M89.674,49.034c-0.237-0.073-0.48-0.102-0.727-0.111l0.523-2.28C89.471,22.683,69.272,21,68.278,21h-2.164   H64h-2.114h-2.164c-0.994,0-21.193,1.683-21.192,25.643l0.523,2.28c-0.246,0.009-0.49,0.038-0.727,0.111   c-2.564,0.788-3.452,5.649-2.05,10.206c1.307,4.253,4.146,6.735,6.603,6.408l1.447,10.867c0.043,0.323,0.1,0.648,0.197,0.959   c1.223,3.92,5.097,6.146,6.709,7.774C58.223,92.314,59.995,91,62.197,91H64h1.803c2.202,0,3.974,1.314,10.966-5.752   c1.611-1.628,5.486-3.855,6.709-7.774c0.097-0.311,0.154-0.636,0.197-0.959l1.447-10.867c2.456,0.327,5.295-2.155,6.603-6.408   C93.126,54.683,92.238,49.822,89.674,49.034z" fill="#8D6C50"/><path d="M89.94,45.912c0,0-10.109-7.411-25.937-7.412v0c-0.001,0-0.002,0-0.002,0v0.001l0-0.001   c-0.001,0-0.002,0-0.002,0v0c-15.828,0.002-25.937,7.412-25.937,7.412l0.002,0.002c2.865,3.548,10.203,3.895,14.416,2.149   l5.642-3.01c7.416-3.072,15.939-1.599,21.893,3.785l4.292,4.718C87.69,56.616,87.075,49.461,89.94,45.912L89.94,45.912z" fill="#010203" opacity="0.15"/><path d="M75.917,100.933c0.026-0.006,0.052-0.013,0.078-0.02c0.184-0.047,0.376-0.108,0.577-0.181   c0.031-0.011,0.061-0.021,0.093-0.033c1.408-0.534,3.271-1.744,6.049-4.415l-3.955-1.656l-2.081-6.64   c-0.061-0.227-0.155-0.488-0.471-0.508l0.078-1.756C69.705,92.229,67.952,91,65.803,91H64h-1.803   c-2.151,0-3.905,1.232-10.502-5.296l0.112,2.541c1.454,3.445,4.921,5.484,6.423,7.003c6.475,6.543,8.473,5.901,10.482,5.771   c0.161-0.01,0.321-0.018,0.484-0.018H71h1.803c0.15,0,0.297,0.007,0.445,0.016C74.047,101.065,74.847,101.193,75.917,100.933z" fill="#010203" opacity="0.15"/><path d="M77.834,18.493c-4.44-2.295-12.589-2.655-13.801-2.697c-0.026-0.001-0.04-0.001-0.066,0   c-1.212,0.042-9.361,0.402-13.801,2.697C44.348,21.5,35.533,30.156,38.813,49.016l0.574-0.125l1.613,7.175   c0.112,0.5,0.557,0.856,1.07,0.856c0.609,0,1.102-0.497,1.096-1.106L43.07,44.723c-0.001-0.097-0.016-0.194-0.041-0.288   c-0.267-0.989-1.542-7.122,6.252-11.935c3.087-1.906,8.792-3.145,14.72-3.151c5.927,0.006,11.633,1.246,14.72,3.151   c7.794,4.812,6.519,10.946,6.252,11.935c-0.025,0.094-0.041,0.19-0.042,0.288l-0.097,11.094c-0.005,0.609,0.487,1.106,1.096,1.106   c0.513,0,0.957-0.356,1.07-0.856l1.613-7.175l0.574,0.125C92.467,30.156,83.652,21.5,77.834,18.493z" fill="#332E28"/><path d="M47.28,32.5c-8.503,5.25-6.212,12.072-6.212,12.072l0.108,12.273l0.017,0.077h1.983l-0.108-12.35   c0,0-2.291-6.822,6.212-12.072c2.913-1.798,8.157-3.002,13.72-3.138c-0.332-0.008-0.666-0.014-1-0.014   C56.073,29.355,50.367,30.594,47.28,32.5z" fill="#332E28"/><path d="M77.834,18.493C73.351,16.176,65.087,15.831,64,15.795c-0.169,0.006-0.526,0.02-1,0.047   c2.578,0.145,9.047,0.694,12.834,2.651c5.818,3.007,14.633,11.663,11.353,30.523l-1.374,7.906h0.994l1.806-8.031l0.574,0.125   C92.467,30.156,83.652,21.5,77.834,18.493z" fill="#010303" opacity="0.2"/><path d="M63.202,15.83c-2.438,0.129-9.154,0.657-13.035,2.663   C44.348,21.5,35.533,30.156,38.813,49.016l0.574-0.125l1.806,8.031h0.744h0.292l-1.416-7.906   c-3.28-18.86,5.535-27.516,11.353-30.523c3.787-1.957,10.256-2.506,12.834-2.651c-0.082-0.005-0.161-0.009-0.235-0.013   C64.241,15.802,63.726,15.803,63.202,15.83z" fill="#FAFCFC" opacity="0.1"/><polygon fill="#7C4D4C" points="77.241,93.992 77.238,93.995 77.251,93.992 77.244,93.993  "/><circle cx="64" cy="110" fill="#010303" opacity="0.1" r="1"/><circle cx="64" cy="121" fill="#010303" opacity="0.1" r="1"/><path d="M32.5,106.776l-3.5,8v0.397c9.936,6.809,21.952,10.804,34.902,10.825c0.053,0,0.106,0.001,0.159,0.001   c12.965-0.013,24.993-4.01,34.938-10.825v-0.397l-3.5-8H32.5z" fill="#F6CA41"/><polygon fill="#FFFFFF" points="58.733,106.776 57.333,114.781 57.333,123.776 71.333,123.776 71.333,114.833 69.933,106.776  "/><path d="M29,115.173c9.936,6.809,21.952,10.804,34.902,10.825c0.053,0,0.106,0.001,0.159,0.001   c12.965-0.013,24.993-4.01,34.938-10.825v-0.397H29V115.173z" fill="#010303" opacity="0.05"/><circle cx="61.166" cy="100.344" fill="#010303" opacity="0.1" r="1"/><path d="M88.761,29.087c-2.56-7.004-6.491-10.23-10.65-11.939c-3.393-1.572-6.544-2.174-10.765-3.013   c-1.1-0.219-2.215-0.326-3.329-0.325c-1.115-0.001-2.229,0.107-3.329,0.325c-4.221,0.838-7.372,1.441-10.765,3.013   c-4.159,1.71-8.09,4.936-10.65,11.939c-1.622,4.83-2.163,10.926-1.212,16.826l0.002,0.002c1.971,2.441,4.038,3.599,6.392,3.291   c1.08-0.136,2.218-0.578,3.43-1.345l5.033-3.919c3.389-2.144,7.244-3.217,11.1-3.22c3.855,0.002,7.71,1.075,11.1,3.22l5.033,3.919   c1.446,0.915,2.782,1.368,4.038,1.391c2.105,0.05,3.985-1.108,5.784-3.337l0.002-0.002C90.924,40.013,90.383,33.917,88.761,29.087z   " fill="#7C4D4C"/><path d="M88.761,29.087c-2.56-7.004-6.491-10.23-10.65-11.939   c-3.393-1.572-6.544-2.174-10.765-3.013c-1.1-0.219-2.215-0.326-3.329-0.325c-0.008,0-0.016,0.001-0.025,0.001l-8.084,2.893   c-6.808,2.436-11.436,8.785-11.671,16.012l-0.325,9.998c4.518-2.006,11.447-4.213,20.086-4.214v0c0.001,0,0.002,0,0.002,0   c0.001,0,0.002,0,0.002,0v0c15.813,0.002,25.951,7.398,25.97,7.412C90.924,40.013,90.383,33.917,88.761,29.087z" fill="#010203" opacity="0.15"/><path d="M57.535,38.925c-0.74,0.096-1.462,0.206-2.166,0.33   C56.073,39.132,56.795,39.021,57.535,38.925z" fill="#010203" opacity="0.2"/><path d="M80.722,41.369c-0.265-0.094-0.531-0.186-0.805-0.278   C80.191,41.182,80.458,41.275,80.722,41.369z" fill="#010203" opacity="0.2"/><path d="M54.731,39.369c-0.659,0.124-1.299,0.26-1.925,0.403   C53.432,39.629,54.072,39.493,54.731,39.369z" fill="#010203" opacity="0.2"/><path d="M60.591,38.622c-0.853,0.058-1.687,0.135-2.5,0.232   C58.904,38.758,59.737,38.68,60.591,38.622z" fill="#010203" opacity="0.2"/><path d="M63.969,38.501c-1.024,0.001-2.022,0.035-2.997,0.094   C61.948,38.536,62.945,38.502,63.969,38.501z" fill="#010203" opacity="0.2"/><path d="M75.882,39.924c-0.215-0.052-0.435-0.101-0.654-0.151   C75.446,39.822,75.668,39.871,75.882,39.924z" fill="#010203" opacity="0.2"/><path d="M70.499,38.925c-0.185-0.024-0.369-0.048-0.556-0.07   C70.13,38.877,70.315,38.901,70.499,38.925z" fill="#010203" opacity="0.2"/><path d="M52.152,39.924c-0.604,0.147-1.187,0.304-1.757,0.465   C50.965,40.227,51.547,40.071,52.152,39.924z" fill="#010203" opacity="0.2"/><path d="M78.489,40.636c-0.279-0.084-0.561-0.166-0.849-0.248   C77.927,40.47,78.21,40.552,78.489,40.636z" fill="#010203" opacity="0.2"/><path d="M73.303,39.369c-0.211-0.04-0.424-0.077-0.638-0.115   C72.879,39.292,73.093,39.33,73.303,39.369z" fill="#010203" opacity="0.2"/><path d="M67.443,38.622c-0.128-0.009-0.253-0.02-0.382-0.027   C67.19,38.603,67.316,38.614,67.443,38.622z" fill="#010203" opacity="0.2"/><polygon fill="#010203" opacity="0.2" points="64.017,13.81 64.017,13.81 64.02,13.81  "/><path d="M64.036,38.5c-0.001,0-0.002,0-0.002,0s-0.002,0-0.002,0v0c-0.005,0-0.009,0-0.014,0   c0.016,0,0.032,0.001,0.048,0.001C64.055,38.501,64.046,38.5,64.036,38.5L64.036,38.5z" fill="#010203" opacity="0.2"/><path d="M63.992,13.811L63.992,13.811c0.007,0,0.014-0.001,0.022-0.001   C64.007,13.81,64,13.811,63.992,13.811z" fill="#010203" opacity="0.2"/><path d="M83.797,32.716l0.325,9.998c-0.081-0.036-0.176-0.072-0.259-0.108   c3.915,1.707,6.101,3.3,6.11,3.307c0.951-5.9,0.41-11.996-1.212-16.826c-2.56-7.004-6.491-10.23-10.65-11.939   c-3.393-1.572-6.544-2.174-10.765-3.013c-1.092-0.217-2.198-0.324-3.305-0.324l8.084,2.893   C78.934,19.139,83.562,25.489,83.797,32.716z" fill="#010203" opacity="0.1"/><path d="M82.676,42.108c-0.202-0.082-0.401-0.162-0.611-0.244   C82.274,41.946,82.475,42.027,82.676,42.108z" fill="#010203" opacity="0.2"/><path d="M49.545,40.636c-0.49,0.148-0.966,0.299-1.428,0.454   C48.578,40.935,49.056,40.784,49.545,40.636z" fill="#010203" opacity="0.2"/><path d="M47.312,41.369c-0.462,0.164-0.913,0.329-1.343,0.496   C46.398,41.698,46.85,41.532,47.312,41.369z" fill="#010203" opacity="0.2"/><path d="M44.171,42.606c0.378-0.165,0.776-0.331,1.187-0.497   C44.947,42.274,44.55,42.44,44.171,42.606z" fill="#010203" opacity="0.2"/><path d="M75.228,39.772c-0.625-0.143-1.266-0.279-1.925-0.403   C73.962,39.493,74.602,39.629,75.228,39.772z" fill="#010203" opacity="0.2"/><polygon fill="#010203" opacity="0.2" points="64.017,13.81 64.014,13.81 64.017,13.81  "/><path d="M79.917,41.09c-0.462-0.155-0.938-0.306-1.428-0.454   C78.978,40.784,79.456,40.935,79.917,41.09z" fill="#010203" opacity="0.2"/><path d="M82.066,41.865c-0.43-0.167-0.882-0.332-1.343-0.496   C81.184,41.532,81.636,41.698,82.066,41.865z" fill="#010203" opacity="0.2"/><path d="M77.639,40.389c-0.57-0.161-1.153-0.318-1.757-0.465   C76.487,40.071,77.069,40.227,77.639,40.389z" fill="#010203" opacity="0.2"/><path d="M64.042,13.811c-0.007,0-0.015-0.001-0.022-0.001C64.027,13.81,64.034,13.811,64.042,13.811   L64.042,13.811z" fill="#010203" opacity="0.2"/><path d="M83.863,42.606c-0.379-0.165-0.776-0.331-1.187-0.497   C83.087,42.274,83.485,42.44,83.863,42.606z" fill="#010203" opacity="0.2"/><path d="M48.117,41.09c-0.275,0.092-0.541,0.184-0.805,0.278   C47.576,41.275,47.843,41.182,48.117,41.09z" fill="#010203" opacity="0.2"/><path d="M45.968,41.865c-0.209,0.081-0.409,0.162-0.611,0.244   C45.559,42.027,45.76,41.946,45.968,41.865z" fill="#010203" opacity="0.2"/><path d="M50.395,40.389c-0.288,0.081-0.57,0.163-0.849,0.248   C49.824,40.552,50.107,40.47,50.395,40.389z" fill="#010203" opacity="0.2"/><path d="M72.665,39.255c-0.704-0.123-1.426-0.233-2.166-0.33   C71.239,39.021,71.961,39.132,72.665,39.255z" fill="#010203" opacity="0.2"/><path d="M64.003,38.5c-0.001,0-0.002,0-0.002,0c-0.001,0-0.002,0-0.002,0v0   c-0.01,0-0.019,0.001-0.029,0.001c0.016,0,0.032-0.001,0.048-0.001C64.012,38.5,64.008,38.5,64.003,38.5L64.003,38.5z" fill="#010203" opacity="0.2"/><path d="M52.806,39.772c-0.219,0.05-0.439,0.099-0.654,0.151   C52.366,39.871,52.588,39.822,52.806,39.772z" fill="#010203" opacity="0.2"/><path d="M67.061,38.595c-0.975-0.059-1.973-0.093-2.997-0.094   C65.089,38.502,66.086,38.536,67.061,38.595z" fill="#010203" opacity="0.2"/><path d="M69.943,38.854c-0.813-0.097-1.647-0.174-2.5-0.232C68.297,38.68,69.13,38.758,69.943,38.854   z" fill="#010203" opacity="0.2"/><path d="M60.973,38.595c-0.129,0.008-0.254,0.019-0.382,0.027   C60.718,38.614,60.844,38.603,60.973,38.595z" fill="#010203" opacity="0.2"/><path d="M58.091,38.854c-0.187,0.022-0.371,0.046-0.556,0.07   C57.719,38.901,57.904,38.877,58.091,38.854z" fill="#010203" opacity="0.2"/><path d="M55.369,39.255c-0.214,0.037-0.427,0.075-0.638,0.115   C54.941,39.33,55.155,39.292,55.369,39.255z" fill="#010203" opacity="0.2"/><path d="M89.94,45.912c0,0-10.109-7.411-25.937-7.412v0c-0.001,0-0.002,0-0.002,0v0.001l0-0.001   c-0.001,0-0.002,0-0.002,0v0c-15.828,0.002-25.937,7.412-25.937,7.412l0.002,0.002c2.865,3.548,5.933,4.386,9.788,1.95l5.048-3.927   c6.785-4.289,15.434-4.288,22.218,0.004l5.033,3.919C84.004,50.299,87.075,49.461,89.94,45.912L89.94,45.912z" fill="#010203" opacity="0.1"/><path d="M61.312,40.863c0.04,0.005,0.08,0.02,0.121,0.027c0.227-0.028,0.454-0.05,0.681-0.071   C61.803,40.84,61.523,40.857,61.312,40.863z" fill="#010203" opacity="0.05"/><path d="M74.703,39.653c-4.103,0.337-9.059,0.881-11.826,1.108c4.231-0.229,8.516,0.825,12.239,3.181   l5.033,3.919c3.855,2.439,6.925,1.601,9.791-1.948C89.94,45.912,84.241,41.736,74.703,39.653z" fill="#010203" opacity="0.1"/></g></svg>