<?xml version="1.0" ?><!DOCTYPE svg  PUBLIC '-//W3C//DTD SVG 1.1//EN'  'http://www.w3.org/Graphics/SVG/1.1/DTD/svg11.dtd'><svg enable-background="new 0 0 128 128" id="Слой_1" version="1.1" viewBox="0 0 128 128" xml:space="preserve" xmlns="http://www.w3.org/2000/svg" xmlns:xlink="http://www.w3.org/1999/xlink"><g><circle cx="64" cy="64" fill="#7C4D4C" r="62"/><path d="M55.016,90.555c-0.043,0-0.753,8.251-0.771,8.398c-0.135,1.115-0.339,1.791-0.893,2.286   c-0.193,0.173-0.392,0.243-0.582,0.392c-0.434,0.34-0.842,0.544-1.384,0.849c-0.38,0.214-0.88,1.001-0.413,1.207   c0.708,0.312,2.506,0.833,4.527,0.833c1.528,0,5.603,0,7.5,0c0.611,0,1,0,1,0c2.1,0,6.933,0,8.5,0c2.021,0,3.818-0.544,4.527-0.857   c0.467-0.206-0.033-0.891-0.413-1.105c-0.542-0.305-0.95-0.618-1.384-0.959c-0.189-0.148-0.388-0.344-0.582-0.517   c-0.554-0.496-0.758-1-0.893-2.115c-0.018-0.146-0.786-8.878-0.782-8.413" fill="#D1D4D7"/><path d="M105.5,82.48V34.647c0-1.197-0.952-2.167-2.127-2.167H24.627c-1.175,0-2.127,0.97-2.127,2.167V82.48" fill="#1E272A"/><rect fill="#46B19B" height="43.427" width="76.415" x="25.793" y="35.767"/><path d="M22.5,82.405v5.989c0,1.193,0.952,2.161,2.127,2.161h78.747c1.175,0,2.127-0.967,2.127-2.161v-5.989" fill="#D1D4D7"/><circle cx="63.911" cy="86.536" fill="#1E272A" r="2"/><path d="M73.174,91.521c-0.065-1-0.107-1-0.107-1H55.109c-0.009,0-0.05,0-0.106,1H73.174z" opacity="0.1"/><path d="M76.598,56.73c-0.406,0-0.735-0.329-0.735-0.735v-2.927c0-6.711-5.543-12.598-11.863-12.598   s-11.863,5.887-11.863,12.598v2.927c0,0.406-0.329,0.735-0.735,0.735c-0.406,0-0.735-0.329-0.735-0.735v-2.927   C50.667,45.443,56.773,39,64,39s13.333,6.443,13.333,14.068v2.927C77.333,56.401,77.005,56.73,76.598,56.73z" fill="#FFFFFF"/><path d="M86.5,58.195v-9.028h-45v9.028L39,60.417v1.458h50v-1.458L86.5,58.195z" fill="#C55C44"/><rect fill="#F6CA41" height="18.776" width="50" x="39" y="60.417"/><polygon fill="#F6CA41" points="41.5,49.167 41.5,58.195 46.5,53.75  "/><polygon fill="#F6CA41" points="86.5,49.167 86.5,58.195 81.5,53.75  "/><polygon fill="#050708" opacity="0.15" points="39,60.417 46.5,53.75 46.5,60.417  "/><polygon fill="#050708" opacity="0.15" points="89,60.417 81.5,53.75 81.5,60.417  "/><circle cx="49.714" cy="66.965" fill="#45474A" r="2.381"/><circle cx="78.286" cy="66.965" fill="#45474A" r="2.381"/><path d="M78.285,67.917c-0.461,0-0.833-0.373-0.833-0.833v-3.319c0-7.61-6.286-14.285-13.452-14.285   s-13.452,6.676-13.452,14.285v3.319c0,0.461-0.373,0.833-0.833,0.833c-0.461,0-0.833-0.373-0.833-0.833v-3.319   c0-8.647,6.924-15.952,15.119-15.952s15.119,7.306,15.119,15.952v3.319C79.119,67.544,78.746,67.917,78.285,67.917z" fill="#FFFFFF"/></g></svg>