<?xml version="1.0" ?><!DOCTYPE svg  PUBLIC '-//W3C//DTD SVG 1.1//EN'  'http://www.w3.org/Graphics/SVG/1.1/DTD/svg11.dtd'><svg enable-background="new 0 0 128 128" id="Слой_1" version="1.1" viewBox="0 0 128 128" xml:space="preserve" xmlns="http://www.w3.org/2000/svg" xmlns:xlink="http://www.w3.org/1999/xlink"><g><circle cx="64" cy="64" fill="#E7E4DC" r="62"/><polygon fill="#EEC649" points="63.838,68.885 29.517,87.202 29.517,50.211 63.838,29.835 97.631,50.211 97.631,87.202  "/><polygon fill="#07090B" opacity="0.2" points="63.838,29.835 97.631,50.211 97.631,87.202 63.838,68.885  "/><polygon fill="#07090B" opacity="0.15" points="63.838,29.835 29.517,50.211 29.517,87.202 63.838,68.885  "/><polygon fill="#F6CA41" points="63.838,68.52 29.517,50.204 29.517,87.194 63.838,107.571 97.631,87.194 97.631,50.204  "/><polygon fill="#07090B" opacity="0.05" points="63.838,68.52 29.517,50.204 29.517,87.194 63.838,107.571 97.631,87.194    97.631,50.204  "/><polygon fill="#07090B" opacity="0.05" points="63.838,107.571 97.631,87.194 97.631,50.204 63.838,68.52  "/><polygon fill="#07090B" opacity="0.07" points="37,74.11 63.838,89.247 63.838,68.52 29.517,50.204  "/><polygon fill="#FFFFFF" points="14,59.11 29.517,50.204 63.838,68.52 47.367,77.93  "/><polygon fill="#FFFFFF" points="14,41.306 29.517,50.211 63.868,29.84 47.398,20.429  "/><polygon fill="#07090B" opacity="0.05" points="79.355,83.426 97.631,74.029 97.631,50.211 64.108,68.373 63.838,68.52  "/><polygon fill="#FFFFFF" points="63.838,68.52 79.355,77.426 114,59.614 97.631,50.211  "/><polygon fill="#FFFFFF" points="63.868,29.84 79.385,20.934 114,40.809 97.631,50.211  "/><polygon fill="#65C8CE" points="63.838,23.181 29.517,41.49 29.517,50.29 63.838,68.52 97.631,50.211 97.631,41.411  "/><polygon fill="#07090B" opacity="0.05" points="63.838,59.72 29.517,41.49 29.517,50.29 63.838,68.52  "/><polygon fill="#07090B" opacity="0.1" points="63.838,59.72 97.631,41.411 97.631,50.211 63.838,68.52  "/></g></svg>