<?xml version="1.0" ?><!DOCTYPE svg  PUBLIC '-//W3C//DTD SVG 1.1//EN'  'http://www.w3.org/Graphics/SVG/1.1/DTD/svg11.dtd'><svg enable-background="new 0 0 128 128" id="Слой_1" version="1.1" viewBox="0 0 128 128" xml:space="preserve" xmlns="http://www.w3.org/2000/svg" xmlns:xlink="http://www.w3.org/1999/xlink"><g><circle cx="64" cy="64" fill="#E7E4DC" r="62"/><polygon fill="#FFFFFF" points="63.838,68.885 29.517,87.202 29.517,50.211 63.838,29.835 97.631,50.211 97.631,87.202  "/><polygon fill="#07090B" opacity="0.05" points="63.838,29.835 97.631,50.211 97.631,87.202 63.838,68.885  "/><polygon fill="#FFFFFF" points="14,41.306 29.517,50.211 63.868,29.84 47.398,20.429  "/><polygon fill="#FFFFFF" points="63.868,29.84 79.385,20.934 114,40.809 97.631,50.211  "/><polygon fill="#07090B" opacity="0.1" points="63.838,29.835 29.517,50.211 29.517,87.202 63.838,68.885  "/><path d="M93.574,43.232c0-16.502-13.373-29.885-29.891-29.944c-0.036,0-0.073-0.001-0.109-0.001   c-16.568,0-30,13.407-30,29.945s13.431,29.945,30,29.945c0.036,0,0.073-0.001,0.109-0.001   C80.201,73.118,93.574,59.734,93.574,43.232" fill="#FFFFFF"/><path d="M91.609,32.372l-1.565,0.026l-0.785-0.86l-0.15-1.383l-0.803,0.438l-0.432,1.692l-1.16-1.234l-0.047-1.166   l-1.121-0.964L85.13,28.51H83.83l0.412,1.157l1.564,0.871l0.271,0.288l-0.338,0.169l0.013,0.916l-0.761,0.318l-0.652-0.143   l-0.405-0.576l1.057,0.057l0.285-0.385l-2.344-1.58l-0.179-0.673l-0.952,0.86l-0.966-0.198l-1.47,1.909l-0.288,0.748l-0.94,0.086   l-1.391,0.009l-0.831-0.389l-0.245-1.65l0.299-0.787l1.415-0.31l1.544,0.31l0.187-0.854l-0.656-0.155l0.225-1.328l1.553-0.243   l1.086-1.533l1.122-0.188l1.012,0.15h0.372l-0.204-1.44l-1.231,0.496l-0.432-1.076l-0.714-0.1l-0.134-0.737l0.584-0.634   l1.384-0.542l0.357-0.636c-5.277-4.645-12.191-7.477-19.756-7.494c-0.023,0-0.045-0.001-0.068-0.001   c-6.588,0-12.684,2.137-17.642,5.745l1.515-0.012l0.675,0.373l1.271,0.274l0.099,0.499l2.022,0.075l-0.274-0.647l-1.796-0.05   l0.423-0.398l-0.148-0.475h-1.624l1.772-1.321h1.697l0.798,1.098l1.325,0.075l0.797-0.774l0.6,0.3l-1.099,1.072   c0,0-1.522,0.026-1.447,0.026c0.075,0,0.126,1.046,0.126,1.046l1.844-0.051l0.202-0.497l1.271-0.075l0.15-0.747l-0.749-0.126   l0.25-0.673l0.573-0.174l1.996,0.099l-1.102,0.998l0.179,0.772l1.148,0.175l-0.075-1.396l1.098-0.574l1.948-0.224l2.245,0.994   l0.572,0.254v1.072l0.9,0.224l-0.45,0.848h-1.022h-0.25l-0.376,0.972l-2.91-0.686l2.286-1.216l-0.872-0.74l-1.972,0.249   l-0.172,0.179l-0.006-0.003l-0.032,0.043l-0.567,0.589l-0.937,0.079l0.075,0.467l0.326,0.135l-0.013,0.154l-0.762,0.109   l-0.056,0.443l-0.731,0.038l-0.131-0.879l-1.311,0.398l-2.676,1.565l0.301,1.102l0.749,0.487l1.497,0.206v1.7l0.691-0.111   l0.638-1.328l1.591-0.504v-2.039l0.885-0.667l2.141,0.504l-0.15,1.347h0.575l1.572-0.772l0.075,1.769l0.524,0.319l0.621,0.378   l-0.048,1.049l-0.572,0.195l0,0l-0.524,0.179l0.074,0.346l0.45,0.205l0.872,0.397l-0.026,0.722l-0.384,0.032   c-0.001-0.012-0.002-0.02-0.002-0.02l-0.46-0.142l-1.209-0.372l-0.07-0.534h-0.002l0.487-0.335v-0.487l-0.524-0.133l-0.13,0.45   l-0.919,0.142l-0.092-0.03v0.046l-0.319,0.048l-0.26-0.524l-0.301-0.131h-0.655l-0.298,0.243v0.542l0.561,0.187l0.553,0.077   l-0.123,0.054l-0.505,0.559l-0.223-0.28l-0.487-0.129l-1.33,1.25l0.173,0.143l-1.964,1.086l-1.847,1.92l-0.125,0.855l-1.852,1.215   l-0.917,0.922l0.101,1.844l-1.274-0.592l0.01-1.079L46.6,35.215l-1.833,0.928l-0.798,1.467l-0.315,1.164l0.516,1.128l1.444,0.176   l2.296-1.534l0.201,0.761l-0.701,1.323l1.749,0.298l0.173,2.697l2.397,0.406l1.521-1.758l1.847,0.375l0.649,0.901l1.771-0.105   l0.05-0.524l0.973,0.474l1.099,1.719l1.895,0.026l0.7,1.222l0.1,1.495l1.349,0.513l0.748,0.285l2.644,0.026l0.775,1.269   l1.171,0.375l-0.225,1.048l-1.285,1.632l-0.375,3.61l-1.159,0.916l-1.723-0.051l-0.572,0.993v0.009l0.425,1.865l-0.425,0.542   l-1.448,1.851l-0.598,1.097l-1.785,0.857l-1.174,0.178l-0.048,0.497l0.824,0.236l-0.1,0.536l-0.738,0.71l0.449,0.563l0.887,0.025   l-0.05,0.685l-0.236,0.673l-0.076,0.548l1.313,1.105l-0.175,0.574l-1.786-0.034l-1.779-1.551l-1.386-2.432l0.194-2.348   l-1.048-1.397l0.425-2.367l-0.624-0.175v-5.134c0,0-1.746-1.323-1.846-1.323s-0.923-0.224-0.923-0.224l-0.176-0.972l-2.269-2.842   l0.225-1.022l0.074-1.671l1.571-1.096l-0.224-1.87L48.86,44.39l-1.796-2.046l-1.273-0.348l-0.822-0.151l0.098-0.748l-1.048-0.149   v0.423l-2.62-0.647l-1.054-1.612l0.43-0.781l-1.66-2.419l-0.285-1.77h-0.673l0.224,1.72l1.147,1.77l-0.125,0.699l-0.973-0.15   l-1.197-2.039V33.77l-1.247-0.6v-1.707c-1.543,3.608-2.398,7.576-2.398,11.741c0,16.542,13.47,30,30.028,30   c0.023,0,0.045-0.001,0.068-0.001c9.36-0.021,17.724-4.344,23.22-11.088h-0.99V60.12l-1.145-1.542V56.18l-0.876-0.87l-0.075-0.998   l1.11-2.119l-2.108-3.715l0.25-2.52l-1.897-0.197l-0.698-0.698h-1.274l-0.647,0.598h-2.246l-0.075,0.199h-1.248l-2.868-3.265   l0.023-2.544l0.474-0.174l0.176-0.973h-0.673l-0.275-1.021l3.32-2.393v-1.695l1.624-0.901l0.657,0.066h1.337l1.046-0.561   l3.37-0.262v1.721l2.658,0.673l0.524,0.374h0.487v-0.936l1.534-0.149l1.461,1.085h2.394l0.168-0.153   C92.183,33.943,91.911,33.15,91.609,32.372z" fill="#355067"/><path d="M37.097,43.232c0-15.949,12.493-28.982,28.243-29.89c-0.549-0.032-1.101-0.052-1.658-0.054   c-0.036,0-0.073-0.002-0.109-0.002c-16.568,0-30,13.407-30,29.945s13.431,29.945,30,29.945c0.036,0,0.073-0.002,0.109-0.002   c0.557-0.002,1.109-0.022,1.658-0.054C49.59,72.214,37.097,59.181,37.097,43.232z" fill="#F9F8F8" opacity="0.5"/><polygon fill="#F6CA41" points="63.838,68.52 45.503,61.735 29.517,50.204 29.517,87.194 63.838,107.571 97.631,87.194    97.631,50.204 85.925,58.717  "/><polygon fill="#07090B" opacity="0.05" points="63.838,107.571 97.631,87.194 97.631,50.204 85.885,59.281 63.838,68.52  "/><polygon fill="#07090B" opacity="0.07" points="37,74.11 63.838,89.247 63.838,68.52 48.04,63.089 29.517,50.204  "/><polygon fill="#FFFFFF" points="14,59.11 29.517,50.204 63.838,68.52 47.367,77.93  "/><polygon fill="#07090B" opacity="0.05" points="79.355,83.426 97.631,74.029 97.631,50.211 64.108,68.373 63.838,68.52  "/><polygon fill="#FFFFFF" points="63.838,68.52 79.355,77.426 114,59.614 97.631,50.211  "/><polygon fill="#010203" opacity="0.1" points="63.838,68.52 63.838,68.52 63.838,68.52  "/><path d="M63.683,13.288c-0.036,0-0.073-0.002-0.109-0.002c-0.59,0-1.175,0.022-1.757,0.055   C77.563,14.255,90.05,27.287,90.05,43.232c0,3.064-0.465,6.019-1.322,8.802L63.838,65.52L34.296,49.754   c0.27,1.213,0.618,2.397,1.03,3.55L63.838,68.52l17.049-9.237l6.391-3.462l4.532-2.455c1.14-3.165,1.765-6.576,1.765-10.133   C93.574,26.73,80.201,13.347,63.683,13.288z" fill="#010203" opacity="0.1"/></g></svg>