<?xml version="1.0" ?><!DOCTYPE svg  PUBLIC '-//W3C//DTD SVG 1.1//EN'  'http://www.w3.org/Graphics/SVG/1.1/DTD/svg11.dtd'><svg enable-background="new 0 0 128 128" id="Слой_1" version="1.1" viewBox="0 0 128 128" xml:space="preserve" xmlns="http://www.w3.org/2000/svg" xmlns:xlink="http://www.w3.org/1999/xlink"><g><path d="M126,64.059c0-34.104-27.637-61.763-61.775-61.885c-0.075,0-0.15-0.003-0.225-0.003   c-34.241,0-62,27.708-62,61.887s27.758,61.887,62,61.887c0.075,0,0.15-0.003,0.225-0.003C98.363,125.822,126,98.163,126,64.059" fill="#FFFFFF"/><path d="M126,64.059c0-3.685-0.323-7.294-0.941-10.802C119.952,24.3,8.009,24.272,2.926,53.345   C2.317,56.825,2,60.404,2,64.058c0,34.179,27.758,61.887,62,61.887c0.075,0,0.15-0.003,0.225-0.003   C98.363,125.822,126,98.163,126,64.059" fill="#65C8CE" opacity="0.2"/><path d="M118.704,41.668l-1.623-1.778l-0.311-2.859l-1.66,0.906l-0.893,3.496l-2.397-2.55l-0.098-2.41l-2.316-1.992   l-0.856-0.849h-2.688l0.851,2.391l3.233,1.801l0.561,0.595l-0.698,0.35l0.026,1.894l-1.572,0.657l-1.347-0.295l-0.838-1.19   l2.185,0.117l0.59-0.795l-4.845-3.266l-0.369-1.391l-1.968,1.778l-1.997-0.41l-3.038,3.945l-0.596,1.545l-1.942,0.177l-2.874,0.018   l-1.718-0.803L89,37.341l0.617-1.626l2.924-0.64l3.191,0.64l0.387-1.764l-1.355-0.32l0.464-2.745l3.209-0.502l2.244-3.168   L103,26.828l2.092,0.309h0.769l-0.422-2.975l-2.545,1.026l-0.893-2.223l-1.475-0.206l-0.277-1.524l1.207-1.31l2.861-1.121   l-73.562-4.956l1.394,0.771l2.627,0.566l0.205,1.032l4.179,0.154l-0.566-1.338l-3.712-0.104l0.875-0.823l-0.306-0.981h-3.357   l3.662-2.731h3.507l1.649,2.269l2.738,0.154l1.647-1.599l1.241,0.619l-2.271,2.216c0,0-3.146,0.053-2.99,0.053   c0.155,0,0.261,2.162,0.261,2.162l3.81-0.105l0.417-1.028l2.627-0.155l0.311-1.544l-1.547-0.26l0.516-1.39l1.185-0.359l4.126,0.204   l-2.277,2.062l0.369,1.595l2.372,0.362l-0.156-2.885l2.269-1.186l4.026-0.463l4.64,2.054l1.183,0.524v2.215l1.86,0.463l-0.93,1.752   h-2.113H63.71l-0.777,2.008l-6.013-1.417l4.724-2.514l-1.803-1.529l-4.076,0.515l-0.356,0.369l-0.013-0.007l-0.066,0.088   l-1.172,1.217l-1.937,0.163l0.156,0.966l0.674,0.279l-0.027,0.319l-1.575,0.225l-0.116,0.915l-1.51,0.079l-0.271-1.816   l-2.709,0.823l-5.53,3.235l0.622,2.277l1.547,1.007l3.093,0.426v3.513l1.428-0.23l1.318-2.744l3.288-1.041v-4.213l1.828-1.379   l4.424,1.042l-0.311,2.784h1.189l3.248-1.596l0.155,3.656l1.083,0.66l1.283,0.781l-0.1,2.168l-1.183,0.402l0,0l-1.083,0.369   l0.153,0.716l0.93,0.424l1.802,0.82l-0.053,1.493l-0.793,0.067c-0.003-0.025-0.005-0.041-0.005-0.041l-0.951-0.293l-2.498-0.769   l-0.145-1.104h-0.005l1.006-0.692v-1.007L61.5,29.263l-0.268,0.929l-1.9,0.293l-0.19-0.063v0.095l-0.659,0.1l-0.538-1.083   l-0.622-0.271H55.97l-0.616,0.503v1.12l1.159,0.386l1.143,0.16l-0.255,0.112L56.357,32.7l-0.461-0.578l-1.007-0.266l-2.748,2.584   l0.358,0.295l-4.058,2.244l-3.817,3.967l-0.258,1.766l-3.828,2.511l-1.895,1.906l0.208,3.811l-2.632-1.224l0.021-2.229   l-7.319,0.003l-3.789,1.918l-1.649,3.031l-0.651,2.405l1.067,2.331l2.985,0.363l4.745-3.171l0.416,1.572l-1.449,2.734l3.615,0.616   l0.358,5.574l4.953,0.84l3.143-3.633l3.817,0.775l1.341,1.863l3.66-0.216l0.103-1.082l2.011,0.979l2.271,3.553l3.916,0.054   l1.446,2.526l0.206,3.089l2.788,1.061l1.546,0.588l5.464,0.053l1.602,2.623l2.421,0.775l-0.466,2.166l-2.656,3.372l-0.774,7.46   l-2.395,1.894l-3.56-0.106l-1.183,2.053v0.018l0.878,3.855l-0.878,1.121l-2.993,3.825l-1.236,2.268l-3.689,1.771l-2.426,0.367   l-0.1,1.028l1.702,0.488l-0.206,1.107l-1.525,1.467l0.928,1.164l1.834,0.052l-0.103,1.416l-0.487,1.391l-0.158,1.132l2.714,2.284   l-0.361,1.186l-3.691-0.07l-3.676-3.205l-2.864-5.026l0.401-4.853l-2.166-2.887l0.878-4.892l-1.289-0.362V89.584   c0,0-3.609-2.734-3.815-2.734c-0.206,0-1.908-0.462-1.908-0.462l-0.363-2.009l-4.69-5.874l0.464-2.112l0.153-3.453l3.246-2.266   l-0.463-3.865l-4.743-0.357l-3.712-4.228l-2.63-0.719l-1.699-0.312l0.203-1.545l-2.166-0.308v0.875l-5.415-1.338l-2.179-3.332   l0.888-1.614l-3.431-4.999l-0.59-3.658h-1.391l0.463,3.554l2.371,3.658l-0.258,1.445l-2.01-0.31l-2.474-4.214v-4.904   c0,0-5.788,4.103-6.615,8.846C2.343,56.81,2.029,60.369,2.029,64c0,34.186,27.839,62,62.057,62c0.047,0,0.093-0.002,0.14-0.002   c19.343-0.043,36.63-8.978,47.989-22.916h-2.047V98.96l-2.366-3.187v-4.956l-1.81-1.799l-0.155-2.063l2.295-4.38l-4.356-7.677   l0.517-5.207l-3.921-0.408L98.93,67.84h-2.632l-1.338,1.236h-4.642l-0.155,0.412h-2.579l-5.928-6.747l0.047-5.257l0.98-0.36   l0.364-2.011h-1.391l-0.569-2.111l6.861-4.945v-3.504l3.356-1.863l1.357,0.136h2.764l2.161-1.159l6.964-0.542v3.556l5.494,1.391   l1.083,0.773h1.006V44.91l3.17-0.308l3.02,2.243L118.704,41.668z" fill="#65C8CE"/><path d="M63.701,53.481c8.129,0,14.719-6.59,14.719-14.719L73.64,2.75C70.499,2.259,67.28,2,64,2   c-3.494,0-6.916,0.303-10.252,0.859l-4.765,35.904C48.983,46.892,55.572,53.481,63.701,53.481z" fill="#C55C44"/><path d="M34.264,53.481c8.129,0,14.719-6.59,14.719-14.719l4.765-35.904c-8.581,1.428-16.561,4.617-23.565,9.185   L19.545,38.763C19.545,46.892,26.135,53.481,34.264,53.481z" fill="#FFFFFF"/><path d="M19.545,38.763l10.638-26.718c-14.129,9.215-24.26,24.03-27.252,41.301c0.622,0.08,1.252,0.136,1.896,0.136   C12.955,53.481,19.545,46.892,19.545,38.763z" fill="#C55C44"/><path d="M93.139,53.481c8.129,0,14.719-6.59,14.719-14.719L97.015,11.531c-6.978-4.4-14.887-7.456-23.375-8.781   l4.78,36.013C78.42,46.892,85.01,53.481,93.139,53.481z" fill="#FFFFFF"/><path d="M96.962,11.531l10.842,27.232c0,8.129,6.59,14.719,14.719,14.719c0.846,0,1.67-0.087,2.477-0.224   C121.931,35.699,111.484,20.688,96.962,11.531z" fill="#C55C44"/><path d="M63.701,53.481c8.129,0,14.719-6.59,14.719-14.719H48.983   C48.983,46.892,55.572,53.481,63.701,53.481z" fill="#050708" opacity="0.1"/><path d="M34.264,53.481c8.129,0,14.719-6.59,14.719-14.719H19.545   C19.545,46.892,26.135,53.481,34.264,53.481z" fill="#050708" opacity="0.1"/><path d="M19.545,38.763H7.371c-2.05,4.594-3.556,9.48-4.44,14.583   c0.622,0.08,1.252,0.136,1.896,0.136C12.955,53.481,19.545,46.892,19.545,38.763z" fill="#050708" opacity="0.1"/><path d="M93.139,53.481c8.129,0,14.719-6.59,14.719-14.719H78.42   C78.42,46.892,85.01,53.481,93.139,53.481z" fill="#050708" opacity="0.1"/><path d="M107.857,38.763c0,8.129,6.59,14.719,14.719,14.719c0.846,0,1.67-0.087,2.477-0.224   c-0.886-5.071-2.386-9.927-4.425-14.494H107.857z" fill="#050708" opacity="0.1"/></g></svg>